<svg width="21" height="20" viewBox="0 0 21 20" fill="none" xmlns="http://www.w3.org/2000/svg">
<g clip-path="url(#clip0_594_11512)">
<path d="M19.2502 9.23403V10.0007C19.2491 11.7977 18.6672 13.5463 17.5913 14.9856C16.5153 16.4248 15.0029 17.4778 13.2796 17.9873C11.5564 18.4968 9.71455 18.4356 8.02889 17.8129C6.34323 17.1901 4.90404 16.0391 3.92596 14.5316C2.94788 13.0241 2.48332 11.2408 2.60156 9.44763C2.7198 7.65451 3.4145 5.94764 4.58206 4.5816C5.74962 3.21555 7.32748 2.26352 9.08032 1.86749C10.8332 1.47146 12.6671 1.65265 14.3085 2.38403" stroke="#22C55E" stroke-width="1.33" stroke-linecap="round" stroke-linejoin="round"/>
<path d="M19.2503 3.33398L10.917 11.6757L8.41699 9.17565" stroke="#22C55E" stroke-width="1.33" stroke-linecap="round" stroke-linejoin="round"/>
</g>
<defs>
<clipPath id="clip0_594_11512">
<rect width="20" height="20" fill="white" transform="translate(0.916992 0.000488281)"/>
</clipPath>
</defs>
</svg>
