<svg width="10" height="16" viewBox="0 0 10 16" fill="none" xmlns="http://www.w3.org/2000/svg">
<path d="M5.09017 5.52221C5.46498 5.53611 5.84027 5.54306 6.21448 5.5663C6.49499 5.58368 6.77634 5.59913 7.05553 5.62861C7.20686 5.64467 7.36287 5.63892 7.51062 5.68732C7.52548 5.69224 7.54201 5.69355 7.55795 5.69391C7.71168 5.69727 7.85979 5.73429 8.00945 5.76485C8.16725 5.79708 8.31883 5.85052 8.47424 5.8891C8.61875 5.92493 8.76026 5.96891 8.89794 6.02283C9.14154 6.11821 9.37796 6.23108 9.55865 6.42831C9.6913 6.57305 9.78967 6.73733 9.79255 6.9433C9.79399 7.04312 9.74067 7.1216 9.69226 7.20056C9.57195 7.39659 9.38575 7.50048 9.16922 7.5514C8.91256 7.61179 8.65146 7.64978 8.38893 7.67254C8.02538 7.70394 7.66112 7.72527 7.29793 7.76337C7.07614 7.78661 6.85182 7.79273 6.63063 7.821C6.38547 7.85228 6.13971 7.88163 5.89683 7.92992C5.77353 7.95437 5.64891 7.97186 5.52501 7.99307C5.49745 7.99774 5.47013 8.00385 5.44329 8.01164C5.41693 8.01931 5.39261 8.03633 5.39416 8.06472C5.3956 8.0924 5.42688 8.08929 5.44677 8.09432C5.84902 8.19749 6.25342 8.29287 6.65304 8.40538C6.92264 8.48123 7.18182 8.58823 7.39846 8.77587C7.51349 8.87544 7.59617 8.99694 7.63092 9.1448C7.65992 9.2681 7.63152 9.38193 7.56262 9.49181C7.42926 9.70438 7.21309 9.79053 6.99585 9.86961C6.7429 9.96175 6.48648 10.0483 6.21592 10.0756C5.93817 10.1035 5.65969 10.1251 5.38218 10.1555C5.20748 10.1747 5.03158 10.1683 4.85735 10.1897C4.83087 10.1929 4.79313 10.1897 4.78989 10.2249C4.7863 10.2636 4.82632 10.2689 4.8534 10.2758C4.89761 10.2871 4.94351 10.2923 4.98868 10.2997C5.23911 10.3406 5.48655 10.3968 5.73123 10.4629C5.86567 10.4992 5.9982 10.5461 6.12222 10.6118C6.24384 10.6761 6.31441 10.7768 6.33047 10.9142C6.34605 11.0483 6.28062 11.1479 6.18213 11.2236C5.99328 11.3688 5.78359 11.4713 5.54802 11.5216C5.4077 11.5517 5.27698 11.6164 5.1369 11.6502C4.85148 11.7191 4.56965 11.801 4.2907 11.8926C4.24709 11.907 4.20323 11.9203 4.16465 11.9469C4.14667 11.9593 4.12439 11.9675 4.12726 11.9953C4.13014 12.0244 4.15243 12.0352 4.17579 12.0418C4.26614 12.0673 4.35709 12.09 4.45175 12.0932C4.63148 12.099 4.8099 12.1153 4.98664 12.1509C5.17536 12.1889 5.34611 12.2655 5.48511 12.3973C5.68881 12.5907 5.66952 12.8355 5.4137 12.9881C5.27817 13.069 5.12216 13.0957 4.97214 13.1363C4.8504 13.1693 4.7283 13.1986 4.62357 13.2742C4.58152 13.3047 4.55072 13.3425 4.53766 13.393C4.51933 13.4642 4.53538 13.4918 4.60572 13.5127C4.72626 13.5484 4.84896 13.5787 4.964 13.6302C5.07016 13.6777 5.17177 13.7338 5.23576 13.8378C5.29303 13.9308 5.29315 14.0213 5.22881 14.1118C5.1544 14.2164 5.05171 14.2828 4.9368 14.3335C4.74975 14.4159 4.55096 14.4465 4.34978 14.4677C4.29238 14.4737 4.23511 14.4845 4.18166 14.5091C4.14715 14.5251 4.11756 14.5464 4.11816 14.588C4.11876 14.6264 4.15638 14.6296 4.18142 14.643C4.22456 14.6661 4.27345 14.668 4.32006 14.6787C4.443 14.7071 4.53874 14.7735 4.60249 14.8832C4.61339 14.9019 4.62154 14.9229 4.62669 14.9439C4.6316 14.9636 4.62813 14.9844 4.60896 14.9973C4.59002 15.0101 4.57037 15.0071 4.55312 14.9942C4.46241 14.9256 4.36152 14.9171 4.25188 14.931C4.01954 14.9605 3.84652 14.8451 3.70656 14.679C3.61537 14.5708 3.64952 14.417 3.7721 14.3118C3.86413 14.2328 3.97185 14.1799 4.08544 14.1402C4.17783 14.1081 4.27189 14.0819 4.36919 14.0672C4.4128 14.0606 4.45307 14.0426 4.4871 14.0124C4.54653 13.9596 4.54245 13.9302 4.47439 13.8909C4.36487 13.8275 4.24361 13.8181 4.12199 13.8093C3.98479 13.7992 3.84795 13.8115 3.71087 13.8144C3.5684 13.8174 3.42833 13.7888 3.30815 13.7018C3.18844 13.6151 3.1616 13.4912 3.24488 13.3668C3.36542 13.1865 3.52575 13.0516 3.73029 12.9736C3.82003 12.9393 3.91362 12.9178 4.00672 12.8951C4.07358 12.8788 4.13577 12.8532 4.19101 12.8119C4.20659 12.8002 4.22875 12.7922 4.22612 12.7678C4.22312 12.7407 4.20299 12.7258 4.17903 12.7189C4.1311 12.7051 4.08305 12.6907 4.03404 12.6817C3.737 12.6278 3.44546 12.5524 3.1604 12.4532C3.03135 12.4083 2.92015 12.3304 2.805 12.2577C2.51239 12.0728 2.63461 11.6883 2.85737 11.5699C2.9585 11.5162 3.06179 11.4676 3.17394 11.4452C3.51209 11.3776 3.83226 11.2512 4.15902 11.1469C4.2683 11.1121 4.37638 11.067 4.47056 10.9988C4.52484 10.9595 4.51933 10.926 4.46049 10.8963C4.43042 10.8812 4.39783 10.8702 4.36559 10.8604C4.10366 10.7812 3.8446 10.6935 3.58973 10.5939C3.49339 10.5563 3.39741 10.5149 3.32324 10.4373C3.2051 10.314 3.19108 10.1262 3.28969 9.98656C3.38435 9.85236 3.5146 9.77843 3.67337 9.74116C4.04327 9.65429 4.4176 9.59558 4.79516 9.55759C4.97969 9.53902 5.16542 9.53351 5.34995 9.51601C5.59439 9.49277 5.83763 9.45862 6.07764 9.40506C6.13456 9.39236 6.1868 9.36707 6.23952 9.34275C6.28062 9.32382 6.28781 9.29386 6.26948 9.2542C6.24623 9.20388 6.20202 9.17644 6.15732 9.14984C6.07884 9.10311 5.99101 9.08226 5.90294 9.06404C5.64472 9.01036 5.39392 8.92816 5.1381 8.86598C4.91223 8.8111 4.69427 8.73441 4.47775 8.65341C4.28184 8.58008 4.1178 8.45391 3.98395 8.29502C3.90595 8.2024 3.90127 8.08461 3.93219 7.96982C3.9794 7.79464 4.09827 7.67925 4.25344 7.59406C4.54054 7.43625 4.84585 7.34986 5.17165 7.30337C5.52238 7.25328 5.8713 7.18367 6.22179 7.12951C6.65735 7.06229 7.09495 7.00609 7.53422 6.96703C7.63547 6.95804 7.73876 6.97266 7.83882 6.95181C7.92557 6.93372 8.01747 6.92162 8.08505 6.85487C8.14185 6.79868 8.13526 6.76585 8.06001 6.73769C7.76369 6.62685 7.4555 6.55783 7.14779 6.48882C6.89029 6.43106 6.62632 6.41752 6.36462 6.38924C6.13252 6.3642 5.90018 6.34359 5.667 6.33425C5.58924 6.33113 5.51135 6.33185 5.43347 6.33065C5.30777 6.32873 5.1822 6.32909 5.0565 6.32106C4.88096 6.3098 4.70637 6.34167 4.53083 6.34683C4.4152 6.35018 4.29981 6.36049 4.1843 6.36396C3.79703 6.37582 3.41227 6.40566 3.02967 6.47276C2.55589 6.5558 2.07827 6.61751 1.60712 6.71468C1.2099 6.79664 0.808613 6.85308 0.409479 6.92305C0.345253 6.93432 0.264971 6.94522 0.217041 6.86841C0.201105 6.84277 0.206137 6.82732 0.221595 6.80048C0.327999 6.61475 0.513247 6.53854 0.694181 6.46162C1.18199 6.25432 1.68692 6.09592 2.19726 5.95501C2.57063 5.85196 2.94484 5.75215 3.3278 5.68936C3.80074 5.61183 4.27465 5.54677 4.7549 5.53563C4.86646 5.53299 4.97813 5.5282 5.09005 5.52173L5.09017 5.52221Z" fill="white"/>
<path d="M4.38585 3.90827C4.38585 3.53969 4.47164 3.24673 4.67918 2.99522C4.71213 2.95532 4.74964 2.91913 4.78678 2.88283C4.80967 2.86054 4.81566 2.84269 4.78762 2.81932C4.63257 2.69075 4.45331 2.63455 4.25416 2.64666C4.01787 2.66104 3.80219 2.76013 3.57716 2.82064C3.38616 2.87204 3.19564 2.92824 2.99709 2.93735C2.70759 2.95077 2.43907 2.876 2.19427 2.72107C1.94683 2.56446 1.71928 2.38449 1.52828 2.15982C1.44573 2.06276 1.40247 1.94809 1.35741 1.83306C1.34903 1.81173 1.34843 1.78861 1.37072 1.77387C1.3972 1.75638 1.4208 1.77099 1.44261 1.78513C1.54806 1.85367 1.65038 1.92652 1.75787 1.99219C1.9938 2.13609 2.23597 2.26071 2.50401 2.34003C2.79842 2.42714 3.09127 2.44176 3.39119 2.3912C3.59585 2.35669 3.80027 2.31834 4.00637 2.29522C4.24554 2.26838 4.4756 2.31846 4.69488 2.41528C4.8304 2.47519 4.96077 2.54517 5.07076 2.64666C5.10084 2.67434 5.12433 2.66104 5.15153 2.64738C5.33126 2.55691 5.51999 2.49424 5.71937 2.46537C5.96837 2.42942 6.21281 2.43337 6.44635 2.54421C6.58738 2.61107 6.70852 2.70333 6.81361 2.81776C6.99346 3.01355 7.1466 3.2248 7.22496 3.48422C7.32586 3.81816 7.3249 4.14588 7.17068 4.46353C7.04211 4.72845 6.83278 4.90903 6.56138 5.01986C6.31837 5.1192 6.06782 5.17911 5.80337 5.16724C5.47218 5.15239 5.17681 5.03748 4.91008 4.84408C4.78642 4.75446 4.67678 4.64973 4.58823 4.52512C4.44732 4.32681 4.37758 4.10586 4.38573 3.90791L4.38585 3.90827Z" fill="white"/>
<path d="M8.92908 4.89169C8.93136 5.15051 8.88463 5.3989 8.78565 5.63914C8.75198 5.72086 8.6179 5.78545 8.54373 5.76568C8.47674 5.74782 8.45158 5.69163 8.44439 5.63555C8.40605 5.3324 8.29689 5.04926 8.2045 4.76144C8.06455 4.32541 7.88697 3.90375 7.6871 3.49252C7.57878 3.26977 7.42349 3.0741 7.27611 2.8752C7.00015 2.50291 6.70766 2.14404 6.39935 1.79835C6.23471 1.61382 6.06121 1.43697 5.88842 1.25963C5.73792 1.10518 5.59138 0.947251 5.44304 0.790883C5.27936 0.618458 5.09998 0.463647 4.90527 0.326211C4.8293 0.27253 4.77669 0.192608 4.71618 0.122632C4.6667 0.0654767 4.69989 0.00652401 4.77909 0.00161129C4.90431 -0.00605736 5.02557 0.0197045 5.14587 0.0496601C5.39139 0.111009 5.60564 0.23874 5.8212 0.365512C6.12903 0.546445 6.41038 0.759609 6.67159 1.00357C6.87505 1.19361 7.05479 1.40366 7.2404 1.60939C7.37556 1.75929 7.50138 1.91686 7.62276 2.0773C7.79387 2.30328 7.93142 2.55251 8.09103 2.78677C8.37046 3.19716 8.57596 3.64374 8.73952 4.11081C8.81333 4.32169 8.89577 4.53019 8.92393 4.75437C8.92968 4.80027 8.92884 4.84592 8.9292 4.89169H8.92908Z" fill="white"/>
<path d="M4.774 15.5488C4.7746 15.8133 4.61248 16.0002 4.38265 16.0002C4.16218 16.0002 3.97034 15.807 3.97046 15.5855C3.9707 15.3517 4.16505 15.1477 4.38505 15.1504C4.62518 15.1534 4.77352 15.3052 4.77412 15.5488H4.774Z" fill="white"/>
</svg>
