<svg width="17" height="17" viewBox="0 0 17 17" fill="none" xmlns="http://www.w3.org/2000/svg">
<mask id="path-1-inside-1_242_3587" fill="white">
<path d="M9.0198 6.02184C9.39461 6.03574 9.7699 6.04269 10.1441 6.06594C10.4246 6.08331 10.706 6.09877 10.9852 6.12825C11.1365 6.1443 11.2925 6.13855 11.4402 6.18696C11.4551 6.19187 11.4716 6.19319 11.4876 6.19355C11.6413 6.1969 11.7894 6.23393 11.9391 6.26449C12.0969 6.29672 12.2485 6.35016 12.4039 6.38874C12.5484 6.42457 12.6899 6.46855 12.8276 6.52247C13.0712 6.61785 13.3076 6.73072 13.4883 6.92795C13.6209 7.0727 13.7193 7.23698 13.7222 7.44296C13.7236 7.54277 13.6703 7.62125 13.6219 7.70022C13.5016 7.89625 13.3154 8.00014 13.0989 8.05106C12.8422 8.11145 12.5811 8.14944 12.3186 8.17221C11.955 8.2036 11.5907 8.22493 11.2276 8.26303C11.0058 8.28628 10.7815 8.29239 10.5603 8.32067C10.3151 8.35194 10.0693 8.3813 9.82645 8.42959C9.70315 8.45403 9.57854 8.47153 9.45464 8.49274C9.42708 8.49741 9.39976 8.50352 9.37292 8.51131C9.34656 8.51898 9.32223 8.53599 9.32379 8.56439C9.32523 8.59207 9.3565 8.58895 9.37639 8.59399C9.77864 8.69716 10.183 8.79254 10.5827 8.90505C10.8523 8.9809 11.1114 9.0879 11.3281 9.27555C11.4431 9.37512 11.5258 9.49662 11.5605 9.64449C11.5895 9.76778 11.5611 9.88162 11.4922 9.9915C11.3589 10.2041 11.1427 10.2902 10.9255 10.3693C10.6725 10.4614 10.4161 10.548 10.1455 10.5753C9.86779 10.6032 9.58932 10.6248 9.31181 10.6552C9.1371 10.6744 8.9612 10.668 8.78698 10.6894C8.7605 10.6926 8.72275 10.6894 8.71952 10.7246C8.71592 10.7633 8.75594 10.7686 8.78302 10.7755C8.82724 10.7868 8.87313 10.792 8.91831 10.7994C9.16874 10.8403 9.41617 10.8965 9.66086 10.9626C9.7953 10.9989 9.92782 11.0458 10.0518 11.1115C10.1735 11.1758 10.244 11.2765 10.2601 11.4139C10.2757 11.548 10.2102 11.6476 10.1118 11.7233C9.92291 11.8685 9.71322 11.971 9.47764 12.0213C9.33733 12.0514 9.2066 12.1161 9.06653 12.1499C8.78111 12.2188 8.49928 12.3007 8.22033 12.3923C8.17671 12.4067 8.13286 12.42 8.09427 12.4466C8.0763 12.459 8.05401 12.4672 8.05689 12.495C8.05977 12.5241 8.08205 12.5349 8.10542 12.5415C8.19577 12.567 8.28671 12.5898 8.38137 12.5929C8.56111 12.5988 8.73953 12.615 8.91627 12.6506C9.10499 12.6886 9.27574 12.7652 9.41474 12.897C9.61844 13.0904 9.59915 13.3352 9.34332 13.4878C9.2078 13.5687 9.05179 13.5954 8.90177 13.6361C8.78003 13.669 8.65793 13.6984 8.5532 13.774C8.51114 13.8044 8.48035 13.8423 8.46729 13.8927C8.44895 13.9639 8.46501 13.9916 8.53535 14.0124C8.65589 14.0481 8.77859 14.0785 8.89362 14.13C8.99979 14.1774 9.1014 14.2335 9.16538 14.3375C9.22266 14.4305 9.22278 14.5211 9.15843 14.6116C9.08402 14.7162 8.98133 14.7825 8.86642 14.8332C8.67938 14.9157 8.48059 14.9462 8.2794 14.9674C8.22201 14.9734 8.16473 14.9842 8.11129 15.0089C8.07678 15.0248 8.04718 15.0462 8.04778 15.0877C8.04838 15.1262 8.08601 15.1293 8.11105 15.1427C8.15419 15.1659 8.20308 15.1678 8.24969 15.1784C8.37263 15.2068 8.46837 15.2732 8.53211 15.383C8.54302 15.4017 8.55116 15.4226 8.55632 15.4436C8.56123 15.4634 8.55775 15.4841 8.53858 15.4971C8.51965 15.5099 8.5 15.5069 8.48274 15.4939C8.39204 15.4254 8.29115 15.4169 8.18151 15.4308C7.94917 15.4603 7.77614 15.3449 7.63619 15.1788C7.545 15.0706 7.57915 14.9167 7.70173 14.8115C7.79376 14.7326 7.90148 14.6796 8.01507 14.64C8.10746 14.6078 8.20152 14.5816 8.29881 14.567C8.34243 14.5604 8.38269 14.5423 8.41672 14.5121C8.47615 14.4594 8.47208 14.4299 8.40402 14.3906C8.2945 14.3272 8.17324 14.3179 8.05162 14.309C7.91442 14.2989 7.77758 14.3113 7.6405 14.3142C7.49803 14.3171 7.35796 14.2885 7.23777 14.2015C7.11807 14.1149 7.09123 13.991 7.1745 13.8665C7.29505 13.6863 7.45537 13.5514 7.65991 13.4733C7.74966 13.4391 7.84324 13.4175 7.93635 13.3949C8.00321 13.3786 8.0654 13.3529 8.12064 13.3116C8.13621 13.3 8.15838 13.2919 8.15574 13.2675C8.15275 13.2404 8.13262 13.2256 8.10865 13.2186C8.06072 13.2048 8.01267 13.1904 7.96367 13.1815C7.66662 13.1275 7.37509 13.0522 7.09003 12.9529C6.96098 12.908 6.84978 12.8301 6.73463 12.7574C6.44202 12.5725 6.56424 12.188 6.78699 12.0696C6.88812 12.0159 6.99141 11.9673 7.10357 11.9449C7.44171 11.8773 7.76188 11.7509 8.08864 11.6466C8.19792 11.6118 8.306 11.5667 8.40019 11.4985C8.45447 11.4592 8.44895 11.4257 8.39012 11.396C8.36004 11.3809 8.32745 11.37 8.29522 11.3601C8.03328 11.2809 7.77422 11.1932 7.51936 11.0936C7.42302 11.056 7.32704 11.0146 7.25287 10.937C7.13472 10.8137 7.1207 10.6258 7.21932 10.4863C7.31398 10.352 7.44423 10.2781 7.603 10.2409C7.97289 10.154 8.34722 10.0953 8.72479 10.0573C8.90932 10.0387 9.09505 10.0332 9.27958 10.0157C9.52402 9.99245 9.76726 9.9583 10.0073 9.90474C10.0642 9.89204 10.1164 9.86676 10.1692 9.84243C10.2102 9.8235 10.2174 9.79355 10.1991 9.75389C10.1759 9.70356 10.1316 9.67612 10.087 9.64952C10.0085 9.60279 9.92063 9.58194 9.83256 9.56372C9.57434 9.51004 9.32355 9.42784 9.06773 9.36565C8.84186 9.31078 8.6239 9.23409 8.40738 9.15309C8.21146 9.07975 8.04742 8.95358 7.91358 8.79469C7.83557 8.70207 7.8309 8.58428 7.86182 8.46949C7.90903 8.29431 8.02789 8.17892 8.18306 8.09372C8.47016 7.93591 8.77548 7.84952 9.10128 7.80303C9.452 7.75294 9.80093 7.68332 10.1514 7.62916C10.587 7.56194 11.0246 7.50574 11.4638 7.46668C11.5651 7.45769 11.6684 7.47231 11.7684 7.45146C11.8552 7.43337 11.9471 7.42127 12.0147 7.35453C12.0715 7.29833 12.0649 7.2655 11.9896 7.23734C11.6933 7.1265 11.3851 7.05748 11.0774 6.98846C10.8199 6.93071 10.5559 6.91717 10.2942 6.88889C10.0621 6.86385 9.82981 6.84324 9.59663 6.83389C9.51886 6.83077 9.44098 6.83149 9.36309 6.83029C9.2374 6.82838 9.11182 6.82874 8.98613 6.82071C8.81058 6.80945 8.636 6.84132 8.46046 6.84647C8.34483 6.84983 8.22944 6.86013 8.11393 6.86361C7.72665 6.87547 7.3419 6.90531 6.9593 6.97241C6.48552 7.05545 6.0079 7.11715 5.53675 7.21433C5.13953 7.29629 4.73824 7.35273 4.33911 7.42271C4.27488 7.43397 4.1946 7.44487 4.14667 7.36807C4.13073 7.34242 4.13576 7.32697 4.15122 7.30013C4.25762 7.1144 4.44287 7.03819 4.62381 6.96126C5.11161 6.75397 5.61655 6.59556 6.12688 6.45465C6.50025 6.3516 6.87447 6.25178 7.25742 6.189C7.73037 6.11147 8.20427 6.04641 8.68453 6.03526C8.79608 6.03263 8.90776 6.02783 9.01968 6.02136L9.0198 6.02184Z"/>
</mask>
<path d="M9.0198 6.02184C9.39461 6.03574 9.7699 6.04269 10.1441 6.06594C10.4246 6.08331 10.706 6.09877 10.9852 6.12825C11.1365 6.1443 11.2925 6.13855 11.4402 6.18696C11.4551 6.19187 11.4716 6.19319 11.4876 6.19355C11.6413 6.1969 11.7894 6.23393 11.9391 6.26449C12.0969 6.29672 12.2485 6.35016 12.4039 6.38874C12.5484 6.42457 12.6899 6.46855 12.8276 6.52247C13.0712 6.61785 13.3076 6.73072 13.4883 6.92795C13.6209 7.0727 13.7193 7.23698 13.7222 7.44296C13.7236 7.54277 13.6703 7.62125 13.6219 7.70022C13.5016 7.89625 13.3154 8.00014 13.0989 8.05106C12.8422 8.11145 12.5811 8.14944 12.3186 8.17221C11.955 8.2036 11.5907 8.22493 11.2276 8.26303C11.0058 8.28628 10.7815 8.29239 10.5603 8.32067C10.3151 8.35194 10.0693 8.3813 9.82645 8.42959C9.70315 8.45403 9.57854 8.47153 9.45464 8.49274C9.42708 8.49741 9.39976 8.50352 9.37292 8.51131C9.34656 8.51898 9.32223 8.53599 9.32379 8.56439C9.32523 8.59207 9.3565 8.58895 9.37639 8.59399C9.77864 8.69716 10.183 8.79254 10.5827 8.90505C10.8523 8.9809 11.1114 9.0879 11.3281 9.27555C11.4431 9.37512 11.5258 9.49662 11.5605 9.64449C11.5895 9.76778 11.5611 9.88162 11.4922 9.9915C11.3589 10.2041 11.1427 10.2902 10.9255 10.3693C10.6725 10.4614 10.4161 10.548 10.1455 10.5753C9.86779 10.6032 9.58932 10.6248 9.31181 10.6552C9.1371 10.6744 8.9612 10.668 8.78698 10.6894C8.7605 10.6926 8.72275 10.6894 8.71952 10.7246C8.71592 10.7633 8.75594 10.7686 8.78302 10.7755C8.82724 10.7868 8.87313 10.792 8.91831 10.7994C9.16874 10.8403 9.41617 10.8965 9.66086 10.9626C9.7953 10.9989 9.92782 11.0458 10.0518 11.1115C10.1735 11.1758 10.244 11.2765 10.2601 11.4139C10.2757 11.548 10.2102 11.6476 10.1118 11.7233C9.92291 11.8685 9.71322 11.971 9.47764 12.0213C9.33733 12.0514 9.2066 12.1161 9.06653 12.1499C8.78111 12.2188 8.49928 12.3007 8.22033 12.3923C8.17671 12.4067 8.13286 12.42 8.09427 12.4466C8.0763 12.459 8.05401 12.4672 8.05689 12.495C8.05977 12.5241 8.08205 12.5349 8.10542 12.5415C8.19577 12.567 8.28671 12.5898 8.38137 12.5929C8.56111 12.5988 8.73953 12.615 8.91627 12.6506C9.10499 12.6886 9.27574 12.7652 9.41474 12.897C9.61844 13.0904 9.59915 13.3352 9.34332 13.4878C9.2078 13.5687 9.05179 13.5954 8.90177 13.6361C8.78003 13.669 8.65793 13.6984 8.5532 13.774C8.51114 13.8044 8.48035 13.8423 8.46729 13.8927C8.44895 13.9639 8.46501 13.9916 8.53535 14.0124C8.65589 14.0481 8.77859 14.0785 8.89362 14.13C8.99979 14.1774 9.1014 14.2335 9.16538 14.3375C9.22266 14.4305 9.22278 14.5211 9.15843 14.6116C9.08402 14.7162 8.98133 14.7825 8.86642 14.8332C8.67938 14.9157 8.48059 14.9462 8.2794 14.9674C8.22201 14.9734 8.16473 14.9842 8.11129 15.0089C8.07678 15.0248 8.04718 15.0462 8.04778 15.0877C8.04838 15.1262 8.08601 15.1293 8.11105 15.1427C8.15419 15.1659 8.20308 15.1678 8.24969 15.1784C8.37263 15.2068 8.46837 15.2732 8.53211 15.383C8.54302 15.4017 8.55116 15.4226 8.55632 15.4436C8.56123 15.4634 8.55775 15.4841 8.53858 15.4971C8.51965 15.5099 8.5 15.5069 8.48274 15.4939C8.39204 15.4254 8.29115 15.4169 8.18151 15.4308C7.94917 15.4603 7.77614 15.3449 7.63619 15.1788C7.545 15.0706 7.57915 14.9167 7.70173 14.8115C7.79376 14.7326 7.90148 14.6796 8.01507 14.64C8.10746 14.6078 8.20152 14.5816 8.29881 14.567C8.34243 14.5604 8.38269 14.5423 8.41672 14.5121C8.47615 14.4594 8.47208 14.4299 8.40402 14.3906C8.2945 14.3272 8.17324 14.3179 8.05162 14.309C7.91442 14.2989 7.77758 14.3113 7.6405 14.3142C7.49803 14.3171 7.35796 14.2885 7.23777 14.2015C7.11807 14.1149 7.09123 13.991 7.1745 13.8665C7.29505 13.6863 7.45537 13.5514 7.65991 13.4733C7.74966 13.4391 7.84324 13.4175 7.93635 13.3949C8.00321 13.3786 8.0654 13.3529 8.12064 13.3116C8.13621 13.3 8.15838 13.2919 8.15574 13.2675C8.15275 13.2404 8.13262 13.2256 8.10865 13.2186C8.06072 13.2048 8.01267 13.1904 7.96367 13.1815C7.66662 13.1275 7.37509 13.0522 7.09003 12.9529C6.96098 12.908 6.84978 12.8301 6.73463 12.7574C6.44202 12.5725 6.56424 12.188 6.78699 12.0696C6.88812 12.0159 6.99141 11.9673 7.10357 11.9449C7.44171 11.8773 7.76188 11.7509 8.08864 11.6466C8.19792 11.6118 8.306 11.5667 8.40019 11.4985C8.45447 11.4592 8.44895 11.4257 8.39012 11.396C8.36004 11.3809 8.32745 11.37 8.29522 11.3601C8.03328 11.2809 7.77422 11.1932 7.51936 11.0936C7.42302 11.056 7.32704 11.0146 7.25287 10.937C7.13472 10.8137 7.1207 10.6258 7.21932 10.4863C7.31398 10.352 7.44423 10.2781 7.603 10.2409C7.97289 10.154 8.34722 10.0953 8.72479 10.0573C8.90932 10.0387 9.09505 10.0332 9.27958 10.0157C9.52402 9.99245 9.76726 9.9583 10.0073 9.90474C10.0642 9.89204 10.1164 9.86676 10.1692 9.84243C10.2102 9.8235 10.2174 9.79355 10.1991 9.75389C10.1759 9.70356 10.1316 9.67612 10.087 9.64952C10.0085 9.60279 9.92063 9.58194 9.83256 9.56372C9.57434 9.51004 9.32355 9.42784 9.06773 9.36565C8.84186 9.31078 8.6239 9.23409 8.40738 9.15309C8.21146 9.07975 8.04742 8.95358 7.91358 8.79469C7.83557 8.70207 7.8309 8.58428 7.86182 8.46949C7.90903 8.29431 8.02789 8.17892 8.18306 8.09372C8.47016 7.93591 8.77548 7.84952 9.10128 7.80303C9.452 7.75294 9.80093 7.68332 10.1514 7.62916C10.587 7.56194 11.0246 7.50574 11.4638 7.46668C11.5651 7.45769 11.6684 7.47231 11.7684 7.45146C11.8552 7.43337 11.9471 7.42127 12.0147 7.35453C12.0715 7.29833 12.0649 7.2655 11.9896 7.23734C11.6933 7.1265 11.3851 7.05748 11.0774 6.98846C10.8199 6.93071 10.5559 6.91717 10.2942 6.88889C10.0621 6.86385 9.82981 6.84324 9.59663 6.83389C9.51886 6.83077 9.44098 6.83149 9.36309 6.83029C9.2374 6.82838 9.11182 6.82874 8.98613 6.82071C8.81058 6.80945 8.636 6.84132 8.46046 6.84647C8.34483 6.84983 8.22944 6.86013 8.11393 6.86361C7.72665 6.87547 7.3419 6.90531 6.9593 6.97241C6.48552 7.05545 6.0079 7.11715 5.53675 7.21433C5.13953 7.29629 4.73824 7.35273 4.33911 7.42271C4.27488 7.43397 4.1946 7.44487 4.14667 7.36807C4.13073 7.34242 4.13576 7.32697 4.15122 7.30013C4.25762 7.1144 4.44287 7.03819 4.62381 6.96126C5.11161 6.75397 5.61655 6.59556 6.12688 6.45465C6.50025 6.3516 6.87447 6.25178 7.25742 6.189C7.73037 6.11147 8.20427 6.04641 8.68453 6.03526C8.79608 6.03263 8.90776 6.02783 9.01968 6.02136L9.0198 6.02184Z" fill="white" stroke="white" stroke-width="1.77333" mask="url(#path-1-inside-1_242_3587)"/>
<path d="M8.31542 4.40793C8.31542 4.03935 8.40121 3.74638 8.60875 3.49487C8.6417 3.45497 8.6792 3.41878 8.71635 3.38248C8.73923 3.36019 8.74522 3.34233 8.71719 3.31897C8.56213 3.1904 8.38288 3.1342 8.18373 3.1463C7.94744 3.16068 7.73175 3.25978 7.50672 3.32029C7.31572 3.37169 7.1252 3.42789 6.92665 3.437C6.63716 3.45042 6.36863 3.37565 6.12383 3.22071C5.8764 3.0641 5.64885 2.88413 5.45785 2.65946C5.37529 2.5624 5.33203 2.44773 5.28698 2.3327C5.27859 2.31137 5.27799 2.28824 5.30028 2.2735C5.32676 2.25601 5.35037 2.27063 5.37218 2.28477C5.47762 2.35331 5.57995 2.42616 5.68743 2.49182C5.92337 2.63573 6.16553 2.76035 6.43358 2.83967C6.72799 2.92678 7.02084 2.9414 7.32076 2.89084C7.52542 2.85633 7.72984 2.81798 7.93593 2.79486C8.1751 2.76802 8.40516 2.8181 8.62444 2.91492C8.75996 2.97483 8.89033 3.04481 9.00033 3.1463C9.03041 3.17398 9.05389 3.16068 9.08109 3.14702C9.26083 3.05655 9.44955 2.99389 9.64894 2.96501C9.89793 2.92906 10.1424 2.93302 10.3759 3.04385C10.5169 3.11071 10.6381 3.20298 10.7432 3.31741C10.923 3.5132 11.0762 3.72445 11.1545 3.98387C11.2554 4.31782 11.2545 4.64554 11.1002 4.9632C10.9717 5.22813 10.7623 5.4087 10.4909 5.51954C10.2479 5.61887 9.99739 5.67879 9.73294 5.66692C9.40174 5.65207 9.10637 5.53715 8.83965 5.34376C8.71599 5.25413 8.60635 5.1494 8.5178 5.02479C8.37689 4.82648 8.30715 4.60552 8.3153 4.40757L8.31542 4.40793Z" fill="white"/>
<path d="M12.8586 5.39139C12.8609 5.65021 12.8142 5.8986 12.7152 6.13885C12.6815 6.22057 12.5475 6.28516 12.4733 6.26539C12.4063 6.24753 12.3811 6.19134 12.374 6.13526C12.3356 5.8321 12.2265 5.54896 12.1341 5.26114C11.9941 4.8251 11.8165 4.40344 11.6167 3.9922C11.5083 3.76945 11.3531 3.57378 11.2057 3.37487C10.9297 3.00257 10.6372 2.6437 10.3289 2.29801C10.1643 2.11348 9.99077 1.93662 9.81799 1.75928C9.66749 1.60483 9.52094 1.4469 9.3726 1.29053C9.20892 1.1181 9.02954 0.963287 8.83483 0.825849C8.75886 0.772168 8.70626 0.692245 8.64575 0.622267C8.59626 0.565111 8.62945 0.506158 8.70866 0.501245C8.83387 0.493576 8.95513 0.519339 9.07544 0.549295C9.32096 0.610645 9.5352 0.738377 9.75077 0.865151C10.0586 1.04609 10.3399 1.25925 10.6012 1.50321C10.8046 1.69326 10.9844 1.90331 11.17 2.10905C11.3051 2.25895 11.4309 2.41651 11.5523 2.57696C11.7234 2.80295 11.861 3.05218 12.0206 3.28644C12.3 3.69684 12.5055 4.14342 12.6691 4.61049C12.7429 4.82139 12.8253 5.02988 12.8535 5.25407C12.8592 5.29996 12.8584 5.34562 12.8588 5.39139H12.8586Z" fill="white"/>
<path d="M8.70363 16.0487C8.70423 16.3132 8.5421 16.5001 8.31228 16.5001C8.0918 16.5001 7.89997 16.3069 7.90009 16.0854C7.90033 15.8516 8.09468 15.6475 8.31468 15.6503C8.5548 15.6533 8.70315 15.8051 8.70375 16.0487H8.70363Z" fill="white"/>
</svg>
