<svg width="20" height="21" viewBox="0 0 20 21" fill="none" xmlns="http://www.w3.org/2000/svg">
<g clip-path="url(#clip0_242_6180)">
<path d="M4.76161 19.0996L0.679696 16.5813C0.769798 16.4382 0.862949 16.2872 0.959885 16.1301C1.78542 14.792 2.8854 13.009 4.71377 11.8904C6.70214 10.674 9.68543 10.1843 14.3759 12.465L14.3771 12.4655C15.895 13.2 17.5716 13.9899 18.4556 14.4064L18.4964 14.4256L16.5592 18.8171C16.5569 18.8212 16.5547 18.8254 16.5526 18.8296C16.0667 18.5985 15.6074 18.3785 15.1727 18.1704C13.8784 17.5505 12.8039 17.0359 11.9051 16.6475C10.7103 16.1311 9.73369 15.7946 8.88626 15.7497C7.97612 15.7015 7.2483 15.9898 6.58619 16.6015C5.97168 17.1692 5.40769 18.0221 4.76161 19.0996ZM15.2225 1.23594L19.3205 3.76096C19.2337 3.89934 19.1441 4.04492 19.051 4.19612C18.2216 5.54367 17.1176 7.33735 15.2798 8.45861C13.2902 9.67244 10.3063 10.1581 5.61502 7.88514L5.61471 7.88499C4.2765 7.23746 2.80835 6.54665 1.8742 6.10711C1.73204 6.04021 1.60224 5.97914 1.48715 5.92492L3.43219 1.53423C3.43339 1.53201 3.43457 1.52979 3.43574 1.52758C3.9485 1.77112 4.4318 2.00248 4.88756 2.22065C6.14157 2.82096 7.18717 3.3215 8.0648 3.70162C9.25519 4.21722 10.23 4.55507 11.077 4.60175C11.9866 4.65188 12.7162 4.36621 13.381 3.75487C14.0011 3.1847 14.5702 2.32525 15.2225 1.23594Z" stroke="#14B8A6" stroke-width="1.33"/>
</g>
<defs>
<clipPath id="clip0_242_6180">
<rect width="20" height="20" fill="white" transform="translate(0 0.16687)"/>
</clipPath>
</defs>
</svg>
