<svg width="20" height="21" viewBox="0 0 20 21" fill="none" xmlns="http://www.w3.org/2000/svg">
<path d="M13.3333 3.0835C13.3333 2.39314 12.7736 1.8335 12.0833 1.8335C11.3929 1.8335 10.8333 2.39314 10.8333 3.0835V7.25016C10.8333 7.94052 11.3929 8.50016 12.0833 8.50016C12.7736 8.50016 13.3333 7.94052 13.3333 7.25016V3.0835Z" stroke="#14B8A6" stroke-width="1.33" stroke-linecap="round" stroke-linejoin="round"/>
<path d="M15.8333 7.25024V8.50024H17.0833C17.3305 8.50024 17.5722 8.42693 17.7777 8.28958C17.9833 8.15223 18.1435 7.95701 18.2381 7.7286C18.3327 7.50019 18.3575 7.24886 18.3092 7.00638C18.261 6.76391 18.142 6.54118 17.9671 6.36636C17.7923 6.19155 17.5696 6.07249 17.3271 6.02426C17.0846 5.97603 16.8333 6.00079 16.6049 6.0954C16.3765 6.19 16.1813 6.35022 16.0439 6.55578C15.9066 6.76134 15.8333 7.00302 15.8333 7.25024Z" stroke="#14B8A6" stroke-width="1.33" stroke-linecap="round" stroke-linejoin="round"/>
<path d="M9.16675 13.0835C9.16675 12.3931 8.6071 11.8335 7.91675 11.8335C7.22639 11.8335 6.66675 12.3931 6.66675 13.0835V17.2502C6.66675 17.9405 7.22639 18.5002 7.91675 18.5002C8.6071 18.5002 9.16675 17.9405 9.16675 17.2502V13.0835Z" stroke="#14B8A6" stroke-width="1.33" stroke-linecap="round" stroke-linejoin="round"/>
<path d="M4.16675 13.0835V11.8335H2.91675C2.66952 11.8335 2.42785 11.9068 2.22229 12.0442C2.01672 12.1815 1.85651 12.3767 1.7619 12.6051C1.66729 12.8335 1.64254 13.0849 1.69077 13.3274C1.739 13.5698 1.85805 13.7926 2.03287 13.9674C2.20768 14.1422 2.43041 14.2612 2.67289 14.3095C2.91536 14.3577 3.1667 14.333 3.3951 14.2383C3.62351 14.1437 3.81873 13.9835 3.95609 13.778C4.09344 13.5724 4.16675 13.3307 4.16675 13.0835Z" stroke="#14B8A6" stroke-width="1.33" stroke-linecap="round" stroke-linejoin="round"/>
<path d="M17.0834 11.0002H12.9167C12.2264 11.0002 11.6667 11.5599 11.6667 12.2502C11.6667 12.9406 12.2264 13.5002 12.9167 13.5002H17.0834C17.7738 13.5002 18.3334 12.9406 18.3334 12.2502C18.3334 11.5599 17.7738 11.0002 17.0834 11.0002Z" stroke="#14B8A6" stroke-width="1.33" stroke-linecap="round" stroke-linejoin="round"/>
<path d="M12.9167 16.0002H11.6667V17.2502C11.6667 17.4975 11.7401 17.7391 11.8774 17.9447C12.0148 18.1503 12.21 18.3105 12.4384 18.4051C12.6668 18.4997 12.9181 18.5245 13.1606 18.4762C13.4031 18.428 13.6258 18.3089 13.8006 18.1341C13.9754 17.9593 14.0945 17.7366 14.1427 17.4941C14.191 17.2516 14.1662 17.0003 14.0716 16.7719C13.977 16.5435 13.8168 16.3483 13.6112 16.2109C13.4056 16.0736 13.164 16.0002 12.9167 16.0002Z" stroke="#14B8A6" stroke-width="1.33" stroke-linecap="round" stroke-linejoin="round"/>
<path d="M7.08341 6.8335H2.91675C2.22639 6.8335 1.66675 7.39314 1.66675 8.0835C1.66675 8.77385 2.22639 9.3335 2.91675 9.3335H7.08341C7.77377 9.3335 8.33341 8.77385 8.33341 8.0835C8.33341 7.39314 7.77377 6.8335 7.08341 6.8335Z" stroke="#14B8A6" stroke-width="1.33" stroke-linecap="round" stroke-linejoin="round"/>
<path d="M7.08325 4.3335H8.33325V3.0835C8.33325 2.83627 8.25994 2.5946 8.12259 2.38903C7.98524 2.18347 7.79001 2.02326 7.56161 1.92865C7.3332 1.83404 7.08187 1.80928 6.83939 1.85752C6.59691 1.90575 6.37418 2.0248 6.19937 2.19961C6.02455 2.37443 5.9055 2.59716 5.85727 2.83963C5.80904 3.08211 5.83379 3.33344 5.9284 3.56185C6.02301 3.79026 6.18323 3.98548 6.38879 4.12283C6.59435 4.26019 6.83603 4.3335 7.08325 4.3335Z" stroke="#14B8A6" stroke-width="1.33" stroke-linecap="round" stroke-linejoin="round"/>
</svg>
