<svg width="12" height="20" viewBox="0 0 12 20" fill="none" xmlns="http://www.w3.org/2000/svg">
<path d="M6.10346 6.90245C6.57196 6.91983 7.04106 6.92852 7.50881 6.95757C7.85943 6.97929 8.21111 6.99861 8.56009 7.03546C8.74926 7.05553 8.94426 7.04834 9.12894 7.10885C9.14751 7.11499 9.16818 7.11664 9.1881 7.11709C9.38026 7.12128 9.56539 7.16756 9.75246 7.20576C9.94971 7.24605 10.1392 7.31285 10.3334 7.36108C10.5141 7.40586 10.691 7.46083 10.863 7.52823C11.1675 7.64745 11.4631 7.78854 11.6889 8.03508C11.8547 8.21601 11.9777 8.42136 11.9813 8.67882C11.9831 8.80359 11.9164 8.90169 11.8559 9.0004C11.7055 9.24544 11.4728 9.37529 11.2021 9.43895C10.8813 9.51444 10.555 9.56192 10.2268 9.59038C9.77238 9.62962 9.31706 9.65628 8.86308 9.70391C8.58585 9.73296 8.30547 9.7406 8.02898 9.77595C7.72254 9.81504 7.41535 9.85174 7.11175 9.9121C6.95763 9.94265 6.80186 9.96452 6.647 9.99103C6.61255 9.99687 6.5784 10.0045 6.54485 10.0142C6.5119 10.0238 6.48149 10.0451 6.48344 10.0806C6.48524 10.1152 6.52433 10.1113 6.54919 10.1176C7.05199 10.2466 7.55749 10.3658 8.05699 10.5064C8.39399 10.6012 8.71795 10.735 8.98875 10.9695C9.13253 11.094 9.23588 11.2459 9.27931 11.4307C9.31556 11.5848 9.28006 11.7271 9.19394 11.8645C9.02724 12.1302 8.75704 12.2379 8.4855 12.3367C8.16932 12.4519 7.8488 12.56 7.51061 12.5942C7.16342 12.6291 6.81534 12.656 6.46846 12.6941C6.25009 12.718 6.03022 12.7101 5.81244 12.7368C5.77934 12.7408 5.73216 12.7368 5.72812 12.7808C5.72363 12.8292 5.77365 12.8358 5.8075 12.8445C5.86277 12.8585 5.92013 12.8651 5.9766 12.8743C6.28963 12.9255 6.59892 12.9957 6.90476 13.0783C7.07281 13.1236 7.23846 13.1824 7.39348 13.2644C7.5455 13.3449 7.63372 13.4707 7.65379 13.6425C7.67326 13.8101 7.59149 13.9345 7.46837 14.0292C7.23232 14.2107 6.97021 14.3388 6.67575 14.4017C6.50036 14.4393 6.33696 14.5202 6.16187 14.5624C5.8051 14.6485 5.45283 14.751 5.10415 14.8654C5.04963 14.8834 4.99481 14.9 4.94659 14.9333C4.92412 14.9488 4.89626 14.959 4.89986 14.9938C4.90345 15.0302 4.93131 15.0437 4.96052 15.0519C5.07345 15.0838 5.18713 15.1123 5.30545 15.1161C5.53011 15.1235 5.75313 15.1439 5.97405 15.1883C6.20995 15.2358 6.42338 15.3315 6.59712 15.4963C6.85174 15.738 6.82763 16.044 6.50785 16.2348C6.33846 16.3359 6.14345 16.3693 5.95593 16.4201C5.80376 16.4613 5.65113 16.498 5.52023 16.5925C5.46766 16.6306 5.42917 16.6779 5.41284 16.7409C5.38992 16.8299 5.40999 16.8645 5.49791 16.8906C5.64859 16.9352 5.80196 16.9731 5.94574 17.0375C6.07845 17.0968 6.20546 17.1669 6.28544 17.2969C6.35703 17.4131 6.35718 17.5264 6.27675 17.6395C6.18374 17.7702 6.05538 17.8532 5.91174 17.9165C5.67794 18.0196 5.42946 18.0578 5.17799 18.0843C5.10625 18.0918 5.03465 18.1053 4.96785 18.1361C4.92472 18.156 4.88772 18.1827 4.88847 18.2347C4.88922 18.2828 4.93625 18.2866 4.96755 18.3034C5.02147 18.3323 5.08258 18.3347 5.14085 18.3481C5.29452 18.3836 5.41419 18.4665 5.49387 18.6037C5.5075 18.6271 5.51768 18.6533 5.52412 18.6795C5.53026 18.7042 5.52592 18.7301 5.50196 18.7463C5.47829 18.7623 5.45373 18.7586 5.43216 18.7424C5.31878 18.6567 5.19267 18.6461 5.05562 18.6635C4.76521 18.7003 4.54893 18.5561 4.37399 18.3485C4.26001 18.2133 4.3027 18.0209 4.45592 17.8894C4.57095 17.7907 4.7056 17.7245 4.84758 17.675C4.96306 17.6348 5.08064 17.602 5.20225 17.5837C5.25677 17.5755 5.3071 17.5529 5.34963 17.5151C5.42392 17.4492 5.41883 17.4124 5.33376 17.3633C5.19686 17.284 5.04529 17.2724 4.89327 17.2613C4.72177 17.2487 4.55073 17.2641 4.37938 17.2677C4.2013 17.2715 4.02621 17.2357 3.87599 17.1269C3.72636 17.0186 3.69281 16.8638 3.7969 16.7081C3.94758 16.4829 4.14798 16.3142 4.40365 16.2167C4.51583 16.1739 4.6328 16.1469 4.74918 16.1186C4.83276 16.0982 4.91049 16.0662 4.97954 16.0145C4.99901 16 5.02672 15.9899 5.02342 15.9594C5.01968 15.9255 4.99451 15.907 4.96456 15.8983C4.90465 15.8811 4.84459 15.8631 4.78333 15.8519C4.41203 15.7845 4.04763 15.6902 3.69131 15.5662C3.53 15.5101 3.39101 15.4127 3.24707 15.3218C2.88132 15.0907 3.03409 14.61 3.31253 14.4621C3.43894 14.395 3.56805 14.3342 3.70824 14.3061C4.1309 14.2217 4.53111 14.0637 4.93955 13.9333C5.07614 13.8898 5.21124 13.8334 5.32896 13.7482C5.39681 13.6991 5.38992 13.6572 5.31638 13.62C5.27879 13.6011 5.23805 13.5875 5.19776 13.5752C4.87035 13.4762 4.54653 13.3666 4.22796 13.2421C4.10754 13.1951 3.98757 13.1433 3.89486 13.0464C3.74718 12.8922 3.72965 12.6574 3.85292 12.4829C3.97124 12.3151 4.13405 12.2227 4.3325 12.1761C4.79486 12.0676 5.26276 11.9942 5.73471 11.9467C5.96536 11.9235 6.19752 11.9166 6.42817 11.8947C6.73372 11.8657 7.03776 11.823 7.33776 11.756C7.40891 11.7401 7.47421 11.7085 7.54011 11.6781C7.59149 11.6545 7.60047 11.617 7.57756 11.5674C7.5485 11.5045 7.49323 11.4702 7.43737 11.437C7.33926 11.3786 7.22948 11.3525 7.11939 11.3297C6.79662 11.2626 6.48314 11.1599 6.16337 11.0822C5.88104 11.0136 5.6086 10.9177 5.33795 10.8165C5.09307 10.7248 4.88802 10.5671 4.72072 10.3685C4.62322 10.2527 4.61738 10.1055 4.65602 9.96198C4.71503 9.743 4.86361 9.59876 5.05757 9.49227C5.41643 9.29501 5.79806 9.18702 6.20531 9.12891C6.6437 9.0663 7.07985 8.97928 7.51794 8.91158C8.06238 8.82755 8.60936 8.75731 9.15844 8.70848C9.285 8.69725 9.41411 8.71552 9.53918 8.68946C9.64761 8.66684 9.76249 8.65171 9.84696 8.56829C9.91796 8.49804 9.90972 8.457 9.81566 8.42181C9.44526 8.28326 9.06004 8.19699 8.67542 8.11072C8.35355 8.03852 8.02359 8.0216 7.69648 7.98625C7.40636 7.95495 7.11595 7.92918 6.82448 7.9175C6.72728 7.91361 6.62992 7.91451 6.53257 7.91301C6.37545 7.91061 6.21849 7.91106 6.06137 7.90103C5.84195 7.88695 5.62372 7.92679 5.4043 7.93323C5.25977 7.93742 5.11553 7.9503 4.97115 7.95465C4.48707 7.96947 4.00614 8.00677 3.5279 8.09065C2.93569 8.19444 2.33868 8.27158 1.74976 8.39305C1.25325 8.4955 0.751653 8.56604 0.252748 8.65351C0.172468 8.66759 0.0721176 8.68122 0.0122071 8.58521C-0.00771312 8.55316 -0.00142252 8.53384 0.0178986 8.50029C0.1509 8.26813 0.382454 8.17287 0.608616 8.07672C1.21836 7.8176 1.84951 7.61959 2.48741 7.44345C2.95411 7.31464 3.42186 7.18988 3.90055 7.1114C4.49172 7.01449 5.08408 6.93316 5.68438 6.91923C5.82383 6.91593 5.96342 6.90994 6.10331 6.90186L6.10346 6.90245Z" fill="#64748B"/>
<path d="M5.22306 4.88503C5.22306 4.42431 5.3303 4.05811 5.58971 3.74372C5.6309 3.69384 5.67778 3.64861 5.72421 3.60323C5.75282 3.57537 5.76031 3.55305 5.72526 3.52385C5.53145 3.36313 5.30738 3.29289 5.05845 3.30802C4.7631 3.32599 4.4935 3.44986 4.21222 3.52549C3.97347 3.58975 3.73533 3.66 3.48715 3.67138C3.12529 3.68815 2.78964 3.59469 2.48365 3.40103C2.17436 3.20527 1.88994 2.9803 1.65119 2.69947C1.548 2.57815 1.49393 2.43481 1.43761 2.29102C1.42713 2.26436 1.42638 2.23545 1.45424 2.21703C1.48734 2.19516 1.51684 2.21344 1.5441 2.23111C1.67591 2.31678 1.80382 2.40785 1.93817 2.48993C2.23307 2.66981 2.53577 2.82558 2.87082 2.92473C3.23882 3.03362 3.60488 3.0519 3.97977 2.98869C4.23558 2.94555 4.4911 2.89762 4.74872 2.86872C5.04767 2.83517 5.33524 2.89777 5.60933 3.01879C5.77873 3.09368 5.94168 3.18115 6.07918 3.30802C6.11677 3.34262 6.14613 3.32599 6.18013 3.30891C6.40479 3.19583 6.64069 3.1175 6.88992 3.0814C7.20115 3.03647 7.5067 3.04141 7.79861 3.17996C7.9749 3.26353 8.12632 3.37886 8.25767 3.5219C8.48249 3.76664 8.6739 4.0307 8.77186 4.35497C8.89797 4.7724 8.89677 5.18204 8.70401 5.5791C8.5433 5.91026 8.28164 6.13598 7.9424 6.27452C7.63865 6.39869 7.32547 6.47358 6.99491 6.45875C6.58093 6.44018 6.21173 6.29654 5.87833 6.0548C5.72376 5.94276 5.58671 5.81186 5.47603 5.65609C5.29989 5.40821 5.21272 5.13202 5.22291 4.88458L5.22306 4.88503Z" fill="#64748B"/>
<path d="M10.9016 6.11431C10.9044 6.43783 10.846 6.74832 10.7223 7.04863C10.6802 7.15077 10.5126 7.2315 10.4199 7.20679C10.3362 7.18447 10.3047 7.11423 10.2957 7.04413C10.2478 6.66519 10.1113 6.31127 9.99587 5.9515C9.82093 5.40646 9.59896 4.87939 9.34914 4.36535C9.21374 4.08691 9.01963 3.84232 8.8354 3.59369C8.49047 3.12833 8.12487 2.67974 7.73949 2.24763C7.5337 2.01698 7.31682 1.7959 7.10085 1.57423C6.91273 1.38117 6.72955 1.18376 6.54413 0.988298C6.33953 0.772767 6.11532 0.579254 5.87193 0.407458C5.77697 0.340358 5.71122 0.240455 5.63558 0.152985C5.57373 0.0815407 5.61521 0.00784984 5.71422 0.00170893C5.87073 -0.00787687 6.02231 0.0243255 6.17268 0.06177C6.47957 0.138456 6.74737 0.29812 7.01682 0.456585C7.4016 0.682751 7.75327 0.949206 8.07978 1.25415C8.3341 1.4917 8.55877 1.75426 8.79077 2.01143C8.95972 2.19881 9.11698 2.39576 9.26871 2.59632C9.48259 2.8788 9.65453 3.19034 9.85403 3.48315C10.2033 3.99615 10.4602 4.55437 10.6646 5.1382C10.7569 5.40181 10.8599 5.66243 10.8951 5.94266C10.9023 6.00003 10.9013 6.05709 10.9017 6.11431H10.9016Z" fill="#64748B"/>
<path d="M5.7085 19.4358C5.70925 19.7664 5.5066 20 5.21933 20C4.94374 20 4.70395 19.7586 4.7041 19.4816C4.7044 19.1894 4.94734 18.9343 5.22233 18.9378C5.52248 18.9415 5.7079 19.1313 5.70865 19.4358H5.7085Z" fill="#64748B"/>
</svg>
