<svg xmlns="http://www.w3.org/2000/svg" width="130" height="124" viewBox="0 0 130 124" fill="none">
  <path d="M109.293 26.1092C109.182 26.1092 109.083 26.0291 109.065 25.9154L108.786 24.1533C108.766 24.0267 108.853 23.9078 108.977 23.8897C109.101 23.8691 109.223 23.9569 109.241 24.0809L109.52 25.8431C109.541 25.9697 109.453 26.0885 109.329 26.1066C109.316 26.1066 109.306 26.1092 109.293 26.1092Z" fill="white"/>
  <path d="M110.267 32.2818C110.156 32.2818 110.057 32.2017 110.039 32.088L109.76 30.3233C109.74 30.1967 109.828 30.0778 109.952 30.0597C110.076 30.0391 110.197 30.1243 110.215 30.2509L110.494 32.0156C110.515 32.1422 110.427 32.2611 110.303 32.2792C110.29 32.2792 110.28 32.2818 110.267 32.2818Z" fill="white"/>
  <path d="M111.812 27.9385C111.701 27.9385 111.605 27.8584 111.585 27.7473C111.564 27.6207 111.647 27.5018 111.773 27.4812L113.51 27.1814C113.636 27.1582 113.755 27.2434 113.776 27.3701C113.796 27.4967 113.714 27.6155 113.587 27.6362L111.851 27.9359C111.838 27.9359 111.825 27.9385 111.812 27.9385Z" fill="white"/>
  <path d="M105.737 28.9875C105.626 28.9875 105.531 28.9074 105.51 28.7963C105.489 28.6697 105.572 28.5508 105.699 28.5302L107.435 28.2305C107.561 28.2098 107.68 28.2925 107.701 28.4191C107.722 28.5457 107.639 28.6645 107.512 28.6852L105.776 28.9849C105.763 28.9849 105.75 28.9875 105.737 28.9875Z" fill="white"/>
  <path d="M120.845 28.631C120.749 28.631 120.651 28.6233 120.55 28.6078C120.067 28.5302 119.643 28.2693 119.359 27.874C119.072 27.4787 118.958 26.9929 119.036 26.5123C119.196 25.5176 120.137 24.8381 121.137 24.9983C121.62 25.0758 122.043 25.3367 122.328 25.732C122.614 26.1274 122.728 26.6131 122.651 27.0937C122.506 27.9902 121.726 28.631 120.845 28.631ZM120.845 25.4349C120.186 25.4349 119.602 25.9129 119.493 26.5847C119.434 26.9438 119.522 27.3055 119.734 27.6027C119.948 27.8998 120.263 28.0936 120.625 28.153C121.372 28.2745 122.074 27.7655 122.196 27.0213C122.255 26.6622 122.167 26.3005 121.956 26.0033C121.741 25.7062 121.426 25.5124 121.064 25.453C120.989 25.4401 120.917 25.4349 120.845 25.4349Z" fill="white"/>
  <path d="M107.5 77.4769C107.433 77.4769 107.366 77.4485 107.322 77.3916C106.74 76.6785 106.164 75.9447 105.603 75.2058C105.526 75.105 105.547 74.9603 105.647 74.8828C105.748 74.8053 105.893 74.826 105.97 74.9267C106.526 75.6605 107.102 76.3917 107.678 77.0997C107.758 77.1979 107.743 77.3451 107.645 77.4252C107.601 77.4614 107.549 77.4769 107.5 77.4769ZM104.149 73.0638C104.076 73.0638 104.004 73.0303 103.96 72.9657C103.428 72.2138 102.901 71.4412 102.392 70.6713C102.322 70.5653 102.35 70.4207 102.456 70.3509C102.562 70.2811 102.707 70.3095 102.777 70.4155C103.283 71.1829 103.808 71.9502 104.337 72.6969C104.412 72.8003 104.386 72.945 104.283 73.0199C104.242 73.0483 104.195 73.0613 104.149 73.0613V73.0638ZM101.097 68.4389C101.02 68.4389 100.945 68.4002 100.901 68.3278C100.418 67.5424 99.9424 66.7362 99.4851 65.9352C99.423 65.8242 99.4592 65.682 99.5703 65.62C99.6814 65.558 99.8235 65.5968 99.8855 65.7053C100.34 66.5011 100.813 67.3021 101.294 68.0849C101.361 68.1935 101.327 68.3356 101.219 68.4027C101.18 68.426 101.139 68.4363 101.097 68.4363V68.4389ZM98.3534 63.6228C98.2707 63.6228 98.1906 63.5789 98.1492 63.4988C97.7178 62.6771 97.2966 61.8426 96.8961 61.0158C96.8419 60.8995 96.8884 60.7626 97.0046 60.7083C97.1183 60.6541 97.2579 60.7006 97.3121 60.8168C97.71 61.6385 98.1286 62.4679 98.5575 63.2843C98.6169 63.398 98.573 63.5375 98.4619 63.597C98.4283 63.615 98.3895 63.6228 98.3534 63.6228ZM95.9401 58.631C95.8523 58.631 95.767 58.5793 95.7283 58.494C95.3536 57.6414 94.9919 56.7784 94.6534 55.9284C94.6069 55.8095 94.6638 55.6752 94.7826 55.6287C94.9015 55.5821 95.0358 55.639 95.0823 55.7578C95.4156 56.6001 95.7748 57.458 96.1494 58.308C96.2011 58.4243 96.1494 58.5612 96.0306 58.6129C95.9996 58.6258 95.9686 58.6336 95.9376 58.6336L95.9401 58.631ZM93.899 53.4764C93.8034 53.4764 93.7155 53.417 93.6819 53.3214C93.3745 52.4455 93.0851 51.5567 92.8215 50.6782C92.7854 50.5567 92.8551 50.4276 92.9766 50.3914C93.098 50.3552 93.2272 50.4224 93.2634 50.5464C93.5269 51.4171 93.8137 52.3008 94.1186 53.1689C94.1599 53.2904 94.0979 53.4221 93.9765 53.4635C93.9506 53.4712 93.9248 53.4764 93.899 53.4764ZM92.3022 48.1745C92.1989 48.1745 92.1058 48.1048 92.0774 47.9988C91.8526 47.1126 91.6459 46.2005 91.4573 45.2885C91.4315 45.1644 91.5116 45.0404 91.6382 45.0146C91.7648 44.9887 91.8862 45.0688 91.9121 45.1954C92.0981 46.0998 92.3048 47.0041 92.527 47.8851C92.558 48.0092 92.4831 48.1332 92.359 48.1668C92.341 48.1719 92.3203 48.1745 92.3022 48.1745ZM91.1834 42.7512C91.0723 42.7512 90.9742 42.6711 90.9561 42.5574C90.814 41.6841 90.6822 40.7876 90.553 39.8109C90.5375 39.6843 90.6254 39.568 90.752 39.5525C90.8786 39.537 90.9948 39.6249 91.0103 39.7515C91.1369 40.723 91.2687 41.6169 91.4108 42.4851C91.4315 42.6117 91.3462 42.7305 91.2196 42.7512C91.2067 42.7512 91.1938 42.7538 91.1809 42.7538L91.1834 42.7512ZM12.397 41.6066C12.2859 41.6066 12.1877 41.5239 12.1696 41.4102C12.0275 40.4827 11.9112 39.5525 11.826 38.6456C11.813 38.519 11.9061 38.4053 12.0352 38.395C12.1593 38.3795 12.2755 38.4751 12.2859 38.6043C12.3711 39.5009 12.4848 40.4207 12.6269 41.3405C12.6476 41.4671 12.5598 41.5834 12.4331 41.604C12.4202 41.604 12.4099 41.6066 12.397 41.6066ZM90.4548 37.2607C90.3386 37.2607 90.2378 37.1729 90.2249 37.0566C90.1758 36.6122 90.1267 36.1756 90.0802 35.7415C90.0285 35.2557 89.9742 34.7777 89.9226 34.3049C89.9071 34.1783 90.0001 34.0646 90.1267 34.0491C90.2533 34.0362 90.367 34.1266 90.3825 34.2532C90.4367 34.7286 90.4884 35.2066 90.5401 35.6924C90.5866 36.1265 90.6357 36.5631 90.6848 37.0075C90.7003 37.1341 90.6073 37.2478 90.4807 37.2633C90.4729 37.2633 90.4626 37.2633 90.4548 37.2633V37.2607ZM11.8828 36.0903C11.7588 36.0903 11.6554 35.9921 11.6529 35.8655C11.6399 35.4573 11.6348 35.0465 11.6348 34.646C11.6348 34.1215 11.6451 33.5944 11.6658 33.0802C11.6709 32.9536 11.7769 32.8554 11.9061 32.858C12.0327 32.8632 12.1334 32.9717 12.1283 33.0983C12.1076 33.6073 12.0973 34.1266 12.0973 34.646C12.0973 35.0413 12.1024 35.4495 12.1153 35.8526C12.1179 35.9792 12.0197 36.0877 11.8906 36.0903H11.8828ZM89.8141 31.7599C89.7004 31.7599 89.6022 31.6772 89.5867 31.561C89.4472 30.5611 89.3025 29.6697 89.1397 28.8403C89.1164 28.7163 89.1965 28.5948 89.3231 28.569C89.4497 28.5431 89.5686 28.6258 89.5944 28.7524C89.7572 29.5896 89.9045 30.4887 90.0466 31.4964C90.0647 31.623 89.9768 31.7393 89.8502 31.7573C89.8399 31.7573 89.8296 31.7573 89.8192 31.7573L89.8141 31.7599ZM12.1102 30.5611C12.1102 30.5611 12.0921 30.5611 12.0818 30.5611C11.9552 30.5456 11.8647 30.4319 11.8802 30.3053C11.9887 29.3777 12.136 28.4527 12.3143 27.5536C12.3401 27.4295 12.4616 27.3469 12.5856 27.3727C12.7096 27.3985 12.7923 27.52 12.7665 27.644C12.5882 28.5302 12.4435 29.4423 12.3375 30.3595C12.3246 30.4758 12.2239 30.5636 12.1076 30.5636L12.1102 30.5611ZM88.7263 26.334C88.6255 26.334 88.5325 26.2669 88.5041 26.1661C88.2457 25.2566 87.9589 24.4065 87.623 23.5668C87.5765 23.448 87.6334 23.3136 87.7522 23.2671C87.8711 23.218 88.0054 23.2774 88.0519 23.3963C88.393 24.2515 88.685 25.1145 88.9485 26.0421C88.9821 26.1635 88.9123 26.2927 88.7883 26.3263C88.7676 26.3314 88.747 26.334 88.7263 26.334ZM13.2005 25.1403C13.1799 25.1403 13.1566 25.1378 13.1359 25.13C13.0145 25.0938 12.9421 24.9646 12.9783 24.8432C13.2393 23.9492 13.5442 23.063 13.88 22.2052C13.9266 22.0863 14.0609 22.0295 14.1798 22.076C14.2986 22.1225 14.358 22.2569 14.309 22.3757C13.9756 23.2206 13.6785 24.0939 13.4201 24.975C13.3917 25.0757 13.2987 25.1403 13.1979 25.1403H13.2005ZM86.6748 21.2027C86.5921 21.2027 86.512 21.1588 86.4707 21.0813C86.0495 20.2906 85.5741 19.5 85.0574 18.7326C84.985 18.6267 85.0134 18.482 85.1194 18.4122C85.2253 18.3399 85.37 18.3683 85.4398 18.4742C85.9668 19.2571 86.45 20.0607 86.8763 20.8642C86.9358 20.9779 86.8944 21.1174 86.7807 21.1769C86.7471 21.1949 86.7084 21.2027 86.6722 21.2027H86.6748ZM15.2262 19.9961C15.19 19.9961 15.1564 19.9883 15.1228 19.9702C15.0092 19.9134 14.9626 19.7739 15.0195 19.6602C15.4381 18.8334 15.898 18.0169 16.3915 17.2315C16.4586 17.1229 16.6007 17.0919 16.7093 17.1591C16.8178 17.2263 16.8488 17.3684 16.7816 17.4769C16.2959 18.2495 15.8411 19.053 15.4303 19.8669C15.389 19.947 15.3089 19.9935 15.2236 19.9935L15.2262 19.9961ZM83.6001 16.6114C83.5329 16.6114 83.4658 16.5829 83.4218 16.5261C83.2539 16.3194 83.0808 16.1101 82.9025 15.9008C82.4891 15.4151 82.0654 14.9423 81.6055 14.4513C81.5176 14.3583 81.5228 14.211 81.6158 14.1258C81.7088 14.0379 81.8561 14.0431 81.9414 14.1361C82.4064 14.6322 82.8353 15.1128 83.2539 15.6037C83.4348 15.8156 83.6105 16.0274 83.781 16.2367C83.8611 16.3349 83.8456 16.4822 83.7474 16.5623C83.7035 16.5959 83.6544 16.6139 83.6027 16.6139L83.6001 16.6114ZM18.1665 15.3117C18.1174 15.3117 18.0683 15.2962 18.027 15.2652C17.9262 15.1877 17.9055 15.043 17.9831 14.9423C18.5437 14.2085 19.1457 13.4902 19.7762 12.8003C19.8614 12.7073 20.0087 12.6996 20.1017 12.7874C20.1947 12.8727 20.2025 13.0199 20.1172 13.113C19.4971 13.7899 18.9029 14.5004 18.3499 15.2213C18.3034 15.2807 18.2363 15.3117 18.1665 15.3117ZM79.8149 12.5549C79.7581 12.5549 79.7012 12.5342 79.6547 12.4903C78.9933 11.8624 78.3008 11.2397 77.6006 10.6455C77.5025 10.5628 77.4921 10.4181 77.5748 10.3199C77.6575 10.2217 77.8022 10.2114 77.9004 10.2941C78.6083 10.8961 79.3059 11.5214 79.9725 12.157C80.0655 12.2448 80.0681 12.3921 79.9803 12.4825C79.9338 12.5316 79.8743 12.5549 79.8123 12.5549H79.8149ZM21.9052 11.2242C21.8432 11.2242 21.7812 11.1984 21.7347 11.1493C21.6494 11.0563 21.6546 10.909 21.7476 10.8237C22.4219 10.2036 23.1376 9.59646 23.874 9.02028C23.9748 8.94277 24.1195 8.96086 24.197 9.05904C24.2745 9.15981 24.259 9.3045 24.1582 9.38459C23.4296 9.95302 22.7242 10.5525 22.0602 11.1648C22.0163 11.2061 21.9595 11.2268 21.9052 11.2268V11.2242ZM75.5905 8.96086C75.5414 8.96086 75.4923 8.94535 75.451 8.91435C74.7146 8.35626 73.9601 7.81625 73.2057 7.30725C73.0997 7.23491 73.0713 7.0928 73.1437 6.98687C73.216 6.88093 73.3581 6.85251 73.464 6.92486C74.2263 7.43644 74.9885 7.98161 75.73 8.54745C75.8308 8.62497 75.8514 8.76966 75.7739 8.87042C75.7274 8.92985 75.6602 8.96086 75.5905 8.96086ZM26.2666 7.81109C26.1916 7.81109 26.1193 7.77491 26.0728 7.70774C26.003 7.6018 26.0315 7.45711 26.1374 7.38735C26.8996 6.88093 27.698 6.39002 28.5119 5.92753C28.623 5.86552 28.7651 5.90427 28.8271 6.01538C28.8891 6.12648 28.8503 6.26858 28.7392 6.33059C27.9357 6.78792 27.1451 7.27108 26.3932 7.77233C26.3544 7.79817 26.3105 7.81109 26.2666 7.81109ZM70.9888 5.8681C70.9501 5.8681 70.9087 5.85777 70.8725 5.8371C70.0742 5.36685 69.2603 4.92245 68.4541 4.51421C68.3405 4.45737 68.294 4.31785 68.3534 4.20416C68.4102 4.09048 68.5497 4.04397 68.6634 4.1034C69.4799 4.5168 70.3041 4.96637 71.1077 5.44178C71.2188 5.50637 71.2549 5.64848 71.1903 5.757C71.1464 5.82934 71.0715 5.87068 70.9914 5.87068L70.9888 5.8681ZM31.0801 5.0723C30.9948 5.0723 30.9122 5.02321 30.8708 4.94053C30.8166 4.82685 30.8631 4.68732 30.9793 4.63307C31.8036 4.23517 32.6614 3.85535 33.5269 3.50396C33.6458 3.45487 33.7801 3.5143 33.8266 3.63057C33.8757 3.74942 33.8189 3.88378 33.7 3.93028C32.8422 4.27651 31.9948 4.65374 31.1783 5.04647C31.1473 5.06197 31.1111 5.06972 31.0775 5.06972L31.0801 5.0723ZM66.0409 3.36961C66.0099 3.36961 65.9815 3.36444 65.9505 3.35152C65.1004 2.99238 64.2349 2.65908 63.3771 2.36711C63.2556 2.32577 63.191 2.194 63.2324 2.07515C63.2737 1.95371 63.4055 1.88912 63.5243 1.93046C64.3925 2.22759 65.2684 2.56089 66.1288 2.92779C66.245 2.97688 66.3019 3.11382 66.2502 3.23009C66.214 3.31793 66.1262 3.37219 66.0383 3.37219L66.0409 3.36961ZM36.2166 2.9898C36.121 2.9898 36.0306 2.92779 35.997 2.83219C35.9557 2.71075 36.0203 2.58156 36.1417 2.54022C37.015 2.24826 37.9116 1.97438 38.8081 1.72892C38.9296 1.69534 39.0588 1.76768 39.0923 1.8917C39.1259 2.01572 39.0536 2.14232 38.9296 2.17591C38.0408 2.41879 37.1519 2.6875 36.2864 2.97946C36.2631 2.98721 36.2373 2.99238 36.2115 2.99238L36.2166 2.9898ZM60.8011 1.58165C60.783 1.58165 60.7623 1.58165 60.7416 1.5739C59.8528 1.34394 58.9485 1.14499 58.0519 0.984802C57.9253 0.961548 57.8427 0.842696 57.8659 0.716092C57.8892 0.589488 58.008 0.506807 58.1346 0.530061C59.0415 0.690254 59.9588 0.891787 60.8579 1.12433C60.9819 1.15533 61.0543 1.28193 61.0233 1.40595C60.9974 1.5093 60.9018 1.57907 60.8011 1.57907V1.58165ZM41.5676 1.52739C41.4616 1.52739 41.366 1.45246 41.3428 1.34394C41.317 1.21992 41.3971 1.0959 41.5211 1.07007C42.4254 0.878868 43.3452 0.708341 44.2598 0.566234C44.3865 0.545564 44.5027 0.633412 44.5234 0.760016C44.5441 0.88662 44.4562 1.00289 44.3296 1.02356C43.4227 1.16308 42.5107 1.33103 41.6141 1.52222C41.5986 1.52481 41.5805 1.52739 41.565 1.52739H41.5676ZM47.0451 0.679919C46.9289 0.679919 46.8281 0.592071 46.8152 0.470635C46.8023 0.344031 46.8953 0.230346 47.0219 0.217427C47.9469 0.126995 48.8822 0.0624015 49.802 0.0262289C49.9312 0.0184777 50.0371 0.119244 50.0423 0.248432C50.0475 0.375036 49.9493 0.483553 49.8201 0.488721C48.908 0.524894 47.983 0.589487 47.0658 0.679919C47.0581 0.679919 47.0503 0.679919 47.0426 0.679919H47.0451ZM55.3493 0.615325C55.3493 0.615325 55.3338 0.615325 55.3261 0.615325C54.7241 0.558482 54.1091 0.514559 53.5019 0.491305C53.1945 0.478386 52.887 0.470635 52.577 0.462884C52.4504 0.4603 52.347 0.354366 52.3496 0.227762C52.3522 0.101158 52.4529 -0.00735999 52.5847 0.000391279C52.8973 0.00555879 53.21 0.015894 53.5174 0.0288128C54.1324 0.0546503 54.7551 0.0959903 55.3674 0.155417C55.494 0.168336 55.587 0.279437 55.5741 0.408625C55.5638 0.527477 55.463 0.617909 55.3442 0.617909L55.3493 0.615325Z" fill="white"/>
  <path d="M36.8548 102.764H32.7983L36.9065 85.8767H43.9111L36.8548 102.764Z" fill="#14B8A6"/>
  <path d="M36.8545 102.994H32.798C32.7283 102.994 32.6611 102.96 32.6172 102.906C32.5732 102.849 32.5577 102.777 32.5732 102.71L36.6814 85.8224C36.7072 85.7191 36.8003 85.6467 36.9062 85.6467H43.9108C43.9883 85.6467 44.0606 85.6855 44.102 85.7501C44.1459 85.8147 44.1536 85.8948 44.1226 85.9671L37.0664 102.855C37.0302 102.94 36.9475 102.997 36.8519 102.997L36.8545 102.994ZM33.0926 102.532H36.6995L43.562 86.1066H37.0871L33.0926 102.532Z" fill="white"/>
  <path d="M17.3705 102.764H13.314L17.4221 85.8767H24.4267L17.3705 102.764Z" fill="#14B8A6"/>
  <path d="M17.3706 102.994H13.3141C13.2444 102.994 13.1772 102.96 13.1333 102.906C13.0894 102.849 13.0738 102.777 13.0894 102.71L17.1975 85.8224C17.2234 85.7191 17.3164 85.6467 17.4223 85.6467H24.4269C24.5044 85.6467 24.5767 85.6855 24.6181 85.7501C24.662 85.8147 24.6697 85.8948 24.6387 85.9671L17.5825 102.855C17.5463 102.94 17.4636 102.997 17.3681 102.997L17.3706 102.994ZM13.6087 102.532H17.2156L24.0781 86.1066H17.6032L13.6087 102.532Z" fill="white"/>
  <path d="M92.8756 102.764H96.9321L92.8239 85.8767H85.8193L92.8756 102.764Z" fill="#14B8A6"/>
  <path d="M96.9321 102.994H92.8756C92.7826 102.994 92.6974 102.937 92.6612 102.852L85.6049 85.9646C85.5739 85.8922 85.5843 85.8121 85.6256 85.7475C85.6695 85.6829 85.7419 85.6442 85.8168 85.6442H92.8214C92.9273 85.6442 93.0203 85.7165 93.0462 85.8199L97.1543 102.707C97.1698 102.777 97.1543 102.849 97.1104 102.904C97.0665 102.961 96.9993 102.992 96.9295 102.992L96.9321 102.994ZM93.0307 102.532H96.6376L92.6431 86.1067H86.1682L93.0307 102.532Z" fill="white"/>
  <path d="M112.556 102.764H116.613L112.505 85.8767H105.5L112.556 102.764Z" fill="#14B8A6"/>
  <path d="M116.612 102.994H112.556C112.463 102.994 112.378 102.937 112.341 102.852L105.285 85.9646C105.254 85.8922 105.264 85.8121 105.306 85.7475C105.35 85.6829 105.422 85.6442 105.497 85.6442H112.502C112.607 85.6442 112.7 85.7165 112.726 85.8199L116.835 102.707C116.85 102.777 116.835 102.849 116.791 102.904C116.747 102.961 116.679 102.992 116.61 102.992L116.612 102.994ZM112.711 102.532H116.318L112.323 86.1067H105.848L112.711 102.532Z" fill="white"/>
  <path d="M98.3402 87.1168H18.8251C14.779 87.1168 11.2392 84.3961 10.2006 80.4843L1.09541 46.4124C-0.408341 40.7488 3.66366 35.1989 9.52362 35.1989H89.2325C93.2786 35.1989 96.8184 37.9195 97.8571 41.8314L106.965 75.9059C108.469 81.5695 104.2 87.1194 98.3402 87.1194V87.1168Z" fill="#14B8A6"/>
  <path d="M98.3402 87.3494H18.8251C14.6808 87.3494 11.0428 84.5512 9.97834 80.5463L0.873185 46.4718C0.121312 43.6426 0.694905 40.7126 2.44411 38.4363C4.13905 36.2323 6.72022 34.9663 9.5236 34.9663H89.2325C93.3768 34.9663 97.0147 37.7645 98.0792 41.7693L107.187 75.8439C107.923 78.6137 107.345 81.5049 105.598 83.776C103.851 86.0472 101.206 87.3494 98.3402 87.3494ZM9.5236 35.4288C6.86491 35.4288 4.4181 36.6277 2.811 38.7179C1.14965 40.8805 0.604474 43.6632 1.32017 46.3529L10.4279 80.4275C11.4382 84.2308 14.8926 86.8869 18.8277 86.8869H98.3402C101.061 86.8869 103.572 85.6493 105.231 83.4944C106.89 81.337 107.44 78.593 106.74 75.9628L97.6323 41.8882C96.622 38.0849 93.1675 35.4288 89.2325 35.4288H9.5236Z" fill="white"/>
  <path d="M82.1374 87.3133H113.626C116.23 87.3133 118.509 85.5615 119.178 83.0424L125.041 60.9771C126.01 57.3314 123.261 53.7555 119.488 53.7555H88C85.3956 53.7555 83.1167 55.5073 82.4475 58.0264L76.585 80.0917C75.6161 83.7374 78.3652 87.3133 82.1374 87.3133Z" fill="#14B8A6"/>
  <path d="M113.626 87.5458H82.1376C80.2669 87.5458 78.541 86.6958 77.399 85.2127C76.2595 83.7296 75.8797 81.8435 76.3603 80.0348L82.2229 57.9696C82.9179 55.3548 85.2924 53.5281 87.9976 53.5281H119.486C121.356 53.5281 123.082 54.3781 124.224 55.8612C125.364 57.3443 125.744 59.2304 125.263 61.0391L119.401 83.1043C118.705 85.7191 116.331 87.5458 113.626 87.5458ZM88.0027 53.988C85.5068 53.988 83.3158 55.6726 82.6724 58.0858L76.8099 80.1511C76.3655 81.8202 76.7169 83.5591 77.7685 84.9285C78.8201 86.2953 80.4142 87.0807 82.1402 87.0807H113.628C116.124 87.0807 118.315 85.3961 118.959 82.9829L124.821 60.9176C125.266 59.2485 124.914 57.5071 123.863 56.1403C122.811 54.7734 121.217 53.988 119.491 53.988H88.0027Z" fill="white"/>
  <path d="M48.9854 80.4508L42.7741 57.9902C42.1049 55.4736 39.826 53.6624 37.2216 53.6624H22.7629C20.776 53.6624 19.0345 52.324 18.5255 50.4043L15.5955 39.3846C14.9729 37.0359 12.9472 35.341 10.565 35.1291H9.32735C3.16251 35.0258 -0.286803 40.0744 0.496075 45.3685L4.53965 60.636C4.56291 60.7496 4.58874 60.8659 4.61975 60.9796L10.0896 81.4843C11.0378 84.8819 14.7868 87.6956 17.8822 87.6956H43.4329C47.2052 87.6956 49.9543 84.099 48.9854 80.4534V80.4508Z" fill="#14B8A6"/>
  <path d="M43.4328 87.9256H17.8847C14.5645 87.9256 10.8181 84.944 9.86727 81.5463L4.39746 61.039C4.36646 60.9202 4.33804 60.8013 4.31478 60.6825L0.273788 45.428C0.273788 45.428 0.268621 45.4125 0.268621 45.4022C-0.149948 42.5626 0.61226 39.7928 2.36405 37.7982C4.04607 35.881 6.52389 34.8553 9.33244 34.8992H10.5675C13.0737 35.1188 15.1769 36.899 15.8228 39.3252L18.7528 50.3449C19.236 52.1613 20.887 53.4325 22.768 53.4325H37.2267C39.9241 53.4325 42.2986 55.2824 43.0014 57.9334L49.2127 80.394C49.6933 82.2078 49.3135 84.1017 48.1689 85.5925C47.0269 87.0756 45.3035 87.9282 43.438 87.9282L43.4328 87.9256ZM0.723362 45.3221L4.76436 60.5765C4.79019 60.7006 4.81603 60.8091 4.84445 60.9202L10.3143 81.4249C11.1979 84.5848 14.8048 87.4631 17.8847 87.4631H43.4354C45.1562 87.4631 46.7478 86.6777 47.7994 85.3083C48.8561 83.9337 49.2075 82.1845 48.7657 80.5128L42.5544 58.0522C41.9033 55.6028 39.7122 53.8924 37.2241 53.8924H22.7654C20.6751 53.8924 18.8407 52.4816 18.3032 50.4611L15.3733 39.4414C14.779 37.2013 12.8386 35.5606 10.5442 35.3565H9.32727C6.6505 35.3126 4.30186 36.2867 2.71027 38.1005C1.0515 39.9892 0.328047 42.6194 0.723362 45.3195V45.3221Z" fill="white"/>
  <path d="M119.599 53.8252H114.806C112.202 53.8252 109.923 55.6416 109.254 58.1582L103.195 81.0709H49.1351L43.0477 58.1582C42.3786 55.6416 40.0997 53.8252 37.4953 53.8252H32.7024C28.9301 53.8252 26.181 57.3779 27.1499 61.0235L33.0124 83.0811C33.6816 85.5976 35.9605 87.3443 38.5649 87.3443H113.737C116.548 87.1479 118.62 85.5873 119.289 83.0707L125.152 61.0261C126.121 57.3804 123.372 53.8252 119.599 53.8252Z" fill="#14B8A6"/>
  <path d="M38.5649 87.5768C35.8571 87.5768 33.4827 85.7526 32.7902 83.143L26.9277 61.0855C26.4497 59.282 26.8243 57.4036 27.9586 55.9283C29.098 54.4478 30.8266 53.5978 32.7024 53.5978H37.4952C40.1901 53.5978 42.5672 55.4503 43.2699 58.1038L49.3108 80.8435H103.014L109.029 58.1038C109.734 55.4503 112.109 53.5978 114.804 53.5978H119.597C121.472 53.5978 123.201 54.4478 124.34 55.9283C125.475 57.4036 125.852 59.2846 125.371 61.0881L119.509 83.1327C118.824 85.7113 116.669 87.3726 113.75 87.5768H38.5649ZM32.7024 54.0577C30.9713 54.0577 29.3745 54.8406 28.3229 56.2074C27.2765 57.5664 26.9303 59.3001 27.3721 60.9641L33.2346 83.0216C33.8754 85.4296 36.0664 87.1117 38.5649 87.1117H113.737C116.475 86.9205 118.424 85.4245 119.067 83.0087L124.93 60.9641C125.371 59.3001 125.025 57.5664 123.979 56.2048C122.927 54.838 121.333 54.0525 119.602 54.0525H114.809C112.323 54.0525 110.13 55.763 109.479 58.2149L103.42 81.1277C103.394 81.2285 103.301 81.3008 103.198 81.3008H49.1351C49.0291 81.3008 48.9387 81.231 48.9129 81.1303L42.8255 58.2175C42.1744 55.7655 39.9834 54.0551 37.4952 54.0551H32.7024V54.0577Z" fill="white"/>
  <path d="M103.376 70.4181H49.2051C47.1103 70.4181 45.4121 72.1163 45.4121 74.211V77.2831C45.4121 79.3779 47.1103 81.0761 49.2051 81.0761H103.376C105.471 81.0761 107.169 79.3779 107.169 77.2831V74.211C107.169 72.1163 105.471 70.4181 103.376 70.4181Z" fill="#14B8A6"/>
  <path d="M103.376 81.306H49.2076C46.9882 81.306 45.1821 79.5 45.1821 77.2805V74.211C45.1821 71.9916 46.9882 70.1855 49.2076 70.1855H103.379C105.598 70.1855 107.404 71.9916 107.404 74.211V77.2805C107.404 79.5 105.598 81.306 103.379 81.306H103.376ZM49.205 70.648C47.2414 70.648 45.642 72.2474 45.642 74.211V77.2805C45.642 79.2442 47.2414 80.8435 49.205 80.8435H103.376C105.34 80.8435 106.939 79.2442 106.939 77.2805V74.211C106.939 72.2474 105.34 70.648 103.376 70.648H49.2076H49.205Z" fill="white"/>
  <path d="M72.4095 47.433L89.8602 46.3323C90.8808 46.2832 91.7748 47.0067 91.9427 48.0143L95.2939 68.2451C95.498 69.4802 94.5394 70.5989 93.2863 70.586L75.0734 70.3354C74.0761 70.3251 73.2363 69.5861 73.102 68.5965L70.5131 49.717C70.3529 48.5466 71.2288 47.4898 72.4095 47.433Z" fill="#14B8A6"/>
  <path d="M93.3072 70.8134C93.3072 70.8134 93.2917 70.8134 93.284 70.8134L75.0711 70.5628C73.9678 70.5499 73.0222 69.7179 72.8723 68.625L70.2834 49.7455C70.1981 49.1228 70.379 48.4898 70.7795 48.0066C71.1799 47.5234 71.769 47.2289 72.3969 47.1979L89.8476 46.0972C90.9818 46.0429 91.9818 46.8465 92.1704 47.9704L95.5215 68.2012C95.63 68.8575 95.444 69.5215 95.0125 70.0279C94.5862 70.5266 93.9661 70.8108 93.3098 70.8108L93.3072 70.8134ZM72.4201 47.663C71.9163 47.6888 71.459 47.9162 71.136 48.3037C70.813 48.6939 70.6735 49.1822 70.7407 49.6834L73.3296 68.563C73.4485 69.4311 74.2003 70.0925 75.0762 70.1029L93.2891 70.3535C93.2891 70.3535 93.3021 70.3535 93.3072 70.3535C93.8291 70.3535 94.3201 70.1287 94.6585 69.7308C95.0022 69.3303 95.1494 68.8007 95.0642 68.2813L91.713 48.0505C91.5658 47.1591 90.7751 46.5209 89.8682 46.5623L72.4176 47.663H72.4201Z" fill="white"/>
  <path d="M76.019 67.6147C75.9027 67.6147 75.8046 67.5294 75.7891 67.4105L73.7556 50.0813C73.7401 49.9547 73.8306 49.841 73.9572 49.8255C74.0812 49.8074 74.1975 49.9004 74.213 50.027L76.2464 67.3563C76.2619 67.4829 76.1715 67.5966 76.0448 67.6121C76.0345 67.6121 76.0268 67.6121 76.0164 67.6121L76.019 67.6147Z" fill="white"/>
  <path d="M47.518 71.0252C47.3914 71.0252 47.2881 70.9218 47.2881 70.7952C47.2881 70.6686 47.3914 70.5627 47.518 70.5627L75.7817 70.4438C75.9084 70.4438 76.0117 70.5472 76.0117 70.6738C76.0117 70.8004 75.9084 70.9063 75.7817 70.9063L47.518 71.0252Z" fill="white"/>
  <path d="M112.068 95.9481C112.14 96.1445 119.84 103.947 119.84 103.947L115.106 106.115L108.877 99.3199L112.068 95.9456V95.9481Z" fill="#14B8A6"/>
  <path d="M115.106 106.348C115.041 106.348 114.979 106.322 114.935 106.273L108.706 99.4775C108.623 99.3871 108.626 99.2502 108.706 99.1623L111.897 95.7879C111.951 95.7311 112.034 95.7052 112.111 95.7207C112.176 95.7337 112.233 95.775 112.266 95.8318C112.522 96.1729 117.023 100.764 120.002 103.785C120.054 103.839 120.08 103.914 120.064 103.989C120.051 104.064 120.002 104.126 119.932 104.157L115.199 106.324C115.168 106.337 115.134 106.345 115.103 106.345L115.106 106.348ZM109.192 99.3251L115.163 105.836L119.444 103.875C114.122 98.4802 112.54 96.8188 112.062 96.2892L109.192 99.3225V99.3251Z" fill="white"/>
  <path d="M114.843 102.782C115.005 102.361 115.302 101.875 115.842 101.547C116.654 101.051 117.698 101.149 118.46 101.718C120.367 103.136 125.547 107.162 128.57 111.123C129.64 112.523 129.162 114.404 126.803 114.404C122.935 114.404 116.749 112.918 111.533 108.557C110.933 108.056 110.623 107.286 110.727 106.513C110.809 105.88 110.959 105.09 111.225 104.335C111.479 103.617 112.225 103.196 112.977 103.33L113.651 103.451C114.158 103.542 114.657 103.263 114.843 102.782Z" fill="#14B8A6"/>
  <path d="M126.8 114.634C122.759 114.634 116.589 113.084 111.385 108.733C110.716 108.174 110.385 107.332 110.499 106.48C110.608 105.653 110.778 104.903 111.008 104.255C111.3 103.428 112.145 102.942 113.018 103.1L113.693 103.221C114.088 103.294 114.481 103.072 114.628 102.694C114.855 102.11 115.235 101.643 115.723 101.346C116.589 100.819 117.744 100.891 118.599 101.526C120.651 103.053 125.746 107.032 128.756 110.978C129.361 111.771 129.513 112.722 129.149 113.458C128.774 114.215 127.942 114.631 126.805 114.631H126.803L126.8 114.634ZM112.688 103.534C112.132 103.534 111.631 103.875 111.44 104.41C111.223 105.027 111.057 105.743 110.954 106.539C110.863 107.231 111.135 107.919 111.68 108.376C116.788 112.647 122.839 114.169 126.8 114.169H126.803C127.753 114.169 128.438 113.843 128.73 113.254C129.014 112.678 128.883 111.913 128.384 111.259C125.407 107.361 120.354 103.415 118.318 101.899C117.612 101.374 116.664 101.309 115.959 101.741C115.55 101.989 115.248 102.366 115.054 102.862C114.827 103.444 114.217 103.787 113.605 103.676L112.93 103.555C112.848 103.539 112.765 103.531 112.685 103.531L112.688 103.534Z" fill="white"/>
  <path d="M125.457 112.794C123.154 112.794 119.033 111.887 112.553 107.508C112.447 107.435 112.419 107.293 112.491 107.187C112.564 107.082 112.706 107.053 112.812 107.125C123.356 114.249 127.526 111.967 127.567 111.944C127.676 111.88 127.818 111.916 127.883 112.027C127.947 112.135 127.911 112.277 127.803 112.342C127.733 112.383 127.004 112.794 125.457 112.794Z" fill="white"/>
  <path d="M121.475 108.668C121.423 108.668 121.371 108.65 121.328 108.614C121.229 108.531 121.216 108.386 121.297 108.288L123.139 106.069C123.221 105.971 123.366 105.958 123.464 106.038C123.562 106.12 123.575 106.265 123.495 106.363L121.653 108.583C121.607 108.637 121.542 108.665 121.475 108.665V108.668Z" fill="white"/>
  <path d="M119.664 107.337C119.609 107.337 119.555 107.319 119.511 107.278C119.416 107.193 119.408 107.048 119.493 106.952L121.532 104.663C121.617 104.568 121.762 104.56 121.857 104.645C121.953 104.73 121.961 104.875 121.875 104.971L119.837 107.26C119.79 107.311 119.728 107.337 119.664 107.337Z" fill="white"/>
  <path d="M97.1746 101.154L95.4796 111.058L91.666 108.469L92.8468 98.9736L97.1746 101.154Z" fill="#14B8A6"/>
  <path d="M95.48 111.29C95.4335 111.29 95.3895 111.278 95.3508 111.252L91.5372 108.663C91.4648 108.614 91.4261 108.528 91.439 108.443L92.6198 98.9478C92.6301 98.8729 92.674 98.8083 92.7412 98.7721C92.8084 98.736 92.8859 98.736 92.9531 98.7721L97.2809 100.953C97.3713 100.999 97.423 101.098 97.4049 101.198L95.7099 111.102C95.697 111.179 95.6453 111.244 95.573 111.275C95.5446 111.288 95.5136 111.293 95.4826 111.293L95.48 111.29ZM91.9118 108.358L95.312 110.665L96.9191 101.284L93.0357 99.3276L91.9118 108.358Z" fill="white"/>
  <path d="M96.6453 109.216C96.5859 112.272 96.3818 118.422 94.3148 122.889C93.7593 124.088 91.3435 124.132 90.3823 122.592C88.3773 119.38 85.7393 113.882 86.7418 107.017C86.8193 106.479 87.15 106.012 87.628 105.759C88.1887 105.462 89.0827 105.077 90.3668 104.769C91.005 104.617 91.6432 105.035 91.7569 105.684L92.1754 108.061L92.4596 107.647C92.886 107.025 93.6818 106.774 94.3871 107.04C94.7669 107.182 95.1881 107.34 95.5679 107.485C96.2784 107.751 96.6557 108.459 96.6427 109.218L96.6453 109.216Z" fill="#14B8A6"/>
  <path d="M92.6093 124C91.6197 124 90.6844 123.509 90.1883 122.713C86.9767 117.572 85.7417 112.28 86.5142 106.983C86.602 106.376 86.9793 105.841 87.5219 105.554C88.0567 105.27 88.9765 104.865 90.3149 104.544C90.687 104.456 91.0668 104.524 91.3872 104.733C91.7024 104.94 91.922 105.273 91.9866 105.645L92.307 107.466C92.8031 106.792 93.6815 106.529 94.4696 106.826L95.6504 107.27C96.41 107.557 96.8906 108.324 96.8725 109.223C96.826 111.701 96.6994 118.282 94.5213 122.987C94.2526 123.568 93.6066 123.946 92.7927 123.995C92.7307 123.997 92.6687 124 92.6067 124H92.6093ZM90.6353 104.968C90.5655 104.968 90.4932 104.976 90.4208 104.994C89.129 105.304 88.2479 105.691 87.7363 105.963C87.3229 106.182 87.0361 106.588 86.9689 107.05C86.2119 112.236 87.4263 117.422 90.5759 122.47C91.1081 123.323 92.0899 123.576 92.7643 123.535C93.4077 123.493 93.9063 123.217 94.1027 122.793C96.2395 118.174 96.3635 111.665 96.41 109.213C96.4229 108.5 96.0689 107.919 95.485 107.699L94.3042 107.255C93.697 107.025 93.0149 107.242 92.648 107.777L92.3638 108.19C92.3096 108.267 92.2166 108.304 92.1235 108.286C92.0331 108.265 91.9608 108.192 91.9453 108.099L91.5267 105.722C91.4828 105.472 91.3407 105.257 91.1288 105.118C90.9789 105.02 90.8058 104.968 90.6301 104.968H90.6353Z" fill="white"/>
  <path d="M92.2477 122.111C92.1754 122.111 92.1056 122.078 92.0591 122.016C87.4549 115.585 88.0181 107.611 88.0233 107.531C88.0336 107.404 88.1447 107.311 88.2713 107.319C88.3979 107.33 88.4935 107.441 88.4832 107.567C88.478 107.645 87.9303 115.455 92.4338 121.747C92.5087 121.85 92.4854 121.995 92.3795 122.07C92.3382 122.098 92.2917 122.114 92.2452 122.114L92.2477 122.111Z" fill="white"/>
  <path d="M96.123 113.66C96.1049 113.66 96.0894 113.66 96.0713 113.655L93.1775 112.988C93.0535 112.959 92.976 112.835 93.0044 112.711C93.0328 112.587 93.1568 112.51 93.2809 112.538L96.1747 113.205C96.2987 113.233 96.3762 113.357 96.3478 113.481C96.3219 113.587 96.2289 113.66 96.123 113.66Z" fill="white"/>
  <path d="M95.7099 116.169C95.6866 116.169 95.6634 116.166 95.6401 116.158L92.8962 115.293C92.7748 115.254 92.7076 115.125 92.7463 115.003C92.7851 114.882 92.9143 114.815 93.0357 114.853L95.7797 115.719C95.9011 115.758 95.9683 115.887 95.9295 116.008C95.8985 116.107 95.8081 116.171 95.7099 116.171V116.169Z" fill="white"/>
  <path d="M69.9086 57.8118C69.9086 57.8118 83.4552 55.4477 96.1208 61.7314C99.3117 63.3152 101.392 66.5062 101.565 70.0666C101.911 77.1306 101.864 90.0829 98.1464 101.526C97.9346 102.178 97.2215 102.519 96.5807 102.276L90.9171 100.129C90.5373 99.9839 90.2556 99.6583 90.1704 99.2605C89.6226 96.6948 87.7132 86.9204 88.7028 79.704C89.85 71.3275 62.6611 63.9922 62.6611 63.9922L69.9112 57.8118H69.9086Z" fill="white"/>
  <path d="M113.652 97.5914L108.9 101.098C108.582 101.333 108.143 101.302 107.862 101.025C104.65 97.8652 86.5145 80.1252 82.0885 77.9161C77.2285 75.4873 68.2009 71.9243 60.2015 72.4075C52.2048 72.8907 50.2153 67.426 50.2153 67.426L61.2221 59.4344C61.2221 59.4344 81.0835 60.5971 89.7959 66.9273C97.6608 72.6452 111.275 92.6667 113.845 96.501C114.086 96.8576 114.001 97.3381 113.654 97.5939L113.652 97.5914Z" fill="white"/>
  <path d="M101.991 79.7944C101.924 79.7944 101.857 79.766 101.81 79.7091C98.2263 75.2547 92.6997 69.3224 89.6586 67.1107C86.3591 64.713 81.0857 62.7804 73.983 61.367C73.8589 61.3412 73.7763 61.2198 73.8021 61.0958C73.8279 60.9717 73.9494 60.8891 74.0734 60.9149C81.2407 62.3411 86.5762 64.3022 89.9299 66.7387C93.0046 68.9736 98.5674 74.9421 102.172 79.4197C102.252 79.5205 102.236 79.6652 102.136 79.7453C102.092 79.7789 102.043 79.797 101.991 79.797V79.7944Z" fill="#14B8A6"/>
  <path d="M57.4521 45.0791C57.4521 45.0791 62.4853 59.9098 68.0223 61.4678C73.5593 63.0258 77.4168 58.3182 77.3936 53.4556L75.51 52.8329C75.51 52.8329 73.5774 57.8144 69.2702 56.5174C64.9605 55.2203 60.8343 41.8184 60.8343 41.8184L57.4521 45.0791Z" fill="#14B8A6"/>
  <path d="M70.1514 62.0053C69.4822 62.0053 68.751 61.9123 67.9604 61.6901C62.3692 60.1166 57.4419 45.7638 57.2327 45.154C57.2042 45.0688 57.2275 44.9758 57.2921 44.9138L60.6742 41.6531C60.7311 41.5962 60.8137 41.5755 60.8913 41.5962C60.9688 41.6169 61.0308 41.6763 61.054 41.7512C61.0954 41.883 65.1932 55.0524 69.335 56.2978C73.3863 57.5173 75.2182 52.9441 75.2931 52.7503C75.337 52.6366 75.4636 52.5772 75.5799 52.6159L77.4635 53.2386C77.5565 53.2696 77.6211 53.3575 77.6211 53.4557C77.6366 56.2874 76.3628 59.0236 74.2984 60.5946C73.3734 61.2973 71.9859 62.0053 70.1463 62.0053H70.1514ZM57.721 45.1437C58.2481 46.6449 63.0099 59.8169 68.087 61.2457C70.862 62.026 72.8489 61.1242 74.0245 60.2277C75.9339 58.773 77.1276 56.2539 77.1637 53.6236L75.6393 53.1198C75.2053 54.0628 73.1538 57.9281 69.2058 56.7422C65.1777 55.5304 61.4338 44.4383 60.7285 42.2473L57.721 45.1463V45.1437Z" fill="white"/>
  <path d="M54.078 70.6584C54.078 70.6584 49.3549 73.7563 46.9623 72.5962C44.5698 71.4361 49.1094 67.5269 50.3703 67.4545C51.6312 67.3796 54.078 70.6584 54.078 70.6584Z" fill="white"/>
  <path d="M58.4754 20.2725C60.5114 20.1381 62.6818 22.0656 62.2374 25.0576C61.8757 27.5018 59.2583 28.0599 57.9768 29.2872C53.835 33.2559 57.1887 38.1263 53.8841 42.144C50.7371 45.9705 46.6005 42.8855 40.4641 47.0996C35.6324 50.4172 52.6387 46.0687 46.5488 49.4974C41.6888 52.2336 33.0048 51.3525 28.4909 45.3608C24.1993 39.6636 23.7007 31.5377 28.77 27.9979C33.3277 24.8147 36.0769 29.1064 40.9033 26.1609C45.6626 23.2567 44.642 20.0348 47.5668 18.8902C51.5665 17.3219 52.7033 20.6575 58.4703 20.2751L58.4754 20.2725Z" fill="white"/>
  <path d="M32.4854 48.6008C32.8497 47.1074 33.3509 45.3582 33.816 44.2161C35.2474 40.6971 36.2163 38.4079 40.3891 36.5527C41.0143 36.2763 41.6654 36.0592 42.3269 35.8913L44.815 35.2557C44.815 35.2557 55.0493 33.106 58.788 37.271C59.0903 37.6095 59.4778 37.9919 59.7104 38.4259L62.0435 42.5599L62.0177 42.5677C59.6251 43.3532 58.4521 46.0609 59.5399 48.3346C60.7904 50.9468 62.5525 54.0189 64.4257 55.378C65.0174 55.8069 69.862 58.2175 69.862 58.2175C69.862 58.2175 70.8205 62.0415 62.9091 64.6924C54.9976 67.3433 49.3159 68.103 47.422 71.9424C46.3007 74.2161 43.2209 62.7132 41.4717 52.0165C41.1358 49.9572 39.3401 48.4612 37.255 48.5052L32.4854 48.6059V48.6008Z" fill="#14B8A6"/>
  <path d="M47.0941 72.4618C47.0682 72.4618 47.0424 72.4618 47.0191 72.4566C45.3139 72.2008 42.5673 60.1295 41.247 52.0527C40.9344 50.1459 39.2653 48.7326 37.3456 48.7326C37.3171 48.7326 37.2913 48.7326 37.2629 48.7326L32.4933 48.8333C32.4235 48.8333 32.3537 48.8023 32.3072 48.7481C32.2633 48.6912 32.2452 48.6189 32.2633 48.5491C32.6922 46.7922 33.196 45.1411 33.6043 44.1309C34.9917 40.7203 35.9917 38.258 40.2988 36.3435C40.906 36.0747 41.5519 35.8525 42.2728 35.6691L44.7609 35.0335C45.195 34.9431 55.1786 32.9045 58.9613 37.1186C59.0129 37.1754 59.0646 37.2323 59.1189 37.2917C59.3953 37.5914 59.708 37.9325 59.9147 38.3174L62.2478 42.4463C62.2814 42.5057 62.2865 42.5781 62.2633 42.6427C62.2375 42.7072 62.1858 42.7563 62.1212 42.7796L62.0953 42.7873C61.0128 43.1413 60.1343 43.9475 59.6873 44.9939C59.2429 46.0351 59.2661 47.2159 59.7545 48.2339C60.9146 50.6549 62.6896 53.8277 64.568 55.192C65.0227 55.5227 68.3015 57.1815 69.9732 58.0108C70.0326 58.0418 70.0792 58.0961 70.0947 58.1607C70.136 58.3261 71.0119 62.2224 62.9893 64.9095C61.2091 65.5063 59.5064 66.0179 58.0053 66.4675C52.8119 68.0281 49.0603 69.1546 47.6341 72.0432C47.4687 72.3791 47.262 72.4618 47.0966 72.4618H47.0941ZM37.343 48.2701C39.4901 48.2701 41.353 49.8488 41.7018 51.9778C43.4846 62.889 46.1045 71.8546 47.0863 71.9993C47.1096 72.0096 47.1587 71.9554 47.2155 71.8391C48.7296 68.7722 52.5639 67.6198 57.8683 66.0256C59.3669 65.5761 61.0644 65.0645 62.8369 64.4702C69.7148 62.1655 69.72 58.9668 69.6554 58.3674C68.9216 58.0005 64.8496 55.9671 64.2915 55.5614C62.3356 54.143 60.5167 50.9003 59.3333 48.4303C58.7881 47.2934 58.7623 45.9731 59.2584 44.8104C59.726 43.7175 60.6097 42.8623 61.7078 42.4308L59.509 38.5371C59.3256 38.1986 59.0336 37.8808 58.7778 37.5992C58.721 37.5397 58.6667 37.4803 58.615 37.4209C55.0081 33.4057 44.9625 35.4572 44.8617 35.4779L42.3839 36.1135C41.6863 36.2918 41.0662 36.5037 40.4822 36.7646C36.3456 38.6017 35.4258 40.8702 34.028 44.304C33.6482 45.2367 33.1883 46.7405 32.7801 48.3657L37.2474 48.2727C37.2784 48.2727 37.3094 48.2727 37.3404 48.2727L37.343 48.2701Z" fill="white"/>
  <path d="M72.8928 63.615H58.8604C58.6046 63.615 58.4419 63.3412 58.5659 63.1164L67.901 46.2393C67.9604 46.1333 68.0741 46.0662 68.1955 46.0662H82.2279C82.4837 46.0662 82.6465 46.34 82.5225 46.5648L73.1873 63.4419C73.1279 63.5479 73.0142 63.615 72.8928 63.615Z" fill="#14B8A6"/>
  <path d="M72.8927 63.8475H58.8603C58.6562 63.8475 58.4753 63.7442 58.372 63.5685C58.2686 63.3928 58.266 63.1835 58.3642 63.0052L67.6993 46.1281C67.8001 45.9473 67.9887 45.8362 68.1954 45.8362H82.2278C82.4319 45.8362 82.6128 45.9395 82.7161 46.1152C82.8195 46.2909 82.8221 46.5002 82.7239 46.6785L73.3888 63.5556C73.288 63.7364 73.0994 63.8475 72.8927 63.8475ZM68.1954 46.2987C68.1567 46.2987 68.1205 46.3193 68.1024 46.3529L58.7673 63.23C58.7415 63.2765 58.757 63.3153 58.7673 63.3334C58.7776 63.354 58.8061 63.3851 58.8577 63.3851H72.8901C72.9289 63.3851 72.965 63.3644 72.9831 63.3308L82.3182 46.4537C82.3441 46.4072 82.3286 46.3684 82.3182 46.3504C82.3079 46.3297 82.2795 46.2987 82.2278 46.2987H68.1954Z" fill="white"/>
  <path d="M75.8486 58.7137C75.8486 58.7137 75.5696 57.2591 75.8486 56.2876C76.1277 55.3161 77.851 52.43 78.3445 51.8254C78.838 51.2208 79.254 57.6725 75.8486 58.7137Z" fill="#14B8A6"/>
  <path d="M75.8488 58.9462C75.8075 58.9462 75.7661 58.9359 75.7299 58.9126C75.6731 58.879 75.6343 58.8222 75.6214 58.7576C75.6085 58.6956 75.3372 57.2358 75.6266 56.2255C75.9082 55.2437 77.6419 52.3215 78.1664 51.6807C78.2749 51.5489 78.4145 51.5386 78.5101 51.5748C78.895 51.7195 78.9209 52.8227 78.9002 53.4687C78.833 55.6907 78.014 58.2951 75.916 58.9359C75.8927 58.9436 75.872 58.9462 75.8488 58.9462ZM78.3654 52.1819C77.7401 53.0682 76.3087 55.515 76.071 56.3521C75.8798 57.0187 75.9702 57.9489 76.0322 58.4036C77.1329 57.9437 77.7117 56.8405 78.0062 55.962C78.5204 54.4427 78.4946 52.7891 78.3654 52.1819Z" fill="white"/>
  <path d="M61.749 60.1916L58.1033 58.8662C57.5607 58.6698 56.9561 58.768 56.5065 59.1297L54.7832 60.5094C54.455 60.773 54.0365 60.8996 53.6179 60.8634C51.786 60.7135 43.4741 58.1479 42.6498 56.6777C42.2416 55.9517 41.7223 53.4764 41.3425 51.4301C41.0247 49.7145 39.5106 48.4846 37.7665 48.5208L34.0098 48.6035C34.0098 48.6035 34.9683 57.6647 37.9913 60.605C40.34 62.8891 45.9312 64.1008 54.0726 63.7391C54.0726 63.7391 55.7753 63.5738 57.23 61.8943C58.1575 60.8221 60.3667 61.4163 61.6895 61.1166C62.1598 61.0107 62.1985 60.357 61.7464 60.1916H61.749Z" fill="#14B8A6"/>
  <path d="M51.3131 64.031C44.753 64.031 40.0221 62.8968 37.8337 60.7678C34.7849 57.8016 33.8211 48.9988 33.7824 48.6241C33.7746 48.5595 33.7953 48.4949 33.8392 48.4458C33.8831 48.3967 33.9426 48.3683 34.0071 48.3683L37.7639 48.2856C37.7924 48.2856 37.8208 48.2856 37.8492 48.2856C39.6785 48.2856 41.2365 49.5775 41.5724 51.3836C42.0891 54.1714 42.5465 56.0111 42.8539 56.5614C43.6316 57.9463 51.8273 60.481 53.6385 60.6282C54.0028 60.6592 54.3568 60.5507 54.641 60.3234L56.3644 58.9436C56.8734 58.5354 57.571 58.4217 58.1859 58.6439L61.8316 59.972C62.1365 60.0831 62.3199 60.3621 62.2993 60.6877C62.2786 61.0106 62.0616 61.2664 61.7464 61.3388C61.258 61.4499 60.6844 61.4473 60.0772 61.4421C59.0308 61.4344 57.9456 61.4266 57.4134 62.0441C55.9174 63.7727 54.1785 63.9613 54.1036 63.9665C53.1424 64.0104 52.2123 64.031 51.3157 64.031H51.3131ZM34.2707 48.8256C34.4516 50.2984 35.5031 57.8559 38.1541 60.437C40.513 62.7314 46.3136 63.8502 54.0648 63.5065C54.0674 63.5065 55.6874 63.3257 57.0568 61.7418C57.7312 60.9641 58.9197 60.9719 60.0747 60.9796C60.656 60.9848 61.2038 60.9874 61.6378 60.8892C61.8084 60.8504 61.829 60.7032 61.8342 60.6593C61.8368 60.6153 61.8342 60.4681 61.6688 60.406L58.0232 59.078C57.5607 58.91 57.0336 58.9953 56.6486 59.3028L54.9252 60.6825C54.5506 60.9822 54.0778 61.1269 53.5972 61.0882C51.8092 60.9409 43.35 58.3959 42.4457 56.7862C42.1021 56.1764 41.6551 54.3859 41.1125 51.4662C40.8128 49.854 39.4124 48.7068 37.7691 48.7456L34.2655 48.8231L34.2707 48.8256Z" fill="white"/>
  <path d="M46.0501 35.0904C46.0501 35.0904 49.0162 28.6516 49.1945 27.8455C49.1945 27.8455 48.577 27.4089 48.7501 26.3909C49.0756 24.4556 50.8791 25.6726 50.8791 25.6726L51.0626 25.7423C52.1322 26.1557 53.3001 26.2487 54.424 26.0162L56.783 25.5253C56.783 25.5253 57.1473 26.4167 56.3851 27.9437C56.0234 28.6723 55.9562 29.5637 55.9743 30.5094C55.9794 30.7574 55.7805 30.9641 55.5299 30.9693L54.9149 30.9822C54.5041 31.6721 54.1656 32.0674 53.5817 32.4678C53.4215 32.5764 53.2252 32.6229 53.0365 32.5867C52.7782 32.5402 52.3854 32.4317 51.9591 32.1836L51.246 34.987L52.7472 35.1472C52.7472 35.1472 53.0521 37.0023 50.0471 37.9222C48.3884 38.4286 46.1922 37.9919 44.5567 37.501C43.7169 37.2478 43.6549 36.0877 44.4636 35.7492L46.0475 35.0878L46.0501 35.0904Z" fill="#14B8A6"/>
  <path d="M48.3575 38.3846C47.0165 38.3846 45.5954 38.0616 44.4922 37.7283C44.0142 37.5836 43.6886 37.1702 43.6628 36.6716C43.6369 36.1755 43.916 35.7337 44.3759 35.5399L45.8771 34.912C46.6832 33.1603 48.621 28.8867 48.9336 27.9204C48.7321 27.7111 48.3781 27.2099 48.5228 26.3546C48.6262 25.7345 48.8871 25.3341 49.2928 25.1584C49.9826 24.8638 50.8301 25.3702 50.9851 25.4684L51.1453 25.5304C52.1763 25.9283 53.295 26.0188 54.3776 25.794L56.7366 25.3031C56.8451 25.2824 56.9562 25.3392 56.9975 25.4426C57.0131 25.4839 57.3903 26.4477 56.5945 28.0496C56.2276 28.786 56.194 29.7058 56.2069 30.5067C56.2147 30.8814 55.9124 31.194 55.5377 31.2018L55.0494 31.2121C54.6334 31.889 54.2769 32.2766 53.7162 32.659C53.5043 32.8037 53.2434 32.8605 52.9979 32.8166C52.7783 32.7753 52.4656 32.6926 52.1143 32.5272L51.5381 34.788L52.7757 34.9198C52.879 34.9301 52.9617 35.0102 52.9798 35.111C52.9927 35.1937 53.2821 37.178 50.1196 38.1443C49.5744 38.3123 48.975 38.3794 48.3601 38.3794L48.3575 38.3846ZM49.7656 25.5304C49.6623 25.5304 49.5641 25.5459 49.4737 25.5847C49.2204 25.6932 49.0551 25.98 48.9776 26.4322C48.8329 27.2951 49.3238 27.6543 49.329 27.6594C49.4039 27.7137 49.4401 27.8067 49.422 27.8971C49.2411 28.7188 46.3835 34.925 46.262 35.1885C46.2388 35.2402 46.1949 35.2815 46.1406 35.3048L44.5568 35.9662C44.2209 36.1057 44.1149 36.4106 44.1279 36.6457C44.1408 36.8834 44.2777 37.178 44.6291 37.2839C46.1768 37.7516 48.3626 38.2012 49.9852 37.7077C52.2434 37.0152 52.5122 35.8112 52.5302 35.3616L51.2254 35.2221C51.1583 35.2143 51.0988 35.1782 51.0601 35.1239C51.0213 35.0697 51.0084 34.9999 51.0265 34.9353L51.7396 32.1319C51.7577 32.0622 51.8068 32.0027 51.874 31.9769C51.9411 31.9485 52.0161 31.9536 52.0807 31.9898C52.4786 32.2223 52.8455 32.3231 53.0832 32.367C53.2098 32.3903 53.3467 32.3593 53.4578 32.2844C53.9926 31.9175 54.3104 31.5609 54.7213 30.871C54.7626 30.8039 54.8349 30.7599 54.915 30.7574L55.53 30.7444C55.6514 30.7444 55.7496 30.6411 55.747 30.5197C55.7315 29.6618 55.7729 28.6723 56.1837 27.8481C56.6901 26.8326 56.6668 26.1221 56.6177 25.8043L54.4758 26.2487C53.3079 26.4916 52.0987 26.3934 50.9851 25.9645L50.8017 25.8921C50.7862 25.887 50.7707 25.8792 50.7552 25.8689C50.5898 25.7578 50.1558 25.5304 49.7708 25.5304H49.7656Z" fill="white"/>
  <path d="M51.9594 32.4187C51.9155 32.4187 51.8742 32.4058 51.8354 32.3826L51.4478 32.1345C51.3393 32.0648 51.3083 31.9227 51.3781 31.8167C51.4478 31.7082 51.5899 31.6772 51.6959 31.747L52.0834 31.995C52.192 32.0648 52.223 32.2069 52.1532 32.3128C52.1093 32.3826 52.0343 32.4187 51.9594 32.4187Z" fill="white"/>
</svg>