<svg width="20" height="20" viewBox="0 0 20 20" fill="none" xmlns="http://www.w3.org/2000/svg">
<path d="M17.5002 1.66748L15.8336 3.33415M15.8336 3.33415L18.3336 5.83415L15.4169 8.75081L12.9169 6.25081M15.8336 3.33415L12.9169 6.25081M9.4919 9.67581C9.92218 10.1004 10.2642 10.6058 10.4984 11.1631C10.7325 11.7204 10.8541 12.3185 10.8561 12.923C10.8581 13.5275 10.7405 14.1264 10.5102 14.6852C10.2798 15.2441 9.94111 15.7518 9.51368 16.1793C9.08625 16.6067 8.5785 16.9454 8.01965 17.1757C7.4608 17.4061 6.8619 17.5237 6.25742 17.5217C5.65295 17.5196 5.05485 17.3981 4.49755 17.1639C3.94026 16.9298 3.43478 16.5878 3.01023 16.1575C2.17534 15.2931 1.71336 14.1353 1.72381 12.9336C1.73425 11.7318 2.21627 10.5823 3.06606 9.73248C3.91585 8.88269 5.0654 8.40067 6.26714 8.39023C7.46888 8.37978 8.62664 8.84176 9.49106 9.67665L9.4919 9.67581ZM9.4919 9.67581L12.9169 6.25081" stroke="white" stroke-width="1.33" stroke-linecap="round" stroke-linejoin="round"/>
</svg>
