<svg width="112" height="33" viewBox="0 0 112 33" fill="none" xmlns="http://www.w3.org/2000/svg">
<path d="M111.861 16.1136V17.3068H107.69V16.1136H111.861ZM108.808 14.2841H110.295V21.5078C110.295 21.7961 110.338 22.0132 110.424 22.1591C110.51 22.3016 110.621 22.3994 110.757 22.4524C110.896 22.5021 111.047 22.527 111.21 22.527C111.329 22.527 111.433 22.5187 111.523 22.5021C111.612 22.4855 111.682 22.4723 111.732 22.4623L112 23.6903C111.914 23.7235 111.791 23.7566 111.632 23.7897C111.473 23.8262 111.274 23.8461 111.036 23.8494C110.644 23.856 110.28 23.7864 109.942 23.6406C109.604 23.4948 109.33 23.2694 109.121 22.9645C108.913 22.6595 108.808 22.2767 108.808 21.816V14.2841Z" fill="#0F172A"/>
<path d="M102.548 23.919C102.064 23.919 101.626 23.8295 101.235 23.6505C100.844 23.4682 100.534 23.2047 100.306 22.86C100.08 22.5153 99.9675 22.0928 99.9675 21.5923C99.9675 21.1614 100.05 20.8068 100.216 20.5284C100.382 20.25 100.606 20.0295 100.887 19.8671C101.169 19.7047 101.484 19.5821 101.832 19.4992C102.18 19.4164 102.535 19.3534 102.896 19.3103C103.353 19.2573 103.724 19.2142 104.009 19.1811C104.294 19.1446 104.502 19.0866 104.631 19.0071C104.76 18.9275 104.825 18.7983 104.825 18.6193V18.5845C104.825 18.1503 104.702 17.8139 104.457 17.5752C104.215 17.3366 103.854 17.2173 103.373 17.2173C102.873 17.2173 102.478 17.3283 102.19 17.5504C101.905 17.7691 101.708 18.0127 101.598 18.2812L100.201 17.963C100.367 17.499 100.609 17.1245 100.927 16.8394C101.249 16.5511 101.618 16.3423 102.036 16.213C102.453 16.0804 102.892 16.0142 103.353 16.0142C103.658 16.0142 103.981 16.0506 104.323 16.1235C104.667 16.1931 104.989 16.3224 105.287 16.5113C105.589 16.7002 105.836 16.9704 106.028 17.3217C106.22 17.6697 106.316 18.1221 106.316 18.6789V23.75H104.865V22.7059H104.805C104.709 22.8982 104.565 23.0871 104.372 23.2727C104.18 23.4583 103.933 23.6124 103.632 23.735C103.33 23.8577 102.969 23.919 102.548 23.919ZM102.871 22.7258C103.282 22.7258 103.633 22.6446 103.925 22.4822C104.22 22.3198 104.444 22.1077 104.596 21.8458C104.752 21.5807 104.83 21.2973 104.83 20.9957V20.0113C104.777 20.0643 104.674 20.1141 104.522 20.1605C104.372 20.2036 104.202 20.2417 104.009 20.2748C103.817 20.3046 103.63 20.3328 103.448 20.3593C103.265 20.3825 103.113 20.4024 102.99 20.419C102.702 20.4554 102.438 20.5168 102.2 20.6029C101.964 20.6891 101.776 20.8134 101.633 20.9758C101.494 21.1349 101.424 21.347 101.424 21.6122C101.424 21.9801 101.56 22.2585 101.832 22.4474C102.104 22.633 102.45 22.7258 102.871 22.7258Z" fill="#0F172A"/>
<path d="M93.3901 19.2158V23.7499H91.9036V13.5681H93.3702V17.3565H93.4646C93.6436 16.9455 93.9171 16.619 94.285 16.3771C94.6529 16.1351 95.1334 16.0141 95.7267 16.0141C96.2504 16.0141 96.7078 16.1219 97.0989 16.3373C97.4933 16.5527 97.7982 16.8742 98.0136 17.3018C98.2324 17.726 98.3418 18.2563 98.3418 18.8927V23.7499H96.8553V19.0717C96.8553 18.5115 96.7111 18.0773 96.4227 17.7691C96.1344 17.4576 95.7333 17.3018 95.2196 17.3018C94.8683 17.3018 94.5534 17.3764 94.275 17.5255C93.9999 17.6746 93.7828 17.8934 93.6237 18.1818C93.468 18.4668 93.3901 18.8115 93.3901 19.2158Z" fill="#0F172A"/>
<path d="M87.1768 23.9041C86.4377 23.9041 85.8014 23.7367 85.2678 23.4019C84.7375 23.0639 84.3298 22.5982 84.0447 22.0049C83.7597 21.4117 83.6172 20.7322 83.6172 19.9666C83.6172 19.191 83.763 18.5066 84.0547 17.9133C84.3464 17.3167 84.7573 16.851 85.2876 16.5163C85.8179 16.1815 86.4427 16.0142 87.1619 16.0142C87.7419 16.0142 88.259 16.1219 88.7131 16.3373C89.1671 16.5494 89.5334 16.8477 89.8118 17.2322C90.0935 17.6167 90.2609 18.0658 90.3139 18.5795H88.8672C88.7876 18.2215 88.6054 17.9133 88.3203 17.6548C88.0386 17.3963 87.6607 17.267 87.1868 17.267C86.7725 17.267 86.4096 17.3764 86.098 17.5951C85.7898 17.8106 85.5495 18.1188 85.3771 18.5198C85.2048 18.9176 85.1186 19.3882 85.1186 19.9318C85.1186 20.4886 85.2031 20.9692 85.3722 21.3735C85.5412 21.7779 85.7798 22.0911 86.0881 22.3132C86.3996 22.5352 86.7659 22.6463 87.1868 22.6463C87.4685 22.6463 87.7237 22.5949 87.9524 22.4921C88.1844 22.3861 88.3783 22.2353 88.5341 22.0397C88.6932 21.8442 88.8042 21.6089 88.8672 21.3338H90.3139C90.2609 21.8276 90.1001 22.2684 89.8317 22.6562C89.5632 23.044 89.2036 23.3489 88.7528 23.571C88.3054 23.793 87.7801 23.9041 87.1768 23.9041Z" fill="#0F172A"/>
<path d="M80.9748 23.8444C80.703 23.8444 80.4693 23.7483 80.2738 23.556C80.0782 23.3605 79.9805 23.1252 79.9805 22.8501C79.9805 22.5783 80.0782 22.3463 80.2738 22.154C80.4693 21.9585 80.703 21.8607 80.9748 21.8607C81.2466 21.8607 81.4802 21.9585 81.6758 22.154C81.8713 22.3463 81.9691 22.5783 81.9691 22.8501C81.9691 23.0324 81.9227 23.1997 81.8299 23.3522C81.7404 23.5013 81.6211 23.6207 81.4719 23.7101C81.3228 23.7996 81.1571 23.8444 80.9748 23.8444Z" fill="#0F172A"/>
<path d="M75.4973 23.7499V16.1135H76.9341V17.3266H77.0136C77.1529 16.9156 77.3981 16.5924 77.7494 16.3571C78.1041 16.1185 78.5051 15.9991 78.9526 15.9991C79.0454 15.9991 79.1547 16.0025 79.2807 16.0091C79.41 16.0157 79.511 16.024 79.584 16.0339V17.4558C79.5243 17.4393 79.4182 17.421 79.2658 17.4011C79.1133 17.3779 78.9609 17.3663 78.8084 17.3663C78.4571 17.3663 78.1439 17.4409 77.8688 17.5901C77.597 17.7359 77.3815 17.9397 77.2225 18.2016C77.0634 18.4601 76.9838 18.7551 76.9838 19.0865V23.7499H75.4973Z" fill="#0F172A"/>
<path d="M70.5717 23.9041C69.8194 23.9041 69.1714 23.7433 68.6278 23.4218C68.0876 23.097 67.67 22.6413 67.375 22.0546C67.0833 21.4647 66.9375 20.7736 66.9375 19.9815C66.9375 19.1993 67.0833 18.5099 67.375 17.9133C67.67 17.3167 68.081 16.851 68.608 16.5163C69.1383 16.1815 69.758 16.0142 70.4673 16.0142C70.8982 16.0142 71.3158 16.0854 71.7202 16.2279C72.1245 16.3705 72.4875 16.5942 72.8089 16.8991C73.1304 17.204 73.384 17.6001 73.5696 18.0873C73.7552 18.5712 73.848 19.1595 73.848 19.8522V20.3792H67.7777V19.2656H72.3913C72.3913 18.8745 72.3118 18.5281 72.1527 18.2265C71.9936 17.9216 71.7699 17.6813 71.4815 17.5056C71.1965 17.33 70.8617 17.2421 70.4773 17.2421C70.0597 17.2421 69.6951 17.3449 69.3835 17.5504C69.0753 17.7526 68.8366 18.0177 68.6676 18.3458C68.5019 18.6706 68.419 19.0236 68.419 19.4048V20.2748C68.419 20.7852 68.5085 21.2194 68.6875 21.5774C68.8698 21.9353 69.1233 22.2088 69.4482 22.3977C69.773 22.5833 70.1525 22.6761 70.5866 22.6761C70.8684 22.6761 71.1252 22.6363 71.3572 22.5568C71.5893 22.4739 71.7898 22.3513 71.9588 22.1889C72.1278 22.0265 72.2571 21.8259 72.3466 21.5873L73.7536 21.8409C73.6409 22.2552 73.4387 22.6181 73.147 22.9296C72.8587 23.2379 72.4957 23.4782 72.0582 23.6505C71.6241 23.8196 71.1286 23.9041 70.5717 23.9041Z" fill="#0F172A"/>
<path d="M61.3755 23.8991C60.7591 23.8991 60.2089 23.7416 59.725 23.4268C59.2444 23.1086 58.8665 22.6562 58.5914 22.0695C58.3197 21.4796 58.1838 20.772 58.1838 19.9467C58.1838 19.1214 58.3213 18.4154 58.5964 17.8288C58.8748 17.2421 59.256 16.793 59.7399 16.4815C60.2238 16.1699 60.7723 16.0141 61.3855 16.0141C61.8594 16.0141 62.2406 16.0937 62.5289 16.2528C62.8206 16.4086 63.046 16.5908 63.2051 16.7996C63.3675 17.0085 63.4934 17.1924 63.5829 17.3515H63.6724V13.5681H65.1589V23.7499H63.7072V22.5617H63.5829C63.4934 22.7241 63.3642 22.9097 63.1951 23.1185C63.0294 23.3273 62.8007 23.5096 62.5091 23.6654C62.2174 23.8212 61.8396 23.8991 61.3755 23.8991ZM61.7037 22.6313C62.1312 22.6313 62.4925 22.5186 62.7875 22.2933C63.0858 22.0646 63.3111 21.748 63.4636 21.3437C63.6194 20.9393 63.6973 20.4687 63.6973 19.9318C63.6973 19.4014 63.621 18.9374 63.4686 18.5397C63.3161 18.142 63.0924 17.8321 62.7974 17.61C62.5024 17.388 62.1378 17.2769 61.7037 17.2769C61.2562 17.2769 60.8834 17.3929 60.5851 17.6249C60.2868 17.8569 60.0614 18.1735 59.9089 18.5745C59.7598 18.9755 59.6852 19.428 59.6852 19.9318C59.6852 20.4422 59.7614 20.9012 59.9139 21.3089C60.0664 21.7166 60.2917 22.0397 60.59 22.2783C60.8916 22.5137 61.2628 22.6313 61.7037 22.6313Z" fill="#0F172A"/>
<path d="M56.517 13.5681V23.7499H55.0305V13.5681H56.517Z" fill="#0F172A"/>
<path d="M49.8116 23.9041C49.0957 23.9041 48.4709 23.74 47.9373 23.4119C47.4037 23.0838 46.9894 22.6247 46.6944 22.0348C46.3994 21.4448 46.252 20.7554 46.252 19.9666C46.252 19.1744 46.3994 18.4817 46.6944 17.8884C46.9894 17.2952 47.4037 16.8345 47.9373 16.5063C48.4709 16.1782 49.0957 16.0142 49.8116 16.0142C50.5275 16.0142 51.1523 16.1782 51.6859 16.5063C52.2195 16.8345 52.6338 17.2952 52.9288 17.8884C53.2238 18.4817 53.3713 19.1744 53.3713 19.9666C53.3713 20.7554 53.2238 21.4448 52.9288 22.0348C52.6338 22.6247 52.2195 23.0838 51.6859 23.4119C51.1523 23.74 50.5275 23.9041 49.8116 23.9041ZM49.8166 22.6562C50.2806 22.6562 50.6651 22.5336 50.97 22.2883C51.2749 22.043 51.5003 21.7166 51.6461 21.3089C51.7953 20.9012 51.8699 20.4521 51.8699 19.9616C51.8699 19.4744 51.7953 19.0269 51.6461 18.6193C51.5003 18.2083 51.2749 17.8785 50.97 17.6299C50.6651 17.3813 50.2806 17.2571 49.8166 17.2571C49.3493 17.2571 48.9615 17.3813 48.6532 17.6299C48.3483 17.8785 48.1213 18.2083 47.9721 18.6193C47.8263 19.0269 47.7534 19.4744 47.7534 19.9616C47.7534 20.4521 47.8263 20.9012 47.9721 21.3089C48.1213 21.7166 48.3483 22.043 48.6532 22.2883C48.9615 22.5336 49.3493 22.6562 49.8166 22.6562Z" fill="#0F172A"/>
<path d="M45.362 16.1135V17.3067H41.0467V16.1135H45.362ZM42.2299 23.7499V15.2286C42.2299 14.7513 42.3343 14.3553 42.5431 14.0404C42.7519 13.7222 43.0287 13.4852 43.3734 13.3295C43.7181 13.1704 44.0926 13.0908 44.497 13.0908C44.7953 13.0908 45.0505 13.1157 45.2626 13.1654C45.4747 13.2118 45.6322 13.2549 45.7349 13.2947L45.3869 14.4978C45.3173 14.4779 45.2278 14.4547 45.1184 14.4282C45.009 14.3983 44.8765 14.3834 44.7207 14.3834C44.3594 14.3834 44.1009 14.4729 43.9451 14.6519C43.7927 14.8309 43.7164 15.0894 43.7164 15.4275V23.7499H42.2299Z" fill="#0F172A"/>
<g opacity="0.25">
<path d="M31.7505 12.7874C31.6901 10.2306 30.6268 7.80012 28.79 6.02053C26.9532 4.24094 24.4903 3.25497 21.9329 3.2755H21.2291H21.2234C20.3956 3.2755 19.5644 3.2755 18.7411 3.2755H16.8591L16.4829 3.0209L16.4057 2.96868C16.2056 2.83373 16.0008 2.6959 15.7873 2.54894L15.7256 2.50694C14.1562 1.44063 12.3108 0.853398 10.4137 0.816772C9.88526 0.823283 9.36339 0.935209 8.87872 1.14597C8.40077 1.35372 7.96689 1.65082 7.60036 2.02131C7.53471 2.08752 7.4745 2.1579 7.41394 2.22774C8.38259 2.22774 9.35342 2.23104 10.2717 2.23431C11.9342 2.24401 13.5561 2.74882 14.9305 3.68435L14.9383 3.68964L14.9714 3.71219L14.975 3.71472L14.9887 3.724L14.9903 3.72511C15.2218 3.8837 15.4592 4.04372 15.6887 4.19795C15.9294 4.3603 16.1739 4.52607 16.4222 4.69521C17.1957 4.69521 17.9727 4.69521 18.7418 4.69521C19.8001 4.69521 20.8737 4.69518 21.9331 4.69645C23.039 4.68635 24.1358 4.89656 25.1596 5.31484C26.1834 5.73312 27.1136 6.35111 27.8961 7.13271C28.6785 7.91431 29.2974 8.84392 29.7168 9.86726C30.1362 10.8906 30.3475 11.9872 30.3386 13.0931C30.3397 14.2691 30.3372 15.4643 30.3346 16.6203C30.3312 18.2248 30.3286 19.8654 30.3346 21.5016C30.4101 21.4355 30.4856 21.3695 30.5565 21.2977C30.9539 20.8944 31.2655 20.4148 31.4724 19.8878C31.6192 19.5155 31.7132 19.1245 31.7518 18.7262C31.7518 18.0205 31.7538 17.3178 31.7554 16.6232V16.5116C31.7554 16.3953 31.7554 16.2771 31.7554 16.16C31.7499 15.0333 31.7492 13.905 31.7505 12.7874Z" fill="#14B8A6"/>
</g>
<path d="M6.16763 32.6832C5.76175 32.6811 5.37178 32.5251 5.0764 32.2467C4.92255 32.101 4.80034 31.9252 4.71736 31.7303C4.63438 31.5353 4.59241 31.3253 4.59407 31.1135V28.187C4.05893 28.1524 3.53501 28.0177 3.04944 27.7901C2.44205 27.496 1.91685 27.0562 1.52063 26.5099C1.00194 25.8265 0.723505 24.9909 0.728584 24.1329C0.728584 22.3493 0.728584 20.5049 0.728584 18.737C0.728584 16.1362 0.728584 13.3452 0.730766 10.5553C0.731094 10.0169 0.840283 9.48414 1.05177 8.98902C1.46517 8.02221 2.23189 7.24958 3.19549 6.82875C3.68938 6.61353 4.22193 6.50115 4.76067 6.49848C5.51962 6.49266 6.33858 6.48975 7.26431 6.48975C8.16093 6.48975 9.05447 6.49247 9.91854 6.4952H9.92181L10.2515 6.49629C11.0779 6.49977 11.8835 6.75486 12.5613 7.2276C12.8214 7.40529 13.0829 7.58206 13.3044 7.73138L13.3273 7.74684C13.7802 8.05238 14.2485 8.36829 14.7052 8.69257C14.9486 8.86964 15.2443 8.96208 15.5453 8.95574H15.554C16.6107 8.95428 17.6932 8.95428 18.7402 8.95428C19.7872 8.95428 20.8697 8.95428 21.9279 8.95574C22.4746 8.94509 23.0179 9.04479 23.5252 9.24887C24.0326 9.45296 24.4936 9.75723 24.8806 10.1435C25.2677 10.5298 25.573 10.9902 25.7781 11.4971C25.9832 12.004 26.084 12.5471 26.0745 13.0939C26.0762 14.3255 26.0736 15.5615 26.0707 16.6082V16.8424V16.844C26.0662 19.1798 26.0612 21.5951 26.0889 23.967C26.0925 24.5148 25.9905 25.0582 25.7886 25.5675C25.5812 26.0944 25.2695 26.5741 24.8722 26.9775C24.4984 27.357 24.053 27.6585 23.5618 27.8643C23.0188 28.0888 22.4365 28.2027 21.8489 28.1992C20.8315 28.2012 19.7121 28.2021 18.2193 28.2021C17.4262 28.2021 16.6061 28.2021 15.799 28.2021H12.6373L7.10317 32.3633C6.83469 32.5694 6.50607 32.6817 6.16763 32.6832ZM5.63802 20.6393C5.39693 20.6396 5.1658 20.7355 4.99532 20.906C4.82485 21.0765 4.72895 21.3076 4.72866 21.5487V23.3674C4.72895 23.6085 4.82485 23.8396 4.99532 24.0101C5.1658 24.1806 5.39693 24.2765 5.63802 24.2768H15.0953C15.3364 24.2765 15.5675 24.1806 15.738 24.0101C15.9085 23.8396 16.0044 23.6085 16.0047 23.3674V21.5487C16.0044 21.3076 15.9085 21.0765 15.738 20.906C15.5675 20.7355 15.3364 20.6396 15.0953 20.6393H5.63802ZM5.63802 13.8939C5.39693 13.8942 5.1658 13.9901 4.99532 14.1606C4.82485 14.331 4.72895 14.5622 4.72866 14.8033V16.622C4.72895 16.8631 4.82485 17.0942 4.99532 17.2647C5.1658 17.4351 5.39693 17.531 5.63802 17.5313H20.5515C20.7925 17.531 21.0237 17.4351 21.1941 17.2647C21.3646 17.0942 21.4605 16.8631 21.4608 16.622V14.8033C21.4605 14.5622 21.3646 14.331 21.1941 14.1606C21.0237 13.9901 20.7925 13.8942 20.5515 13.8939H5.63802Z" fill="#14B8A6"/>
<g opacity="0.6">
<path d="M28.9111 20.9065C28.8861 18.5273 28.8907 16.1115 28.896 13.7723C28.896 13.3862 28.8976 12.995 28.8981 12.6023C28.7934 10.8465 28.0215 9.19709 26.7404 7.99178C25.4593 6.78647 23.766 6.11643 22.007 6.11881H21.5651C20.5079 6.11881 19.4359 6.11878 18.3787 6.12005H18.3703C18.3496 6.12005 18.3311 6.11678 18.3107 6.11605C17.535 6.11605 16.7548 6.11605 15.9793 6.11605C15.6124 5.86143 15.2487 5.61557 14.8939 5.37622C14.662 5.21982 14.4226 5.0585 14.1889 4.89846L14.1877 4.89735L14.162 4.87914L14.16 4.87772L14.1524 4.87262L14.1502 4.87097C13.0054 4.08628 11.6519 3.6622 10.264 3.65333L9.35317 3.65027C8.72444 3.65154 8.13953 3.65391 7.58428 3.65773C7.04586 3.66089 6.51372 3.77347 6.02019 3.9887C5.54219 4.19629 5.10829 4.49335 4.74183 4.86387C4.67254 4.93389 4.60852 5.00795 4.54486 5.08215C4.61324 5.07906 4.6818 5.07612 4.75073 5.07558C5.52332 5.07012 6.34573 5.06741 7.26509 5.06741C8.27957 5.06741 9.2995 5.07048 10.2585 5.07393C11.3654 5.07718 12.4451 5.41664 13.3547 6.04732L13.3562 6.04843L13.3652 6.05478L13.3672 6.05607L13.3743 6.06113C13.6146 6.22481 13.8608 6.39178 14.0998 6.5531C14.5638 6.8661 15.0434 7.18965 15.5184 7.52702L15.5301 7.53483C15.5357 7.53483 15.5433 7.53483 15.553 7.53483C16.6104 7.53483 17.6827 7.53355 18.7403 7.53355C19.7979 7.53355 20.8707 7.53356 21.929 7.53483C22.6622 7.52445 23.3899 7.66107 24.0694 7.93659C24.7489 8.2121 25.3663 8.62094 25.8852 9.139C26.404 9.65705 26.8139 10.2738 27.0905 10.9529C27.367 11.6319 27.5048 12.3595 27.4955 13.0927C27.4966 14.2657 27.4941 15.4581 27.4915 16.6109C27.4863 19.0176 27.481 21.5067 27.5085 23.9502C27.5099 24.0733 27.5054 24.197 27.4985 24.3208C27.5654 24.2614 27.6332 24.203 27.6965 24.139C28.0939 23.7357 28.4054 23.2562 28.6124 22.7292C28.8108 22.2284 28.9122 21.6944 28.9112 21.1557C28.9112 21.0736 28.9112 20.9906 28.9111 20.9065Z" fill="#14B8A6"/>
</g>
</svg>
