<svg width="20" height="20" viewBox="0 0 20 20" fill="none" xmlns="http://www.w3.org/2000/svg">
<path d="M10 10.8333C10.4603 10.8333 10.8334 10.4602 10.8334 9.99996C10.8334 9.53972 10.4603 9.16663 10 9.16663C9.53978 9.16663 9.16669 9.53972 9.16669 9.99996C9.16669 10.4602 9.53978 10.8333 10 10.8333Z" fill="#94A3B8" stroke="#94A3B8" stroke-linecap="round" stroke-linejoin="round"/>
<path d="M15.8333 10.8333C16.2936 10.8333 16.6667 10.4602 16.6667 9.99996C16.6667 9.53972 16.2936 9.16663 15.8333 9.16663C15.3731 9.16663 15 9.53972 15 9.99996C15 10.4602 15.3731 10.8333 15.8333 10.8333Z" fill="#94A3B8" stroke="#94A3B8" stroke-linecap="round" stroke-linejoin="round"/>
<path d="M4.16665 10.8333C4.62688 10.8333 4.99998 10.4602 4.99998 9.99996C4.99998 9.53972 4.62688 9.16663 4.16665 9.16663C3.70641 9.16663 3.33331 9.53972 3.33331 9.99996C3.33331 10.4602 3.70641 10.8333 4.16665 10.8333Z" fill="#94A3B8" stroke="#94A3B8" stroke-linecap="round" stroke-linejoin="round"/>
</svg>
