<svg width="21" height="20" viewBox="0 0 21 20" fill="none" xmlns="http://www.w3.org/2000/svg">
<g opacity="0.5">
<path d="M2.10815 2.5H7.10815C7.99221 2.5 8.84006 2.85119 9.46518 3.47631C10.0903 4.10143 10.4415 4.94928 10.4415 5.83333V17.5C10.4415 16.837 10.1781 16.2011 9.70925 15.7322C9.24041 15.2634 8.60453 15 7.94149 15H2.10815V2.5Z" stroke="#334155" stroke-width="2" stroke-linecap="round" stroke-linejoin="round"/>
<path d="M18.7749 2.5H13.7749C12.8908 2.5 12.043 2.85119 11.4178 3.47631C10.7927 4.10143 10.4415 4.94928 10.4415 5.83333V17.5C10.4415 16.837 10.7049 16.2011 11.1738 15.7322C11.6426 15.2634 12.2785 15 12.9415 15H18.7749V2.5Z" stroke="#334155" stroke-width="2" stroke-linecap="round" stroke-linejoin="round"/>
</g>
</svg>
