<svg width="21" height="20" viewBox="0 0 21 20" fill="none" xmlns="http://www.w3.org/2000/svg">
<g opacity="0.5">
<path d="M15.8434 6.66663C17.2241 6.66663 18.3434 5.54734 18.3434 4.16663C18.3434 2.78591 17.2241 1.66663 15.8434 1.66663C14.4627 1.66663 13.3434 2.78591 13.3434 4.16663C13.3434 5.54734 14.4627 6.66663 15.8434 6.66663Z" stroke="#334155" stroke-width="2" stroke-linecap="round" stroke-linejoin="round"/>
<path d="M5.84338 12.5C7.2241 12.5 8.34338 11.3807 8.34338 10C8.34338 8.61929 7.2241 7.5 5.84338 7.5C4.46267 7.5 3.34338 8.61929 3.34338 10C3.34338 11.3807 4.46267 12.5 5.84338 12.5Z" stroke="#334155" stroke-width="2" stroke-linecap="round" stroke-linejoin="round"/>
<path d="M15.8434 18.3334C17.2241 18.3334 18.3434 17.2141 18.3434 15.8334C18.3434 14.4527 17.2241 13.3334 15.8434 13.3334C14.4627 13.3334 13.3434 14.4527 13.3434 15.8334C13.3434 17.2141 14.4627 18.3334 15.8434 18.3334Z" stroke="#334155" stroke-width="2" stroke-linecap="round" stroke-linejoin="round"/>
<path d="M8.00171 11.2583L13.6934 14.575" stroke="#334155" stroke-width="2" stroke-linecap="round" stroke-linejoin="round"/>
<path d="M13.685 5.42505L8.00171 8.74172" stroke="#334155" stroke-width="2" stroke-linecap="round" stroke-linejoin="round"/>
</g>
</svg>
