<svg width="20" height="20" viewBox="0 0 20 20" fill="none" xmlns="http://www.w3.org/2000/svg">
<g opacity="0.5">
<path d="M8.33057 1.66663H11.6639" stroke="#0F172A" stroke-width="2" stroke-linecap="round" stroke-linejoin="round"/>
<path d="M9.99731 11.6667V8.33337" stroke="#0F172A" stroke-width="2" stroke-linecap="round" stroke-linejoin="round"/>
<path d="M3.33057 10.8333C3.53462 9.21327 4.32611 7.72447 5.55494 6.64924C6.78376 5.57402 8.36446 4.98716 9.99723 4.99996C11.0756 5.00111 12.1376 5.26383 13.0921 5.76559C14.0467 6.26736 14.8652 6.99319 15.4776 7.88081C16.09 8.76844 16.4779 9.79137 16.6081 10.8619C16.7382 11.9323 16.6068 13.0184 16.225 14.027C15.8432 15.0355 15.2224 15.9363 14.416 16.6522C13.6095 17.3681 12.6415 17.8777 11.5948 18.1373C10.5481 18.3969 9.4541 18.3986 8.40659 18.1425C7.35908 17.8863 6.38935 17.3799 5.58057 16.6666L3.33057 14.6666" stroke="#0F172A" stroke-width="2" stroke-linecap="round" stroke-linejoin="round"/>
<path d="M7.49723 14.1666H3.33057V18.3333" stroke="#0F172A" stroke-width="2" stroke-linecap="round" stroke-linejoin="round"/>
</g>
</svg>
