<svg width="159" height="159" viewBox="0 0 159 159" fill="none" xmlns="http://www.w3.org/2000/svg">
<mask id="mask0_242_5307" style="mask-type:luminance" maskUnits="userSpaceOnUse" x="0" y="0" width="159" height="158">
<path d="M120.571 148.503C87.2803 167.845 46.6746 153.714 24.4505 131.499C-4.66628 102.395 -7.07576 54.5693 13.4854 26.2172C22.0347 14.4289 39.883 -1.9026 58.9393 0.298326C75.0915 2.16429 77.2458 15.5918 104.138 36.6317C134.63 60.4879 147.808 55.7014 154.923 70.7523C165.528 93.1802 149.461 131.719 120.571 148.503H120.571Z" fill="white"/>
</mask>
<g mask="url(#mask0_242_5307)">
<path d="M159.931 80.0963L104.079 115.675C102.448 116.714 101.968 118.879 103.007 120.511L121.196 149.064C122.235 150.695 124.4 151.175 126.032 150.136L159.931 128.54V80.0963Z" fill="white"/>
<path d="M124.155 150.872C122.935 150.872 121.739 150.268 121.036 149.165L102.847 120.612C101.753 118.895 102.261 116.608 103.977 115.515L159.829 79.936C159.888 79.8989 159.962 79.8965 160.022 79.9297C160.083 79.9629 160.12 80.0268 160.12 80.0956V128.54C160.12 128.604 160.087 128.664 160.032 128.699L126.133 150.294C125.52 150.685 124.833 150.871 124.155 150.871V150.872ZM159.741 80.4416L104.181 115.835C102.641 116.816 102.186 118.868 103.167 120.409L121.356 148.962C122.337 150.502 124.388 150.957 125.93 149.976L159.741 128.437V80.4424V80.4416Z" fill="#134E4A"/>
<path d="M106.565 121.098C106.502 121.098 106.441 121.067 106.405 121.01C106.349 120.922 106.374 120.805 106.463 120.749C109.281 118.95 112.103 117.141 114.927 115.332C121.654 111.021 128.61 106.563 135.487 102.26C135.576 102.204 135.692 102.231 135.749 102.32C135.804 102.408 135.777 102.525 135.689 102.581C128.814 106.883 121.859 111.341 115.133 115.651C112.308 117.461 109.486 119.27 106.667 121.069C106.636 121.088 106.6 121.099 106.565 121.099L106.565 121.098Z" fill="#134E4A"/>
<path d="M107.839 116.476C108.105 116.893 107.982 117.449 107.564 117.715C107.146 117.981 106.591 117.858 106.325 117.44C106.058 117.022 106.181 116.467 106.599 116.201C107.017 115.934 107.573 116.058 107.839 116.476Z" fill="#134E4A"/>
<path d="M110.869 114.546C111.136 114.964 111.012 115.519 110.594 115.785C110.176 116.051 109.621 115.929 109.355 115.51C109.089 115.092 109.212 114.537 109.63 114.271C110.048 114.004 110.603 114.128 110.869 114.546Z" fill="#134E4A"/>
<path d="M113.898 112.616C114.164 113.034 114.041 113.589 113.623 113.855C113.205 114.121 112.65 113.999 112.384 113.58C112.117 113.162 112.241 112.607 112.659 112.341C113.077 112.075 113.632 112.197 113.898 112.616Z" fill="#134E4A"/>
<path d="M124.123 106.293C124.057 106.293 123.994 106.259 123.959 106.199C123.906 106.108 123.936 105.992 124.027 105.939C126.189 104.681 128.26 103.312 130.263 101.987C131.971 100.858 133.736 99.6906 135.53 98.6115C135.619 98.5577 135.736 98.5862 135.79 98.6762C135.844 98.7663 135.815 98.8824 135.725 98.9361C133.939 100.011 132.176 101.176 130.472 102.303C128.465 103.63 126.389 105.003 124.218 106.267C124.188 106.284 124.155 106.293 124.123 106.293Z" fill="#134E4A"/>
<path d="M115.717 111.648C115.654 111.648 115.593 111.617 115.556 111.56C115.5 111.472 115.526 111.355 115.615 111.299L119.377 108.903C119.464 108.847 119.582 108.873 119.638 108.96C119.694 109.049 119.668 109.166 119.58 109.222L115.818 111.618C115.786 111.638 115.751 111.648 115.716 111.648H115.717Z" fill="#134E4A"/>
<path d="M123.921 143.659C123.907 143.659 123.893 143.658 123.88 143.654C123.831 143.643 123.788 143.613 123.761 143.571L111.392 124.154C111.336 124.066 111.362 123.949 111.451 123.893L130.868 111.523C130.91 111.496 130.961 111.487 131.011 111.498C131.06 111.509 131.102 111.539 131.129 111.581L143.498 130.998C143.554 131.086 143.528 131.203 143.44 131.259L124.023 143.629C123.992 143.649 123.956 143.659 123.921 143.659ZM111.813 124.11L123.978 143.207L143.076 131.041L130.91 111.944L111.813 124.11Z" fill="#134E4A"/>
<path d="M138.779 106.701L134.539 109.402L137.241 113.643L141.481 110.942L138.779 106.701Z" fill="#134E4A"/>
<path d="M159.933 93.2307L141.68 104.859L144.382 109.099L159.933 99.1928V93.2307Z" fill="#134E4A"/>
<path d="M143.613 114.288L139.373 116.989L142.075 121.229L146.315 118.528L143.613 114.288Z" fill="#134E4A"/>
<path d="M159.933 103.899L146.514 112.447L149.216 116.687L159.933 109.86V103.899Z" fill="#134E4A"/>
<path d="M148.448 121.877L144.208 124.578L146.909 128.818L151.149 126.117L148.448 121.877Z" fill="#134E4A"/>
<path d="M159.933 114.567L151.349 120.035L154.05 124.276L159.933 120.528V114.567Z" fill="white"/>
</g>
<path d="M42.7478 142.946L42.3094 141.344L40.4972 141.426C40.3289 141.074 40.1345 140.739 39.9149 140.426L40.874 138.889L39.6929 137.722L38.1643 138.699C37.8459 138.481 37.5102 138.289 37.1602 138.126L37.2226 136.313L35.6158 135.892L34.7823 137.501C34.4016 137.47 34.0145 137.474 33.625 137.509L32.7726 135.908L31.1705 136.346L31.2527 138.159C30.9003 138.327 30.5654 138.521 30.2525 138.741L28.716 137.782L27.5484 138.963L28.5256 140.491C28.3076 140.81 28.1156 141.146 27.9528 141.496L26.1398 141.433L25.7188 143.04L27.3272 143.873C27.2972 144.254 27.3003 144.641 27.3359 145.031L25.7345 145.883L26.173 147.485L27.9852 147.403C28.1535 147.755 28.3478 148.09 28.5675 148.403L27.6084 149.94L28.7895 151.107L30.3181 150.13C30.6365 150.348 30.9722 150.54 31.3222 150.703L31.2598 152.516L32.8666 152.937L33.7001 151.329C34.0808 151.359 34.4679 151.355 34.8574 151.32L35.7098 152.921L37.3119 152.483L37.2297 150.67C37.5829 150.502 37.917 150.308 38.2299 150.088L39.7664 151.047L40.934 149.866L39.9568 148.338C40.1748 148.019 40.3668 147.684 40.5295 147.334L42.3426 147.396L42.7637 145.789L41.1552 144.956C41.1852 144.575 41.1821 144.188 41.1465 143.798L42.7478 142.946ZM35.3709 148.538C33.0933 149.161 30.7415 147.82 30.1182 145.543C29.4949 143.265 30.8355 140.913 33.1131 140.29C35.3906 139.667 37.7424 141.007 38.3658 143.285C38.9891 145.562 37.6484 147.914 35.3717 148.538H35.3709Z" fill="#134E4A"/>
<path d="M69.3051 126.354L68.5546 123.612L65.4539 123.753C65.1663 123.149 64.8338 122.578 64.4577 122.042L66.0993 119.412L64.0785 117.413L61.4628 119.086C60.9185 118.712 60.3434 118.385 59.7446 118.106L59.852 115.003L57.1029 114.283L55.6761 117.035C55.0236 116.984 54.3616 116.989 53.6964 117.049L52.2381 114.309L49.4968 115.06L49.6374 118.161C49.0339 118.448 48.4619 118.781 47.9263 119.157L45.2964 117.515L43.2977 119.536L44.9702 122.152C44.5965 122.696 44.2694 123.271 43.9906 123.87L40.8875 123.763L40.167 126.512L42.9193 127.939C42.868 128.592 42.8735 129.254 42.9336 129.919L40.1939 131.377L40.9443 134.119L44.0451 133.978C44.3326 134.581 44.6652 135.153 45.0413 135.689L43.3996 138.319L45.4204 140.318L48.0361 138.645C48.5804 139.019 49.1555 139.346 49.7544 139.625L49.6477 142.728L52.3969 143.448L53.8236 140.696C54.4761 140.747 55.1382 140.742 55.8033 140.682L57.2617 143.422L60.0029 142.671L59.8623 139.57C60.4659 139.283 61.0378 138.95 61.5734 138.574L64.2033 140.216L66.202 138.195L64.5288 135.579C64.9025 135.035 65.2295 134.46 65.5084 133.861L68.6115 133.968L69.332 131.218L66.5796 129.792C66.631 129.139 66.6255 128.477 66.5654 127.812L69.3051 126.354ZM56.6818 135.922C52.7848 136.989 48.7605 134.695 47.6933 130.798C46.626 126.901 48.9201 122.877 52.8172 121.81C56.7142 120.742 60.7384 123.037 61.8057 126.934C62.873 130.831 60.5788 134.855 56.6818 135.922Z" fill="#134E4A"/>
<path d="M1.56392 67.7416L34.0982 130.809C30.9248 124.658 39.1992 113.544 54.3078 101.819C56.1193 100.413 56.6628 97.9099 55.6113 95.8717L27.531 41.4388C26.1548 38.771 22.6789 38.015 20.331 39.8857C6.14194 51.1889 -1.50757 61.7898 1.56313 67.7424L1.56392 67.7416Z" fill="white"/>
<path d="M34.0981 130.998C34.0294 130.998 33.963 130.961 33.9291 130.895L1.39475 67.8277C-0.120453 64.8913 0.890739 60.7012 4.31852 55.7116C7.60726 50.9234 13.104 45.399 20.2132 39.7356C21.3729 38.8113 22.8715 38.4597 24.3251 38.771C25.785 39.0838 27.015 40.0239 27.6992 41.3503L55.7795 95.7832C56.8752 97.9067 56.3048 100.507 54.4231 101.967C46.8857 107.816 41.0343 113.537 37.5006 118.511C33.8903 123.594 32.7709 127.814 34.2624 130.714L34.2656 130.72C34.3138 130.813 34.2774 130.928 34.1842 130.975C34.1566 130.989 34.1266 130.996 34.0973 130.996L34.0981 130.998ZM1.73208 67.6539L33.301 128.849C32.4857 122.562 40.0389 112.651 54.1916 101.668C55.9288 100.32 56.4549 97.9186 55.443 95.9578L27.3626 41.5249C26.7306 40.2996 25.5946 39.4314 24.2461 39.1423C22.9047 38.8547 21.5206 39.1794 20.4494 40.0326C5.81951 51.6874 -1.17746 62.0134 1.73208 67.6539Z" fill="#134E4A"/>
<path d="M1.05196 71.2642L33.5863 134.332C30.4129 128.181 38.6872 117.066 53.7959 105.341C55.6073 103.935 56.1508 101.432 55.0994 99.3943L27.019 44.9614C25.6429 42.2936 22.1669 41.5375 19.819 43.4082C5.62997 54.7115 -2.01954 65.3124 1.05196 71.265V71.2642Z" fill="white"/>
<path d="M33.5866 134.521C33.5179 134.521 33.4516 134.483 33.4176 134.418L0.88328 71.3503C-0.631928 68.4139 0.379265 64.2238 3.80705 59.2342C7.09579 54.446 12.5918 48.9216 19.7017 43.2581C20.8614 42.3339 22.3608 41.9823 23.8136 42.2936C25.2735 42.6064 26.5036 43.5465 27.1877 44.8729L55.268 99.3058C56.3637 101.429 55.7934 104.03 53.9116 105.489C46.3743 111.338 40.5228 117.059 36.9891 122.034C33.3765 127.121 32.2579 131.342 33.7541 134.242C33.8023 134.336 33.766 134.45 33.6728 134.498C33.6451 134.512 33.6151 134.519 33.5859 134.519L33.5866 134.521ZM1.22061 71.1765L32.7895 132.372C31.9743 126.085 39.5274 116.174 53.6801 105.19C55.4173 103.843 55.9435 101.441 54.9315 99.4804L26.8512 45.0475C26.2192 43.8222 25.0832 42.954 23.7346 42.6649C22.3932 42.3773 21.0092 42.702 19.9379 43.5552C5.30803 55.21 -1.68894 65.536 1.22061 71.1765Z" fill="#134E4A"/>
<path d="M75.7569 14.5878L103.884 69.1116C104.99 71.2556 107.523 72.236 109.784 71.3954C132.973 62.7703 151.509 61.071 155.245 68.3129L122.711 5.24531C119.035 -1.87964 101.032 -0.349421 78.367 7.91628C75.666 8.9014 74.4392 12.0321 75.7577 14.5878H75.7569Z" fill="white"/>
<path d="M108.126 71.8836C106.316 71.8836 104.587 70.8882 103.715 69.1976L75.5885 14.6739C74.9359 13.4091 74.8585 11.9223 75.3767 10.5967C75.8958 9.26872 76.9615 8.22672 78.3013 7.73771C89.6132 3.61236 99.7607 1.15075 107.646 0.61908C115.795 0.0700342 121.064 1.63896 122.878 5.15759L155.413 68.2251C155.461 68.3184 155.424 68.4329 155.331 68.4803C155.238 68.5285 155.123 68.4922 155.076 68.3989C153.306 64.968 148.03 63.4797 139.824 64.0927C131.749 64.6962 121.384 67.2827 109.85 71.5724C109.284 71.7833 108.701 71.8836 108.127 71.8836H108.126ZM75.925 14.5008L104.052 69.0246C105.113 71.0818 107.549 72.0242 109.718 71.2176C131.671 63.0523 148.52 61.3561 154.112 66.5314L122.542 5.33297C119.027 -1.47993 101.713 -0.395274 78.4316 8.09558C77.1937 8.54666 76.2094 9.50967 75.7299 10.7357C75.2511 11.9602 75.3222 13.3332 75.925 14.5016V14.5008Z" fill="#134E4A"/>
<path d="M75.2464 18.1102L103.373 72.634C104.479 74.7781 107.013 75.7584 109.274 74.9179C132.462 66.2927 150.999 64.5935 154.735 71.8353L122.2 8.76777C118.525 1.64282 100.521 3.17304 77.8565 11.4387C75.1555 12.4239 73.9287 15.5546 75.2472 18.1102H75.2464Z" fill="white"/>
<path d="M107.615 75.4069C105.806 75.4069 104.077 74.4115 103.205 72.7209L75.078 18.1972C74.4254 16.9324 74.348 15.4464 74.8662 14.12C75.3853 12.792 76.451 11.75 77.7908 11.261C89.1027 7.13568 99.2502 4.67406 107.136 4.1424C115.288 3.59335 120.553 5.16228 122.368 8.68091L154.902 71.7485C154.95 71.8417 154.914 71.9562 154.821 72.0036C154.727 72.0518 154.614 72.0155 154.566 71.9223C152.796 68.4913 147.521 67.0022 139.313 67.616C131.239 68.2196 120.874 70.806 109.34 75.0957C108.774 75.3066 108.191 75.4069 107.616 75.4069H107.615ZM75.4145 18.0242L103.541 72.5479C104.602 74.6051 107.038 75.5475 109.207 74.741C131.16 66.5756 148.009 64.8795 153.602 70.0547L122.031 8.85549C118.517 2.04259 101.202 3.12725 77.9211 11.6181C76.6832 12.0692 75.6989 13.0322 75.2194 14.2583C74.7406 15.4828 74.8117 16.8558 75.4145 18.0242Z" fill="#134E4A"/>
<path d="M108.436 38.8003C107.774 39.0207 107.09 39.2198 106.384 39.3912C101.88 40.4822 100.962 39.3936 89.1821 38.9836C74.794 38.4819 69.926 39.8889 66.5346 41.3733C64.6007 42.2202 63.0697 43.1263 60.3845 44.7158C51.2514 50.1217 48.913 53.5289 46.5359 52.7595C45.9908 52.5833 45.4449 52.1852 44.9519 51.422C41.2974 54.1767 37.1334 53.5669 34.8542 52.9001C34.8558 53.416 34.8772 53.9405 34.9238 54.4746C35.0596 56.0198 35.2982 58.7255 36.9612 61.007C40.5406 65.9176 49.3704 67.0086 58.7997 63.7957C58.2033 65.0889 53.3914 75.9734 59.062 86.0972C64.9198 96.5559 77.7375 98.6557 86.1612 97.2195C99.9007 94.878 110.884 81.6077 109.008 73.7093C108.685 72.3505 107.262 70.3866 104.431 66.5148C101.082 61.9368 98.0514 58.3692 95.9128 55.9692C98.2141 55.8286 106.161 55.0607 113.085 48.6831C113.714 48.104 114.294 47.5131 114.834 46.9167C110.893 45.5974 109.167 41.5337 108.436 38.8003Z" fill="white"/>
<path d="M81.2535 97.8128C77.9608 97.8128 74.6081 97.2985 71.5911 96.2984C65.9434 94.4277 61.5542 90.932 58.8983 86.1897C53.644 76.8085 57.2614 66.8593 58.4519 64.1117C49.0407 67.2022 40.3792 66.0164 36.8093 61.1184C35.1155 58.7943 34.8777 56.1004 34.7363 54.4912C34.6913 53.9753 34.6676 53.4405 34.666 52.9009C34.666 52.8409 34.6937 52.7848 34.7419 52.7492C34.79 52.7129 34.8517 52.7018 34.9093 52.7192C37.0644 53.3496 41.2198 53.9998 44.8396 51.2719C44.8814 51.2403 44.9351 51.2277 44.9865 51.2364C45.0386 51.2459 45.0844 51.2759 45.1129 51.3201C45.5355 51.9742 46.0348 52.3985 46.5965 52.5802C47.9103 53.0052 49.2817 52.0153 52.0143 50.0427C53.9276 48.661 56.5488 46.7682 60.2902 44.5538C63.0149 42.9415 64.5159 42.0527 66.4609 41.2011C69.7338 39.7681 74.4596 38.2813 89.1906 38.7956C93.9108 38.9599 96.8827 39.2332 99.0521 39.4323C102.318 39.7317 103.67 39.8565 106.341 39.2087C107.011 39.046 107.696 38.8493 108.376 38.6226C108.426 38.606 108.48 38.6107 108.526 38.6352C108.572 38.6597 108.606 38.7024 108.62 38.7529C109.407 41.7012 111.136 45.4797 114.895 46.7382C114.955 46.7587 115.001 46.8077 115.018 46.8701C115.034 46.9317 115.018 46.9981 114.975 47.0455C114.41 47.6696 113.818 48.2676 113.214 48.8238C107.074 54.4809 100.138 55.8428 96.3124 56.1336C99.1998 59.3915 101.981 62.8453 104.585 66.4043C107.547 70.453 108.869 72.3008 109.194 73.6667C109.892 76.6055 108.887 80.3271 106.362 84.1444C101.913 90.8712 93.9969 96.0772 86.1957 97.4068C84.5999 97.6785 82.9346 97.8128 81.2551 97.8128H81.2535ZM58.8011 63.6061C58.854 63.6061 58.9054 63.6282 58.9417 63.6685C58.9923 63.7246 59.0049 63.806 58.9733 63.8747C58.0577 65.8592 53.7665 76.2523 59.2293 86.004C64.7142 95.7968 77.0199 98.5855 86.1309 97.0323C93.8342 95.7194 101.65 90.5781 106.045 83.9342C108.511 80.2047 109.499 76.5897 108.825 73.7536C108.504 72.4043 107.003 70.3527 104.279 66.627C101.605 62.9725 98.7432 59.4294 95.7728 56.0956C95.7246 56.0411 95.7112 55.9645 95.7388 55.8974C95.7665 55.8302 95.8305 55.7844 95.9024 55.7804C99.5814 55.5561 106.69 54.3174 112.957 48.5441C113.484 48.0582 114.003 47.54 114.501 47.0004C110.852 45.633 109.121 41.9792 108.305 39.0436C107.677 39.2475 107.047 39.4268 106.429 39.5761C103.697 40.2381 102.231 40.103 99.0165 39.8083C96.8511 39.6093 93.8863 39.3375 89.1764 39.1732C74.5259 38.6621 69.8468 40.1307 66.6118 41.5471C64.6881 42.3893 63.1943 43.274 60.4822 44.8785C56.7558 47.0842 54.1433 48.9707 52.2355 50.3484C49.3994 52.3961 47.9758 53.4239 46.4796 52.9396C45.8839 52.7469 45.3554 52.3274 44.9075 51.6914C41.328 54.2842 37.2975 53.766 35.0484 53.1505C35.0555 53.5937 35.0776 54.0322 35.1147 54.4572C35.253 56.0277 35.4845 58.656 37.1166 60.8949C40.6399 65.7288 49.3307 66.8222 58.7411 63.6156C58.7608 63.6085 58.7822 63.6053 58.8019 63.6053L58.8011 63.6061Z" fill="#134E4A"/>
<path d="M126.003 28.9839L124.772 29.7699L126.654 26.384C126.746 26.2189 126.752 26.0206 126.671 25.85C126.487 25.4621 125.962 25.3981 125.691 25.7307L123.191 28.7959L124.912 24.4699C125.053 24.1136 124.919 23.7075 124.593 23.5069C124.181 23.2533 123.64 23.4263 123.452 23.8718L121.807 27.7752L122.376 24.3719C122.444 23.9667 122.142 23.5709 121.732 23.574C121.476 23.5764 121.229 23.7241 121.132 24.2242C120.899 25.425 119.682 30.2281 119.682 30.2281C119.682 30.2281 119.153 30.0385 118.47 29.1142C117.788 28.19 117.51 28.7011 117.51 28.7011C117.093 30.1112 118.104 31.6517 118.841 32.5373C116.347 34.8077 112.888 37.316 108.437 38.7996C109.167 41.5329 110.894 45.5967 114.835 46.916C119.149 42.1491 120.738 37.0118 121.333 34.4246C123.071 33.7096 126.014 30.4944 126.668 29.7636C126.754 29.6688 126.799 29.5464 126.799 29.4192C126.799 29.01 126.347 28.7627 126.002 28.9823L126.003 28.9839Z" fill="white"/>
<path d="M114.835 47.1063C114.814 47.1063 114.795 47.1031 114.775 47.0968C110.856 45.7846 109.066 41.8876 108.254 38.8501C108.228 38.7529 108.282 38.6534 108.377 38.621C111.99 37.417 115.423 35.3638 118.58 32.5191C117.756 31.4905 116.921 30.0282 117.328 28.6481C117.332 28.6355 117.337 28.6228 117.343 28.611C117.355 28.5881 117.471 28.3898 117.725 28.3724C118.005 28.3534 118.297 28.5596 118.624 29.0028C119.02 29.5384 119.359 29.8141 119.558 29.9453C119.806 28.9625 120.747 25.2179 120.946 24.1894C121.081 23.495 121.495 23.3875 121.731 23.3859C121.733 23.3859 121.736 23.3859 121.738 23.3859C121.977 23.3859 122.204 23.4926 122.363 23.6782C122.534 23.8789 122.608 24.1436 122.564 24.4043L122.263 26.2102L123.278 23.7983C123.39 23.5353 123.609 23.3338 123.881 23.2469C124.154 23.1592 124.449 23.1956 124.693 23.3457C125.098 23.5953 125.265 24.0977 125.088 24.5401L123.823 27.7222L125.544 25.6114C125.713 25.4044 125.973 25.3001 126.237 25.3325C126.502 25.3649 126.728 25.5276 126.843 25.7694C126.95 25.9945 126.941 26.2592 126.82 26.4764L125.303 29.2066L125.902 28.8243C126.123 28.6829 126.393 28.6742 126.623 28.7998C126.853 28.9262 126.99 29.1576 126.99 29.4207C126.99 29.5953 126.926 29.762 126.811 29.8915C125.998 30.7992 123.246 33.7791 121.496 34.562C120.732 37.831 118.982 42.6176 114.976 47.0439C114.939 47.0842 114.888 47.1063 114.835 47.1063ZM108.667 38.9228C109.467 41.8133 111.172 45.4244 114.778 46.6963C118.708 42.3142 120.412 37.5869 121.149 34.3827C121.163 34.3226 121.205 34.2729 121.262 34.2499C122.974 33.5461 125.949 30.285 126.528 29.638C126.582 29.5779 126.611 29.5005 126.611 29.4199C126.611 29.2983 126.547 29.1908 126.441 29.1316C126.333 29.0731 126.209 29.0771 126.106 29.1426L124.875 29.9287C124.802 29.9753 124.707 29.9666 124.643 29.9073C124.58 29.8481 124.565 29.7533 124.607 29.6775L126.488 26.2915C126.55 26.1802 126.555 26.0459 126.5 25.9305C126.441 25.8057 126.329 25.7243 126.191 25.7077C126.053 25.6911 125.925 25.7433 125.838 25.8499L123.339 28.9151C123.279 28.9878 123.176 29.006 123.095 28.9586C123.015 28.9112 122.981 28.8116 123.015 28.7247L124.736 24.3987C124.843 24.1278 124.742 23.8204 124.493 23.6672C124.344 23.5755 124.163 23.5534 123.997 23.6071C123.83 23.6609 123.696 23.7833 123.628 23.9453L121.983 27.8486C121.946 27.9371 121.849 27.9845 121.755 27.9569C121.663 27.93 121.605 27.8384 121.621 27.7436L122.19 24.3403C122.214 24.1925 122.171 24.0369 122.074 23.9231C121.984 23.8189 121.856 23.762 121.733 23.7636C121.646 23.7636 121.414 23.7659 121.318 24.2605C121.086 25.4526 119.915 30.0788 119.865 30.2747C119.851 30.3268 119.818 30.3703 119.77 30.3956C119.723 30.4208 119.667 30.4248 119.617 30.4066C119.593 30.3979 119.026 30.1862 118.317 29.2264C117.981 28.7698 117.794 28.7468 117.749 28.7492C117.716 28.7516 117.693 28.7705 117.682 28.7824C117.305 30.1262 118.335 31.6335 118.986 32.4156C119.05 32.4938 119.043 32.6091 118.967 32.6771C115.783 35.5756 112.318 37.6761 108.665 38.922L108.667 38.9228Z" fill="#134E4A"/>
<path d="M43.0512 40.5376C43.8609 39.2159 43.6287 36.0417 42.7233 34.5004C41.8077 32.9394 38.6604 28.476 38.6604 28.476C37.1033 29.6918 39.4235 33.2799 39.4235 33.2799C36.7336 35.0029 38.2417 36.8309 38.2417 36.8309C37.1562 39.0879 38.5395 39.8566 39.3666 40.1078C37.5702 42.5189 34.8408 47.0866 34.8558 52.901C37.1349 53.5677 41.2982 54.1768 44.9535 51.4229C43.9273 49.8334 43.1302 46.6513 43.0512 40.5384V40.5376Z" fill="white"/>
<path d="M38.6666 53.6514C37.1301 53.6514 35.7705 53.3647 34.8028 53.0819C34.7222 53.0582 34.6669 52.9847 34.6661 52.9002C34.6519 47.435 37.0116 43.0102 39.0608 40.2018C38.5931 40.0193 38.0686 39.6899 37.8095 39.1006C37.544 38.4954 37.6151 37.7394 38.022 36.8506C37.8679 36.6215 37.5353 36.0227 37.6562 35.2556C37.7731 34.5091 38.2811 33.8258 39.1651 33.223C38.7211 32.4883 37.0479 29.4942 38.5434 28.3258C38.5844 28.2942 38.6366 28.28 38.6879 28.2879C38.7393 28.2958 38.7851 28.3235 38.8151 28.3661C38.8467 28.4111 41.9775 32.8549 42.8868 34.404C43.7621 35.8963 44.082 39.1337 43.2407 40.5881C43.3134 45.8984 43.943 49.5095 45.1114 51.3186C45.1651 51.4023 45.1453 51.5129 45.0663 51.573C42.9476 53.1695 40.6582 53.6514 38.6658 53.6514H38.6666ZM35.0453 52.7572C37.2067 53.3655 41.1883 53.9271 44.6998 51.3739C43.548 49.4534 42.9294 45.8108 42.8615 40.5399C42.8615 40.5044 42.871 40.4688 42.8891 40.4388C43.6286 39.2317 43.4532 36.1191 42.5597 34.596C41.7618 33.2364 39.2236 29.6072 38.6303 28.7619C37.5393 29.9809 39.5617 33.1432 39.583 33.1764C39.6106 33.219 39.6201 33.2704 39.6091 33.3194C39.5988 33.3684 39.5688 33.4118 39.5261 33.4387C38.6405 34.0059 38.1373 34.6371 38.0315 35.3141C37.9058 36.1128 38.3838 36.7029 38.3885 36.7092C38.4359 36.7661 38.4454 36.8451 38.413 36.9123C38.0141 37.741 37.9288 38.4267 38.1579 38.9489C38.4067 39.5145 38.9826 39.7926 39.4226 39.9261C39.4819 39.9443 39.5285 39.9893 39.5475 40.0485C39.5664 40.107 39.5561 40.1718 39.5198 40.2208C37.4895 42.9462 35.0745 47.326 35.0469 52.758L35.0453 52.7572Z" fill="#134E4A"/>
<path d="M41.1019 39.3613C41.0576 39.3613 41.0142 39.3462 40.9778 39.3154C40.9241 39.2688 39.6617 38.1557 40.2439 36.9067C40.7084 35.9106 40.6381 35.7952 40.2439 35.1522L40.1926 35.0676C39.6893 34.2413 40.1768 33.5082 40.1981 33.4774C40.2289 33.4316 40.2787 33.4023 40.3332 33.396C40.3885 33.3897 40.443 33.4079 40.4833 33.445L42.2987 35.1237C42.3753 35.1948 42.3801 35.3149 42.309 35.3915C42.2379 35.4682 42.1178 35.4729 42.0412 35.4018L40.4138 33.8969C40.3363 34.1141 40.2779 34.4783 40.5173 34.8709L40.5686 34.9547C41.011 35.6783 41.1153 35.9374 40.5884 37.0671C40.1278 38.0554 41.2164 39.0192 41.2275 39.0287C41.3065 39.0974 41.3152 39.2167 41.2464 39.2957C41.2093 39.3391 41.1564 39.3613 41.1034 39.3613H41.1019Z" fill="#134E4A"/>
<path d="M39.3388 37.8791C39.1255 37.8791 38.9138 37.7962 38.7565 37.6342L38.1056 36.9612C38.0329 36.8861 38.0345 36.766 38.1103 36.6934C38.1854 36.6207 38.3055 36.6223 38.3781 36.6981L39.0291 37.3712C39.1831 37.53 39.4375 37.545 39.609 37.4051C39.6903 37.3388 39.8096 37.3506 39.876 37.432C39.9423 37.5134 39.9305 37.6327 39.8491 37.699C39.7006 37.8207 39.5189 37.8799 39.338 37.8799L39.3388 37.8791Z" fill="#134E4A"/>
<path d="M101.594 135.675C101.633 135.894 108.312 145.539 108.312 145.539L102.921 146.949L97.6077 138.64L101.594 135.675Z" fill="white"/>
<path d="M102.921 147.138C102.858 147.138 102.797 147.105 102.761 147.05L97.4479 138.742C97.3941 138.658 97.4147 138.546 97.4945 138.487L101.481 135.522C101.533 135.482 101.602 135.473 101.664 135.497C101.716 135.518 101.756 135.56 101.774 135.613C101.956 135.985 105.87 141.677 108.468 145.43C108.504 145.48 108.512 145.546 108.49 145.603C108.469 145.661 108.42 145.705 108.361 145.721L102.97 147.131C102.954 147.135 102.938 147.138 102.922 147.138H102.921ZM97.8626 138.686L103.006 146.729L108.002 145.423C105.311 141.535 102.218 137.042 101.542 135.949L97.8634 138.686H97.8626Z" fill="#134E4A"/>
<path d="M102.89 144.246C102.89 144.246 103.517 141.426 106.594 142.233C106.594 142.233 113.155 148.845 116.202 154.726C117.064 156.39 115.538 158.298 113.723 157.838C109.473 156.761 102.644 154.129 97.8879 147.842C97.8879 147.842 98.4765 144.804 99.9933 143.181L102.891 144.246H102.89Z" fill="white"/>
<path d="M114.269 158.096C114.074 158.096 113.874 158.072 113.676 158.021C108.978 156.831 102.399 154.118 97.7365 147.957C97.7041 147.914 97.6915 147.859 97.7017 147.807C97.7262 147.68 98.3179 144.696 99.8545 143.051C99.9066 142.995 99.9872 142.977 100.058 143.003L102.765 143.997C102.892 143.614 103.247 142.792 104.063 142.295C104.764 141.868 105.632 141.785 106.643 142.05C106.675 142.059 106.705 142.076 106.729 142.1C106.795 142.166 113.345 148.801 116.371 154.64C116.803 155.474 116.707 156.452 116.12 157.192C115.657 157.776 114.981 158.097 114.269 158.097V158.096ZM98.0912 147.797C102.683 153.822 109.147 156.482 113.769 157.654C114.54 157.849 115.326 157.581 115.823 156.955C116.316 156.333 116.397 155.512 116.034 154.813C113.152 149.25 107.027 142.944 106.497 142.402C105.613 142.18 104.862 142.252 104.263 142.616C103.334 143.181 103.078 144.275 103.075 144.287C103.063 144.339 103.029 144.385 102.981 144.411C102.933 144.437 102.876 144.441 102.825 144.423L100.047 143.403C98.7809 144.837 98.1955 147.316 98.0912 147.797Z" fill="#134E4A"/>
<path d="M113.67 155.977C111.353 155.977 106.35 154.949 99.1074 147.965C99.0323 147.892 99.0299 147.772 99.1026 147.697C99.1753 147.621 99.2954 147.619 99.3704 147.692C109.225 157.195 114.951 155.46 115.008 155.441C115.106 155.409 115.214 155.463 115.247 155.561C115.279 155.661 115.226 155.767 115.128 155.801C115.061 155.823 114.566 155.977 113.67 155.977Z" fill="#134E4A"/>
<path d="M109.205 150.76C109.151 150.76 109.099 150.737 109.061 150.693C108.993 150.613 109.003 150.494 109.083 150.426L111.435 148.428C111.515 148.36 111.634 148.369 111.702 148.45C111.77 148.53 111.76 148.649 111.68 148.717L109.328 150.715C109.292 150.745 109.249 150.76 109.205 150.76Z" fill="#134E4A"/>
<path d="M107.542 149.024C107.486 149.024 107.43 149 107.393 148.952C107.328 148.87 107.342 148.751 107.424 148.686L109.995 146.649C110.078 146.585 110.197 146.598 110.262 146.68C110.326 146.762 110.313 146.882 110.231 146.947L107.659 148.983C107.625 149.011 107.583 149.024 107.542 149.024Z" fill="#134E4A"/>
<path d="M85.0897 113.714L80.616 117.149L84.5446 122.487L88.7332 118.493L85.0897 113.714Z" fill="white"/>
<path d="M84.5448 122.676C84.5393 122.676 84.5338 122.676 84.5282 122.676C84.4737 122.672 84.4247 122.644 84.3916 122.6L80.4629 117.262C80.4021 117.179 80.4187 117.062 80.5 116.999L84.9738 113.564C85.0141 113.533 85.0646 113.519 85.1144 113.526C85.1642 113.532 85.2092 113.559 85.24 113.598L88.8835 118.378C88.9419 118.455 88.9332 118.564 88.8637 118.63L84.6752 122.623C84.6396 122.657 84.593 122.676 84.544 122.676L84.5448 122.676ZM80.8793 117.187L84.5701 122.202L88.4798 118.474L85.0552 113.981L80.8793 117.187Z" fill="#134E4A"/>
<path d="M87.2062 121.861L83.0485 118.493L82.2648 115.671C80.0813 115.618 77.6299 117.244 76.2853 118.291C75.6628 118.775 75.4598 119.627 75.8082 120.335C78.0265 124.841 83.0279 131.87 85.4493 135.181C86.0591 136.015 87.3808 135.745 87.5941 134.734C88.663 129.667 87.2062 121.861 87.2062 121.861Z" fill="white"/>
<path d="M86.4162 135.864C85.9769 135.864 85.5653 135.659 85.2968 135.292C82.6274 131.641 77.8226 124.855 75.6391 120.418C75.2544 119.636 75.4779 118.679 76.17 118.14C77.4561 117.139 79.9264 115.479 82.1613 115.479C82.1976 115.479 82.234 115.479 82.2711 115.481C82.3548 115.483 82.4267 115.54 82.4488 115.62L83.2159 118.384L87.327 121.713C87.3618 121.742 87.3855 121.781 87.3942 121.826C87.4092 121.905 88.8454 129.727 87.7805 134.773C87.6667 135.31 87.2607 135.717 86.7203 135.832C86.6184 135.854 86.5165 135.864 86.417 135.864H86.4162ZM82.121 115.859C80.0101 115.878 77.6425 117.474 76.4022 118.44C75.8516 118.869 75.6731 119.629 75.9788 120.25C78.1505 124.662 82.9402 131.428 85.6025 135.068C85.8426 135.397 86.24 135.548 86.6397 135.462C87.0316 135.377 87.3263 135.083 87.4084 134.695C88.4054 129.971 87.1714 122.743 87.0324 121.964L82.9291 118.64C82.8983 118.616 82.8762 118.582 82.8659 118.544L82.121 115.859V115.859Z" fill="#134E4A"/>
<path d="M85.8125 133.35C85.7524 133.35 85.6932 133.322 85.6568 133.269L79.0335 123.722C78.5801 123.068 78.3778 122.247 78.4647 121.408C78.6299 119.818 77.9876 118.187 77.9813 118.17C77.9426 118.073 77.99 117.962 78.0871 117.924C78.1851 117.885 78.2949 117.932 78.3336 118.03C78.3613 118.1 79.017 119.765 78.8424 121.446C78.7649 122.194 78.9435 122.926 79.3456 123.506L85.9689 133.052C86.0289 133.138 86.0076 133.256 85.9215 133.316C85.8883 133.339 85.8504 133.35 85.8133 133.35H85.8125Z" fill="#134E4A"/>
<path d="M89.5504 68.3848C89.5504 68.3848 102.325 78.4714 109.084 87.9126C110.973 90.5512 111.24 94.0232 109.807 96.9351C106.696 103.256 99.9656 114.59 89.5504 120.244L80.8035 109.067C80.8035 109.067 88.4523 100.61 94.0754 96.7582L79.7371 80.6873L76.1726 72.616L89.5511 68.3848H89.5504Z" fill="#134E4A"/>
<path d="M95.6978 143.72C96.1513 144.519 106.454 136.987 106.454 136.987C106.454 136.987 98.5718 127.761 86.0449 80.8666C85.8996 80.3215 83.5888 68.8524 83.5888 68.8524L66.4705 77.8252C66.4705 77.8252 69.478 97.56 95.6978 143.72Z" fill="#134E4A"/>
<path d="M88.1023 88.5763C88.0193 88.5763 87.9427 88.521 87.9198 88.4364L86.3098 82.5534C86.0104 81.4592 86.2063 80.2948 86.8462 79.3594L87.8321 77.9185C87.8914 77.8323 88.0091 77.8094 88.096 77.8687C88.1821 77.9279 88.2042 78.0457 88.1457 78.1326L87.1598 79.5735C86.5823 80.4172 86.4062 81.4671 86.6764 82.4538L88.2864 88.3369C88.314 88.438 88.2548 88.5423 88.1536 88.5699C88.137 88.5747 88.1205 88.5771 88.1031 88.5771L88.1023 88.5763Z" fill="white"/>
<path d="M98.5587 119.354C98.4853 119.354 98.415 119.311 98.3841 119.239C98.3454 119.147 94.4571 110.027 93.0138 105.444C92.9822 105.345 93.0375 105.238 93.1378 105.206C93.2381 105.175 93.344 105.23 93.3756 105.33C94.8134 109.895 98.6938 118.999 98.7333 119.091C98.7744 119.187 98.7294 119.298 98.633 119.339C98.6085 119.35 98.5832 119.354 98.5587 119.354Z" fill="white"/>
<path d="M62.4398 47.453C62.7661 54.2857 63.7315 71.3337 65.5169 78.1814C65.7468 79.0614 66.7177 79.5196 67.5472 79.146C71.6267 77.3045 83.2119 72.3907 92.0275 71.7256C93.2844 71.6308 94.1162 70.3818 93.7244 69.1842C92.0354 64.0231 88.2608 51.9086 87.1982 43.6287C86.8965 41.2753 85.0258 39.4614 82.7016 39.2805C78.4111 38.9464 71.4797 39.1921 64.952 42.8568C63.3207 43.7724 62.3498 45.5594 62.4398 47.4538V47.453Z" fill="white"/>
<path d="M66.9411 79.4667C66.6954 79.4667 66.4497 79.4122 66.2222 79.3032C65.7814 79.0923 65.4575 78.7012 65.3351 78.2296C63.5505 71.3859 62.5843 54.4334 62.2517 47.4625C62.1585 45.5065 63.1823 43.6334 64.8603 42.6917C71.3114 39.0696 78.1322 38.7347 82.7173 39.0917C85.1118 39.2782 87.0757 41.1765 87.3877 43.605C88.4558 51.9268 92.3023 64.2246 93.906 69.1257C94.1114 69.753 94.0189 70.4276 93.6516 70.9767C93.2858 71.5241 92.6989 71.8662 92.0432 71.916C83.3611 72.5709 72.0761 77.3124 67.6268 79.3198C67.4088 79.4185 67.175 79.4675 66.9419 79.4675L66.9411 79.4667ZM62.6301 47.4443C62.9619 54.4034 63.9257 71.3251 65.7016 78.134C65.7964 78.4974 66.0453 78.7984 66.3858 78.9611C66.7286 79.1255 67.1244 79.1294 67.4704 78.973C71.9378 76.9569 83.2719 72.1956 92.0139 71.536C92.5527 71.4949 93.0354 71.2137 93.3356 70.7642C93.6374 70.3131 93.7132 69.7585 93.5449 69.2418C91.9373 64.3305 88.0829 52.0058 87.0109 43.6516C86.7218 41.4001 84.904 39.6408 82.6873 39.4678C78.1527 39.1147 71.4133 39.4449 65.0451 43.0204C63.4912 43.8925 62.5432 45.6289 62.6301 47.4428V47.4443Z" fill="#134E4A"/>
<path d="M70.2183 30.495C70.2183 30.495 68.8872 27.7885 68.4179 27.3129C67.9486 26.8366 67.586 26.3334 68.9669 25.4099C70.3471 24.4863 73.9542 22.02 76.1638 22.0366C78.3734 22.0524 79.9218 23.4483 79.2416 24.4548C78.5614 25.4612 78.2494 25.8854 78.7739 25.9502C79.2985 26.015 79.5876 26.6004 78.1016 27.4607C76.6157 28.321 71.4373 32.0561 70.2175 30.495H70.2183Z" fill="#134E4A"/>
<path d="M77.7866 39.8959L77.0147 35.7935C79.3381 34.6275 78.4028 33.0096 78.0552 31.7179C77.6815 30.3283 76.5297 27.3105 76.5297 27.3105C74.6234 28.4308 70.8852 28.0966 70.8852 28.0966C70.8852 28.0966 71.4208 28.9506 71.1135 29.3716C70.8062 29.7927 70.9974 31.409 70.9974 31.409C70.9974 31.409 70.3298 30.781 69.6164 31.2613C69.2151 31.5315 69.6733 32.6841 70.0028 33.3303C70.3322 33.9765 71.0392 34.1045 71.0392 34.1045C71.0392 34.1045 71.1561 34.035 71.3947 34.6046L70.1268 41.2863L67.6367 42.3196L73.1769 43.0678C74.9252 43.304 76.6956 42.8339 78.0962 41.7611L80.0807 40.242L77.7873 39.8959H77.7866Z" fill="white"/>
<path d="M74.0506 43.3159C73.7512 43.3159 73.451 43.2961 73.1516 43.2558L67.6114 42.5077C67.5268 42.4967 67.4597 42.4295 67.4486 42.3442C67.4376 42.2589 67.485 42.1775 67.564 42.1443L69.9592 41.1497L71.1971 34.6252C71.1015 34.4063 71.0376 34.321 71.0107 34.291C71.0091 34.291 71.0075 34.291 71.006 34.2902C70.9736 34.2847 70.2017 34.1377 69.8336 33.4157C69.5453 32.8492 68.9362 31.4889 69.5105 31.1034C69.9687 30.7953 70.4372 30.8719 70.7713 31.0315C70.731 30.488 70.7105 29.6016 70.9601 29.2595C71.1489 29.0012 70.8456 28.3905 70.7247 28.197C70.6868 28.1361 70.686 28.0587 70.7239 27.9971C70.7619 27.9355 70.8298 27.9007 70.9025 27.9071C70.9396 27.9102 74.6028 28.2223 76.434 27.1463C76.4822 27.1178 76.5406 27.1123 76.5928 27.1305C76.6457 27.1487 76.6876 27.1897 76.7073 27.2419C76.7547 27.3651 77.8671 30.2841 78.2391 31.6674C78.285 31.8365 78.3403 32.0111 78.3995 32.1959C78.774 33.3675 79.2377 34.8203 77.2287 35.8963L77.95 39.7277L80.1106 40.0532C80.1857 40.0643 80.2465 40.1196 80.2663 40.193C80.2852 40.2665 80.2584 40.3447 80.1975 40.3905L78.2131 41.9097C77.0225 42.8213 75.5445 43.3135 74.0522 43.3135L74.0506 43.3159ZM68.3579 42.2257L73.2021 42.8798C74.8888 43.1073 76.6299 42.6452 77.9808 41.6103L79.6114 40.3621L77.7596 40.0832C77.6798 40.0714 77.6166 40.0097 77.6016 39.9307L76.8298 35.8291C76.814 35.7462 76.8559 35.6624 76.9309 35.6245C78.7969 34.6876 78.4114 33.4805 78.0385 32.3128C77.9784 32.124 77.9216 31.9455 77.8734 31.7678C77.5621 30.6104 76.6947 28.2823 76.4308 27.5824C74.7932 28.419 72.1554 28.3621 71.2137 28.3099C71.3622 28.637 71.5171 29.1434 71.2682 29.4839C71.0865 29.7327 71.1118 30.7463 71.1877 31.387C71.1971 31.466 71.1561 31.5426 71.085 31.5789C71.0139 31.6145 70.9278 31.6026 70.8701 31.5473C70.8472 31.5268 70.3013 31.0307 69.7246 31.4186C69.5524 31.5339 69.6756 32.2654 70.1741 33.2442C70.4221 33.7317 70.9317 33.8826 71.051 33.9118C71.0771 33.9118 71.1063 33.9157 71.1339 33.9244C71.2335 33.9568 71.3733 34.0556 71.5716 34.5311C71.5858 34.5651 71.5898 34.603 71.5827 34.6394L70.3147 41.3211C70.3029 41.3835 70.2602 41.4365 70.201 41.461L68.3595 42.2257H68.3579Z" fill="#134E4A"/>
<path d="M74.8744 36.469C72.7541 36.469 71.9657 34.8321 71.9554 34.8108C71.9112 34.716 71.953 34.603 72.0478 34.5588C72.1426 34.5146 72.2556 34.5564 72.299 34.6512C72.3464 34.7523 73.4832 37.0678 76.9395 35.619C77.0358 35.5787 77.1472 35.6237 77.1875 35.7209C77.2278 35.8173 77.1828 35.9286 77.0856 35.9689C76.2253 36.3292 75.4922 36.469 74.8728 36.469H74.8744Z" fill="#134E4A"/>
<path d="M69.335 29.1789L70.0452 31.2526C70.0452 31.2526 74.5616 33.9528 79.9391 32.8594C80.6761 32.7093 81.1454 31.9802 80.9787 31.2471L80.5639 27.5989C80.3988 26.8721 79.6728 26.4194 78.9476 26.5908L69.335 29.1789Z" fill="white"/>
<path d="M77.3373 33.3073C73.1693 33.3073 69.9856 31.439 69.9477 31.4161C69.909 31.3932 69.8797 31.3568 69.8655 31.315L69.1553 29.2412C69.1387 29.1915 69.1427 29.137 69.1672 29.0911C69.1916 29.0445 69.2343 29.0106 69.2857 28.9971L78.8983 26.4091C79.3044 26.3135 79.7175 26.3807 80.0659 26.5987C80.4151 26.8168 80.6576 27.1572 80.7485 27.5586C80.7501 27.5657 80.7508 27.572 80.7516 27.5791L81.1648 31.217C81.2533 31.6191 81.179 32.0307 80.9554 32.3775C80.7303 32.7267 80.3819 32.9645 79.9759 33.0466C79.0674 33.2315 78.1818 33.3081 77.3365 33.3081L77.3373 33.3073ZM70.2013 31.1246C70.7472 31.4295 74.9886 33.6731 79.9008 32.6746C80.2057 32.6121 80.468 32.4336 80.6371 32.1713C80.8069 31.9083 80.8622 31.5946 80.7935 31.2897C80.7919 31.2826 80.7911 31.2763 80.7903 31.2692L80.3772 27.632C80.3069 27.3342 80.126 27.0822 79.866 26.9202C79.6038 26.7567 79.2925 26.7054 78.9915 26.7765L69.5803 29.3108L70.2013 31.1254V31.1246Z" fill="#134E4A"/>
<path d="M74.4446 31.6508C74.3964 31.6508 74.3475 31.6326 74.3103 31.5955C74.2361 31.5212 74.2361 31.4012 74.3103 31.3277L76.0325 29.6055C76.1068 29.5312 76.2269 29.5312 76.3003 29.6055C76.3746 29.6798 76.3746 29.7998 76.3003 29.8733L74.5781 31.5955C74.541 31.6326 74.4928 31.6508 74.4438 31.6508H74.4446Z" fill="#134E4A"/>
<path d="M77.0152 31.3167C76.967 31.3167 76.918 31.2985 76.8809 31.2614C76.8066 31.1871 76.8066 31.067 76.8809 30.9935L79.4602 28.4142C79.5345 28.34 79.6546 28.34 79.728 28.4142C79.8023 28.4885 79.8023 28.6086 79.728 28.682L77.1487 31.2614C77.1116 31.2985 77.0634 31.3167 77.0144 31.3167H77.0152Z" fill="#134E4A"/>
<path d="M45.136 135.529C45.136 135.529 45.1328 135.529 45.1312 135.529C39.2023 135.371 35.4333 133.812 33.9291 130.896L1.39483 67.8285C1.34664 67.7353 1.38298 67.6207 1.4762 67.5733C1.56942 67.5252 1.68318 67.5615 1.73137 67.6547C3.50885 71.0999 8.81603 72.5866 17.0809 71.9539C25.2123 71.3313 35.6403 68.7117 47.2382 64.3762C49.5892 63.4978 52.2293 64.5176 53.3796 66.7486L81.5073 121.274C82.159 122.537 82.2365 124.022 81.7206 125.347C81.2031 126.674 80.139 127.717 78.8016 128.208C75.4417 129.439 72.1332 130.541 68.9685 131.481C68.8682 131.511 68.7623 131.454 68.7331 131.353C68.7031 131.253 68.7607 131.147 68.8611 131.118C72.0179 130.18 75.3185 129.081 78.6712 127.851C79.9068 127.398 80.8903 126.435 81.3675 125.209C81.8446 123.985 81.7727 122.615 81.1708 121.448L53.043 66.9224C51.9805 64.8621 49.5418 63.9204 47.3709 64.7317C33.6518 69.8596 21.9125 72.4729 13.6397 72.4737C8.58614 72.4737 4.82656 71.4988 2.69595 69.5262L34.2649 130.722C35.6813 133.467 39.4417 134.999 45.1399 135.15C45.245 135.153 45.3272 135.24 45.3248 135.345C45.3224 135.447 45.2379 135.529 45.1352 135.529L45.136 135.529Z" fill="#134E4A"/>
<path d="M60.9149 133.598C60.828 133.598 60.7505 133.538 60.73 133.45C60.7071 133.348 60.7711 133.246 60.873 133.224C63.4144 132.646 66.1012 131.938 68.8606 131.118C68.9609 131.088 69.0668 131.146 69.096 131.246C69.126 131.346 69.0684 131.452 68.968 131.482C66.2007 132.304 63.5052 133.014 60.9567 133.593C60.9425 133.596 60.9283 133.598 60.9149 133.598Z" fill="white"/>
<path d="M50.9197 135.286C50.8233 135.286 50.7412 135.213 50.7309 135.115C50.7206 135.011 50.7965 134.919 50.9008 134.908C53.9185 134.607 57.2736 134.041 60.8728 133.223C60.9755 133.2 61.0767 133.264 61.0996 133.366C61.1225 133.468 61.0585 133.57 60.9566 133.593C57.3424 134.414 53.9715 134.984 50.9387 135.284C50.9324 135.284 50.926 135.285 50.9197 135.285V135.286Z" fill="#134E4A"/>
<path d="M46.1098 135.541C45.7772 135.541 45.451 135.537 45.1302 135.529C45.0252 135.525 44.943 135.439 44.9454 135.334C44.9485 135.23 45.0346 135.146 45.1397 135.149C46.8832 135.196 48.8211 135.115 50.9003 134.908C51.0046 134.897 51.097 134.973 51.1081 135.078C51.1184 135.182 51.0425 135.274 50.9383 135.285C49.2248 135.456 47.6045 135.541 46.109 135.541H46.1098Z" fill="white"/>
<path d="M97.8592 119.551C96.0541 119.551 94.3043 118.568 93.4289 116.871C93.3808 116.778 93.4171 116.664 93.5103 116.616C93.6027 116.568 93.7173 116.604 93.7655 116.698C94.9039 118.904 97.6444 119.803 99.8729 118.702C101.106 118.093 102.353 117.463 103.579 116.83C119.744 108.492 134.004 98.8413 143.733 89.6576C153.408 80.5253 157.436 72.9753 155.075 68.3997L123.511 7.21389C124.136 11.9862 119.957 18.8442 111.458 26.8666C101.704 36.0739 87.4124 45.7458 71.2175 54.1008C70.0317 54.7123 68.8278 55.3205 67.6388 55.9091C66.532 56.4573 65.7097 57.4053 65.3241 58.5793C64.9378 59.7556 65.0374 61.0101 65.6054 62.1105L74.8989 80.1263C74.9471 80.2196 74.9107 80.3341 74.8175 80.3815C74.7243 80.4297 74.6097 80.3934 74.5623 80.3001L65.2688 62.2843C64.6542 61.0922 64.546 59.7342 64.9647 58.4608C65.3826 57.1897 66.2729 56.1627 67.4721 55.5694C68.6595 54.9816 69.8619 54.3741 71.0453 53.7635C87.2101 45.4251 101.47 35.7745 111.199 26.5909C120.867 17.4648 124.896 9.91962 122.547 5.3424L122.541 5.33213C122.493 5.23891 122.529 5.12436 122.622 5.07696C122.715 5.02877 122.829 5.06511 122.878 5.15833L155.412 68.2259C157.857 72.9658 153.802 80.6746 143.993 89.9341C134.239 99.1415 119.947 108.813 103.753 117.168C102.525 117.802 101.276 118.432 100.041 119.042C99.3421 119.388 98.5955 119.552 97.8584 119.552L97.8592 119.551Z" fill="#134E4A"/>
<path d="M93.5982 116.974C93.5295 116.974 93.4631 116.937 93.4292 116.871L87.065 104.534C87.0168 104.441 87.0531 104.326 87.1464 104.279C87.2396 104.231 87.3533 104.267 87.4015 104.36L93.7657 116.698C93.8139 116.791 93.7776 116.905 93.6843 116.953C93.6567 116.967 93.6267 116.974 93.5974 116.974H93.5982Z" fill="white"/>
<path d="M87.2336 104.638C87.1649 104.638 87.0985 104.6 87.0645 104.535L84.3572 99.2861C84.309 99.1929 84.3454 99.0783 84.4386 99.0309C84.531 98.9827 84.6456 99.0191 84.6938 99.1123L87.4011 104.361C87.4493 104.454 87.4129 104.569 87.3197 104.616C87.2921 104.63 87.262 104.638 87.2328 104.638H87.2336Z" fill="#134E4A"/>
<path d="M84.5257 99.388C84.457 99.388 84.3906 99.3508 84.3566 99.2853L74.5623 80.3001C74.5141 80.2069 74.5505 80.0924 74.6437 80.045C74.7361 79.9968 74.8514 80.0331 74.8988 80.1263L84.6932 99.1115C84.7414 99.2047 84.705 99.3192 84.6118 99.3666C84.5842 99.3809 84.5541 99.388 84.5249 99.388H84.5257Z" fill="white"/>
<path d="M74.8488 62.0995C74.7801 62.0995 74.7137 62.0624 74.6797 61.9968C74.6316 61.9036 74.6679 61.789 74.7611 61.7416C100.398 48.5163 120.917 32.0229 125.821 20.6999C125.863 20.6043 125.973 20.5593 126.07 20.6011C126.167 20.643 126.21 20.7544 126.169 20.8508C121.233 32.2488 100.644 48.8165 74.9349 62.0789C74.9073 62.0932 74.8772 62.1003 74.848 62.1003L74.8488 62.0995Z" fill="#134E4A"/>
<path d="M77.9408 68.6446C77.8721 68.6446 77.8058 68.6075 77.7718 68.542C77.7236 68.4487 77.7599 68.3342 77.8532 68.2868C103.49 55.0615 124.009 38.568 128.913 27.245C128.955 27.1495 129.065 27.1044 129.162 27.1463C129.259 27.1882 129.302 27.2996 129.261 27.3959C124.325 38.794 103.736 55.3617 78.0269 68.6241C77.9993 68.6383 77.9693 68.6454 77.9401 68.6454L77.9408 68.6446Z" fill="#134E4A"/>
<path d="M89.2393 70.7524C89.1729 70.7524 89.1089 70.7176 89.0742 70.656C89.0228 70.5651 89.0544 70.449 89.1453 70.3976C95.5458 66.77 101.558 62.9583 107.015 59.0707C107.1 59.0099 107.219 59.0304 107.28 59.115C107.34 59.2003 107.321 59.3188 107.235 59.3796C101.769 63.2751 95.7449 67.0931 89.3325 70.7279C89.3033 70.7445 89.2709 70.7524 89.2393 70.7524Z" fill="#134E4A"/>
<path d="M111.545 56.1556C111.488 56.1556 111.431 56.1303 111.394 56.0813C111.33 55.9984 111.346 55.8791 111.429 55.8159C122.072 47.6789 129.38 39.8572 132.007 33.7908C132.049 33.6945 132.16 33.651 132.257 33.6921C132.353 33.734 132.397 33.8454 132.355 33.9417C129.703 40.0666 122.353 47.942 111.66 56.1176C111.625 56.1437 111.585 56.1564 111.545 56.1564V56.1556Z" fill="#134E4A"/>
<path d="M100.423 72.4856C100.36 72.4856 100.298 72.454 100.262 72.3963C100.207 72.3078 100.233 72.1909 100.323 72.1348C106.681 68.1643 112.462 64.0887 117.503 60.0195C117.585 59.9531 117.704 59.9665 117.77 60.0479C117.835 60.1293 117.823 60.2486 117.741 60.3141C112.688 64.3929 106.895 68.4779 100.523 72.4563C100.492 72.4761 100.457 72.4856 100.422 72.4856H100.423Z" fill="#134E4A"/>
<path d="M121.086 57.4599C121.033 57.4599 120.98 57.4378 120.943 57.3943C120.874 57.3153 120.883 57.1952 120.962 57.1265C128.159 50.8769 133.048 45.0712 135.099 40.336C135.141 40.2404 135.251 40.1954 135.348 40.2372C135.445 40.2791 135.488 40.3905 135.447 40.4869C133.374 45.2734 128.451 51.1265 121.211 57.4133C121.175 57.4441 121.131 57.4599 121.087 57.4599H121.086Z" fill="#134E4A"/>
<path d="M90.3107 94.8274C90.242 94.8274 90.1756 94.7902 90.1417 94.7247C90.0935 94.6315 90.1298 94.5169 90.223 94.4695C91.393 93.866 92.574 93.2442 93.7345 92.6217C93.827 92.5719 93.9415 92.6067 93.9913 92.6991C94.0411 92.7916 94.0063 92.9061 93.9139 92.9559C92.7518 93.58 91.5684 94.2025 90.3968 94.8068C90.3692 94.8211 90.3392 94.8282 90.3099 94.8282L90.3107 94.8274Z" fill="#134E4A"/>
<path d="M93.8254 92.978C93.7575 92.978 93.6927 92.9417 93.658 92.8777C93.6082 92.7852 93.643 92.6707 93.7354 92.6209C97.461 90.6199 101.125 88.5232 104.623 86.3887C104.712 86.3342 104.829 86.3626 104.884 86.4519C104.938 86.5411 104.91 86.6581 104.821 86.7126C101.316 88.8503 97.6466 90.9509 93.9147 92.9551C93.8863 92.9701 93.8555 92.978 93.8254 92.978Z" fill="white"/>
<path d="M104.721 86.741C104.657 86.741 104.595 86.7086 104.559 86.6502C104.505 86.5609 104.533 86.444 104.623 86.3895C113.949 80.6992 122.264 74.6423 128.667 68.8737C135.026 63.1455 139.388 57.8043 141.283 53.4278C141.325 53.3322 141.436 53.2872 141.533 53.329C141.629 53.3709 141.673 53.4823 141.631 53.5787C137.697 62.6652 123.936 75.0523 104.82 86.7134C104.789 86.7323 104.755 86.741 104.721 86.741Z" fill="#134E4A"/>
<path d="M93.403 101.373C93.3343 101.373 93.2679 101.336 93.2339 101.271C93.1858 101.177 93.2221 101.063 93.3153 101.015C97.3577 98.9298 101.34 96.7289 105.151 94.4751C105.241 94.4221 105.357 94.4514 105.411 94.5414C105.464 94.6315 105.435 94.7476 105.345 94.8013C101.527 97.0591 97.5386 99.2632 93.4891 101.352C93.4615 101.366 93.4314 101.373 93.4022 101.373H93.403Z" fill="white"/>
<path d="M105.249 94.8273C105.185 94.8273 105.121 94.7942 105.086 94.7341C105.033 94.6441 105.062 94.5279 105.152 94.4742C125.288 82.5635 140.318 69.3429 144.376 59.9728C144.418 59.8772 144.529 59.8322 144.626 59.8741C144.722 59.9159 144.766 60.0273 144.725 60.1237C140.636 69.5641 125.548 82.851 105.346 94.8013C105.316 94.8194 105.283 94.8281 105.249 94.8281V94.8273Z" fill="#134E4A"/>
<path d="M96.495 107.919C96.4263 107.919 96.36 107.882 96.326 107.816C96.2778 107.723 96.3141 107.609 96.4074 107.561C98.7718 106.341 101.132 105.074 103.421 103.794C103.513 103.742 103.628 103.776 103.679 103.866C103.731 103.958 103.697 104.073 103.607 104.125C101.313 105.407 98.9495 106.676 96.5811 107.899C96.5535 107.913 96.5235 107.92 96.4943 107.92L96.495 107.919Z" fill="#134E4A"/>
<path d="M103.515 104.149C103.449 104.149 103.384 104.114 103.349 104.051C103.298 103.96 103.331 103.844 103.422 103.793C125.788 91.2898 143.077 76.6583 147.468 66.5188C147.51 66.4224 147.621 66.3789 147.718 66.42C147.814 66.4619 147.858 66.5733 147.817 66.6696C145.65 71.6719 140.405 77.8014 132.648 84.3963C124.8 91.0686 114.758 97.8902 103.608 104.124C103.579 104.141 103.547 104.149 103.515 104.149Z" fill="#134E4A"/>
<path d="M118.669 122.35C118.605 122.35 118.542 122.318 118.507 122.259C118.452 122.17 118.481 122.053 118.571 121.998C119.222 121.603 119.868 121.207 120.507 120.81C120.595 120.755 120.713 120.783 120.768 120.872C120.823 120.961 120.795 121.078 120.706 121.133C120.065 121.529 119.419 121.927 118.767 122.322C118.736 122.341 118.702 122.35 118.669 122.35ZM122.533 119.954C122.471 119.954 122.409 119.923 122.373 119.865C122.317 119.777 122.343 119.66 122.431 119.604C123.076 119.196 123.714 118.788 124.345 118.379C124.432 118.323 124.55 118.348 124.607 118.436C124.664 118.523 124.639 118.641 124.551 118.698C123.919 119.107 123.281 119.516 122.635 119.925C122.604 119.944 122.569 119.954 122.534 119.954H122.533ZM126.351 117.483C126.289 117.483 126.229 117.453 126.193 117.398C126.135 117.311 126.159 117.194 126.246 117.135C126.882 116.714 127.512 116.292 128.134 115.871C128.22 115.813 128.338 115.835 128.397 115.922C128.455 116.009 128.433 116.126 128.346 116.185C127.724 116.607 127.093 117.029 126.456 117.451C126.423 117.473 126.387 117.483 126.351 117.483H126.351ZM130.115 114.93C130.055 114.93 129.996 114.902 129.959 114.849C129.899 114.763 129.921 114.645 130.007 114.585C130.628 114.154 131.254 113.714 131.866 113.278C131.952 113.217 132.07 113.237 132.131 113.322C132.192 113.407 132.172 113.526 132.087 113.587C131.474 114.023 130.846 114.464 130.224 114.896C130.191 114.919 130.153 114.93 130.116 114.93H130.115ZM133.821 112.291C133.763 112.291 133.705 112.264 133.668 112.214C133.607 112.129 133.625 112.011 133.709 111.949C134.326 111.498 134.941 111.043 135.535 110.596C135.619 110.533 135.738 110.551 135.8 110.634C135.863 110.718 135.846 110.837 135.763 110.9C135.167 111.348 134.551 111.804 133.932 112.255C133.898 112.28 133.859 112.292 133.821 112.292L133.821 112.291Z" fill="#134E4A"/>
<path d="M135.651 110.938C135.593 110.938 135.536 110.912 135.499 110.862C135.436 110.778 135.453 110.659 135.537 110.596L135.583 110.562C135.667 110.499 135.785 110.517 135.848 110.6C135.911 110.684 135.894 110.803 135.81 110.866L135.764 110.9C135.73 110.925 135.69 110.938 135.651 110.938ZM137.505 109.524C137.448 109.524 137.392 109.498 137.355 109.45C137.291 109.367 137.306 109.248 137.389 109.184C137.99 108.719 138.591 108.247 139.176 107.78C139.258 107.715 139.377 107.728 139.442 107.81C139.507 107.892 139.494 108.012 139.412 108.076C138.826 108.544 138.223 109.018 137.62 109.484C137.585 109.511 137.545 109.524 137.504 109.524H137.505Z" fill="white"/>
<path d="M140.766 106.928C140.711 106.928 140.657 106.904 140.619 106.858C140.553 106.778 140.564 106.657 140.645 106.591C141.241 106.102 141.828 105.612 142.389 105.136C142.469 105.068 142.588 105.078 142.656 105.158C142.724 105.238 142.714 105.357 142.634 105.425C142.071 105.903 141.482 106.394 140.885 106.885C140.85 106.914 140.807 106.928 140.765 106.928H140.766Z" fill="#134E4A"/>
<path d="M144.044 104.149C143.991 104.149 143.939 104.126 143.902 104.084C143.833 104.005 143.841 103.885 143.92 103.816C144.495 103.31 145.064 102.801 145.611 102.301C145.688 102.23 145.808 102.235 145.879 102.313C145.949 102.39 145.943 102.51 145.867 102.58C145.319 103.082 144.747 103.594 144.17 104.101C144.134 104.133 144.089 104.149 144.045 104.149H144.044Z" fill="white"/>
<path d="M145.737 102.631C145.685 102.631 145.634 102.61 145.597 102.569C145.527 102.492 145.531 102.372 145.609 102.301C145.979 101.963 146.344 101.624 146.701 101.288C146.777 101.216 146.897 101.22 146.968 101.296C147.04 101.372 147.036 101.492 146.961 101.564C146.602 101.902 146.236 102.241 145.865 102.581C145.828 102.614 145.783 102.631 145.737 102.631ZM148.469 100.037C148.42 100.037 148.371 100.018 148.334 99.9805C148.26 99.9062 148.261 99.7862 148.335 99.7127C148.881 99.1739 149.417 98.6296 149.929 98.0956C150.001 98.0197 150.121 98.0174 150.196 98.09C150.272 98.1627 150.275 98.2828 150.202 98.3579C149.688 98.8943 149.15 99.4409 148.601 99.9821C148.564 100.018 148.516 100.037 148.468 100.037H148.469ZM151.614 96.7494C151.569 96.7494 151.523 96.7336 151.486 96.7004C151.409 96.6301 151.402 96.5108 151.472 96.4326C151.988 95.8591 152.489 95.2824 152.959 94.7199C153.026 94.6401 153.145 94.6291 153.226 94.6962C153.307 94.7634 153.317 94.8827 153.25 94.9632C152.776 95.5297 152.272 96.1087 151.753 96.6862C151.716 96.7281 151.664 96.7486 151.613 96.7486L151.614 96.7494ZM154.528 93.2561C154.488 93.2561 154.447 93.2434 154.413 93.2174C154.33 93.1534 154.314 93.0349 154.377 92.9511C154.85 92.3334 155.298 91.7164 155.707 91.1184C155.767 91.0322 155.884 91.0101 155.971 91.0694C156.057 91.1286 156.079 91.2463 156.02 91.3332C155.606 91.9368 155.155 92.5585 154.678 93.1818C154.641 93.2308 154.584 93.2561 154.527 93.2561H154.528ZM157.091 89.4997C157.058 89.4997 157.025 89.491 156.995 89.4728C156.905 89.4191 156.876 89.3029 156.929 89.2129C157.329 88.5382 157.69 87.8699 158.003 87.2261C158.049 87.132 158.162 87.0925 158.257 87.1384C158.351 87.1842 158.39 87.2971 158.344 87.3919C158.028 88.0453 157.661 88.7231 157.255 89.4064C157.219 89.4665 157.157 89.4997 157.092 89.4997H157.091Z" fill="#134E4A"/>
<path d="M19.4924 157.255C18.8667 157.255 18.2482 157.245 17.6525 157.225C17.5474 157.222 17.4661 157.134 17.4692 157.029C17.4724 156.925 17.5585 156.843 17.6651 156.846C18.3951 156.87 19.1566 156.88 19.9324 156.874C20.0335 156.869 20.1228 156.958 20.1236 157.062C20.1236 157.167 20.0399 157.253 19.9356 157.253C19.7871 157.254 19.6401 157.255 19.4932 157.255H19.4924ZM22.2076 157.197C22.1065 157.197 22.0227 157.117 22.018 157.015C22.0133 156.911 22.0946 156.822 22.1997 156.817C22.9352 156.787 23.6967 156.742 24.4654 156.687C24.5705 156.679 24.6605 156.758 24.6684 156.862C24.6755 156.967 24.5973 157.058 24.4931 157.065C23.7212 157.122 22.9549 157.165 22.2163 157.197C22.2139 157.197 22.2108 157.197 22.2084 157.197H22.2076ZM15.3876 157.095C15.3821 157.095 15.3773 157.095 15.3718 157.095C14.5873 157.031 13.8226 156.945 13.0998 156.84C12.9963 156.825 12.9244 156.729 12.9394 156.625C12.9544 156.522 13.0508 156.45 13.1543 156.465C13.8692 156.569 14.626 156.653 15.4034 156.718C15.5077 156.727 15.5851 156.818 15.5764 156.922C15.5685 157.021 15.4855 157.096 15.3876 157.096V157.095ZM26.7461 156.872C26.6497 156.872 26.5676 156.798 26.5573 156.701C26.547 156.597 26.6229 156.505 26.7272 156.494C27.4611 156.422 28.221 156.338 28.9842 156.245C29.0877 156.232 29.1825 156.306 29.1951 156.41C29.2077 156.514 29.1335 156.608 29.03 156.621C28.2637 156.715 27.5013 156.798 26.7643 156.871C26.758 156.871 26.7516 156.872 26.7453 156.872H26.7461ZM10.8894 156.433C10.8759 156.433 10.8617 156.431 10.8475 156.428C10.0678 156.253 9.3236 156.047 8.6371 155.816C8.53756 155.783 8.48463 155.676 8.51781 155.576C8.55099 155.477 8.65922 155.424 8.75797 155.457C9.43262 155.683 10.1634 155.885 10.9304 156.057C11.0324 156.08 11.0971 156.181 11.0742 156.284C11.0545 156.373 10.9763 156.432 10.8894 156.432V156.433ZM31.2625 156.321C31.1693 156.321 31.0887 156.253 31.0753 156.159C31.0603 156.055 31.1322 155.959 31.2357 155.944C31.9711 155.838 32.7272 155.722 33.4808 155.598C33.5835 155.581 33.6815 155.651 33.6981 155.755C33.7147 155.858 33.6451 155.956 33.5416 155.972C32.7848 156.095 32.0272 156.212 31.2894 156.318C31.2807 156.32 31.2712 156.32 31.2625 156.32V156.321ZM35.7536 155.589C35.6636 155.589 35.5838 155.525 35.5672 155.433C35.5482 155.331 35.617 155.232 35.7197 155.213C36.4528 155.08 37.2041 154.937 37.9522 154.789C38.0541 154.769 38.1544 154.836 38.175 154.939C38.1955 155.041 38.1283 155.141 38.0256 155.162C37.2759 155.31 36.5231 155.453 35.7876 155.587C35.7765 155.589 35.7647 155.59 35.7536 155.59V155.589ZM6.59496 154.962C6.56652 154.962 6.53729 154.956 6.51043 154.943C5.78522 154.579 5.12636 154.169 4.55204 153.722C4.46909 153.658 4.45408 153.539 4.51886 153.456C4.58285 153.373 4.70214 153.358 4.78509 153.423C5.33966 153.854 5.97719 154.251 6.68028 154.603C6.7735 154.65 6.81221 154.764 6.76481 154.857C6.73163 154.924 6.66448 154.962 6.59496 154.962ZM40.2171 154.706C40.1294 154.706 40.0512 154.645 40.0322 154.556C40.0101 154.453 40.0757 154.353 40.1784 154.331C40.9075 154.175 41.6541 154.01 42.3975 153.84C42.4994 153.816 42.6013 153.88 42.6242 153.983C42.6479 154.085 42.5839 154.187 42.4812 154.21C41.7362 154.38 40.9873 154.545 40.2574 154.702C40.2439 154.705 40.2305 154.706 40.2179 154.706H40.2171ZM44.6537 153.693C44.5684 153.693 44.491 153.635 44.4696 153.548C44.4451 153.446 44.5075 153.343 44.6095 153.319C45.3355 153.142 46.0781 152.957 46.8151 152.769C46.917 152.743 47.0197 152.804 47.0458 152.905C47.0719 153.006 47.0102 153.11 46.9091 153.136C46.1705 153.325 45.4271 153.51 44.6995 153.687C44.6845 153.691 44.6695 153.692 44.6545 153.692L44.6537 153.693ZM49.0626 152.566C48.9789 152.566 48.9023 152.51 48.8794 152.425C48.8525 152.324 48.9125 152.22 49.0137 152.193C49.7365 151.998 50.4744 151.796 51.2059 151.591C51.307 151.563 51.4113 151.622 51.4397 151.722C51.4682 151.823 51.4089 151.927 51.3086 151.956C50.5755 152.161 49.8368 152.364 49.1124 152.559C49.0958 152.563 49.0792 152.565 49.0634 152.565L49.0626 152.566ZM3.07001 152.156C3.01234 152.156 2.95546 152.13 2.91833 152.08C2.59681 151.652 2.32031 151.193 2.09832 150.714C1.99562 150.493 1.9024 150.263 1.82103 150.032C1.78627 149.933 1.83841 149.825 1.93716 149.79C2.03591 149.756 2.14414 149.808 2.1789 149.907C2.25553 150.125 2.34401 150.343 2.44197 150.554C2.65289 151.008 2.91517 151.445 3.2209 151.851C3.2841 151.935 3.26672 152.054 3.18298 152.117C3.14901 152.142 3.10872 152.155 3.06922 152.155L3.07001 152.156ZM53.444 151.337C53.3618 151.337 53.286 151.283 53.2623 151.201C53.233 151.1 53.2907 150.994 53.391 150.965C54.1131 150.754 54.8391 150.538 55.5698 150.316C55.6694 150.285 55.776 150.342 55.806 150.442C55.8361 150.542 55.78 150.648 55.6796 150.678C54.9481 150.9 54.2205 151.118 53.4969 151.329C53.4787 151.334 53.4613 151.336 53.444 151.336V151.337ZM57.7984 150.016C57.7178 150.016 57.6428 149.963 57.6175 149.883C57.5859 149.783 57.6412 149.677 57.7415 149.645C58.4596 149.419 59.1817 149.188 59.9069 148.952C60.0064 148.92 60.1139 148.974 60.1455 149.074C60.1779 149.173 60.1233 149.28 60.0238 149.312C59.297 149.549 58.5742 149.78 57.8553 150.006C57.8363 150.012 57.8174 150.015 57.7984 150.015V150.016ZM62.126 148.608C62.047 148.608 61.9727 148.558 61.9459 148.478C61.9127 148.379 61.9664 148.271 62.0651 148.238C62.7793 147.999 63.4966 147.754 64.2171 147.505C64.3158 147.471 64.4241 147.523 64.458 147.622C64.492 147.721 64.4399 147.829 64.3411 147.863C63.6191 148.112 62.901 148.357 62.186 148.598C62.1663 148.605 62.1457 148.608 62.126 148.608ZM1.57297 147.933C1.47264 147.933 1.38891 147.854 1.38417 147.753C1.37627 147.599 1.37231 147.443 1.37231 147.286C1.37231 146.698 1.42762 146.079 1.53743 145.447C1.5556 145.344 1.65355 145.275 1.75625 145.292C1.85974 145.31 1.92847 145.408 1.91109 145.511C1.80523 146.122 1.75151 146.718 1.75151 147.285C1.75151 147.435 1.75546 147.585 1.76257 147.732C1.7681 147.837 1.68752 147.926 1.58245 147.932C1.57929 147.932 1.57613 147.932 1.57297 147.932V147.933ZM2.2974 143.472C2.27686 143.472 2.25632 143.469 2.23578 143.462C2.13703 143.428 2.0841 143.32 2.11807 143.221C2.3527 142.536 2.64657 141.823 2.9918 141.099C3.03683 141.004 3.1498 140.965 3.2446 141.01C3.3394 141.055 3.3789 141.168 3.33387 141.262C2.99496 141.973 2.70661 142.673 2.47673 143.344C2.44987 143.423 2.3764 143.472 2.2974 143.472ZM4.23288 139.363C4.20049 139.363 4.16731 139.355 4.13729 139.337C4.04723 139.284 4.01642 139.168 4.07014 139.078C4.43907 138.449 4.85066 137.8 5.29463 137.147C5.35388 137.06 5.47159 137.038 5.5577 137.096C5.6446 137.155 5.66672 137.273 5.60826 137.359C5.16903 138.005 4.76139 138.648 4.3972 139.269C4.36165 139.329 4.29845 139.363 4.23367 139.363H4.23288ZM6.7814 135.597C6.74111 135.597 6.70082 135.584 6.66685 135.558C6.58311 135.495 6.56731 135.375 6.63051 135.292C7.07528 134.708 7.55401 134.107 8.0525 133.506C8.11965 133.426 8.23894 133.415 8.31952 133.482C8.4001 133.549 8.41116 133.668 8.34401 133.749C7.84868 134.345 7.37311 134.942 6.93229 135.522C6.89516 135.571 6.83828 135.597 6.7814 135.597V135.597ZM9.68621 132.095C9.64118 132.095 9.59615 132.08 9.55981 132.047C9.4816 131.978 9.47528 131.858 9.5448 131.779C10.0378 131.229 10.5591 130.665 11.094 130.105C11.1667 130.029 11.2867 130.026 11.3618 130.098C11.4376 130.171 11.44 130.29 11.3681 130.366C10.8356 130.924 10.3174 131.484 9.82683 132.032C9.7897 132.074 9.73756 132.095 9.68542 132.095H9.68621ZM12.8249 128.801C12.7759 128.801 12.7269 128.782 12.6906 128.745C12.6171 128.671 12.6171 128.551 12.6913 128.477C13.2183 127.954 13.7697 127.421 14.3298 126.892C14.4056 126.82 14.5257 126.823 14.5976 126.9C14.6695 126.975 14.6663 127.095 14.5897 127.167C14.032 127.694 13.4829 128.225 12.9576 128.747C12.9204 128.783 12.8723 128.802 12.8241 128.802L12.8249 128.801ZM16.1318 125.675C16.0804 125.675 16.0283 125.654 15.9911 125.613C15.9208 125.535 15.9272 125.415 16.0046 125.345C16.5576 124.845 17.1319 124.336 17.7102 123.834C17.7892 123.765 17.9093 123.774 17.978 123.853C18.0467 123.932 18.038 124.052 17.959 124.12C17.3823 124.621 16.8104 125.128 16.259 125.627C16.2226 125.66 16.1776 125.676 16.1318 125.676V125.675ZM19.5659 122.69C19.5114 122.69 19.4576 122.667 19.4205 122.622C19.3534 122.541 19.3636 122.422 19.4442 122.355C19.7958 122.06 20.152 121.765 20.5123 121.469C20.5936 121.403 20.7129 121.415 20.7793 121.495C20.8457 121.576 20.8338 121.696 20.7532 121.762C20.3938 122.057 20.0383 122.352 19.6875 122.645C19.652 122.675 19.6085 122.69 19.5659 122.69Z" fill="#134E4A"/>
<path d="M36.8389 13.5339C35.2652 10.7784 31.8058 9.86039 29.1744 11.5336C26.6085 13.1649 25.8319 16.5848 27.4158 19.2661C28.1798 20.5585 29.3513 21.4409 30.6659 21.8185C31.6739 22.1084 32.5397 22.7855 33.0714 23.7161L33.3874 24.2691C33.6481 24.7257 34.2169 24.8829 34.6577 24.6198L37.8754 22.6986C38.3162 22.4355 38.4623 21.8517 38.2008 21.3943L37.8864 20.8437C37.3619 19.9257 37.1865 18.8339 37.4417 17.8109C37.7893 16.4142 37.6099 14.8832 36.8397 13.5346L36.8389 13.5339Z" fill="#134E4A"/>
<path d="M38.1809 27.0024C37.0828 27.658 35.6656 27.267 35.0154 26.1286L34.2515 24.7904L38.2283 22.4156L38.9922 23.7539C39.6424 24.8923 39.279 26.3467 38.1809 27.0024Z" fill="white"/>
<path d="M37.0358 27.5104C36.828 27.5104 36.6179 27.4835 36.4109 27.429C35.7512 27.256 35.1975 26.827 34.8522 26.2227L34.0883 24.8844C34.037 24.7944 34.067 24.6806 34.1555 24.6277L38.1315 22.253C38.1749 22.2269 38.2279 22.2198 38.2769 22.2324C38.3258 22.2451 38.3685 22.2774 38.393 22.3217L39.1569 23.6599C39.8568 24.8852 39.4626 26.4581 38.2784 27.1651C37.8961 27.3934 37.4687 27.5104 37.035 27.5104H37.0358ZM34.5094 24.8583L35.1817 26.0347C35.4763 26.5505 35.9472 26.9155 36.5073 27.0624C37.0468 27.2038 37.6069 27.1248 38.0849 26.8397C39.0929 26.2377 39.4271 24.8955 38.8283 23.8479L38.1599 22.678L34.5094 24.8583Z" fill="#134E4A"/>
<path d="M27.356 8.05763C27.2904 8.05763 27.2264 8.02365 27.1917 7.96204L24.4038 3.09884C24.3517 3.00799 24.3833 2.89186 24.4741 2.83972C24.565 2.78758 24.6811 2.81918 24.7332 2.91003L27.5211 7.77323C27.5733 7.86408 27.5417 7.98021 27.4508 8.03235C27.4208 8.04973 27.3884 8.05763 27.3568 8.05763H27.356Z" fill="#134E4A"/>
<path d="M18.1524 26.0995C18.0868 26.0995 18.0228 26.0655 17.988 26.0039C17.9359 25.913 17.9675 25.7969 18.0583 25.7448L24.3957 22.1163C24.4865 22.0642 24.6026 22.0958 24.6548 22.1866C24.7069 22.2775 24.6753 22.3936 24.5845 22.4458L18.2472 26.0742C18.2171 26.0916 18.1847 26.0995 18.1531 26.0995H18.1524Z" fill="#134E4A"/>
<path d="M40.8161 13.2953C40.7497 13.2953 40.6849 13.2605 40.6502 13.1981C40.5988 13.1065 40.632 12.9912 40.7236 12.9406L47.2774 9.28529C47.3691 9.23394 47.4844 9.26712 47.5357 9.35876C47.5871 9.4504 47.5539 9.56574 47.4623 9.6163L40.9085 13.2716C40.8793 13.2882 40.8477 13.2953 40.8161 13.2953Z" fill="#134E4A"/>
<path d="M22.6529 15.008C22.6355 15.008 22.6189 15.0056 22.6015 15.0009L16.4364 13.2621C16.3353 13.2337 16.2768 13.1286 16.3053 13.0283C16.3337 12.928 16.4388 12.8687 16.5391 12.8971L22.7042 14.6359C22.8054 14.6644 22.8638 14.7694 22.8354 14.8698C22.8117 14.9535 22.7358 15.008 22.6529 15.008Z" fill="#134E4A"/>
<path d="M35.5434 8.03711C35.5268 8.03711 35.5094 8.03474 35.4928 8.03C35.3917 8.00235 35.3324 7.89807 35.3609 7.79695L37.1589 1.28188C37.1866 1.18076 37.2908 1.12151 37.392 1.14995C37.4931 1.1776 37.5523 1.28188 37.5239 1.383L35.7259 7.89807C35.703 7.98181 35.6263 8.03711 35.5434 8.03711Z" fill="#134E4A"/>
<path d="M146.835 29.9294C146.789 29.9294 146.743 29.9128 146.707 29.8796C146.63 29.8093 146.624 29.6892 146.695 29.6118C146.935 29.3495 147.17 29.0888 147.402 28.8281C147.471 28.7499 147.591 28.7428 147.669 28.8123C147.748 28.8818 147.755 29.0019 147.685 29.0801C147.453 29.3416 147.216 29.6039 146.976 29.867C146.939 29.908 146.887 29.9286 146.836 29.9286L146.835 29.9294ZM149.029 27.4219C148.986 27.4219 148.943 27.4077 148.907 27.3777C148.827 27.3105 148.816 27.1912 148.884 27.1107C149.379 26.5182 149.858 25.9241 150.309 25.3458C150.373 25.2629 150.492 25.2479 150.575 25.3126C150.658 25.3766 150.673 25.4959 150.608 25.5789C150.155 26.1611 149.674 26.7583 149.175 27.354C149.137 27.399 149.083 27.4219 149.03 27.4219H149.029ZM151.818 23.8282C151.78 23.8282 151.742 23.8172 151.709 23.7927C151.623 23.7319 151.603 23.6134 151.664 23.528C152.115 22.8953 152.542 22.2641 152.934 21.6518C152.991 21.5633 153.108 21.538 153.195 21.5941C153.284 21.6502 153.309 21.7679 153.253 21.8556C152.858 22.4734 152.427 23.1101 151.973 23.7477C151.936 23.7998 151.878 23.8275 151.818 23.8275V23.8282ZM154.259 19.9912C154.229 19.9912 154.197 19.9833 154.168 19.9675C154.076 19.917 154.043 19.8016 154.094 19.71C154.474 19.0243 154.816 18.3457 155.112 17.6932C155.155 17.5976 155.267 17.5557 155.363 17.5991C155.459 17.6426 155.501 17.7548 155.458 17.8504C155.158 18.5116 154.811 19.1997 154.426 19.8941C154.391 19.9565 154.327 19.992 154.26 19.992L154.259 19.9912ZM156.117 15.8454C156.098 15.8454 156.078 15.8422 156.058 15.8359C155.959 15.8027 155.905 15.696 155.937 15.5965C156.185 14.8476 156.372 14.1161 156.492 13.4217C156.51 13.319 156.607 13.2494 156.712 13.2676C156.815 13.2858 156.884 13.3837 156.866 13.4872C156.742 14.1998 156.55 14.9495 156.297 15.7166C156.271 15.7964 156.196 15.8469 156.117 15.8469L156.117 15.8454ZM156.851 11.3795C156.749 11.3795 156.665 11.2989 156.661 11.1962C156.636 10.426 156.514 9.69052 156.299 9.00954C156.268 8.91 156.323 8.80335 156.423 8.77175C156.523 8.74015 156.629 8.79545 156.661 8.89578C156.886 9.60915 157.013 10.3786 157.04 11.1836C157.043 11.2879 156.962 11.3756 156.857 11.3795C156.855 11.3795 156.853 11.3795 156.851 11.3795ZM109.697 7.95727C109.615 7.95727 109.541 7.90513 109.516 7.82376C109.485 7.72343 109.541 7.61757 109.641 7.58676C110.367 7.3624 111.1 7.14042 111.82 6.92712C111.921 6.8971 112.026 6.95477 112.056 7.0551C112.085 7.15543 112.028 7.26128 111.928 7.29051C111.209 7.50381 110.476 7.72501 109.752 7.94937C109.733 7.9549 109.714 7.95806 109.696 7.95806L109.697 7.95727ZM155.476 7.11198C155.417 7.11198 155.358 7.08433 155.321 7.0314C154.909 6.44601 154.397 5.90487 153.8 5.42376C153.718 5.35819 153.705 5.2389 153.771 5.15753C153.837 5.07616 153.956 5.06273 154.037 5.12909C154.662 5.63311 155.199 6.19953 155.632 6.81415C155.692 6.89947 155.671 7.01797 155.586 7.07801C155.553 7.10171 155.515 7.11277 155.477 7.11277L155.476 7.11198ZM114.06 6.66563C113.977 6.66563 113.901 6.61112 113.877 6.52738C113.849 6.42626 113.907 6.32198 114.008 6.29354C114.743 6.08656 115.482 5.88275 116.205 5.6892C116.306 5.66234 116.41 5.72238 116.437 5.8235C116.464 5.92462 116.404 6.0289 116.303 6.05576C115.581 6.2493 114.844 6.45154 114.111 6.65852C114.094 6.66326 114.076 6.66563 114.06 6.66563ZM118.455 5.48854C118.371 5.48854 118.293 5.43166 118.272 5.34555C118.247 5.24364 118.308 5.14094 118.41 5.11566C119.151 4.92843 119.896 4.74595 120.622 4.57452C120.725 4.55003 120.826 4.61323 120.851 4.71514C120.874 4.81705 120.812 4.91895 120.71 4.94344C119.986 5.11487 119.243 5.29657 118.503 5.48301C118.487 5.48696 118.471 5.48854 118.456 5.48854H118.455ZM122.883 4.44259C122.796 4.44259 122.717 4.38176 122.698 4.29328C122.676 4.19137 122.74 4.09025 122.843 4.06734C123.593 3.90302 124.342 3.74581 125.073 3.59966C125.175 3.57912 125.275 3.64548 125.296 3.74818C125.316 3.85088 125.25 3.95042 125.147 3.97096C124.419 4.11711 123.671 4.27353 122.924 4.43785C122.91 4.44101 122.897 4.44259 122.882 4.44259H122.883ZM152.002 4.24825C151.973 4.24825 151.944 4.24193 151.916 4.22771C151.287 3.91171 150.587 3.6281 149.837 3.38479C149.738 3.3524 149.683 3.24575 149.715 3.14621C149.748 3.04667 149.854 2.99216 149.954 3.02455C150.722 3.2734 151.44 3.56411 152.086 3.8888C152.179 3.9362 152.217 4.04996 152.171 4.14318C152.138 4.20954 152.07 4.24746 152.001 4.24746L152.002 4.24825ZM127.345 3.54911C127.255 3.54911 127.175 3.48512 127.159 3.39348C127.141 3.29078 127.208 3.19203 127.312 3.17307C128.07 3.0364 128.826 2.90842 129.559 2.79308C129.663 2.77649 129.76 2.84759 129.776 2.95108C129.793 3.05457 129.721 3.15174 129.619 3.16833C128.887 3.28367 128.134 3.41165 127.379 3.54753C127.367 3.5499 127.356 3.55068 127.345 3.55068V3.54911ZM131.84 2.84127C131.746 2.84127 131.666 2.77175 131.652 2.67695C131.638 2.57346 131.711 2.47788 131.815 2.46366C132.58 2.36175 133.342 2.27011 134.079 2.1919C134.184 2.18084 134.277 2.25668 134.288 2.36017C134.299 2.46445 134.223 2.55766 134.119 2.56872C133.385 2.64614 132.628 2.73699 131.865 2.8389C131.857 2.83969 131.849 2.84048 131.84 2.84048V2.84127ZM147.697 2.82073C147.684 2.82073 147.672 2.81915 147.658 2.81678C146.957 2.67221 146.206 2.55134 145.428 2.45733C145.325 2.44469 145.25 2.35069 145.262 2.24641C145.275 2.14213 145.369 2.06866 145.473 2.0813C146.262 2.17689 147.022 2.29934 147.734 2.44548C147.837 2.46681 147.903 2.56714 147.882 2.66905C147.864 2.75911 147.785 2.82073 147.696 2.82073H147.697ZM136.365 2.36569C136.267 2.36569 136.184 2.28985 136.176 2.19032C136.169 2.08604 136.247 1.99519 136.351 1.98729C137.126 1.92962 137.893 1.88617 138.629 1.85773C138.73 1.85457 138.822 1.93515 138.826 2.04022C138.83 2.1445 138.749 2.23298 138.644 2.23693C137.912 2.26536 137.15 2.30881 136.379 2.36569C136.374 2.36569 136.369 2.36569 136.364 2.36569H136.365ZM143.186 2.26221C143.186 2.26221 143.179 2.26221 143.175 2.26221C142.45 2.22192 141.688 2.1998 140.911 2.19585C140.806 2.19585 140.721 2.11053 140.722 2.00546C140.722 1.90118 140.807 1.81665 140.912 1.81665C141.695 1.81981 142.464 1.84272 143.196 1.88301C143.3 1.88854 143.38 1.9786 143.374 2.08288C143.369 2.184 143.285 2.26221 143.185 2.26221H143.186Z" fill="#134E4A"/>
<path d="M16.2546 93.2742C16.2546 93.2742 16.2522 93.2742 16.2507 93.2742C15.4654 93.26 14.6975 93.2252 13.9676 93.1715C13.8633 93.1636 13.7851 93.0728 13.7922 92.9685C13.8001 92.8642 13.8902 92.786 13.9952 92.7931C14.7181 92.846 15.4796 92.8808 16.2578 92.895C16.3628 92.8966 16.4458 92.9835 16.4442 93.0878C16.4426 93.1913 16.3581 93.2742 16.2546 93.2742ZM18.529 93.2632C18.4263 93.2632 18.3426 93.1818 18.3394 93.0783C18.3362 92.974 18.4192 92.8863 18.5235 92.884C19.2558 92.8642 20.0181 92.8294 20.7892 92.7797C20.8958 92.7749 20.9835 92.8524 20.9906 92.9566C20.9977 93.0609 20.9179 93.151 20.8137 93.1581C20.0379 93.2079 19.2708 93.2434 18.5337 93.2632C18.5322 93.2632 18.5306 93.2632 18.5282 93.2632H18.529ZM23.0691 92.9748C22.9727 92.9748 22.8898 92.9013 22.8803 92.8034C22.87 92.6991 22.9466 92.6067 23.0509 92.5964C23.784 92.5253 24.5432 92.4408 25.3071 92.3444C25.4106 92.331 25.5054 92.4052 25.5189 92.5087C25.5323 92.6122 25.458 92.707 25.3545 92.7204C24.5875 92.8168 23.8243 92.9021 23.0881 92.9732C23.0817 92.9732 23.0754 92.974 23.0699 92.974L23.0691 92.9748ZM11.72 92.9298C11.7114 92.9298 11.7019 92.9298 11.6932 92.9274C10.9056 92.8144 10.148 92.6722 9.44091 92.5056C9.339 92.4811 9.2758 92.3792 9.30029 92.2772C9.32399 92.1753 9.42669 92.1121 9.5286 92.1366C10.2238 92.3009 10.9703 92.4408 11.7469 92.5522C11.8504 92.5672 11.9223 92.6636 11.9073 92.767C11.8938 92.8618 11.8125 92.9298 11.72 92.9298ZM27.5839 92.4108C27.4915 92.4108 27.4109 92.3436 27.3967 92.2496C27.3809 92.1461 27.452 92.0497 27.5555 92.0339C28.287 91.9233 29.0414 91.8009 29.7975 91.6697C29.9017 91.6516 29.9989 91.7211 30.0171 91.8238C30.0353 91.9273 29.9657 92.0252 29.863 92.0434C29.1046 92.1753 28.3478 92.2978 27.6131 92.4092C27.6037 92.4108 27.5942 92.4115 27.5847 92.4115L27.5839 92.4108ZM7.30556 91.8617C7.28344 91.8617 7.26132 91.8578 7.23999 91.8499C6.48081 91.5702 5.77692 91.2447 5.14888 90.8837C5.05803 90.8316 5.02643 90.7154 5.07857 90.6246C5.13071 90.5337 5.24684 90.5029 5.33768 90.5543C5.94756 90.9042 6.6317 91.2202 7.37113 91.4936C7.46909 91.5299 7.51965 91.6389 7.48331 91.7369C7.45487 91.8135 7.38219 91.8609 7.30556 91.8609V91.8617ZM32.0671 91.6326C31.9778 91.6326 31.8989 91.5694 31.8815 91.4793C31.8617 91.3767 31.9289 91.2771 32.0316 91.2574C32.7584 91.116 33.5073 90.9627 34.257 90.8031C34.3589 90.7818 34.46 90.8466 34.4821 90.9493C34.5042 91.052 34.4387 91.1523 34.336 91.1744C33.5839 91.3348 32.8326 91.4888 32.1035 91.6302C32.0916 91.6326 32.079 91.6334 32.0671 91.6334V91.6326ZM36.5172 90.683C36.431 90.683 36.3528 90.6238 36.3323 90.5361C36.3086 90.4342 36.3726 90.3323 36.4745 90.3086C37.1997 90.1411 37.9431 89.9626 38.6841 89.7785C38.786 89.7532 38.8887 89.8148 38.914 89.9167C38.9393 90.0186 38.8769 90.1214 38.7757 90.1466C38.0331 90.3307 37.2874 90.5092 36.5606 90.6775C36.5464 90.6807 36.5322 90.6822 36.5179 90.6822L36.5172 90.683ZM40.934 89.5889C40.8503 89.5889 40.7728 89.5328 40.7507 89.4475C40.7239 89.3464 40.7847 89.2429 40.8858 89.216C41.6102 89.0248 42.3481 88.825 43.0796 88.6219C43.1807 88.5943 43.285 88.6528 43.3135 88.7539C43.3419 88.855 43.2827 88.9593 43.1815 88.9877C42.4484 89.1915 41.709 89.3922 40.983 89.5834C40.9664 89.5873 40.9506 89.5897 40.9348 89.5897L40.934 89.5889ZM3.41247 89.5684C3.36586 89.5684 3.31925 89.551 3.28291 89.517C2.70306 88.9711 2.21642 88.3605 1.83722 87.7024C1.78508 87.6115 1.81589 87.4954 1.90674 87.4433C1.99759 87.3911 2.11372 87.4219 2.16586 87.5128C2.5261 88.1393 2.98982 88.7207 3.54282 89.2405C3.61945 89.3124 3.62261 89.4325 3.55072 89.5083C3.51359 89.5478 3.46303 89.5684 3.41247 89.5684ZM45.3177 88.3699C45.2355 88.3699 45.1597 88.3162 45.136 88.2333C45.1068 88.1329 45.1644 88.0271 45.2647 87.9979C45.9829 87.7877 46.716 87.5689 47.4428 87.3469C47.5431 87.3161 47.649 87.373 47.6798 87.4725C47.7106 87.5728 47.6537 87.6787 47.5541 87.7095C46.8258 87.9315 46.0919 88.1511 45.3722 88.3612C45.3548 88.3668 45.3366 88.3691 45.3193 88.3691L45.3177 88.3699ZM49.6698 87.0412C49.5892 87.0412 49.5149 86.9898 49.4888 86.9092C49.4572 86.8097 49.5125 86.703 49.6121 86.6715C50.3278 86.4439 51.0491 86.2101 51.7743 85.9699C51.8738 85.9368 51.9805 85.9913 52.0137 86.0908C52.0461 86.1903 51.9923 86.2978 51.8928 86.3302C51.166 86.5703 50.4439 86.8042 49.7266 87.0325C49.7077 87.0388 49.6879 87.0412 49.669 87.0412H49.6698ZM1.18469 85.6832C1.09779 85.6832 1.01958 85.6231 0.99983 85.5346C0.863161 84.9208 0.794434 84.2667 0.794434 83.5905C0.794434 83.4704 0.796803 83.3487 0.800752 83.2263C0.804702 83.122 0.890023 83.0391 0.996672 83.0438C1.10095 83.0477 1.18311 83.1354 1.17916 83.2397C1.17521 83.3574 1.17284 83.4743 1.17284 83.5905C1.17284 84.2391 1.2392 84.8655 1.36955 85.4525C1.39246 85.5544 1.32768 85.6563 1.22577 85.6784C1.21234 85.6816 1.19812 85.6832 1.18469 85.6832ZM53.991 85.6144C53.912 85.6144 53.8385 85.5647 53.8117 85.4865C53.7777 85.3877 53.8306 85.2795 53.9294 85.2455C54.6412 85.0022 55.3569 84.7533 56.0766 84.4982C56.1753 84.4634 56.2836 84.5148 56.3183 84.6135C56.3531 84.7123 56.3018 84.8205 56.203 84.8553C55.4817 85.1104 54.7652 85.3601 54.0526 85.6034C54.0321 85.6105 54.0116 85.6136 53.991 85.6136V85.6144ZM1.29213 81.1739C1.2787 81.1739 1.26448 81.1723 1.25026 81.1691C1.14835 81.1462 1.08357 81.0451 1.10648 80.9424C1.26527 80.237 1.48726 79.4959 1.76612 78.7415C1.80246 78.6435 1.91227 78.593 2.00944 78.6293C2.1074 78.6657 2.15796 78.7747 2.12162 78.8726C1.84828 79.6113 1.63104 80.3357 1.4762 81.0254C1.45645 81.1138 1.37824 81.1731 1.29134 81.1731L1.29213 81.1739ZM2.84052 76.9079C2.81287 76.9079 2.78443 76.9016 2.75757 76.889C2.66356 76.8431 2.62406 76.7302 2.66988 76.6354C2.98824 75.9797 3.35085 75.3011 3.74822 74.6169C3.80115 74.5261 3.91728 74.4953 4.00734 74.5482C4.09819 74.6011 4.12899 74.7165 4.07607 74.8073C3.68344 75.4836 3.32557 76.1543 3.01116 76.8013C2.97798 76.8684 2.91083 76.9079 2.84052 76.9079ZM5.11333 72.9698C5.07778 72.9698 5.04065 72.9595 5.00905 72.9382C4.92136 72.8805 4.89766 72.7628 4.95533 72.6751C5.36059 72.0637 5.79983 71.4333 6.26277 70.8021C6.32439 70.7175 6.44368 70.6994 6.52741 70.761C6.61194 70.8226 6.63012 70.9419 6.5685 71.0256C6.10951 71.6521 5.67343 72.277 5.27212 72.8837C5.23578 72.939 5.17495 72.969 5.11412 72.969L5.11333 72.9698ZM7.79694 69.2971C7.75586 69.2971 7.71399 69.2837 7.67923 69.256C7.59707 69.1905 7.58364 69.072 7.64921 68.9898C8.10819 68.4123 8.5972 67.8206 9.10042 67.2289C9.16836 67.1491 9.28765 67.1396 9.36744 67.2076C9.44723 67.2755 9.45671 67.3948 9.38877 67.4746C8.88792 68.0624 8.40207 68.6517 7.94545 69.2252C7.90832 69.2726 7.85302 69.2971 7.79694 69.2971ZM10.746 65.8322C10.701 65.8322 10.6551 65.8164 10.6188 65.7832C10.5414 65.7129 10.5351 65.5928 10.6054 65.5154C11.1031 64.9648 11.6252 64.4031 12.1569 63.8446C12.2296 63.7687 12.3489 63.7656 12.4247 63.8383C12.5006 63.9102 12.5037 64.0302 12.431 64.1061C11.9017 64.6622 11.3819 65.2223 10.8858 65.7698C10.8487 65.8109 10.7965 65.8322 10.7452 65.8322H10.746ZM13.8823 62.5356C13.8341 62.5356 13.7851 62.5174 13.7487 62.4803C13.6745 62.406 13.6745 62.2859 13.7487 62.2125C14.2733 61.6863 14.8208 61.1483 15.3753 60.6151C15.4512 60.5424 15.5713 60.5448 15.6432 60.6206C15.7158 60.6965 15.7135 60.8158 15.6376 60.8884C15.0854 61.4201 14.5403 61.9549 14.0166 62.4795C13.9794 62.5166 13.9312 62.5356 13.8823 62.5356ZM17.1607 59.3795C17.1102 59.3795 17.0588 59.359 17.0217 59.3187C16.9506 59.2421 16.9553 59.122 17.032 59.0509C17.5786 58.5437 18.1459 58.0279 18.717 57.5167C18.7952 57.4464 18.9153 57.4535 18.9848 57.5317C19.0543 57.61 19.048 57.7292 18.9698 57.7996C18.4002 58.3091 17.8354 58.8234 17.2895 59.329C17.2532 59.363 17.2065 59.3795 17.1607 59.3795ZM20.5514 56.3444C20.4985 56.3444 20.4455 56.3223 20.4076 56.2788C20.3389 56.1998 20.3476 56.0797 20.4266 56.011C20.9906 55.522 21.5744 55.0243 22.1598 54.5321C22.2404 54.465 22.3597 54.4753 22.4268 54.5551C22.494 54.6348 22.4837 54.7549 22.4039 54.8221C21.8201 55.3134 21.2387 55.8096 20.6754 56.297C20.6399 56.3278 20.5956 56.3436 20.5514 56.3436V56.3444Z" fill="#134E4A"/>
<path d="M110.692 125.827C110.59 125.827 110.505 125.745 110.503 125.641L110.481 124.633C110.479 124.528 110.562 124.442 110.667 124.439C110.771 124.438 110.858 124.52 110.861 124.625L110.882 125.633C110.884 125.738 110.801 125.824 110.696 125.827C110.695 125.827 110.693 125.827 110.692 125.827Z" fill="#134E4A"/>
<path d="M110.768 129.356C110.665 129.356 110.581 129.273 110.578 129.17L110.557 128.162C110.555 128.057 110.638 127.971 110.743 127.968C110.845 127.967 110.934 128.049 110.936 128.154L110.957 129.162C110.96 129.267 110.877 129.353 110.772 129.356C110.77 129.356 110.769 129.356 110.768 129.356Z" fill="#134E4A"/>
<path d="M108.483 127.104C108.379 127.104 108.294 127.02 108.293 126.916C108.293 126.811 108.376 126.726 108.481 126.725L109.475 126.717C109.582 126.722 109.666 126.801 109.666 126.905C109.666 127.01 109.584 127.095 109.478 127.096L108.485 127.104H108.483Z" fill="#134E4A"/>
<path d="M111.961 127.076C111.857 127.076 111.772 126.993 111.771 126.888C111.771 126.783 111.854 126.698 111.959 126.697L112.953 126.689H112.955C113.059 126.689 113.143 126.773 113.144 126.877C113.144 126.982 113.061 127.068 112.956 127.069L111.962 127.076H111.961Z" fill="#134E4A"/>
<path d="M67.9978 18.5084C67.7892 18.5084 67.5799 18.4697 67.3792 18.3915C66.9423 18.2216 66.5987 17.8883 66.4107 17.453C66.0267 16.5634 66.4249 15.5214 67.2978 15.1296C67.7181 14.9408 68.1858 14.929 68.6155 15.0956C69.0524 15.2655 69.3961 15.5989 69.5841 16.0342C69.968 16.9237 69.5699 17.9657 68.6969 18.3575C68.4734 18.4579 68.2356 18.5084 67.9978 18.5084ZM67.4527 15.4748C66.7678 15.7821 66.4565 16.6022 66.7583 17.3021C66.906 17.6442 67.1746 17.9049 67.5159 18.0376C67.85 18.1671 68.2134 18.1577 68.5405 18.0107C69.2254 17.7034 69.5367 16.8834 69.2349 16.1835C69.0872 15.8414 68.8186 15.5807 68.4773 15.448C68.1431 15.3184 67.7797 15.3279 67.4527 15.4748Z" fill="#134E4A"/>
</svg>
