<svg width="156" height="159" viewBox="0 0 156 159" fill="none" xmlns="http://www.w3.org/2000/svg">
<path d="M94.0644 89.295L71.8144 85.9709C71.6702 85.9709 71.6227 86.105 71.6227 86.2336V105.163C71.6227 106.975 58.981 111.685 58.8579 111.445L58.8423 113.448C58.8415 113.822 59.1696 114.152 59.5874 114.152H59.8711L78.5257 117.616C79.3916 117.616 80.2466 117.422 81.0299 117.094L91.2867 112.776C93.133 111.999 94.2974 110.328 94.2974 108.507V89.5577C94.2974 89.4291 94.207 89.295 94.0628 89.295H94.0644Z" fill="#134E4A"/>
<path d="M69.3683 84.868V103.802C69.3683 105.668 68.1672 107.369 66.2796 108.174L59.3602 111.127C58.9081 111.32 59.0624 111.926 59.5636 111.926L78.5744 115.39C79.4294 115.39 80.2735 115.22 81.0466 114.895L88.7127 111.668C90.6144 110.868 91.8271 109.16 91.8271 107.284V88.3308C91.8271 88.2537 91.757 88.1905 91.6697 88.1905L69.5257 84.7269C69.4392 84.7269 69.3683 84.7901 69.3683 84.8672V84.868Z" fill="white"/>
<path d="M78.5711 115.579C78.5594 115.579 78.5485 115.578 78.5376 115.576L59.5424 112.115C59.2291 112.107 58.9711 111.905 58.9126 111.618C58.8557 111.34 59.0046 111.073 59.2836 110.954L66.203 108.001C68.0097 107.23 69.1772 105.582 69.1772 103.802V84.8681C69.1772 84.6865 69.3323 84.5392 69.5232 84.5392C69.5334 84.5392 69.5427 84.5392 69.5521 84.5415L91.6843 88.0036C91.8667 88.0121 92.0133 88.1563 92.0133 88.3317V107.285C92.0133 109.227 90.7452 111.017 88.7835 111.843L81.1174 115.07C80.3263 115.403 79.4464 115.579 78.5719 115.579H78.5711ZM69.5536 84.9234V103.802C69.5536 105.733 68.2965 107.517 66.3503 108.348L59.4309 111.301C59.3164 111.35 59.2602 111.441 59.2813 111.543C59.3 111.632 59.3834 111.737 59.5595 111.737C59.5712 111.737 59.5821 111.738 59.593 111.741L78.5867 115.201C79.4059 115.199 80.2289 115.034 80.9685 114.722L88.6346 111.494C90.4568 110.727 91.6337 109.074 91.6337 107.284V88.3769L69.5521 84.9226L69.5536 84.9234Z" fill="#134E4A"/>
<path d="M128.648 104.467L126.166 106.784L34.1311 90.8585L35.117 31.2805L38.0951 29.682C38.6414 29.3905 39.2704 29.2915 39.8806 29.4022L127.235 45.1622C128.546 45.3991 129.499 46.5401 129.499 47.8721L129.518 102.459C129.518 103.22 129.203 103.948 128.647 104.468L128.648 104.467Z" fill="#134E4A"/>
<path d="M124.033 107.113L35.9353 91.2052C34.8402 91.0073 34.0437 90.0541 34.0437 88.9411V33.5547C34.0437 32.1206 35.3414 31.0357 36.7529 31.2906L124.851 47.1979C125.946 47.3958 126.743 48.349 126.743 49.462V104.849C126.743 106.283 125.445 107.368 124.033 107.113V107.113Z" fill="white"/>
<path d="M124.447 107.338C124.299 107.338 124.15 107.325 124.002 107.298L35.9039 91.3908C34.7176 91.1765 33.8572 90.1469 33.8572 88.9412V33.5548C33.8572 32.8152 34.183 32.1192 34.7504 31.6445C35.3177 31.1706 36.0605 30.9735 36.7885 31.1052L124.887 47.0125C126.073 47.2268 126.933 48.2564 126.933 49.4621V104.849C126.933 105.589 126.607 106.285 126.04 106.76C125.588 107.138 125.025 107.339 124.446 107.339L124.447 107.338ZM124.069 106.927C124.686 107.039 125.317 106.872 125.798 106.47C126.28 106.067 126.556 105.477 126.556 104.849V49.4613C126.556 48.4388 125.826 47.5651 124.82 47.3827L36.7214 31.4754C36.1042 31.3639 35.4736 31.5307 34.992 31.9329C34.5103 32.3351 34.2344 32.9258 34.2344 33.5532V88.9405C34.2344 89.963 34.9647 90.8367 35.9709 91.0191L124.069 106.926V106.927Z" fill="#134E4A"/>
<path d="M110.013 94.5339L49.1791 83.55C48.8143 83.4845 48.5493 83.1665 48.5493 82.7963V43.9438C48.5493 43.4661 48.9811 43.1052 49.4511 43.1902L110.285 54.1741C110.649 54.2396 110.914 54.5576 110.914 54.9278V93.7803C110.914 94.258 110.483 94.6189 110.013 94.5339Z" fill="white"/>
<path d="M110.152 94.7351C110.095 94.7351 110.038 94.7304 109.981 94.7195L49.1476 83.7356C48.6933 83.6538 48.3628 83.2586 48.3628 82.7964V43.944C48.3628 43.6603 48.4875 43.3937 48.7049 43.2113C48.9224 43.0297 49.2069 42.9541 49.4867 43.0048L110.32 53.9887C110.775 54.0705 111.105 54.4657 111.105 54.9279V93.7804C111.105 94.0641 110.98 94.3306 110.763 94.513C110.59 94.658 110.374 94.7351 110.152 94.7351ZM110.048 94.3485C110.217 94.3789 110.39 94.3337 110.521 94.2238C110.652 94.1139 110.728 93.9526 110.728 93.7811V54.9286C110.728 54.6488 110.528 54.4104 110.253 54.3605L49.4196 43.3766C49.2513 43.3462 49.0791 43.3914 48.9473 43.5013C48.8156 43.6112 48.74 43.7725 48.74 43.944V82.7964C48.74 83.0762 48.9395 83.3147 49.2147 83.3646L110.048 94.3485Z" fill="#134E4A"/>
<path d="M105.82 62.9735C105.809 62.9735 105.797 62.9727 105.786 62.9704L53.4939 53.5281C53.3918 53.5094 53.3232 53.4112 53.3419 53.3091C53.3606 53.207 53.4581 53.1384 53.561 53.1571L105.853 62.5994C105.956 62.6181 106.024 62.7163 106.005 62.8184C105.989 62.9096 105.909 62.9735 105.82 62.9735Z" fill="#134E4A"/>
<path d="M99.2074 65.5376C99.1965 65.5376 99.1848 65.5368 99.1739 65.5344L53.4939 57.2862C53.3918 57.2675 53.3232 57.1693 53.3419 57.0672C53.3606 56.9651 53.4581 56.8965 53.561 56.9152L99.2409 65.1634C99.343 65.1822 99.4116 65.2804 99.3929 65.3825C99.3765 65.4736 99.297 65.5376 99.2074 65.5376Z" fill="#134E4A"/>
<path d="M105.823 70.4891C105.812 70.4891 105.801 70.4884 105.79 70.486L53.6494 61.0905C53.5473 61.0718 53.4788 60.9744 53.4975 60.8715C53.5162 60.7694 53.6136 60.7008 53.7165 60.7195L105.857 70.115C105.959 70.1337 106.027 70.2312 106.009 70.334C105.992 70.4252 105.913 70.4891 105.823 70.4891Z" fill="#134E4A"/>
<path d="M105.823 74.2474C105.812 74.2474 105.8 74.2467 105.789 74.2443L91.0244 71.578C90.9223 71.5593 90.8538 71.4611 90.8725 71.359C90.8912 71.2569 90.987 71.1884 91.0915 71.2071L105.856 73.8733C105.958 73.892 106.027 73.9903 106.008 74.0924C105.992 74.1835 105.912 74.2474 105.823 74.2474Z" fill="#134E4A"/>
<path d="M74.7689 68.6411C74.758 68.6411 74.7463 68.6404 74.7354 68.638L53.4939 64.8027C53.3918 64.7839 53.3232 64.6858 53.3419 64.5837C53.3606 64.4816 53.4581 64.413 53.561 64.4317L74.8024 68.267C74.9045 68.2857 74.9731 68.3839 74.9544 68.486C74.938 68.5772 74.8585 68.6411 74.7689 68.6411Z" fill="#134E4A"/>
<path d="M105.822 78.0056C105.811 78.0056 105.799 78.0048 105.789 78.0025L95.397 76.1265C95.2949 76.1078 95.2263 76.0096 95.245 75.9075C95.2637 75.8054 95.3604 75.7368 95.464 75.7555L105.856 77.6315C105.958 77.6502 106.026 77.7484 106.008 77.8505C105.991 77.9417 105.912 78.0056 105.822 78.0056Z" fill="#134E4A"/>
<path d="M85.8907 74.4071C85.8798 74.4071 85.8681 74.4063 85.8572 74.4039L53.4939 68.5601C53.3918 68.5414 53.3232 68.4432 53.3419 68.3411C53.3606 68.239 53.4581 68.1704 53.561 68.1891L85.9243 74.033C86.0264 74.0517 86.0949 74.1499 86.0762 74.252C86.0599 74.3432 85.9804 74.4071 85.8907 74.4071Z" fill="#134E4A"/>
<path d="M105.822 81.7638C105.811 81.7638 105.8 81.763 105.789 81.7607L53.3101 72.2397C53.208 72.221 53.1394 72.1228 53.1581 72.0207C53.1768 71.9186 53.2742 71.85 53.3771 71.8687L105.856 81.3897C105.958 81.4084 106.026 81.5066 106.008 81.6087C105.991 81.6999 105.912 81.7638 105.822 81.7638Z" fill="#134E4A"/>
<path d="M94.7828 83.5282C94.7719 83.5282 94.7602 83.5275 94.7493 83.5251L53.4939 76.0757C53.3918 76.057 53.3232 75.9588 53.3419 75.8567C53.3606 75.7546 53.4581 75.686 53.561 75.7047L94.8163 83.1541C94.9184 83.1728 94.987 83.271 94.9683 83.3731C94.9519 83.4643 94.8724 83.5282 94.7828 83.5282Z" fill="#134E4A"/>
<path d="M107.072 126.549C111.286 125.424 114.169 122.516 113.512 120.055C112.855 117.594 108.906 116.511 104.692 117.636C100.478 118.762 97.5945 121.669 98.2517 124.13C98.9088 126.591 102.858 127.674 107.072 126.549Z" fill="white"/>
<path d="M103.812 127.183C100.898 127.183 98.5661 126.066 98.0634 124.183C97.7275 122.925 98.2396 121.53 99.5053 120.254C100.745 119.004 102.568 118.012 104.638 117.459C108.945 116.309 113.006 117.454 113.689 120.012C114.371 122.569 111.422 125.586 107.114 126.735C105.977 127.038 104.857 127.183 103.812 127.183ZM107.973 117.383C106.952 117.383 105.853 117.524 104.735 117.823C102.729 118.358 100.967 119.316 99.7734 120.52C98.6059 121.697 98.1281 122.963 98.4282 124.086C99.0579 126.443 102.911 127.468 107.018 126.371C111.124 125.275 113.954 122.466 113.325 120.109C112.867 118.393 110.701 117.384 107.973 117.384L107.973 117.383Z" fill="#134E4A"/>
<path d="M100.002 124.841C100.484 124.465 101.058 124.222 101.666 124.144C103.538 123.901 103.837 123.702 107.591 121.838C110.399 120.444 113.649 122.131 115.306 119.761C116.268 118.384 111.881 113.026 105.031 114.576C101.132 115.458 101.684 117.433 96.5645 120.463C96.5645 120.463 75.4657 133.64 71.0528 129.323C66.1559 124.533 61.8389 117.027 61.8389 117.027L49.0889 132.456C49.0889 132.456 65.2074 143.49 74.8523 143.081C80.4974 142.841 100.002 124.841 100.002 124.841Z" fill="white"/>
<path d="M74.3257 143.281C64.6776 143.281 49.1382 132.72 48.9792 132.612C48.9356 132.582 48.9067 132.535 48.8989 132.482C48.8919 132.43 48.9067 132.377 48.9402 132.336L61.6902 116.907C61.73 116.86 61.7892 116.834 61.8516 116.839C61.9131 116.845 61.9685 116.88 61.9989 116.933C62.0417 117.008 66.3596 124.473 71.1816 129.189C75.4386 133.353 96.2522 120.435 96.4619 120.304C98.7727 118.936 99.9216 117.782 100.845 116.855C101.984 115.711 102.807 114.885 104.986 114.392C110.338 113.181 113.905 116.063 115.042 117.756C115.623 118.619 115.778 119.41 115.457 119.869C114.459 121.297 112.925 121.332 111.301 121.37C110.093 121.397 108.842 121.426 107.672 122.007L106.949 122.367C103.861 123.903 103.464 124.101 101.688 124.331C101.119 124.405 100.577 124.631 100.122 124.985C99.2443 125.794 80.493 143.03 74.8572 143.269C74.6819 143.277 74.5042 143.28 74.3249 143.28L74.3257 143.281ZM49.3642 132.416C51.0882 133.569 65.3362 142.903 74.3202 142.904C74.4964 142.904 74.6702 142.9 74.8424 142.893C80.3542 142.66 99.6784 124.883 99.8732 124.703C99.8771 124.7 99.881 124.696 99.8849 124.693C100.395 124.295 101.002 124.04 101.641 123.957C103.353 123.735 103.678 123.574 106.783 122.03L107.505 121.671C108.751 121.052 110.043 121.022 111.293 120.994C112.885 120.958 114.26 120.926 115.149 119.654C115.371 119.337 115.206 118.675 114.731 117.968C113.643 116.349 110.224 113.595 105.07 114.761C102.997 115.231 102.207 116.024 101.113 117.122C100.175 118.064 99.0066 119.237 96.659 120.627C95.9225 121.087 80.9544 130.374 73.8019 130.375C72.5721 130.375 71.5744 130.101 70.919 129.459C66.5435 125.179 62.5873 118.665 61.8103 117.355L49.3642 132.416Z" fill="#134E4A"/>
<path d="M40.7331 93.5147C33.4637 91.1618 21.5632 89.4011 16.7973 89.988C11.5052 90.6403 5.52266 96.545 9.45311 120.206C10.2231 124.842 10.7952 129.029 11.6105 132.738C16.5276 139.878 23.0488 145.982 31.7 150.419C35.5244 152.38 51.1808 156.912 69.7949 158.097C61.4983 149.401 58.9092 142.353 58.2514 140.126C58.1586 139.811 58.4579 139.523 58.7689 139.626L59.6878 139.931C60.4547 140.185 61.2965 139.891 61.7352 139.213C63.9986 135.711 70.3031 124.92 67.3009 117.545C66.3648 115.246 53.2929 97.5808 40.7323 93.5147H40.7331Z" fill="#134E4A"/>
<path d="M41.0677 66.8962C41.0677 66.8962 42.8096 69.5064 42.9164 71.6645C42.9445 72.2351 43.1822 74.0588 44.5866 76.0533C44.7222 76.2458 44.6918 76.5076 44.5141 76.6659L43.172 77.863C43.0793 77.9456 43.0263 78.061 43.0255 78.1826C43.0208 78.944 42.9975 81.7584 42.9063 82.2829C42.8003 82.8908 42.3116 83.4278 42.0692 83.5588C41.4286 83.9048 38.6524 83.5518 38.6524 83.5518C38.6524 83.5518 37.9073 83.6219 36.4475 87.5742C34.8708 91.8413 38.1411 93.4547 38.1411 93.4547C39.3694 94.0961 39.392 94.7165 38.0632 95.1397C33.4811 96.5995 24.0092 97.6665 19.2253 92.2981C18.9526 91.9918 19.089 91.5007 19.4888 91.3831C31.6418 87.7986 25.8501 77.4686 26.1066 77.4008C26.7636 77.227 30.5382 73.2498 32.7501 72.1174C34.2582 71.3458 36.0866 72.4619 37.3134 71.2951L41.0677 66.897V66.8962Z" fill="white"/>
<path d="M30.173 96.5099C26.1607 96.5099 21.864 95.5396 19.087 92.422C18.9148 92.2287 18.8548 91.9653 18.9257 91.7159C18.9966 91.4665 19.1883 91.274 19.4377 91.2007C22.8577 90.1922 25.16 88.5446 26.2815 86.3046C27.9463 82.9766 26.5395 79.1919 26.0766 77.948C25.9152 77.5131 25.8809 77.4227 25.9363 77.3175C25.9604 77.2699 26.0095 77.231 26.061 77.2169C26.287 77.1569 27.1833 76.3542 28.05 75.5771C29.5168 74.2623 31.3429 72.6256 32.6671 71.9483C33.3966 71.575 34.1744 71.6155 34.9273 71.6537C35.7714 71.6973 36.5687 71.7378 37.1789 71.1634L40.9262 66.7731C40.9644 66.7279 41.0198 66.7038 41.0806 66.7077C41.1398 66.7108 41.1936 66.742 41.2263 66.7911C41.2988 66.8994 42.9986 69.4698 43.1062 71.6545C43.1233 72.0075 43.2847 73.8742 44.7421 75.9442C44.9323 76.2147 44.8894 76.5849 44.6408 76.8062L43.2987 78.0033C43.2449 78.0509 43.2153 78.1148 43.2153 78.1834C43.2106 79.0173 43.1865 81.7795 43.0929 82.3149C42.9807 82.9587 42.4694 83.5565 42.16 83.7241C41.5123 84.074 39.1181 83.7981 38.6746 83.7435C38.5499 83.809 37.8586 84.3024 36.6264 87.6381C35.1299 91.6886 38.0994 93.2209 38.2264 93.284C38.9489 93.6613 39.2825 94.0315 39.249 94.418C39.2163 94.7921 38.8476 95.0868 38.122 95.3182C36.1922 95.9332 33.2664 96.5099 30.1722 96.5099H30.173ZM26.319 77.5116C26.3462 77.5926 26.3883 77.7056 26.4296 77.8171C26.9066 79.0992 28.3571 83 26.6182 86.4737C25.4484 88.8111 23.0689 90.5227 19.5437 91.5624C19.4175 91.5998 19.3239 91.6933 19.2881 91.8196C19.253 91.9435 19.2826 92.0752 19.3684 92.1711C24.1585 97.5473 33.6553 96.3455 38.0082 94.9582C38.7658 94.7165 38.8655 94.4773 38.8741 94.3853C38.8827 94.2879 38.8196 94.019 38.0558 93.6199C38.0254 93.6051 34.6561 91.8835 36.2725 87.5072C37.6653 83.7373 38.4338 83.3819 38.6364 83.3624C38.6504 83.3609 38.6645 83.3616 38.6777 83.3624C39.7275 83.4957 41.5537 83.622 41.9808 83.3913C42.1896 83.2782 42.6277 82.7872 42.722 82.2487C42.7921 81.8465 42.828 79.8832 42.8389 78.1795C42.8396 78.0057 42.916 77.8381 43.0485 77.7196L44.3906 76.5225C44.4974 76.4274 44.5153 76.2747 44.4343 76.1585C42.9168 74.0035 42.7485 72.0418 42.7297 71.6708C42.644 69.939 41.4531 67.869 41.0471 67.2104L37.4587 71.4136C37.4548 71.4183 37.4502 71.423 37.4455 71.4277C36.7168 72.1213 35.7963 72.0738 34.907 72.0278C34.204 71.9919 33.4769 71.9545 32.8378 72.2811C31.5572 72.9366 29.7514 74.5546 28.3002 75.8554C27.2807 76.7688 26.6642 77.3151 26.3174 77.5084L26.319 77.5116Z" fill="#134E4A"/>
<path d="M44.4713 75.9247C44.3731 75.9247 44.2905 75.8491 44.2835 75.7493C44.2757 75.6457 44.3544 75.5553 44.4581 75.5475C44.8727 75.5178 45.1907 75.3503 45.4292 75.037C46.1314 74.1126 45.8992 72.2319 45.8056 71.6474L36.2932 73.1407C36.1911 73.1571 36.0937 73.0869 36.0773 72.984C36.061 72.8812 36.1311 72.7845 36.234 72.7689L45.9296 71.2468C46.0301 71.2312 46.1236 71.2967 46.1439 71.3957C46.1657 71.5024 46.6661 74.0315 45.7293 75.2653C45.4261 75.6651 45.0068 75.8873 44.4846 75.9247C44.4799 75.9247 44.4752 75.9247 44.4706 75.9247H44.4713Z" fill="#134E4A"/>
<path d="M36.2277 77.0627C35.4265 77.0627 34.1701 76.7674 33.4881 75.0932C33.0696 74.0644 33.206 73.1525 33.8544 72.6522C34.5278 72.1331 35.5652 72.1955 36.3765 72.8049C36.6805 73.0333 37.0803 73.6708 37.1247 73.7426C37.1793 73.8314 37.152 73.9475 37.064 74.0021C36.9759 74.0574 36.859 74.0294 36.8044 73.9413C36.6937 73.7628 36.3602 73.264 36.1505 73.1066C35.4748 72.5992 34.6252 72.5353 34.0851 72.9515C33.5715 73.3474 33.4811 74.0761 33.8381 74.9514C34.7546 77.203 36.7717 76.6395 36.8574 76.6146C36.958 76.5858 37.0624 76.6427 37.0912 76.7416C37.1209 76.8414 37.064 76.9458 36.9642 76.9755C36.9556 76.9778 36.6571 77.0627 36.2277 77.0627Z" fill="#134E4A"/>
<path d="M44.6464 60.4312C43.7555 58.9372 42.7969 57.6543 39.8687 57.0783C37.8633 56.6832 34.5938 58.1632 32.9844 59.8716C32.8503 60.0143 32.6368 60.019 32.5245 59.8771C32.1785 59.4406 31.357 58.4539 30.6298 58.3674C28.5239 58.1172 26.3674 60.8451 25.6005 62.248C25.0409 63.2729 24.097 65.5892 23.6208 68.282C23.5912 68.4504 23.4377 68.5751 23.2716 68.5595C22.6372 68.4987 21.3653 68.5018 20.2359 69.3373C18.222 70.8275 18.4402 73.0098 18.4636 73.2763C18.7372 76.3861 21.8984 78.6837 24.2942 79.9292C25.9208 80.7748 26.531 80.8956 27.4881 81.117C27.5435 81.1295 27.6011 81.1256 27.6557 81.1076C28.5021 81.2316 29.9401 81.2962 31.5417 80.7405C34.0872 79.8575 33.8947 75.6355 33.8947 75.6355L33.5744 74.8398C33.3803 74.3573 33.353 73.8133 33.5494 73.3317C34.1503 71.8633 36.3669 72.9661 36.4488 72.949C40.6185 72.0831 42.0923 70.8618 42.8499 70.0302C45.5645 67.0506 46.8037 64.0468 44.6471 60.4305L44.6464 60.4312Z" fill="#134E4A"/>
<path d="M45.1725 124.713C45.1623 124.711 45.1522 124.71 45.1421 124.709L36.0614 123.993C27.7383 123.337 19.7106 120.611 12.718 116.055C12.6634 116.02 12.6096 115.984 12.5551 115.949C11.4593 115.242 10.1179 115.02 8.85298 115.338L7.61999 115.648C6.84216 115.843 6.12356 116.229 5.5398 116.778C5.40496 116.905 5.31689 117.001 5.31689 117.035L6.48753 123.784C11.6899 134.771 19.6202 144.221 31.7054 150.418C34.2002 151.697 41.7338 154.071 51.8393 155.896C51.8222 153.456 51.7988 150.091 51.7988 150.087V132.8C51.7988 128.871 49.0265 125.488 45.1732 124.712L45.1725 124.713Z" fill="#134E4A"/>
<path d="M51.8363 156.085C51.8254 156.085 51.8137 156.085 51.8028 156.082C42.2077 154.35 34.385 152.006 31.6166 150.586C25.818 147.612 20.6896 143.723 16.3742 139.025C12.4289 134.73 9.04401 129.629 6.31459 123.865C6.30758 123.849 6.30212 123.833 6.299 123.816L5.12836 117.067C5.1268 117.057 5.12524 117.046 5.12524 117.035C5.12524 116.945 5.16577 116.867 5.40738 116.64C6.00751 116.075 6.75572 115.669 7.57096 115.464L8.80396 115.154C10.1149 114.825 11.5178 115.057 12.6541 115.789L12.8178 115.895C19.7567 120.417 27.7984 123.152 36.074 123.804L45.1951 124.525C45.199 124.525 45.2029 124.526 45.2068 124.527C49.1334 125.318 51.9836 128.797 51.9836 132.8V150.087L52.0241 155.895C52.0241 155.951 52 156.004 51.9571 156.041C51.9228 156.07 51.8799 156.085 51.8355 156.085H51.8363ZM6.6661 123.728C12.333 135.684 20.7863 144.608 31.7889 150.251C33.993 151.381 41.0878 153.749 51.6461 155.671L51.615 151.192C51.6103 150.523 51.6072 150.089 51.6072 150.087V132.8C51.6072 128.978 48.8871 125.656 45.139 124.898L45.1141 124.895L36.0451 124.18C27.7072 123.523 19.6047 120.767 12.6128 116.212L12.4507 116.107C11.4017 115.43 10.1063 115.217 8.8967 115.521L7.66371 115.83C6.91004 116.019 6.21951 116.394 5.66614 116.915C5.58197 116.994 5.53598 117.043 5.51182 117.072L6.66688 123.728H6.6661Z" fill="white"/>
<path d="M32.6738 155.669C18.8809 152.92 13.0153 149.614 8.79097 147.136C6.09507 145.554 4.44043 142.663 4.44043 139.539V118.984C4.44043 116.814 6.78327 115.452 8.67095 116.524C9.36694 116.919 10.031 117.33 10.6748 117.751C17.6316 122.295 25.6289 125 33.9153 125.654L43.0677 126.375C46.9288 127.145 49.7081 130.532 49.7081 134.466C49.7081 134.466 49.6364 157.085 49.3597 157.27C48.0994 158.11 32.6745 155.669 32.6745 155.669L32.6738 155.669Z" fill="white"/>
<path d="M43.2365 154.276C43.2217 154.276 43.2069 154.275 43.1921 154.271C40.5329 153.626 38.0193 152.926 35.9243 152.247C34.0172 151.63 32.5262 151.055 31.612 150.586C30.1218 149.822 28.6604 148.989 27.2684 148.112C18.3265 142.473 11.2886 134.345 6.35045 123.955C6.30602 123.861 6.34577 123.749 6.44008 123.704C6.53438 123.66 6.64661 123.7 6.69104 123.794C11.5973 134.118 18.5884 142.194 27.4695 147.794C28.8522 148.666 30.3034 149.493 31.7842 150.251C32.668 150.705 34.1801 151.286 36.0405 151.888C38.1269 152.564 40.6311 153.262 43.281 153.905C43.3823 153.929 43.4446 154.031 43.4197 154.132C43.3987 154.219 43.3215 154.276 43.2365 154.276Z" fill="#134E4A"/>
<path d="M132.969 113.36C143.341 113.36 151.748 104.896 151.748 94.4547C151.748 84.0134 143.341 75.5491 132.969 75.5491C122.598 75.5491 114.191 84.0134 114.191 94.4547C114.191 104.896 122.598 113.36 132.969 113.36Z" fill="white"/>
<path d="M128.001 77.0704C127.923 77.1842 128.153 77.5676 128.609 77.5676C129.064 77.5676 129.293 77.4912 129.483 77.9885C129.673 78.4857 129.407 80.17 129.673 80.7826C129.939 81.3952 130.396 81.7779 130.738 81.4334C131.08 81.0889 131.042 80.1708 131.46 79.9408C131.879 79.7109 133.399 78.7928 133.475 78.0275C133.551 77.2621 133.019 76.6877 131.689 76.5349C130.358 76.3822 128.572 76.2286 128.001 77.0704H128.001Z" fill="#134E4A"/>
<path d="M123.084 94.2175C122.907 94.3173 122.801 94.509 122.809 94.7132C122.837 95.3554 122.595 96.9547 122.088 97.4652C121.441 98.116 121.679 99.2882 121.669 99.7613C121.649 100.722 121.741 101.15 122.767 101.609C123.794 102.068 124.195 102.095 124.271 103.013C124.348 103.931 124.466 107.48 124.77 108.398C125.074 109.316 125.72 110.808 126.062 111.153C126.405 111.497 127.203 111.688 126.709 110.387C126.214 109.086 125.911 108.474 126.48 107.747C127.051 107.02 128.001 105.336 128.076 104.685C128.153 104.035 128.495 103.652 128.799 103.576C129.103 103.499 129.749 103.269 129.939 103.04C130.129 102.81 129.749 102.16 129.635 101.586C129.521 101.011 129.521 100.668 130.471 100.208C131.422 99.7488 130.966 98.4473 129.673 98.1028C128.381 97.7583 127.582 97.0311 127.735 96.304C127.887 95.5768 126.861 95.6532 126.253 95.3087C125.645 94.9642 125.663 94.4233 124.986 94.1653C124.071 93.8169 123.429 94.0227 123.085 94.216L123.084 94.2175Z" fill="#134E4A"/>
<path d="M146.639 93.4149C146.319 92.9309 146.359 92.1655 147.16 91.1172C147.789 90.2942 146.886 89.4704 146.47 89.1555C146.394 89.0978 146.428 88.977 146.523 88.9669C147.039 88.9085 148.235 89.0823 148.761 91.7626C149.442 95.2293 149.722 94.0197 150.082 93.6167C150.443 93.2138 149.768 92.4609 150.443 91.6815C150.867 91.1905 151.083 90.4743 151.193 89.8905C149.839 84.3919 146.095 79.8426 141.134 77.4265C141.141 78.0298 140.997 80.1333 138.551 79.2659C138.551 79.2659 137.029 78.5403 137.389 81.4832C137.749 84.4262 138.991 81.2814 139.231 81.1606C139.471 81.0398 140.112 80.8784 139.832 82.8534C139.832 82.8534 139.792 83.5385 138.551 83.4177C137.309 83.2969 137.069 83.9017 137.069 84.2236C137.069 84.5454 137.189 85.3926 136.509 85.9975C135.828 86.6023 136.029 88.1743 136.949 87.6505C137.87 87.1268 138.511 85.4737 139.351 85.3124C140.192 85.151 140.953 86.2398 141.753 85.9569C142.554 85.6748 142.193 84.3038 142.594 84.3038C142.995 84.3038 143.836 85.1097 143.715 85.7145C143.595 86.3193 142.353 86.6015 142.674 87.3271C142.994 88.0527 143.674 87.8111 143.875 88.2943C144.075 88.7783 142.874 89.3426 141.913 88.7378C140.952 88.133 140.792 89.0199 140.311 88.617C139.83 88.214 139.791 87.3676 139.11 87.6497C138.43 87.9319 138.029 88.4962 137.149 88.8991C136.268 89.3021 135.547 89.8266 135.547 90.3909C135.547 90.9551 135.867 91.5599 135.707 92.4469C135.547 93.3338 135.267 95.7523 138.15 95.269C141.033 94.785 140.673 96.2768 140.673 96.4381C140.673 96.5995 140.633 98.6952 140.913 99.0584C141.194 99.4208 141.834 100.469 140.913 101.84C139.992 103.211 140.353 106.274 141.194 105.871C142.034 105.468 142.875 103.896 143.916 103.089C144.957 102.284 146.398 98.7763 145.798 97.6875C145.197 96.5987 146.639 95.7125 146.839 94.9869C147.04 94.2613 146.959 93.8989 146.639 93.4149Z" fill="#134E4A"/>
<path d="M119.409 81.374C119.425 82.0458 119.306 82.7761 118.916 83.4612C117.737 85.5281 117.775 86.5608 117.661 88.6278C117.547 90.6947 120.141 94.3375 120.787 94.7202C121.433 95.1029 121.533 94.1926 121.533 93.4654C121.533 92.7382 121.257 91.8661 120.877 91.0244C120.496 90.1826 120.496 89.6464 120.611 89.3019C120.725 88.9574 121.181 88.8429 121.485 89.1873C121.789 89.5318 122.52 89.8374 122.872 89.6223C123.304 89.358 123.135 88.3222 123.287 87.9777C123.439 87.6332 124.276 87.4033 124.618 86.6769C124.96 85.9498 125.53 85.6435 126.214 85.299C126.898 84.9545 127.506 84.8017 127.621 84.5718C127.734 84.3419 127.582 83.8065 127.773 83.1939C127.963 82.5813 128.419 81.8541 128.229 81.5486C128.038 81.2423 127.469 80.745 126.404 81.5104C125.339 82.2757 125.074 82.2757 124.77 81.7013C124.466 81.1269 125.112 79.6344 126.442 79.6344C127.773 79.6344 128.038 79.1753 128.077 78.8308C128.115 78.4864 127.696 78.1037 127.24 78.0273C126.784 77.9509 126.708 78.2182 124.808 78.9844C123.539 79.4949 122.424 79.3756 121.822 79.2392C120.958 79.8815 120.151 80.5962 119.41 81.3748L119.409 81.374Z" fill="#134E4A"/>
<path d="M148.435 103.066C148.404 103.923 147.615 104.748 147.143 105.034C146.67 105.32 145.945 105.764 145.945 106.494C145.945 106.964 145.932 107.565 146.041 108.027C148.543 105.583 149.037 105.11 150.471 101.425C150.397 100.957 148.466 102.209 148.435 103.067V103.066Z" fill="#134E4A"/>
<path d="M132.972 113.55C122.514 113.55 114.005 104.984 114.005 94.4554C114.005 83.9267 122.514 75.3612 132.972 75.3612C143.431 75.3612 151.939 83.9267 151.939 94.4554C151.939 104.984 143.431 113.55 132.972 113.55ZM132.972 75.7377C122.722 75.7377 114.382 84.134 114.382 94.4554C114.382 104.777 122.722 113.173 132.972 113.173C143.223 113.173 151.562 104.777 151.562 94.4554C151.562 84.134 143.223 75.7377 132.972 75.7377Z" fill="#134E4A"/>
<path d="M120.706 112.412C120.285 113.031 120.469 113.875 121.108 114.264C124.57 116.37 128.628 117.581 132.967 117.581C145.653 117.581 155.937 107.227 155.937 94.4555C155.937 87.0061 152.438 80.3797 147.006 76.1507C146.414 75.6901 145.556 75.8234 145.13 76.4399C144.736 77.0096 144.858 77.7859 145.404 78.2107C150.23 81.9611 153.338 87.8431 153.338 94.4555C153.338 105.782 144.218 114.964 132.967 114.964C129.124 114.964 125.53 113.893 122.463 112.031C121.869 111.67 121.097 111.837 120.707 112.412H120.706Z" fill="#134E4A"/>
<path d="M134.282 116.177H131.702V124.847H134.282V116.177Z" fill="#134E4A"/>
<path d="M132.985 126.524C137.366 126.524 140.917 125.465 140.917 124.158C140.917 122.851 137.366 121.792 132.985 121.792C128.605 121.792 125.054 122.851 125.054 124.158C125.054 125.465 128.605 126.524 132.985 126.524Z" fill="#134E4A"/>
<path d="M97.2962 32.3489L81.6609 29.8385L89.6247 8.7467L105.259 11.2563L97.2962 32.3489Z" fill="#134E4A"/>
<path d="M79.547 29.1736L66.998 24.1551L74.4108 4.49036L86.8834 9.72706L79.547 29.1736Z" fill="#134E4A"/>
<path d="M81.689 29.8454C80.9587 30.1782 79.9292 29.8789 79.5449 29.1744L86.9281 9.45508C87.2866 10.176 88.3099 10.5073 89.0527 10.1971L81.6882 29.8454H81.689Z" fill="#134E4A"/>
<path d="M82.0716 28.7933C81.3413 29.1261 80.3117 28.8268 79.9275 28.1223L87.2343 8.62122C87.5928 9.34215 88.6161 9.67339 89.3589 9.36319L82.0708 28.7933H82.0716Z" fill="#134E4A"/>
<path d="M81.4223 29.1158C80.7528 29.1158 80.0677 28.7729 79.7614 28.2117C79.7349 28.1634 79.731 28.1065 79.7505 28.0551L87.0573 8.55401C87.0838 8.48387 87.1492 8.43555 87.2241 8.43165C87.3028 8.42775 87.369 8.46906 87.4026 8.53609C87.7073 9.14869 88.6231 9.46512 89.2856 9.18766C89.3549 9.15882 89.4352 9.17363 89.489 9.22585C89.5428 9.27807 89.5607 9.35756 89.535 9.42771L82.2469 28.8578C82.2298 28.9046 82.1939 28.9428 82.1487 28.9631C81.9227 29.0659 81.6733 29.1143 81.4215 29.1143L81.4223 29.1158ZM80.1355 28.1026C80.4808 28.6326 81.3062 28.8867 81.9227 28.6505L89.0517 9.6436C88.4095 9.74648 87.6987 9.49863 87.2825 9.0271L80.1348 28.1034L80.1355 28.1026Z" fill="#134E4A"/>
<path d="M68.0666 23.4803L79.9148 28.2377L80.7433 27.5363L87.4227 9.71322L86.019 9.16063L75.0889 3.22949L67.7073 20.7774L68.0666 23.4803Z" fill="white"/>
<path d="M79.9133 28.4261C79.8899 28.4261 79.8657 28.4214 79.8431 28.4129L67.9949 23.6547C67.9317 23.629 67.8873 23.5721 67.878 23.5043L67.5179 20.8014C67.5132 20.7678 67.5179 20.7343 67.5311 20.7032L74.9135 3.15524C74.9345 3.10614 74.9743 3.06795 75.0249 3.0508C75.0756 3.03288 75.1309 3.03755 75.1777 3.06327L86.0977 8.98896L87.4905 9.53687C87.5863 9.57428 87.6339 9.68183 87.598 9.77848L80.9187 27.6023C80.9078 27.6327 80.8883 27.6592 80.8641 27.6802L80.0364 28.3817C80.0021 28.4113 79.9585 28.4261 79.9148 28.4261H79.9133ZM68.2373 23.3461L79.8782 28.0208L80.582 27.4246L87.1795 9.82056L85.9488 9.33657C85.9418 9.33345 85.9348 9.33033 85.9278 9.32643L75.1808 3.49427L67.8998 20.8029L68.238 23.3461H68.2373Z" fill="#134E4A"/>
<path d="M67.7234 20.7041C67.6985 20.7695 67.7312 20.8428 67.7975 20.8662C68.8302 21.2317 76.2741 23.9081 78.9053 26.0436L80.7439 27.5362L87.7186 8.92438L86.2479 7.68359C83.9152 5.71564 77.3988 3.2216 75.3077 2.45001C74.9453 2.31673 74.5446 2.50066 74.409 2.8623L67.7227 20.7033L67.7234 20.7041Z" fill="white"/>
<path d="M80.7482 27.7247C80.7053 27.7247 80.6632 27.7099 80.6297 27.6826L78.7911 26.1901C76.1685 24.0616 68.5944 21.3462 67.7394 21.0438C67.6599 21.0157 67.596 20.9581 67.5609 20.8817C67.5251 20.8045 67.522 20.718 67.5516 20.6377L74.238 2.79677C74.4094 2.33927 74.9207 2.10467 75.3782 2.2738C77.3594 3.00409 84.0076 5.54333 86.3746 7.54012L87.8453 8.78091C87.9061 8.83235 87.9287 8.91653 87.9006 8.99135L80.9259 27.6031C80.9048 27.66 80.8573 27.7029 80.7988 27.7193C80.7825 27.7239 80.7661 27.7255 80.7497 27.7255L80.7482 27.7247ZM67.9265 20.7102C69.0379 21.1054 76.4117 23.7732 79.0289 25.8971L80.664 27.2244L87.5008 8.98277L86.1314 7.82772C83.8112 5.87068 77.2144 3.35247 75.2473 2.62686C74.9838 2.52944 74.6892 2.66505 74.5902 2.92849L67.9265 20.7094V20.7102Z" fill="#134E4A"/>
<path d="M80.7388 27.5359L82.1744 28.7673L96.5261 31.1234L103.616 11.8796L102.583 10.0971C102.555 10.0496 102.502 10.0231 102.448 10.0293C101.862 10.0987 98.54 10.4704 97.1629 10.1104C95.0484 9.55777 92.8256 9.57258 90.6869 10.0231L87.9427 10.6014L80.738 27.5359H80.7388Z" fill="white"/>
<path d="M96.5295 31.3121C96.5193 31.3121 96.5092 31.3113 96.4991 31.3098L82.1474 28.9537C82.1131 28.9482 82.0812 28.9334 82.0555 28.9108L80.6198 27.6794C80.5575 27.6256 80.5372 27.5383 80.5692 27.4627L87.7738 10.5282C87.798 10.4713 87.8479 10.43 87.9087 10.4175L90.6529 9.8392C92.9053 9.36455 95.1749 9.39495 97.2153 9.92805C98.5808 10.285 102.041 9.8883 102.43 9.84232C102.56 9.82673 102.685 9.88986 102.751 10.0029L103.783 11.7853C103.811 11.8337 103.817 11.8921 103.797 11.9451L96.7072 31.189C96.6799 31.2638 96.6082 31.3121 96.5303 31.3121H96.5295ZM82.2604 28.5905L96.4063 30.9123L103.411 11.8976L102.44 10.2203C101.718 10.3053 98.4982 10.6529 97.1187 10.2928C95.1351 9.77451 92.9256 9.74489 90.7293 10.2078L88.0809 10.7659L80.969 27.483L82.2597 28.5897L82.2604 28.5905Z" fill="#134E4A"/>
<path d="M87.2451 26.6756C88.1788 26.7185 89.1086 26.8471 90.0236 27.0637C93.0343 27.7769 95.604 28.557 95.604 28.557L102.51 10.1284C102.548 10.0294 102.494 9.91953 102.392 9.88914C101.748 9.69741 99.5126 9.04428 96.9648 8.44025C94.8028 7.92742 92.5535 7.90403 90.379 8.36154L87.7142 8.9227L80.7395 27.5345L83.5344 26.9647C84.758 26.7153 86.005 26.6179 87.2458 26.6748L87.2451 26.6756Z" fill="white"/>
<path d="M95.6081 28.7457C95.5902 28.7457 95.5715 28.7433 95.5535 28.7371C95.5535 28.7371 95.1272 28.6077 94.4203 28.4066C91.7275 27.6405 88.935 27.2516 86.1206 27.2492L83.8876 27.2477C83.784 27.2477 83.699 27.1635 83.699 27.0591C83.699 26.9546 83.7832 26.8705 83.8876 26.8705L86.1206 26.872C88.97 26.8744 91.7976 27.2687 94.5232 28.0434C94.9713 28.1705 95.3065 28.2695 95.4935 28.3256L102.338 10.0622C101.717 9.8837 99.4762 9.22902 96.9291 8.62499C94.8115 8.12306 92.5614 8.09579 90.422 8.54705L87.8586 9.08717L80.9205 27.6015C80.8839 27.6989 80.7748 27.7481 80.6781 27.7122C80.5807 27.6756 80.5308 27.5672 80.5675 27.4698L87.5422 8.85803C87.5648 8.79801 87.617 8.75281 87.6801 8.73956L90.3449 8.1784C92.5388 7.71622 94.8458 7.74428 97.0172 8.25868C99.5744 8.86504 101.824 9.52207 102.452 9.70912C102.55 9.73796 102.632 9.80732 102.677 9.89851C102.723 9.99048 102.728 10.098 102.692 10.1947L95.7858 28.6233C95.7577 28.6989 95.686 28.7457 95.6089 28.7457H95.6081Z" fill="#134E4A"/>
<path d="M99.0804 12.1783C99.0632 12.1783 99.0461 12.176 99.0289 12.1713L98.6018 12.049C97.8146 11.8222 97.2457 11.6585 95.704 11.2929C93.5888 10.7918 91.3402 10.7645 89.2 11.2158C89.0987 11.2376 88.9982 11.1721 88.9764 11.07C88.9545 10.9679 89.02 10.8682 89.1221 10.8464C91.3161 10.3842 93.6223 10.4115 95.7905 10.9259C97.3415 11.2937 97.9136 11.4582 98.7055 11.6865L99.1318 11.8089C99.2323 11.8377 99.29 11.9422 99.2612 12.0419C99.2378 12.1246 99.1622 12.1791 99.0796 12.1791L99.0804 12.1783Z" fill="#134E4A"/>
<path d="M98.4971 14.5157C98.48 14.5157 98.4628 14.5133 98.4449 14.5087C97.4387 14.2219 96.7225 14.0317 94.8886 13.5968C92.7733 13.0956 90.5248 13.0684 88.3854 13.5196C88.284 13.5414 88.1835 13.476 88.1617 13.3739C88.1398 13.2718 88.2053 13.172 88.3074 13.1502C90.5014 12.688 92.8068 12.7153 94.9759 13.2297C96.8168 13.6661 97.5369 13.8571 98.5486 14.1455C98.6491 14.1743 98.7068 14.2787 98.678 14.3785C98.6546 14.4611 98.579 14.5157 98.4971 14.5157Z" fill="#134E4A"/>
<path d="M97.3263 16.6722C97.3092 16.6722 97.292 16.6698 97.2741 16.6652C96.4784 16.4384 96.0232 16.3316 95.0256 16.097C94.7302 16.0276 94.3873 15.9473 93.975 15.8491C92.8581 15.5842 91.7069 15.4501 90.555 15.4501C90.4459 15.4509 90.3633 15.3667 90.3633 15.2615C90.3633 15.1563 90.4513 15.0737 90.555 15.0729C91.7366 15.0729 92.9158 15.2108 94.0615 15.4821C94.4738 15.5795 94.8167 15.6605 95.1113 15.7291C96.1152 15.9645 96.5727 16.072 97.3778 16.3012C97.4783 16.33 97.536 16.4345 97.5072 16.5342C97.4838 16.6168 97.4082 16.6714 97.3263 16.6714V16.6722Z" fill="#134E4A"/>
<path d="M96.754 19.0977C96.7369 19.0977 96.7197 19.0954 96.7018 19.0907C96.4688 19.0245 96.2482 18.9598 96.0269 18.8943C95.2685 18.6722 94.4852 18.4415 93.0847 18.1095C90.9694 17.6083 88.7209 17.5811 86.5807 18.0323C86.4793 18.0541 86.3788 17.9887 86.357 17.8866C86.3352 17.7845 86.4006 17.6847 86.5027 17.6629C88.6967 17.2007 91.0029 17.228 93.1712 17.7424C94.5819 18.0767 95.3706 18.3082 96.1328 18.5319C96.3534 18.5966 96.5732 18.6613 96.8047 18.7275C96.9052 18.7564 96.9629 18.8608 96.9341 18.9606C96.9107 19.0432 96.8351 19.0977 96.7532 19.0977H96.754Z" fill="#134E4A"/>
<path d="M94.7852 20.7243C94.7688 20.7243 94.7532 20.722 94.7368 20.7181C93.8702 20.4882 93.023 20.2754 92.2186 20.0845C90.1034 19.5833 87.8548 19.556 85.7154 20.0073C85.6141 20.0291 85.5136 19.9636 85.4917 19.8615C85.4699 19.7594 85.5354 19.6597 85.6375 19.6379C87.8315 19.1757 90.1369 19.203 92.3059 19.7174C93.1134 19.9091 93.9637 20.1226 94.8335 20.3533C94.934 20.3798 94.994 20.4835 94.9675 20.584C94.9449 20.6682 94.8686 20.7243 94.7852 20.7243Z" fill="#134E4A"/>
<path d="M91.2558 22.1459C91.2426 22.1459 91.2294 22.1443 91.2161 22.142C89.1733 21.7063 87.0947 21.7047 85.0387 22.1381C84.9374 22.1591 84.8368 22.0944 84.815 21.9923C84.7932 21.8902 84.8586 21.7905 84.9607 21.7686C87.0682 21.3244 89.199 21.326 91.294 21.7725C91.3961 21.7944 91.4608 21.8941 91.439 21.9962C91.4203 22.0851 91.3416 22.1451 91.2551 22.1451L91.2558 22.1459Z" fill="#134E4A"/>
<path d="M93.7534 25.3227C93.7363 25.3227 93.7191 25.3204 93.7012 25.3157C92.7433 25.0429 92.2913 24.9354 90.7917 24.5799L90.4223 24.4927C88.307 23.9915 86.0585 23.9642 83.9183 24.4155C83.817 24.4373 83.7164 24.3718 83.6946 24.2697C83.6728 24.1676 83.7383 24.0679 83.8404 24.0461C86.0344 23.5839 88.3406 23.6112 90.5088 24.1256L90.8782 24.2129C92.384 24.5698 92.8384 24.6774 93.8041 24.9525C93.9046 24.9813 93.9623 25.0858 93.9335 25.1855C93.9101 25.2681 93.8345 25.3227 93.7526 25.3227H93.7534Z" fill="#134E4A"/>
<path d="M80.7444 8.16523C80.7124 8.16523 80.6797 8.15665 80.6501 8.13951C78.785 7.05849 76.8607 6.20195 75.7797 5.79666C75.6823 5.76003 75.6324 5.6517 75.669 5.55428C75.7056 5.45685 75.814 5.40775 75.9114 5.4436C77.0057 5.85434 78.9534 6.72102 80.8387 7.81372C80.9291 7.86594 80.9595 7.98129 80.9073 8.0717C80.8722 8.13171 80.8091 8.166 80.7436 8.166L80.7444 8.16523Z" fill="#134E4A"/>
<path d="M83.3747 14.1159C83.3194 14.1159 83.264 14.0918 83.2274 14.045C81.8791 12.3514 79.636 11.1581 77.6384 10.1738C77.5449 10.1278 77.5067 10.0148 77.5527 9.92125C77.5987 9.82772 77.7117 9.78953 77.8052 9.83551C79.8386 10.8386 82.1253 12.0552 83.522 13.8104C83.5867 13.8922 83.5734 14.0107 83.4916 14.0754C83.4565 14.1027 83.4152 14.1167 83.3747 14.1167V14.1159Z" fill="#134E4A"/>
<path d="M82.2697 17.2864C82.2229 17.2864 82.1754 17.2685 82.1387 17.2334C80.3913 15.5468 78.7819 14.6879 76.8599 13.7402C75.5685 13.1034 74.8171 12.7808 74.0908 12.469C73.8788 12.3778 73.6683 12.2874 73.447 12.1908C73.3519 12.1487 73.3083 12.038 73.3496 11.9422C73.3917 11.8471 73.5031 11.8034 73.5982 11.8455C73.8188 11.9422 74.0284 12.0326 74.2396 12.123C74.9707 12.4371 75.7259 12.7613 77.0267 13.4027C78.9791 14.3653 80.6142 15.239 82.4006 16.963C82.4754 17.0355 82.4778 17.1547 82.4053 17.2295C82.3686 17.2677 82.3188 17.2872 82.2697 17.2872V17.2864Z" fill="#134E4A"/>
<path d="M81.592 19.5591C81.5445 19.5591 81.4969 19.5412 81.4595 19.5053C79.9553 18.0276 78.6389 17.3909 76.9726 16.5842C76.731 16.4673 76.4824 16.3473 76.2267 16.221C75.4847 15.8547 74.696 15.479 73.8823 15.1049C73.788 15.0613 73.7467 14.949 73.7904 14.8547C73.834 14.7604 73.9462 14.7191 74.0405 14.7628C74.8566 15.1392 75.6484 15.5157 76.3935 15.8835C76.6484 16.009 76.8954 16.129 77.1363 16.2452C78.7667 17.0339 80.1751 17.7151 81.7237 19.2365C81.7978 19.3097 81.7993 19.429 81.7261 19.503C81.6895 19.5404 81.6403 19.5591 81.592 19.5591Z" fill="#134E4A"/>
<path d="M80.764 21.7094C80.7157 21.7094 80.6673 21.6907 80.6307 21.6541C79.3206 20.3439 77.8771 19.6222 76.3488 18.8576C76.0105 18.6885 75.6699 18.5178 75.3293 18.3401C75.2373 18.2918 75.2015 18.178 75.249 18.086C75.2974 17.9941 75.4111 17.9582 75.5031 18.0057C75.8422 18.1827 76.1804 18.3518 76.5163 18.5201C78.0728 19.2988 79.5427 20.0337 80.8965 21.3875C80.9697 21.4608 80.9697 21.5808 80.8965 21.6541C80.8599 21.6907 80.8115 21.7094 80.7632 21.7094H80.764Z" fill="#134E4A"/>
<path d="M80.0501 24.1161C79.9947 24.1161 79.9394 24.092 79.9028 24.0452C78.4975 22.2799 73.5094 20.1623 71.2742 19.471C71.1744 19.4406 71.119 19.3346 71.1494 19.2348C71.1798 19.1351 71.2858 19.0797 71.3856 19.1101C73.6575 19.8124 78.7422 21.9806 80.1974 23.8098C80.2621 23.8917 80.2488 24.0101 80.167 24.0748C80.1319 24.1021 80.0906 24.1161 80.0501 24.1161Z" fill="#134E4A"/>
<path d="M96.5348 31.3123C96.4584 31.3123 96.3867 31.2655 96.3579 31.1899L95.4195 28.6865C95.3829 28.5891 95.4328 28.48 95.5302 28.4441C95.6268 28.4075 95.7359 28.4566 95.7726 28.5548L96.711 31.0582C96.7476 31.1556 96.6977 31.2647 96.6003 31.3006C96.5785 31.3084 96.5566 31.3123 96.534 31.3123H96.5348Z" fill="#134E4A"/>
<path d="M123.779 52.1395C124.012 53.7411 125.907 63.962 136.791 68.728C136.831 68.7451 136.874 68.749 136.916 68.7373C137.834 68.4895 148.422 65.3493 154.957 50.9712C155.008 50.8589 154.943 50.728 154.823 50.7054C153.322 50.4139 144.998 48.6385 141.563 44.4797C141.482 44.3815 141.332 44.3869 141.261 44.4929C140.443 45.7181 135.846 51.696 123.964 51.9236C123.85 51.9259 123.762 52.0265 123.779 52.1403V52.1395Z" fill="white"/>
<path d="M136.872 68.9321C136.82 68.9321 136.769 68.9212 136.72 68.9002C125.855 64.1428 123.881 54.1261 123.597 52.1667C123.581 52.0599 123.613 51.9508 123.683 51.8682C123.753 51.7848 123.856 51.7365 123.965 51.7342C135.761 51.5081 140.316 45.5747 141.11 44.3876C141.176 44.2879 141.283 44.2271 141.402 44.2209C141.522 44.2154 141.636 44.2653 141.714 44.3588C145.092 48.4498 153.261 50.2089 154.864 50.5199C154.977 50.5417 155.073 50.6134 155.126 50.7163C155.179 50.8207 155.182 50.9423 155.133 51.0491C148.606 65.4085 138.141 68.6025 136.97 68.9189C136.938 68.9275 136.905 68.9314 136.873 68.9314L136.872 68.9321ZM141.422 44.5989C140.611 45.8108 135.956 51.8815 123.972 52.1106L123.969 52.1114C124.088 52.9266 124.618 55.8431 126.46 59.1547C128.82 63.4008 132.324 66.5628 136.871 68.5541C138.025 68.2424 148.333 65.0944 154.79 50.8924C153.166 50.5737 144.883 48.7889 141.422 44.5981L141.422 44.5989Z" fill="#134E4A"/>
<path d="M151 52.4387C150.987 52.4387 150.973 52.4372 150.96 52.434C145.792 51.2922 141.03 47.7117 140.983 47.6751C140.9 47.612 140.884 47.4943 140.946 47.4109C141.009 47.3283 141.127 47.3111 141.21 47.3742C141.257 47.4101 145.954 50.9415 151.041 52.0654C151.142 52.088 151.207 52.1885 151.184 52.2898C151.165 52.3779 151.087 52.4379 151 52.4379V52.4387Z" fill="#134E4A"/>
<path d="M149.703 55.2747C149.687 55.2747 149.671 55.2724 149.656 55.2685C147.257 54.6442 144.874 53.4728 142.573 51.7869C142.489 51.7254 142.471 51.6077 142.533 51.5235C142.594 51.4393 142.713 51.4214 142.796 51.483C145.058 53.1407 147.398 54.2919 149.751 54.9037C149.851 54.9302 149.912 55.0331 149.885 55.1336C149.864 55.2186 149.787 55.2747 149.703 55.2747Z" fill="#134E4A"/>
<path d="M141.138 50.5953C141.094 50.5953 141.05 50.5805 141.014 50.5493C139.966 49.6476 139.385 48.9984 139.361 48.9711C139.291 48.8931 139.298 48.7739 139.375 48.7053C139.453 48.636 139.573 48.643 139.642 48.7201C139.648 48.7264 140.234 49.3795 141.261 50.2633C141.339 50.3311 141.349 50.4504 141.281 50.5291C141.244 50.5727 141.191 50.5946 141.138 50.5946L141.138 50.5953Z" fill="#134E4A"/>
<path d="M147.425 57.9234C147.4 57.9234 147.375 57.9187 147.35 57.9078C140.851 55.1028 137.598 50.3742 137.566 50.3267C137.507 50.2402 137.53 50.1233 137.617 50.0648C137.703 50.0064 137.82 50.029 137.878 50.1155C137.91 50.1622 141.107 54.8027 147.5 57.5618C147.596 57.6031 147.64 57.7137 147.598 57.8096C147.568 57.8805 147.498 57.9234 147.425 57.9234Z" fill="#134E4A"/>
<path d="M145.343 60.3012C145.313 60.3012 145.282 60.2942 145.254 60.2794C138.51 56.6903 135.578 51.3406 135.549 51.2868C135.5 51.1949 135.535 51.0811 135.627 51.0312C135.718 50.9821 135.832 51.0164 135.882 51.1076C135.91 51.1606 138.795 56.4136 145.432 59.9458C145.524 59.9949 145.559 60.1087 145.51 60.2007C145.477 60.2646 145.411 60.3005 145.343 60.3005L145.343 60.3012Z" fill="#134E4A"/>
<path d="M142.66 62.4967C142.631 62.4967 142.601 62.4897 142.573 62.4749C141.367 61.8444 140.198 61.0408 139.102 60.0869C139.023 60.0183 139.015 59.8998 139.083 59.8211C139.151 59.7424 139.271 59.7346 139.349 59.8024C140.423 60.7377 141.567 61.5241 142.748 62.1406C142.84 62.1889 142.875 62.3027 142.828 62.3946C142.794 62.4593 142.728 62.496 142.66 62.496V62.4967Z" fill="#134E4A"/>
<path d="M137.544 58.4906C137.493 58.4906 137.442 58.4703 137.405 58.4298C134.644 55.4237 133.316 52.317 133.303 52.2859C133.262 52.19 133.308 52.0793 133.403 52.0388C133.499 51.9983 133.61 52.0435 133.651 52.1393C133.664 52.1697 134.968 55.2187 137.682 58.1741C137.752 58.2505 137.748 58.3698 137.671 58.4407C137.635 58.4742 137.59 58.4906 137.544 58.4906Z" fill="#134E4A"/>
<path d="M136.521 64.4132H136.518C136.415 64.4116 136.331 64.3259 136.333 64.2214L136.354 62.8606C136.354 62.8139 136.337 62.771 136.303 62.7398C136.27 62.7094 136.228 62.6946 136.183 62.6985L134.278 62.8567C134.096 62.8715 133.922 62.7944 133.811 62.6494C133.698 62.5037 133.669 62.3119 133.731 62.1381L133.824 61.8802C133.853 61.7968 133.811 61.7375 133.792 61.7157C133.773 61.6947 133.72 61.6479 133.638 61.6689C133.39 61.7305 133.147 61.6183 133.032 61.3907C132.916 61.16 132.972 60.8942 133.171 60.7298L133.542 60.4235C133.625 60.3541 133.601 60.2653 133.592 60.2395C133.582 60.2154 133.546 60.1359 133.444 60.1359C133.444 60.1359 133.443 60.1359 133.442 60.1359L131.452 60.1624H131.45C131.347 60.1624 131.263 60.0798 131.261 59.9761C131.26 59.8717 131.343 59.7867 131.448 59.7852L133.437 59.7587C133.437 59.7587 133.442 59.7587 133.444 59.7587C133.671 59.7587 133.867 59.8958 133.945 60.1094C134.026 60.3284 133.962 60.5653 133.782 60.7142L133.411 61.0205C133.317 61.0984 133.355 61.1943 133.368 61.2216C133.381 61.2481 133.433 61.3315 133.546 61.3034C133.737 61.2559 133.938 61.3174 134.07 61.464C134.203 61.6113 134.245 61.8201 134.177 62.008L134.084 62.266C134.057 62.3423 134.092 62.3992 134.108 62.4211C134.123 62.4413 134.167 62.4889 134.245 62.4818L136.149 62.3236C136.298 62.3112 136.447 62.3626 136.557 62.4655C136.668 62.5691 136.73 62.7157 136.728 62.8676L136.707 64.2285C136.705 64.3313 136.621 64.414 136.518 64.414L136.521 64.4132Z" fill="#134E4A"/>
<path d="M133.411 23.0775C134.011 23.5443 134.628 23.9909 135.258 24.4149L135.651 24.6791C136.098 25.0556 136.152 25.7235 135.774 26.1678L133.508 28.8403L134.965 29.9377C135.619 30.5401 135.514 31.6009 134.756 32.0646L134.2 32.2922C131.613 33.3529 129.227 34.8494 127.147 36.7176C126.624 37.0371 125.956 36.9919 125.481 36.6038L122.436 34.6358C119.745 32.8962 117.254 30.8659 115.008 28.5815L112.952 26.4912C112.525 26.1467 112.46 25.5248 112.794 25.1L114.379 22.7868C116.463 19.6731 118.917 16.8245 121.688 14.3024C122.06 13.8488 122.731 13.7872 123.18 14.1652L125.697 16.7169C126.713 17.7473 127.796 18.7098 128.938 19.5983L133.411 23.0783V23.0775Z" fill="white"/>
<path d="M126.397 37.1167C126.032 37.1167 125.669 36.9951 125.372 36.7558L122.336 34.7933C119.638 33.049 117.128 31.0031 114.876 28.7125L112.828 26.63C112.333 26.2232 112.253 25.4866 112.649 24.9824L114.226 22.6793C116.313 19.5617 118.778 16.6982 121.553 14.1707C121.765 13.9182 122.062 13.7631 122.391 13.7327C122.724 13.7023 123.048 13.8044 123.304 14.0195L125.833 16.5829C126.839 17.6031 127.923 18.5672 129.055 19.4479L133.529 22.9279C134.123 23.3901 134.741 23.8374 135.366 24.2575L135.759 24.5217C135.764 24.5256 135.77 24.5295 135.775 24.5342C136.03 24.7485 136.185 25.0494 136.212 25.3814C136.239 25.7134 136.136 26.0353 135.919 26.2886L133.783 28.8084L135.08 29.7857C135.45 30.1255 135.626 30.5893 135.579 31.0702C135.532 31.551 135.268 31.9719 134.856 32.2237C134.847 32.2291 134.839 32.2338 134.83 32.2369L134.274 32.4645C131.7 33.5198 129.345 34.9975 127.275 36.8556C127.266 36.8634 127.257 36.8704 127.248 36.8758C126.986 37.0364 126.691 37.1151 126.397 37.1151L126.397 37.1167ZM122.507 14.1044C122.479 14.1044 122.453 14.106 122.426 14.1083C122.193 14.1294 121.984 14.2408 121.836 14.4209C121.83 14.4279 121.824 14.4349 121.818 14.4404C119.061 16.9492 116.612 19.7924 114.538 22.8905L112.953 25.2053C112.674 25.5607 112.732 26.0673 113.074 26.3432C113.079 26.3479 113.085 26.3525 113.09 26.358L115.145 28.4483C117.378 30.7194 119.867 32.7474 122.542 34.4769L125.587 36.4448C125.593 36.4487 125.598 36.4526 125.604 36.4573C126.012 36.7909 126.587 36.833 127.038 36.5648C129.138 34.6834 131.525 33.187 134.133 32.1177L134.674 31.8955C134.977 31.7046 135.171 31.3921 135.206 31.0343C135.242 30.6719 135.109 30.3227 134.84 30.0757L133.398 28.9908C133.357 28.9596 133.33 28.9128 133.324 28.8614C133.318 28.8099 133.334 28.7585 133.367 28.7187L135.633 26.0462C135.784 25.8693 135.856 25.6448 135.837 25.4141C135.819 25.1866 135.713 24.9792 135.54 24.8304L135.157 24.5724C134.526 24.1476 133.901 23.6948 133.299 23.2272L128.825 19.7472C127.68 18.8564 126.584 17.8814 125.566 16.8494L123.049 14.2977C122.903 14.1754 122.71 14.106 122.507 14.106V14.1044Z" fill="#134E4A"/>
<path d="M133.508 29.0282C133.469 29.0282 133.429 29.0157 133.395 28.99L131.772 27.7671C129.502 26.0572 127.428 24.0822 125.611 21.8976L124.447 20.4994C124.123 20.2055 123.761 20.1642 123.117 20.3435L121.74 20.7908C119.588 21.4907 117.546 22.4876 115.67 23.7541L112.751 25.8818C112.667 25.9434 112.549 25.9247 112.487 25.8405C112.426 25.7563 112.445 25.6386 112.529 25.5771L115.453 23.4454C117.363 22.1556 119.437 21.1431 121.623 20.4323L123.008 19.9826C123.584 19.8221 124.182 19.7426 124.712 20.2305C124.718 20.2359 124.724 20.2422 124.729 20.2484L125.901 21.6567C127.7 23.8188 129.752 25.7735 131.999 27.4663L133.622 28.6892C133.706 28.7515 133.722 28.87 133.66 28.9534C133.623 29.0025 133.566 29.0282 133.509 29.0282H133.508Z" fill="#134E4A"/>
<path d="M136.52 13.2507L134.449 11.4706C133.945 11.0381 133.197 11.056 132.714 11.5119L131.67 12.4986C130.117 13.9654 128.805 15.6661 127.779 17.5382L126.496 19.8779C126.363 20.1203 126.41 20.4227 126.612 20.6121C127.548 21.4943 130.046 24.3812 132.288 25.6999C132.67 25.9244 133.162 25.788 133.382 25.4045L134.867 22.8279C135.738 21.3166 136.798 19.9231 138.023 18.6815L139.4 17.2841C139.956 16.719 139.876 15.7908 139.231 15.3294L138.551 14.8438C137.851 14.3434 137.173 13.8111 136.519 13.25L136.52 13.2507Z" fill="white"/>
<path d="M132.682 25.9978C132.511 25.9978 132.342 25.9526 132.19 25.863C130.437 24.8318 128.571 22.8982 127.337 21.6184C126.99 21.2583 126.69 20.9481 126.479 20.7494C126.216 20.5008 126.154 20.1056 126.328 19.7869L127.61 17.4471C128.647 15.5548 129.969 13.8432 131.538 12.3608L132.582 11.3741C133.136 10.8504 133.99 10.8309 134.568 11.3274L136.64 13.1075C137.286 13.6624 137.966 14.1955 138.66 14.6904L139.339 15.176C139.691 15.4277 139.915 15.8198 139.953 16.2516C139.99 16.6833 139.836 17.1081 139.532 17.4167L138.155 18.8142C136.943 20.0441 135.891 21.4267 135.029 22.9223L133.544 25.499C133.41 25.7305 133.195 25.8965 132.936 25.9643C132.852 25.9861 132.767 25.997 132.682 25.997V25.9978ZM133.601 11.3453C133.328 11.3453 133.055 11.4466 132.841 11.6485L131.797 12.6352C130.257 14.0903 128.959 15.7707 127.941 17.6287L126.659 19.9685C126.567 20.136 126.6 20.3449 126.739 20.4751C126.956 20.6793 127.259 20.9933 127.609 21.3565C128.829 22.6215 130.673 24.5333 132.382 25.538C132.52 25.619 132.682 25.6416 132.84 25.6003C133 25.5582 133.134 25.4553 133.218 25.3112L134.703 22.7345C135.582 21.2108 136.653 19.8024 137.888 18.55L139.265 17.1525C139.492 16.9226 139.606 16.6062 139.578 16.2851C139.55 15.964 139.384 15.6717 139.121 15.4839L138.441 14.9983C137.739 14.4964 137.05 13.957 136.395 13.3943L134.323 11.6142C134.114 11.4349 133.858 11.3461 133.601 11.3461V11.3453Z" fill="#134E4A"/>
<path d="M138.021 18.8703C137.981 18.8703 137.942 18.8578 137.908 18.8329L136.301 17.628C135.989 17.3942 135.79 17.052 135.742 16.6654C135.693 16.2789 135.802 15.8985 136.046 15.5953L137.23 14.1301C137.296 14.049 137.414 14.0366 137.495 14.102C137.576 14.1675 137.589 14.286 137.523 14.367L136.34 15.8323C136.159 16.0552 136.08 16.335 136.115 16.6187C136.151 16.9031 136.297 17.1541 136.526 17.3264L138.133 18.5313C138.216 18.5936 138.233 18.7121 138.17 18.7955C138.134 18.8446 138.077 18.8711 138.019 18.8711L138.021 18.8703Z" fill="#134E4A"/>
<path d="M135.669 18.9622C135.633 18.9622 135.597 18.9521 135.565 18.9303C133.912 17.8228 131.581 15.0341 131.483 14.9164C131.416 14.8362 131.427 14.7177 131.507 14.6507C131.588 14.5844 131.706 14.5953 131.773 14.6748C131.796 14.7037 134.167 17.5399 135.774 18.617C135.861 18.6746 135.884 18.7923 135.826 18.8788C135.789 18.9334 135.73 18.9622 135.669 18.9622Z" fill="#134E4A"/>
<path d="M134.186 20.5599C134.146 20.5599 134.106 20.5474 134.072 20.5209C131.391 18.4618 130.216 16.8344 130.167 16.7658C130.107 16.6809 130.126 16.5632 130.211 16.5032C130.295 16.4424 130.413 16.4626 130.473 16.5468C130.485 16.5632 131.669 18.2007 134.301 20.2216C134.383 20.2848 134.399 20.4032 134.335 20.4858C134.298 20.5342 134.242 20.5599 134.185 20.5599H134.186Z" fill="#134E4A"/>
<path d="M9.03229 60.9589C6.95289 60.9589 5.05664 60.3548 3.53449 59.1811C0.135581 56.56 -0.904901 51.6039 0.819105 46.2464C0.851059 46.1474 0.957057 46.0928 1.05604 46.1248C1.15502 46.1567 1.20958 46.2627 1.17762 46.3617C-0.495722 51.5641 0.49488 56.3613 3.76441 58.8826C5.80875 60.4593 8.5709 60.9604 11.5404 60.294C14.4997 59.63 17.4692 57.8592 19.9024 55.3083C20.3817 54.8056 22.9607 55.712 24.5055 56.3192C23.5959 54.9264 22.1634 52.5843 22.4432 52.0497C22.4456 52.0458 22.4534 52.0318 22.4557 52.0279C26.4282 45.7094 26.1944 38.4564 21.9132 35.1549C19.7691 33.5018 16.8683 33.0342 13.7437 33.8385C10.6168 34.6436 7.54834 36.6427 5.10496 39.468C5.03715 39.5467 4.9179 39.5553 4.83919 39.4875C4.76047 39.4197 4.75189 39.3004 4.8197 39.2217C7.31296 36.3388 10.4484 34.2976 13.6494 33.4737C16.8885 32.6398 19.9048 33.1316 22.1432 34.8572C26.5794 38.2779 26.8507 45.746 22.7752 52.2282C22.6591 52.568 23.9178 54.7721 25.1524 56.6153C25.1984 56.6839 25.1945 56.7751 25.1415 56.8398C25.0892 56.9037 25.0012 56.9263 24.924 56.8951C22.5851 55.9373 20.4098 55.3309 20.1744 55.5702C17.6905 58.1749 14.6532 59.9838 11.6222 60.6643C10.7376 60.863 9.86936 60.9612 9.03073 60.9612L9.03229 60.9589Z" fill="#134E4A"/>
<path d="M9.39899 50.4559L8.06156 51.4527C7.87451 51.5914 7.61029 51.5572 7.46299 51.374L0.266899 42.4422C0.111801 42.2497 0.146094 41.9676 0.3425 41.821L2.37281 40.3082C2.56999 40.1617 2.85057 40.2093 2.99086 40.4135L9.49486 49.8612C9.62813 50.0545 9.58604 50.3171 9.39899 50.4559Z" fill="#134E4A"/>
<path d="M11.3265 55.2038C11.9543 54.8179 12.1237 53.9528 11.7049 53.2714C11.2861 52.5901 10.4376 52.3506 9.80981 52.7365C9.18202 53.1225 9.01262 53.9876 9.43145 54.669C9.85028 55.3503 10.6987 55.5898 11.3265 55.2038Z" fill="#134E4A"/>
<path d="M14.9423 47.9962L14.6984 47.4187C14.1505 46.2324 14.1092 44.7532 14.7857 43.0143C15.4029 41.4719 15.6726 40.3972 15.3297 39.3715C14.9408 38.2086 13.9431 37.8665 12.506 38.3115C11.6892 38.5788 10.9596 39.3333 10.5372 39.9521L9.4375 38.3162C10.0033 37.5236 11.1748 36.7356 12.3774 36.342C14.9867 35.4878 16.7084 36.72 17.2883 38.4526C17.8066 40.0028 17.3179 41.4018 16.6632 43.058C16.0615 44.57 16.0335 45.6923 16.491 46.8326L16.7123 47.4179L14.9423 47.997V47.9962ZM15.5105 51.3515C15.2284 50.5082 15.597 49.7295 16.392 49.4692C17.1862 49.2089 17.9289 49.6235 18.2111 50.4676C18.4776 51.2657 18.162 52.0521 17.3226 52.3265C16.5284 52.5868 15.7778 52.1488 15.5113 51.3515H15.5105Z" fill="#134E4A"/>
<path d="M45.3337 24.5995C51.2708 23.0097 54.7877 16.8803 53.1888 10.9091C51.59 4.9378 45.4808 1.38589 39.5436 2.97564C33.6065 4.56538 30.0896 10.6948 31.6885 16.666C33.2874 22.6373 39.3965 26.1892 45.3337 24.5995Z" fill="#134E4A"/>
<path d="M43.8884 24.8679C49.8255 23.2781 53.3424 17.1487 51.7435 11.1775C50.1446 5.20624 44.0355 1.65432 38.0983 3.24407C32.1612 4.83382 28.6443 10.9632 30.2432 16.9345C31.842 22.9057 37.9512 26.4576 43.8884 24.8679Z" fill="white"/>
<path d="M41.0322 25.4445C39.7735 25.4445 38.5101 25.2309 37.2864 24.8015C34.4183 23.7945 32.1129 21.7252 30.7941 18.974C28.0827 13.3156 30.452 6.50845 36.0753 3.80007C38.7891 2.49304 41.8521 2.32313 44.6984 3.32231C47.5666 4.32928 49.8728 6.39855 51.1907 9.14979C53.9022 14.8081 51.5329 21.6153 45.9096 24.3237C44.3625 25.0688 42.7016 25.4445 41.0322 25.4445ZM40.9527 3.05654C39.3394 3.05654 37.7346 3.41973 36.2389 4.13989C30.8027 6.75863 28.5129 13.3398 31.134 18.8111C32.4083 21.4711 34.6381 23.4726 37.4111 24.4461C40.1632 25.4117 43.1225 25.248 45.7459 23.9839C51.1822 21.3651 53.472 14.784 50.8509 9.31268C49.5766 6.65263 47.3468 4.65116 44.5737 3.67771C43.3906 3.2623 42.1693 3.05654 40.9527 3.05654Z" fill="#134E4A"/>
<path d="M46.7435 18.0698C46.7076 18.0698 46.6718 18.0597 46.639 18.0386L40.8903 14.2196C40.8505 14.1931 40.8217 14.1526 40.8108 14.1058L39.6004 8.96499C39.5762 8.86367 39.6393 8.76235 39.7407 8.73819C39.8412 8.71403 39.9433 8.77715 39.9675 8.87848L41.1607 13.9468L46.8479 17.7245C46.9344 17.7822 46.9586 17.8991 46.9009 17.9856C46.8643 18.0402 46.805 18.0698 46.7435 18.0698Z" fill="#134E4A"/>
<path d="M37.7373 5.75786C37.908 6.11404 37.7591 6.54037 37.406 6.71106C37.053 6.88174 36.6274 6.73132 36.4567 6.37514C36.2861 6.01896 36.4349 5.59263 36.788 5.42195C37.141 5.25126 37.5666 5.40168 37.7373 5.75786Z" fill="#134E4A"/>
<path d="M34.0508 8.49505C34.375 8.71796 34.4592 9.16299 34.2378 9.488C34.0165 9.81378 33.5746 9.8964 33.2503 9.67349C32.9261 9.45059 32.8419 9.00555 33.0633 8.68055C33.2846 8.35477 33.7265 8.27215 34.0508 8.49505Z" fill="#134E4A"/>
<path d="M32.4286 14.046C32.8078 13.9445 33.0325 13.5531 32.9304 13.1718C32.8283 12.7905 32.4381 12.5637 32.0589 12.6653C31.6797 12.7668 31.4551 13.1582 31.5572 13.5395C31.6593 13.9208 32.0494 14.1476 32.4286 14.046Z" fill="#134E4A"/>
<path d="M32.7394 17.3115C33.0932 17.1408 33.518 17.2912 33.6887 17.6474C33.8594 18.0036 33.7105 18.4299 33.3575 18.6006C33.0044 18.7713 32.5788 18.6208 32.4082 18.2647C32.2375 17.9085 32.3863 17.4822 32.7394 17.3115Z" fill="#134E4A"/>
<path d="M35.555 20.9513C35.7763 20.6255 36.2182 20.5429 36.5425 20.7658C36.8667 20.9887 36.9509 21.4337 36.7295 21.7587C36.5082 22.0838 36.0663 22.1671 35.742 21.9442C35.4178 21.7213 35.3336 21.2763 35.555 20.9513Z" fill="#134E4A"/>
<path d="M39.7627 22.8014C39.7915 22.4078 40.1329 22.114 40.5242 22.1444C40.9154 22.1748 41.2092 22.5185 41.1804 22.9121C41.1516 23.3057 40.8102 23.5995 40.4189 23.5691C40.0277 23.5387 39.7339 23.195 39.7627 22.8014Z" fill="#134E4A"/>
<path d="M44.3295 22.2894C44.1589 21.9333 44.3077 21.5069 44.6608 21.3363C45.0146 21.1656 45.4394 21.316 45.6101 21.6722C45.7808 22.0283 45.6319 22.4547 45.2788 22.6254C44.925 22.796 44.5002 22.6456 44.3295 22.2894Z" fill="#134E4A"/>
<path d="M48.023 19.5513C47.6988 19.3284 47.6146 18.8834 47.836 18.5584C48.0573 18.2334 48.4992 18.15 48.8235 18.3729C49.1477 18.5958 49.2319 19.0408 49.0105 19.3658C48.7892 19.6916 48.3473 19.7742 48.023 19.5513Z" fill="#134E4A"/>
<path d="M49.7747 15.3997C49.3834 15.3693 49.0896 15.0256 49.1184 14.632C49.1472 14.2384 49.4886 13.9445 49.8799 13.9749C50.2711 14.0053 50.565 14.349 50.5361 14.7426C50.5073 15.1362 50.1659 15.4301 49.7747 15.3997Z" fill="#134E4A"/>
<path d="M49.2508 10.8121C48.8969 10.9828 48.4722 10.8324 48.3015 10.4762C48.1308 10.12 48.2796 9.69371 48.6327 9.52302C48.9865 9.35233 49.4113 9.50276 49.582 9.85894C49.7527 10.2151 49.6038 10.6414 49.2508 10.8121Z" fill="#134E4A"/>
<path d="M46.5142 7.09517C46.2928 7.42096 45.8509 7.50357 45.5267 7.28067C45.2025 7.05776 45.1183 6.61273 45.3396 6.28773C45.561 5.96194 46.0029 5.87933 46.3271 6.10223C46.6514 6.32514 46.7355 6.77017 46.5142 7.09517Z" fill="#134E4A"/>
<path d="M42.3034 5.24496C42.2746 5.63855 41.9332 5.93238 41.542 5.90198C41.1507 5.87158 40.8569 5.52787 40.8857 5.13428C40.9146 4.74069 41.256 4.44686 41.6472 4.47726C42.0385 4.50765 42.3323 4.85137 42.3034 5.24496Z" fill="#134E4A"/>
<path d="M104.906 146.706C104.86 146.706 104.813 146.689 104.776 146.654C104.701 146.582 104.698 146.462 104.77 146.387L105.66 145.457C105.732 145.381 105.851 145.379 105.927 145.451C106.002 145.522 106.004 145.642 105.933 145.717L105.043 146.648C105.006 146.687 104.956 146.706 104.906 146.706Z" fill="#134E4A"/>
<path d="M101.792 149.962C101.745 149.962 101.698 149.945 101.662 149.909C101.586 149.838 101.584 149.718 101.655 149.643L102.545 148.712C102.617 148.637 102.736 148.634 102.812 148.706C102.888 148.778 102.89 148.898 102.818 148.973L101.928 149.903C101.892 149.942 101.842 149.962 101.792 149.962Z" fill="#134E4A"/>
<path d="M102.667 146.756C102.619 146.756 102.571 146.738 102.535 146.702L101.631 145.812C101.557 145.738 101.556 145.619 101.63 145.545C101.703 145.471 101.822 145.47 101.896 145.544L102.8 146.434C102.874 146.507 102.874 146.626 102.801 146.7C102.764 146.738 102.715 146.756 102.667 146.756Z" fill="#134E4A"/>
<path d="M105.832 149.872C105.785 149.872 105.736 149.854 105.7 149.817L104.797 148.927C104.722 148.854 104.722 148.735 104.795 148.661C104.868 148.587 104.987 148.586 105.061 148.659L105.965 149.549C106.039 149.623 106.04 149.742 105.966 149.816C105.93 149.853 105.881 149.872 105.832 149.872Z" fill="#134E4A"/>
<path d="M13.6877 12.653C13.5856 12.653 13.5014 12.5712 13.4991 12.4683L13.4703 11.1815C13.4679 11.0771 13.5505 10.9914 13.655 10.989C13.7555 10.9875 13.8451 11.0693 13.8475 11.173L13.8763 12.4597C13.8787 12.5642 13.796 12.6499 13.6924 12.6522C13.6908 12.6522 13.6893 12.6522 13.6885 12.6522L13.6877 12.653Z" fill="#134E4A"/>
<path d="M13.7865 17.1579C13.6844 17.1579 13.6003 17.0761 13.5979 16.9732L13.5699 15.6864C13.5675 15.582 13.6501 15.4963 13.7538 15.4939C13.8582 15.4924 13.944 15.5742 13.9463 15.6779L13.9752 16.9646C13.9775 17.0691 13.8949 17.1548 13.7904 17.1571C13.7889 17.1571 13.7873 17.1571 13.7865 17.1571V17.1579Z" fill="#134E4A"/>
<path d="M10.8685 14.2828C10.7649 14.2828 10.6807 14.1994 10.6799 14.0957C10.6799 13.9913 10.7633 13.9063 10.867 13.9056L12.1351 13.8962C12.2364 13.8931 12.3244 13.9796 12.3252 14.0833C12.3252 14.1877 12.2418 14.2726 12.1382 14.2734L10.8701 14.2828H10.8685Z" fill="#134E4A"/>
<path d="M15.3078 14.2499C15.2041 14.2499 15.1199 14.1665 15.1191 14.0628C15.1191 13.9584 15.2025 13.8734 15.3062 13.8726L16.575 13.8633H16.5766C16.6803 13.8633 16.7644 13.9467 16.7652 14.0503C16.7652 14.1548 16.6818 14.2397 16.5782 14.2405L15.3093 14.2499H15.3078Z" fill="#134E4A"/>
<path d="M118.163 143.872C117.247 143.872 116.501 143.127 116.501 142.21C116.501 141.293 117.247 140.548 118.163 140.548C119.08 140.548 119.826 141.293 119.826 142.21C119.826 143.127 119.08 143.872 118.163 143.872ZM118.163 140.924C117.455 140.924 116.877 141.501 116.877 142.209C116.877 142.918 117.454 143.495 118.163 143.495C118.873 143.495 119.449 142.919 119.449 142.209C119.449 141.5 118.873 140.924 118.163 140.924Z" fill="#134E4A"/>
<path d="M147.405 37.118C146.488 37.118 145.742 36.3721 145.742 35.4555C145.742 34.539 146.488 33.7931 147.405 33.7931C148.321 33.7931 149.067 34.539 149.067 35.4555C149.067 36.3721 148.321 37.118 147.405 37.118ZM147.405 34.1695C146.696 34.1695 146.119 34.7463 146.119 35.4555C146.119 36.1648 146.696 36.7415 147.405 36.7415C148.114 36.7415 148.69 36.1648 148.69 35.4555C148.69 34.7463 148.113 34.1695 147.405 34.1695Z" fill="#134E4A"/>
<path d="M148.041 25.8957C148.528 25.4087 148.528 24.6191 148.041 24.1321C147.554 23.6451 146.764 23.6451 146.277 24.1321C145.79 24.6191 145.79 25.4087 146.277 25.8957C146.764 26.3827 147.554 26.3827 148.041 25.8957Z" fill="#134E4A"/>
</svg>
