<svg width="155" height="159" viewBox="0 0 155 159" fill="none" xmlns="http://www.w3.org/2000/svg">
<path d="M124.094 64.0665L121.473 55.2352L97.6474 53.0983L96.084 65.0201C96.084 65.0201 120.502 70.1779 124.094 64.0673V64.0665Z" fill="white"/>
<path d="M113.716 67.2598C105.891 67.2598 96.6622 65.3409 96.0436 65.2097C95.9441 65.1884 95.8777 65.0952 95.8911 64.9941L97.4545 53.0723C97.468 52.9688 97.5635 52.8953 97.6647 52.904L121.49 55.0409C121.569 55.0481 121.636 55.1026 121.659 55.1792L124.28 64.0105C124.295 64.0619 124.289 64.118 124.261 64.1646C122.876 66.5219 118.566 67.259 113.716 67.259V67.2598ZM96.2996 64.8653C98.4989 65.3101 120.416 69.5847 123.882 64.039L121.323 55.4162L97.8148 53.3077L96.2988 64.8653H96.2996Z" fill="#134E4A"/>
<path d="M78.3057 31.3925L81.7019 33.9465C81.2911 35.5834 81.0194 37.2329 80.8914 38.8793L76.8703 40.223C74.8811 40.8882 73.6179 42.8427 73.8288 44.929C74.0398 47.0162 75.6679 48.6783 77.7504 48.9319L81.9705 49.4462C82.4303 51.0483 83.0228 52.6101 83.7409 54.1143L80.923 57.2972C79.5326 58.8677 79.4157 61.1918 80.6417 62.8935C81.8678 64.5951 84.109 65.2208 86.039 64.3992L89.94 62.7387C91.1273 63.8865 92.4245 64.9404 93.8173 65.8939L92.9688 70.0572C92.5501 72.1127 93.6111 74.1841 95.5236 75.0444C97.4362 75.9055 99.6901 75.3264 100.951 73.65L103.505 70.2539C105.142 70.6647 106.791 70.9364 108.438 71.0644L109.781 75.0855C110.447 77.0747 112.401 78.3379 114.487 78.1277C116.575 77.9168 118.237 76.2886 118.49 74.2062L119.005 69.9868C120.607 69.5271 122.169 68.9346 123.673 68.2165L126.856 71.0344C128.426 72.4248 130.75 72.5417 132.452 71.3156C134.154 70.0895 134.779 67.8483 133.958 65.9176L132.297 62.0166C133.445 60.8292 134.499 59.5321 135.452 58.1393L139.616 58.9878C141.671 59.4065 143.742 58.3455 144.603 56.4329C145.464 54.5203 144.885 52.2665 143.208 51.0057L139.812 48.4516C140.223 46.8147 140.495 45.166 140.623 43.5189L144.644 42.1751C146.633 41.5099 147.896 39.5555 147.685 37.4691C147.474 35.382 145.846 33.7198 143.764 33.4662L139.544 32.9519C139.085 31.3498 138.492 29.788 137.774 28.2839L140.592 25.101C141.982 23.5305 142.099 21.2063 140.873 19.5047C139.647 17.803 137.405 17.1773 135.475 17.9989L131.574 19.6595C130.387 18.5116 129.09 17.4578 127.697 16.5043L128.545 12.341C128.964 10.2854 127.903 8.21486 125.991 7.35376C124.078 6.49267 121.823 7.07174 120.563 8.7481L118.009 12.1443C116.372 11.7335 114.723 11.4617 113.077 11.3338L111.733 7.31268C111.068 5.32348 109.113 4.06028 107.027 4.27121C104.94 4.48214 103.277 6.11031 103.024 8.19274L102.51 12.4129C100.907 12.8727 99.3456 13.4644 97.8415 14.1833L94.6586 11.3654C93.0881 9.97496 90.7639 9.85804 89.0623 11.0841C87.3606 12.3102 86.735 14.5522 87.5565 16.4821L89.2171 20.3831C88.0693 21.5705 87.0154 22.8677 86.0619 24.2604L81.8986 23.412C79.8431 22.9933 77.7717 24.0542 76.9114 25.9668C76.0503 27.8794 76.6294 30.1332 78.3057 31.3941V31.3925ZM89.041 31.4249C94.439 19.4312 108.538 14.0853 120.531 19.4833C132.525 24.8814 137.87 38.9804 132.472 50.9733C127.074 62.9662 112.975 68.3128 100.982 62.9148C88.9896 57.5168 83.6429 43.4178 89.041 31.4249Z" fill="white"/>
<path d="M114.024 78.3458C112.023 78.3458 110.243 77.0834 109.596 75.1479L108.293 71.2485C106.731 71.1205 105.147 70.8598 103.582 70.4743L101.106 73.7678C99.7808 75.5287 97.4527 76.1275 95.4429 75.2229C93.4332 74.3184 92.3375 72.1783 92.7775 70.0193L93.6007 65.9824C92.2743 65.0668 91.0293 64.054 89.8972 62.9694L86.1147 64.5794C84.0876 65.442 81.7713 64.7966 80.4836 63.0081C79.1959 61.2203 79.316 58.8187 80.7767 57.1692L83.5093 54.0827C82.8315 52.6481 82.2635 51.1495 81.8187 49.6248L77.7265 49.1263C75.5391 48.8601 73.8572 47.1426 73.6352 44.9504C73.414 42.7574 74.719 40.7381 76.8086 40.0398L80.7072 38.7371C80.8352 37.1753 81.0959 35.5913 81.4814 34.0264L78.1887 31.5497C76.427 30.2257 75.829 27.8968 76.7335 25.8871C77.6381 23.8773 79.7766 22.7808 81.9372 23.2216L85.9741 24.0448C86.8897 22.7184 87.9025 21.4741 88.9871 20.3413L87.3771 16.5588C86.5136 14.5309 87.1599 12.2154 88.9484 10.9277C90.7362 9.64004 93.137 9.76012 94.788 11.2208L97.8745 13.9534C99.31 13.2756 100.809 12.7076 102.332 12.2628L102.831 8.17065C103.097 5.98316 104.815 4.30048 107.007 4.07928C109.199 3.85808 111.219 5.16236 111.917 7.25268L113.22 11.1513C114.784 11.2801 116.368 11.54 117.931 11.9255L120.408 8.6328C121.732 6.87111 124.061 6.27309 126.07 7.17763C128.08 8.08217 129.176 10.2223 128.736 12.3813L127.913 16.419C129.238 17.3338 130.483 18.3466 131.616 19.432L135.398 17.822C137.426 16.9593 139.742 17.6048 141.03 19.3933C142.318 21.1811 142.198 23.5826 140.737 25.2329L138.005 28.3194C138.682 29.7549 139.25 31.2535 139.695 32.7774L143.787 33.2759C145.975 33.5421 147.658 35.2595 147.879 37.4518C148.1 39.6448 146.795 41.6632 144.705 42.3624L140.807 43.6651C140.678 45.2285 140.418 46.8116 140.033 48.3758L143.325 50.8524C145.087 52.1773 145.685 54.5054 144.78 56.5151C143.876 58.5249 141.737 59.6214 139.577 59.1805L135.54 58.3574C134.623 59.6846 133.611 60.9296 132.527 62.0609L134.137 65.8434C135 67.8713 134.353 70.1867 132.566 71.4744C130.777 72.7621 128.376 72.642 126.726 71.1813L123.639 68.4487C122.205 69.1266 120.706 69.6946 119.181 70.1393L118.683 74.2315C118.417 76.419 116.699 78.1017 114.507 78.3229C114.345 78.3395 114.184 78.3474 114.024 78.3474L114.024 78.3458ZM103.504 70.0603C103.52 70.0603 103.536 70.0619 103.551 70.0659C105.179 70.4743 106.828 70.7453 108.452 70.8709C108.53 70.8772 108.596 70.9293 108.621 71.0028L109.965 75.0239C110.605 76.9404 112.454 78.1372 114.467 77.9342C116.477 77.7312 118.052 76.1883 118.297 74.1825L118.811 69.9632C118.82 69.8858 118.875 69.821 118.95 69.7996C120.538 69.3438 122.098 68.7521 123.588 68.0403C123.658 68.0064 123.742 68.0182 123.801 68.0703L126.983 70.8882C128.496 72.2281 130.699 72.3379 132.337 71.1568C133.977 69.9758 134.569 67.8523 133.778 65.9935L132.118 62.0925C132.087 62.0206 132.103 61.9376 132.157 61.8815C133.288 60.7108 134.343 59.4152 135.292 58.0295C135.336 57.9647 135.414 57.9331 135.491 57.9489L139.654 58.7974C141.634 59.2011 143.596 58.1962 144.425 56.3532C145.254 54.5109 144.705 52.3755 143.091 51.1605L139.694 48.6065C139.632 48.5591 139.604 48.4793 139.623 48.4035C140.031 46.7769 140.301 45.1273 140.428 43.5031C140.434 43.4249 140.486 43.3586 140.559 43.3341L144.581 41.9903C146.497 41.3496 147.694 39.4986 147.491 37.4881C147.288 35.4776 145.745 33.9031 143.739 33.6582L139.52 33.1439C139.442 33.1345 139.378 33.0799 139.356 33.0049C138.9 31.4178 138.309 29.8576 137.597 28.3668C137.563 28.2965 137.575 28.2128 137.627 28.1543L140.445 24.9714C141.785 23.4586 141.895 21.2569 140.714 19.6177C139.533 17.9776 137.41 17.3859 135.55 18.1767L131.649 19.8373C131.577 19.8681 131.494 19.8523 131.437 19.7986C130.265 18.6657 128.969 17.6111 127.585 16.6647C127.521 16.6204 127.489 16.5422 127.505 16.4656L128.353 12.3023C128.757 10.3226 127.752 8.36025 125.909 7.53076C124.066 6.70126 121.931 7.25031 120.716 8.86506L118.162 12.2612C118.116 12.3236 118.036 12.3521 117.96 12.3331C116.334 11.9255 114.686 11.6545 113.06 11.5281C112.982 11.5218 112.915 11.4697 112.891 11.3962L111.547 7.37513C110.906 5.4586 109.055 4.26255 107.045 4.46479C105.034 4.66782 103.46 6.21068 103.216 8.21647L102.701 12.4366C102.692 12.514 102.637 12.5788 102.562 12.6001C100.975 13.056 99.415 13.6469 97.9243 14.3587C97.8548 14.3926 97.7703 14.3808 97.7118 14.3287L94.5289 11.5107C93.0161 10.1717 90.8144 10.0603 89.1751 11.2414C87.5351 12.4224 86.9426 14.5459 87.7342 16.4048L89.3948 20.3057C89.4256 20.3776 89.4098 20.4606 89.3553 20.5167C88.2224 21.6882 87.1678 22.9846 86.2213 24.3687C86.1771 24.4335 86.0997 24.4651 86.0223 24.4493L81.859 23.6008C79.8793 23.1971 77.9169 24.202 77.0874 26.0451C76.2579 27.8881 76.807 30.0227 78.4217 31.2377L81.8179 33.7917C81.8803 33.8391 81.9088 33.9189 81.8898 33.9948C81.4814 35.6229 81.2104 37.2716 81.0848 38.8951C81.0785 38.9733 81.0264 39.0397 80.9529 39.0641L76.9318 40.4079C75.0153 41.0486 73.8185 42.8996 74.0215 44.9101C74.2245 46.9206 75.7674 48.4951 77.7732 48.74L81.9933 49.2543C82.0707 49.2638 82.1355 49.3183 82.1568 49.3933C82.6127 50.9812 83.2044 52.5414 83.9162 54.0314C83.9501 54.1017 83.9383 54.1854 83.8861 54.2439L81.0682 57.4268C79.7284 58.9396 79.6178 61.1413 80.7988 62.7805C81.9799 64.4198 84.1034 65.0123 85.9622 64.2215L89.8632 62.5609C89.9343 62.5301 90.0181 62.5459 90.0741 62.6004C91.2457 63.7325 92.5413 64.7871 93.9262 65.7351C93.9909 65.7794 94.0225 65.8576 94.0067 65.9342L93.1583 70.0975C92.7546 72.0772 93.7595 74.0395 95.6025 74.869C97.4448 75.6985 99.5801 75.1503 100.795 73.5347L103.349 70.1385C103.386 70.0888 103.444 70.0611 103.505 70.0611L103.504 70.0603ZM110.721 65.2074C107.431 65.2074 104.093 64.5288 100.903 63.0926C88.8307 57.659 83.4303 43.417 88.8639 31.3451C91.4961 25.4976 96.248 21.0246 102.244 18.7502C108.24 16.4766 114.763 16.6734 120.611 19.3056C132.682 24.7392 138.083 38.9812 132.649 51.0531C128.651 59.935 119.883 65.2058 110.721 65.2066L110.721 65.2074ZM110.766 17.5676C107.938 17.5676 105.105 18.0819 102.381 19.1152C96.4826 21.3525 91.8074 25.7528 89.2178 31.5055C83.8719 43.3815 89.1854 57.3928 101.061 62.7387C112.938 68.0838 126.949 62.7711 132.295 50.8943C137.64 39.0175 132.327 25.007 120.451 19.6611C117.354 18.2668 114.064 17.5676 110.766 17.5676Z" fill="#134E4A"/>
<path d="M79.9439 47.4933C79.9439 47.4933 77.2784 47.5912 73.9834 47.5786C73.2906 47.5762 71.4309 45.3516 70.2372 45.7284C69.3801 45.9994 71.0011 47.4585 70.7784 47.4577C68.6667 47.449 66.8442 47.4411 66.1838 47.438C65.6663 47.4348 65.4933 47.9649 65.7074 48.4357C66.0139 49.1096 66.6823 50.1295 67.7875 50.4858C69.7632 51.1225 73.5757 50.8357 74.7544 50.6066C77.3314 50.1058 79.3759 50.0686 79.3759 50.0686L79.9439 47.494V47.4933Z" fill="white"/>
<path d="M71.1979 51.0689C69.9473 51.0689 68.6525 50.9678 67.7275 50.67C66.4398 50.2552 65.762 49.0252 65.5305 48.5157C65.3804 48.1847 65.3891 47.8213 65.5542 47.5661C65.6901 47.356 65.9215 47.2406 66.1854 47.243C66.8111 47.2469 68.4803 47.2541 70.4506 47.262C70.4419 47.2509 70.4332 47.2398 70.4253 47.2296C70.114 46.8298 69.689 46.2816 69.8146 45.8779C69.8494 45.7665 69.941 45.618 70.1796 45.5429C71.0036 45.283 72.0377 46.0651 72.868 46.694C73.2953 47.0171 73.7796 47.3836 73.9842 47.3844C77.2374 47.3963 79.91 47.2999 79.9368 47.2991C79.9976 47.2967 80.0545 47.3228 80.0932 47.3686C80.1319 47.4144 80.147 47.476 80.1335 47.5353L79.5655 50.1099C79.5458 50.1976 79.4691 50.2608 79.3791 50.2624C79.3585 50.2624 77.3204 50.3058 74.7908 50.7972C74.1438 50.9228 72.7028 51.0697 71.1971 51.0697L71.1979 51.0689ZM66.1799 47.6317C66.044 47.6317 65.9437 47.6807 65.8805 47.7778C65.788 47.92 65.7896 48.1468 65.8844 48.3545C66.0945 48.8167 66.7068 49.9321 67.8468 50.2995C69.7901 50.926 73.5979 50.6321 74.7173 50.4148C76.8811 49.9945 78.6926 49.8982 79.2187 49.8776L79.6998 47.6957C78.9596 47.7194 76.6686 47.7834 73.9826 47.7731C73.6477 47.7715 73.1997 47.4326 72.6333 47.0036C71.8741 46.4293 70.9285 45.7136 70.2965 45.9134C70.2009 45.9435 70.1891 45.9814 70.1859 45.9932C70.1204 46.2034 70.5493 46.7548 70.7326 46.9902C70.9593 47.2817 71.0439 47.3907 70.9736 47.5337C70.938 47.6064 70.8637 47.6514 70.78 47.6514H70.7792C68.6676 47.6427 66.8443 47.6348 66.1838 47.6317H66.1807H66.1799Z" fill="#134E4A"/>
<path d="M97.9949 24.628C101.422 24.0141 108.779 23.5433 113.925 23.9731C115.502 24.105 116.997 24.7228 118.205 25.7442C121.751 28.7383 129.805 35.8561 130.373 44.6385C130.405 45.1394 130.182 45.6236 129.789 45.9365L129.721 45.5549C127.783 47.0978 125.31 47.3901 123.44 45.7666L121.772 44.5406C121.772 44.5406 124.636 54.8026 124.441 56.4513C124.246 58.1 119.225 60.9061 112.946 58.6048C107.916 56.761 101.116 56.5745 97.1061 57.6118C97.0406 57.6284 96.8676 59.4398 96.8036 59.4572C96.516 59.5362 96.2 59.4801 95.9022 59.3656C95.1778 59.0875 94.6998 58.3899 94.6824 57.6142L94.4217 45.9436L85.9111 44.302C85.9111 44.302 90.0199 26.0563 97.9949 24.628Z" fill="#134E4A"/>
<path d="M134.84 27.7988C134.745 28.2784 132.508 40.4214 131.493 42.8664C130.455 45.3667 129.501 48.4801 124.98 46.7587C118.229 44.1873 130.174 28.0548 130.876 26.9733C130.9 26.937 134.842 27.787 134.84 27.7988Z" fill="#134E4A"/>
<path d="M74.4532 50.7569L74.4287 47.8915C74.424 47.3085 74.902 46.8369 75.4842 46.8519C77.806 46.9112 83.2869 46.7216 85.4025 43.7994C87.1808 41.3433 87.7204 38.3942 87.7204 38.3942C87.7204 38.3942 96.69 37.0449 98.2368 44.3176C100.431 54.631 79.8995 52.3898 75.3443 51.7696C74.8364 51.7001 74.4572 51.2696 74.4532 50.7569Z" fill="#134E4A"/>
<path d="M131.665 27.3328L131.394 23.6561C131.394 23.6561 131.222 20.8422 131.773 20.3168C132.179 19.9305 132.754 20.8414 132.982 22.1212C133.019 22.3337 133.32 22.3345 133.356 22.1228C133.497 21.2877 133.526 20.6818 133.48 19.8255C133.43 18.9028 133.256 17.2769 134.122 17.2414C134.989 17.2051 136.995 19.4613 136.519 22.1899C136.043 24.9186 134.055 27.8518 134.055 27.8518L131.666 27.3328H131.665Z" fill="white"/>
<path d="M134.055 28.047C134.042 28.047 134.027 28.0454 134.014 28.0423L131.625 27.5232C131.541 27.5051 131.479 27.4332 131.473 27.3479L131.201 23.6712C131.171 23.1838 131.053 20.7364 131.64 20.1771C131.78 20.0436 131.954 20.0009 132.127 20.0586C132.63 20.2237 133.015 21.197 133.174 22.0881C133.301 21.2886 133.333 20.6985 133.287 19.8366L133.274 19.6028C133.224 18.7835 133.162 17.7637 133.586 17.2936C133.725 17.1396 133.903 17.0566 134.116 17.0479C134.493 17.0321 135.013 17.3481 135.491 17.8932C136.288 18.8025 137.028 20.4173 136.713 22.224C136.235 24.9629 134.3 27.8408 134.218 27.9617C134.181 28.0154 134.121 28.047 134.057 28.047H134.055ZM131.849 27.1741L133.966 27.6338C134.324 27.0801 135.915 24.5205 136.328 22.1568C136.619 20.4852 135.935 18.9905 135.197 18.1492C134.754 17.6436 134.335 17.4271 134.131 17.4358C134.023 17.4406 133.942 17.4777 133.874 17.5535C133.559 17.9027 133.621 18.9115 133.662 19.5791L133.676 19.8161C133.723 20.7103 133.691 21.3226 133.549 22.156C133.518 22.344 133.363 22.4752 133.174 22.476H133.173C132.982 22.476 132.826 22.3448 132.793 22.156C132.603 21.0903 132.212 20.4947 132.008 20.4275C131.982 20.4188 131.955 20.4149 131.909 20.4583C131.556 20.7957 131.525 22.5913 131.59 23.6444L131.852 27.1741H131.849Z" fill="#134E4A"/>
<path d="M100.95 17.0281C100.393 16.7753 100.105 17.1963 99.2745 17.0818C98.3929 16.9609 97.4228 16.3076 97.0586 15.3525C96.6194 14.1991 97.2529 13.0994 97.6519 12.4058C98.0493 11.7161 98.5549 10.9483 99.4317 10.6165C100.576 10.1843 101.054 10.8479 102.363 10.4403C103.428 10.1093 103.35 9.59579 104.298 9.3264C105.088 9.10205 107.365 9.23003 107.874 10.4403C108.198 11.2082 107.501 11.6758 107.848 12.8142C108.057 13.4976 108.386 13.5813 108.625 14.109C109.219 15.418 108.474 17.7169 107.058 18.4872C105.135 19.5323 101.911 17.4641 100.95 17.0281Z" fill="#134E4A"/>
<path d="M102.718 19.2242L102.271 22.8961C102.186 23.5953 101.682 24.1712 101.001 24.3489L99.1121 24.8411L99.3783 25.0433C102.662 27.5437 107.209 27.5476 110.497 25.0536L111.475 24.3118L109.129 23.788C108.455 23.6371 107.937 23.0976 107.815 22.4174L106.84 17.0083L102.719 19.2242H102.718Z" fill="white"/>
<path d="M104.944 27.1084C102.938 27.1084 100.933 26.4717 99.2603 25.1982L98.9941 24.996C98.9349 24.9509 98.9064 24.8759 98.9214 24.8032C98.9364 24.7305 98.991 24.6721 99.0628 24.6531L100.952 24.1609C101.56 24.0021 102.002 23.4966 102.078 22.8725L102.525 19.2006C102.533 19.1382 102.57 19.0829 102.627 19.0528L106.746 16.8369C106.801 16.8077 106.866 16.8061 106.923 16.833C106.979 16.8598 107.019 16.912 107.03 16.9736L108.005 22.3827C108.114 22.987 108.571 23.4642 109.17 23.5977L111.516 24.1214C111.589 24.138 111.647 24.1957 111.663 24.27C111.679 24.3442 111.651 24.4208 111.591 24.4667L110.613 25.2085C108.943 26.4756 106.942 27.1084 104.943 27.1084H104.944ZM99.5479 24.928C102.746 27.3264 107.19 27.3177 110.379 24.8988L111.023 24.4098L109.086 23.9769C108.334 23.8086 107.759 23.2098 107.622 22.4514L106.695 17.3062L102.899 19.3475L102.464 22.9191C102.368 23.7027 101.813 24.3379 101.049 24.537L99.5471 24.928H99.5479Z" fill="#134E4A"/>
<path d="M106.371 17.7533C106.371 17.7533 107.82 17.2074 107.275 16.009C106.731 14.8114 105.845 15.6954 105.845 15.6954C105.845 15.6954 105.022 12.7448 103.291 13.9084C101.561 15.0721 99.9221 15.4947 99.9221 15.4947C99.9221 15.4947 100.531 18.4643 101.626 20.4401C102.286 21.6314 103.122 22.4617 104.108 22.0612C106.807 20.9647 106.371 17.7525 106.371 17.7525V17.7533Z" fill="white"/>
<path d="M103.6 22.3622C102.848 22.3622 102.129 21.7507 101.456 20.5357C100.361 18.5568 99.757 15.6575 99.7317 15.5351C99.7111 15.4339 99.7736 15.3336 99.8739 15.3075C99.8897 15.3036 101.504 14.8778 103.183 13.7481C103.638 13.4416 104.083 13.3657 104.503 13.5206C105.298 13.8137 105.764 14.8715 105.945 15.3755C106.125 15.2625 106.39 15.1488 106.677 15.2009C106.998 15.2594 107.26 15.5043 107.453 15.9293C107.621 16.3006 107.639 16.6553 107.502 16.9839C107.301 17.4713 106.816 17.7581 106.577 17.8742C106.622 18.5355 106.649 21.2404 104.182 22.2421C103.986 22.3219 103.792 22.3614 103.6 22.3614V22.3622ZM100.151 15.633C100.3 16.2966 100.88 18.6935 101.796 20.3469C102.529 21.6709 103.282 22.1876 104.035 21.8827C106.559 20.8572 106.195 17.905 106.178 17.7802C106.166 17.691 106.218 17.6048 106.302 17.5725C106.308 17.5701 106.943 17.3236 107.143 16.8346C107.237 16.6063 107.222 16.363 107.099 16.0904C106.962 15.7886 106.797 15.618 106.608 15.5833C106.299 15.528 105.987 15.8305 105.984 15.8337C105.935 15.8827 105.864 15.9016 105.797 15.8842C105.73 15.8669 105.678 15.8147 105.66 15.7484C105.655 15.7326 105.216 14.1968 104.37 13.8848C104.069 13.7742 103.752 13.8342 103.402 14.0704C101.978 15.0287 100.631 15.4885 100.153 15.6322L100.151 15.633Z" fill="#134E4A"/>
<path d="M94.4204 46.1385C94.4133 46.1385 94.407 46.1385 94.3999 46.1377C94.2932 46.1266 94.2158 46.031 94.2269 45.9236C94.9134 39.4346 95.8835 33.9505 95.893 33.8952C95.9119 33.7893 96.0131 33.719 96.1181 33.738C96.224 33.7569 96.2943 33.858 96.2753 33.9631C96.2659 34.0176 95.2981 39.4891 94.6132 45.9639C94.6029 46.0634 94.5184 46.1377 94.4204 46.1377V46.1385Z" fill="white"/>
<path d="M24.4823 126.614L26.1981 127.527C26.1286 128.297 26.1223 129.061 26.1815 129.814L24.4594 130.707C23.6069 131.149 23.1748 132.122 23.4181 133.05C23.6615 133.979 24.5154 134.614 25.4745 134.581L27.4187 134.514C27.7402 135.206 28.1186 135.87 28.5499 136.499L27.5016 138.137C26.9842 138.945 27.0964 140.005 27.7718 140.687C28.4465 141.37 29.5043 141.493 30.3187 140.985L31.9643 139.958C32.5829 140.392 33.2433 140.777 33.9409 141.109L33.8524 143.051C33.8089 144.01 34.4354 144.87 35.3613 145.124C36.2871 145.377 37.2644 144.955 37.7154 144.109L38.6287 142.393C39.3973 142.462 40.1621 142.468 40.9157 142.409L41.8084 144.132C42.25 144.984 43.2233 145.416 44.1515 145.173C45.0798 144.929 45.7157 144.075 45.6825 143.116L45.6154 141.172C46.3074 140.851 46.971 140.472 47.5998 140.041L49.2383 141.089C50.0465 141.607 51.1058 141.495 51.7884 140.819C52.4709 140.144 52.5942 139.087 52.0862 138.272L51.0592 136.627C51.4937 136.008 51.8785 135.348 52.2102 134.65L54.1521 134.738C55.1111 134.782 55.9722 134.155 56.225 133.23C56.4786 132.304 56.0567 131.327 55.2099 130.875L53.494 129.962C53.5635 129.193 53.5698 128.429 53.5106 127.675L55.2328 126.782C56.0852 126.341 56.5173 125.368 56.274 124.439C56.0307 123.511 55.1767 122.875 54.2176 122.908L52.2735 122.975C51.9519 122.283 51.5735 121.62 51.1422 120.991L52.1905 119.353C52.7079 118.544 52.5958 117.485 51.9203 116.802C51.2457 116.12 50.1879 115.997 49.3734 116.505L47.7278 117.532C47.1093 117.097 46.4488 116.712 45.7513 116.381L45.8397 114.438C45.8832 113.479 45.2567 112.619 44.3309 112.365C43.405 112.111 42.427 112.533 41.9767 113.38L41.0634 115.096C40.294 115.027 39.5293 115.021 38.7764 115.079L37.8837 113.357C37.4421 112.505 36.4688 112.073 35.5406 112.316C34.6124 112.559 33.9764 113.413 34.0096 114.372L34.0767 116.317C33.3847 116.638 32.7211 117.017 32.0923 117.448L30.4538 116.4C29.6457 115.882 28.5863 115.994 27.9037 116.67C27.2212 117.344 27.0979 118.402 27.6059 119.217L28.6329 120.862C28.1984 121.481 27.8137 122.141 27.4819 122.839L25.5401 122.75C24.581 122.707 23.7199 123.333 23.4671 124.259C23.2135 125.185 23.6354 126.162 24.4823 126.613V126.614ZM29.3376 125.867C30.927 120.063 36.9207 116.646 42.7248 118.235C48.5289 119.824 51.9456 125.818 50.3569 131.622C48.7675 137.426 42.7738 140.843 36.9697 139.254C31.1656 137.665 27.7489 131.671 29.3376 125.867Z" fill="white"/>
<path d="M43.6244 145.436C42.8013 145.436 42.0326 144.984 41.6368 144.221L40.8034 142.612C40.1271 142.659 39.4343 142.654 38.7415 142.597L37.8883 144.2C37.3914 145.134 36.3312 145.591 35.3113 145.312C34.2907 145.032 33.6121 144.099 33.6595 143.042L33.7416 141.228C33.1167 140.923 32.5179 140.575 31.9594 140.191L30.4228 141.15C29.5254 141.71 28.3791 141.576 27.635 140.824C26.8908 140.072 26.7691 138.924 27.3395 138.033L28.3183 136.503C27.9359 135.934 27.5939 135.333 27.2984 134.713L25.4822 134.776C24.4228 134.812 23.4993 134.123 23.2307 133.099C22.9629 132.075 23.4314 131.021 24.3707 130.534L25.9791 129.701C25.9325 129.025 25.9381 128.332 25.9941 127.639L24.3912 126.786C23.4575 126.289 23.0001 125.229 23.2797 124.208C23.5594 123.187 24.49 122.508 25.5494 122.556L27.3632 122.638C27.6681 122.013 28.0165 121.415 28.4013 120.856L27.4422 119.319C26.8821 118.422 27.0164 117.276 27.7685 116.532C28.5205 115.787 29.6684 115.666 30.5595 116.236L32.0905 117.215C32.6601 116.833 33.2605 116.49 33.8799 116.195L33.8175 114.379C33.7811 113.322 34.47 112.396 35.4938 112.127C36.5169 111.86 37.5723 112.328 38.0589 113.267L38.8924 114.876C39.5694 114.829 40.2614 114.835 40.9543 114.891L41.8074 113.288C42.3044 112.354 43.3645 111.897 44.3852 112.176C45.4059 112.456 46.0845 113.389 46.0371 114.446L45.9549 116.26C46.5798 116.565 47.1786 116.913 47.7371 117.297L49.2737 116.338C50.1711 115.778 51.3174 115.912 52.0616 116.664C52.8057 117.416 52.9274 118.564 52.357 119.455L51.3782 120.986C51.7606 121.556 52.1034 122.156 52.3981 122.776L54.2135 122.713C55.2713 122.677 56.1964 123.366 56.465 124.39C56.7328 125.413 56.2643 126.468 55.325 126.955L53.7166 127.788C53.7632 128.464 53.7577 129.157 53.7016 129.85L55.3045 130.703C56.2383 131.2 56.6957 132.26 56.416 133.28C56.1364 134.301 55.2057 134.979 54.1464 134.932L52.3325 134.85C52.0276 135.476 51.6792 136.074 51.2945 136.632L52.2535 138.169C52.8136 139.066 52.6793 140.212 51.9273 140.957C51.1752 141.701 50.0273 141.822 49.1362 141.252L47.6052 140.273C47.0364 140.656 46.4352 140.998 45.8159 141.293L45.8783 143.109C45.9146 144.166 45.2257 145.091 44.2019 145.36C44.0092 145.411 43.8148 145.435 43.6244 145.435V145.436ZM40.9171 142.215C40.989 142.215 41.0562 142.255 41.0893 142.32L41.982 144.042C42.3849 144.819 43.2571 145.207 44.1032 144.985C44.9492 144.763 45.5196 143.997 45.4896 143.123L45.4225 141.179C45.4201 141.1 45.4643 141.028 45.5346 140.995C46.2148 140.679 46.8729 140.304 47.4914 139.88C47.5554 139.836 47.64 139.834 47.7063 139.877L49.3448 140.925C50.0818 141.397 51.0314 141.296 51.6531 140.681C52.2749 140.065 52.3863 139.117 51.9225 138.376L50.8955 136.73C50.8545 136.664 50.856 136.579 50.9011 136.515C51.3261 135.91 51.7076 135.255 52.0355 134.567C52.0695 134.497 52.1406 134.453 52.2196 134.457L54.1614 134.545C55.0319 134.585 55.8069 134.023 56.0384 133.179C56.2699 132.335 55.8915 131.458 55.1188 131.048L53.403 130.134C53.3342 130.097 53.294 130.023 53.3003 129.946C53.369 129.187 53.3745 128.428 53.3169 127.691C53.3105 127.613 53.3516 127.539 53.4211 127.503L55.1433 126.61C55.9199 126.207 56.3078 125.335 56.0858 124.489C55.8638 123.643 55.0928 123.07 54.2238 123.103L52.2796 123.17C52.1998 123.171 52.1295 123.128 52.0963 123.058C51.7803 122.378 51.4051 121.72 50.9809 121.101C50.9366 121.037 50.935 120.952 50.9777 120.886L52.026 119.248C52.4976 118.511 52.3973 117.562 51.7819 116.939C51.1665 116.317 50.2185 116.206 49.4767 116.67L47.8311 117.697C47.7648 117.738 47.6803 117.736 47.6163 117.691C47.0111 117.265 46.3554 116.884 45.6681 116.557C45.5978 116.523 45.5536 116.451 45.5575 116.373L45.646 114.43C45.6855 113.556 45.1238 112.785 44.2801 112.553C43.4372 112.322 42.5595 112.7 42.1487 113.473L41.2355 115.189C41.1984 115.257 41.1241 115.298 41.0467 115.29C40.2891 115.222 39.5299 115.216 38.792 115.274C38.7146 115.279 38.6404 115.239 38.604 115.17L37.7113 113.447C37.3084 112.671 36.4371 112.283 35.5902 112.505C34.7441 112.727 34.1737 113.492 34.2038 114.367L34.2709 116.311C34.2733 116.389 34.229 116.461 34.1587 116.494C33.4785 116.81 32.8205 117.186 32.2019 117.61C32.1379 117.654 32.0526 117.655 31.987 117.613L30.3486 116.565C29.6115 116.093 28.6627 116.194 28.0402 116.809C27.4185 117.424 27.3071 118.372 27.7708 119.114L28.7978 120.76C28.8389 120.826 28.8373 120.911 28.7923 120.974C28.3673 121.58 27.9849 122.235 27.6579 122.923C27.6239 122.993 27.5512 123.036 27.4738 123.033L25.532 122.945C24.6559 122.905 23.8864 123.467 23.655 124.311C23.4243 125.154 23.8019 126.031 24.5745 126.442L26.2904 127.355C26.3591 127.392 26.3994 127.467 26.3931 127.544C26.3244 128.302 26.3188 129.062 26.3765 129.799C26.3828 129.877 26.3417 129.95 26.2722 129.987L24.55 130.879C23.7735 131.282 23.3856 132.154 23.6076 133.001C23.8296 133.847 24.5943 134.419 25.4696 134.387L27.4138 134.32C27.4943 134.317 27.5639 134.362 27.597 134.432C27.9138 135.112 28.2891 135.771 28.7125 136.389C28.7568 136.454 28.7583 136.538 28.7157 136.604L27.6673 138.242C27.1957 138.979 27.2961 139.928 27.9115 140.551C28.5269 141.172 29.4749 141.284 30.2167 140.82L31.8622 139.793C31.9286 139.752 32.0131 139.753 32.0771 139.798C32.6822 140.223 33.3379 140.606 34.0252 140.933C34.0955 140.967 34.1398 141.039 34.1358 141.117L34.0473 143.059C34.0078 143.932 34.5695 144.704 35.4132 144.936C36.2569 145.166 37.1338 144.789 37.5446 144.016L38.4579 142.3C38.495 142.232 38.5693 142.191 38.6467 142.198C39.4059 142.267 40.1643 142.273 40.9013 142.214C40.9061 142.214 40.9116 142.214 40.9163 142.214L40.9171 142.215ZM39.8435 139.837C38.8766 139.837 37.8946 139.71 36.9174 139.442C34.06 138.66 31.6781 136.811 30.2111 134.238C28.7441 131.664 28.3665 128.673 29.1494 125.816C29.9315 122.958 31.7801 120.577 34.3539 119.109C36.9277 117.642 39.9186 117.265 42.776 118.048C48.6741 119.662 52.1587 125.775 50.544 131.673C49.1963 136.595 44.717 139.836 39.8435 139.836V139.837ZM39.8301 118.039C37.9957 118.039 36.1835 118.515 34.5466 119.448C32.0629 120.864 30.2799 123.162 29.5246 125.919C28.7694 128.676 29.1336 131.562 30.5492 134.046C31.9649 136.529 34.263 138.312 37.0201 139.068C37.9625 139.326 38.9105 139.448 39.8435 139.448C44.5464 139.448 48.8684 136.321 50.1687 131.571C51.7274 125.88 48.3644 119.981 42.6733 118.424C41.734 118.166 40.7789 118.039 39.8301 118.039Z" fill="#134E4A"/>
<path d="M49.2193 128.784C49.2193 123.551 44.9802 119.308 39.7512 119.308C34.5223 119.308 30.2839 123.551 30.2839 128.784C30.2839 134.018 34.523 138.26 39.7512 138.26C44.9794 138.26 49.2193 134.018 49.2193 128.784Z" fill="white"/>
<path d="M46.4165 135.674C44.7109 137.283 42.4136 138.271 39.884 138.271C37.3545 138.271 35.0564 137.283 33.3516 135.674C35.3242 135.062 37.5409 134.719 39.884 134.719C42.2271 134.719 44.4439 135.062 46.4165 135.674Z" fill="#134E4A"/>
<path d="M36.8317 123.248C37.2607 122.972 37.7599 122.825 38.2711 122.825H41.2762C41.9469 122.825 42.5931 123.078 43.0845 123.535L43.2496 123.688C44.0301 124.413 44.3027 125.534 43.9416 126.537L42.9534 129.279L36.6184 129.239L35.7241 126.243C35.386 125.109 35.8379 123.889 36.8325 123.248H36.8317Z" fill="#134E4A"/>
<path d="M38.3985 124.444C38.4119 124.438 38.4396 124.426 38.4396 124.426L42.986 127.379V129.16C42.986 130.179 42.5096 131.086 41.7686 131.673V134.387C41.7686 135.46 40.8988 136.33 39.826 136.33C38.7532 136.33 37.8834 135.46 37.8834 134.387V131.743C37.0895 131.159 36.572 130.221 36.572 129.16V127.271C36.572 126.013 37.3217 124.93 38.3985 124.443V124.444Z" fill="white"/>
<path d="M39.7792 132.561C37.9037 132.561 36.3774 131.035 36.3774 129.159V127.271C36.3774 125.454 37.8555 123.976 39.6717 123.976H42.9865C43.094 123.976 43.1809 124.063 43.1809 124.171V129.159C43.1809 130.49 42.398 131.706 41.1877 132.257C41.0898 132.301 40.9744 132.259 40.9302 132.161C40.8859 132.063 40.9286 131.947 41.0266 131.903C42.0994 131.415 42.7922 130.338 42.7922 129.159V124.365H39.6725C38.0704 124.365 36.7669 125.668 36.7669 127.271V129.159C36.7669 130.821 38.1186 132.173 39.7799 132.173C39.8874 132.173 39.9743 132.259 39.9743 132.367C39.9743 132.474 39.8874 132.561 39.7799 132.561H39.7792Z" fill="#134E4A"/>
<path d="M39.8848 138.459C37.3142 138.459 34.8937 137.466 33.0625 135.659C31.063 133.686 30.0147 130.945 30.1877 128.139C30.194 128.032 30.284 127.949 30.3939 127.957C30.5013 127.964 30.5827 128.056 30.5756 128.163C30.4097 130.857 31.4153 133.489 33.335 135.382C35.0935 137.117 37.4177 138.07 39.8848 138.07C39.907 138.07 39.9283 138.07 39.9504 138.07C42.4421 138.053 44.7781 137.067 46.5279 135.292C48.2777 133.519 49.232 131.169 49.2155 128.678C49.1981 126.186 48.2122 123.85 46.4378 122.1C42.9492 118.659 37.3513 118.511 33.6937 121.765C33.6131 121.836 33.4906 121.829 33.4195 121.749C33.3484 121.668 33.3555 121.546 33.4353 121.475C37.2455 118.086 43.0772 118.24 46.7112 121.825C48.559 123.648 49.5868 126.081 49.6041 128.676C49.6215 131.272 48.6277 133.719 46.8044 135.567C44.9819 137.414 42.5479 138.442 39.9528 138.459C39.9299 138.459 39.907 138.459 39.8848 138.459V138.459Z" fill="#134E4A"/>
<path d="M39.8271 136.523C38.6484 136.523 37.6902 135.565 37.6902 134.386V131.81C37.6902 131.703 37.7771 131.616 37.8845 131.616C37.992 131.616 38.0789 131.703 38.0789 131.81V134.386C38.0789 135.35 38.8633 136.134 39.8271 136.134C40.7909 136.134 41.5754 135.35 41.5754 134.386V131.673C41.5754 131.565 41.6623 131.478 41.7697 131.478C41.8772 131.478 41.9641 131.565 41.9641 131.673V134.386C41.9641 135.565 41.0058 136.523 39.8271 136.523Z" fill="#134E4A"/>
<path d="M97.3891 158.097C95.3264 158.097 93.5197 156.756 92.9335 154.751L91.7841 150.822C90.2183 150.632 88.6581 150.317 87.1429 149.885L84.5596 153.062C83.1779 154.76 80.8435 155.267 78.8819 154.292C76.9203 153.318 75.9131 151.152 76.4313 149.025L77.3983 145.058C76.1533 144.124 74.9596 143.068 73.8481 141.916L70.0245 143.375C67.9784 144.155 65.704 143.426 64.4922 141.602C63.2803 139.778 63.4912 137.398 65.0033 135.815L67.8299 132.857C67.1995 131.386 66.6883 129.876 66.3107 128.366L62.2794 127.719C60.1172 127.372 58.5119 125.603 58.3745 123.418C58.237 121.233 59.6092 119.277 61.7106 118.662L65.64 117.513C65.8296 115.949 66.144 114.388 66.577 112.872L63.4004 110.288C61.7019 108.907 61.1955 106.572 62.1696 104.611C63.1436 102.65 65.3098 101.643 67.4365 102.161L71.403 103.128C72.3384 101.882 73.3938 100.688 74.5448 99.5775L73.0865 95.7539C72.306 93.7078 73.0352 91.4335 74.8592 90.2216C76.6833 89.0098 79.0628 89.2199 80.646 90.7335L83.6045 93.5601C85.0747 92.9297 86.5836 92.4194 88.0956 92.041L88.7426 88.0096C89.0902 85.8474 90.8582 84.2421 93.0441 84.1047C95.2261 83.9672 97.1853 85.3394 97.7999 87.4408L98.9493 91.3702C100.514 91.5598 102.074 91.8743 103.591 92.3064L106.174 89.1298C107.556 87.4313 109.89 86.925 111.851 87.8982C113.812 88.8723 114.82 91.0384 114.301 93.1659L113.334 97.1325C114.58 98.067 115.773 99.1233 116.885 100.274L120.707 98.8159C122.753 98.0354 125.029 98.7646 126.24 100.589C127.451 102.413 127.241 104.792 125.728 106.375L122.901 109.334C123.532 110.805 124.042 112.314 124.42 113.825L128.451 114.472C130.613 114.819 132.218 116.588 132.356 118.773C132.493 120.958 131.121 122.914 129.02 123.529L125.09 124.678C124.901 126.243 124.586 127.803 124.153 129.319L127.33 131.902C129.028 133.284 129.535 135.619 128.561 137.58C127.587 139.542 125.421 140.549 123.295 140.031L119.328 139.064C118.394 140.309 117.338 141.502 116.186 142.614L117.645 146.438C118.425 148.484 117.696 150.759 115.872 151.97C114.048 153.182 111.668 152.971 110.085 151.459L107.126 148.632C105.655 149.263 104.145 149.774 102.635 150.151L101.988 154.183C101.64 156.345 99.872 157.95 97.6861 158.088C97.5858 158.094 97.4855 158.097 97.3859 158.097H97.3891ZM87.0733 149.469C87.0915 149.469 87.1097 149.471 87.1271 149.477C88.7015 149.933 90.3273 150.261 91.9571 150.452C92.0345 150.46 92.0993 150.515 92.1214 150.59L93.3064 154.642C93.8697 156.568 95.659 157.826 97.6648 157.7C99.6674 157.574 101.288 156.102 101.607 154.121L102.274 149.963C102.287 149.886 102.344 149.824 102.42 149.805C103.991 149.42 105.563 148.887 107.093 148.225C107.164 148.194 107.247 148.208 107.304 148.262L110.356 151.178C111.806 152.565 113.988 152.758 115.659 151.647C117.331 150.537 117.999 148.452 117.283 146.577L115.779 142.633C115.752 142.56 115.77 142.477 115.827 142.423C117.031 141.27 118.131 140.028 119.096 138.729C119.142 138.666 119.223 138.637 119.298 138.656L123.389 139.653C125.339 140.129 127.324 139.205 128.216 137.408C129.109 135.611 128.644 133.471 127.088 132.205L123.812 129.541C123.751 129.492 123.726 129.411 123.748 129.337C124.205 127.761 124.532 126.136 124.723 124.507C124.732 124.429 124.787 124.364 124.861 124.342L128.914 123.156C130.84 122.593 132.097 120.801 131.971 118.798C131.845 116.795 130.374 115.174 128.392 114.856L124.235 114.188C124.157 114.176 124.096 114.119 124.077 114.043C123.69 112.471 123.159 110.899 122.496 109.37C122.465 109.298 122.479 109.215 122.534 109.159L125.45 106.107C126.836 104.656 127.029 102.475 125.918 100.804C124.807 99.1319 122.723 98.4644 120.848 99.1793L116.904 100.683C116.832 100.711 116.749 100.693 116.694 100.636C115.542 99.4321 114.3 98.3325 113 97.3671C112.938 97.3205 112.909 97.2407 112.927 97.1648L113.924 93.0735C114.4 91.1238 113.477 89.1393 111.679 88.2466C109.882 87.3539 107.743 87.8176 106.476 89.3747L103.812 92.6508C103.763 92.7117 103.681 92.7369 103.607 92.7148C102.031 92.2582 100.406 91.9304 98.7771 91.7408C98.6997 91.7321 98.6349 91.6776 98.6128 91.6025L97.4278 87.5498C96.8645 85.6238 95.0752 84.3662 93.0694 84.4926C91.0668 84.6182 89.4457 86.0899 89.1273 88.0712L88.4598 92.229C88.4471 92.3064 88.3903 92.368 88.3144 92.387C86.7415 92.7733 85.1695 93.3049 83.6416 93.9677C83.5705 93.9986 83.4868 93.9843 83.4299 93.9298L80.3781 91.014C78.9277 89.6275 76.7465 89.4348 75.0749 90.5447C73.4033 91.6546 72.735 93.7394 73.4507 95.6141L74.9548 99.5577C74.9825 99.6304 74.9643 99.7134 74.9074 99.7679C73.7043 100.92 72.6046 102.162 71.6384 103.462C71.5918 103.524 71.512 103.554 71.4362 103.535L67.3448 102.538C65.3951 102.063 63.4107 102.986 62.518 104.783C61.6253 106.58 62.089 108.719 63.6461 109.986L66.9222 112.65C66.983 112.699 67.0083 112.781 66.9862 112.855C66.5296 114.431 66.2017 116.056 66.0113 117.685C66.0026 117.762 65.9473 117.827 65.8731 117.849L61.8204 119.035C59.8944 119.598 58.6375 121.391 58.7631 123.393C58.8887 125.396 60.3605 127.017 62.3418 127.336L66.4995 128.003C66.577 128.016 66.6386 128.073 66.6575 128.148C67.0431 129.72 67.5755 131.292 68.2383 132.821C68.2691 132.893 68.2549 132.976 68.2004 133.033L65.2845 136.085C63.8981 137.535 63.7053 139.716 64.8153 141.388C65.9252 143.06 68.0108 143.727 69.8855 143.012L73.8291 141.508C73.9026 141.48 73.9847 141.499 74.0392 141.555C75.1918 142.76 76.4353 143.86 77.7332 144.824C77.7957 144.871 77.8249 144.951 77.8059 145.027L76.809 149.118C76.3342 151.068 77.2569 153.052 79.0541 153.945C80.8514 154.838 82.9907 154.374 84.257 152.817L86.9217 149.541C86.9588 149.495 87.0149 149.469 87.0726 149.469H87.0733ZM95.4038 144.94C87.6753 144.94 80.0866 141.198 75.4999 134.292C72.8716 130.335 71.5097 125.792 71.5097 121.148C71.5097 119.564 71.6677 117.968 71.9884 116.379C73.2485 110.134 76.865 104.754 82.1714 101.229C87.4786 97.7044 93.8396 96.4578 100.085 97.7178C106.329 98.9779 111.709 102.594 115.234 107.902C117.923 111.951 119.21 116.53 119.21 121.061C119.21 128.789 115.469 136.379 108.563 140.964C104.514 143.654 99.9336 144.941 95.4038 144.941V144.94ZM71.8984 121.147C71.8984 125.716 73.2382 130.185 75.8238 134.077C82.9812 144.854 97.5724 147.797 108.348 140.64C115.141 136.128 118.822 128.663 118.822 121.061C118.822 116.603 117.556 112.099 114.91 108.116C111.443 102.895 106.151 99.3381 100.008 98.0986C93.8657 96.8591 87.6074 98.086 82.3871 101.553C77.1668 105.021 73.6095 110.313 72.3692 116.456C72.054 118.018 71.8984 119.589 71.8984 121.147Z" fill="#134E4A"/>
<mask id="mask0_242_5645" style="mask-type:luminance" maskUnits="userSpaceOnUse" x="57" y="50" width="98" height="95">
<path d="M133.132 52.8834L74.699 68.9779L57.5261 97.71L72.7058 114.31C70.7633 120.809 71.6157 128.092 75.662 134.184C82.8905 145.067 97.5725 148.029 108.455 140.801C115.022 136.439 118.703 129.364 119.004 122.047L141.556 117.856L154.556 90.3394L151.229 50.9661L133.132 52.8818V52.8834Z" fill="white"/>
</mask>
<g mask="url(#mask0_242_5645)">
<path d="M95.2669 92.6526C95.2669 92.6526 88.9177 89.762 86.7879 89.3054C84.6573 88.8488 81.017 85.2906 86.1464 80.681C87.8086 79.1871 87.412 76.7002 91.0222 75.0602C94.6325 73.421 98.3692 74.2939 99.5518 76.5209C100.734 78.7487 99.1718 81.5326 97.5887 82.3582C96.0055 83.1837 95.2677 92.6526 95.2677 92.6526H95.2669Z" fill="#134E4A"/>
<path d="M92.4318 97.4376L90.7073 102.723C90.7073 102.723 102.55 102.009 102.097 100.254C101.969 99.7562 101.666 99.3952 101.298 99.1329C99.4778 97.8381 100.219 92.4662 100.219 92.4662L103.368 89.7968C103.946 89.3078 104.059 88.4609 103.631 87.8368L102.095 85.6011C101.836 85.2235 101.76 84.7495 101.89 84.3111L102.161 83.3852L99.2281 81.4276L96.6701 78.4296C92.5867 79.4779 91.3464 81.0982 92.3062 84.1791C92.9216 86.1541 91.9025 86.5428 91.9025 86.5428C91.9025 86.5428 89.8446 85.4099 89.6992 87.6085C89.5539 89.8071 93.2645 90.0756 93.2645 90.0756C93.9842 90.8309 94.2314 91.9203 93.9075 92.9125L92.431 97.4376H92.4318Z" fill="white"/>
<path d="M90.7073 102.919C90.6473 102.919 90.5904 102.891 90.5533 102.843C90.5138 102.792 90.5019 102.725 90.5225 102.663L92.247 97.3775L93.7235 92.8524C94.0182 91.9502 93.8073 90.9651 93.1737 90.2628C92.6104 90.2091 89.3596 89.8022 89.5058 87.5958C89.5516 86.9014 89.7854 86.4337 90.201 86.2062C90.8187 85.8689 91.6237 86.1928 91.9002 86.3239C92.089 86.1975 92.5796 85.7093 92.1214 84.2375C91.6774 82.8124 91.7035 81.6858 92.2012 80.7939C92.8308 79.6658 94.2354 78.8545 96.6228 78.2415C96.6955 78.2233 96.7705 78.247 96.8195 78.3039L99.3601 81.2814L102.27 83.224C102.342 83.2714 102.373 83.3591 102.349 83.4404L102.076 84.3663C101.963 84.751 102.029 85.161 102.255 85.492L103.791 87.7277C104.278 88.4363 104.151 89.3907 103.494 89.946L100.402 92.5664C100.324 93.2063 99.8175 97.842 101.411 98.9757C101.864 99.298 102.158 99.7119 102.285 100.206C102.331 100.384 102.293 100.564 102.173 100.728C101.063 102.253 91.7746 102.855 90.7192 102.919C90.7152 102.919 90.7113 102.919 90.7073 102.919ZM90.8329 86.4456C90.6773 86.4456 90.5225 86.474 90.3866 86.5483C90.0959 86.7078 89.93 87.0689 89.8936 87.6219C89.7625 89.6016 93.244 89.8797 93.2788 89.882C93.327 89.8852 93.372 89.9065 93.4052 89.9421C94.1754 90.7502 94.4393 91.9123 94.0925 92.9733L90.9807 102.512C93.9874 102.315 101.038 101.626 101.859 100.498C101.924 100.408 101.92 100.346 101.909 100.303C101.805 99.8999 101.561 99.5595 101.185 99.2917C99.2906 97.9439 99.9953 92.6636 100.026 92.44C100.032 92.3926 100.056 92.3492 100.093 92.3184L103.244 89.649C103.747 89.2224 103.845 88.4909 103.471 87.9473L101.936 85.7117C101.642 85.2843 101.557 84.7542 101.703 84.2565L101.936 83.4681L99.1216 81.5903C99.1065 81.58 99.0931 81.5681 99.0813 81.5547L96.6023 78.6491C94.3966 79.2298 93.105 79.9724 92.5409 80.9835C92.0922 81.7885 92.0764 82.7855 92.4927 84.1222C93.1547 86.2473 92.0211 86.7063 91.9729 86.7252C91.9192 86.7458 91.8599 86.741 91.8102 86.7142C91.8039 86.7102 91.3117 86.4456 90.8337 86.4456H90.8329Z" fill="#134E4A"/>
<path d="M91.3408 83.8624L95.3381 86.6866C97.0335 87.8842 99.3458 87.6812 100.806 86.2063L102.054 84.9462L106.511 89.134C107.047 89.762 106.935 90.714 106.267 91.1998L102.79 94.2018C101.761 94.9507 100.397 95.0566 99.2644 94.4767L93.4832 91.5174C93.4832 91.5174 94.6224 89.4516 91.9024 86.5428C89.1825 83.6341 91.3408 83.8616 91.3408 83.8616V83.8624Z" fill="#134E4A"/>
<path d="M141.587 79.7891L134.078 83.5502C134.078 83.5502 134.937 96.9011 127.041 99.9568C123.242 101.427 119.923 101.189 117.5 100.547C113.832 99.5745 109.985 99.4947 106.296 100.385L91.4741 103.963C83.2826 105.94 77.0527 112.603 75.6394 120.911C74.1282 129.793 72.4905 141.516 72.2836 151.534C72.2456 153.381 74.0373 154.714 75.7911 154.135L114.082 141.487L115.539 117.608C120.327 118.008 127.316 117.449 136.126 113.611C154.751 105.496 141.587 79.7891 141.587 79.7891H141.587Z" fill="white"/>
<path d="M74.9433 154.467C74.3437 154.467 73.7567 154.276 73.2543 153.904C72.4943 153.342 72.0693 152.477 72.089 151.53C72.3015 141.265 74.0332 129.196 75.4481 120.878C76.8756 112.487 83.1482 105.773 91.4289 103.775L106.251 100.197C109.909 99.3137 113.817 99.3698 117.55 100.36C120.667 101.186 123.837 100.989 126.971 99.7758C134.643 96.807 133.893 83.6955 133.884 83.5636C133.879 83.4854 133.921 83.4119 133.991 83.3771L141.499 79.616C141.595 79.5678 141.711 79.6065 141.759 79.7013C141.832 79.8427 148.959 93.9678 145.182 104.532C143.681 108.734 140.66 111.848 136.203 113.79C127.2 117.713 120.125 118.157 115.72 117.818L114.275 141.499C114.271 141.579 114.218 141.647 114.143 141.672L75.8518 154.32C75.5516 154.419 75.2459 154.468 74.9433 154.468V154.467ZM111.539 99.9615C109.781 99.9615 108.034 100.165 106.342 100.574L91.5197 104.152C83.3907 106.114 77.2327 112.705 75.8312 120.942C74.4187 129.247 72.6902 141.296 72.4777 151.537C72.4603 152.356 72.8277 153.105 73.4857 153.59C74.1399 154.073 74.9575 154.204 75.7301 153.949L113.896 141.342L115.344 117.594C115.348 117.542 115.372 117.493 115.412 117.459C115.451 117.425 115.503 117.408 115.554 117.412C119.9 117.777 126.983 117.381 136.048 113.431C140.402 111.534 143.352 108.495 144.817 104.399C148.312 94.6195 142.297 81.6897 141.499 80.0481L134.279 83.6655C134.308 84.3196 134.395 87.3524 133.712 90.6451C132.687 95.5794 130.406 98.8618 127.112 100.136C123.898 101.38 120.648 101.58 117.45 100.732C115.507 100.217 113.516 99.9591 111.54 99.9591L111.539 99.9615Z" fill="#134E4A"/>
<path d="M133.342 68.113C133.417 67.6035 134.083 65.9366 134.459 65.397L138.112 58.7524C138.112 58.7524 139.578 60.8885 139.207 62.5562C140.843 62.0751 142.215 61.9282 142.215 61.9282C142.215 61.9282 143.923 59.0099 144.403 58.4451C144.882 57.881 145.473 57.0421 146.284 56.7869C147.096 56.5301 148.103 56.8841 148.103 56.8841L145.409 64.2847L137.752 69.3849L142.442 82.0011L134.077 83.5503L133.342 68.113Z" fill="white"/>
<path d="M134.077 83.7453C134.034 83.7453 133.991 83.7303 133.956 83.7035C133.912 83.6687 133.885 83.6166 133.883 83.5605L133.148 68.1232C133.148 68.1106 133.148 68.0979 133.15 68.0853C133.227 67.5599 133.898 65.8694 134.293 65.295L137.942 58.6591C137.974 58.5998 138.035 58.5619 138.103 58.5588C138.168 58.5564 138.235 58.5872 138.273 58.6433C138.331 58.7278 139.615 60.6222 139.447 62.2867C140.707 61.9391 141.776 61.7882 142.097 61.7472C142.385 61.2566 143.811 58.8431 144.254 58.3202C144.321 58.2428 144.389 58.159 144.459 58.0737C144.911 57.5239 145.473 56.8397 146.225 56.6027C147.089 56.3302 148.122 56.6865 148.166 56.7015C148.215 56.7189 148.255 56.7544 148.277 56.8018C148.299 56.8484 148.302 56.9029 148.284 56.9511L145.591 64.3518C145.577 64.3905 145.551 64.4245 145.516 64.4474L137.987 69.4622L142.623 81.9339C142.643 81.9876 142.638 82.0476 142.61 82.0974C142.581 82.1472 142.532 82.1819 142.476 82.193L134.111 83.7422C134.099 83.7445 134.087 83.7453 134.075 83.7453H134.077ZM133.537 68.124L134.26 83.3195L142.179 81.8525L137.57 69.4528C137.538 69.3682 137.57 69.2734 137.644 69.2229L145.248 64.1574L147.849 57.0112C147.534 56.929 146.883 56.801 146.342 56.9717C145.7 57.1747 145.179 57.809 144.76 58.3186C144.688 58.4063 144.619 58.4908 144.552 58.5706C144.089 59.1157 142.401 61.9968 142.384 62.026C142.353 62.079 142.298 62.1145 142.237 62.1208C142.223 62.1224 140.861 62.2725 139.263 62.7426C139.196 62.7623 139.125 62.7449 139.075 62.6983C139.025 62.6509 139.003 62.5814 139.018 62.5142C139.292 61.2858 138.49 59.7516 138.124 59.1362L134.63 65.4917C134.627 65.4981 134.623 65.5036 134.619 65.5091C134.259 66.0242 133.622 67.62 133.538 68.124H133.537Z" fill="#134E4A"/>
<path d="M61.6599 145.123C61.6599 145.123 63.2138 114.521 83.143 108.349L88.4865 124.527C88.4865 124.527 69.4753 147.121 67.6512 154.163C65.8271 161.205 61.6599 145.123 61.6599 145.123Z" fill="white"/>
<path d="M61.6597 145.318C61.6597 145.318 61.6526 145.318 61.6494 145.318C61.542 145.312 61.4598 145.22 61.4654 145.114C61.4693 145.037 61.888 137.339 64.7438 128.988C66.4226 124.078 68.6037 119.903 71.2257 116.579C74.5113 112.415 78.5008 109.584 83.0851 108.164C83.1886 108.133 83.2968 108.19 83.3284 108.292C83.36 108.395 83.3031 108.504 83.2004 108.535C72.9866 111.699 67.7276 121.468 65.1151 129.105C62.2751 137.406 61.858 145.057 61.854 145.134C61.8485 145.237 61.7632 145.318 61.6597 145.318V145.318Z" fill="#134E4A"/>
<path d="M67.6504 154.358C67.629 154.358 67.6085 154.355 67.5872 154.348C67.486 154.313 67.4315 154.202 67.4663 154.101C70.1112 146.407 85.2814 128.109 85.4339 127.925C85.5019 127.843 85.6243 127.831 85.708 127.9C85.791 127.968 85.8021 128.091 85.7333 128.174C85.5809 128.357 70.4564 146.601 67.8344 154.228C67.8068 154.308 67.7309 154.359 67.6504 154.359V154.358Z" fill="#134E4A"/>
<path d="M105.652 101.334L105.292 99.0412C105.172 98.2757 104.366 97.4273 103.701 97.8262C98.1525 101.157 89.1284 98.2244 87.6029 98.9006C83.2983 100.809 76.1054 111.709 77.732 110.857C84.5844 107.269 96.1365 109.8 101.367 107.906C105.383 106.451 105.651 101.333 105.651 101.333L105.652 101.334Z" fill="#134E4A"/>
<path d="M99.0533 125.524C98.9593 125.524 98.8771 125.456 98.8613 125.361L95.6911 105.797C95.6737 105.691 95.7456 105.591 95.8522 105.574C95.9597 105.557 96.0584 105.63 96.075 105.735L99.2452 125.299C99.2626 125.405 99.1907 125.505 99.0841 125.522C99.0738 125.523 99.0628 125.524 99.0525 125.524H99.0533Z" fill="#134E4A"/>
<path d="M103.792 121.24C103.707 121.24 103.628 121.183 103.605 121.096L99.3722 105.465C99.3437 105.361 99.4054 105.254 99.5088 105.226C99.6123 105.198 99.7198 105.259 99.7474 105.363L103.98 120.994C104.009 121.098 103.947 121.204 103.844 121.233C103.826 121.238 103.81 121.24 103.792 121.24Z" fill="#134E4A"/>
<path d="M98.9544 124.958C98.6218 125.027 98.3888 125.263 98.4354 125.485L98.8446 127.459C98.8904 127.681 99.1977 127.804 99.5303 127.735C99.8629 127.667 100.096 127.43 100.05 127.209L99.6409 125.235C99.5951 125.013 99.2878 124.89 98.9552 124.958H98.9544Z" fill="#134E4A"/>
<path d="M103.703 120.572C103.376 120.663 103.16 120.914 103.221 121.133L103.766 123.074C103.827 123.292 104.142 123.393 104.469 123.302C104.796 123.21 105.012 122.959 104.951 122.741L104.406 120.8C104.345 120.582 104.03 120.48 103.703 120.572Z" fill="#134E4A"/>
</g>
<path d="M95.4031 144.94C92.5426 144.94 89.7017 144.427 87.0245 143.432C82.6376 141.8 78.6932 138.871 75.8271 134.773C75.7165 134.615 75.6075 134.454 75.5 134.292C75.4984 134.29 75.4961 134.287 75.4945 134.284C72.8701 130.33 71.5098 125.79 71.5098 121.148C71.5098 119.564 71.6678 117.968 71.9885 116.379C73.2485 110.134 76.8651 104.754 82.1715 101.229C82.1747 101.227 82.1778 101.225 82.181 101.223C82.1834 101.222 82.1865 101.219 82.1889 101.218C82.1889 101.218 82.1889 101.218 82.1897 101.218C82.1929 101.216 82.1952 101.214 82.1984 101.212C85.2904 99.1644 88.7111 97.8917 92.3656 97.4311C92.473 97.4169 92.5694 97.4936 92.5828 97.5994C92.5963 97.7061 92.5204 97.8032 92.4146 97.8167C92.3861 97.8206 92.3577 97.8238 92.3293 97.8277C92.3293 97.8277 92.3285 97.8277 92.3277 97.8277C88.7553 98.2914 85.4105 99.5452 82.3872 101.553C77.4829 104.81 74.0464 109.679 72.6205 115.35C72.6197 115.355 72.6189 115.359 72.6173 115.364C71.0065 121.763 72.1757 128.584 75.8247 134.077C82.9821 144.854 97.5732 147.797 108.349 140.64C108.351 140.638 108.353 140.637 108.356 140.635C108.356 140.635 108.357 140.635 108.357 140.634C108.359 140.634 108.361 140.632 108.363 140.631C108.363 140.631 108.364 140.63 108.365 140.63C108.365 140.63 108.368 140.628 108.369 140.627C115.484 135.891 119.472 127.528 118.745 119.057C118.745 119.057 118.745 119.056 118.745 119.055C118.71 118.657 118.666 118.259 118.611 117.86L118.594 117.743C118.594 117.743 118.594 117.742 118.594 117.741C118.589 117.71 118.585 117.679 118.581 117.648C118.579 117.638 118.578 117.629 118.578 117.619C118.578 117.525 118.648 117.442 118.744 117.427C118.85 117.411 118.95 117.484 118.965 117.59C118.977 117.664 118.987 117.739 118.997 117.813V117.819C118.997 117.819 118.998 117.819 118.998 117.82C119.008 117.896 119.018 117.97 119.028 118.046C119.157 119.058 119.222 120.074 119.222 121.088C119.222 123.804 118.758 126.506 117.844 129.08C117.648 129.634 117.431 130.183 117.193 130.724C117.102 130.931 117.007 131.137 116.911 131.341C116.91 131.343 116.908 131.346 116.907 131.348C116.907 131.35 116.905 131.352 116.904 131.353C116.904 131.353 116.904 131.354 116.904 131.355C116.377 132.464 115.768 133.526 115.081 134.533C115.079 134.537 115.076 134.54 115.074 134.544C113.36 137.057 111.201 139.197 108.654 140.904C108.653 140.905 108.651 140.906 108.65 140.907C108.648 140.908 108.647 140.908 108.647 140.909C108.619 140.927 108.591 140.946 108.564 140.965C104.516 143.654 99.9353 144.94 95.4055 144.941L95.4031 144.94Z" fill="#134E4A"/>
<path d="M31.9123 89.4854L30.0242 99.2339C30.0242 99.2339 47.4901 104.268 55.3127 95.8329L53.0217 89.4861H31.9123V89.4854Z" fill="#134E4A"/>
<path d="M2.91949 65.5951L7.05037 67.7937C6.88289 69.6447 6.86867 71.4853 7.01087 73.2992L2.86577 75.4479C0.814951 76.5113 -0.226261 78.8536 0.359914 81.0877C0.945299 83.3226 3.00165 84.8528 5.31002 84.7738L9.98915 84.6127C10.7633 86.2772 11.6742 87.8753 12.7123 89.3898L10.1898 93.3334C8.94478 95.2791 9.21495 97.8285 10.8392 99.4709C12.4634 101.113 15.0096 101.411 16.9687 100.187L20.9298 97.7147C22.4181 98.7607 24.0092 99.6865 25.6871 100.485L25.4746 105.16C25.3695 107.467 26.8776 109.54 29.1062 110.15C31.334 110.76 33.6882 109.745 34.7736 107.706L36.9722 103.575C38.8231 103.742 40.6638 103.757 42.4776 103.614L44.6264 107.759C45.6898 109.81 48.0321 110.852 50.2662 110.265C52.5011 109.68 54.0313 107.624 53.9523 105.315L53.7911 100.636C55.4557 99.8619 57.0538 98.951 58.5682 97.913L62.5127 100.435C64.4584 101.68 67.0077 101.41 68.6501 99.7853C70.2925 98.1611 70.5904 95.6149 69.3667 93.6549L66.894 89.6939C67.9399 88.2056 68.8658 86.6145 69.6645 84.9366L74.3389 85.1491C76.6465 85.2541 78.7194 83.746 79.3293 81.5175C79.9391 79.2897 78.924 76.9355 76.885 75.85L72.7542 73.6515C72.9216 71.8005 72.9359 69.9599 72.7937 68.146L76.9387 65.9973C78.9896 64.9339 80.0308 62.5916 79.4446 60.3575C78.8592 58.1226 76.8029 56.5924 74.4945 56.6714L69.8154 56.8325C69.0412 55.168 68.1303 53.5699 67.0923 52.0562L69.6147 48.1118C70.859 46.166 70.5896 43.6167 68.9653 41.9743C67.3411 40.3319 64.795 40.0341 62.835 41.257L58.874 43.7297C57.3856 42.6837 55.7946 41.7579 54.1166 40.9592L54.3291 36.284C54.4342 33.9764 52.9261 31.9043 50.6975 31.2936C48.4697 30.6837 46.1156 31.6989 45.0301 33.7379L42.8316 37.8687C40.9806 37.7013 39.1399 37.687 37.3261 37.8292L35.1773 33.6841C34.114 31.6333 31.7716 30.5921 29.5375 31.1783C27.3027 31.7637 25.7724 33.82 25.8522 36.1284L26.0134 40.8075C24.3481 41.5817 22.7507 42.4926 21.2363 43.5306L17.2918 41.0082C15.3461 39.7639 12.7968 40.0333 11.1544 41.6575C9.51199 43.2818 9.21416 45.8279 10.4371 47.7879L12.9098 51.7489C11.8638 53.2373 10.9379 54.8283 10.1392 56.5063L5.46485 56.2938C3.15728 56.1887 1.08434 57.6968 0.474462 59.9254C-0.135413 62.1531 0.879729 64.5073 2.9187 65.5928L2.91949 65.5951ZM14.6059 63.7971C18.431 49.8261 32.8579 41.6014 46.8289 45.4274C60.8 49.2525 69.0246 63.6794 65.1987 77.6504C61.3735 91.6215 46.9466 99.8461 32.9756 96.0202C19.0046 92.195 10.7799 77.7681 14.6059 63.7971Z" fill="white"/>
<path d="M48.9952 110.625C47.1142 110.625 45.3565 109.592 44.4535 107.849L42.364 103.817C40.6347 103.946 38.8596 103.933 37.0837 103.78L34.9452 107.797C33.8091 109.931 31.3862 110.976 29.055 110.337C26.7229 109.699 25.1706 107.566 25.2804 105.151L25.4874 100.605C23.8805 99.832 22.3463 98.9385 20.9236 97.947L17.0723 100.352C15.0215 101.632 12.4019 101.326 10.701 99.6068C9.00097 97.8878 8.7229 95.265 10.0256 93.2276L12.4785 89.3922C11.491 87.9402 10.6134 86.4005 9.86681 84.8102L5.31644 84.9674C2.89906 85.0512 0.784249 83.4751 0.171214 81.1368C-0.441822 78.7976 0.62941 76.3873 2.77582 75.275L6.80716 73.1855C6.67918 71.4554 6.69182 69.6803 6.84508 67.9044L2.82796 65.7658C0.6934 64.6298 -0.350972 62.2077 0.287343 59.8756C0.925658 57.5436 3.05785 55.9912 5.47365 56.1011L10.0201 56.308C10.7927 54.702 11.6854 53.1678 12.6776 51.7442L10.2737 47.893C8.99307 45.8422 9.29959 43.2218 11.0186 41.5217C12.7376 39.8217 15.3604 39.5436 17.397 40.8463L21.2332 43.2992C22.6852 42.3117 24.2257 41.434 25.8152 40.6875L25.658 36.1371C25.5743 33.7205 27.1495 31.6049 29.4887 30.9919C31.8271 30.3789 34.2381 31.4501 35.3504 33.5965L37.44 37.6278C39.1708 37.4999 40.9459 37.5125 42.7211 37.6658L44.8596 33.6486C45.9956 31.5141 48.4177 30.4697 50.7498 31.108C53.0818 31.7463 54.6342 33.8793 54.5244 36.2943L54.3182 40.8407C55.9234 41.6126 57.4576 42.5061 58.8812 43.4983L62.7324 41.0935C64.7832 39.813 67.4028 40.1195 69.1037 41.8385C70.8038 43.5575 71.0818 46.1803 69.7791 48.2177L67.3262 52.0539C68.3137 53.5067 69.1922 55.0464 69.9379 56.6351L74.4883 56.4779C76.908 56.3957 79.0205 57.9702 79.6335 60.3086C80.2466 62.6477 79.1753 65.058 77.0289 66.1703L72.9976 68.2599C73.1263 69.9891 73.1129 71.7643 72.9597 73.541L76.9768 75.6795C79.1113 76.8155 80.1557 79.2376 79.5174 81.5697C78.8791 83.9017 76.7445 85.4541 74.3303 85.3443L69.7839 85.1381C69.0113 86.7449 68.1178 88.2791 67.1263 89.7019L69.5303 93.5539C70.8109 95.6047 70.5044 98.2243 68.7853 99.9252C67.0663 101.625 64.4435 101.903 62.4061 100.601L58.5699 98.1477C57.1187 99.1352 55.5782 100.013 53.9887 100.759L54.146 105.31C54.2289 107.726 52.6537 109.842 50.3153 110.455C49.8745 110.57 49.4313 110.626 48.9952 110.626V110.625ZM42.4777 103.42C42.5496 103.42 42.6168 103.46 42.65 103.525L44.7987 107.67C45.8273 109.654 48.0551 110.645 50.2165 110.077C52.3779 109.511 53.8347 107.555 53.7573 105.322L53.5961 100.642C53.5937 100.564 53.638 100.492 53.7083 100.459C55.3594 99.6913 56.9568 98.7805 58.4569 97.7519C58.5209 97.7077 58.6063 97.7061 58.6718 97.7487L62.6163 100.271C64.4988 101.475 66.9233 101.218 68.512 99.6471C70.1007 98.0758 70.3843 95.6537 69.2009 93.7585L66.7282 89.7974C66.6871 89.7311 66.6887 89.6466 66.7337 89.5826C67.7662 88.114 68.6929 86.5229 69.4876 84.8537C69.5216 84.7834 69.5927 84.7391 69.6717 84.7431L74.3461 84.9556C76.5755 85.0559 78.5496 83.6229 79.1398 81.467C79.7299 79.3111 78.7645 77.073 76.7919 76.0231L72.661 73.8246C72.5923 73.7874 72.552 73.7132 72.5583 73.6358C72.725 71.7943 72.7377 69.9528 72.5978 68.1627C72.5915 68.0845 72.6326 68.011 72.7021 67.9747L76.8472 65.8259C78.8317 64.7973 79.8215 62.5695 79.2543 60.4081C78.6879 58.2467 76.7279 56.7915 74.4986 56.8673L69.8194 57.0285C69.7381 57.0301 69.6693 56.9866 69.6362 56.9163C68.8691 55.2668 67.9582 53.6687 66.9288 52.1677C66.8846 52.1029 66.883 52.0184 66.9257 51.9528L69.4481 48.0084C70.6521 46.1258 70.3953 43.7013 68.824 42.1126C67.2519 40.524 64.8306 40.2403 62.9354 41.4238L58.9744 43.8964C58.908 43.9375 58.8235 43.9352 58.7595 43.8909C57.2893 42.8576 55.6983 41.9309 54.0306 41.137C53.9603 41.103 53.9161 41.0311 53.92 40.9529L54.1325 36.2777C54.2336 34.0452 52.7998 32.0742 50.6439 31.4841C48.488 30.8939 46.25 31.8593 45.2001 33.8319L43.0015 37.9628C42.9644 38.0315 42.8901 38.0726 42.8127 38.0647C40.9728 37.898 39.1313 37.8854 37.3396 38.0252C37.2622 38.0315 37.1879 37.9904 37.1516 37.9209L35.0028 33.7758C33.9743 31.7922 31.7465 30.8015 29.585 31.3687C27.4236 31.9351 25.9677 33.8912 26.0443 36.1245L26.2055 40.8036C26.2078 40.8818 26.1636 40.9537 26.0933 40.9869C24.443 41.754 22.8456 42.6648 21.3446 43.6942C21.2806 43.7384 21.1953 43.7392 21.1297 43.6974L17.1853 41.1749C15.3028 39.971 12.8783 40.2277 11.2896 41.799C9.70091 43.3703 9.4173 45.7924 10.6007 47.6876L13.0734 51.6486C13.1145 51.715 13.1129 51.7995 13.0679 51.8635C12.0353 53.3329 11.1087 54.924 10.3139 56.5932C10.28 56.6635 10.2065 56.7078 10.1299 56.7038L5.45548 56.4913C3.22296 56.391 1.25193 57.824 0.661801 59.9799C0.0716762 62.135 1.03705 64.3739 3.00966 65.4238L7.14054 67.6223C7.20927 67.6595 7.24956 67.7337 7.24324 67.8111C7.07655 69.6518 7.06391 71.4933 7.20374 73.2834C7.21006 73.3616 7.16898 73.4351 7.09946 73.4714L2.95436 75.6202C0.970688 76.6488 -0.0199641 78.8766 0.547251 81.038C1.11368 83.1994 3.07523 84.6562 5.30301 84.5788L9.98215 84.4176C10.0627 84.4152 10.1322 84.4595 10.1654 84.5298C10.9325 86.1801 11.8434 87.7782 12.8727 89.2784C12.917 89.3432 12.9186 89.4277 12.8759 89.4933L10.3534 93.437C9.14949 95.3195 9.40624 97.744 10.9775 99.3327C12.5488 100.921 14.9702 101.205 16.8662 100.021L20.8264 97.5481C20.8927 97.507 20.9773 97.5086 21.0413 97.5536C22.5099 98.5861 24.1009 99.5128 25.7702 100.308C25.8405 100.341 25.8847 100.413 25.8808 100.492L25.6683 105.166C25.5671 107.399 27.001 109.37 29.1569 109.96C31.3128 110.55 33.5508 109.584 34.6007 107.612L36.7993 103.481C36.8364 103.412 36.9099 103.371 36.9881 103.379C38.8296 103.546 40.671 103.558 42.4604 103.419C42.4651 103.419 42.4706 103.419 42.4754 103.419L42.4777 103.42ZM39.9442 97.157C37.6019 97.157 35.2454 96.8426 32.9251 96.2075C26.1178 94.3439 20.444 89.9404 16.9491 83.8093C13.4542 77.6782 12.5552 70.5524 14.4195 63.7458C16.2831 56.9385 20.6866 51.2647 26.8177 47.7698C32.9488 44.2741 40.0738 43.3758 46.8812 45.2394C53.6885 47.103 59.3623 51.5064 62.8572 57.6376C66.3529 63.7687 67.2512 70.8945 65.3876 77.7011C63.524 84.5084 59.1205 90.1822 52.9894 93.6771C48.9486 95.9807 44.4741 97.157 39.945 97.157H39.9442ZM39.8613 44.6785C35.3986 44.6785 30.9912 45.8367 27.0089 48.1071C20.9678 51.5507 16.6299 57.1415 14.7932 63.8485C12.9565 70.5556 13.8421 77.5762 17.2856 83.6165C20.7292 89.6576 26.32 93.9955 33.0263 95.8322C39.7333 97.6689 46.754 96.7834 52.7943 93.3398C58.8354 89.8962 63.1732 84.3054 65.0099 77.5984C66.8467 70.8913 65.9611 63.8706 62.5175 57.8303C59.0739 51.7893 53.4832 47.4514 46.7761 45.6147C44.4907 44.989 42.1673 44.6793 39.8597 44.6793L39.8613 44.6785Z" fill="#134E4A"/>
<path d="M6.3802 46.3755C6.3802 46.3755 5.97493 41.2476 5.7885 39.8644C5.57678 38.2915 7.85828 39.9378 8.27066 44.7758L6.3802 46.3755Z" fill="white"/>
<path d="M6.38013 46.5706C6.35485 46.5706 6.32957 46.5659 6.30508 46.5556C6.23793 46.5272 6.19211 46.464 6.18579 46.3913C6.18184 46.3399 5.77894 41.2532 5.59566 39.8912C5.54826 39.5389 5.60909 39.2964 5.77657 39.1715C5.85004 39.1162 6.0112 39.0404 6.25531 39.1502C7.00264 39.486 8.1821 41.4483 8.46413 44.76C8.46966 44.8224 8.44438 44.884 8.39619 44.9251L6.50574 46.5248C6.47019 46.5548 6.42516 46.5706 6.38013 46.5706ZM6.01673 39.4828C6.01278 39.4828 6.00962 39.4828 6.00804 39.4836C5.99461 39.4939 5.94721 39.5855 5.98118 39.8391C6.13602 40.9917 6.4457 44.7702 6.54366 45.9829L8.06755 44.6928C7.78948 41.6537 6.76012 39.9244 6.1692 39.5452C6.08704 39.4923 6.03648 39.4828 6.01594 39.4828H6.01673Z" fill="#134E4A"/>
<path d="M3.61168 70.1392C3.61168 70.1392 6.67291 53.344 6.71241 52.7855C6.74085 52.3818 6.68476 51.9773 6.55046 51.5949C6.15625 50.4771 5.34177 48.0866 5.33387 47.419C5.32597 46.7341 5.9153 46.2103 6.17758 46.0113C6.33321 45.8936 6.48173 45.7679 6.62946 45.64L8.00326 44.4518C8.34532 44.1706 8.51201 43.7076 8.98285 43.7772C9.88028 43.9099 10.1441 45.4496 10.1441 45.4496C10.1441 45.4496 11.0139 44.7631 11.4879 45.0909C11.9619 45.4188 12.7598 47.8109 11.6341 50.2685C10.5083 52.7254 10.1781 51.5981 10.0904 54.1482C10.0557 55.1665 10.2247 64.825 10.2247 64.825C10.2247 65.626 11.0771 66.1387 11.7842 65.7643L17.8719 62.5419L19.8998 72.8505L9.03973 75.3287C5.89239 76.0468 3.03578 73.315 3.61247 70.1392H3.61168Z" fill="white"/>
<path d="M8.03325 75.6368C6.83957 75.6368 5.67907 75.181 4.79428 74.3349C3.65116 73.2423 3.13766 71.6608 3.41969 70.1045C4.47749 64.2988 6.48723 53.2049 6.51725 52.772C6.54411 52.3944 6.49276 52.0207 6.36558 51.6597C5.91054 50.3681 5.14582 48.1 5.13792 47.4214C5.12923 46.6456 5.77861 46.0689 6.05906 45.8564C6.2139 45.7387 6.36321 45.6123 6.50066 45.493L7.87446 44.3049C7.96926 44.2275 8.05142 44.1319 8.13042 44.0394C8.33898 43.7969 8.57677 43.5212 9.00968 43.5852C9.78072 43.6989 10.1346 44.6382 10.2674 45.1265C10.5976 44.9203 11.1814 44.6438 11.5969 44.9305C12.2044 45.3508 12.9312 47.8993 11.8086 50.3491C11.3607 51.3271 11.036 51.7482 10.799 52.0563C10.4601 52.4963 10.3337 52.6606 10.2824 54.1545C10.2476 55.1562 10.4151 64.7246 10.4167 64.8218C10.4167 65.1323 10.5739 65.4103 10.8369 65.5691C11.1 65.7271 11.4192 65.7366 11.6909 65.5928L17.7786 62.3704C17.8331 62.342 17.8979 62.3404 17.9532 62.3665C18.0085 62.3926 18.0488 62.4439 18.0606 62.5047L20.0886 72.8134C20.1091 72.9169 20.0435 73.0172 19.9408 73.0401L9.08078 75.5183C8.7324 75.5981 8.38006 75.6368 8.03167 75.6368H8.03325ZM3.80284 70.174C3.54372 71.6015 4.01534 73.0512 5.06367 74.0537C6.11199 75.0562 7.58217 75.4622 8.99625 75.1391L19.673 72.7028L17.732 62.8358L11.875 65.9357C11.4816 66.1435 11.0194 66.1308 10.6387 65.9017C10.2579 65.6718 10.0296 65.2697 10.0296 64.825C10.0225 64.4339 9.86051 55.1531 9.89527 54.1411C9.9482 52.5966 10.0809 52.3541 10.4925 51.8193C10.7177 51.5262 11.0265 51.1249 11.4563 50.1872C12.5891 47.7161 11.7162 45.4851 11.3765 45.2505C11.1071 45.0641 10.5107 45.4069 10.2642 45.602C10.2105 45.6447 10.1378 45.6558 10.0746 45.6313C10.0106 45.6068 9.964 45.5499 9.95215 45.4828C9.885 45.0933 9.57374 44.0608 8.95359 43.9699C8.74188 43.9383 8.62733 44.0592 8.42667 44.293C8.33661 44.3981 8.24339 44.5063 8.12647 44.6027L6.75583 45.7877C6.61284 45.9109 6.45879 46.0421 6.29447 46.1669C6.06143 46.3431 5.52028 46.8186 5.52739 47.4174C5.53213 47.8662 5.98322 49.4035 6.73292 51.5309C6.87749 51.9417 6.93595 52.3683 6.90593 52.7997C6.86643 53.3621 3.92845 69.4867 3.80284 70.1748V70.174Z" fill="#134E4A"/>
<path d="M8.13932 50.0165C7.95762 50.0165 7.79962 49.9762 7.67085 49.9106C7.31931 49.7305 7.14709 49.3458 7.21977 48.9057C7.38014 47.9388 8.02319 47.415 8.05005 47.3937C8.13379 47.3265 8.25624 47.34 8.32339 47.4245C8.39054 47.5082 8.37711 47.6307 8.29258 47.6978C8.28784 47.7018 7.738 48.1552 7.60291 48.9697C7.55709 49.2446 7.64636 49.4619 7.84781 49.5646C8.12668 49.7076 8.68046 49.6444 9.32431 48.9974C10.379 47.9356 9.93971 45.4124 9.93497 45.3871C9.91602 45.2813 9.98632 45.1801 10.0922 45.1612C10.1988 45.1422 10.2992 45.2125 10.3181 45.3184C10.3379 45.4298 10.7969 48.0683 9.60002 49.2715C9.05492 49.8198 8.54143 50.0173 8.13932 50.0173V50.0165Z" fill="#134E4A"/>
<path d="M73.765 99.2253C72.3216 98.4053 71.7465 97.7464 71.2133 96.3884C71.2133 96.3884 68.2366 86.9535 65.9108 81.0333C64.9802 78.6641 62.8946 74.2267 60.7751 69.8478L53.2472 74.0498C53.1675 74.094 53.0924 74.1445 53.0205 74.1983C56.7137 80.3752 63.4974 91.699 64.221 92.745C64.221 92.745 67.915 98.2054 67.7349 101.04C67.6212 102.831 68.3187 106.135 70.9636 107.987C71.5166 108.374 72.2379 107.78 71.9614 107.164C71.9574 107.154 71.9527 107.144 71.948 107.135C71.5356 106.264 70.8033 105.164 70.8033 105.164C70.8033 105.164 72.2482 105.177 73.7594 106.369C75.2707 107.56 78.4796 109.696 79.144 108.978C80.2832 107.747 79.6054 102.542 73.7657 99.2245L73.765 99.2253Z" fill="white"/>
<path d="M78.7325 109.312C77.196 109.312 73.8022 106.652 73.6378 106.522C72.659 105.751 71.7024 105.491 71.1881 105.403C71.4393 105.8 71.8477 106.471 72.1226 107.052L72.1376 107.085C72.3004 107.447 72.2056 107.846 71.8967 108.102C71.587 108.358 71.1762 108.375 70.8508 108.147C68.0012 106.151 67.4388 102.617 67.5399 101.028C67.7137 98.293 64.0955 92.9084 64.0592 92.8547C63.3411 91.8167 56.7304 80.7836 52.8531 74.2993C52.8018 74.214 52.8239 74.1042 52.9029 74.0442C52.9866 73.981 53.068 73.928 53.1517 73.8806L60.6796 69.6787C60.7262 69.6526 60.7815 69.6471 60.8328 69.6629C60.8842 69.6787 60.9261 69.715 60.949 69.7632C63.5615 75.1596 65.2916 78.9279 66.091 80.9622C68.3931 86.8207 71.3682 96.2351 71.3982 96.3299C71.9188 97.6524 72.4726 98.267 73.8606 99.0562C78.6575 101.782 79.5652 105.448 79.7295 106.507C79.9057 107.647 79.7398 108.62 79.2855 109.11C79.1559 109.25 78.9656 109.312 78.7325 109.312ZM70.8018 104.97H70.8033C70.865 104.97 72.3328 104.999 73.878 106.217C75.9438 107.846 78.5556 109.326 79.0003 108.846C79.3692 108.448 79.5012 107.574 79.3455 106.566C79.1883 105.551 78.3146 102.033 73.6694 99.3935C72.2064 98.5624 71.5902 97.8767 71.0324 96.4587C70.9985 96.352 68.0265 86.9495 65.73 81.1036C64.9432 79.1017 63.2479 75.4053 60.6899 70.1171L53.3421 74.2188C53.3216 74.2298 53.301 74.2425 53.2813 74.2543C57.1673 80.7536 63.6737 91.6105 64.3807 92.6335C64.534 92.8602 68.1111 98.184 67.9286 101.051C67.8322 102.565 68.3662 105.93 71.0743 107.827C71.2908 107.978 71.5136 107.913 71.6494 107.8C71.7845 107.688 71.8912 107.483 71.7829 107.242L71.7719 107.218C71.3698 106.369 70.6469 105.281 70.6398 105.27C70.6003 105.21 70.5964 105.134 70.6303 105.07C70.6643 105.007 70.7299 104.968 70.801 104.968L70.8018 104.97Z" fill="#134E4A"/>
<path d="M14.8636 61.9921L16.4681 60.1909C19.1857 57.1731 22.6079 54.875 26.4283 53.5036L29.04 52.5659C29.2431 52.4932 44.0981 50.9669 49.1446 52.6354C52.2959 53.6774 56.4149 56.1153 62.0191 67.4667C62.4331 68.3049 62.0997 69.3651 61.2844 69.8201L53.0669 74.4068C52.352 74.8058 52.3701 75.704 52.4768 76.5169L54.9187 89.7351C55.0585 90.4927 54.7346 91.2645 54.0876 91.6816C52.0494 92.9946 46.1015 95.0359 33.0801 92.9425C30.0307 92.4519 27.5833 90.1561 26.8881 87.1439L24.5015 76.7942C24.353 75.9181 23.1546 75.4899 22.2263 75.2877C21.7049 75.1739 21.1709 75.1644 20.6385 75.2008C19.5182 75.2774 18.4549 74.5854 18.0963 73.4778L14.4615 64.2001C14.166 63.4473 14.3217 62.5917 14.8628 61.9905L14.8636 61.9921Z" fill="white"/>
<path d="M43.192 94.0334C40.4444 94.0334 37.098 93.7861 33.0493 93.1352C29.9083 92.6303 27.4159 90.2959 26.6993 87.1889L24.3128 76.8392C24.1753 76.0271 22.9208 75.6392 22.1861 75.4796C21.7382 75.3824 21.2507 75.3556 20.6527 75.3966C19.4219 75.4804 18.2938 74.7172 17.9122 73.5394L14.2814 64.2727C13.9575 63.4456 14.125 62.5221 14.7191 61.8625L16.3228 60.0621C19.053 57.0301 22.5242 54.6988 26.3628 53.3211L28.9737 52.3833C29.0693 52.3486 44.0618 50.7512 49.2047 52.4513C52.5242 53.5486 56.663 56.1808 62.193 67.3814C62.6527 68.3128 62.2878 69.4835 61.3785 69.9907L53.161 74.5774C52.5503 74.9179 52.5693 75.7363 52.6688 76.4924L55.1091 89.7011C55.2647 90.5448 54.9053 91.3869 54.1919 91.8467C53.2147 92.4763 50.0903 94.0334 43.1912 94.0342L43.192 94.0334ZM21.1646 74.989C21.5683 74.989 21.9278 75.0253 22.2683 75.0996C23.2834 75.3208 24.5284 75.7885 24.6935 76.7633L27.0777 87.102C27.7587 90.0542 30.1263 92.2717 33.1109 92.752C47.1894 95.0161 52.6451 92.3815 53.9826 91.5196C54.5624 91.146 54.8547 90.4602 54.7275 89.7722L52.2856 76.554C52.1679 75.6589 52.1585 74.6928 52.9722 74.2385L61.1897 69.6518C61.9204 69.2442 62.2151 68.3025 61.8454 67.5544C56.3786 56.4834 52.3267 53.8938 49.0838 52.8218C44.2222 51.2141 29.6413 52.6369 29.0899 52.7554L26.4947 53.6884C22.717 55.0448 19.3003 57.339 16.6127 60.3228L15.009 62.1232C15.009 62.1232 15.009 62.1232 15.009 62.124C14.5137 62.6738 14.3738 63.4432 14.644 64.1321L18.2788 73.4098C18.6082 74.4281 19.572 75.0822 20.6266 75.0095C20.8155 74.9969 20.994 74.9898 21.1646 74.9898V74.989Z" fill="#134E4A"/>
<path d="M42.2784 73.9124C42.2373 73.9124 42.1954 73.899 42.1606 73.8721C38.7155 71.2351 37.6877 68.3367 37.6458 68.215C37.6111 68.1139 37.6648 68.0033 37.7659 67.9677C37.867 67.933 37.9776 67.9867 38.0132 68.0878C38.0234 68.1163 39.0512 71.0021 42.3968 73.5633C42.4822 73.6288 42.498 73.7505 42.4332 73.8358C42.3953 73.8856 42.3368 73.9124 42.2784 73.9124Z" fill="#134E4A"/>
<path d="M30.0233 73.4967C29.964 73.4967 29.9063 73.4699 29.8676 73.4193C27.2559 69.9544 27.0434 66.8861 27.0355 66.7565C27.0292 66.6491 27.1106 66.5574 27.218 66.5511C27.327 66.5448 27.4171 66.6262 27.4242 66.7336C27.4258 66.7644 27.6422 69.8201 30.1789 73.1855C30.2437 73.2716 30.2263 73.3933 30.141 73.458C30.1062 73.4841 30.0651 73.4975 30.024 73.4975L30.0233 73.4967Z" fill="#134E4A"/>
<path d="M42.3402 59.5201C34.0571 63.2544 29.0651 55.8877 29.0651 55.8877C28.9269 55.7353 28.7736 55.6026 28.6101 55.488L28.6812 55.4627C28.776 55.4295 28.8708 55.394 28.964 55.3584C32.6628 53.9286 35.0146 50.2654 34.9237 46.298L34.8716 44.0189L41.0644 43.9541C41.0644 43.9541 41.2279 52.2933 44.0861 52.3557L45.6661 52.5405C46.8479 55.2423 45.1194 58.268 42.341 59.5201H42.3402Z" fill="white"/>
<path d="M37.7631 60.7628C32.3485 60.7628 29.1048 56.282 28.9128 56.0094C28.7896 55.8751 28.6505 55.7535 28.4989 55.6484C28.4388 55.6065 28.4072 55.5346 28.4167 55.4627C28.4262 55.3901 28.4759 55.3292 28.5447 55.3055L28.6158 55.2802C28.709 55.2471 28.8014 55.2131 28.8931 55.1775C32.4733 53.7935 34.8188 50.2274 34.7288 46.3028L34.6766 44.0236C34.675 43.9715 34.6948 43.9217 34.7311 43.8838C34.7675 43.8467 34.8172 43.8253 34.8686 43.8245L41.0613 43.7598C41.1672 43.7598 41.2557 43.8435 41.2581 43.9502C41.3023 46.2174 41.8987 52.1132 44.0894 52.1606L45.6875 52.347C45.7563 52.3549 45.8155 52.3991 45.8432 52.4623C47.1451 55.4382 45.1251 58.4781 42.4201 59.6971C40.7311 60.4587 39.1733 60.7628 37.7631 60.7628ZM29.0037 55.552C29.0756 55.6168 29.1451 55.6855 29.2099 55.7574C29.2162 55.7637 29.2217 55.7716 29.2264 55.7787C29.2391 55.7969 30.4849 57.6099 32.7095 58.945C35.6783 60.7273 38.892 60.8616 42.2606 59.3432C44.7625 58.2151 46.6458 55.4438 45.5311 52.7207L44.0633 52.5484C41.2881 52.4884 40.9199 45.4472 40.8757 44.15L35.0708 44.2109L35.1182 46.2933C35.2114 50.3815 32.7664 54.0968 29.0337 55.5402C29.0234 55.5441 29.0131 55.5481 29.0037 55.552Z" fill="#134E4A"/>
<path d="M34.8995 44.3428L34.5843 40.1582C34.4302 38.1169 36.0197 36.3639 38.065 36.3196L43.4417 36.2035C43.4417 36.2035 43.8588 38.8271 45.2626 40.065L44.6354 41.2437L44.0152 43.4122C43.8802 43.8846 43.4923 44.2448 43.0096 44.3357L39.7674 44.3381L34.8995 44.342V44.3428Z" fill="white"/>
<path d="M34.8996 44.5371C34.7993 44.5371 34.7139 44.4596 34.706 44.3569L34.3908 40.1723C34.3126 39.1303 34.6555 38.131 35.357 37.3576C36.0577 36.585 37.0183 36.1473 38.0611 36.1252L43.4378 36.0091C43.5326 36.0051 43.6187 36.077 43.6338 36.1726C43.6377 36.1979 44.0572 38.7424 45.3915 39.9187C45.4594 39.978 45.4768 40.0767 45.4349 40.1557L44.8172 41.317L44.2025 43.4658C44.0453 44.0157 43.6022 44.4217 43.046 44.5268C43.0341 44.5292 43.0223 44.5299 43.0104 44.5299L39.7683 44.5323C39.6609 44.5323 39.574 44.4454 39.574 44.338C39.574 44.2305 39.6609 44.1436 39.7683 44.1436L42.9915 44.1413C43.3944 44.0591 43.7143 43.7605 43.8297 43.3592L44.4498 41.1906C44.4538 41.1772 44.4585 41.1646 44.4648 41.1527L45.0218 40.106C43.8573 38.9826 43.3968 36.9942 43.2814 36.4017L38.0706 36.5139C37.1361 36.5344 36.275 36.9262 35.6461 37.6191C35.0165 38.3127 34.7092 39.2085 34.7795 40.1431L35.0947 44.3277C35.1026 44.4351 35.0228 44.5284 34.9154 44.5363C34.9106 44.5363 34.9051 44.5363 34.9004 44.5363L34.8996 44.5371Z" fill="#134E4A"/>
<path d="M38.784 54.4357C38.6094 54.4357 38.4166 54.4144 38.2081 54.3614C38.1038 54.3354 38.0414 54.2295 38.0674 54.1252C38.0935 54.0209 38.1994 53.9577 38.3037 53.9846C39.2003 54.2121 39.7098 53.7437 39.7146 53.7389C39.7928 53.6654 39.916 53.6686 39.9895 53.7468C40.063 53.825 40.0598 53.9483 39.9816 54.0217C39.9595 54.0423 39.5321 54.4357 38.7848 54.4357H38.784Z" fill="#134E4A"/>
<path d="M44.5138 35.8843L41.8104 37.3189C40.2233 38.1611 39.1339 39.7118 38.8851 41.4917C38.5375 43.9809 38.2396 48.2927 35.8681 51.9306C34.0321 54.747 30.9346 56.4873 27.5802 56.699C25.3698 56.8389 22.755 57.6755 21.3583 59.0888C21.3583 59.0888 16.9114 53.2705 21.3788 48.1632C25.8462 43.0559 31.7206 43.3892 32.8779 37.9675C33.9863 32.7796 40.3118 28.9347 44.7745 34.6085C45.1023 35.0248 44.9814 35.6354 44.513 35.8835L44.5138 35.8843Z" fill="#134E4A"/>
<path d="M79.9429 47.4933C79.9429 47.4933 77.2775 47.5912 73.9824 47.5786C73.2896 47.5762 71.4299 45.3516 70.2362 45.7284C69.3791 45.9994 71.0002 47.4585 70.7774 47.4577C68.6657 47.449 66.8432 47.4411 66.1828 47.438C65.6653 47.4348 65.4923 47.9649 65.7064 48.4357C66.0129 49.1096 66.6813 50.1295 67.7865 50.4858C69.7622 51.1225 73.5748 50.8357 74.7534 50.6066C77.3304 50.1058 79.3749 50.0686 79.3749 50.0686L79.9429 47.494V47.4933Z" fill="white"/>
<path d="M71.1969 51.0689C69.9464 51.0689 68.6516 50.9678 67.7265 50.67C66.4388 50.2552 65.761 49.0252 65.5295 48.5157C65.3794 48.1847 65.3881 47.8213 65.5532 47.5661C65.6891 47.356 65.9206 47.2406 66.1844 47.243C66.8101 47.2469 68.4794 47.2541 70.4496 47.262C70.4409 47.2509 70.4322 47.2398 70.4243 47.2296C70.1131 46.8298 69.688 46.2816 69.8137 45.8779C69.8484 45.7665 69.9401 45.618 70.1786 45.5429C71.0026 45.283 72.0367 46.0651 72.867 46.694C73.2944 47.0171 73.7786 47.3836 73.9832 47.3844C77.2364 47.3963 79.909 47.2999 79.9358 47.2991C79.9967 47.2967 80.0536 47.3228 80.0923 47.3686C80.131 47.4144 80.146 47.476 80.1326 47.5353L79.5645 50.1099C79.5448 50.1976 79.4682 50.2608 79.3781 50.2624C79.3576 50.2624 77.3194 50.3058 74.7898 50.7972C74.1428 50.9228 72.7019 51.0697 71.1961 51.0697L71.1969 51.0689ZM66.1789 47.6317C66.043 47.6317 65.9427 47.6807 65.8795 47.7778C65.7871 47.92 65.7886 48.1468 65.8834 48.3545C66.0936 48.8167 66.7058 49.9321 67.8458 50.2995C69.7892 50.926 73.5969 50.6321 74.7163 50.4148C76.8801 49.9945 78.6916 49.8982 79.2177 49.8776L79.6988 47.6957C78.9586 47.7194 76.6676 47.7834 73.9817 47.7731C73.6467 47.7715 73.1988 47.4326 72.6323 47.0036C71.8732 46.4293 70.9275 45.7136 70.2955 45.9134C70.2 45.9435 70.1881 45.9814 70.1849 45.9932C70.1194 46.2034 70.5483 46.7548 70.7316 46.9902C70.9584 47.2817 71.0429 47.3907 70.9726 47.5337C70.937 47.6064 70.8628 47.6514 70.779 47.6514H70.7782C68.6666 47.6427 66.8433 47.6348 66.1828 47.6317H66.1797H66.1789Z" fill="#134E4A"/>
<path d="M75.4836 46.8519C77.7912 46.9112 83.2169 46.7231 85.3609 43.8523C86.5033 45.2838 87.5619 46.7863 88.7247 48.1996C89.0573 48.6033 89.4721 48.6673 89.8331 48.5314C90.3347 49.6121 90.7455 50.7316 91.1042 51.8699C85.3459 52.9593 77.8765 52.1141 75.3438 51.7696C74.8358 51.7001 74.4566 51.2695 74.4527 50.7568L74.429 47.8915C74.4243 47.3085 74.9022 46.8369 75.4844 46.8519H75.4836Z" fill="#134E4A"/>
<path d="M44.8993 14.6589L46.6151 15.5721C46.5456 16.3416 46.5393 17.1055 46.5985 17.8591L44.8763 18.7518C44.0239 19.1934 43.5918 20.1667 43.8351 21.0949C44.0785 22.0232 44.9324 22.6591 45.8915 22.6259L47.8357 22.5588C48.1572 23.2508 48.5356 23.9144 48.9669 24.5433L47.9186 26.1817C47.4012 26.9899 47.5133 28.0493 48.1888 28.7318C48.8634 29.4144 49.9212 29.5376 50.7357 29.0296L52.3813 28.0026C52.9999 28.4371 53.6603 28.8219 54.3579 29.1537L54.2694 31.0955C54.2259 32.0545 54.8524 32.9156 55.7783 33.1684C56.7041 33.422 57.6814 33.0001 58.1324 32.1533L59.0457 30.4374C59.8143 30.5069 60.579 30.5125 61.3327 30.454L62.2254 32.1762C62.667 33.0286 63.6403 33.4607 64.5685 33.2174C65.4968 32.9741 66.1327 32.1201 66.0995 31.161L66.0324 29.2169C66.7244 28.8953 67.388 28.5169 68.0168 28.0856L69.6553 29.1339C70.4635 29.6514 71.5228 29.5392 72.2054 28.8637C72.8879 28.1891 73.0112 27.1313 72.5032 26.3168L71.4762 24.6712C71.9107 24.0527 72.2954 23.3922 72.6272 22.6947L74.569 22.7832C75.5281 22.8266 76.3884 22.2001 76.642 21.2743C76.8956 20.3484 76.4737 19.3712 75.6268 18.9201L73.911 18.0069C73.9805 17.2374 73.9868 16.4735 73.9276 15.7198L75.6498 14.8271C76.5022 14.3855 76.9343 13.4123 76.691 12.484C76.4477 11.5558 75.5937 10.9198 74.6346 10.953L72.6904 11.0202C72.3689 10.3281 71.9905 9.66452 71.5592 9.03569L72.6075 7.39724C73.1249 6.58908 73.0128 5.5297 72.3373 4.84714C71.6627 4.16459 70.6049 4.04135 69.7904 4.54931L68.1448 5.57631C67.5263 5.14181 66.8658 4.75708 66.1683 4.42528L66.2567 2.48269C66.3002 1.52364 65.6737 0.663336 64.7478 0.409748C63.822 0.15616 62.844 0.578017 62.3937 1.42489L61.4804 3.14076C60.711 3.07124 59.9463 3.06571 59.1934 3.12416L58.3007 1.40198C57.8591 0.549576 56.8858 0.11745 55.9576 0.360768C55.0293 0.604086 54.3934 1.45807 54.4266 2.41712L54.4937 4.3613C53.8017 4.68282 53.1381 5.06123 52.5093 5.49257L50.8708 4.44425C50.0627 3.9268 49.0033 4.03898 48.3207 4.71442C47.6382 5.38908 47.5149 6.44688 48.0229 7.26136L49.0499 8.90692C48.6154 9.52548 48.2307 10.1859 47.8989 10.8835L45.9571 10.795C44.998 10.7516 44.1369 11.378 43.8841 12.3039C43.6305 13.2298 44.0524 14.207 44.8993 14.6581V14.6589ZM49.7546 13.9115C51.344 8.10745 57.3377 4.69072 63.1418 6.2794C68.9459 7.86887 72.3626 13.8626 70.7739 19.6666C69.1844 25.4707 63.1908 28.8874 57.3867 27.2988C51.5826 25.7093 48.1659 19.7156 49.7546 13.9115Z" fill="white"/>
<path d="M64.042 33.4804C63.2188 33.4804 62.4501 33.0285 62.0543 32.2662L61.2209 30.6578C60.5447 30.7044 59.8526 30.6988 59.159 30.6428L58.3058 32.2457C57.8089 33.1794 56.7487 33.6368 55.7289 33.3572C54.7082 33.0775 54.0296 32.1445 54.077 31.0875L54.1591 29.2737C53.5335 28.9688 52.9354 28.6204 52.3769 28.2356L50.8404 29.1947C49.9429 29.7548 48.7967 29.6213 48.0525 28.8684C47.3083 28.1164 47.1867 26.9685 47.757 26.0774L48.7358 24.5472C48.3535 23.9784 48.0106 23.3772 47.716 22.7578L45.8998 22.8202C44.8404 22.8574 43.9169 22.1677 43.6483 21.1439C43.3797 20.1208 43.8489 19.0654 44.7882 18.5788L46.3967 17.7453C46.3501 17.0691 46.3556 16.3763 46.4117 15.6834L44.8088 14.8302C43.875 14.3333 43.4176 13.2732 43.6973 12.2525C43.9769 11.2318 44.9083 10.5532 45.9669 10.6006L47.7807 10.6828C48.0857 10.0579 48.4341 9.45908 48.818 8.90055L47.8589 7.36401C47.2988 6.46658 47.4331 5.3203 48.1852 4.57612C48.9373 3.83195 50.0851 3.71029 50.9763 4.28067L52.5073 5.25947C53.0768 4.87711 53.6772 4.53425 54.2966 4.23959L54.2342 2.42339C54.1979 1.36638 54.8867 0.440505 55.9106 0.171907C56.9336 -0.095901 57.989 0.372565 58.4757 1.31187L59.3091 2.9203C59.9861 2.87369 60.6782 2.87922 61.3718 2.93531L62.225 1.33241C62.7219 0.398635 63.7813 -0.0587704 64.8027 0.220887C65.8234 0.500545 66.502 1.43353 66.4546 2.49054L66.3724 4.30436C66.9973 4.60851 67.5961 4.95769 68.1547 5.34163L69.6912 4.38258C70.5886 3.82247 71.7349 3.95677 72.4791 4.70884C73.2233 5.46091 73.3449 6.60878 72.7746 7.49989L71.7958 9.0309C72.1781 9.59969 72.521 10.2009 72.8156 10.8202L74.631 10.7578C75.692 10.7223 76.6147 11.4104 76.8825 12.4342C77.1511 13.4572 76.6819 14.5127 75.7426 14.9993L74.1341 15.8327C74.1807 16.509 74.1752 17.2018 74.1191 17.8954L75.722 18.7486C76.6558 19.2455 77.1132 20.3057 76.8335 21.3264C76.5539 22.347 75.6185 23.0256 74.5639 22.9782L72.7501 22.8961C72.4451 23.5218 72.0967 24.1198 71.712 24.6783L72.6711 26.2148C73.2312 27.1123 73.0977 28.2586 72.3448 29.0027C71.5927 29.7469 70.4449 29.8686 69.5538 29.2982L68.0227 28.3194C67.4539 28.7017 66.8528 29.0446 66.2334 29.3393L66.2958 31.1547C66.3322 32.2117 65.6433 33.1376 64.6195 33.4062C64.4267 33.4567 64.2324 33.4812 64.042 33.4812V33.4804ZM61.3347 30.2596C61.4065 30.2596 61.4737 30.2999 61.5069 30.3647L62.3996 32.0869C62.8025 32.8634 63.6746 33.2513 64.5207 33.0293C65.3668 32.8073 65.9372 32.0418 65.9071 31.1673L65.84 29.2231C65.8376 29.1449 65.8819 29.073 65.9522 29.0399C66.6324 28.7239 67.2904 28.3486 67.909 27.9244C67.973 27.8801 68.0583 27.8786 68.1239 27.9212L69.7623 28.9696C70.4994 29.4412 71.4489 29.3401 72.0707 28.7254C72.6924 28.11 72.8038 27.162 72.3401 26.4202L71.3131 24.7747C71.272 24.7083 71.2736 24.6238 71.3186 24.5598C71.7436 23.9547 72.126 23.2998 72.453 22.6117C72.487 22.5414 72.5597 22.4979 72.6371 22.5011L74.5789 22.5896C75.4511 22.6291 76.2245 22.0674 76.4559 21.2237C76.6874 20.3799 76.309 19.5031 75.5372 19.0923L73.8213 18.179C73.7526 18.1419 73.7123 18.0676 73.7186 17.9902C73.7873 17.2318 73.7929 16.4726 73.7352 15.7356C73.7289 15.6574 73.7699 15.5839 73.8395 15.5476L75.5617 14.6549C76.3382 14.252 76.7261 13.3798 76.5041 12.5337C76.2829 11.6876 75.5198 11.1181 74.6429 11.1473L72.6987 11.2144C72.6189 11.2168 72.5486 11.1726 72.5154 11.1023C72.1994 10.4221 71.8242 9.76401 71.4 9.14545C71.3557 9.08067 71.3541 8.99614 71.3968 8.93057L72.4451 7.29212C72.9168 6.55506 72.8156 5.60627 72.201 4.98376C71.5856 4.36203 70.6376 4.25064 69.8958 4.71437L68.2503 5.74136C68.1839 5.78244 68.0994 5.78007 68.0354 5.73583C67.4302 5.31003 66.7746 4.92846 66.0873 4.6014C66.0169 4.56743 65.9727 4.49475 65.9767 4.41734L66.0651 2.47474C66.1046 1.60101 65.543 0.829183 64.6992 0.597715C63.8555 0.367037 62.9786 0.744652 62.5678 1.51727L61.6546 3.23313C61.6175 3.30186 61.5424 3.34215 61.4658 3.33504C60.7082 3.26631 59.949 3.26078 59.2112 3.31845C59.1337 3.32477 59.0595 3.28369 59.0231 3.21417L58.1304 1.49199C57.7275 0.715424 56.8554 0.327537 56.0093 0.549525C55.1632 0.771513 54.5928 1.53702 54.6229 2.41154L54.69 4.35572C54.6924 4.43393 54.6481 4.50581 54.5778 4.53899C53.8984 4.85499 53.2396 5.23024 52.621 5.65446C52.557 5.6987 52.4717 5.70028 52.4061 5.65762L50.7677 4.6093C50.0306 4.13768 49.0818 4.2388 48.4593 4.85341C47.8376 5.46882 47.7262 6.41681 48.1899 7.15861L49.2169 8.80417C49.258 8.87053 49.2564 8.95506 49.2114 9.01905C48.7864 9.62418 48.404 10.2799 48.077 10.9672C48.043 11.0375 47.9695 11.0809 47.8929 11.0778L45.9511 10.9893C45.075 10.949 44.3055 11.5115 44.0741 12.3552C43.8434 13.1989 44.221 14.0758 44.9936 14.4866L46.7095 15.3998C46.7782 15.437 46.8185 15.5112 46.8122 15.5886C46.7435 16.347 46.7379 17.1062 46.7956 17.8433C46.8019 17.9215 46.7608 17.995 46.6913 18.0313L44.9691 18.924C44.1926 19.3269 43.8047 20.199 44.0267 21.0451C44.2487 21.8912 45.0142 22.4616 45.8887 22.4316L47.8329 22.3644C47.9134 22.362 47.983 22.4063 48.0161 22.4766C48.3321 23.1568 48.7074 23.8148 49.1316 24.4334C49.1759 24.4982 49.1774 24.5827 49.1348 24.6483L48.0865 26.2867C47.6148 27.0238 47.7152 27.9734 48.3306 28.5951C48.946 29.2176 49.894 29.3282 50.6358 28.8645L52.2813 27.8375C52.3477 27.7964 52.4322 27.7988 52.4962 27.843C53.1013 28.268 53.757 28.6504 54.4443 28.9775C54.5146 29.0114 54.5581 29.0841 54.5549 29.1615L54.4665 31.1033C54.427 31.9771 54.9886 32.7489 55.8323 32.9803C56.6753 33.2118 57.553 32.8334 57.9637 32.0608L58.877 30.3449C58.9141 30.2762 58.9892 30.2359 59.0658 30.243C59.825 30.3118 60.5834 30.3173 61.3204 30.2588C61.3252 30.2588 61.3307 30.2588 61.3354 30.2588L61.3347 30.2596ZM60.2824 27.8849C59.2988 27.8849 58.3098 27.753 57.3357 27.4859C51.4376 25.8712 47.953 19.7582 49.5677 13.8601C51.1824 7.96204 57.2946 4.47658 63.1935 6.09212C66.0509 6.87421 68.4327 8.7228 69.8998 11.2966C71.3668 13.8704 71.7444 16.8613 70.9615 19.7187C70.1794 22.5761 68.3308 24.9572 65.757 26.425C64.0609 27.3919 62.1831 27.8857 60.2816 27.8857L60.2824 27.8849ZM49.9429 13.9628C48.3843 19.6547 51.7473 25.5528 57.4384 27.1107C60.1955 27.8659 63.0813 27.5017 65.5651 26.0861C68.048 24.6704 69.8318 22.3723 70.5871 19.6152C71.3423 16.8582 70.9781 13.9723 69.5624 11.4886C68.1468 9.00483 65.8487 7.22181 63.0916 6.46658C57.3997 4.90792 51.5016 8.27092 49.9429 13.962V13.9628Z" fill="#134E4A"/>
<mask id="mask1_242_5645" style="mask-type:luminance" maskUnits="userSpaceOnUse" x="50" y="7" width="20" height="20">
<path d="M50.5098 16.7665C50.5098 11.3851 54.8721 7.02271 60.2536 7.02271C65.635 7.02271 69.9973 11.3851 69.9973 16.7665C69.9973 22.1479 65.635 26.5103 60.2536 26.5103C54.8721 26.5103 50.5098 22.1479 50.5098 16.7665Z" fill="white"/>
</mask>
<g mask="url(#mask1_242_5645)">
<path d="M68.0089 23.6687C66.0379 25.5481 63.3756 26.7102 60.4376 26.7252C57.4996 26.7402 54.8247 25.6066 52.8347 23.7485C55.1225 23.0265 57.694 22.6141 60.4163 22.5999C63.1378 22.5856 65.714 22.9712 68.0089 23.6687Z" fill="#134E4A"/>
<path d="M53.965 16.1788C54.9264 12.7139 56.9101 8.17139 60.6294 8.72992C64.1978 9.26553 65.8765 13.1807 66.6475 16.2135C67.1168 18.0597 65.709 19.8514 63.8043 19.8609L56.82 19.8973C54.8719 19.9075 53.4436 18.055 53.965 16.178V16.1788Z" fill="#134E4A"/>
<path d="M57.0427 12.1546C57.0443 12.1467 57.0474 12.1301 57.0474 12.1301L63.3887 12.0819C63.3887 12.0819 63.3911 12.0922 63.3927 12.0969C63.4764 12.4129 63.5214 12.7463 63.523 13.0907L63.5325 14.9464C63.5388 16.1891 62.9566 17.2848 62.071 17.9247L62.0963 22.7705C62.101 23.7343 61.3237 24.5204 60.3599 24.5251C59.3961 24.5298 58.61 23.7525 58.6053 22.7887L58.58 18.014C57.6304 17.3962 56.9913 16.2697 56.985 14.9804L56.974 12.8861C56.9724 12.6349 56.9961 12.39 57.0419 12.1538L57.0427 12.1546Z" fill="white"/>
<path d="M60.3511 24.7202C59.8368 24.7202 59.3526 24.5211 58.9868 24.1593C58.6187 23.7951 58.4141 23.3085 58.4117 22.7902L58.3872 18.07C58.3872 17.9626 58.4733 17.8749 58.5808 17.8749H58.5815C58.6882 17.8749 58.7751 17.961 58.7759 18.0684L58.8004 22.7886C58.8027 23.2034 58.9663 23.5921 59.2601 23.8828C59.5524 24.1719 59.9395 24.3315 60.3511 24.3315C60.3543 24.3315 60.3567 24.3315 60.3598 24.3315C60.7746 24.3291 61.1632 24.1656 61.4547 23.8717C61.7463 23.5771 61.9058 23.1868 61.9035 22.7728L61.879 18.0708C61.879 17.9634 61.9651 17.8757 62.0725 17.8757H62.0733C62.18 17.8757 62.2669 17.9618 62.2677 18.0692L62.2921 22.7705C62.2945 23.2887 62.0954 23.7769 61.7312 24.1451C61.3671 24.5132 60.8804 24.7178 60.3622 24.7202C60.359 24.7202 60.3551 24.7202 60.3519 24.7202H60.3511Z" fill="#134E4A"/>
<path d="M60.2519 16.4338C59.8458 16.4338 59.469 16.2719 59.1893 15.9764C59.1159 15.8982 59.119 15.7758 59.1964 15.7015C59.2746 15.628 59.3979 15.6312 59.4714 15.7086C59.6768 15.9259 59.954 16.0451 60.2519 16.0451C60.2534 16.0451 60.255 16.0451 60.2574 16.0451C60.5568 16.0436 60.8341 15.9227 61.0371 15.7039C61.1106 15.6249 61.2338 15.6209 61.312 15.6936C61.3903 15.7671 61.395 15.8895 61.3223 15.9685C61.049 16.2624 60.6619 16.4322 60.2598 16.4338C60.2574 16.4338 60.255 16.4338 60.2527 16.4338H60.2519Z" fill="#134E4A"/>
<path d="M60.2618 18.713C58.3571 18.713 56.8017 17.043 56.7914 14.9819L56.7803 12.8876C56.7756 11.9207 57.1177 11.0098 57.7449 10.3209C58.3761 9.62811 59.2198 9.24418 60.1196 9.23944C61.0795 9.23391 61.9809 9.63443 62.661 10.3652C63.3373 11.0912 63.7125 12.0589 63.718 13.0891L63.7275 14.9448C63.7354 16.4086 62.947 17.7516 61.7186 18.367C61.6222 18.4152 61.5053 18.3765 61.4579 18.2801C61.4097 18.1837 61.4484 18.0676 61.5448 18.0194C62.6413 17.4696 63.346 16.2641 63.3388 14.9471L63.3294 13.0914C63.3246 12.1593 62.9865 11.2847 62.3766 10.6306C61.7715 9.98045 60.9681 9.62733 60.122 9.62891C59.332 9.63286 58.5894 9.97176 58.0325 10.5832C57.4716 11.1994 57.1643 12.0171 57.169 12.886L57.1801 14.9803C57.1895 16.8281 58.5712 18.3252 60.2618 18.3252C60.2674 18.3252 60.2745 18.3252 60.2776 18.3252C60.3843 18.3252 60.4712 18.4113 60.472 18.5187C60.472 18.6261 60.3859 18.7138 60.2784 18.7138C60.2729 18.7138 60.2666 18.7138 60.261 18.7138L60.2618 18.713Z" fill="#134E4A"/>
</g>
<path d="M60.2879 26.7489C59.2507 26.7489 58.196 26.5846 57.1588 26.2386C54.9168 25.4912 53.0121 23.965 51.7971 21.941C51.7418 21.8486 51.7718 21.7293 51.8635 21.674C51.9551 21.6187 52.0752 21.6487 52.1305 21.7404C53.2981 23.6845 55.1277 25.1508 57.282 25.8689C62.2661 27.531 67.6728 24.8284 69.3342 19.8444C70.9963 14.8603 68.2937 9.45437 63.3097 7.79223C60.8955 6.98722 58.3122 7.1705 56.0362 8.30809C53.7602 9.44568 52.0625 11.4025 51.2575 13.8159C50.7045 15.4749 50.6168 17.2485 51.0039 18.9446C51.0276 19.0496 50.9621 19.1531 50.8578 19.1776C50.7535 19.2013 50.6484 19.1357 50.6247 19.0315C50.2211 17.2658 50.3119 15.4196 50.8878 13.6935C51.726 11.1805 53.4916 9.14469 55.8616 7.96049C58.2308 6.77629 60.9192 6.58512 63.4321 7.4233C68.6192 9.15339 71.4324 14.7805 69.7023 19.9676C68.3182 24.1174 64.4394 26.7473 60.2872 26.7481L60.2879 26.7489Z" fill="#134E4A"/>
<path d="M23.1774 7.65806C23.1292 7.65806 23.0802 7.63989 23.0431 7.60434C22.9657 7.53008 22.9633 7.40684 23.0376 7.32942L23.7533 6.58288C23.8275 6.50546 23.9508 6.50309 24.0282 6.57735C24.1056 6.65161 24.108 6.77484 24.0337 6.85226L23.318 7.59881C23.2801 7.63831 23.2287 7.65885 23.1774 7.65885V7.65806Z" fill="#134E4A"/>
<path d="M20.673 10.2712C20.6248 10.2712 20.5758 10.253 20.5387 10.2175C20.4613 10.1432 20.4589 10.02 20.5332 9.94258L21.2489 9.19604C21.3232 9.11862 21.4464 9.11625 21.5238 9.19051C21.6012 9.26476 21.6036 9.388 21.5293 9.46542L20.8136 10.212C20.7757 10.2515 20.7243 10.272 20.673 10.272V10.2712Z" fill="#134E4A"/>
<path d="M21.3753 7.69753C21.3264 7.69753 21.2766 7.67857 21.2387 7.64144L20.5127 6.92649C20.436 6.85144 20.4352 6.72821 20.5103 6.65158C20.5853 6.57495 20.7086 6.57416 20.7852 6.64921L21.5112 7.36415C21.5878 7.4392 21.5886 7.56244 21.5136 7.63907C21.4757 7.67778 21.4251 7.69674 21.3753 7.69674V7.69753Z" fill="#134E4A"/>
<path d="M23.9168 10.1995C23.8679 10.1995 23.8181 10.1805 23.7802 10.1434L23.0542 9.42845C22.9775 9.3534 22.9767 9.23016 23.0518 9.15353C23.1276 9.0769 23.2501 9.07611 23.3267 9.15116L24.0527 9.86611C24.1293 9.94116 24.1301 10.0644 24.0551 10.141C24.0172 10.1797 23.9666 10.1987 23.9168 10.1987V10.1995Z" fill="#134E4A"/>
<path d="M135.732 8.96458C135.683 8.96458 135.634 8.94641 135.597 8.91086C135.52 8.8366 135.517 8.71336 135.592 8.63594L136.308 7.8894C136.382 7.81198 136.505 7.80961 136.582 7.88386C136.66 7.95812 136.663 8.08136 136.588 8.15878L135.872 8.90533C135.834 8.94483 135.783 8.96537 135.732 8.96537V8.96458Z" fill="#134E4A"/>
<path d="M133.227 11.5786C133.179 11.5786 133.13 11.5604 133.093 11.5249C133.016 11.4506 133.012 11.3274 133.087 11.25L133.803 10.5034C133.877 10.426 134.001 10.4236 134.078 10.4979C134.155 10.5721 134.159 10.6954 134.084 10.7728L133.368 11.5193C133.33 11.5588 133.279 11.5794 133.227 11.5794V11.5786Z" fill="#134E4A"/>
<path d="M133.93 9.0049C133.881 9.0049 133.831 8.98594 133.793 8.94881L133.067 8.23387C132.99 8.15882 132.989 8.03558 133.064 7.95895C133.14 7.88232 133.263 7.88153 133.339 7.95658L134.065 8.67152C134.142 8.74657 134.143 8.86981 134.068 8.94644C134.03 8.98515 133.979 9.00411 133.93 9.00411V9.0049Z" fill="#134E4A"/>
<path d="M136.471 11.5067C136.422 11.5067 136.372 11.4878 136.334 11.4506L135.608 10.7357C135.531 10.6606 135.531 10.5374 135.606 10.4608C135.681 10.3842 135.804 10.3834 135.881 10.4584L136.607 11.1734C136.683 11.2484 136.684 11.3716 136.609 11.4483C136.571 11.487 136.521 11.5059 136.471 11.5059V11.5067Z" fill="#134E4A"/>
<path d="M138.854 123.328C138.748 123.328 138.662 123.244 138.66 123.138L138.638 122.104C138.635 121.996 138.721 121.908 138.828 121.905C138.937 121.901 139.025 121.988 139.026 122.096L139.049 123.13C139.051 123.237 138.966 123.326 138.858 123.328C138.857 123.328 138.855 123.328 138.854 123.328Z" fill="#134E4A"/>
<path d="M138.932 126.947C138.826 126.947 138.74 126.863 138.738 126.757L138.716 125.723C138.713 125.615 138.799 125.527 138.906 125.524C139.014 125.52 139.103 125.607 139.105 125.715L139.127 126.749C139.129 126.856 139.044 126.945 138.936 126.947C138.935 126.947 138.933 126.947 138.932 126.947Z" fill="#134E4A"/>
<path d="M136.589 124.639C136.483 124.639 136.396 124.553 136.395 124.446C136.395 124.339 136.48 124.251 136.588 124.25L137.607 124.242H137.608C137.715 124.242 137.802 124.328 137.803 124.435C137.803 124.542 137.717 124.63 137.61 124.631L136.591 124.639H136.589Z" fill="#134E4A"/>
<path d="M140.156 124.61C140.049 124.61 139.962 124.524 139.962 124.418C139.962 124.31 140.047 124.222 140.154 124.222L141.174 124.214C141.273 124.212 141.369 124.299 141.369 124.407C141.369 124.514 141.284 124.602 141.177 124.602L140.158 124.61H140.156Z" fill="#134E4A"/>
<path d="M8.2669 26.9085C7.99515 26.9085 7.72339 26.858 7.4619 26.7561C6.8931 26.5349 6.44518 26.1012 6.20107 25.534C5.701 24.3758 6.21924 23.0178 7.35604 22.5075C7.90351 22.2618 8.5118 22.246 9.07033 22.4632C9.63912 22.6844 10.087 23.1182 10.3312 23.6854C10.8312 24.8443 10.313 26.2015 9.17619 26.7126C8.88468 26.8438 8.57579 26.9093 8.2669 26.9093V26.9085ZM8.26532 22.6995C8.01015 22.6995 7.75578 22.754 7.51483 22.8614C6.57079 23.2856 6.14103 24.4153 6.55736 25.3791C6.76038 25.85 7.13168 26.2102 7.60252 26.3935C8.06309 26.5728 8.56552 26.5594 9.01661 26.3571C9.96065 25.9329 10.3904 24.8032 9.97408 23.8386C9.77105 23.3678 9.39975 23.0076 8.92892 22.8243C8.71325 22.7405 8.48889 22.6987 8.26532 22.6987V22.6995Z" fill="#134E4A"/>
<path d="M147.709 116.569C147.442 116.569 147.175 116.519 146.918 116.42C146.359 116.202 145.92 115.777 145.68 115.22C145.189 114.082 145.698 112.749 146.814 112.248C147.351 112.007 147.949 111.991 148.497 112.204C149.055 112.421 149.495 112.847 149.735 113.404C150.226 114.542 149.717 115.874 148.601 116.376C148.315 116.505 148.011 116.569 147.708 116.569H147.709ZM146.973 112.602C146.05 113.017 145.63 114.121 146.037 115.066C146.236 115.526 146.599 115.878 147.059 116.057C147.51 116.232 148.002 116.22 148.443 116.021C149.366 115.607 149.786 114.501 149.38 113.558C149.181 113.098 148.818 112.745 148.357 112.567C147.906 112.391 147.416 112.405 146.974 112.602H146.973Z" fill="#134E4A"/>
<path d="M16.2853 148.991C15.9874 148.991 15.6888 148.936 15.402 148.824C14.7787 148.582 14.2874 148.105 14.0188 147.483C13.4705 146.212 14.0385 144.722 15.2859 144.162C15.8855 143.892 16.5538 143.875 17.1661 144.114C17.7894 144.356 18.2808 144.832 18.5494 145.455C19.0976 146.726 18.5296 148.216 17.2822 148.776C16.9631 148.92 16.6242 148.992 16.2845 148.992L16.2853 148.991ZM16.2837 144.336C15.9985 144.336 15.7141 144.396 15.4455 144.516C14.3908 144.99 13.9113 146.251 14.3758 147.329C14.6026 147.855 15.0173 148.257 15.5434 148.462C16.0577 148.662 16.6194 148.647 17.1234 148.421C18.1781 147.947 18.6576 146.686 18.1931 145.608C17.9664 145.082 17.5516 144.68 17.0255 144.475C16.7845 144.382 16.5341 144.336 16.2837 144.336Z" fill="#134E4A"/>
<path d="M13.2273 14.0515C13.0433 14.0515 12.86 14.0175 12.683 13.9488C12.2991 13.7995 11.9965 13.5064 11.8306 13.1233C11.4933 12.3412 11.8433 11.4248 12.6111 11.0803C12.9809 10.9144 13.3924 10.9034 13.7708 11.0503C14.1548 11.1996 14.4573 11.4927 14.6232 11.8759C14.9606 12.658 14.6106 13.5743 13.8427 13.9188C13.646 14.0073 13.4367 14.0515 13.2273 14.0515ZM13.2273 11.3355C13.0725 11.3355 12.9177 11.3687 12.7715 11.4343C12.1964 11.6926 11.9349 12.3807 12.1885 12.9692C12.3125 13.256 12.5377 13.4756 12.8244 13.5862C13.1041 13.6952 13.4098 13.6873 13.6839 13.5641C14.2591 13.3058 14.5205 12.6177 14.267 12.0291C14.1429 11.7424 13.9178 11.5227 13.631 11.4121C13.4999 11.3616 13.364 11.3363 13.2281 11.3363L13.2273 11.3355Z" fill="#134E4A"/>
<path d="M109.48 21.6108C109.432 21.6108 109.383 21.5926 109.346 21.5571C109.269 21.4828 109.266 21.3596 109.341 21.2822L110.056 20.5356C110.131 20.4582 110.254 20.4558 110.331 20.5301C110.409 20.6044 110.412 20.7276 110.337 20.805L109.621 21.5516C109.583 21.5911 109.532 21.6116 109.48 21.6116V21.6108Z" fill="#134E4A"/>
<path d="M106.976 24.2248C106.928 24.2248 106.879 24.2067 106.842 24.1711C106.764 24.0969 106.761 23.9736 106.836 23.8962L107.552 23.1496C107.626 23.0722 107.749 23.0699 107.827 23.1441C107.904 23.2184 107.907 23.3416 107.832 23.419L107.117 24.1656C107.079 24.2051 107.027 24.2256 106.976 24.2256V24.2248Z" fill="#134E4A"/>
<path d="M107.679 21.6511C107.63 21.6511 107.58 21.6322 107.542 21.5951L106.816 20.8801C106.739 20.8051 106.738 20.6818 106.814 20.6052C106.889 20.5286 107.012 20.5278 107.088 20.6028L107.814 21.3178C107.891 21.3928 107.892 21.5161 107.817 21.5927C107.779 21.6314 107.728 21.6504 107.679 21.6504V21.6511Z" fill="#134E4A"/>
<path d="M110.22 24.153C110.171 24.153 110.121 24.134 110.083 24.0969L109.357 23.3819C109.281 23.3069 109.28 23.1837 109.355 23.107C109.43 23.0304 109.553 23.0296 109.63 23.1046L110.356 23.8196C110.432 23.8946 110.433 24.0179 110.358 24.0945C110.32 24.1332 110.27 24.1522 110.22 24.1522V24.153Z" fill="#134E4A"/>
<path d="M9.72908 139.934C8.77872 139.934 8.0061 139.16 8.0061 138.211C8.0061 137.261 8.77951 136.488 9.72908 136.488C10.6787 136.488 11.4521 137.261 11.4521 138.211C11.4521 139.16 10.6787 139.934 9.72908 139.934ZM9.72908 136.876C8.9936 136.876 8.39478 137.475 8.39478 138.211C8.39478 138.946 8.9936 139.545 9.72908 139.545C10.4646 139.545 11.0634 138.946 11.0634 138.211C11.0634 137.475 10.4646 136.876 9.72908 136.876Z" fill="#134E4A"/>
</svg>
