<svg width="16" height="17" viewBox="0 0 16 17" fill="none" xmlns="http://www.w3.org/2000/svg">
<path d="M10.6667 14.657V13.3236C10.6667 12.6164 10.3858 11.9381 9.88566 11.438C9.38556 10.9379 8.70728 10.657 8.00004 10.657H4.00004C3.2928 10.657 2.61452 10.9379 2.11442 11.438C1.61433 11.9381 1.33337 12.6164 1.33337 13.3236V14.657" stroke="#334155" stroke-width="1.33333" stroke-linecap="round" stroke-linejoin="round"/>
<path d="M6.00004 7.99032C7.4728 7.99032 8.66671 6.79641 8.66671 5.32365C8.66671 3.85089 7.4728 2.65698 6.00004 2.65698C4.52728 2.65698 3.33337 3.85089 3.33337 5.32365C3.33337 6.79641 4.52728 7.99032 6.00004 7.99032Z" stroke="#334155" stroke-width="1.33333" stroke-linecap="round" stroke-linejoin="round"/>
<path d="M14.6666 14.657V13.3237C14.6662 12.7328 14.4695 12.1588 14.1075 11.6919C13.7455 11.2249 13.2387 10.8914 12.6666 10.7437" stroke="#334155" stroke-width="1.33333" stroke-linecap="round" stroke-linejoin="round"/>
<path d="M10.6666 2.74365C11.2402 2.89052 11.7487 3.22412 12.1117 3.69186C12.4748 4.1596 12.6719 4.73487 12.6719 5.32699C12.6719 5.9191 12.4748 6.49437 12.1117 6.96211C11.7487 7.42985 11.2402 7.76345 10.6666 7.91032" stroke="#334155" stroke-width="1.33333" stroke-linecap="round" stroke-linejoin="round"/>
</svg>
