<svg width="16" height="17" viewBox="0 0 16 17" fill="none" xmlns="http://www.w3.org/2000/svg">
<path d="M8.14667 1.99036H7.85333C7.49971 1.99036 7.16057 2.13083 6.91053 2.38088C6.66048 2.63093 6.52 2.97007 6.52 3.32369V3.44369C6.51976 3.67751 6.45804 3.90715 6.34103 4.10958C6.22401 4.31201 6.05583 4.48011 5.85333 4.59702L5.56667 4.76369C5.36398 4.88071 5.13405 4.94232 4.9 4.94232C4.66595 4.94232 4.43603 4.88071 4.23333 4.76369L4.13333 4.71036C3.82738 4.53387 3.46389 4.48599 3.12267 4.57723C2.78145 4.66847 2.49037 4.89138 2.31333 5.19702L2.16667 5.45036C1.99018 5.75631 1.9423 6.1198 2.03354 6.46102C2.12478 6.80225 2.34769 7.09332 2.65333 7.27036L2.75333 7.33702C2.95485 7.45336 3.12241 7.62042 3.23937 7.82158C3.35632 8.02274 3.4186 8.251 3.42 8.48369V8.82369C3.42093 9.05864 3.35977 9.28966 3.2427 9.49336C3.12563 9.69707 2.95681 9.86622 2.75333 9.98369L2.65333 10.0437C2.34769 10.2207 2.12478 10.5118 2.03354 10.853C1.9423 11.1942 1.99018 11.5577 2.16667 11.8637L2.31333 12.117C2.49037 12.4227 2.78145 12.6456 3.12267 12.7368C3.46389 12.8281 3.82738 12.7802 4.13333 12.6037L4.23333 12.5504C4.43603 12.4333 4.66595 12.3717 4.9 12.3717C5.13405 12.3717 5.36398 12.4333 5.56667 12.5504L5.85333 12.717C6.05583 12.8339 6.22401 13.002 6.34103 13.2045C6.45804 13.4069 6.51976 13.6365 6.52 13.8704V13.9904C6.52 14.344 6.66048 14.6831 6.91053 14.9332C7.16057 15.1832 7.49971 15.3237 7.85333 15.3237H8.14667C8.50029 15.3237 8.83943 15.1832 9.08948 14.9332C9.33953 14.6831 9.48 14.344 9.48 13.9904V13.8704C9.48024 13.6365 9.54196 13.4069 9.65898 13.2045C9.77599 13.002 9.94418 12.8339 10.1467 12.717L10.4333 12.5504C10.636 12.4333 10.866 12.3717 11.1 12.3717C11.3341 12.3717 11.564 12.4333 11.7667 12.5504L11.8667 12.6037C12.1726 12.7802 12.5361 12.8281 12.8773 12.7368C13.2186 12.6456 13.5096 12.4227 13.6867 12.117L13.8333 11.857C14.0098 11.5511 14.0577 11.1876 13.9665 10.8464C13.8752 10.5051 13.6523 10.2141 13.3467 10.037L13.2467 9.98369C13.0432 9.86622 12.8744 9.69707 12.7573 9.49336C12.6402 9.28966 12.5791 9.05864 12.58 8.82369V8.49036C12.5791 8.25541 12.6402 8.02439 12.7573 7.82068C12.8744 7.61698 13.0432 7.44783 13.2467 7.33036L13.3467 7.27036C13.6523 7.09332 13.8752 6.80225 13.9665 6.46102C14.0577 6.1198 14.0098 5.75631 13.8333 5.45036L13.6867 5.19702C13.5096 4.89138 13.2186 4.66847 12.8773 4.57723C12.5361 4.48599 12.1726 4.53387 11.8667 4.71036L11.7667 4.76369C11.564 4.88071 11.3341 4.94232 11.1 4.94232C10.866 4.94232 10.636 4.88071 10.4333 4.76369L10.1467 4.59702C9.94418 4.48011 9.77599 4.31201 9.65898 4.10958C9.54196 3.90715 9.48024 3.67751 9.48 3.44369V3.32369C9.48 2.97007 9.33953 2.63093 9.08948 2.38088C8.83943 2.13083 8.50029 1.99036 8.14667 1.99036Z" stroke="#334155" stroke-width="1.33333" stroke-linecap="round" stroke-linejoin="round"/>
<path d="M8 10.657C9.10457 10.657 10 9.76155 10 8.65698C10 7.55241 9.10457 6.65698 8 6.65698C6.89543 6.65698 6 7.55241 6 8.65698C6 9.76155 6.89543 10.657 8 10.657Z" stroke="#334155" stroke-width="1.33333" stroke-linecap="round" stroke-linejoin="round"/>
</svg>
