<svg width="21" height="21" viewBox="0 0 21 21" fill="none" xmlns="http://www.w3.org/2000/svg">
<g clip-path="url(#clip0_242_3924)">
<path d="M15.9297 6.79163C17.3104 6.79163 18.4297 5.67234 18.4297 4.29163C18.4297 2.91091 17.3104 1.79163 15.9297 1.79163C14.549 1.79163 13.4297 2.91091 13.4297 4.29163C13.4297 5.67234 14.549 6.79163 15.9297 6.79163Z" stroke="#CBD5E1" stroke-width="2" stroke-linecap="round" stroke-linejoin="round"/>
<path d="M5.92969 12.625C7.3104 12.625 8.42969 11.5057 8.42969 10.125C8.42969 8.74429 7.3104 7.625 5.92969 7.625C4.54898 7.625 3.42969 8.74429 3.42969 10.125C3.42969 11.5057 4.54898 12.625 5.92969 12.625Z" stroke="#CBD5E1" stroke-width="2" stroke-linecap="round" stroke-linejoin="round"/>
<path d="M15.9297 18.4584C17.3104 18.4584 18.4297 17.3391 18.4297 15.9584C18.4297 14.5777 17.3104 13.4584 15.9297 13.4584C14.549 13.4584 13.4297 14.5777 13.4297 15.9584C13.4297 17.3391 14.549 18.4584 15.9297 18.4584Z" stroke="#CBD5E1" stroke-width="2" stroke-linecap="round" stroke-linejoin="round"/>
<path d="M8.08801 11.3833L13.7797 14.7" stroke="#CBD5E1" stroke-width="2" stroke-linecap="round" stroke-linejoin="round"/>
<path d="M13.7713 5.55005L8.08801 8.86672" stroke="#CBD5E1" stroke-width="2" stroke-linecap="round" stroke-linejoin="round"/>
</g>
<defs>
<clipPath id="clip0_242_3924">
<rect width="20" height="20" fill="white" transform="translate(0.929688 0.125)"/>
</clipPath>
</defs>
</svg>
