<svg width="21" height="20" viewBox="0 0 21 20" fill="none" xmlns="http://www.w3.org/2000/svg">
<path d="M15.0396 6.66663C16.4203 6.66663 17.5396 5.54734 17.5396 4.16663C17.5396 2.78591 16.4203 1.66663 15.0396 1.66663C13.6588 1.66663 12.5396 2.78591 12.5396 4.16663C12.5396 5.54734 13.6588 6.66663 15.0396 6.66663Z" stroke="#CBD5E1" stroke-width="2" stroke-linecap="round" stroke-linejoin="round"/>
<path d="M5.03955 12.5C6.42026 12.5 7.53955 11.3807 7.53955 10C7.53955 8.61929 6.42026 7.5 5.03955 7.5C3.65884 7.5 2.53955 8.61929 2.53955 10C2.53955 11.3807 3.65884 12.5 5.03955 12.5Z" stroke="#CBD5E1" stroke-width="2" stroke-linecap="round" stroke-linejoin="round"/>
<path d="M15.0396 18.3334C16.4203 18.3334 17.5396 17.2141 17.5396 15.8334C17.5396 14.4527 16.4203 13.3334 15.0396 13.3334C13.6588 13.3334 12.5396 14.4527 12.5396 15.8334C12.5396 17.2141 13.6588 18.3334 15.0396 18.3334Z" stroke="#CBD5E1" stroke-width="2" stroke-linecap="round" stroke-linejoin="round"/>
<path d="M7.19788 11.2583L12.8895 14.575" stroke="#CBD5E1" stroke-width="2" stroke-linecap="round" stroke-linejoin="round"/>
<path d="M12.8812 5.42505L7.19788 8.74172" stroke="#CBD5E1" stroke-width="2" stroke-linecap="round" stroke-linejoin="round"/>
</svg>
