<svg width="20" height="21" viewBox="0 0 20 21" fill="none" xmlns="http://www.w3.org/2000/svg">
<g clip-path="url(#clip0_242_3951)">
<path d="M15 7.54163C16.3807 7.54163 17.5 6.42234 17.5 5.04163C17.5 3.66091 16.3807 2.54163 15 2.54163C13.6193 2.54163 12.5 3.66091 12.5 5.04163C12.5 6.42234 13.6193 7.54163 15 7.54163Z" stroke="#334155" stroke-width="2" stroke-linecap="round" stroke-linejoin="round"/>
<path d="M5 13.375C6.38071 13.375 7.5 12.2557 7.5 10.875C7.5 9.49429 6.38071 8.375 5 8.375C3.61929 8.375 2.5 9.49429 2.5 10.875C2.5 12.2557 3.61929 13.375 5 13.375Z" stroke="#334155" stroke-width="2" stroke-linecap="round" stroke-linejoin="round"/>
<path d="M15 19.2084C16.3807 19.2084 17.5 18.0891 17.5 16.7084C17.5 15.3277 16.3807 14.2084 15 14.2084C13.6193 14.2084 12.5 15.3277 12.5 16.7084C12.5 18.0891 13.6193 19.2084 15 19.2084Z" stroke="#334155" stroke-width="2" stroke-linecap="round" stroke-linejoin="round"/>
<path d="M7.15833 12.1333L12.85 15.45" stroke="#334155" stroke-width="2" stroke-linecap="round" stroke-linejoin="round"/>
<path d="M12.8417 6.30005L7.15833 9.61672" stroke="#334155" stroke-width="2" stroke-linecap="round" stroke-linejoin="round"/>
</g>
<defs>
<clipPath id="clip0_242_3951">
<rect width="20" height="20" fill="white" transform="translate(0 0.875)"/>
</clipPath>
</defs>
</svg>
