<svg xmlns="http://www.w3.org/2000/svg" width="122" height="124" viewBox="0 0 122 124" fill="none">
  <path d="M97.9931 50.1999L95.9371 43.2683L77.2379 41.5918L76.0103 50.9489C76.0103 50.9489 95.1733 54.9963 97.9931 50.1999Z" fill="#115E59"/>
  <path d="M89.8484 52.7072C83.7079 52.7072 76.4638 51.2018 75.9777 51.0976C75.9008 51.0803 75.8487 51.0084 75.8586 50.929L77.0862 41.5719C77.0962 41.4901 77.1706 41.433 77.2499 41.4405L95.9492 43.117C96.0112 43.1219 96.0633 43.1666 96.0831 43.2261L98.139 50.1577C98.1514 50.1974 98.1465 50.242 98.1242 50.2792C97.0354 52.1293 93.6527 52.7072 89.8484 52.7072ZM76.181 50.8273C77.9071 51.177 95.1085 54.5324 97.829 50.18L95.8202 43.4121L77.3714 41.7579L76.181 50.8273Z" fill="#14B8A6"/>
  <path d="M62.0577 24.5565L64.7237 26.5603C64.4013 27.845 64.188 29.1395 64.0888 30.4316L60.9342 31.4856C59.3718 32.0064 58.3823 33.5415 58.546 35.1783C58.7121 36.8152 59.9893 38.1221 61.6237 38.3205L64.9345 38.7248C65.2965 39.9821 65.7603 41.2072 66.3233 42.3877L64.1111 44.8851C63.0199 46.1177 62.9281 47.943 63.8904 49.2772C64.8526 50.6139 66.611 51.1025 68.1262 50.4602L71.1866 49.1582C72.1191 50.0584 73.1359 50.8867 74.2295 51.6332L73.5624 54.9019C73.2326 56.5139 74.0659 58.1408 75.5663 58.8153C77.0667 59.4899 78.8374 59.036 79.8269 57.7216L81.8308 55.0556C83.1154 55.378 84.41 55.5913 85.7021 55.6905L86.7561 58.8451C87.2769 60.4075 88.812 61.397 90.4488 61.2333C92.0856 61.0672 93.3926 59.79 93.591 58.1556L93.9952 54.8448C95.2526 54.4827 96.4777 54.019 97.6582 53.456L100.156 55.6682C101.388 56.7594 103.213 56.8512 104.548 55.8889C105.884 54.9267 106.375 53.1683 105.731 51.6531L104.429 48.5927C105.329 47.6602 106.157 46.6434 106.904 45.5497L110.172 46.2169C111.784 46.5467 113.411 45.7134 114.086 44.213C114.76 42.7126 114.307 40.9419 112.992 39.9524L110.326 37.9485C110.649 36.6639 110.862 35.3693 110.961 34.0772L114.116 33.0232C115.678 32.5024 116.667 30.9673 116.504 29.3305C116.338 27.6937 115.06 26.3867 113.426 26.1883L110.115 25.7841C109.753 24.5267 109.289 23.3016 108.726 22.1211L110.939 19.6237C112.03 18.3912 112.122 16.5683 111.159 15.2316C110.197 13.8949 108.439 13.4039 106.924 14.0487L103.863 15.3507C102.931 14.4504 101.914 13.6221 100.82 12.8756L101.487 9.60696C101.817 7.99495 100.984 6.36806 99.4835 5.6935C97.9831 5.01894 96.2124 5.47278 95.2228 6.78718L93.219 9.4532C91.9343 9.13079 90.6398 8.91751 89.3477 8.81583L88.2937 5.66126C87.7729 4.09885 86.2378 3.10933 84.6009 3.27301C82.9641 3.43917 81.6572 4.71637 81.4588 6.3507L81.0545 9.66152C79.7972 10.0236 78.572 10.4874 77.3916 11.0503L74.8942 8.83815C73.6616 7.74695 71.8388 7.65519 70.5021 8.61743C69.1654 9.57967 68.6743 11.338 69.3191 12.8533L70.6211 15.9136C69.7209 16.8461 68.8926 17.8629 68.1461 18.9566L64.8774 18.2895C63.2654 17.9596 61.6385 18.7929 60.964 20.2933C60.2894 21.7937 60.7432 23.5645 62.0577 24.554V24.5565ZM70.4822 24.5813C74.7181 15.1696 85.7839 10.9734 95.1956 15.2093C104.607 19.4452 108.803 30.511 104.568 39.9226C100.332 49.3342 89.2659 53.5304 79.8542 49.2946C70.4426 45.0587 66.2464 33.9929 70.4822 24.5813Z" fill="#115E59"/>
  <path d="M90.0916 61.407C88.5218 61.407 87.1255 60.4175 86.6171 58.8972L85.5954 55.8369C84.3703 55.7352 83.1278 55.5319 81.8977 55.2293L79.9534 57.8135C78.9142 59.1948 77.0865 59.666 75.5092 58.9543C73.9319 58.245 73.0713 56.566 73.416 54.8697L74.0608 51.7002C73.0192 50.981 72.0421 50.1874 71.1543 49.3368L68.1857 50.5991C66.5935 51.2762 64.7782 50.7702 63.7663 49.3666C62.7545 47.9629 62.8512 46.0781 63.997 44.7835L66.1422 42.3605C65.609 41.2346 65.1651 40.0591 64.8154 38.8612L61.6038 38.4694C59.8876 38.2611 58.5657 36.9119 58.3921 35.1908C58.2185 33.4697 59.2428 31.885 60.8821 31.3369L63.9424 30.3151C64.0441 29.09 64.2474 27.845 64.55 26.6174L61.9658 24.6731C60.5845 23.634 60.1133 21.8062 60.8226 20.2289C61.5318 18.6516 63.2108 17.7911 64.9071 18.1358L68.0766 18.7806C68.7958 17.739 69.5894 16.7618 70.4425 15.874L69.1802 12.9054C68.5031 11.3133 69.0091 9.4979 70.4128 8.48605C71.8164 7.47421 73.7013 7.57093 74.9958 8.7167L77.4188 10.8619C78.5447 10.3312 79.7227 9.88478 80.9181 9.5351L81.3099 6.32348C81.5182 4.60732 82.8674 3.28547 84.5885 3.11187C86.3096 2.93827 87.8944 3.96251 88.4424 5.6018L89.4642 8.66213C90.6918 8.76381 91.9343 8.96718 93.1619 9.26974L95.1062 6.68557C96.1453 5.3042 97.9731 4.833 99.5504 5.54476C101.128 6.25404 101.988 7.93301 101.644 9.62934L100.999 12.7988C102.038 13.518 103.015 14.3116 103.905 15.1622L106.874 13.8999C108.466 13.2229 110.284 13.7288 111.293 15.1325C112.305 16.5362 112.208 18.421 111.063 19.7155L108.917 22.1385C109.451 23.2644 109.895 24.4424 110.244 25.6378L113.456 26.0296C115.172 26.238 116.494 27.5871 116.667 29.3082C116.841 31.0294 115.817 32.6141 114.178 33.1622L111.117 34.1839C111.015 35.4115 110.812 36.654 110.51 37.8816L113.094 39.826C114.475 40.8651 114.946 42.6928 114.237 44.2701C113.528 45.8474 111.849 46.708 110.152 46.3633L106.983 45.7185C106.264 46.7601 105.468 47.7372 104.617 48.625L105.882 51.5936C106.559 53.1858 106.053 55.0011 104.649 56.013C103.246 57.0248 101.361 56.9306 100.066 55.7823L97.6433 53.6371C96.5173 54.1678 95.3418 54.6143 94.144 54.9639L93.7521 58.1755C93.5438 59.8917 92.1947 61.2136 90.4736 61.3872C90.3471 61.3996 90.2206 61.407 90.0941 61.407H90.0916ZM81.8357 54.9044C81.8357 54.9044 81.8605 54.9044 81.8729 54.9094C83.1501 55.2293 84.4447 55.4426 85.7194 55.5418C85.7814 55.5467 85.8335 55.5864 85.8533 55.6459L86.9073 58.8005C87.4107 60.3034 88.8616 61.2433 90.4413 61.0846C92.0186 60.9259 93.2561 59.7156 93.4471 58.1408L93.8513 54.83C93.8588 54.768 93.9009 54.7184 93.9605 54.7011C95.2079 54.3439 96.4305 53.8777 97.6011 53.3197C97.6557 53.2924 97.7226 53.3023 97.7673 53.342L100.265 55.5542C101.453 56.6057 103.181 56.6925 104.466 55.765C105.753 54.8375 106.217 53.1709 105.597 51.7126L104.295 48.6523C104.27 48.5953 104.282 48.5308 104.324 48.4861C105.212 47.5685 106.041 46.5493 106.785 45.463C106.819 45.4134 106.881 45.3861 106.941 45.3985L110.209 46.0657C111.762 46.3831 113.302 45.5945 113.954 44.1486C114.607 42.7028 114.175 41.0263 112.908 40.074L110.242 38.0701C110.192 38.0329 110.17 37.9709 110.185 37.9114C110.505 36.6342 110.718 35.3396 110.817 34.0649C110.822 34.0029 110.862 33.9508 110.921 33.931L114.076 32.877C115.581 32.3735 116.519 30.9202 116.36 29.3429C116.201 27.7657 114.991 26.5281 113.416 26.3372L110.105 25.9329C110.043 25.9255 109.994 25.8833 109.976 25.8238C109.619 24.5788 109.155 23.3537 108.595 22.1832C108.568 22.1286 108.578 22.0616 108.617 22.017L110.829 19.5196C111.881 18.3317 111.968 16.6056 111.04 15.3185C110.113 14.0314 108.446 13.5676 106.988 14.1876L103.928 15.4896C103.871 15.5144 103.806 15.502 103.761 15.4598C102.841 14.5695 101.825 13.7437 100.738 12.9997C100.689 12.965 100.661 12.903 100.674 12.8434L101.341 9.57478C101.658 8.01981 100.87 6.48221 99.4239 5.82996C97.9781 5.1802 96.3016 5.60924 95.3493 6.87653L93.3454 9.54254C93.3082 9.59214 93.2462 9.61446 93.1867 9.59958C91.9095 9.27966 90.6174 9.06638 89.3402 8.96718C89.2782 8.96222 89.2261 8.92254 89.2063 8.86302L88.1523 5.70844C87.6488 4.20308 86.1955 3.26563 84.6183 3.42435C83.041 3.58307 81.8034 4.79332 81.6125 6.36812L81.2082 9.67894C81.2008 9.74094 81.1586 9.79054 81.0991 9.8079C79.8542 10.165 78.629 10.6288 77.4585 11.1893C77.4039 11.2165 77.3369 11.2066 77.2923 11.1669L74.7949 8.95478C73.607 7.90325 71.8784 7.81645 70.5938 8.74398C69.3067 9.6715 68.8429 11.3381 69.4629 12.7963L70.7649 15.8566C70.7897 15.9137 70.7773 15.9782 70.7352 16.0228C69.8473 16.9429 69.019 17.9597 68.275 19.0459C68.2403 19.0955 68.1783 19.1203 68.1187 19.1104L64.8501 18.4433C63.2976 18.1259 61.7575 18.9145 61.1053 20.3603C60.4555 21.8062 60.8846 23.4827 62.1518 24.435L64.8179 26.4389C64.8675 26.4761 64.8898 26.5381 64.8749 26.5976C64.555 27.8748 64.3417 29.1693 64.2425 30.4441C64.2375 30.5061 64.1979 30.5581 64.1383 30.578L60.9838 31.632C59.4784 32.1354 58.5409 33.5887 58.6997 35.166C58.8584 36.7433 60.0686 37.9808 61.6434 38.1718L64.9542 38.576C65.0163 38.5835 65.0659 38.6256 65.0832 38.6851C65.4403 39.9326 65.9041 41.1552 66.4646 42.3258C66.4919 42.3804 66.4819 42.4473 66.4423 42.492L64.2301 44.9893C63.1786 46.1773 63.0918 47.9058 64.0193 49.1905C64.9468 50.4776 66.6134 50.9414 68.0716 50.3214L71.132 49.0193C71.189 48.9945 71.2535 49.0069 71.2981 49.0491C72.2182 49.937 73.235 50.7653 74.3213 51.5093C74.3709 51.544 74.3981 51.606 74.3857 51.6655L73.7186 54.9342C73.4012 56.4891 74.1898 58.0267 75.6357 58.679C77.0815 59.3288 78.758 58.8997 79.7103 57.6324L81.7142 54.9664C81.7439 54.9267 81.7886 54.9044 81.8357 54.9044ZM87.5 51.0951C84.9183 51.0951 82.297 50.5619 79.7946 49.436C70.321 45.1704 66.0827 33.9954 70.3458 24.5193C72.4116 19.9288 76.1416 16.4196 80.8462 14.634C85.5532 12.8484 90.672 13.0046 95.26 15.0705C104.734 19.3336 108.972 30.511 104.709 39.9871C101.572 46.9585 94.6896 51.0951 87.5 51.0951ZM87.5347 13.7065C85.3151 13.7065 83.0906 14.1107 80.9553 14.9217C76.3251 16.6775 72.6572 20.1297 70.6236 24.6458C66.4274 33.9657 70.5988 44.962 79.9186 49.1582C89.241 53.3544 100.235 49.183 104.431 39.8631C108.627 30.5433 104.456 19.5469 95.136 15.3507C92.7056 14.257 90.1239 13.7065 87.5347 13.7065Z" fill="#14B8A6"/>
  <path d="M63.3422 37.1921C63.3422 37.1921 61.2516 37.269 58.6649 37.2591C58.1218 37.2591 56.6611 35.5107 55.7261 35.8058C55.054 36.0191 56.3263 37.1648 56.1502 37.1623C54.4936 37.1549 53.0626 37.1499 52.5443 37.1475C52.1376 37.1475 52.0012 37.5616 52.1698 37.9311C52.4104 38.4594 52.9361 39.2604 53.8016 39.5407C55.3517 40.0392 58.345 39.816 59.2701 39.6349C61.2938 39.2431 62.8958 39.2133 62.8958 39.2133L63.3422 37.1921Z" fill="#115E59"/>
  <path d="M56.4775 39.9995C55.4954 39.9995 54.4786 39.9201 53.7544 39.687C52.7426 39.3621 52.2119 38.3949 52.0308 37.9956C51.9118 37.7352 51.9192 37.45 52.0482 37.2516C52.1548 37.0855 52.3359 36.9962 52.5442 36.9987C53.0352 37.0012 54.3447 37.0061 55.8922 37.0136C55.8848 37.0061 55.8798 36.9962 55.8724 36.9888C55.6293 36.6738 55.2945 36.2448 55.3937 35.9273C55.421 35.8405 55.4929 35.724 55.6814 35.6644C56.3287 35.4611 57.1397 36.0736 57.7919 36.5672C58.1267 36.8201 58.5061 37.1078 58.6673 37.1103C61.2193 37.1202 63.3174 37.0433 63.3397 37.0433C63.3868 37.0433 63.4315 37.0607 63.4637 37.0979C63.4935 37.1351 63.5058 37.1822 63.4959 37.2293L63.0495 39.2505C63.0346 39.32 62.9726 39.3696 62.9032 39.3696C62.8883 39.3696 61.2862 39.4043 59.3022 39.7887C58.7938 39.8879 57.6629 40.002 56.4825 40.002L56.4775 39.9995ZM52.5392 37.3012C52.4326 37.3012 52.3532 37.3409 52.3036 37.4153C52.2317 37.5269 52.2317 37.7055 52.3061 37.8692C52.4723 38.2313 52.9509 39.1067 53.8462 39.3969C55.3714 39.8879 58.3598 39.6573 59.2378 39.4861C60.9366 39.1563 62.3576 39.0794 62.7693 39.0645L63.1463 37.3508C62.5659 37.3682 60.7679 37.4203 58.6599 37.4104C58.397 37.4104 58.0449 37.1425 57.6009 36.8077C57.0057 36.3564 56.2617 35.7959 55.7657 35.9521C55.6913 35.9769 55.6814 36.0042 55.6789 36.0141C55.6269 36.1778 55.9641 36.6118 56.108 36.7978C56.2865 37.026 56.3535 37.1128 56.2965 37.2244C56.2692 37.2814 56.2097 37.3161 56.1452 37.3161C54.4885 37.3087 53.0576 37.3037 52.5392 37.3012Z" fill="#14B8A6"/>
  <path d="M77.5105 19.2493C80.1988 18.7682 85.9747 18.3986 90.0122 18.7359C91.2497 18.8401 92.4228 19.3237 93.3726 20.1247C96.1552 22.4733 102.477 28.0608 102.921 34.9527C102.945 35.347 102.769 35.7265 102.462 35.972L102.407 35.6719C100.887 36.8822 98.9452 37.1128 97.477 35.8381L96.1676 34.8758C96.1676 34.8758 98.4145 42.9284 98.2632 44.223C98.1094 45.5176 94.1687 47.7198 89.2409 45.9119C85.2927 44.4636 79.9557 44.3172 76.8086 45.1332C76.7565 45.1456 76.6226 46.5666 76.5705 46.5815C76.3448 46.6435 76.0969 46.5989 75.8637 46.5096C75.2958 46.2913 74.9213 45.7432 74.9064 45.1356L74.7031 35.977L68.0244 34.6874C68.0244 34.6874 71.2484 20.3678 77.508 19.2468L77.5105 19.2493Z" fill="#14B8A6"/>
  <path d="M106.428 21.7367C106.353 22.1137 104.598 31.6444 103.801 33.5614C102.988 35.5231 102.239 37.9684 98.6901 36.6168C93.3903 34.5981 102.765 21.9376 103.318 21.0895C103.338 21.0597 106.43 21.7293 106.428 21.7367Z" fill="#14B8A6"/>
  <path d="M59.0345 39.754L59.0147 37.5046C59.0097 37.0483 59.3867 36.6763 59.843 36.6887C61.6658 36.7358 65.9662 36.587 67.6278 34.293C69.024 32.366 69.4456 30.0497 69.4456 30.0497C69.4456 30.0497 76.4839 28.9907 77.6991 34.6997C79.4202 42.7945 63.3076 41.0337 59.7314 40.5476C59.3321 40.493 59.0345 40.1558 59.0321 39.7515L59.0345 39.754Z" fill="#14B8A6"/>
  <path d="M103.935 21.3722L103.722 18.4855C103.722 18.4855 103.588 16.2782 104.019 15.8641C104.337 15.5615 104.788 16.2758 104.967 17.2802C104.997 17.4463 105.232 17.4488 105.262 17.2802C105.373 16.6254 105.396 16.1493 105.359 15.4772C105.319 14.753 105.183 13.4783 105.862 13.4486C106.542 13.4213 108.116 15.1895 107.742 17.3323C107.367 19.475 105.807 21.7764 105.807 21.7764L103.933 21.3697L103.935 21.3722Z" fill="#115E59"/>
  <path d="M105.81 21.9302C105.81 21.9302 105.788 21.9302 105.778 21.9277L103.903 21.521C103.836 21.5061 103.789 21.4515 103.784 21.3821L103.57 18.4954C103.548 18.1135 103.454 16.1914 103.915 15.7525C104.024 15.6483 104.161 15.6136 104.297 15.6582C104.691 15.7872 104.994 16.551 105.118 17.2504C105.217 16.623 105.242 16.1592 105.207 15.4822L105.197 15.2986C105.158 14.6563 105.111 13.8553 105.443 13.4858C105.552 13.3642 105.691 13.2998 105.859 13.2923C106.155 13.2799 106.564 13.5279 106.938 13.957C107.563 14.6712 108.144 15.9385 107.896 17.3546C107.521 19.5047 106.001 21.7615 105.936 21.8583C105.907 21.9004 105.859 21.9252 105.81 21.9252V21.9302ZM104.079 21.2457L105.74 21.6078C106.021 21.1738 107.271 19.165 107.593 17.3099C107.821 15.998 107.285 14.825 106.705 14.1653C106.358 13.7685 106.028 13.5974 105.867 13.6048C105.783 13.6073 105.718 13.637 105.666 13.6966C105.418 13.9694 105.468 14.763 105.5 15.2862L105.51 15.4722C105.547 16.1741 105.522 16.6552 105.411 17.3099C105.386 17.4563 105.264 17.5604 105.115 17.5604C104.967 17.5604 104.843 17.4563 104.818 17.3099C104.669 16.4742 104.362 16.0054 104.203 15.9534C104.183 15.9459 104.161 15.9434 104.126 15.9782C103.848 16.2435 103.826 17.6522 103.875 18.478L104.081 21.2482L104.079 21.2457Z" fill="#14B8A6"/>
  <path d="M79.8321 13.2824C79.3956 13.084 79.1674 13.4139 78.5176 13.3246C77.8257 13.2304 77.0644 12.717 76.7792 11.968C76.4344 11.0628 76.9304 10.1998 77.2454 9.65667C77.5579 9.11603 77.9547 8.51339 78.6416 8.25299C79.5394 7.91323 79.9139 8.43403 80.9431 8.11411C81.7789 7.8537 81.7169 7.45194 82.4609 7.23866C83.0809 7.06258 84.869 7.16178 85.2682 8.11411C85.5212 8.71675 84.9756 9.08379 85.2484 9.97659C85.4121 10.5123 85.67 10.5792 85.8585 10.9934C86.3247 12.0201 85.7394 13.8256 84.6284 14.4282C83.1205 15.2491 80.5885 13.6247 79.8345 13.2824H79.8321Z" fill="#14B8A6"/>
  <path d="M81.2184 15.0061L80.8662 17.8879C80.7993 18.436 80.405 18.8898 79.8693 19.0287L78.3862 19.4156L78.5946 19.5743C81.1713 21.536 84.74 21.5385 87.3192 19.5817L88.088 18.9989L86.2479 18.5872C85.7196 18.4682 85.3129 18.0441 85.2162 17.5109L84.4499 13.2651L81.2159 15.0036L81.2184 15.0061Z" fill="#115E59"/>
  <path d="M82.9642 21.1937C81.3894 21.1937 79.817 20.6927 78.5026 19.6933L78.2943 19.5346C78.2472 19.4999 78.2249 19.4403 78.2373 19.3833C78.2497 19.3263 78.2918 19.2791 78.3489 19.2667L79.8319 18.8799C80.3106 18.7559 80.6553 18.3591 80.7173 17.868L81.0694 14.9862C81.0744 14.9366 81.1042 14.8945 81.1488 14.8697L84.3827 13.1312C84.4249 13.1089 84.477 13.1064 84.5216 13.1287C84.5663 13.151 84.596 13.1907 84.6059 13.2403L85.3723 17.4861C85.4566 17.9598 85.8162 18.3343 86.2874 18.4384L88.1275 18.8501C88.1846 18.8625 88.2317 18.9096 88.2441 18.9667C88.2565 19.0237 88.2342 19.0857 88.1871 19.1204L87.4183 19.7032C86.1088 20.6977 84.539 21.1937 82.9691 21.1937H82.9642ZM78.7283 19.4825C81.2381 21.3648 84.725 21.3574 87.2273 19.4602L87.7332 19.0758L86.213 18.736C85.6227 18.6046 85.1714 18.1334 85.0647 17.5382L84.3356 13.5007L81.3571 15.1028L81.0149 17.9052C80.9405 18.5203 80.504 19.0187 79.9038 19.175L78.7258 19.4825H78.7283Z" fill="#14B8A6"/>
  <path d="M84.0851 13.8528C84.0851 13.8528 85.2235 13.4238 84.7944 12.4839C84.3679 11.544 83.671 12.2384 83.671 12.2384C83.671 12.2384 83.0237 9.92202 81.6671 10.8371C80.3081 11.7498 79.0234 12.0821 79.0234 12.0821C79.0234 12.0821 79.5021 14.4133 80.3602 15.9633C80.8785 16.8983 81.5357 17.5505 82.307 17.2356C84.4249 16.375 84.0827 13.8528 84.0827 13.8528H84.0851Z" fill="#115E59"/>
  <path d="M81.9101 17.4688C81.3199 17.4688 80.7544 16.9876 80.2262 16.0353C79.3656 14.4828 78.892 12.2062 78.8721 12.1119C78.8548 12.0326 78.9044 11.9532 78.9837 11.9334C78.9961 11.9309 80.2634 11.5961 81.5803 10.7082C81.9374 10.4677 82.2871 10.4082 82.6169 10.5297C83.2419 10.7603 83.6065 11.5886 83.7478 11.9854C83.8892 11.8962 84.0975 11.8069 84.3232 11.849C84.5761 11.8962 84.782 12.0871 84.9333 12.4219C85.0647 12.7121 85.0796 12.9923 84.9729 13.2503C84.8142 13.6322 84.4348 13.8579 84.2463 13.9496C84.281 14.4679 84.3033 16.5908 82.3665 17.377C82.2127 17.439 82.0614 17.4712 81.9101 17.4712V17.4688ZM79.2044 12.1863C79.321 12.7071 79.7773 14.587 80.4965 15.8865C81.0719 16.9256 81.6621 17.3324 82.2549 17.0918C84.2364 16.2883 83.9487 13.9695 83.9363 13.8727C83.9264 13.8033 83.9661 13.7339 84.033 13.7091C84.038 13.7091 84.5365 13.5131 84.6927 13.1312C84.7671 12.9527 84.7547 12.7617 84.658 12.5484C84.5513 12.3103 84.4199 12.1764 84.2711 12.1516C84.0281 12.107 83.7825 12.345 83.7801 12.3475C83.7429 12.3847 83.6858 12.3996 83.6337 12.3872C83.5817 12.3723 83.5395 12.3326 83.5246 12.2806C83.5221 12.2682 83.1774 11.0629 82.5128 10.8174C82.2772 10.7306 82.0292 10.7777 81.7539 10.9637C80.6354 11.7151 79.5789 12.0772 79.2044 12.1888V12.1863Z" fill="#14B8A6"/>
  <path d="M74.7057 36.1308C74.7057 36.1308 74.6957 36.1308 74.6883 36.1308C74.604 36.1209 74.5445 36.0465 74.5519 35.9621C75.0901 30.8707 75.8514 26.5654 75.8589 26.5232C75.8737 26.4414 75.9531 26.3843 76.0349 26.3992C76.1168 26.4141 76.1738 26.4935 76.1589 26.5753C76.1515 26.6175 75.3926 30.9128 74.8545 35.9944C74.847 36.0737 74.7801 36.1308 74.7032 36.1308H74.7057Z" fill="#115E59"/>
  <path d="M19.8179 99.2891L21.1646 100.006C21.11 100.608 21.105 101.209 21.1522 101.801L19.8006 102.501C19.131 102.848 18.7937 103.612 18.9846 104.341C19.1756 105.07 19.8452 105.568 20.5991 105.544L22.1243 105.492C22.3773 106.035 22.6749 106.556 23.0122 107.049L22.1888 108.336C21.7821 108.971 21.8714 109.802 22.3996 110.338C22.9303 110.873 23.7587 110.97 24.3985 110.571L25.6906 109.765C26.1767 110.107 26.695 110.407 27.2406 110.667L27.1712 112.193C27.1364 112.944 27.6275 113.621 28.3541 113.819C29.0808 114.018 29.8471 113.688 30.2017 113.023L30.9184 111.677C31.5211 111.731 32.1212 111.736 32.714 111.689L33.4133 113.041C33.7605 113.71 34.5244 114.048 35.2535 113.857C35.9826 113.666 36.4811 112.996 36.4563 112.242L36.4042 110.717C36.9473 110.464 37.4682 110.166 37.9617 109.829L39.2488 110.652C39.8837 111.059 40.7145 110.97 41.2502 110.442C41.7859 109.911 41.8826 109.083 41.4833 108.443L40.6773 107.151C41.0195 106.665 41.3196 106.146 41.58 105.601L43.1052 105.67C43.8567 105.705 44.5337 105.214 44.7321 104.487C44.9305 103.761 44.6007 102.994 43.936 102.64L42.5894 101.923C42.6439 101.32 42.6489 100.72 42.6018 100.127L43.9534 99.428C44.623 99.0808 44.9603 98.3169 44.7693 97.5903C44.5783 96.8612 43.9087 96.3627 43.1548 96.3875L41.6296 96.4396C41.3767 95.8964 41.0791 95.3756 40.7418 94.8821L41.5651 93.595C41.9719 92.9601 41.8826 92.1293 41.3543 91.5936C40.8236 91.0579 39.9953 90.9612 39.3554 91.3605L38.0634 92.1665C37.5773 91.8243 37.059 91.5242 36.5133 91.2638L36.5828 89.7386C36.6175 88.9871 36.1265 88.3101 35.3998 88.1117C34.6732 87.9133 33.9069 88.2431 33.5522 88.9078L32.8355 90.2544C32.2329 90.1998 31.6327 90.1949 31.04 90.242L30.3406 88.8904C29.9934 88.2208 29.2296 87.8835 28.5004 88.0745C27.7713 88.2654 27.2728 88.935 27.2976 89.689L27.3497 91.2142C26.8066 91.4671 26.2858 91.7623 25.7923 92.102L24.5051 91.2787C23.8703 90.8719 23.0395 90.9612 22.5038 91.4895C21.9681 92.0202 21.8714 92.8485 22.2706 93.4883L23.0767 94.7804C22.7344 95.2665 22.4343 95.7848 22.1739 96.3304L20.6487 96.261C19.8973 96.2263 19.2202 96.7173 19.0218 97.444C18.8234 98.1706 19.1533 98.9369 19.8179 99.2916V99.2891ZM23.6272 98.7038C24.8747 94.148 29.5792 91.4671 34.1325 92.7146C38.6883 93.962 41.3692 98.6666 40.1218 103.22C38.8743 107.776 34.1697 110.457 29.6164 109.209C25.0607 107.962 22.3798 103.257 23.6272 98.7038Z" fill="#115E59"/>
  <path d="M34.8418 114.06C34.197 114.06 33.5919 113.705 33.2819 113.108L32.6272 111.845C32.0965 111.883 31.5533 111.878 31.0077 111.833L30.3381 113.09C29.9488 113.824 29.1155 114.182 28.3144 113.963C27.5134 113.745 26.9802 113.011 27.0174 112.183L27.0819 110.759C26.5908 110.521 26.1221 110.246 25.6832 109.946L24.4779 110.7C23.7735 111.139 22.8733 111.034 22.2905 110.444C21.7077 109.854 21.611 108.954 22.0599 108.254L22.8287 107.054C22.5286 106.608 22.2607 106.136 22.0276 105.65L20.6016 105.7C19.7708 105.727 19.0442 105.187 18.8358 104.386C18.625 103.582 18.9921 102.754 19.7311 102.372L20.9935 101.717C20.9563 101.186 20.9612 100.643 21.0059 100.098L19.7485 99.428C19.0144 99.0387 18.6573 98.2054 18.8755 97.4043C19.0938 96.6033 19.8254 96.0701 20.6562 96.1073L22.0797 96.1718C22.3178 95.6807 22.5931 95.212 22.8931 94.773L22.1392 93.5677C21.7003 92.8634 21.8044 91.9632 22.3947 91.3804C22.9849 90.7976 23.8851 90.7009 24.5845 91.1473L25.7848 91.9161C26.2312 91.616 26.7024 91.3481 27.1885 91.115L27.1389 89.689C27.1092 88.8582 27.6523 88.1316 28.4533 87.9232C29.2569 87.7124 30.0852 88.0795 30.4671 88.8185L31.1218 90.0809C31.6525 90.0437 32.1957 90.0486 32.7413 90.0933L33.4109 88.8359C33.8002 88.1018 34.6335 87.7447 35.4346 87.9629C36.2356 88.1812 36.7688 88.9153 36.7316 89.7436L36.6671 91.1671C37.1582 91.4052 37.6269 91.6805 38.0658 91.9805L39.2711 91.2266C39.9755 90.7877 40.8757 90.8918 41.4585 91.4821C42.0413 92.0723 42.138 92.9725 41.6916 93.6719L40.9228 94.8722C41.2229 95.3186 41.4907 95.7898 41.7239 96.2759L43.1499 96.2263C43.9807 96.1966 44.7073 96.7397 44.9156 97.5407C45.1264 98.3443 44.7594 99.1726 44.0204 99.5545L42.758 100.209C42.7952 100.74 42.7903 101.283 42.7456 101.829L44.003 102.498C44.7371 102.888 45.0942 103.721 44.876 104.522C44.6577 105.323 43.9261 105.856 43.0953 105.819L41.6718 105.755C41.4337 106.246 41.1584 106.714 40.8583 107.153L41.6123 108.359C42.0512 109.063 41.9471 109.963 41.3568 110.546C40.7666 111.129 39.8663 111.225 39.167 110.779L37.9666 110.01C37.5202 110.31 37.049 110.578 36.563 110.811L36.6126 112.237C36.6423 113.068 36.0992 113.795 35.2982 114.003C35.1469 114.043 34.9956 114.063 34.8443 114.063L34.8418 114.06ZM32.7165 111.533C32.7735 111.533 32.8256 111.565 32.8529 111.615L33.5522 112.966C33.8672 113.576 34.5517 113.879 35.2163 113.705C35.881 113.532 36.3274 112.932 36.305 112.245L36.253 110.72C36.253 110.658 36.2852 110.603 36.3422 110.576C36.8754 110.328 37.3938 110.033 37.8774 109.7C37.927 109.666 37.9939 109.665 38.046 109.698L39.3331 110.521C39.911 110.891 40.6575 110.811 41.1435 110.33C41.6321 109.847 41.7189 109.103 41.3543 108.52L40.5483 107.228C40.5161 107.176 40.5186 107.109 40.5533 107.059C40.8881 106.585 41.1857 106.069 41.4436 105.529C41.4709 105.474 41.5255 105.44 41.5875 105.442L43.1127 105.511C43.7972 105.541 44.4048 105.102 44.5858 104.44C44.7668 103.778 44.4692 103.091 43.8641 102.769L42.5175 102.052C42.4629 102.022 42.4307 101.965 42.4381 101.903C42.4927 101.308 42.4951 100.713 42.4505 100.135C42.4455 100.073 42.4778 100.016 42.5323 99.9885L43.884 99.2891C44.494 98.9742 44.7966 98.2897 44.623 97.625C44.4494 96.9604 43.8443 96.5115 43.1623 96.5363L41.6371 96.5884C41.5751 96.5884 41.518 96.5562 41.4932 96.4991C41.2452 95.9659 40.9501 95.4501 40.6178 94.964C40.5831 94.9144 40.5831 94.8474 40.6153 94.7954L41.4387 93.5082C41.8082 92.9304 41.7288 92.1839 41.2477 91.6978C40.7641 91.2093 40.0201 91.1225 39.4373 91.487L38.1452 92.293C38.0931 92.3253 38.0262 92.3228 37.9766 92.2881C37.5004 91.9533 36.987 91.6557 36.4489 91.3977C36.3943 91.3705 36.3596 91.3134 36.3621 91.2539L36.4315 89.7287C36.4638 89.0417 36.0223 88.4366 35.3602 88.2556C34.698 88.0745 34.011 88.3697 33.6886 88.9773L32.9719 90.3239C32.9421 90.3785 32.8851 90.4107 32.8231 90.4033C32.2279 90.3487 31.6327 90.3462 31.0549 90.3909C30.9929 90.3958 30.9358 90.3636 30.9085 90.309L30.2092 88.9574C29.8942 88.3473 29.2097 88.0448 28.5451 88.2184C27.8804 88.392 27.434 88.9921 27.4564 89.6791L27.5084 91.2043C27.5084 91.2663 27.4762 91.3233 27.4192 91.3481C26.886 91.5961 26.3701 91.8913 25.884 92.2236C25.8344 92.2583 25.7675 92.2583 25.7154 92.2261L24.4283 91.4027C23.8504 91.0332 23.1039 91.1125 22.6179 91.5937C22.1293 92.0773 22.0425 92.8213 22.4071 93.4041L23.2131 94.6962C23.2453 94.7482 23.2428 94.8152 23.2081 94.8648C22.8733 95.3385 22.5757 95.8543 22.3178 96.395C22.2905 96.4495 22.2335 96.4842 22.1739 96.4818L20.6487 96.4123C19.9618 96.3826 19.3566 96.8215 19.1756 97.4837C18.9946 98.1458 19.2922 98.8328 19.8973 99.1577L21.2439 99.8744C21.2985 99.9042 21.3307 99.9612 21.3233 100.023C21.2687 100.618 21.2663 101.214 21.3109 101.791C21.3159 101.853 21.2836 101.911 21.2291 101.938L19.8774 102.637C19.2674 102.952 18.9648 103.637 19.1384 104.301C19.312 104.966 19.9122 105.415 20.5991 105.39L22.1243 105.338C22.1863 105.338 22.2434 105.37 22.2682 105.427C22.5162 105.96 22.8113 106.479 23.1436 106.962C23.1783 107.012 23.1783 107.079 23.1461 107.131L22.3227 108.418C21.9532 108.996 22.0326 109.742 22.5137 110.228C22.9973 110.717 23.7413 110.804 24.3241 110.439L25.6162 109.633C25.6683 109.601 25.7352 109.604 25.7848 109.638C26.2585 109.973 26.7744 110.271 27.315 110.529C27.3696 110.556 27.4043 110.613 27.4018 110.672L27.3324 112.198C27.3001 112.885 27.7416 113.49 28.4037 113.671C29.0659 113.852 29.7529 113.557 30.0753 112.949L30.792 111.602C30.8217 111.548 30.8788 111.516 30.9408 111.523C31.536 111.578 32.1312 111.58 32.709 111.535C32.714 111.535 32.7165 111.535 32.7214 111.535L32.7165 111.533ZM31.8733 109.665C31.1144 109.665 30.3431 109.566 29.5768 109.355C27.3348 108.74 25.4649 107.292 24.3142 105.271C23.1635 103.252 22.8659 100.904 23.4809 98.6617C24.0959 96.4198 25.5443 94.5498 27.5655 93.3991C29.5842 92.2484 31.9328 91.9508 34.1747 92.5658C38.8049 93.8331 41.5379 98.6295 40.2706 103.26C39.2141 107.121 35.6974 109.665 31.8733 109.665ZM31.8633 92.5584C30.4225 92.5584 29.0014 92.9329 27.7168 93.6645C25.7675 94.7755 24.3687 96.5785 23.776 98.7435C23.1833 100.909 23.4685 103.173 24.5795 105.122C25.6906 107.071 27.4936 108.47 29.6586 109.063C30.3977 109.266 31.1417 109.363 31.8733 109.363C35.5635 109.363 38.9562 106.908 39.9755 103.18C41.1981 98.7138 38.5594 94.0836 34.0929 92.861C33.3563 92.6601 32.6049 92.5584 31.8609 92.5584H31.8633Z" fill="#14B8A6"/>
  <path d="M39.2318 100.993C39.2318 96.8859 35.9061 93.5553 31.8017 93.5553C27.6973 93.5553 24.3716 96.8859 24.3716 100.993C24.3716 105.1 27.6973 108.43 31.8017 108.43C35.9061 108.43 39.2318 105.1 39.2318 100.993Z" fill="#115E59"/>
  <path d="M37.0321 106.399C35.6929 107.662 33.89 108.438 31.906 108.438C29.922 108.438 28.1165 107.662 26.7798 106.399C28.3273 105.921 30.0683 105.65 31.906 105.65C33.7437 105.65 35.4846 105.921 37.0321 106.399Z" fill="#14B8A6"/>
  <path d="M29.5124 96.6479C29.8497 96.4321 30.2415 96.3156 30.6408 96.3156H32.9993C33.525 96.3156 34.0334 96.514 34.4178 96.8736L34.5468 96.9926C35.1594 97.5605 35.3727 98.4409 35.0899 99.2296L34.3137 101.382L29.3413 101.35L28.6394 98.9989C28.3741 98.1086 28.7287 97.1513 29.5099 96.6479H29.5124Z" fill="#14B8A6"/>
  <path d="M30.7401 97.5853L30.7723 97.5704L34.3411 99.8892V101.288C34.3411 102.087 33.9666 102.798 33.3863 103.26V105.39C33.3863 106.233 32.7043 106.915 31.8611 106.915C31.0178 106.915 30.3358 106.233 30.3358 105.39V103.314C29.7134 102.855 29.3066 102.119 29.3066 101.288V99.8049C29.3066 98.8179 29.8944 97.9672 30.7401 97.5853Z" fill="#115E59"/>
  <path d="M31.8238 103.956C30.3506 103.956 29.1553 102.759 29.1553 101.288V99.8049C29.1553 98.3789 30.3159 97.2183 31.7394 97.2183H34.341C34.4253 97.2183 34.4947 97.2877 34.4947 97.372V101.288C34.4947 102.332 33.8797 103.287 32.9298 103.718C32.853 103.753 32.7637 103.718 32.7265 103.641C32.6918 103.565 32.7265 103.475 32.8009 103.441C33.6416 103.056 34.1872 102.213 34.1872 101.288V97.5258H31.7394C30.4821 97.5258 29.4603 98.5476 29.4603 99.8049V101.288C29.4603 102.592 30.5218 103.651 31.8238 103.651C31.9081 103.651 31.9775 103.721 31.9775 103.805C31.9775 103.889 31.9081 103.959 31.8238 103.959V103.956Z" fill="#14B8A6"/>
  <path d="M31.9056 108.584C29.8893 108.584 27.9896 107.805 26.5512 106.387C24.9814 104.839 24.1605 102.687 24.2944 100.484C24.2994 100.4 24.3713 100.336 24.4556 100.341C24.54 100.346 24.6044 100.418 24.5995 100.502C24.468 102.615 25.2592 104.681 26.7645 106.166C28.1434 107.528 29.9687 108.277 31.9056 108.277C31.9229 108.277 31.9403 108.277 31.9577 108.277C33.9144 108.264 35.7471 107.491 37.121 106.097C38.495 104.705 39.2439 102.86 39.2291 100.906C39.2167 98.9493 38.4429 97.1166 37.0491 95.7427C34.3112 93.042 29.9191 92.9254 27.0472 95.4798C26.9852 95.5368 26.8885 95.5294 26.8315 95.4674C26.7744 95.4054 26.7819 95.3087 26.8439 95.2516C29.8348 92.5931 34.4104 92.7121 37.2624 95.5269C38.7132 96.9579 39.5192 98.8675 39.5341 100.904C39.549 102.94 38.7678 104.862 37.3368 106.312C35.9058 107.763 33.9962 108.569 31.9601 108.582C31.9428 108.582 31.9254 108.582 31.9056 108.582V108.584Z" fill="#14B8A6"/>
  <path d="M31.8611 107.066C30.936 107.066 30.1846 106.315 30.1846 105.39V103.369C30.1846 103.284 30.254 103.215 30.3383 103.215C30.4227 103.215 30.4921 103.284 30.4921 103.369V105.39C30.4921 106.146 31.1071 106.761 31.8635 106.761C32.6199 106.761 33.235 106.146 33.235 105.39V103.26C33.235 103.175 33.3044 103.106 33.3887 103.106C33.4731 103.106 33.5425 103.175 33.5425 103.26V105.39C33.5425 106.315 32.7911 107.066 31.866 107.066H31.8611Z" fill="#14B8A6"/>
  <path d="M77.0342 123.998C75.4148 123.998 73.9987 122.946 73.5374 121.371L72.6347 118.289C71.4071 118.14 70.1819 117.892 68.9915 117.555L66.9654 120.047C65.8816 121.381 64.0489 121.778 62.5088 121.014C60.9687 120.25 60.1776 118.549 60.5868 116.88L61.3457 113.768C60.3685 113.033 59.4311 112.205 58.5581 111.302L55.5573 112.448C53.9527 113.061 52.1671 112.488 51.2148 111.057C50.265 109.626 50.4287 107.758 51.6166 106.516L53.8362 104.195C53.3402 103.039 52.9409 101.856 52.6433 100.671L49.4788 100.162C47.7825 99.8894 46.5226 98.5006 46.4135 96.7869C46.3069 95.0707 47.3832 93.5381 49.0324 93.0545L52.1151 92.1518C52.2639 90.9242 52.5119 89.699 52.8491 88.5086L50.3567 86.48C49.0225 85.3962 48.6257 83.5635 49.3895 82.0234C50.1534 80.4833 51.8547 79.6922 53.5237 80.1014L56.6361 80.8603C57.3702 79.8831 58.1985 78.9457 59.1013 78.0752L57.9555 75.0744C57.3429 73.4698 57.9158 71.6842 59.3468 70.7319C60.7777 69.7821 62.6452 69.9457 63.8877 71.1337L66.209 73.3533C67.3622 72.8598 68.5476 72.458 69.7331 72.1604L70.2415 68.9959C70.5143 67.2996 71.9031 66.0397 73.6168 65.9306C75.328 65.824 76.8656 66.9003 77.3492 68.5495L78.2519 71.6346C79.4795 71.7834 80.7046 72.0314 81.895 72.3687L83.9237 69.8763C85.0074 68.5421 86.8402 68.1453 88.3803 68.9091C89.9203 69.6729 90.7115 71.3742 90.3047 73.0433L89.5459 76.1557C90.523 76.8898 91.4604 77.7181 92.3334 78.6208L95.3342 77.4751C96.9412 76.8625 98.7244 77.4354 99.6767 78.8663C100.627 80.2973 100.463 82.1648 99.2749 83.4072L97.0553 85.7285C97.5489 86.8817 97.9506 88.0672 98.2482 89.2526L101.413 89.761C103.109 90.0338 104.369 91.4226 104.478 93.1363C104.585 94.8525 103.508 96.3851 101.859 96.8687L98.774 97.7715C98.6252 98.9991 98.3772 100.224 98.0399 101.415L100.532 103.441C101.867 104.525 102.263 106.357 101.5 107.897C100.736 109.437 99.0344 110.229 97.3653 109.819L94.2529 109.06C93.5188 110.038 92.6905 110.975 91.7878 111.848L92.9336 114.849C93.5461 116.453 92.9732 118.239 91.5423 119.191C90.1113 120.141 88.2439 119.977 87.0014 118.79L84.6801 116.57C83.5244 117.066 82.3414 117.465 81.156 117.763L80.6476 120.927C80.3748 122.624 78.986 123.884 77.2723 123.993C77.1929 123.998 77.116 124 77.0367 124L77.0342 123.998ZM68.937 117.225C68.9519 117.225 68.9643 117.225 68.9791 117.23C70.2142 117.587 71.4914 117.845 72.7686 117.993C72.8306 118.001 72.8802 118.043 72.8975 118.103L73.8276 121.284C74.269 122.795 75.6727 123.782 77.2475 123.685C78.8198 123.586 80.0921 122.433 80.3401 120.878L80.8633 117.614C80.8733 117.555 80.9179 117.505 80.9774 117.49C82.21 117.187 83.445 116.771 84.6454 116.25C84.7024 116.225 84.7669 116.238 84.8115 116.28L87.2072 118.569C88.3455 119.658 90.0567 119.809 91.3687 118.936C92.6806 118.065 93.2039 116.429 92.6434 114.958L91.4629 111.863C91.4406 111.806 91.4555 111.741 91.5001 111.699C92.445 110.794 93.308 109.819 94.0669 108.8C94.1041 108.75 94.1661 108.728 94.2256 108.743L97.4373 109.527C98.9674 109.899 100.525 109.175 101.227 107.763C101.926 106.352 101.564 104.673 100.341 103.681L97.7696 101.591C97.7225 101.551 97.7026 101.489 97.72 101.429C98.0796 100.192 98.335 98.9172 98.4838 97.64C98.4913 97.578 98.5334 97.5284 98.5929 97.5111L101.775 96.5811C103.285 96.1396 104.272 94.7335 104.175 93.1611C104.076 91.5888 102.921 90.3166 101.368 90.0686L98.1044 89.5453C98.0449 89.5353 97.9953 89.4907 97.9804 89.4312C97.6778 88.1986 97.2587 86.9636 96.7404 85.7633C96.7156 85.7062 96.728 85.6417 96.7701 85.5971L99.0592 83.2014C100.148 82.0631 100.299 80.3519 99.4262 79.0399C98.5557 77.728 96.9189 77.2047 95.4483 77.7652L92.3532 78.9457C92.2962 78.968 92.2317 78.9531 92.1896 78.9085C91.2843 77.9636 90.3097 77.1006 89.2904 76.3417C89.2408 76.3045 89.2185 76.2425 89.2334 76.183L90.0171 72.9714C90.3891 71.4412 89.6649 69.8837 88.2538 69.1819C86.8426 68.4825 85.1637 68.8446 84.1717 70.0673L82.081 72.639C82.0413 72.6862 81.9793 72.706 81.9198 72.6886C80.6823 72.329 79.4076 72.0736 78.1304 71.9248C78.0684 71.9174 78.0188 71.8752 78.0014 71.8157L77.0714 68.6338C76.63 67.1235 75.2238 66.1364 73.6515 66.2332C72.0791 66.3324 70.8069 67.4856 70.5589 69.0405L70.0356 72.3042C70.0257 72.3638 69.9811 72.4134 69.9215 72.4282C68.6865 72.7308 67.4539 73.1499 66.2536 73.6682C66.1966 73.693 66.1321 73.6806 66.0874 73.6385L63.6917 71.3494C62.5534 70.2607 60.8422 70.1094 59.5303 70.9824C58.2184 71.8529 57.6951 73.4897 58.2556 74.9603L59.4361 78.0554C59.4584 78.1124 59.4435 78.1769 59.3989 78.2191C58.454 79.1218 57.5909 80.0989 56.8345 81.1182C56.7973 81.1678 56.7353 81.1901 56.6758 81.1752L53.4642 80.3916C51.934 80.0196 50.3766 80.7437 49.6747 82.1548C48.9754 83.566 49.3374 85.2449 50.5601 86.2369L53.1319 88.3276C53.179 88.3673 53.1988 88.4293 53.1815 88.4888C52.8219 89.7263 52.5664 91.001 52.4176 92.2782C52.4102 92.3402 52.368 92.3898 52.3085 92.4072L49.1266 93.3372C47.6163 93.7787 46.6293 95.1848 46.726 96.7571C46.8252 98.3295 47.9784 99.6017 49.5334 99.8497L52.7971 100.373C52.8566 100.383 52.9062 100.428 52.9211 100.487C53.2236 101.72 53.6403 102.955 54.1611 104.155C54.1859 104.212 54.1735 104.277 54.1313 104.321L51.8423 106.717C50.7535 107.855 50.6023 109.566 51.4752 110.878C52.3457 112.19 53.9825 112.714 55.4532 112.153L58.5482 110.973C58.6053 110.95 58.6697 110.965 58.7119 111.01C59.6171 111.955 60.5917 112.818 61.611 113.577C61.6606 113.614 61.6829 113.676 61.6681 113.735L60.8844 116.947C60.5124 118.477 61.2365 120.035 62.6477 120.734C64.0588 121.433 65.7378 121.071 66.7322 119.849L68.8229 117.277C68.8527 117.24 68.8973 117.22 68.9419 117.22L68.937 117.225ZM75.4743 113.671C69.4082 113.671 63.4537 110.734 59.8527 105.316C57.7893 102.211 56.7204 98.6444 56.7204 94.9988C56.7204 93.7563 56.8444 92.5014 57.0974 91.2565C58.0869 86.356 60.9241 82.1325 65.0905 79.3673C69.2544 76.6021 74.2492 75.6225 79.1497 76.612C84.0502 77.6015 88.2736 80.4387 91.0388 84.6051C93.1493 87.782 94.1587 91.3755 94.1587 94.9319C94.1587 100.995 91.2223 106.952 85.8035 110.553C82.6266 112.664 79.0306 113.673 75.4768 113.673L75.4743 113.671ZM57.028 94.9988C57.028 98.5849 58.0795 102.092 60.1081 105.147C65.7254 113.604 77.1756 115.915 85.6324 110.298C90.9644 106.757 93.8536 100.899 93.8536 94.9319C93.8536 91.4326 92.8616 87.8985 90.7834 84.7712C88.0628 80.6743 83.9088 77.8818 79.0877 76.9096C74.2665 75.9375 69.3561 76.8997 65.2591 79.6203C61.1621 82.3408 58.3696 86.4949 57.3975 91.316C57.1495 92.5436 57.028 93.7737 57.028 94.9988Z" fill="#14B8A6"/>
  <mask id="mask0_108_3723" style="mask-type:luminance" maskUnits="userSpaceOnUse" x="45" y="39" width="77" height="75">
    <path d="M105.086 41.4231L59.2254 54.0538L45.7466 76.6021L57.6606 89.6296C56.1353 94.731 56.8049 100.445 59.9794 105.226C65.6511 113.768 77.1758 116.094 85.7169 110.419C90.8704 106.997 93.7596 101.444 93.9952 95.7006L111.695 92.4121L121.898 70.8162L119.286 39.9153L105.083 41.4182L105.086 41.4231Z" fill="white"/>
  </mask>
  <g mask="url(#mask0_108_3723)">
    <path d="M75.3677 72.6341C75.3677 72.6341 70.3854 70.3649 68.7139 70.0077C67.0423 69.6481 64.1854 66.8581 68.2104 63.2398C69.5149 62.0667 69.2024 60.115 72.0371 58.8278C74.8717 57.5407 77.8031 58.2252 78.7306 59.9736C79.6582 61.722 78.433 63.9069 77.1905 64.5542C75.9481 65.2015 75.3677 72.6341 75.3677 72.6341Z" fill="#14B8A6"/>
    <path d="M73.1431 76.3913L71.789 80.5404C71.789 80.5404 81.0841 79.9799 80.7269 78.601C80.6253 78.2116 80.3897 77.9264 80.0995 77.7206C78.671 76.7038 79.2538 72.4878 79.2538 72.4878L81.7264 70.3922C82.1802 70.0078 82.2695 69.3431 81.9322 68.8545L80.7269 67.0987C80.5236 66.8036 80.4641 66.4316 80.5657 66.0869L80.779 65.3602L78.4776 63.8251L76.4712 61.4716C73.2671 62.2949 72.2924 63.5672 73.0463 65.9852C73.5299 67.5352 72.7289 67.8402 72.7289 67.8402C72.7289 67.8402 71.1144 66.9524 71.0003 68.676C70.8863 70.4021 73.7978 70.6129 73.7978 70.6129C74.3632 71.2056 74.5567 72.0612 74.3037 72.8399L73.1455 76.3913H73.1431Z" fill="#115E59"/>
    <path d="M71.7894 80.6916C71.7423 80.6916 71.6977 80.6693 71.6679 80.6321C71.6381 80.5924 71.6282 80.5404 71.6431 80.4908L72.9972 76.3417L74.1553 72.7903C74.386 72.081 74.2198 71.3098 73.7238 70.7592C73.2824 70.717 70.7304 70.3971 70.8445 68.6661C70.8817 68.1205 71.0653 67.7534 71.3901 67.5749C71.8737 67.3095 72.5061 67.5649 72.7244 67.6666C72.8732 67.5674 73.2576 67.1855 72.898 66.0298C72.5508 64.9113 72.5706 64.0284 72.96 63.3266C73.4535 62.4412 74.5571 61.8039 76.4295 61.3228C76.4866 61.3079 76.5461 61.3277 76.5833 61.3724L78.5772 63.7085L80.8613 65.2337C80.9159 65.2709 80.9431 65.3404 80.9233 65.4049L80.71 66.1315C80.6207 66.4341 80.6728 66.7565 80.8514 67.0144L82.0567 68.7702C82.4386 69.3258 82.3394 70.0747 81.8235 70.5112L79.3956 72.5671C79.3336 73.0681 78.9368 76.7063 80.1867 77.5966C80.5414 77.8495 80.772 78.1744 80.8737 78.5613C80.9084 78.7002 80.8787 78.8416 80.7869 78.9705C79.9164 80.1684 72.6252 80.6396 71.7969 80.6892C71.7944 80.6892 71.7894 80.6892 71.7869 80.6892L71.7894 80.6916ZM71.8886 67.7633C71.7671 67.7633 71.6456 67.7857 71.5389 67.8427C71.3108 67.9692 71.1793 68.2519 71.1521 68.6859C71.0504 70.2409 73.7809 70.4566 73.8081 70.4591C73.8453 70.4616 73.8825 70.479 73.9073 70.5062C74.5125 71.1411 74.7183 72.0513 74.448 72.8846L72.0052 80.3717C74.3637 80.218 79.899 79.6773 80.5414 78.792C80.5935 78.7225 80.5885 78.6729 80.5811 78.6382C80.4992 78.3208 80.3083 78.0554 80.0131 77.8446C78.5276 76.7856 79.0782 72.644 79.103 72.4679C79.1079 72.4307 79.1278 72.396 79.155 72.3712L81.6276 70.2756C82.0219 69.9408 82.0988 69.3679 81.8062 68.9389L80.6009 67.183C80.3702 66.8482 80.3033 66.4316 80.4199 66.0397L80.6009 65.4197L78.3912 63.9466C78.3912 63.9466 78.3689 63.9292 78.359 63.9193L76.4146 61.6402C74.6836 62.0965 73.6693 62.6793 73.2278 63.4729C72.8757 64.1053 72.8633 64.8865 73.1906 65.9356C73.7089 67.6021 72.8211 67.9642 72.7814 67.9791C72.7393 67.994 72.6921 67.9915 72.6525 67.9692C72.6475 67.9667 72.2606 67.7584 71.8861 67.7584L71.8886 67.7633Z" fill="#14B8A6"/>
    <path d="M72.2877 65.7371L75.4249 67.9542C76.7542 68.8942 78.5695 68.7355 79.7153 67.5773L80.6949 66.5878L84.1917 69.8738C84.6133 70.3673 84.5241 71.1138 84.0008 71.4957L81.2728 73.8517C80.4643 74.4395 79.3954 74.5238 78.5051 74.0675L73.9691 71.7462C73.9691 71.7462 74.8619 70.1243 72.7291 67.8427C70.5938 65.561 72.2877 65.7396 72.2877 65.7396V65.7371Z" fill="#14B8A6"/>
    <path d="M111.72 62.5404L105.827 65.4916C105.827 65.4916 106.502 75.9697 100.304 78.3678C97.3233 79.521 94.7168 79.335 92.8146 78.8316C89.9353 78.0678 86.9171 78.0057 84.0205 78.7051L72.3868 81.5125C65.9586 83.065 61.068 88.2928 59.9594 94.8128C58.774 101.784 57.4893 110.985 57.3257 118.847C57.2959 120.295 58.7021 121.341 60.0785 120.888L90.1288 110.963L91.272 92.2212C95.0293 92.5361 100.515 92.0972 107.429 89.084C122.046 82.7153 111.715 62.5404 111.715 62.5404H111.72Z" fill="#115E59"/>
    <path d="M59.4192 121.148C58.948 121.148 58.4892 120.997 58.0924 120.707C57.4947 120.265 57.1624 119.586 57.1772 118.844C57.3434 110.789 58.7024 101.315 59.8135 94.788C60.9345 88.2035 65.8573 82.9335 72.3549 81.3637L83.9886 78.5563C86.8605 77.8644 89.9258 77.9065 92.8571 78.6828C95.3024 79.3301 97.7899 79.1763 100.253 78.224C106.274 75.8952 105.684 65.6032 105.679 65.499C105.674 65.437 105.709 65.38 105.763 65.3527L111.656 62.4015C111.73 62.3643 111.822 62.3941 111.859 62.4685C111.916 62.5801 117.508 73.6657 114.545 81.9564C113.367 85.2548 110.996 87.6976 107.497 89.2228C100.431 92.3005 94.8784 92.6502 91.4212 92.3848L90.2879 110.97C90.2829 111.032 90.2432 111.087 90.1837 111.106L60.1334 121.031C59.8978 121.108 59.6572 121.148 59.4216 121.148H59.4192ZM88.1402 78.3703C86.7613 78.3703 85.3898 78.5315 84.0605 78.8514L72.4268 81.6588C66.0482 83.1989 61.2147 88.3722 60.1136 94.8376C59.005 101.355 57.6484 110.811 57.4823 118.849C57.4699 119.491 57.7576 120.079 58.2734 120.461C58.7868 120.84 59.4291 120.942 60.0342 120.741L89.9878 110.849L91.1236 92.2112C91.1261 92.1691 91.1459 92.1319 91.1757 92.1046C91.2079 92.0773 91.2476 92.0649 91.2873 92.0674C94.6973 92.3526 100.255 92.0426 107.37 88.9426C110.788 87.4546 113.101 85.0688 114.252 81.8547C116.995 74.1791 112.276 64.0334 111.648 62.7438L105.981 65.5834C106.004 66.0967 106.073 68.4775 105.535 71.0617C104.731 74.9355 102.941 77.5097 100.357 78.5092C97.8345 79.4863 95.2826 79.6425 92.7728 78.9779C91.2476 78.5737 89.6852 78.3703 88.1327 78.3703H88.1402Z" fill="#14B8A6"/>
    <path d="M105.252 53.3768C105.312 52.9775 105.832 51.6681 106.127 51.2465L108.994 46.031C108.994 46.031 110.145 47.7075 109.852 49.017C111.137 48.64 112.213 48.5234 112.213 48.5234C112.213 48.5234 113.553 46.2344 113.93 45.7905C114.307 45.349 114.77 44.6893 115.405 44.4885C116.043 44.2876 116.831 44.5653 116.831 44.5653L114.718 50.3735L108.709 54.3763L112.39 64.2765L105.825 65.4917L105.247 53.3768H105.252Z" fill="#115E59"/>
    <path d="M105.827 65.6454C105.793 65.6454 105.76 65.633 105.733 65.6132C105.698 65.5859 105.678 65.5437 105.676 65.5016L105.101 53.3867C105.101 53.3867 105.101 53.3669 105.101 53.357C105.16 52.9453 105.688 51.6185 105.998 51.1671L108.863 45.9591C108.888 45.912 108.937 45.8822 108.989 45.8797C109.041 45.8797 109.093 45.9021 109.123 45.9467C109.168 46.0137 110.177 47.4992 110.046 48.8061C111.035 48.5333 111.873 48.4143 112.124 48.3821C112.35 47.9977 113.468 46.1029 113.818 45.6913C113.87 45.6293 113.922 45.5648 113.979 45.4978C114.334 45.0663 114.775 44.5306 115.365 44.3421C116.042 44.1288 116.856 44.4066 116.888 44.419C116.928 44.4314 116.958 44.4612 116.975 44.4984C116.992 44.5356 116.995 44.5777 116.98 44.6149L114.867 50.4231C114.857 50.4529 114.835 50.4802 114.807 50.4975L108.897 54.4333L112.536 64.2219C112.551 64.2641 112.548 64.3112 112.526 64.3508C112.503 64.3905 112.466 64.4178 112.422 64.4253L105.857 65.6405C105.857 65.6405 105.84 65.6429 105.83 65.6429L105.827 65.6454ZM105.403 53.3842L105.971 65.3106L112.186 64.1599L108.568 54.4283C108.543 54.3614 108.568 54.287 108.627 54.2473L114.597 50.2718L116.638 44.662C116.39 44.5976 115.879 44.4959 115.455 44.6298C114.951 44.7885 114.542 45.287 114.212 45.6863C114.155 45.7557 114.101 45.8227 114.048 45.8847C113.686 46.3137 112.36 48.573 112.347 48.5953C112.322 48.6375 112.28 48.6648 112.231 48.6697C112.221 48.6697 111.152 48.7888 109.897 49.1583C109.845 49.1732 109.788 49.1583 109.751 49.1236C109.711 49.0864 109.694 49.0318 109.706 48.9797C109.922 48.015 109.292 46.8122 109.004 46.3286L106.261 51.3159C106.261 51.3159 106.256 51.3258 106.254 51.3308C105.971 51.735 105.47 52.9874 105.406 53.3842H105.403Z" fill="#14B8A6"/>
    <path d="M48.9927 113.815C48.9927 113.815 50.2129 89.7983 65.8518 84.9548L70.0455 97.6525C70.0455 97.6525 55.1258 115.385 53.6923 120.91C52.2614 126.438 48.9902 113.815 48.9902 113.815H48.9927Z" fill="#115E59"/>
    <path d="M48.9929 113.968C48.9929 113.968 48.9879 113.968 48.9854 113.968C48.9011 113.963 48.8366 113.892 48.8416 113.807C48.8441 113.748 49.1739 107.706 51.4133 101.152C52.7302 97.2978 54.4439 94.0217 56.4998 91.4127C59.0791 88.1441 62.2088 85.922 65.8073 84.8085C65.8892 84.7837 65.9735 84.8283 65.9983 84.9102C66.0231 84.9895 65.9785 85.0763 65.8966 85.1011C57.8812 87.5836 53.7545 95.2493 51.7035 101.246C49.474 107.761 49.1466 113.765 49.1441 113.825C49.1392 113.906 49.0722 113.968 48.9929 113.968Z" fill="#14B8A6"/>
    <path d="M53.6951 121.064C53.6778 121.064 53.6629 121.061 53.6455 121.056C53.5662 121.029 53.524 120.942 53.5513 120.863C55.627 114.824 67.5336 100.465 67.6526 100.318C67.7072 100.254 67.8014 100.244 67.8684 100.299C67.9328 100.353 67.9428 100.45 67.8882 100.514C67.7692 100.658 55.8974 114.975 53.8414 120.962C53.8191 121.027 53.7596 121.066 53.6976 121.066L53.6951 121.064Z" fill="#14B8A6"/>
    <path d="M83.5198 79.4491L83.2371 77.6511C83.1428 77.051 82.5104 76.3838 81.9896 76.6988C77.6347 79.3127 70.5518 77.0113 69.354 77.542C65.9762 79.0399 60.3317 87.5935 61.6064 86.9264C66.9831 84.1091 76.05 86.098 80.1569 84.61C83.309 83.4692 83.5198 79.4516 83.5198 79.4516V79.4491Z" fill="#14B8A6"/>
    <path d="M78.3417 98.4336C78.2673 98.4336 78.2028 98.3815 78.1904 98.3046L75.7029 82.9509C75.6905 82.8666 75.7451 82.7897 75.8294 82.7748C75.9137 82.7624 75.9906 82.817 76.0055 82.9013L78.4929 98.2551C78.5053 98.3394 78.4508 98.4163 78.3665 98.4311C78.359 98.4311 78.3491 98.4311 78.3417 98.4311V98.4336Z" fill="#14B8A6"/>
    <path d="M82.0615 95.0708C81.9945 95.0708 81.9325 95.0261 81.9151 94.9592L78.5944 82.6906C78.5721 82.6087 78.6192 82.5244 78.701 82.5046C78.7829 82.4822 78.8672 82.5294 78.887 82.6112L82.2078 94.8798C82.2301 94.9616 82.183 95.046 82.1011 95.0658C82.0887 95.0683 82.0739 95.0708 82.0615 95.0708Z" fill="#14B8A6"/>
    <path d="M78.2645 97.9897C78.0041 98.0443 77.8206 98.2278 77.8578 98.4039L78.1802 99.9539C78.2174 100.127 78.458 100.224 78.7184 100.17C78.9788 100.115 79.1623 99.9316 79.1251 99.7555L78.8027 98.2055C78.7655 98.0319 78.5249 97.9352 78.2645 97.9897Z" fill="#14B8A6"/>
    <path d="M81.9921 94.5474C81.7341 94.6193 81.5655 94.8177 81.6151 94.9888L82.0417 96.5116C82.0888 96.6827 82.3368 96.762 82.5947 96.6901C82.8526 96.6182 83.0213 96.4198 82.9741 96.2487L82.5476 94.7259C82.5005 94.5548 82.2525 94.4755 81.9945 94.5474H81.9921Z" fill="#14B8A6"/>
  </g>
  <path d="M75.477 113.671C73.2326 113.671 71.0031 113.269 68.9 112.488C65.4578 111.208 62.3602 108.909 60.1109 105.693C60.0241 105.569 59.9373 105.442 59.853 105.316C59.853 105.316 59.8505 105.311 59.848 105.308C57.7871 102.203 56.7207 98.642 56.7207 94.9988C56.7207 93.7563 56.8447 92.5014 57.0977 91.2565C58.0872 86.356 60.9243 82.1325 65.0907 79.3673C65.0907 79.3673 65.0957 79.3648 65.0982 79.3623C65.0982 79.3623 65.1031 79.3599 65.1056 79.3574C65.1056 79.3574 65.1106 79.3549 65.1131 79.3524C67.541 77.7454 70.2244 76.7459 73.0913 76.3863C73.1756 76.3764 73.2525 76.4359 73.2624 76.5178C73.2723 76.6021 73.2128 76.6765 73.1309 76.6889C73.1086 76.6914 73.0863 76.6939 73.064 76.6963C70.2591 77.0609 67.6352 78.0455 65.2619 79.6203C61.4129 82.1772 58.7146 85.9964 57.5961 90.448C57.5961 90.4505 57.5961 90.4554 57.5961 90.4579C56.3313 95.4799 57.2489 100.834 60.1134 105.145C65.7306 113.601 77.1808 115.913 85.6376 110.296C85.6376 110.296 85.6426 110.296 85.6426 110.293C85.6426 110.293 85.6451 110.293 85.6475 110.291C85.6475 110.291 85.6475 110.291 85.65 110.291C91.235 106.573 94.3648 100.011 93.7944 93.362C93.7671 93.0495 93.7324 92.737 93.6902 92.4246L93.6778 92.3328C93.6753 92.308 93.6704 92.2832 93.6679 92.2609C93.6679 92.2534 93.6679 92.246 93.6679 92.2386C93.6679 92.1642 93.7225 92.0997 93.7993 92.0873C93.8837 92.0749 93.9605 92.1319 93.9729 92.2162C93.9804 92.2733 93.9903 92.3328 93.9977 92.3898V92.3948C94.0052 92.4543 94.0126 92.5138 94.0201 92.5709C94.1217 93.3645 94.1738 94.1631 94.1713 94.9567C94.1713 97.0895 93.8068 99.2099 93.0901 101.229C92.9363 101.663 92.7652 102.094 92.5792 102.518C92.5073 102.682 92.4329 102.843 92.3585 103.002C92.3585 103.002 92.3585 103.007 92.356 103.007C92.356 103.007 92.356 103.009 92.356 103.012C91.9418 103.882 91.4632 104.715 90.925 105.507C90.925 105.509 90.9225 105.512 90.9201 105.514C89.5759 107.486 87.8796 109.165 85.8832 110.506C85.8832 110.506 85.8807 110.506 85.8782 110.509C85.8782 110.509 85.8782 110.509 85.8757 110.509C85.8534 110.524 85.8335 110.539 85.8112 110.551C82.6343 112.661 79.0383 113.671 75.4845 113.671H75.477Z" fill="#14B8A6"/>
  <path d="M25.6486 70.149L24.1655 77.7999C24.1655 77.7999 37.8725 81.7505 44.0131 75.1314L42.215 70.149H25.6486Z" fill="#14B8A6"/>
  <path d="M2.89444 51.4002L6.13582 53.1263C6.00438 54.5796 5.99198 56.0229 6.10358 57.4465L2.8498 59.1329C1.24028 59.9661 0.424353 61.8063 0.883155 63.5597C1.34196 65.313 2.95644 66.5159 4.76933 66.4514L8.44223 66.3249C9.04983 67.6319 9.76407 68.8867 10.58 70.0747L8.60095 73.1697C7.62382 74.6974 7.83462 76.6963 9.11183 77.9859C10.3866 79.2755 12.3854 79.5086 13.923 78.5489L17.0305 76.6095C18.1986 77.4304 19.446 78.157 20.7654 78.7845L20.5992 82.4524C20.5174 84.2628 21.7004 85.8897 23.4488 86.3683C25.1972 86.847 27.0448 86.0509 27.8954 84.4513L29.6215 81.2099C31.0748 81.3414 32.5182 81.3513 33.9417 81.2397L35.6281 84.4935C36.4614 86.103 38.3016 86.9189 40.0549 86.4601C41.8083 86.0013 43.0111 84.3868 42.9466 82.5739L42.8201 78.901C44.1271 78.2934 45.382 77.5792 46.5699 76.7633L49.665 78.7423C51.1926 79.7194 53.1915 79.5061 54.4811 78.2314C55.7707 76.9567 56.0039 74.9578 55.0441 73.4202L53.1047 70.3128C53.9256 69.1447 54.6523 67.8972 55.2797 66.5779L58.9476 66.744C60.7581 66.8259 62.3849 65.6429 62.8636 63.8945C63.3422 62.1461 62.5461 60.2985 60.944 59.4478L57.7027 57.7217C57.8341 56.2685 57.8465 54.8251 57.7349 53.4016L60.9887 51.7152C62.5982 50.8819 63.4141 49.0417 62.9553 47.2883C62.4965 45.535 60.882 44.3322 59.0692 44.3966L55.3963 44.5231C54.7887 43.2162 54.0744 41.9638 53.2585 40.7733L55.2375 37.6783C56.2147 36.1506 56.0014 34.1517 54.7267 32.8621C53.4519 31.5725 51.453 31.3394 49.9154 32.2992L46.808 34.2385C45.6399 33.4176 44.3925 32.691 43.0756 32.0635L43.2417 28.3956C43.3236 26.5852 42.1406 24.9583 40.3922 24.4797C38.6438 24.001 36.7962 24.7971 35.9455 26.3992L34.2195 29.6406C32.7662 29.5091 31.3228 29.4992 29.8993 29.6083L28.2129 26.3546C27.3796 24.745 25.5394 23.9291 23.7861 24.3879C22.0327 24.8467 20.8299 26.4612 20.8944 28.2741L21.0208 31.947C19.7139 32.5546 18.459 33.2688 17.2711 34.0848L14.176 32.1057C12.6483 31.1286 10.6494 31.3419 9.35983 32.6166C8.07022 33.8913 7.8371 35.8902 8.79687 37.4278L10.7362 40.5353C9.91535 41.7034 9.18871 42.9508 8.56127 44.2702L4.89333 44.104C3.08292 44.0222 1.45604 45.2051 0.977395 46.9535C0.498753 48.7019 1.29484 50.5495 2.89692 51.4002H2.89444ZM12.0655 49.9891C15.0688 39.0249 26.3901 32.5695 37.3542 35.5728C48.3183 38.5761 54.7738 49.8973 51.7705 60.8614C48.7672 71.8256 37.446 78.281 26.4818 75.2777C15.5177 72.2744 9.06223 60.9532 12.0655 49.9891Z" fill="#115E59"/>
  <path d="M39.0556 86.7403C37.58 86.7403 36.2011 85.9293 35.4918 84.5628L33.8525 81.3984C32.4959 81.5 31.1022 81.4901 29.7084 81.3686L28.0294 84.5207C27.1391 86.1947 25.2369 87.0156 23.4067 86.5146C21.5764 86.0137 20.3588 84.3396 20.4456 82.4449L20.6068 78.8762C19.3469 78.2686 18.1416 77.5692 17.0256 76.7905L14.0025 78.6778C12.393 79.6822 10.337 79.4416 9.00279 78.0925C7.66854 76.7434 7.4503 74.685 8.47207 73.0854L10.3966 70.0746C9.62279 68.9363 8.93335 67.7261 8.34559 66.4786L4.77437 66.6026C2.87716 66.6671 1.21804 65.432 0.736915 63.5968C0.255793 61.7616 1.09652 59.8694 2.78044 58.9964L5.94494 57.3571C5.84326 56.0006 5.85318 54.6068 5.9747 53.213L2.8226 51.5341C1.1486 50.6413 0.327713 48.7416 0.828676 46.9113C1.32964 45.0811 3.00364 43.8634 4.89837 43.9502L8.46711 44.1114C9.07223 42.8516 9.77407 41.6463 10.5528 40.5303L8.66551 37.5071C7.6611 35.8976 7.90167 33.8417 9.25079 32.5074C10.5999 31.1732 12.6583 30.9549 14.2579 31.9767L17.2687 33.9012C18.4095 33.125 19.6172 32.438 20.8647 31.8502L20.7407 28.279C20.6762 26.3818 21.9112 24.7227 23.7465 24.2416C25.5817 23.7604 27.4739 24.6012 28.3469 26.2851L29.9862 29.4496C31.3452 29.3479 32.7365 29.3578 34.1303 29.4793L35.8092 26.3272C36.6995 24.6532 38.6017 23.8324 40.432 24.3333C42.2622 24.8343 43.4799 26.5083 43.3931 28.403L43.2319 31.9717C44.4917 32.5769 45.6945 33.2787 46.813 34.0574L49.8362 32.1701C51.4457 31.1657 53.5016 31.4063 54.8359 32.7554C56.1701 34.1046 56.3884 36.163 55.3666 37.7626L53.4421 40.7733C54.2183 41.9141 54.9053 43.1219 55.4931 44.3693L59.0643 44.2453C60.964 44.1808 62.6206 45.4159 63.1017 47.2511C63.5829 49.0863 62.7421 50.9785 61.0582 51.8515L57.8937 53.4908C57.9954 54.8474 57.9855 56.2411 57.864 57.6349L61.0161 59.3139C62.6901 60.2042 63.5109 62.1064 63.01 63.9366C62.509 65.7668 60.8325 66.9845 58.9403 66.8977L55.3715 66.7365C54.7639 67.9989 54.0646 69.2017 53.2859 70.3177L55.1731 73.3408C56.1776 74.9503 55.937 77.0063 54.5879 78.3405C53.2387 79.6747 51.1803 79.893 49.5807 78.8712L46.57 76.9467C45.4317 77.7205 44.2214 78.4099 42.974 78.9977L43.098 82.5689C43.1625 84.4661 41.9274 86.1253 40.0922 86.6064C39.7475 86.6981 39.3978 86.7403 39.0556 86.7403ZM33.9393 81.0859C33.9963 81.0859 34.0484 81.1181 34.0757 81.1677L35.7621 84.4215C36.5681 85.9789 38.319 86.7552 40.0153 86.3113C41.7116 85.8673 42.8549 84.3322 42.7954 82.5788L42.6689 78.9059C42.6689 78.8439 42.7012 78.7894 42.7582 78.7621C44.0528 78.1595 45.3077 77.4452 46.4857 76.6367C46.5353 76.602 46.6022 76.602 46.6543 76.6343L49.7494 78.6133C51.2274 79.5582 53.1296 79.3573 54.3771 78.1223C55.6245 76.8897 55.8452 74.9875 54.9177 73.4995L52.9783 70.3921C52.9461 70.34 52.9486 70.273 52.9833 70.2234C53.7943 69.0702 54.5209 67.8228 55.1459 66.5109C55.1731 66.4563 55.2277 66.4216 55.2897 66.4241L58.9576 66.5902C60.7085 66.6696 62.2561 65.5437 62.7198 63.8523C63.1836 62.1609 62.4247 60.4026 60.8772 59.5792L57.6358 57.8531C57.5812 57.8234 57.549 57.7663 57.5564 57.7043C57.6879 56.2585 57.6978 54.8126 57.5862 53.409C57.5812 53.347 57.6135 53.2899 57.668 53.2626L60.9218 51.5762C62.4793 50.7702 63.2555 49.0193 62.8116 47.323C62.3677 45.6267 60.8276 44.4834 59.0792 44.5454L55.4063 44.6719C55.3418 44.6719 55.2872 44.6396 55.2624 44.5826C54.6598 43.288 53.9455 42.0331 53.1371 40.8551C53.1023 40.8055 53.1023 40.7386 53.1346 40.6865L55.1136 37.5914C56.0585 36.1134 55.8576 34.2112 54.6226 32.9637C53.39 31.7163 51.4879 31.4956 49.9998 32.4231L46.8924 34.3625C46.8403 34.3947 46.7733 34.3922 46.7238 34.3575C45.5705 33.5466 44.3206 32.8199 43.0112 32.1949C42.9566 32.1677 42.9219 32.1106 42.9244 32.0511L43.0905 28.3832C43.1699 26.6323 42.044 25.0848 40.3526 24.621C38.6612 24.1572 36.9029 24.9161 36.0795 26.4636L34.3535 29.705C34.3237 29.7596 34.2667 29.7918 34.2047 29.7844C32.7613 29.6529 31.3154 29.643 29.9093 29.7546C29.8473 29.7596 29.7902 29.7273 29.763 29.6728L28.0766 26.419C27.2705 24.8616 25.5221 24.0853 23.8233 24.5292C22.127 24.9732 20.9837 26.5083 21.0457 28.2617L21.1722 31.9345C21.1722 31.9965 21.14 32.0511 21.0829 32.0784C19.7884 32.681 18.5335 33.3953 17.3555 34.2038C17.3059 34.2385 17.2389 34.2385 17.1868 34.2062L14.0918 32.2272C12.6137 31.2823 10.7115 31.4832 9.46407 32.7182C8.21663 33.9508 7.99591 35.853 8.92343 37.341L10.8628 40.4484C10.895 40.5005 10.8926 40.5675 10.8578 40.6171C10.0469 41.7703 9.32023 43.0202 8.69527 44.3296C8.66799 44.3842 8.61095 44.4189 8.55143 44.4164L4.88349 44.2503C3.1326 44.1709 1.58508 45.2968 1.12132 46.9882C0.657555 48.6796 1.41644 50.4379 2.96396 51.2613L6.20534 52.9874C6.2599 53.0171 6.29214 53.0742 6.2847 53.1362C6.15326 54.582 6.14334 56.0254 6.25494 57.4315C6.2599 57.4935 6.22766 57.5506 6.1731 57.5779L2.91932 59.2643C1.36188 60.0703 0.585634 61.8187 1.02956 63.5175C1.47348 65.2138 3.01356 66.3571 4.76197 66.2976L8.43487 66.1711C8.49935 66.1711 8.55391 66.2033 8.57871 66.2604C9.18135 67.5549 9.89559 68.8098 10.7041 69.9878C10.7388 70.0374 10.7388 70.1044 10.7066 70.1565L8.72751 73.2515C7.78263 74.7296 7.98351 76.6318 9.21855 77.8792C10.4511 79.1267 12.3533 79.3474 13.8413 78.4199L16.9487 76.4805C17.0008 76.4483 17.0678 76.4507 17.1174 76.4855C18.2706 77.2964 19.518 78.0231 20.83 78.648C20.8845 78.6753 20.9192 78.7323 20.9168 78.7919L20.7506 82.4598C20.6712 84.2107 21.7972 85.7582 23.4885 86.222C25.1799 86.6857 26.9382 85.9269 27.7616 84.3793L29.4877 81.138C29.5174 81.0834 29.5745 81.0512 29.6365 81.0586C31.0823 81.19 32.5257 81.2 33.9319 81.0884C33.9368 81.0884 33.9393 81.0884 33.9443 81.0884L33.9393 81.0859ZM31.9503 76.1705C30.1126 76.1705 28.2626 75.925 26.4422 75.424C21.1003 73.9608 16.6462 70.5061 13.9033 65.6949C11.1604 60.8837 10.4561 55.2913 11.9168 49.9493C13.38 44.6074 16.8347 40.1533 21.6459 37.4104C26.4571 34.6675 32.0495 33.9607 37.3915 35.4239C42.7334 36.8871 47.1875 40.3418 49.9304 45.1555C52.6733 49.9667 53.3776 55.5591 51.9169 60.9011C50.4537 66.243 46.999 70.6971 42.1878 73.44C39.0159 75.2479 35.5042 76.1705 31.9503 76.1705ZM31.8858 34.985C28.3841 34.985 24.9245 35.8951 21.7996 37.6758C17.0579 40.379 13.6528 44.7661 12.2119 50.0287C10.771 55.2913 11.4654 60.8019 14.1687 65.5436C16.8719 70.2854 21.259 73.6905 26.5216 75.1314C31.7842 76.5723 37.2948 75.8779 42.0365 73.1746C46.7783 70.4714 50.1834 66.0843 51.6242 60.8217C53.0651 55.5591 52.3707 50.0485 49.6675 45.3068C46.9643 40.565 42.5772 37.1599 37.3146 35.719C35.5215 35.228 33.6987 34.985 31.8858 34.985Z" fill="#14B8A6"/>
  <path d="M5.61281 36.3168C5.61281 36.3168 5.29536 32.2918 5.14904 31.208C4.98288 29.973 6.77345 31.2651 7.09585 35.062L5.61281 36.3168Z" fill="#115E59"/>
  <path d="M5.6103 36.4681C5.59046 36.4681 5.57062 36.4631 5.55078 36.4557C5.4987 36.4334 5.4615 36.3838 5.45654 36.3267C5.45406 36.287 5.13662 32.2942 4.99278 31.2253C4.95558 30.9476 5.0027 30.7591 5.13414 30.6599C5.19118 30.6177 5.31766 30.5557 5.5111 30.6425C6.09638 30.9054 7.02391 32.4455 7.24463 35.0446C7.24959 35.0942 7.22975 35.1413 7.19007 35.1735L5.70702 36.4284C5.67974 36.4532 5.64502 36.4656 5.60782 36.4656L5.6103 36.4681ZM5.3251 30.9054C5.3251 30.9054 5.32014 30.9054 5.31766 30.9054C5.30774 30.9129 5.27054 30.9848 5.29782 31.1857C5.41934 32.0909 5.66238 35.057 5.73926 36.0068L6.93463 34.995C6.71639 32.6092 5.9079 31.2526 5.44414 30.955C5.37966 30.9129 5.33998 30.9054 5.3251 30.9054Z" fill="#14B8A6"/>
  <path d="M3.43763 54.9665C3.43763 54.9665 5.84076 41.7852 5.87052 41.3463C5.89284 41.0288 5.8482 40.7114 5.74404 40.4113C5.43404 39.5334 4.79419 37.6585 4.78923 37.1327C4.78179 36.5946 5.24556 36.1829 5.4514 36.0291C5.57292 35.9374 5.68948 35.8382 5.80604 35.739L6.88484 34.8065C7.15268 34.5858 7.28413 34.2237 7.65365 34.2782C8.35797 34.3824 8.56629 35.5902 8.56629 35.5902C8.56629 35.5902 9.24829 35.052 9.6203 35.3074C9.9923 35.5654 10.6173 37.4427 9.73438 39.3697C8.85149 41.2991 8.59109 40.4138 8.52413 42.4151C8.49685 43.2137 8.62829 50.7951 8.62829 50.7951C8.62829 51.4225 9.29789 51.8268 9.85342 51.5317L14.6324 49.0021L16.2246 57.0919L7.70077 59.0362C5.23068 59.5991 2.98875 57.4564 3.44011 54.964L3.43763 54.9665Z" fill="#115E59"/>
  <path d="M6.90973 59.2817C5.97229 59.2817 5.06212 58.9246 4.36772 58.2599C3.46995 57.4019 3.06819 56.1619 3.28891 54.9392C4.11972 50.3834 5.697 41.6761 5.71932 41.3364C5.73916 41.0412 5.69948 40.7461 5.60028 40.4634C5.24316 39.4491 4.643 37.6709 4.63804 37.1377C4.6306 36.5301 5.14148 36.0763 5.35972 35.9101C5.48124 35.8183 5.5978 35.7191 5.70692 35.6249L6.78573 34.6924C6.86013 34.6304 6.92461 34.556 6.98661 34.4841C7.15029 34.2931 7.33629 34.0774 7.67605 34.127C8.28118 34.2162 8.55894 34.9528 8.6631 35.3372C8.9235 35.176 9.37982 34.9578 9.70718 35.1834C10.1833 35.5133 10.7537 37.5122 9.87334 39.4367C9.52118 40.203 9.26822 40.5353 9.08222 40.7759C8.81686 41.1206 8.71766 41.2496 8.67798 42.4226C8.6507 43.2088 8.78214 50.7182 8.78214 50.7951C8.78214 51.0382 8.90614 51.2564 9.11198 51.3804C9.31782 51.5044 9.5683 51.5118 9.78158 51.3978L14.5606 48.8681C14.6027 48.8458 14.6548 48.8433 14.697 48.8657C14.7416 48.8855 14.7714 48.9277 14.7813 48.9748L16.3735 57.0646C16.3883 57.1464 16.3387 57.2233 16.2569 57.2431L7.73309 59.1875C7.46029 59.2495 7.18253 59.2792 6.90973 59.2792V59.2817ZM3.589 54.9938C3.38563 56.1147 3.75516 57.2531 4.57852 58.0392C5.40188 58.8254 6.55509 59.1453 7.66365 58.8923L16.0436 56.9803L14.5209 49.2352L9.92542 51.6681C9.6179 51.8318 9.25334 51.8218 8.95574 51.6408C8.65566 51.4598 8.4771 51.1448 8.4771 50.7951C8.47214 50.4876 8.34566 43.2038 8.37294 42.4102C8.4151 41.1975 8.51926 41.0065 8.84166 40.5874C9.01774 40.3567 9.26078 40.0418 9.59806 39.3077C10.4859 37.3683 9.80142 35.6174 9.53606 35.4339C9.32526 35.2876 8.85654 35.5579 8.6631 35.7092C8.62094 35.7414 8.5639 35.7514 8.5143 35.7315C8.4647 35.7117 8.4275 35.667 8.41758 35.615C8.3655 35.3099 8.11997 34.499 7.63389 34.427C7.46773 34.4022 7.37845 34.4965 7.21973 34.68C7.14781 34.7618 7.07589 34.8486 6.98413 34.923L5.90781 35.8531C5.79621 35.9498 5.67468 36.0539 5.54572 36.1507C5.3622 36.2895 4.93812 36.6615 4.94308 37.1327C4.94804 37.4849 5.3002 38.6927 5.88797 40.3617C6.00205 40.6841 6.04669 41.0189 6.02437 41.3562C5.99461 41.7976 3.6882 54.4531 3.589 54.9913V54.9938Z" fill="#14B8A6"/>
  <path d="M6.99131 39.1737C6.84995 39.1737 6.72347 39.1415 6.62427 39.0894C6.34899 38.948 6.21259 38.6455 6.26963 38.3008C6.39611 37.5419 6.89955 37.1302 6.92187 37.1128C6.98883 37.0607 7.08307 37.0707 7.13516 37.1376C7.18724 37.2046 7.17732 37.2988 7.11035 37.3509C7.10539 37.3534 6.67635 37.7105 6.56971 38.3503C6.53499 38.5661 6.60443 38.7372 6.76067 38.8166C6.97891 38.9282 7.4154 38.8786 7.91884 38.3702C8.74716 37.5369 8.40244 35.5579 8.39748 35.538C8.3826 35.4562 8.43716 35.3768 8.52148 35.3619C8.6058 35.3471 8.68268 35.4016 8.69756 35.4859C8.71244 35.5727 9.07204 37.6435 8.1346 38.5884C7.70804 39.02 7.3038 39.1737 6.98883 39.1737H6.99131Z" fill="#14B8A6"/>
  <path d="M58.4966 77.7925C57.3632 77.1502 56.9119 76.6319 56.4928 75.5654C56.4928 75.5654 54.1566 68.1601 52.3313 63.5151C51.5997 61.6551 49.9654 58.1731 48.3013 54.7358L42.3939 58.0343C42.3319 58.069 42.2724 58.1087 42.2153 58.1508C45.1145 62.9992 50.439 71.8851 51.0045 72.706C51.0045 72.706 53.9036 76.9915 53.7623 79.216C53.673 80.6222 54.2211 83.2138 56.2968 84.6696C56.7308 84.9746 57.2963 84.5059 57.0805 84.0248C57.078 84.0173 57.0731 84.0099 57.0706 84.0024C56.7482 83.318 56.1728 82.4549 56.1728 82.4549C56.1728 82.4549 57.3062 82.4648 58.4916 83.3998C59.6771 84.3348 62.1968 86.0113 62.7176 85.4483C63.6129 84.4836 63.0797 80.3965 58.4966 77.795V77.7925Z" fill="#115E59"/>
  <path d="M62.395 85.7087C61.1897 85.7087 58.5262 83.6206 58.3972 83.5189C57.6284 82.9138 56.877 82.7079 56.4752 82.641C56.6736 82.9534 56.9935 83.4792 57.2093 83.9355L57.2217 83.9603C57.3482 84.2455 57.2763 84.558 57.0332 84.7589C56.7902 84.9598 56.4678 84.9747 56.2123 84.7936C53.9754 83.2262 53.5339 80.4536 53.6133 79.2062C53.7497 77.0585 50.9101 72.835 50.8803 72.7904C50.3174 71.9744 45.1292 63.3167 42.0862 58.2277C42.0465 58.1608 42.0639 58.074 42.1259 58.0269C42.1904 57.9773 42.2548 57.9351 42.3218 57.8979L48.2292 54.5995C48.2664 54.5796 48.3085 54.5747 48.3482 54.5871C48.3879 54.5995 48.4226 54.6292 48.44 54.6664C50.491 58.9023 51.8475 61.8585 52.475 63.4556C54.2804 68.0535 56.6166 75.4415 56.6389 75.5159C57.0481 76.555 57.4821 77.0361 58.5708 77.6561C62.3355 79.7964 63.0472 82.6732 63.1762 83.504C63.3151 84.3993 63.1836 85.1631 62.8265 85.5475C62.7248 85.6567 62.576 85.7063 62.3925 85.7063L62.395 85.7087ZM56.1702 82.3012C56.2198 82.3012 57.3705 82.3235 58.5832 83.2808C60.2052 84.558 62.2536 85.7211 62.6033 85.3442C62.8935 85.0317 62.9976 84.3472 62.8736 83.5561C62.7496 82.76 62.0652 79.9998 58.4195 77.9265C57.2713 77.2742 56.7877 76.7361 56.3487 75.6225C56.3215 75.5382 53.9902 68.1602 52.1873 63.5722C51.5698 61.9998 50.238 59.1007 48.2317 54.9492L42.4656 58.1682C42.4508 58.1781 42.4334 58.1856 42.4185 58.1955C45.4689 63.2969 50.5753 71.8182 51.1308 72.6192C51.2523 72.7978 54.0572 76.9741 53.9158 79.226C53.8414 80.4139 54.2581 83.0551 56.3859 84.5431C56.5571 84.6622 56.7307 84.6101 56.8373 84.5233C56.9439 84.4365 57.0258 84.2753 56.9415 84.0868L56.934 84.0694C56.6191 83.4023 56.0511 82.5492 56.0462 82.5418C56.0139 82.4946 56.0115 82.4351 56.0387 82.3855C56.066 82.3359 56.1181 82.3062 56.1727 82.3062L56.1702 82.3012Z" fill="#14B8A6"/>
  <path d="M12.2689 48.573L13.5287 47.1594C15.6615 44.7909 18.3474 42.988 21.3457 41.9117L23.3942 41.1751C23.5529 41.1181 35.2115 39.9202 39.172 41.2297C41.6446 42.0481 44.8785 43.9601 49.2756 52.8683C49.6005 53.5255 49.3401 54.3588 48.6978 54.716L42.2497 58.3169C41.6893 58.6294 41.7016 59.3362 41.786 59.9736L43.703 70.3475C43.8121 70.9427 43.5592 71.5478 43.0508 71.8751C41.4512 72.9068 36.7838 74.5089 26.5637 72.8647C24.1705 72.4803 22.2484 70.6773 21.7053 68.3139L19.8329 60.1918C19.7164 59.5049 18.7764 59.1676 18.0473 59.0088C17.6381 58.9196 17.219 58.9121 16.8023 58.9394C15.9219 58.9989 15.0887 58.4558 14.8084 57.5878L11.9564 50.3065C11.7258 49.7163 11.8473 49.0442 12.2714 48.573H12.2689Z" fill="#115E59"/>
  <path d="M34.5025 73.7203C32.3448 73.7203 29.721 73.5269 26.5416 73.016C24.0765 72.6192 22.1198 70.7865 21.5568 68.3486L19.6844 60.2266C19.5753 59.5892 18.5932 59.2842 18.0153 59.1602C17.6632 59.0833 17.2813 59.0635 16.8125 59.0957C15.8453 59.1627 14.96 58.5625 14.6624 57.6374L11.8128 50.3661C11.5574 49.7163 11.6913 48.9921 12.1576 48.4738L13.4149 47.0602C15.5577 44.6794 18.2832 42.8516 21.2939 41.7703L23.3424 41.0338C23.4168 41.0065 35.1845 39.7516 39.2194 41.0883C41.8234 41.9489 45.0723 44.0147 49.4123 52.8064C49.7744 53.538 49.4867 54.4556 48.7724 54.8549L42.3244 58.4559C41.8458 58.7237 41.8606 59.366 41.9375 59.9587L43.8521 70.3252C43.9736 70.9873 43.6909 71.6495 43.1329 72.0091C42.3666 72.5026 39.9138 73.7253 34.5 73.7253L34.5025 73.7203ZM17.2143 58.7733C17.5317 58.7733 17.812 58.8031 18.0798 58.8601C18.8759 59.0337 19.853 59.4007 19.9845 60.1671L21.8569 68.2817C22.3901 70.598 24.2501 72.3389 26.5912 72.7159C37.6397 74.4916 41.9226 72.4258 42.9717 71.7487C43.4255 71.4561 43.6562 70.9179 43.557 70.3773L41.6399 60.0034C41.5482 59.3015 41.5407 58.5427 42.1781 58.1855L48.6261 54.5846C49.199 54.2646 49.4296 53.5256 49.1395 52.9378C44.8491 44.2479 41.6697 42.2167 39.1252 41.376C35.3085 40.1137 23.8657 41.2297 23.4342 41.3239L21.3981 42.0555C18.432 43.1195 15.7511 44.92 13.6431 47.2636L12.3857 48.6772C11.9964 49.1087 11.8872 49.7138 12.1005 50.2545L14.9525 57.5358C15.2104 58.3343 15.9669 58.8477 16.7952 58.7907C16.944 58.7807 17.0829 58.7758 17.2168 58.7758L17.2143 58.7733Z" fill="#14B8A6"/>
  <path d="M33.7832 57.9276C33.7509 57.9276 33.7187 57.9177 33.6914 57.8954C30.9882 55.827 30.1797 53.5504 30.1475 53.4561C30.1202 53.3768 30.1623 53.29 30.2417 53.2627C30.3211 53.2354 30.4079 53.2776 30.4351 53.3569C30.4426 53.3793 31.2486 55.6435 33.8749 57.6548C33.9419 57.7069 33.9543 57.8011 33.9022 57.8681C33.8724 57.9078 33.8278 57.9276 33.7807 57.9276H33.7832Z" fill="#14B8A6"/>
  <path d="M24.1657 57.6027C24.1185 57.6027 24.0739 57.5829 24.0441 57.5407C21.9956 54.8201 21.827 52.412 21.822 52.3128C21.8171 52.2285 21.8816 52.1566 21.9659 52.1516C22.0527 52.1467 22.1221 52.2112 22.1271 52.2955C22.1271 52.3203 22.2982 54.7184 24.2897 57.3597C24.3393 57.4266 24.3269 57.5233 24.2599 57.5729C24.2326 57.5928 24.2004 57.6027 24.1681 57.6027H24.1657Z" fill="#14B8A6"/>
  <path d="M33.8352 46.631C27.3351 49.5623 23.4167 43.7789 23.4167 43.7789C23.3076 43.6599 23.1885 43.5557 23.0596 43.4665L23.1141 43.4466C23.1885 43.4193 23.2629 43.3921 23.3349 43.3648C26.2389 42.2438 28.0841 39.367 28.0122 36.2546L27.9725 34.4665L32.8333 34.4144C32.8333 34.4144 32.9623 40.9592 35.2042 41.0088L36.4442 41.1551C37.3717 43.2755 36.0151 45.6489 33.8352 46.6334V46.631Z" fill="#115E59"/>
  <path d="M30.2415 47.6081C25.9932 47.6081 23.4462 44.0915 23.295 43.8782C23.1982 43.7715 23.0891 43.6773 22.9701 43.5955C22.923 43.5632 22.8982 43.5062 22.9056 43.4491C22.913 43.3921 22.9527 43.345 23.0073 43.3251L23.0618 43.3053C23.1338 43.2805 23.2082 43.2532 23.2801 43.2259C26.0899 42.1397 27.9301 39.3398 27.8607 36.2596L27.821 34.4715C27.821 34.4318 27.8359 34.3921 27.8631 34.3624C27.8904 34.3326 27.9301 34.3153 27.9723 34.3153L32.8331 34.2632C32.9149 34.2632 32.9844 34.3301 32.9868 34.412C33.0216 36.1926 33.4903 40.8179 35.2089 40.8551L36.4638 41.0014C36.5184 41.0088 36.563 41.0411 36.5853 41.0907C37.6071 43.4268 36.0224 45.8126 33.8995 46.7699C32.5727 47.3676 31.3525 47.6056 30.244 47.6056L30.2415 47.6081ZM23.3669 43.5186C23.4239 43.5707 23.4785 43.6227 23.5281 43.6798C23.533 43.6847 23.538 43.6897 23.5405 43.6971C23.5504 43.712 24.5275 45.1331 26.2735 46.1821C28.6047 47.5808 31.1268 47.685 33.7705 46.4946C35.7347 45.6092 37.2128 43.4343 36.3373 41.2965L35.1866 41.1626C33.0092 41.1155 32.719 35.59 32.6843 34.5707L28.1285 34.6178L28.1657 36.2522C28.2401 39.4613 26.3206 42.3778 23.3917 43.5087C23.3842 43.5111 23.3768 43.5136 23.3669 43.5186Z" fill="#14B8A6"/>
  <path d="M27.995 34.7196L27.747 31.436C27.6254 29.8339 28.8729 28.4575 30.4799 28.4228L34.7009 28.3311C34.7009 28.3311 35.0283 30.3895 36.1294 31.3616L35.6359 32.2867L35.1498 33.988C35.0431 34.36 34.7406 34.6402 34.3611 34.7121H31.8166L27.9974 34.7171L27.995 34.7196Z" fill="#115E59"/>
  <path d="M27.9949 34.8733C27.9156 34.8733 27.8486 34.8113 27.8436 34.732L27.5956 31.4484C27.5336 30.63 27.804 29.8463 28.3545 29.2387C28.9051 28.6336 29.659 28.2889 30.4774 28.2715L34.6984 28.1798C34.7728 28.1773 34.8397 28.2319 34.8521 28.3087C34.8546 28.3286 35.1845 30.325 36.231 31.2475C36.2831 31.2947 36.298 31.3715 36.2657 31.4335L35.7797 32.3437L35.2961 34.0301C35.1721 34.4616 34.8249 34.7816 34.3884 34.8634C34.3785 34.8634 34.3685 34.8659 34.3611 34.8659H31.8166C31.7323 34.8659 31.6628 34.7964 31.6628 34.7146C31.6628 34.6303 31.7298 34.5608 31.8141 34.5608H34.3437C34.6587 34.4939 34.9117 34.2608 35.0009 33.9458L35.487 32.2445C35.487 32.2445 35.4945 32.2247 35.4994 32.2147L35.9359 31.3939C35.0208 30.511 34.6612 28.9511 34.5694 28.4873L30.4799 28.5766C29.7458 28.5915 29.0712 28.9015 28.5777 29.4446C28.0842 29.9877 27.8412 30.692 27.8982 31.4261L28.1462 34.7096C28.1536 34.794 28.0892 34.8659 28.0048 34.8733C27.9999 34.8733 27.9974 34.8733 27.9924 34.8733H27.9949Z" fill="#14B8A6"/>
  <path d="M31.0429 42.6408C30.9065 42.6408 30.7552 42.6234 30.5916 42.5812C30.5097 42.5614 30.4601 42.4771 30.48 42.3952C30.4998 42.3134 30.5841 42.2638 30.666 42.2836C31.3703 42.4622 31.7696 42.0952 31.772 42.0902C31.834 42.0332 31.9308 42.0356 31.9878 42.0976C32.0448 42.1596 32.0424 42.2564 31.9804 42.3134C31.963 42.3308 31.6282 42.6383 31.0404 42.6383L31.0429 42.6408Z" fill="#14B8A6"/>
  <path d="M35.5388 28.0831L33.4159 29.209C32.171 29.8687 31.3154 31.0864 31.1195 32.4851C30.8467 34.4394 30.6135 37.8221 28.751 40.6791C27.3102 42.8888 24.8798 44.2553 22.246 44.4214C20.51 44.5305 18.459 45.1877 17.3628 46.2963C17.3628 46.2963 13.8735 41.7306 17.3777 37.7204C20.8845 33.7127 25.4948 33.9731 26.4025 29.7174C27.273 25.6453 32.2355 22.6296 35.7397 27.0812C35.9976 27.4085 35.9009 27.8872 35.5339 28.0831H35.5388Z" fill="#14B8A6"/>
  <path d="M63.3422 37.1922C63.3422 37.1922 61.2516 37.2691 58.6649 37.2592C58.1218 37.2592 56.6611 35.5108 55.7261 35.8059C55.054 36.0192 56.3263 37.1649 56.1502 37.1625C54.4936 37.155 53.0626 37.1501 52.5443 37.1476C52.1376 37.1476 52.0012 37.5617 52.1698 37.9313C52.4104 38.4595 52.9361 39.2606 53.8016 39.5408C55.3517 40.0393 58.345 39.8161 59.2701 39.635C61.2938 39.2432 62.8958 39.2134 62.8958 39.2134L63.3422 37.1922Z" fill="#115E59"/>
  <path d="M56.4775 39.9996C55.4954 39.9996 54.4786 39.9203 53.7544 39.6871C52.7426 39.3623 52.2119 38.3951 52.0308 37.9958C51.9118 37.7354 51.9192 37.4502 52.0482 37.2518C52.1548 37.0856 52.3359 36.9963 52.5442 36.9988C53.0352 37.0013 54.3447 37.0062 55.8922 37.0137C55.8848 37.0062 55.8798 36.9963 55.8724 36.9889C55.6293 36.6739 55.2945 36.2449 55.3937 35.9274C55.421 35.8406 55.4929 35.7241 55.6814 35.6646C56.3287 35.4612 57.1397 36.0738 57.7919 36.5673C58.1267 36.8202 58.5061 37.1079 58.6673 37.1104C61.2193 37.1203 63.3174 37.0434 63.3397 37.0434C63.3868 37.0434 63.4315 37.0608 63.4637 37.098C63.4935 37.1352 63.5058 37.1823 63.4959 37.2294L63.0495 39.2507C63.0346 39.3201 62.9726 39.3697 62.9032 39.3697C62.8883 39.3697 61.2862 39.4044 59.3022 39.7888C58.7938 39.888 57.6629 40.0021 56.4825 40.0021L56.4775 39.9996ZM52.5392 37.3014C52.4326 37.3014 52.3532 37.341 52.3036 37.4154C52.2317 37.5271 52.2317 37.7056 52.3061 37.8693C52.4723 38.2314 52.9509 39.1068 53.8462 39.397C55.3714 39.888 58.3598 39.6574 59.2378 39.4863C60.9366 39.1564 62.3576 39.0795 62.7693 39.0647L63.1463 37.351C62.5659 37.3683 60.7679 37.4204 58.6599 37.4105C58.397 37.4105 58.0449 37.1426 57.6009 36.8078C57.0057 36.3565 56.2617 35.796 55.7657 35.9522C55.6913 35.977 55.6814 36.0043 55.6789 36.0142C55.6269 36.1779 55.9641 36.6119 56.108 36.7979C56.2865 37.0261 56.3535 37.1129 56.2965 37.2245C56.2692 37.2815 56.2097 37.3162 56.1452 37.3162C54.4885 37.3088 53.0576 37.3038 52.5392 37.3014Z" fill="#14B8A6"/>
  <path d="M59.8431 36.6912C61.6535 36.7383 65.9116 36.5895 67.5956 34.3376C68.4933 35.4611 69.3217 36.6416 70.2343 37.7501C70.4947 38.0676 70.8221 38.1172 71.1048 38.0105C71.4991 38.8587 71.8215 39.7366 72.1018 40.6319C67.5832 41.4875 61.7204 40.8229 59.7315 40.5526C59.3322 40.498 59.0346 40.1607 59.0321 39.7565L59.0123 37.5071C59.0073 37.0508 59.3843 36.6788 59.8406 36.6912H59.8431Z" fill="#14B8A6"/>
  <path d="M35.8414 11.4249L37.188 12.1416C37.1334 12.7442 37.1285 13.3444 37.1756 13.9371L35.824 14.6365C35.1544 14.9837 34.8171 15.7475 35.0081 16.4766C35.199 17.2058 35.8686 17.7043 36.6226 17.6795L38.1478 17.6274C38.4007 18.1705 38.6983 18.6913 39.0356 19.1848L38.2122 20.4719C37.8055 21.1068 37.8948 21.9376 38.423 22.4733C38.9538 23.009 39.7821 23.1057 40.4219 22.7064L41.714 21.9004C42.2001 22.2427 42.7184 22.5428 43.264 22.8032L43.1946 24.3284C43.1599 25.0798 43.6509 25.7568 44.3776 25.9552C45.1042 26.1536 45.8705 25.8238 46.2252 25.1592L46.9419 23.8125C47.5445 23.8671 48.1447 23.872 48.7374 23.8249L49.4368 25.1765C49.784 25.8461 50.5478 26.1834 51.2769 25.9924C52.0061 25.8015 52.5045 25.1319 52.4797 24.378L52.4277 22.8528C52.9708 22.5998 53.4916 22.3022 53.9851 21.9649L55.2722 22.7883C55.9071 23.195 56.7379 23.1057 57.2736 22.5775C57.8093 22.0468 57.906 21.2184 57.5067 20.5786L56.7007 19.2865C57.043 18.8004 57.343 18.2821 57.6034 17.7365L59.1287 17.8059C59.8801 17.8407 60.5571 17.3496 60.7555 16.623C60.9539 15.8963 60.6241 15.13 59.9595 14.7754L58.6128 14.0586C58.6674 13.456 58.6723 12.8558 58.6252 12.2631L59.9768 11.5637C60.6464 11.2165 60.9837 10.4527 60.7927 9.72358C60.6018 8.99446 59.9322 8.49597 59.1783 8.52077L57.6531 8.57285C57.4001 8.02973 57.1025 7.50893 56.7652 7.01541L57.5886 5.72828C57.9953 5.0934 57.906 4.2626 57.3778 3.72691C56.847 3.19123 56.0187 3.09451 55.3789 3.49379L54.0868 4.2998C53.6007 3.95756 53.0824 3.65747 52.5368 3.39707L52.6062 1.87187C52.6409 1.12042 52.1499 0.44338 51.4233 0.244979C50.6966 0.0465784 49.9303 0.37642 49.5757 1.04106L48.8589 2.38771C48.2563 2.33315 47.6561 2.32819 47.0634 2.37531L46.364 1.0237C46.0168 0.3541 45.253 0.0168183 44.5239 0.207779C43.7948 0.39874 43.2963 1.06834 43.3211 1.82227L43.3731 3.34747C42.83 3.60043 42.3092 3.89555 41.8157 4.23532L40.5286 3.41195C39.8937 3.00523 39.0629 3.09451 38.5272 3.62275C37.9915 4.15348 37.8948 4.9818 38.2941 5.62164L39.1001 6.91373C38.7578 7.39981 38.4578 7.91813 38.1974 8.46373L36.6722 8.39429C35.9207 8.35957 35.2437 8.85062 35.0453 9.57726C34.8469 10.3039 35.1767 11.0702 35.8414 11.4249ZM39.6507 10.8396C40.8981 6.28381 45.6027 3.60291 50.156 4.85036C54.7118 6.0978 57.3927 10.8024 56.1452 15.3557C54.8978 19.9115 50.1932 22.5924 45.6399 21.3449C41.0841 20.0975 38.4032 15.3929 39.6507 10.8396Z" fill="#115E59"/>
  <path d="M50.8653 26.1958C50.2205 26.1958 49.6153 25.8412 49.3053 25.2435L48.6506 23.9812C48.1199 24.0184 47.5768 24.0134 47.0312 23.9688L46.3616 25.2261C45.9722 25.9602 45.1389 26.3173 44.3379 26.0991C43.5368 25.8809 43.0036 25.1468 43.0408 24.3185L43.1053 22.8949C42.6143 22.6568 42.1456 22.3816 41.7066 22.0815L40.5013 22.8354C39.797 23.2744 38.8967 23.1702 38.3139 22.58C37.7311 21.9897 37.6344 21.0895 38.0833 20.3901L38.8521 19.1898C38.552 18.7434 38.2842 18.2722 38.0511 17.7861L36.625 17.8357C35.7942 17.8655 35.0676 17.3223 34.8593 16.5213C34.6485 15.7178 35.0155 14.8895 35.7546 14.5075L37.0169 13.8528C36.9797 13.3221 36.9847 12.779 37.0293 12.2334L35.7719 11.5638C35.0378 11.1744 34.6807 10.3411 34.899 9.54007C35.1172 8.73903 35.8488 8.20583 36.6796 8.24303L38.1031 8.30751C38.3412 7.81646 38.6165 7.34774 38.9166 6.90878L38.1627 5.70349C37.7237 4.99917 37.8279 4.09893 38.4181 3.51613C39.0083 2.93332 39.9086 2.8366 40.6079 3.283L41.8083 4.05181C42.2547 3.75173 42.7259 3.48389 43.212 3.25076L43.1624 1.82476C43.1326 0.993954 43.6757 0.267311 44.4768 0.0589906C45.2803 -0.15181 46.1086 0.215231 46.4905 0.954274L47.1453 2.2166C47.676 2.1794 48.2191 2.18436 48.7647 2.229L49.4343 0.971635C49.8237 0.237551 50.6569 -0.11957 51.458 0.0986707C52.259 0.316912 52.7922 1.05099 52.755 1.87932L52.6906 3.30284C53.1816 3.54093 53.6503 3.81621 54.0893 4.11629L55.2946 3.36236C55.9989 2.9234 56.8991 3.02756 57.4819 3.61781C58.0647 4.20805 58.1615 5.10829 57.7151 5.80765L56.9463 7.00798C57.2463 7.45438 57.5142 7.92558 57.7473 8.41167L59.1733 8.36207C60.0066 8.33479 60.7308 8.87543 60.9391 9.67647C61.1499 10.48 60.7828 11.3083 60.0438 11.6902L58.7815 12.345C58.8187 12.8757 58.8137 13.4188 58.7691 13.9644L60.0264 14.634C60.7605 15.0234 61.1176 15.8567 60.8994 16.6577C60.6812 17.4587 59.9446 17.9919 59.1187 17.9547L57.6952 17.8903C57.4571 18.3813 57.1819 18.85 56.8818 19.289L57.6357 20.4943C58.0747 21.1986 57.9705 22.0988 57.3803 22.6816C56.79 23.2644 55.8898 23.3612 55.1904 22.9148L53.9901 22.146C53.5437 22.446 53.0725 22.7139 52.5864 22.947L52.636 24.373C52.6658 25.2038 52.1226 25.9305 51.3216 26.1388C51.1703 26.1785 51.019 26.1983 50.8678 26.1983L50.8653 26.1958ZM48.7399 23.6687C48.7969 23.6687 48.849 23.7009 48.8763 23.7505L49.5757 25.1021C49.8906 25.7122 50.5751 26.0148 51.2398 25.8412C51.9044 25.6676 52.3508 25.0674 52.3285 24.3805L52.2764 22.8552C52.2764 22.7932 52.3086 22.7387 52.3657 22.7114C52.8989 22.4634 53.4172 22.1683 53.9008 21.836C53.9504 21.8012 54.0174 21.8012 54.0694 21.8335L55.3566 22.6568C55.9344 23.0264 56.6809 22.947 57.167 22.4659C57.6555 21.9823 57.7423 21.2383 57.3778 20.6555L56.5718 19.3634C56.5395 19.3113 56.542 19.2444 56.5767 19.1948C56.9115 18.7211 57.2091 18.2052 57.4671 17.6646C57.4943 17.61 57.5514 17.5753 57.6109 17.5778L59.1361 17.6472C59.8206 17.6795 60.4282 17.238 60.6092 16.5759C60.7903 15.9137 60.4927 15.2267 59.8875 14.9019L58.5409 14.1851C58.4863 14.1554 58.4541 14.0983 58.4615 14.0363C58.5161 13.4411 58.5186 12.8459 58.4739 12.2681C58.469 12.2061 58.5012 12.149 58.5558 12.1218L59.9074 11.4224C60.5175 11.1074 60.82 10.423 60.6464 9.75831C60.4728 9.09367 59.8751 8.64727 59.1857 8.66959L57.6605 8.72167C57.5985 8.72167 57.5439 8.68943 57.5167 8.63239C57.2687 8.09918 56.9735 7.58086 56.6412 7.09726C56.6065 7.04766 56.6065 6.9807 56.6387 6.92862L57.4621 5.64149C57.8316 5.06365 57.7523 4.31717 57.2711 3.83109C56.7875 3.34252 56.0435 3.25572 55.4607 3.62029L54.1686 4.42629C54.1166 4.45853 54.0496 4.45605 54 4.42133C53.5238 4.08653 53.0105 3.78893 52.4698 3.53101C52.4153 3.50373 52.3806 3.44669 52.383 3.38716L52.4525 1.86196C52.4847 1.175 52.0433 0.569873 51.3811 0.388832C50.7189 0.207791 50.032 0.502912 49.7071 1.11051L48.9904 2.45716C48.9606 2.51172 48.9011 2.54396 48.8416 2.53652C48.2464 2.48196 47.6512 2.47948 47.0733 2.52412C47.0113 2.52908 46.9543 2.49684 46.927 2.44228L46.2277 1.09067C45.9127 0.480592 45.2282 0.178031 44.5636 0.351632C43.8989 0.525232 43.4525 1.1254 43.4748 1.81236L43.5269 3.33756C43.5269 3.39956 43.4947 3.45661 43.4376 3.48141C42.9044 3.72941 42.3886 4.02453 41.9025 4.35685C41.8529 4.39157 41.786 4.39157 41.7339 4.35933L40.4467 3.53597C39.8689 3.16644 39.1224 3.2458 38.6363 3.72693C38.1478 4.21053 38.061 4.95453 38.4255 5.53733L39.2315 6.82942C39.2638 6.8815 39.2613 6.94846 39.2266 6.99806C38.8918 7.47422 38.5942 7.98759 38.3363 8.52823C38.309 8.58279 38.2519 8.61751 38.1924 8.61503L36.6672 8.54559C35.9802 8.51335 35.3751 8.95479 35.1941 9.61695C35.013 10.2791 35.3106 10.9661 35.9158 11.291L37.2624 12.0077C37.317 12.0374 37.3492 12.0945 37.3418 12.1565C37.2872 12.7517 37.2847 13.3469 37.3294 13.9247C37.3343 13.9867 37.3021 14.0438 37.2475 14.0711L35.8959 14.7704C35.2858 15.0854 34.9833 15.7699 35.1569 16.4345C35.3305 17.0991 35.9306 17.5455 36.6176 17.5232L38.1428 17.4711C38.2048 17.4711 38.2619 17.5034 38.2867 17.5604C38.5347 18.0936 38.8298 18.6119 39.1621 19.0956C39.1968 19.1452 39.1968 19.2121 39.1646 19.2642L38.3412 20.5513C37.9717 21.1292 38.0511 21.8756 38.5322 22.3617C39.0158 22.8503 39.7598 22.9371 40.3426 22.5725L41.6347 21.7665C41.6868 21.7343 41.7537 21.7368 41.8033 21.7715C42.277 22.1063 42.7928 22.4039 43.3335 22.6618C43.388 22.6891 43.4228 22.7461 43.4203 22.8056L43.3508 24.3309C43.3186 25.0178 43.76 25.6229 44.4222 25.804C45.0844 25.985 45.7713 25.6899 46.0937 25.0823L46.8105 23.7357C46.8402 23.6811 46.8973 23.6489 46.9593 23.6563C47.5545 23.7109 48.1497 23.7133 48.7275 23.6687C48.7325 23.6687 48.7349 23.6687 48.7399 23.6687ZM47.9141 21.8062C47.1428 21.8062 46.3665 21.702 45.6027 21.4937C40.9725 20.2264 38.2395 15.4301 39.5068 10.7999C40.7741 6.16974 45.5704 3.43676 50.2006 4.70405C52.4426 5.31909 54.3125 6.76742 55.4632 8.78863C56.6139 10.8074 56.9115 13.1559 56.2965 15.3979C55.6815 17.6398 54.2331 19.5097 52.2119 20.6604C50.8802 21.4193 49.407 21.8062 47.9141 21.8062ZM39.7995 10.8793C38.5768 15.3458 41.2156 19.976 45.682 21.1986C47.8471 21.7913 50.1113 21.5061 52.0606 20.3951C54.0099 19.284 55.4086 17.4811 56.0014 15.316C56.5941 13.151 56.3089 10.8867 55.1978 8.93743C54.0868 6.98814 52.2838 5.58941 50.1188 4.99669C45.6523 3.77405 41.0221 6.41278 39.7995 10.8793Z" fill="#14B8A6"/>
  <mask id="mask1_108_3723" style="mask-type:luminance" maskUnits="userSpaceOnUse" x="40" y="5" width="16" height="16">
    <path d="M40.2437 13.0791C40.2437 8.85564 43.6685 5.43323 47.8895 5.43323C52.1105 5.43323 55.5354 8.85812 55.5354 13.0791C55.5354 17.3001 52.1105 20.7275 47.8895 20.7275C43.6685 20.7275 40.2437 17.3026 40.2437 13.0791Z" fill="white"/>
  </mask>
  <g mask="url(#mask1_108_3723)">
    <path d="M53.9779 18.4953C52.4303 19.971 50.3422 20.8811 48.0358 20.8935C45.7293 20.9059 43.6313 20.0156 42.0688 18.5573C43.8644 17.9919 45.8831 17.667 48.0184 17.6571C50.1537 17.6447 52.1774 17.9497 53.9779 18.4953Z" fill="#14B8A6"/>
    <path d="M42.9566 12.6178C43.7106 9.89969 45.268 6.33343 48.187 6.7724C50.9869 7.194 52.3038 10.2643 52.9114 12.6451C53.2784 14.0934 52.1748 15.4996 50.6794 15.507L45.1986 15.5368C43.6709 15.5442 42.5499 14.0909 42.9566 12.6178Z" fill="#14B8A6"/>
    <path d="M45.3724 9.45829L45.3774 9.43845L50.3548 9.40125C50.3548 9.40125 50.3548 9.40869 50.3573 9.41365C50.4217 9.66165 50.4589 9.92205 50.4589 10.1948L50.4664 11.6506C50.4713 12.6253 50.015 13.4858 49.3181 13.9893L49.338 17.7911C49.3429 18.5475 48.7328 19.165 47.974 19.1675C47.2176 19.1725 46.6 18.5624 46.5976 17.8035L46.5777 14.0562C45.8312 13.5701 45.3303 12.6873 45.3253 11.6754L45.3179 10.0312C45.3179 9.83277 45.3352 9.64181 45.3724 9.45581V9.45829Z" fill="#115E59"/>
    <path d="M47.9688 19.3212C47.5646 19.3212 47.1852 19.165 46.8975 18.8798C46.6073 18.5946 46.4486 18.2127 46.4461 17.806L46.4263 14.1008C46.4263 14.0165 46.4932 13.9471 46.5776 13.9471C46.6619 13.9471 46.7288 14.014 46.7313 14.0983L46.7512 17.8035C46.7512 18.1284 46.8801 18.4334 47.1132 18.6616C47.3439 18.8897 47.6464 19.0137 47.9688 19.0137C47.9688 19.0137 47.9738 19.0137 47.9763 19.0137C48.3012 19.0137 48.6062 18.8848 48.8344 18.6516C49.0625 18.421 49.189 18.1135 49.1865 17.7886L49.1667 14.0983C49.1667 14.014 49.2336 13.9446 49.318 13.9446C49.4023 13.9446 49.4692 14.0115 49.4717 14.0959L49.4916 17.7861C49.4916 18.1928 49.3378 18.5772 49.0501 18.8649C48.7649 19.1551 48.383 19.3138 47.9763 19.3163C47.9738 19.3163 47.9713 19.3163 47.9688 19.3163V19.3212Z" fill="#14B8A6"/>
    <path d="M47.8897 12.8162C47.5723 12.8162 47.2747 12.6897 47.0564 12.4566C46.9994 12.3946 47.0019 12.2979 47.0614 12.2408C47.1234 12.1838 47.2201 12.1863 47.2771 12.2458C47.4383 12.4169 47.6566 12.5087 47.8897 12.5087C47.8897 12.5087 47.8922 12.5087 47.8947 12.5087C48.1303 12.5087 48.346 12.4119 48.5072 12.2408C48.5643 12.1788 48.661 12.1763 48.723 12.2334C48.785 12.2904 48.7875 12.3871 48.7304 12.4491C48.5171 12.6798 48.2121 12.8137 47.8971 12.8137H47.8922L47.8897 12.8162Z" fill="#14B8A6"/>
    <path d="M47.8995 14.6068C46.4041 14.6068 45.1839 13.2973 45.1765 11.6779L45.169 10.0336C45.1641 9.27474 45.4344 8.56049 45.9254 8.01985C46.4214 7.47673 47.0836 7.17417 47.7904 7.17169C48.5443 7.16673 49.2511 7.48169 49.7843 8.05457C50.315 8.62498 50.6102 9.38386 50.6126 10.1923L50.6201 11.6481C50.625 12.7964 50.0075 13.8504 49.0428 14.334C48.9684 14.3712 48.8766 14.3414 48.837 14.267C48.7998 14.1926 48.8295 14.1008 48.9039 14.0612C49.7645 13.6296 50.3175 12.6823 50.3126 11.6506L50.3051 10.1948C50.3002 9.46322 50.0348 8.77626 49.5586 8.26289C49.0825 7.75201 48.4525 7.47425 47.7904 7.47673C47.1704 7.47921 46.5876 7.74705 46.1511 8.22569C45.7097 8.7093 45.4691 9.35162 45.4741 10.0336L45.4815 11.6779C45.4889 13.1287 46.5727 14.3017 47.8995 14.3017C47.9045 14.3017 47.9094 14.3017 47.9119 14.3017C47.9962 14.3017 48.0632 14.3687 48.0657 14.453C48.0657 14.5373 47.9987 14.6068 47.9144 14.6068C47.9094 14.6068 47.9045 14.6068 47.902 14.6068H47.8995Z" fill="#14B8A6"/>
  </g>
  <path d="M47.9193 20.9134C47.1058 20.9134 46.2775 20.7844 45.4641 20.5141C43.7033 19.9264 42.2103 18.7285 41.2555 17.1413C41.2133 17.0694 41.2356 16.9751 41.3076 16.933C41.3795 16.8908 41.4737 16.9131 41.5159 16.9851C42.431 18.5103 43.8669 19.661 45.5583 20.2264C49.4693 21.5309 53.7126 19.4105 55.0171 15.4995C56.3216 11.5886 54.2011 7.34526 50.2902 6.04077C48.3954 5.40837 46.3693 5.55221 44.5812 6.44501C42.7956 7.33782 41.4638 8.87294 40.8314 10.7677C40.3974 12.0697 40.328 13.461 40.633 14.7927C40.6528 14.8746 40.6008 14.9564 40.5189 14.9762C40.4371 14.9961 40.3552 14.944 40.3354 14.8622C40.018 13.4758 40.0899 12.0275 40.5412 10.6734C41.1985 8.70182 42.5848 7.10469 44.4448 6.17469C46.3048 5.24469 48.4153 5.09589 50.3869 5.75309C54.4566 7.10965 56.6663 11.5266 55.3072 15.5987C54.221 18.855 51.178 20.9208 47.9193 20.9208V20.9134Z" fill="#14B8A6"/>
  <path d="M18.7939 5.92916C18.7567 5.92916 18.717 5.91428 18.6873 5.887C18.6253 5.82748 18.6253 5.73324 18.6823 5.67124L19.2428 5.08596C19.3023 5.02396 19.3966 5.02396 19.4586 5.081C19.5206 5.14052 19.5206 5.23476 19.4635 5.29676L18.903 5.88204C18.8733 5.91428 18.8336 5.92916 18.7939 5.92916Z" fill="#14B8A6"/>
  <path d="M16.8296 7.98019C16.7924 7.98019 16.7527 7.96531 16.7229 7.93803C16.6609 7.87851 16.6609 7.78427 16.718 7.72227L17.2784 7.13698C17.338 7.07498 17.4347 7.07498 17.4942 7.13202C17.5562 7.19154 17.5562 7.28578 17.4992 7.34778L16.9387 7.93307C16.9089 7.96531 16.8692 7.98019 16.8296 7.98019Z" fill="#14B8A6"/>
  <path d="M17.3803 5.96143C17.3407 5.96143 17.3035 5.94655 17.2737 5.91679L16.7033 5.35631C16.6438 5.29679 16.6413 5.20007 16.7033 5.14055C16.7628 5.08103 16.8595 5.07855 16.919 5.14055L17.4895 5.70103C17.549 5.76055 17.5515 5.85727 17.4895 5.91679C17.4597 5.94655 17.42 5.96143 17.3803 5.96143Z" fill="#14B8A6"/>
  <path d="M19.3745 7.92554C19.3348 7.92554 19.2976 7.91066 19.2678 7.8809L18.6974 7.32042C18.6379 7.2609 18.6354 7.16418 18.6974 7.10466C18.757 7.04514 18.8537 7.04266 18.9132 7.10466L19.4836 7.66514C19.5431 7.72466 19.5456 7.82138 19.4836 7.8809C19.4538 7.91066 19.4142 7.92554 19.3745 7.92554Z" fill="#14B8A6"/>
  <path d="M107.129 6.95589C107.092 6.95589 107.052 6.94101 107.023 6.91373C106.961 6.85421 106.961 6.75997 107.018 6.69797L107.578 6.11269C107.635 6.05069 107.732 6.05069 107.794 6.10773C107.856 6.16725 107.856 6.26149 107.799 6.32349L107.238 6.90878C107.209 6.94102 107.169 6.95589 107.129 6.95589Z" fill="#14B8A6"/>
  <path d="M105.163 9.00692C105.126 9.00692 105.086 8.99204 105.056 8.96476C104.994 8.90524 104.994 8.811 105.051 8.749L105.612 8.16372C105.671 8.10172 105.768 8.10172 105.828 8.15876C105.89 8.21828 105.89 8.31252 105.833 8.37452L105.272 8.9598C105.242 8.99204 105.203 9.00692 105.163 9.00692Z" fill="#14B8A6"/>
  <path d="M105.713 6.9856C105.674 6.9856 105.636 6.97072 105.607 6.94096L105.036 6.38048C104.977 6.32096 104.974 6.22424 105.036 6.16472C105.096 6.1052 105.193 6.10272 105.252 6.16472L105.822 6.7252C105.882 6.78472 105.884 6.88144 105.822 6.94096C105.793 6.97072 105.753 6.9856 105.713 6.9856Z" fill="#14B8A6"/>
  <path d="M107.71 8.94983C107.67 8.94983 107.633 8.93495 107.603 8.90519L107.033 8.34471C106.973 8.28519 106.971 8.18847 107.033 8.12895C107.092 8.06943 107.189 8.06695 107.249 8.12895L107.819 8.68943C107.879 8.74895 107.881 8.84567 107.819 8.90519C107.789 8.93495 107.75 8.94983 107.71 8.94983Z" fill="#14B8A6"/>
  <path d="M109.577 96.7099C109.495 96.7099 109.426 96.643 109.423 96.5611L109.406 95.7502C109.406 95.6659 109.47 95.5964 109.555 95.5939C109.639 95.5915 109.708 95.6584 109.711 95.7427L109.728 96.5537C109.728 96.638 109.664 96.7075 109.579 96.7099C109.579 96.7099 109.579 96.7099 109.577 96.7099Z" fill="#14B8A6"/>
  <path d="M109.639 99.5495C109.557 99.5495 109.488 99.4826 109.485 99.4007L109.468 98.5898C109.468 98.5055 109.532 98.436 109.617 98.4335C109.701 98.4311 109.77 98.498 109.773 98.5823L109.79 99.3933C109.79 99.4776 109.726 99.5471 109.641 99.5495C109.641 99.5495 109.641 99.5495 109.639 99.5495Z" fill="#14B8A6"/>
  <path d="M107.801 97.7391C107.717 97.7391 107.65 97.6722 107.647 97.5878C107.647 97.5035 107.714 97.4341 107.799 97.4341L108.597 97.4266C108.682 97.4266 108.749 97.4936 108.751 97.5779C108.751 97.6622 108.684 97.7317 108.6 97.7317L107.801 97.7391Z" fill="#14B8A6"/>
  <path d="M110.599 97.7168C110.515 97.7168 110.448 97.6498 110.445 97.5655C110.445 97.4812 110.512 97.4117 110.597 97.4117L111.395 97.4043C111.475 97.4043 111.549 97.4713 111.549 97.5556C111.549 97.6399 111.482 97.7093 111.398 97.7093L110.599 97.7168Z" fill="#14B8A6"/>
  <path d="M7.09094 21.0374C6.87766 21.0374 6.66437 20.9977 6.45853 20.9184C6.01213 20.7448 5.65997 20.405 5.46901 19.9586C5.07717 19.0484 5.48389 17.9845 6.37669 17.5827C6.80574 17.3893 7.28438 17.3769 7.72334 17.548C8.16974 17.7216 8.5219 18.0614 8.71286 18.5078C9.10471 19.4179 8.69798 20.4819 7.80518 20.8836C7.57702 20.9853 7.33398 21.0374 7.09094 21.0374ZM7.09094 17.734C6.89006 17.734 6.69165 17.7762 6.50317 17.8605C5.76165 18.1928 5.42437 19.0807 5.75173 19.8371C5.91045 20.2066 6.20309 20.4893 6.57261 20.6332C6.9347 20.7745 7.32902 20.7646 7.68366 20.6034C8.42518 20.2711 8.76246 19.3832 8.4351 18.6268C8.27638 18.2573 7.98374 17.9746 7.61422 17.8307C7.44558 17.7663 7.2695 17.7315 7.09342 17.7315L7.09094 17.734Z" fill="#14B8A6"/>
  <path d="M116.529 91.4052C116.32 91.4052 116.109 91.3656 115.909 91.2887C115.47 91.1176 115.125 90.7828 114.936 90.3463C114.552 89.4535 114.951 88.4069 115.827 88.0151C116.248 87.8266 116.717 87.8142 117.149 87.9804C117.587 88.1515 117.932 88.4863 118.121 88.9228C118.505 89.8156 118.106 90.8621 117.23 91.254C117.005 91.3556 116.767 91.4052 116.529 91.4052ZM115.951 88.2928C115.227 88.6177 114.897 89.4857 115.217 90.2248C115.373 90.5868 115.658 90.8621 116.018 91.0035C116.372 91.1399 116.757 91.13 117.104 90.9762C117.828 90.6513 118.158 89.7833 117.838 89.0443C117.682 88.6822 117.397 88.4069 117.037 88.2656C116.682 88.1292 116.298 88.1391 115.951 88.2928Z" fill="#14B8A6"/>
  <path d="M13.3852 116.85C13.152 116.85 12.9164 116.806 12.6932 116.719C12.2047 116.528 11.8178 116.156 11.607 115.667C11.1755 114.67 11.6219 113.5 12.6015 113.061C13.0727 112.85 13.596 112.835 14.0771 113.023C14.5656 113.214 14.9525 113.586 15.1633 114.075C15.5948 115.072 15.1484 116.243 14.1688 116.682C13.9184 116.793 13.653 116.85 13.3852 116.85ZM13.3852 113.197C13.162 113.197 12.9388 113.244 12.728 113.338C11.8996 113.71 11.5227 114.7 11.8897 115.546C12.0683 115.957 12.3932 116.275 12.8048 116.434C13.2091 116.59 13.648 116.58 14.0448 116.401C14.8732 116.029 15.2501 115.04 14.8831 114.194C14.7045 113.782 14.3796 113.465 13.968 113.306C13.7795 113.232 13.5811 113.197 13.3852 113.197Z" fill="#14B8A6"/>
  <path d="M10.9844 10.9462C10.8405 10.9462 10.6967 10.919 10.5578 10.8644C10.2552 10.7478 10.0196 10.5172 9.8882 10.2171C9.62284 9.60456 9.89812 8.88287 10.5008 8.61255C10.7909 8.48111 11.1133 8.47367 11.4109 8.59023C11.7135 8.70679 11.9491 8.93743 12.0805 9.23751C12.3459 9.85008 12.0706 10.5718 11.468 10.8421C11.3142 10.9115 11.1505 10.9462 10.9844 10.9462ZM10.9844 8.81591C10.8628 8.81591 10.7413 8.84071 10.6272 8.89279C10.1759 9.09615 9.97004 9.6368 10.1709 10.0981C10.2676 10.3238 10.4462 10.4949 10.6694 10.5817C10.8901 10.666 11.1282 10.661 11.344 10.5643C11.7953 10.361 12.0012 9.82032 11.8003 9.35903C11.7036 9.13335 11.525 8.96223 11.3018 8.87543C11.2001 8.83575 11.091 8.81591 10.9844 8.81591Z" fill="#14B8A6"/>
  <path d="M86.5254 16.8809C86.4882 16.8809 86.4485 16.8661 86.4187 16.8388C86.3567 16.7793 86.3567 16.685 86.4138 16.623L86.9742 16.0377C87.0338 15.9757 87.128 15.9757 87.19 16.0328C87.252 16.0923 87.252 16.1865 87.195 16.2485L86.6345 16.8338C86.6047 16.8661 86.565 16.8809 86.5254 16.8809Z" fill="#14B8A6"/>
  <path d="M84.5615 18.932C84.5243 18.932 84.4846 18.9171 84.4549 18.8898C84.3929 18.8303 84.3929 18.736 84.4499 18.674L85.0104 18.0888C85.0699 18.0268 85.1641 18.0268 85.2261 18.0838C85.2881 18.1433 85.2881 18.2376 85.2311 18.2996L84.6706 18.8849C84.6409 18.9171 84.6012 18.932 84.5615 18.932Z" fill="#14B8A6"/>
  <path d="M85.1118 16.9106C85.0721 16.9106 85.0349 16.8958 85.0051 16.866L84.4347 16.3055C84.3752 16.246 84.3727 16.1493 84.4347 16.0898C84.4943 16.0302 84.591 16.0278 84.6505 16.0898L85.2209 16.6502C85.2804 16.7098 85.2829 16.8065 85.2209 16.866C85.1911 16.8958 85.1515 16.9106 85.1118 16.9106Z" fill="#14B8A6"/>
  <path d="M87.1059 18.8749C87.0662 18.8749 87.029 18.86 86.9993 18.8302L86.4289 18.2698C86.3694 18.2102 86.3669 18.1135 86.4289 18.054C86.4884 17.9945 86.5851 17.992 86.6446 18.054L87.215 18.6145C87.2746 18.674 87.277 18.7707 87.215 18.8302C87.1853 18.86 87.1456 18.8749 87.1059 18.8749Z" fill="#14B8A6"/>
  <path d="M8.2393 109.742C7.49282 109.742 6.8877 109.135 6.8877 108.391C6.8877 107.647 7.4953 107.039 8.2393 107.039C8.9833 107.039 9.59091 107.647 9.59091 108.391C9.59091 109.135 8.9833 109.742 8.2393 109.742ZM8.2393 107.342C7.66146 107.342 7.19274 107.81 7.19274 108.388C7.19274 108.966 7.66146 109.435 8.2393 109.435C8.81714 109.435 9.28586 108.966 9.28586 108.388C9.28586 107.81 8.81714 107.342 8.2393 107.342Z" fill="#14B8A6"/>
</svg>