<svg width="21" height="20" viewBox="0 0 21 20" fill="none" xmlns="http://www.w3.org/2000/svg">
<g clip-path="url(#clip0_242_3634)">
<path d="M15.0964 11.6666V1.66663" stroke="#CBD5E1" stroke-width="2" stroke-linecap="round" stroke-linejoin="round"/>
<path d="M8.4297 15.1L9.26304 11.6666H4.4047C4.14596 11.6666 3.89077 11.6064 3.65935 11.4907C3.42792 11.375 3.22662 11.207 3.07137 11C2.91613 10.793 2.81121 10.5527 2.76492 10.2981C2.71864 10.0435 2.73226 9.78168 2.8047 9.53329L4.74637 2.86663C4.84734 2.52043 5.05788 2.21633 5.34637 1.99996C5.63486 1.78359 5.98575 1.66663 6.34637 1.66663H17.5964C18.0384 1.66663 18.4623 1.84222 18.7749 2.15478C19.0874 2.46734 19.263 2.89127 19.263 3.33329V9.99996C19.263 10.442 19.0874 10.8659 18.7749 11.1785C18.4623 11.491 18.0384 11.6666 17.5964 11.6666H15.2964C14.9863 11.6668 14.6824 11.7534 14.4189 11.9169C14.1554 12.0803 13.9427 12.3139 13.8047 12.5916L10.9297 18.3333C10.5367 18.3284 10.1499 18.2348 9.7982 18.0595C9.44648 17.8841 9.13893 17.6315 8.89853 17.3206C8.65814 17.0097 8.49111 16.6485 8.40992 16.264C8.32874 15.8794 8.3355 15.4815 8.4297 15.1Z" stroke="#CBD5E1" stroke-width="2" stroke-linecap="round" stroke-linejoin="round"/>
</g>
<defs>
<clipPath id="clip0_242_3634">
<rect width="20" height="20" fill="white" transform="translate(0.929688)"/>
</clipPath>
</defs>
</svg>
