<svg width="21" height="20" viewBox="0 0 21 20" fill="none" xmlns="http://www.w3.org/2000/svg">
<g clip-path="url(#clip0_242_3953)">
<path d="M5.90363 8.33337V18.3334" stroke="#14B8A6" stroke-width="2" stroke-linecap="round" stroke-linejoin="round"/>
<path d="M12.5703 4.89996L11.737 8.33329H16.5953C16.8541 8.33329 17.1093 8.39353 17.3407 8.50925C17.5721 8.62496 17.7734 8.79297 17.9287 8.99996C18.0839 9.20695 18.1888 9.44725 18.2351 9.70182C18.2814 9.95639 18.2678 10.2182 18.1953 10.4666L16.2537 17.1333C16.1527 17.4795 15.9422 17.7836 15.6537 18C15.3652 18.2163 15.0143 18.3333 14.6537 18.3333H3.40367C2.96164 18.3333 2.53772 18.1577 2.22515 17.8451C1.91259 17.5326 1.737 17.1087 1.737 16.6666V9.99996C1.737 9.55793 1.91259 9.13401 2.22515 8.82145C2.53772 8.50889 2.96164 8.33329 3.40367 8.33329H5.70367C6.01374 8.33313 6.31761 8.24647 6.58113 8.08306C6.84465 7.91965 7.05735 7.68597 7.19533 7.40829L10.0703 1.66663C10.4633 1.67149 10.8501 1.7651 11.2018 1.94046C11.5536 2.11581 11.8611 2.36838 12.1015 2.6793C12.3419 2.99021 12.5089 3.35143 12.5901 3.73596C12.6713 4.1205 12.6645 4.51841 12.5703 4.89996Z" stroke="#14B8A6" stroke-width="2" stroke-linecap="round" stroke-linejoin="round"/>
</g>
<defs>
<clipPath id="clip0_242_3953">
<rect width="20" height="20" fill="white" transform="translate(0.0703125)"/>
</clipPath>
</defs>
</svg>
