<svg width="20" height="21" viewBox="0 0 20 21" fill="none" xmlns="http://www.w3.org/2000/svg">
<g clip-path="url(#clip0_242_3635)">
<path d="M5.83331 8.58337V18.5834" stroke="#CBD5E1" stroke-width="2" stroke-linecap="round" stroke-linejoin="round"/>
<path d="M12.5 5.14996L11.6667 8.58329H16.525C16.7838 8.58329 17.0389 8.64353 17.2704 8.75925C17.5018 8.87496 17.7031 9.04297 17.8584 9.24996C18.0136 9.45695 18.1185 9.69725 18.1648 9.95182C18.2111 10.2064 18.1975 10.4682 18.125 10.7166L16.1834 17.3833C16.0824 17.7295 15.8718 18.0336 15.5834 18.25C15.2949 18.4663 14.944 18.5833 14.5834 18.5833H3.33335C2.89133 18.5833 2.4674 18.4077 2.15484 18.0951C1.84228 17.7826 1.66669 17.3587 1.66669 16.9166V10.25C1.66669 9.80793 1.84228 9.38401 2.15484 9.07145C2.4674 8.75889 2.89133 8.58329 3.33335 8.58329H5.63335C5.94342 8.58313 6.2473 8.49647 6.51082 8.33306C6.77433 8.16965 6.98704 7.93597 7.12502 7.65829L10 1.91663C10.393 1.92149 10.7798 2.0151 11.1315 2.19046C11.4832 2.36581 11.7908 2.61838 12.0312 2.9293C12.2716 3.24021 12.4386 3.60143 12.5198 3.98596C12.601 4.3705 12.5942 4.76841 12.5 5.14996Z" stroke="#CBD5E1" stroke-width="2" stroke-linecap="round" stroke-linejoin="round"/>
</g>
<defs>
<clipPath id="clip0_242_3635">
<rect width="20" height="20" fill="white" transform="translate(0 0.25)"/>
</clipPath>
</defs>
</svg>
