<svg width="20" height="21" viewBox="0 0 20 21" fill="none" xmlns="http://www.w3.org/2000/svg">
<g clip-path="url(#clip0_242_3952)">
<path d="M14.1667 12.4166V2.41663" stroke="#F43F5E" stroke-width="2" stroke-linecap="round" stroke-linejoin="round"/>
<path d="M7.50002 15.85L8.33335 12.4166H3.47502C3.21627 12.4166 2.96109 12.3564 2.72966 12.2407C2.49823 12.125 2.29693 11.957 2.14168 11.75C1.98644 11.543 1.88152 11.3027 1.83523 11.0481C1.78895 10.7935 1.80257 10.5317 1.87502 10.2833L3.81668 3.61663C3.91766 3.27043 4.12819 2.96633 4.41668 2.74996C4.70518 2.53359 5.05607 2.41663 5.41668 2.41663H16.6667C17.1087 2.41663 17.5326 2.59222 17.8452 2.90478C18.1578 3.21734 18.3334 3.64127 18.3334 4.08329V10.75C18.3334 11.192 18.1578 11.6159 17.8452 11.9285C17.5326 12.241 17.1087 12.4166 16.6667 12.4166H14.3667C14.0566 12.4168 13.7527 12.5034 13.4892 12.6669C13.2257 12.8303 13.013 13.0639 12.875 13.3416L10 19.0833C9.60704 19.0784 9.22024 18.9848 8.86851 18.8095C8.51679 18.6341 8.20924 18.3815 7.96885 18.0706C7.72845 17.7597 7.56142 17.3985 7.48024 17.014C7.39905 16.6294 7.40581 16.2315 7.50002 15.85Z" stroke="#F43F5E" stroke-width="2" stroke-linecap="round" stroke-linejoin="round"/>
</g>
<defs>
<clipPath id="clip0_242_3952">
<rect width="20" height="20" fill="white" transform="translate(0 0.75)"/>
</clipPath>
</defs>
</svg>
