<svg width="50" height="50" viewBox="0 0 50 50" fill="none" xmlns="http://www.w3.org/2000/svg">
<path d="M8.33333 31.0396C6.7855 29.4582 5.61784 27.5453 4.91882 25.4458C4.21979 23.3462 4.00772 21.1152 4.29866 18.9215C4.58961 16.7279 5.37594 14.6292 6.59811 12.7845C7.82027 10.9398 9.44621 9.39739 11.3528 8.27413C13.2593 7.15087 15.3965 6.47622 17.6024 6.30127C19.8083 6.12632 22.0251 6.45566 24.0849 7.26435C26.1447 8.07305 27.9934 9.33988 29.4911 10.9689C30.9888 12.5979 32.0961 14.5464 32.7292 16.6667H36.4583C38.4698 16.6665 40.428 17.3132 42.0437 18.5114C43.6594 19.7096 44.8469 21.3956 45.4308 23.3205C46.0146 25.2454 45.9639 27.307 45.2861 29.2008C44.6083 31.0947 43.3393 32.7203 41.6667 33.8376" stroke="#14B8A6" stroke-width="3" stroke-linecap="round" stroke-linejoin="round"/>
<path d="M25 25V43.75" stroke="#14B8A6" stroke-width="3" stroke-linecap="round" stroke-linejoin="round"/>
<path d="M33.3334 33.3333L25 25L16.6667 33.3333" stroke="#14B8A6" stroke-width="3" stroke-linecap="round" stroke-linejoin="round"/>
</svg>
