<svg width="130" height="125" viewBox="0 0 130 125" fill="none" xmlns="http://www.w3.org/2000/svg">
<path d="M109.292 26.5948C109.181 26.5948 109.083 26.5147 109.065 26.401L108.786 24.6389C108.765 24.5123 108.853 24.3934 108.977 24.3753C109.101 24.3547 109.223 24.4425 109.241 24.5665L109.52 26.3287C109.54 26.4553 109.453 26.5741 109.329 26.5922C109.316 26.5922 109.305 26.5948 109.292 26.5948Z" fill="white"/>
<path d="M110.267 32.7674C110.155 32.7674 110.057 32.6873 110.039 32.5736L109.76 30.8089C109.739 30.6823 109.827 30.5634 109.951 30.5453C110.075 30.5247 110.197 30.6099 110.215 30.7365L110.494 32.5012C110.515 32.6278 110.427 32.7467 110.303 32.7648C110.29 32.7648 110.279 32.7674 110.267 32.7674Z" fill="white"/>
<path d="M111.811 28.4241C111.7 28.4241 111.605 28.344 111.584 28.2329C111.563 28.1063 111.646 27.9874 111.773 27.9667L113.509 27.667C113.636 27.6438 113.754 27.729 113.775 27.8556C113.796 27.9823 113.713 28.1011 113.587 28.1218L111.85 28.4215C111.837 28.4215 111.824 28.4241 111.811 28.4241Z" fill="white"/>
<path d="M105.737 29.4731C105.626 29.4731 105.53 29.393 105.51 29.2819C105.489 29.1553 105.572 29.0364 105.698 29.0158L107.435 28.7161C107.561 28.6954 107.68 28.7781 107.701 28.9047C107.721 29.0313 107.639 29.1501 107.512 29.1708L105.776 29.4705C105.763 29.4705 105.75 29.4731 105.737 29.4731Z" fill="white"/>
<path d="M120.844 29.1166C120.749 29.1166 120.651 29.1089 120.55 29.0934C120.067 29.0158 119.643 28.7549 119.359 28.3596C119.072 27.9643 118.958 27.4785 119.036 26.9979C119.196 26.0032 120.136 25.3237 121.136 25.4838C121.619 25.5614 122.043 25.8223 122.327 26.2176C122.614 26.6129 122.728 27.0987 122.65 27.5793C122.506 28.4758 121.725 29.1166 120.844 29.1166ZM120.844 25.9205C120.185 25.9205 119.602 26.3985 119.493 27.0703C119.434 27.4294 119.521 27.7911 119.733 28.0883C119.948 28.3854 120.263 28.5792 120.625 28.6386C121.371 28.76 122.074 28.251 122.196 27.5069C122.255 27.1478 122.167 26.7861 121.955 26.4889C121.741 26.1918 121.426 25.998 121.064 25.9386C120.989 25.9257 120.917 25.9205 120.844 25.9205Z" fill="white"/>
<path d="M107.499 77.9625C107.432 77.9625 107.365 77.9341 107.321 77.8772C106.74 77.1641 106.164 76.4303 105.603 75.6914C105.525 75.5906 105.546 75.4459 105.647 75.3684C105.748 75.2909 105.892 75.3116 105.97 75.4123C106.525 76.1461 107.101 76.8773 107.678 77.5853C107.758 77.6834 107.742 77.8307 107.644 77.9108C107.6 77.947 107.548 77.9625 107.499 77.9625ZM104.148 73.5494C104.076 73.5494 104.004 73.5158 103.96 73.4513C103.427 72.6994 102.9 71.9268 102.391 71.1569C102.322 71.0509 102.35 70.9062 102.456 70.8365C102.562 70.7667 102.707 70.7951 102.776 70.9011C103.283 71.6685 103.807 72.4358 104.337 73.1825C104.412 73.2859 104.386 73.4306 104.283 73.5055C104.241 73.5339 104.195 73.5469 104.148 73.5469V73.5494ZM101.097 68.9245C101.019 68.9245 100.944 68.8858 100.9 68.8134C100.417 68.0279 99.9419 67.2218 99.4846 66.4208C99.4226 66.3097 99.4587 66.1676 99.5698 66.1056C99.6809 66.0436 99.823 66.0824 99.885 66.1909C100.34 66.9867 100.813 67.7877 101.293 68.5705C101.36 68.6791 101.327 68.8212 101.218 68.8883C101.18 68.9116 101.138 68.9219 101.097 68.9219V68.9245ZM98.3529 64.1084C98.2702 64.1084 98.1901 64.0645 98.1488 63.9844C97.7173 63.1627 97.2961 62.3282 96.8956 61.5014C96.8414 61.3851 96.8879 61.2482 97.0042 61.1939C97.1178 61.1397 97.2574 61.1862 97.3116 61.3024C97.7095 62.1241 98.1281 62.9535 98.557 63.7699C98.6164 63.8836 98.5725 64.0231 98.4614 64.0826C98.4278 64.1006 98.389 64.1084 98.3529 64.1084ZM95.9396 59.1166C95.8518 59.1166 95.7665 59.0649 95.7278 58.9796C95.3531 58.127 94.9914 57.264 94.6529 56.414C94.6064 56.2951 94.6633 56.1608 94.7821 56.1143C94.901 56.0677 95.0353 56.1246 95.0818 56.2434C95.4151 57.0857 95.7743 57.9435 96.1489 58.7936C96.2006 58.9099 96.1489 59.0468 96.0301 59.0985C95.9991 59.1114 95.9681 59.1192 95.9371 59.1192L95.9396 59.1166ZM93.8985 53.962C93.8029 53.962 93.715 53.9026 93.6814 53.807C93.374 52.9311 93.0846 52.0423 92.8211 51.1638C92.7849 51.0423 92.8546 50.9131 92.9761 50.877C93.0975 50.8408 93.2267 50.908 93.2629 51.032C93.5264 51.9027 93.8132 52.7864 94.1181 53.6545C94.1594 53.776 94.0974 53.9077 93.976 53.9491C93.9502 53.9568 93.9243 53.962 93.8985 53.962ZM92.3017 48.6601C92.1984 48.6601 92.1054 48.5904 92.0769 48.4844C91.8521 47.5982 91.6454 46.6861 91.4568 45.7741C91.431 45.65 91.5111 45.526 91.6377 45.5002C91.7643 45.4743 91.8857 45.5544 91.9116 45.681C92.0976 46.5854 92.3043 47.4897 92.5265 48.3707C92.5575 48.4948 92.4826 48.6188 92.3586 48.6524C92.3405 48.6575 92.3198 48.6601 92.3017 48.6601ZM91.183 43.2368C91.0719 43.2368 90.9737 43.1567 90.9556 43.043C90.8135 42.1697 90.6817 41.2732 90.5525 40.2965C90.537 40.1699 90.6249 40.0536 90.7515 40.0381C90.8781 40.0226 90.9943 40.1105 91.0098 40.2371C91.1365 41.2086 91.2682 42.1025 91.4103 42.9707C91.431 43.0973 91.3457 43.2161 91.2191 43.2368C91.2062 43.2368 91.1933 43.2394 91.1804 43.2394L91.183 43.2368ZM12.3965 42.0922C12.2854 42.0922 12.1872 42.0095 12.1691 41.8958C12.027 40.9683 11.9107 40.0381 11.8255 39.1312C11.8126 39.0046 11.9056 38.8909 12.0348 38.8806C12.1588 38.8651 12.275 38.9607 12.2854 39.0899C12.3706 39.9864 12.4843 40.9063 12.6264 41.8261C12.6471 41.9527 12.5593 42.069 12.4327 42.0896C12.4197 42.0896 12.4094 42.0922 12.3965 42.0922ZM90.4543 37.7463C90.3381 37.7463 90.2373 37.6585 90.2244 37.5422C90.1753 37.0978 90.1262 36.6612 90.0797 36.2271C90.028 35.7413 89.9738 35.2633 89.9221 34.7905C89.9066 34.6639 89.9996 34.5502 90.1262 34.5347C90.2528 34.5218 90.3665 34.6122 90.382 34.7388C90.4362 35.2142 90.4879 35.6922 90.5396 36.178C90.5861 36.6121 90.6352 37.0487 90.6843 37.4931C90.6998 37.6197 90.6068 37.7334 90.4802 37.7489C90.4724 37.7489 90.4621 37.7489 90.4543 37.7489V37.7463ZM11.8823 36.5759C11.7583 36.5759 11.6549 36.4777 11.6524 36.3511C11.6394 35.9429 11.6343 35.532 11.6343 35.1316C11.6343 34.6071 11.6446 34.08 11.6653 33.5658C11.6704 33.4392 11.7764 33.341 11.9056 33.3436C12.0322 33.3488 12.1329 33.4573 12.1278 33.5839C12.1071 34.0929 12.0968 34.6122 12.0968 35.1316C12.0968 35.5269 12.1019 35.9351 12.1149 36.3382C12.1174 36.4648 12.0193 36.5733 11.8901 36.5759H11.8823ZM89.8136 32.2455C89.6999 32.2455 89.6017 32.1628 89.5862 32.0466C89.4467 31.0467 89.302 30.1553 89.1392 29.3259C89.1159 29.2018 89.196 29.0804 89.3226 29.0546C89.4493 29.0287 89.5681 29.1114 89.5939 29.238C89.7567 30.0752 89.904 30.9743 90.0461 31.982C90.0642 32.1086 89.9763 32.2248 89.8497 32.2429C89.8394 32.2429 89.8291 32.2429 89.8187 32.2429L89.8136 32.2455ZM12.1097 31.0467C12.1097 31.0467 12.0916 31.0467 12.0813 31.0467C11.9547 31.0311 11.8642 30.9175 11.8797 30.7909C11.9883 29.8633 12.1355 28.9383 12.3138 28.0392C12.3396 27.9151 12.4611 27.8325 12.5851 27.8583C12.7091 27.8841 12.7918 28.0056 12.766 28.1296C12.5877 29.0158 12.443 29.9279 12.3371 30.8451C12.3241 30.9614 12.2234 31.0492 12.1071 31.0492L12.1097 31.0467ZM88.7258 26.8196C88.625 26.8196 88.532 26.7524 88.5036 26.6517C88.2452 25.7422 87.9584 24.8921 87.6225 24.0524C87.576 23.9336 87.6329 23.7992 87.7517 23.7527C87.8706 23.7036 88.0049 23.763 88.0514 23.8819C88.3925 24.7371 88.6845 25.6001 88.948 26.5277C88.9816 26.6491 88.9118 26.7783 88.7878 26.8119C88.7671 26.817 88.7465 26.8196 88.7258 26.8196ZM13.2 25.6259C13.1794 25.6259 13.1561 25.6233 13.1354 25.6156C13.014 25.5794 12.9417 25.4502 12.9778 25.3288C13.2388 24.4348 13.5437 23.5486 13.8796 22.6908C13.9261 22.5719 14.0604 22.5151 14.1793 22.5616C14.2981 22.6081 14.3576 22.7425 14.3085 22.8613C13.9752 23.7062 13.678 24.5795 13.4197 25.4606C13.3912 25.5613 13.2982 25.6259 13.1974 25.6259H13.2ZM86.6743 21.6883C86.5916 21.6883 86.5115 21.6444 86.4702 21.5669C86.049 20.7762 85.5736 19.9856 85.0569 19.2182C84.9845 19.1123 85.0129 18.9676 85.1189 18.8978C85.2248 18.8255 85.3695 18.8539 85.4393 18.9598C85.9663 19.7427 86.4495 20.5463 86.8758 21.3498C86.9353 21.4635 86.8939 21.603 86.7802 21.6625C86.7466 21.6805 86.7079 21.6883 86.6717 21.6883H86.6743ZM15.2257 20.4817C15.1895 20.4817 15.1559 20.4739 15.1223 20.4558C15.0087 20.399 14.9622 20.2595 15.019 20.1458C15.4376 19.319 15.8975 18.5025 16.391 17.7171C16.4581 17.6085 16.6003 17.5775 16.7088 17.6447C16.8173 17.7119 16.8483 17.854 16.7811 17.9625C16.2954 18.7351 15.8406 19.5386 15.4298 20.3525C15.3885 20.4326 15.3084 20.4791 15.2231 20.4791L15.2257 20.4817ZM83.5996 17.097C83.5325 17.097 83.4653 17.0685 83.4213 17.0117C83.2534 16.805 83.0803 16.5957 82.902 16.3864C82.4886 15.9007 82.0649 15.4278 81.605 14.9369C81.5171 14.8439 81.5223 14.6966 81.6153 14.6114C81.7083 14.5235 81.8556 14.5287 81.9409 14.6217C82.4059 15.1178 82.8348 15.5984 83.2534 16.0893C83.4343 16.3012 83.61 16.513 83.7805 16.7223C83.8606 16.8205 83.8451 16.9678 83.7469 17.0479C83.703 17.0815 83.6539 17.0995 83.6022 17.0995L83.5996 17.097ZM18.166 15.7973C18.1169 15.7973 18.0678 15.7818 18.0265 15.7508C17.9257 15.6733 17.9051 15.5286 17.9826 15.4278C18.5432 14.6941 19.1453 13.9758 19.7757 13.2859C19.861 13.1929 20.0082 13.1851 20.1012 13.273C20.1943 13.3583 20.202 13.5055 20.1167 13.5985C19.4966 14.2755 18.9024 14.986 18.3495 15.7069C18.303 15.7663 18.2358 15.7973 18.166 15.7973ZM79.8144 13.0405C79.7576 13.0405 79.7007 13.0198 79.6542 12.9759C78.9928 12.348 78.3003 11.7253 77.6001 11.1311C77.502 11.0484 77.4916 10.9037 77.5743 10.8055C77.657 10.7073 77.8017 10.697 77.8999 10.7797C78.6078 11.3817 79.3054 12.007 79.972 12.6426C80.0651 12.7304 80.0676 12.8777 79.9798 12.9681C79.9333 13.0172 79.8739 13.0405 79.8118 13.0405H79.8144ZM21.9047 11.7098C21.8427 11.7098 21.7807 11.684 21.7342 11.6349C21.6489 11.5419 21.6541 11.3946 21.7471 11.3093C22.4215 10.6892 23.1372 10.0821 23.8735 9.50588C23.9743 9.42837 24.119 9.44645 24.1965 9.54463C24.274 9.6454 24.2585 9.79009 24.1577 9.87019C23.4291 10.4386 22.7238 11.038 22.0597 11.6504C22.0158 11.6917 21.959 11.7124 21.9047 11.7124V11.7098ZM75.59 9.44645C75.5409 9.44645 75.4918 9.43095 75.4505 9.39994C74.7141 8.84185 73.9596 8.30185 73.2052 7.79285C73.0993 7.7205 73.0708 7.5784 73.1432 7.47246C73.2155 7.36653 73.3576 7.33811 73.4636 7.41045C74.2258 7.92204 74.988 8.46721 75.7295 9.03305C75.8303 9.11056 75.851 9.25525 75.7734 9.35602C75.7269 9.41545 75.6597 9.44645 75.59 9.44645ZM26.2661 8.29668C26.1912 8.29668 26.1188 8.26051 26.0723 8.19333C26.0025 8.0874 26.031 7.94271 26.1369 7.87294C26.8991 7.36653 27.6975 6.87562 28.5114 6.41312C28.6225 6.35111 28.7646 6.38987 28.8266 6.50097C28.8886 6.61207 28.8498 6.75418 28.7387 6.81619C27.9352 7.27351 27.1446 7.75668 26.3927 8.25792C26.3539 8.28376 26.31 8.29668 26.2661 8.29668ZM70.9883 6.3537C70.9496 6.3537 70.9082 6.34336 70.8721 6.32269C70.0737 5.85245 69.2598 5.40804 68.4537 4.99981C68.34 4.94297 68.2935 4.80344 68.3529 4.68976C68.4097 4.57607 68.5493 4.52956 68.6629 4.58899C69.4794 5.00239 70.3036 5.45197 71.1072 5.92738C71.2183 5.99197 71.2544 6.13408 71.1898 6.2426C71.1459 6.31494 71.071 6.35628 70.9909 6.35628L70.9883 6.3537ZM31.0796 5.5579C30.9944 5.5579 30.9117 5.50881 30.8703 5.42613C30.8161 5.31244 30.8626 5.17292 30.9789 5.11866C31.8031 4.72076 32.6609 4.34095 33.5264 3.98956C33.6453 3.94047 33.7797 3.9999 33.8262 4.11616C33.8752 4.23502 33.8184 4.36937 33.6996 4.41588C32.8417 4.7621 31.9943 5.13933 31.1778 5.53206C31.1468 5.54756 31.1106 5.55532 31.077 5.55532L31.0796 5.5579ZM66.0404 3.8552C66.0094 3.8552 65.981 3.85004 65.95 3.83712C65.0999 3.47798 64.2344 3.14467 63.3766 2.85271C63.2551 2.81137 63.1905 2.6796 63.2319 2.56074C63.2732 2.43931 63.405 2.37471 63.5238 2.41605C64.392 2.71318 65.2679 3.04649 66.1283 3.41338C66.2445 3.46247 66.3014 3.59941 66.2497 3.71568C66.2135 3.80353 66.1257 3.85779 66.0378 3.85779L66.0404 3.8552ZM36.2161 3.47539C36.1205 3.47539 36.0301 3.41338 35.9965 3.31778C35.9552 3.19635 36.0198 3.06716 36.1412 3.02582C37.0145 2.73385 37.9111 2.45998 38.8076 2.21452C38.9291 2.18093 39.0583 2.25328 39.0918 2.3773C39.1254 2.50132 39.0531 2.62792 38.9291 2.66151C38.0403 2.90438 37.1514 3.17309 36.2859 3.46506C36.2626 3.47281 36.2368 3.47798 36.211 3.47798L36.2161 3.47539ZM60.8006 2.06725C60.7825 2.06725 60.7618 2.06725 60.7411 2.05949C59.8523 1.82954 58.948 1.63059 58.0514 1.4704C57.9248 1.44714 57.8422 1.32829 57.8654 1.20169C57.8887 1.07508 58.0075 0.992403 58.1341 1.01566C59.041 1.17585 59.9583 1.37738 60.8574 1.60992C60.9814 1.64093 61.0538 1.76753 61.0228 1.89155C60.9969 1.9949 60.9013 2.06466 60.8006 2.06466V2.06725ZM41.5671 2.01299C41.4612 2.01299 41.3656 1.93806 41.3423 1.82954C41.3165 1.70552 41.3966 1.5815 41.5206 1.55566C42.4249 1.36446 43.3447 1.19394 44.2594 1.05183C44.386 1.03116 44.5022 1.11901 44.5229 1.24561C44.5436 1.37222 44.4557 1.48848 44.3291 1.50915C43.4222 1.64868 42.5102 1.81662 41.6136 2.00782C41.5981 2.0104 41.58 2.01299 41.5645 2.01299H41.5671ZM47.0446 1.16551C46.9284 1.16551 46.8276 1.07767 46.8147 0.95623C46.8018 0.829626 46.8948 0.715941 47.0214 0.703023C47.9464 0.612591 48.8817 0.547997 49.8015 0.511825C49.9307 0.504073 50.0366 0.60484 50.0418 0.734028C50.047 0.860632 49.9488 0.969149 49.8196 0.974317C48.9075 1.01049 47.9826 1.07508 47.0653 1.16551C47.0576 1.16551 47.0498 1.16551 47.0421 1.16551H47.0446ZM55.3488 1.10092C55.3488 1.10092 55.3333 1.10092 55.3256 1.10092C54.7236 1.04408 54.1086 1.00015 53.5015 0.976901C53.194 0.963982 52.8865 0.956231 52.5765 0.94848C52.4499 0.945896 52.3465 0.839961 52.3491 0.713357C52.3517 0.586753 52.4524 0.478236 52.5842 0.485987C52.8969 0.491154 53.2095 0.50149 53.517 0.514408C54.1319 0.540246 54.7546 0.581586 55.3669 0.641012C55.4935 0.653931 55.5865 0.765033 55.5736 0.89422C55.5633 1.01307 55.4625 1.1035 55.3437 1.1035L55.3488 1.10092Z" fill="white"/>
<path d="M36.8543 103.25H32.7979L36.906 86.3623H43.9106L36.8543 103.25Z" fill="#14B8A6"/>
<path d="M36.8543 103.48H32.7978C32.728 103.48 32.6608 103.446 32.6169 103.392C32.573 103.335 32.5575 103.263 32.573 103.195L36.6812 86.308C36.707 86.2047 36.8 86.1323 36.906 86.1323H43.9105C43.988 86.1323 44.0604 86.1711 44.1017 86.2357C44.1456 86.3003 44.1534 86.3804 44.1224 86.4527L37.0661 103.34C37.03 103.425 36.9473 103.482 36.8517 103.482L36.8543 103.48ZM33.0923 103.017H36.6993L43.5617 86.5922H37.0868L33.0923 103.017Z" fill="white"/>
<path d="M17.37 103.25H13.3135L17.4216 86.3623H24.4262L17.37 103.25Z" fill="#14B8A6"/>
<path d="M17.3701 103.48H13.3136C13.2439 103.48 13.1767 103.446 13.1328 103.392C13.0889 103.335 13.0734 103.263 13.0889 103.195L17.197 86.308C17.2229 86.2047 17.3159 86.1323 17.4218 86.1323H24.4264C24.5039 86.1323 24.5762 86.1711 24.6176 86.2357C24.6615 86.3003 24.6693 86.3804 24.6383 86.4527L17.582 103.34C17.5458 103.425 17.4632 103.482 17.3676 103.482L17.3701 103.48ZM13.6082 103.017H17.2151L24.0776 86.5922H17.6027L13.6082 103.017Z" fill="white"/>
<path d="M92.8751 103.25H96.9316L92.8234 86.3623H85.8188L92.8751 103.25Z" fill="#14B8A6"/>
<path d="M96.9316 103.48H92.8751C92.7821 103.48 92.6969 103.423 92.6607 103.338L85.6045 86.4502C85.5734 86.3778 85.5838 86.2977 85.6251 86.2331C85.669 86.1685 85.7414 86.1298 85.8163 86.1298H92.8209C92.9268 86.1298 93.0198 86.2021 93.0457 86.3055L97.1538 103.193C97.1693 103.263 97.1538 103.335 97.1099 103.389C97.066 103.446 96.9988 103.477 96.9291 103.477L96.9316 103.48ZM93.0302 103.017H96.6371L92.6426 86.5923H86.1677L93.0302 103.017Z" fill="white"/>
<path d="M112.556 103.25H116.612L112.504 86.3623H105.5L112.556 103.25Z" fill="#14B8A6"/>
<path d="M116.612 103.48H112.556C112.463 103.48 112.377 103.423 112.341 103.338L105.285 86.4502C105.254 86.3778 105.264 86.2977 105.306 86.2331C105.35 86.1685 105.422 86.1298 105.497 86.1298H112.501C112.607 86.1298 112.7 86.2021 112.726 86.3055L116.834 103.193C116.85 103.263 116.834 103.335 116.79 103.389C116.747 103.446 116.679 103.477 116.61 103.477L116.612 103.48ZM112.711 103.017H116.318L112.323 86.5923H105.848L112.711 103.017Z" fill="white"/>
<path d="M98.3401 87.6024H18.825C14.7789 87.6024 11.2391 84.8817 10.2004 80.9699L1.09528 46.898C-0.408463 41.2344 3.66354 35.6844 9.52349 35.6844H89.2324C93.2785 35.6844 96.8183 38.4051 97.8569 42.3169L106.965 76.3915C108.468 82.0551 104.2 87.605 98.3401 87.605V87.6024Z" fill="#14B8A6"/>
<path d="M98.3401 87.835H18.825C14.6807 87.835 11.0427 85.0368 9.97822 81.0319L0.873063 46.9574C0.12119 44.1282 0.694783 41.1982 2.44399 38.9219C4.13893 36.7179 6.7201 35.4519 9.52348 35.4519H89.2323C93.3767 35.4519 97.0146 38.2501 98.0791 42.2549L107.187 76.3295C107.923 79.0993 107.344 81.9905 105.598 84.2616C103.851 86.5328 101.205 87.835 98.3401 87.835ZM9.52348 35.9144C6.86479 35.9144 4.41798 37.1133 2.81088 39.2035C1.14952 41.3661 0.604352 44.1488 1.32005 46.8385L10.4278 80.9131C11.438 84.7164 14.8925 87.3725 18.8276 87.3725H98.3401C101.061 87.3725 103.572 86.1349 105.231 83.98C106.89 81.8226 107.44 79.0786 106.74 76.4484L97.6321 42.3738C96.6219 38.5705 93.1674 35.9144 89.2323 35.9144H9.52348Z" fill="white"/>
<path d="M82.1371 87.7989H113.625C116.23 87.7989 118.509 86.0471 119.178 83.528L125.04 61.4627C126.009 57.817 123.26 54.2411 119.488 54.2411H87.9996C85.3952 54.2411 83.1163 55.9929 82.4471 58.512L76.5846 80.5773C75.6157 84.223 78.3648 87.7989 82.1371 87.7989Z" fill="#14B8A6"/>
<path d="M113.625 88.0314H82.1372C80.2666 88.0314 78.5406 87.1813 77.3986 85.6983C76.2592 84.2152 75.8794 82.3291 76.3599 80.5204L82.2225 58.4551C82.9175 55.8404 85.292 54.0137 87.9972 54.0137H119.485C121.356 54.0137 123.082 54.8637 124.224 56.3468C125.363 57.8299 125.743 59.716 125.263 61.5247L119.4 83.5899C118.705 86.2047 116.331 88.0314 113.625 88.0314ZM88.0024 54.4736C85.5064 54.4736 83.3154 56.1582 82.6721 58.5714L76.8095 80.6367C76.3651 82.3058 76.7165 84.0447 77.7681 85.4141C78.8197 86.7809 80.4139 87.5663 82.1398 87.5663H113.628C116.124 87.5663 118.315 85.8817 118.958 83.4685L124.821 61.4032C125.265 59.7341 124.914 57.9927 123.862 56.6258C122.811 55.259 121.217 54.4736 119.491 54.4736H88.0024Z" fill="white"/>
<path d="M48.9851 80.9364L42.7737 58.4758C42.1045 55.9592 39.8256 54.148 37.2212 54.148H22.7625C20.7756 54.148 19.0342 52.8096 18.5252 50.8899L15.5952 39.8702C14.9725 37.5215 12.9468 35.8266 10.5646 35.6147H9.32699C3.16214 35.5114 -0.287169 40.56 0.495709 45.8541L4.53929 61.1216C4.56254 61.2352 4.58838 61.3515 4.61938 61.4652L10.0892 81.9699C11.0374 85.3675 14.7865 88.1812 17.8818 88.1812H43.4326C47.2048 88.1812 49.954 84.5846 48.9851 80.939V80.9364Z" fill="#14B8A6"/>
<path d="M43.4326 88.4112H17.8844C14.5643 88.4112 10.8179 85.4295 9.86703 82.0319L4.39722 61.5246C4.36621 61.4058 4.33779 61.2869 4.31454 61.1681L0.273544 45.9136C0.273544 45.9136 0.268376 45.8981 0.268376 45.8877C-0.150192 43.0482 0.612016 40.2784 2.3638 38.2838C4.04583 36.3666 6.52365 35.3409 9.33219 35.3848H10.5672C13.0735 35.6044 15.1766 37.3846 15.8226 39.8108L18.7526 50.8305C19.2357 52.6468 20.8867 53.9181 22.7677 53.9181H37.2264C39.9239 53.9181 42.2983 55.768 43.0011 58.419L49.2125 80.8796C49.693 82.6934 49.3132 84.5872 48.1686 86.0781C47.0266 87.5611 45.3032 88.4138 43.4378 88.4138L43.4326 88.4112ZM0.723118 45.8077L4.76411 61.0621C4.78995 61.1862 4.81579 61.2947 4.84421 61.4058L10.314 81.9105C11.1977 85.0704 14.8046 87.9487 17.8844 87.9487H43.4352C45.156 87.9487 46.7476 87.1632 47.7991 85.7939C48.8559 84.4193 49.2073 82.6701 48.7655 80.9984L42.5541 58.5378C41.903 56.0884 39.712 54.378 37.2238 54.378H22.7651C20.6749 54.378 18.8404 52.9672 18.303 50.9467L15.373 39.927C14.7787 37.6869 12.8383 36.0462 10.544 35.8421H9.32702C6.65025 35.7982 4.30162 36.7723 2.71003 38.5861C1.05125 40.4748 0.327803 43.105 0.723118 45.8051V45.8077Z" fill="white"/>
<path d="M119.599 54.3108H114.806C112.202 54.3108 109.923 56.1272 109.254 58.6438L103.195 81.5565H49.1351L43.0477 58.6438C42.3786 56.1272 40.0997 54.3108 37.4953 54.3108H32.7024C28.9301 54.3108 26.181 57.8635 27.1499 61.5091L33.0124 83.5667C33.6816 86.0832 35.9605 87.8299 38.5649 87.8299H113.737C116.548 87.6335 118.62 86.0729 119.289 83.5563L125.152 61.5117C126.121 57.866 123.372 54.3108 119.599 54.3108Z" fill="#14B8A6"/>
<path d="M38.5648 88.0623C35.857 88.0623 33.4825 86.2382 32.7901 83.6286L26.9276 61.5711C26.4496 59.7676 26.8242 57.8892 27.9585 56.4139C29.0979 54.9334 30.8264 54.0834 32.7023 54.0834H37.4951C40.19 54.0834 42.567 55.9359 43.2698 58.5894L49.3106 81.3291H103.014L109.029 58.5894C109.734 55.9359 112.109 54.0834 114.804 54.0834H119.597C121.472 54.0834 123.201 54.9334 124.34 56.4139C125.475 57.8892 125.852 59.7702 125.371 61.5737L119.509 83.6183C118.824 86.1969 116.669 87.8582 113.75 88.0623H38.5648ZM32.7023 54.5433C30.9711 54.5433 29.3744 55.3262 28.3228 56.693C27.2764 58.052 26.9301 59.7857 27.372 61.4497L33.2345 83.5072C33.8753 85.9152 36.0663 87.5973 38.5648 87.5973H113.737C116.475 87.4061 118.424 85.9101 119.067 83.4943L124.929 61.4497C125.371 59.7857 125.025 58.052 123.979 56.6904C122.927 55.3236 121.333 54.5381 119.602 54.5381H114.809C112.323 54.5381 110.13 56.2486 109.479 58.7005L103.42 81.6133C103.394 81.7141 103.301 81.7864 103.197 81.7864H49.1349C49.029 81.7864 48.9386 81.7166 48.9127 81.6159L42.8254 58.7031C42.1743 56.2511 39.9833 54.5407 37.4951 54.5407H32.7023V54.5433Z" fill="white"/>
<path d="M103.376 70.9037H49.2048C47.11 70.9037 45.4119 72.6018 45.4119 74.6966V77.7687C45.4119 79.8635 47.11 81.5617 49.2048 81.5617H103.376C105.471 81.5617 107.169 79.8635 107.169 77.7687V74.6966C107.169 72.6018 105.471 70.9037 103.376 70.9037Z" fill="#14B8A6"/>
<path d="M103.376 81.7916H49.2074C46.9879 81.7916 45.1819 79.9856 45.1819 77.7661V74.6966C45.1819 72.4772 46.9879 70.6711 49.2074 70.6711H103.378C105.598 70.6711 107.404 72.4772 107.404 74.6966V77.7661C107.404 79.9856 105.598 81.7916 103.378 81.7916H103.376ZM49.2048 71.1336C47.2411 71.1336 45.6418 72.733 45.6418 74.6966V77.7661C45.6418 79.7298 47.2411 81.3291 49.2048 81.3291H103.376C105.339 81.3291 106.939 79.7298 106.939 77.7661V74.6966C106.939 72.733 105.339 71.1336 103.376 71.1336H49.2074H49.2048Z" fill="white"/>
<path d="M72.4094 47.9186L89.8601 46.8179C90.8807 46.7688 91.7747 47.4923 91.9426 48.4999L95.2937 68.7307C95.4979 69.9658 94.5393 71.0845 93.2862 71.0716L75.0733 70.821C74.0759 70.8107 73.2362 70.0717 73.1019 69.0821L70.5129 50.2026C70.3528 49.0322 71.2286 47.9754 72.4094 47.9186Z" fill="#14B8A6"/>
<path d="M93.3069 71.299C93.3069 71.299 93.2914 71.299 93.2836 71.299L75.0707 71.0484C73.9674 71.0355 73.0218 70.2035 72.8719 69.1106L70.283 50.2311C70.1977 49.6084 70.3786 48.9753 70.7791 48.4922C71.1796 48.009 71.7687 47.7145 72.3965 47.6835L89.8472 46.5828C90.9815 46.5285 91.9814 47.3321 92.17 48.456L95.5211 68.6868C95.6297 69.3431 95.4436 70.0071 95.0121 70.5135C94.5858 71.0122 93.9657 71.2964 93.3094 71.2964L93.3069 71.299ZM72.4198 48.1485C71.9159 48.1744 71.4586 48.4018 71.1356 48.7893C70.8127 49.1795 70.6732 49.6678 70.7403 50.169L73.3293 69.0485C73.4481 69.9167 74.2 70.5781 75.0759 70.5885L93.2888 70.8391C93.2888 70.8391 93.3017 70.8391 93.3069 70.8391C93.8288 70.8391 94.3197 70.6143 94.6582 70.2164C95.0018 69.8159 95.1491 69.2863 95.0638 68.7669L91.7127 48.5361C91.5654 47.6447 90.7748 47.0065 89.8679 47.0479L72.4172 48.1485H72.4198Z" fill="white"/>
<path d="M76.0188 68.1002C75.9025 68.1002 75.8043 68.015 75.7888 67.8961L73.7554 50.5669C73.7399 50.4403 73.8303 50.3266 73.9569 50.3111C74.081 50.293 74.1972 50.386 74.2127 50.5126L76.2461 67.8419C76.2616 67.9685 76.1712 68.0822 76.0446 68.0977C76.0343 68.0977 76.0265 68.0977 76.0162 68.0977L76.0188 68.1002Z" fill="white"/>
<path d="M47.5176 71.5108C47.3909 71.5108 47.2876 71.4074 47.2876 71.2808C47.2876 71.1542 47.3909 71.0483 47.5176 71.0483L75.7813 70.9294C75.9079 70.9294 76.0112 71.0328 76.0112 71.1594C76.0112 71.286 75.9079 71.3919 75.7813 71.3919L47.5176 71.5108Z" fill="white"/>
<path d="M112.067 96.4337C112.14 96.6301 119.839 104.433 119.839 104.433L115.106 106.601L108.876 99.8055L112.067 96.4312V96.4337Z" fill="#14B8A6"/>
<path d="M115.106 106.833C115.041 106.833 114.979 106.807 114.935 106.758L108.706 99.9631C108.623 99.8727 108.626 99.7357 108.706 99.6479L111.897 96.2735C111.951 96.2167 112.034 96.1908 112.111 96.2063C112.176 96.2193 112.233 96.2606 112.266 96.3174C112.522 96.6585 117.023 101.25 120.002 104.27C120.054 104.325 120.079 104.399 120.064 104.474C120.051 104.549 120.002 104.611 119.932 104.642L115.199 106.81C115.168 106.823 115.134 106.831 115.103 106.831L115.106 106.833ZM109.191 99.8107L115.163 106.322L119.444 104.361C114.121 98.9658 112.54 97.3044 112.062 96.7748L109.191 99.8081V99.8107Z" fill="white"/>
<path d="M114.842 103.268C115.005 102.847 115.302 102.361 115.842 102.033C116.653 101.537 117.697 101.635 118.459 102.203C120.366 103.622 125.547 107.647 128.57 111.608C129.639 113.009 129.161 114.89 126.802 114.89C122.935 114.89 116.749 113.404 111.532 109.043C110.933 108.541 110.623 107.771 110.726 106.999C110.809 106.366 110.959 105.575 111.225 104.821C111.478 104.102 112.225 103.681 112.977 103.816L113.651 103.937C114.158 104.027 114.656 103.748 114.842 103.268Z" fill="#14B8A6"/>
<path d="M126.8 115.119C122.759 115.119 116.589 113.569 111.385 109.218C110.716 108.66 110.385 107.818 110.499 106.965C110.607 106.138 110.778 105.389 111.008 104.741C111.3 103.914 112.145 103.428 113.018 103.586L113.692 103.707C114.088 103.779 114.48 103.557 114.628 103.18C114.855 102.596 115.235 102.128 115.723 101.831C116.589 101.304 117.744 101.376 118.599 102.012C120.65 103.539 125.746 107.518 128.756 111.463C129.36 112.257 129.513 113.207 129.148 113.944C128.774 114.701 127.942 115.117 126.805 115.117H126.802L126.8 115.119ZM112.687 104.02C112.132 104.02 111.631 104.361 111.439 104.896C111.222 105.513 111.057 106.229 110.954 107.025C110.863 107.717 111.134 108.404 111.68 108.862C116.788 113.133 122.839 114.654 126.8 114.654H126.802C127.753 114.654 128.438 114.329 128.73 113.74C129.014 113.164 128.882 112.399 128.384 111.745C125.407 107.846 120.353 103.901 118.317 102.384C117.612 101.86 116.664 101.795 115.958 102.227C115.55 102.475 115.248 102.852 115.054 103.348C114.827 103.929 114.217 104.273 113.605 104.162L112.93 104.04C112.847 104.025 112.765 104.017 112.685 104.017L112.687 104.02Z" fill="white"/>
<path d="M125.456 113.28C123.154 113.28 119.033 112.373 112.553 107.993C112.447 107.921 112.419 107.779 112.491 107.673C112.563 107.567 112.705 107.539 112.811 107.611C123.356 114.734 127.526 112.453 127.567 112.43C127.676 112.365 127.818 112.401 127.882 112.512C127.947 112.621 127.911 112.763 127.802 112.828C127.733 112.869 127.004 113.28 125.456 113.28Z" fill="white"/>
<path d="M121.475 109.154C121.423 109.154 121.371 109.135 121.327 109.099C121.229 109.017 121.216 108.872 121.296 108.774L123.139 106.554C123.221 106.456 123.366 106.443 123.464 106.523C123.562 106.606 123.575 106.751 123.495 106.849L121.653 109.068C121.606 109.123 121.542 109.151 121.475 109.151V109.154Z" fill="white"/>
<path d="M119.664 107.823C119.609 107.823 119.555 107.805 119.511 107.764C119.416 107.678 119.408 107.534 119.493 107.438L121.532 105.149C121.617 105.053 121.762 105.045 121.857 105.131C121.953 105.216 121.961 105.361 121.875 105.456L119.837 107.745C119.79 107.797 119.728 107.823 119.664 107.823Z" fill="white"/>
<path d="M97.1742 101.64L95.4793 111.543L91.6656 108.955L92.8464 99.4592L97.1742 101.64Z" fill="#14B8A6"/>
<path d="M95.4794 111.776C95.4329 111.776 95.3889 111.763 95.3502 111.737L91.5366 109.148C91.4642 109.099 91.4255 109.014 91.4384 108.929L92.6192 99.4334C92.6295 99.3585 92.6734 99.2939 92.7406 99.2577C92.8078 99.2215 92.8853 99.2215 92.9525 99.2577L97.2802 101.438C97.3707 101.485 97.4224 101.583 97.4043 101.684L95.7093 111.587C95.6964 111.665 95.6447 111.73 95.5724 111.761C95.544 111.773 95.513 111.779 95.482 111.779L95.4794 111.776ZM91.9112 108.843L95.3114 111.151L96.9185 101.769L93.0351 99.8132L91.9112 108.843Z" fill="white"/>
<path d="M96.6447 109.701C96.5853 112.758 96.3812 118.907 94.3142 123.375C93.7587 124.573 91.3429 124.617 90.3817 123.077C88.3767 119.866 85.7387 114.368 86.7412 107.503C86.8187 106.965 87.1494 106.497 87.6274 106.244C88.1881 105.947 89.0821 105.562 90.3662 105.255C91.0044 105.102 91.6426 105.521 91.7563 106.169L92.1748 108.546L92.459 108.133C92.8854 107.51 93.6812 107.26 94.3865 107.526C94.7663 107.668 95.1875 107.825 95.5673 107.97C96.2778 108.236 96.6551 108.944 96.6421 109.704L96.6447 109.701Z" fill="#14B8A6"/>
<path d="M92.6088 124.486C91.6192 124.486 90.6839 123.995 90.1878 123.199C86.9762 118.057 85.7412 112.766 86.5137 107.469C86.6016 106.862 86.9788 106.327 87.5214 106.04C88.0562 105.756 88.976 105.35 90.3144 105.03C90.6865 104.942 91.0663 105.009 91.3867 105.218C91.7019 105.425 91.9215 105.758 91.9861 106.13L92.3065 107.952C92.8026 107.278 93.6811 107.014 94.4691 107.311L95.6499 107.756C96.4095 108.042 96.8901 108.81 96.872 109.709C96.8255 112.187 96.6989 118.768 94.5208 123.473C94.2521 124.054 93.6061 124.431 92.7922 124.48C92.7302 124.483 92.6682 124.486 92.6062 124.486H92.6088ZM90.6348 105.454C90.565 105.454 90.4927 105.461 90.4204 105.479C89.1285 105.789 88.2474 106.177 87.7358 106.448C87.3224 106.668 87.0356 107.074 86.9685 107.536C86.2114 112.722 87.4258 117.907 90.5754 122.956C91.1076 123.809 92.0895 124.062 92.7638 124.02C93.4072 123.979 93.9058 123.703 94.1022 123.279C96.239 118.659 96.363 112.151 96.4095 109.699C96.4224 108.986 96.0684 108.404 95.4845 108.185L94.3037 107.74C93.6966 107.51 93.0144 107.727 92.6476 108.262L92.3633 108.675C92.3091 108.753 92.2161 108.789 92.1231 108.771C92.0326 108.75 91.9603 108.678 91.9448 108.585L91.5262 106.208C91.4823 105.957 91.3402 105.743 91.1283 105.603C90.9784 105.505 90.8053 105.454 90.6296 105.454H90.6348Z" fill="white"/>
<path d="M92.2471 122.597C92.1748 122.597 92.105 122.563 92.0585 122.501C87.4543 116.07 88.0175 108.097 88.0227 108.017C88.033 107.89 88.1441 107.797 88.2707 107.805C88.3973 107.815 88.4929 107.926 88.4826 108.053C88.4774 108.13 87.9297 115.941 92.4332 122.232C92.5081 122.336 92.4848 122.481 92.3789 122.555C92.3376 122.584 92.2911 122.599 92.2445 122.599L92.2471 122.597Z" fill="white"/>
<path d="M96.1228 114.145C96.1047 114.145 96.0892 114.145 96.0711 114.14L93.1773 113.474C93.0533 113.445 92.9757 113.321 93.0042 113.197C93.0326 113.073 93.1566 112.996 93.2806 113.024L96.1744 113.691C96.2985 113.719 96.376 113.843 96.3475 113.967C96.3217 114.073 96.2287 114.145 96.1228 114.145Z" fill="white"/>
<path d="M95.7094 116.654C95.6862 116.654 95.6629 116.652 95.6396 116.644L92.8957 115.778C92.7743 115.739 92.7071 115.61 92.7458 115.489C92.7846 115.367 92.9138 115.3 93.0352 115.339L95.7792 116.205C95.9006 116.243 95.9678 116.372 95.929 116.494C95.898 116.592 95.8076 116.657 95.7094 116.657V116.654Z" fill="white"/>
<path d="M69.908 58.2974C69.908 58.2974 83.4546 55.9333 96.1202 62.217C99.3111 63.8008 101.391 66.9918 101.564 70.5522C101.91 77.6162 101.864 90.5685 98.1458 102.012C97.934 102.663 97.2208 103.004 96.5801 102.761L90.9165 100.614C90.5367 100.469 90.255 100.144 90.1698 99.746C89.622 97.1804 87.7126 87.406 88.7022 80.1896C89.8494 71.8131 62.6605 64.4778 62.6605 64.4778L69.9105 58.2974H69.908Z" fill="white"/>
<path d="M113.651 98.077L108.899 101.583C108.582 101.818 108.142 101.787 107.861 101.511C104.649 98.3508 86.5138 80.6108 82.0878 78.4017C77.2278 75.9729 68.2001 72.4099 60.2008 72.8931C52.2041 73.3762 50.2146 67.9116 50.2146 67.9116L61.2214 59.92C61.2214 59.92 81.0827 61.0827 89.7952 67.4129C97.6601 73.1308 111.274 93.1523 113.845 96.9866C114.085 97.3432 114 97.8237 113.654 98.0795L113.651 98.077Z" fill="white"/>
<path d="M101.991 80.28C101.923 80.28 101.856 80.2516 101.81 80.1947C98.226 75.7403 92.6993 69.808 89.6582 67.5963C86.3588 65.1986 81.0853 63.266 73.9826 61.8526C73.8586 61.8268 73.7759 61.7054 73.8017 61.5814C73.8276 61.4573 73.949 61.3746 74.073 61.4005C81.2404 62.8267 86.5758 64.7878 89.9295 67.2243C93.0042 69.4592 98.567 75.4277 102.171 79.9053C102.251 80.0061 102.236 80.1508 102.135 80.2309C102.091 80.2645 102.042 80.2826 101.991 80.2826V80.28Z" fill="#14B8A6"/>
<path d="M57.452 45.5647C57.452 45.5647 62.4852 60.3954 68.0222 61.9534C73.5592 63.5114 77.4167 58.8038 77.3935 53.9412L75.5099 53.3185C75.5099 53.3185 73.5772 58.3 69.2701 57.0029C64.9604 55.7059 60.8342 42.304 60.8342 42.304L57.452 45.5647Z" fill="#14B8A6"/>
<path d="M70.1512 62.4909C69.482 62.4909 68.7508 62.3979 67.9602 62.1757C62.3689 60.6022 57.4417 46.2494 57.2324 45.6396C57.204 45.5544 57.2272 45.4614 57.2918 45.3994L60.674 42.1386C60.7308 42.0818 60.8135 42.0611 60.891 42.0818C60.9685 42.1025 61.0305 42.1619 61.0538 42.2368C61.0951 42.3686 65.193 55.538 69.3347 56.7834C73.386 58.0029 75.2179 53.4297 75.2929 53.2359C75.3368 53.1222 75.4634 53.0628 75.5797 53.1015L77.4632 53.7242C77.5562 53.7552 77.6208 53.8431 77.6208 53.9412C77.6363 56.773 76.3625 59.5092 74.2981 61.0802C73.3731 61.7829 71.9857 62.4909 70.146 62.4909H70.1512ZM57.7207 45.6293C58.2478 47.1305 63.0097 60.3025 68.0868 61.7313C70.8617 62.5116 72.8486 61.6098 74.0242 60.7133C75.9336 59.2586 77.1273 56.7395 77.1635 54.1092L75.6391 53.6054C75.205 54.5484 73.1535 58.4137 69.2055 57.2278C65.1775 56.016 61.4336 44.9239 60.7282 42.7329L57.7207 45.6319V45.6293Z" fill="white"/>
<path d="M54.0778 71.144C54.0778 71.144 49.3546 74.2419 46.9621 73.0818C44.5695 71.9217 49.1092 68.0125 50.3701 67.9401C51.6309 67.8652 54.0778 71.144 54.0778 71.144Z" fill="white"/>
<path d="M58.4752 20.7581C60.5112 20.6237 62.6815 22.5512 62.2371 25.5432C61.8754 27.9874 59.2581 28.5455 57.9765 29.7728C53.8348 33.7415 57.1885 38.6118 53.8839 42.6296C50.7368 46.4561 46.6002 43.3711 40.4638 47.5852C35.6322 50.9028 52.6385 46.5543 46.5486 49.983C41.6885 52.7192 33.0045 51.8381 28.4907 45.8464C24.1991 40.1492 23.7004 32.0233 28.7697 28.4835C33.3275 25.3003 36.0766 29.592 40.9031 26.6465C45.6623 23.7423 44.6418 20.5204 47.5666 19.3758C51.5662 17.8074 52.7031 21.1431 58.47 20.7607L58.4752 20.7581Z" fill="white"/>
<path d="M32.485 49.0864C32.8493 47.5929 33.3505 45.8437 33.8156 44.7017C35.247 41.1827 36.2159 38.8934 40.3887 37.0383C41.014 36.7618 41.6651 36.5448 42.3265 36.3769L44.8147 35.7413C44.8147 35.7413 55.0489 33.5916 58.7876 37.7566C59.0899 38.0951 59.4775 38.4775 59.71 38.9115L62.0432 43.0455L62.0173 43.0533C59.6248 43.8388 58.4517 46.5465 59.5395 48.8202C60.79 51.4324 62.5522 54.5045 64.4254 55.8636C65.0171 56.2925 69.8616 58.7031 69.8616 58.7031C69.8616 58.7031 70.8202 62.5271 62.9087 65.178C54.9973 67.8289 49.3156 68.5886 47.4217 72.428C46.3003 74.7017 43.2205 63.1988 41.4713 52.5021C41.1354 50.4428 39.3397 48.9468 37.2546 48.9908L32.485 49.0915V49.0864Z" fill="#14B8A6"/>
<path d="M47.0937 72.9474C47.0679 72.9474 47.042 72.9474 47.0188 72.9422C45.3135 72.6864 42.567 60.6151 41.2467 52.5383C40.934 50.6315 39.2649 49.2182 37.3452 49.2182C37.3168 49.2182 37.2909 49.2182 37.2625 49.2182L32.4929 49.3189C32.4231 49.3189 32.3534 49.2879 32.3069 49.2337C32.2629 49.1768 32.2448 49.1045 32.2629 49.0347C32.6918 47.2778 33.1957 45.6267 33.6039 44.6165C34.9914 41.2059 35.9913 38.7436 40.2984 36.8291C40.9056 36.5603 41.5515 36.3381 42.2724 36.1547L44.7606 35.5191C45.1946 35.4287 55.1783 33.3901 58.9609 37.6042C59.0126 37.661 59.0642 37.7179 59.1185 37.7773C59.395 38.077 59.7076 38.4181 59.9143 38.803L62.2474 42.9319C62.281 42.9913 62.2862 43.0637 62.2629 43.1283C62.2371 43.1928 62.1854 43.2419 62.1208 43.2652L62.095 43.2729C61.0124 43.6269 60.1339 44.433 59.6869 45.4795C59.2425 46.5207 59.2658 47.7015 59.7541 48.7195C60.9142 51.1405 62.6892 54.3133 64.5676 55.6776C65.0224 56.0083 68.3012 57.667 69.9729 58.4964C70.0323 58.5274 70.0788 58.5817 70.0943 58.6463C70.1356 58.8116 71.0115 62.7079 62.989 65.3951C61.2088 65.9919 59.5061 66.5035 58.0049 66.9531C52.8115 68.5136 49.0599 69.6402 47.6337 72.5288C47.4683 72.8647 47.2616 72.9474 47.0963 72.9474H47.0937ZM37.3426 48.7557C39.4897 48.7557 41.3526 50.3343 41.7014 52.4634C43.4842 63.3746 46.1041 72.3402 47.0859 72.4849C47.1092 72.4952 47.1583 72.441 47.2151 72.3247C48.7292 69.2578 52.5635 68.1054 57.868 66.5112C59.3665 66.0617 61.0641 65.5501 62.8365 64.9558C69.7145 62.6511 69.7196 59.4524 69.655 58.853C68.9213 58.4861 64.8493 56.4527 64.2912 56.047C62.3353 54.6285 60.5163 51.3859 59.3329 48.9159C58.7878 47.779 58.7619 46.4587 59.258 45.296C59.7257 44.2031 60.6093 43.3479 61.7074 42.9164L59.5086 39.0227C59.3252 38.6842 59.0332 38.3664 58.7774 38.0848C58.7206 38.0253 58.6663 37.9659 58.6147 37.9065C55.0077 33.8913 44.9621 35.9428 44.8613 35.9635L42.3835 36.5991C41.6859 36.7774 41.0658 36.9892 40.4819 37.2502C36.3453 39.0873 35.4255 41.3558 34.0276 44.7896C33.6478 45.7223 33.1879 47.2261 32.7797 48.8513L37.247 48.7583C37.278 48.7583 37.309 48.7583 37.34 48.7583L37.3426 48.7557Z" fill="white"/>
<path d="M72.8928 64.1006H58.8604C58.6046 64.1006 58.4419 63.8267 58.5659 63.602L67.901 46.7249C67.9604 46.6189 68.0741 46.5518 68.1955 46.5518H82.2279C82.4837 46.5518 82.6465 46.8256 82.5225 47.0504L73.1873 63.9275C73.1279 64.0334 73.0142 64.1006 72.8928 64.1006Z" fill="#14B8A6"/>
<path d="M72.8926 64.3331H58.8602C58.6561 64.3331 58.4752 64.2298 58.3719 64.0541C58.2685 63.8784 58.2659 63.6691 58.3641 63.4908L67.6992 46.6137C67.8 46.4329 67.9886 46.3218 68.1953 46.3218H82.2277C82.4318 46.3218 82.6127 46.4251 82.716 46.6008C82.8194 46.7765 82.8219 46.9858 82.7238 47.1641L73.3886 64.0412C73.2879 64.222 73.0993 64.3331 72.8926 64.3331ZM68.1953 46.7843C68.1565 46.7843 68.1204 46.8049 68.1023 46.8385L58.7672 63.7156C58.7413 63.7621 58.7568 63.8009 58.7672 63.819C58.7775 63.8396 58.8059 63.8706 58.8576 63.8706H72.89C72.9287 63.8706 72.9649 63.85 72.983 63.8164L82.3181 46.9393C82.3439 46.8928 82.3284 46.854 82.3181 46.8359C82.3078 46.8153 82.2794 46.7843 82.2277 46.7843H68.1953Z" fill="white"/>
<path d="M75.848 59.1993C75.848 59.1993 75.569 57.7446 75.848 56.7732C76.1271 55.8017 77.8504 52.9156 78.3439 52.311C78.8374 51.7064 79.2534 58.1581 75.848 59.1993Z" fill="#14B8A6"/>
<path d="M75.8483 59.4318C75.807 59.4318 75.7656 59.4215 75.7295 59.3982C75.6726 59.3646 75.6339 59.3078 75.6209 59.2432C75.608 59.1812 75.3367 57.7214 75.6261 56.7111C75.9077 55.7293 77.6414 52.8071 78.1659 52.1663C78.2745 52.0345 78.414 52.0242 78.5096 52.0604C78.8946 52.205 78.9204 53.3083 78.8997 53.9543C78.8325 56.1763 78.0135 58.7807 75.9155 59.4215C75.8922 59.4292 75.8716 59.4318 75.8483 59.4318ZM78.3649 52.6675C77.7396 53.5538 76.3082 56.0006 76.0705 56.8377C75.8793 57.5043 75.9697 58.4345 76.0318 58.8892C77.1324 58.4293 77.7112 57.3261 78.0057 56.4476C78.5199 54.9283 78.4941 53.2747 78.3649 52.6675Z" fill="white"/>
<path d="M61.749 60.6772L58.1033 59.3518C57.5607 59.1554 56.9561 59.2536 56.5065 59.6153L54.7832 60.995C54.455 61.2586 54.0365 61.3852 53.6179 61.349C51.786 61.1991 43.4741 58.6335 42.6498 57.1633C42.2416 56.4373 41.7223 53.962 41.3425 51.9157C41.0247 50.2001 39.5106 48.9702 37.7665 49.0064L34.0098 49.0891C34.0098 49.0891 34.9683 58.1503 37.9913 61.0906C40.34 63.3747 45.9312 64.5864 54.0726 64.2247C54.0726 64.2247 55.7753 64.0594 57.23 62.3799C58.1575 61.3077 60.3667 61.9019 61.6895 61.6022C62.1598 61.4963 62.1985 60.8426 61.7464 60.6772H61.749Z" fill="#14B8A6"/>
<path d="M51.313 64.5166C44.7529 64.5166 40.022 63.3824 37.8336 61.2534C34.7847 58.2872 33.821 49.4844 33.7822 49.1097C33.7745 49.0451 33.7952 48.9805 33.8391 48.9314C33.883 48.8823 33.9424 48.8539 34.007 48.8539L37.7638 48.7712C37.7922 48.7712 37.8207 48.7712 37.8491 48.7712C39.6784 48.7712 41.2364 50.0631 41.5723 51.8692C42.089 54.657 42.5463 56.4967 42.8538 57.047C43.6315 58.4319 51.8272 60.9666 53.6384 61.1138C54.0027 61.1448 54.3567 61.0363 54.6409 60.809L56.3643 59.4292C56.8733 59.021 57.5709 58.9073 58.1858 59.1295L61.8315 60.4576C62.1364 60.5687 62.3198 60.8477 62.2992 61.1733C62.2785 61.4962 62.0614 61.752 61.7462 61.8244C61.2579 61.9355 60.6843 61.9329 60.0771 61.9277C59.0307 61.92 57.9455 61.9122 57.4133 62.5297C55.9173 64.2583 54.1784 64.4469 54.1035 64.4521C53.1423 64.496 52.2122 64.5166 51.3156 64.5166H51.313ZM34.2706 49.3112C34.4514 50.784 35.503 58.3415 38.154 60.9226C40.5129 63.217 46.3135 64.3358 54.0647 63.9921C54.0673 63.9921 55.6873 63.8113 57.0567 62.2274C57.7311 61.4497 58.9196 61.4575 60.0745 61.4652C60.6559 61.4704 61.2036 61.473 61.6377 61.3748C61.8082 61.336 61.8289 61.1888 61.8341 61.1448C61.8367 61.1009 61.8341 60.9536 61.6687 60.8916L58.023 59.5636C57.5605 59.3956 57.0335 59.4809 56.6485 59.7884L54.9251 61.1681C54.5505 61.4678 54.0776 61.6125 53.5971 61.5738C51.8091 61.4265 43.3499 58.8815 42.4456 57.2718C42.1019 56.662 41.6549 54.8715 41.1124 51.9518C40.8126 50.3396 39.4122 49.1924 37.769 49.2311L34.2654 49.3087L34.2706 49.3112Z" fill="white"/>
<path d="M46.05 35.576C46.05 35.576 49.0161 29.1372 49.1944 28.3311C49.1944 28.3311 48.5769 27.8944 48.75 26.8764C49.0755 24.9412 50.879 26.1582 50.879 26.1582L51.0624 26.2279C52.1321 26.6413 53.3 26.7343 54.4239 26.5018L56.7829 26.0109C56.7829 26.0109 57.1472 26.9023 56.385 28.4293C56.0232 29.1579 55.9561 30.0493 55.9742 30.995C55.9793 31.243 55.7804 31.4497 55.5298 31.4549L54.9148 31.4678C54.504 32.1576 54.1655 32.553 53.5816 32.9534C53.4214 33.062 53.225 33.1085 53.0364 33.0723C52.778 33.0258 52.3853 32.9173 51.959 32.6692L51.2459 35.4726L52.747 35.6328C52.747 35.6328 53.0519 37.4879 50.047 38.4078C48.3882 38.9142 46.1921 38.4775 44.5565 37.9866C43.7168 37.7334 43.6548 36.5733 44.4635 36.2348L46.0474 35.5734L46.05 35.576Z" fill="#14B8A6"/>
<path d="M48.3572 38.8702C47.0163 38.8702 45.5952 38.5472 44.4919 38.2139C44.0139 38.0692 43.6884 37.6558 43.6625 37.1572C43.6367 36.6611 43.9157 36.2193 44.3757 36.0255L45.8768 35.3976C46.683 33.6458 48.6208 29.3723 48.9334 28.406C48.7319 28.1967 48.3779 27.6955 48.5226 26.8402C48.6259 26.2201 48.8869 25.8197 49.2925 25.644C49.9824 25.3494 50.8299 25.8558 50.9849 25.954L51.1451 26.016C52.176 26.4139 53.2948 26.5043 54.3774 26.2796L56.7363 25.7886C56.8449 25.768 56.956 25.8248 56.9973 25.9282C57.0128 25.9695 57.39 26.9333 56.5942 28.5352C56.2273 29.2716 56.1938 30.1914 56.2067 30.9923C56.2144 31.367 55.9121 31.6796 55.5375 31.6874L55.0492 31.6977C54.6332 32.3746 54.2766 32.7622 53.7159 33.1446C53.5041 33.2893 53.2431 33.3461 52.9977 33.3022C52.778 33.2609 52.4654 33.1782 52.114 33.0128L51.5378 35.2736L52.7754 35.4054C52.8788 35.4157 52.9615 35.4958 52.9796 35.5966C52.9925 35.6793 53.2819 37.6636 50.1193 38.6299C49.5742 38.7979 48.9747 38.865 48.3598 38.865L48.3572 38.8702ZM49.7654 26.016C49.662 26.016 49.5638 26.0315 49.4734 26.0703C49.2202 26.1788 49.0548 26.4656 48.9773 26.9177C48.8326 27.7807 49.3236 28.1399 49.3287 28.145C49.4036 28.1993 49.4398 28.2923 49.4217 28.3827C49.2409 29.2044 46.3832 35.4106 46.2618 35.6741C46.2385 35.7258 46.1946 35.7671 46.1404 35.7904L44.5565 36.4518C44.2206 36.5913 44.1147 36.8962 44.1276 37.1313C44.1405 37.369 44.2775 37.6636 44.6289 37.7695C46.1765 38.2372 48.3624 38.6868 49.985 38.1933C52.2432 37.5008 52.5119 36.2968 52.53 35.8472L51.2252 35.7077C51.158 35.6999 51.0986 35.6638 51.0598 35.6095C51.0211 35.5552 51.0082 35.4855 51.0262 35.4209L51.7394 32.6175C51.7574 32.5478 51.8065 32.4883 51.8737 32.4625C51.9409 32.4341 52.0158 32.4392 52.0804 32.4754C52.4783 32.7079 52.8452 32.8087 53.0829 32.8526C53.2095 32.8759 53.3465 32.8449 53.4576 32.77C53.9924 32.4031 54.3102 32.0465 54.721 31.3566C54.7624 31.2895 54.8347 31.2455 54.9148 31.243L55.5297 31.23C55.6512 31.23 55.7494 31.1267 55.7468 31.0052C55.7313 30.1474 55.7726 29.1579 56.1834 28.3336C56.6898 27.3182 56.6666 26.6077 56.6175 26.2899L54.4756 26.7343C53.3077 26.9772 52.0985 26.879 50.9849 26.4501L50.8015 26.3777C50.786 26.3726 50.7705 26.3648 50.7549 26.3545C50.5896 26.2434 50.1555 26.016 49.7705 26.016H49.7654Z" fill="white"/>
<path d="M51.9589 32.9043C51.915 32.9043 51.8737 32.8914 51.8349 32.8682L51.4473 32.6201C51.3388 32.5504 51.3078 32.4083 51.3776 32.3023C51.4473 32.1938 51.5894 32.1628 51.6954 32.2326L52.0829 32.4806C52.1915 32.5504 52.2225 32.6925 52.1527 32.7984C52.1088 32.8682 52.0339 32.9043 51.9589 32.9043Z" fill="white"/>
</svg>
