<svg width="122" height="125" viewBox="0 0 122 125" fill="none" xmlns="http://www.w3.org/2000/svg">
<path d="M98.0955 50.4499L96.0395 43.5183L77.3403 41.8418L76.1127 51.1989C76.1127 51.1989 95.2757 55.2463 98.0955 50.4499Z" fill="#EFF5F5"/>
<path d="M89.9509 52.9572C83.8104 52.9572 76.5663 51.4518 76.0802 51.3476C76.0033 51.3303 75.9513 51.2584 75.9612 51.179L77.1888 41.8219C77.1987 41.7401 77.2731 41.683 77.3525 41.6905L96.0517 43.367C96.1137 43.3719 96.1658 43.4166 96.1857 43.4761L98.2416 50.4077C98.254 50.4474 98.249 50.492 98.2267 50.5292C97.138 52.3793 93.7552 52.9572 89.9509 52.9572ZM76.2836 51.0773C78.0097 51.427 95.211 54.7824 97.9316 50.43L95.9228 43.6621L77.474 42.0079L76.2836 51.0773Z" fill="#0F172A"/>
<path d="M62.1599 24.8065L64.826 26.8103C64.5036 28.095 64.2903 29.3895 64.1911 30.6816L61.0365 31.7356C59.4741 32.2564 58.4846 33.7915 58.6483 35.4283C58.8144 37.0652 60.0916 38.3721 61.7259 38.5705L65.0368 38.9748C65.3988 40.2321 65.8626 41.4572 66.4256 42.6377L64.2134 45.1351C63.1222 46.3677 63.0304 48.193 63.9927 49.5272C64.9549 50.8639 66.7132 51.3525 68.2285 50.7102L71.2889 49.4082C72.2214 50.3084 73.2382 51.1367 74.3318 51.8832L73.6647 55.1519C73.3349 56.7639 74.1682 58.3908 75.6686 59.0653C77.169 59.7399 78.9397 59.286 79.9292 57.9716L81.9331 55.3056C83.2177 55.628 84.5123 55.8413 85.8044 55.9405L86.8584 59.0951C87.3792 60.6575 88.9143 61.647 90.5511 61.4833C92.1879 61.3172 93.4949 60.04 93.6933 58.4056L94.0975 55.0948C95.3549 54.7327 96.58 54.269 97.7605 53.706L100.258 55.9182C101.49 57.0094 103.316 57.1012 104.65 56.1389C105.987 55.1767 106.478 53.4183 105.833 51.9031L104.531 48.8427C105.431 47.9102 106.259 46.8934 107.006 45.7997L110.275 46.4669C111.887 46.7967 113.514 45.9634 114.188 44.463C114.863 42.9626 114.409 41.1919 113.094 40.2024L110.428 38.1985C110.751 36.9139 110.964 35.6193 111.063 34.3272L114.218 33.2732C115.78 32.7524 116.77 31.2173 116.606 29.5805C116.44 27.9437 115.163 26.6367 113.528 26.4383L110.218 26.0341C109.856 24.7767 109.392 23.5516 108.829 22.3711L111.041 19.8737C112.132 18.6412 112.224 16.8183 111.262 15.4816C110.299 14.1449 108.541 13.6539 107.026 14.2987L103.965 15.6007C103.033 14.7004 102.016 13.8721 100.923 13.1256L101.59 9.85696C101.919 8.24495 101.086 6.61806 99.5858 5.9435C98.0854 5.26894 96.3147 5.72278 95.3251 7.03718L93.3213 9.7032C92.0366 9.38079 90.7421 9.16751 89.45 9.06583L88.396 5.91126C87.8752 4.34885 86.3401 3.35933 84.7032 3.52301C83.0664 3.68917 81.7595 4.96637 81.5611 6.6007L81.1568 9.91152C79.8995 10.2736 78.6743 10.7374 77.4939 11.3003L74.9965 9.08815C73.7639 7.99695 71.9411 7.90519 70.6044 8.86743C69.2677 9.82967 68.7766 11.588 69.4214 13.1033L70.7234 16.1636C69.8232 17.0961 68.9949 18.1129 68.2484 19.2066L64.9797 18.5395C63.3677 18.2096 61.7408 19.0429 61.0663 20.5433C60.3917 22.0437 60.8455 23.8145 62.1599 24.804V24.8065ZM70.5845 24.8313C74.8204 15.4196 85.8862 11.2234 95.2978 15.4593C104.709 19.6952 108.906 30.761 104.67 40.1726C100.434 49.5842 89.3681 53.7804 79.9565 49.5446C70.5449 45.3087 66.3487 34.2429 70.5845 24.8313Z" fill="#EFF5F5"/>
<path d="M90.1939 61.657C88.6241 61.657 87.2278 60.6675 86.7194 59.1472L85.6977 56.0869C84.4725 55.9852 83.2301 55.7819 82 55.4793L80.0557 58.0635C79.0165 59.4448 77.1888 59.916 75.6115 59.2043C74.0342 58.495 73.1736 56.816 73.5183 55.1197L74.1631 51.9502C73.1215 51.231 72.1444 50.4374 71.2566 49.5868L68.288 50.8491C66.6958 51.5262 64.8805 51.0202 63.8686 49.6166C62.8568 48.2129 62.9535 46.3281 64.0993 45.0335L66.2445 42.6105C65.7113 41.4846 65.2673 40.3091 64.9177 39.1112L61.7061 38.7194C59.9899 38.5111 58.668 37.1619 58.4944 35.4408C58.3208 33.7197 59.3451 32.135 60.9844 31.5869L64.0447 30.5651C64.1464 29.34 64.3497 28.095 64.6523 26.8674L62.0681 24.9231C60.6868 23.884 60.2156 22.0562 60.9249 20.4789C61.6341 18.9016 63.3131 18.0411 65.0094 18.3858L68.1789 19.0306C68.8981 17.989 69.6917 17.0118 70.5448 16.124L69.2825 13.1554C68.6054 11.5633 69.1114 9.7479 70.5151 8.73605C71.9187 7.72421 73.8035 7.82093 75.0981 8.9667L77.5211 11.1119C78.647 10.5812 79.825 10.1348 81.0204 9.7851L81.4122 6.57348C81.6205 4.85732 82.9697 3.53547 84.6908 3.36187C86.4119 3.18827 87.9966 4.21251 88.5447 5.8518L89.5665 8.91213C90.7941 9.01382 92.0366 9.21718 93.2642 9.51974L95.2085 6.93557C96.2476 5.5542 98.0754 5.083 99.6527 5.79476C101.23 6.50404 102.091 8.18301 101.746 9.87934L101.101 13.0488C102.14 13.768 103.117 14.5616 104.008 15.4122L106.976 14.1499C108.568 13.4729 110.386 13.9788 111.396 15.3825C112.407 16.7862 112.311 18.671 111.165 19.9655L109.02 22.3885C109.553 23.5144 109.997 24.6924 110.346 25.8878L113.558 26.2797C115.274 26.488 116.596 27.8371 116.77 29.5582C116.943 31.2794 115.919 32.8641 114.28 33.4122L111.219 34.4339C111.118 35.6615 110.914 36.904 110.612 38.1316L113.196 40.0759C114.577 41.1151 115.049 42.9428 114.339 44.5201C113.63 46.0974 111.951 46.958 110.255 46.6133L107.085 45.9685C106.366 47.0101 105.57 47.9872 104.719 48.875L105.984 51.8436C106.661 53.4358 106.155 55.2511 104.752 56.263C103.348 57.2748 101.463 57.1806 100.169 56.0323L97.7456 53.8871C96.6196 54.4178 95.4441 54.8643 94.2463 55.2139L93.8544 58.4255C93.6461 60.1417 92.297 61.4636 90.5759 61.6372C90.4494 61.6496 90.3229 61.657 90.1964 61.657H90.1939ZM81.938 55.1544C81.938 55.1544 81.9628 55.1544 81.9752 55.1594C83.2524 55.4793 84.547 55.6926 85.8217 55.7918C85.8837 55.7967 85.9358 55.8364 85.9556 55.8959L87.0096 59.0505C87.513 60.5534 88.9639 61.4933 90.5436 61.3346C92.1209 61.1759 93.3584 59.9656 93.5494 58.3908L93.9536 55.08C93.9611 55.018 94.0032 54.9684 94.0628 54.9511C95.3102 54.5939 96.5328 54.1277 97.7034 53.5697C97.758 53.5424 97.8249 53.5523 97.8696 53.592L100.367 55.8042C101.555 56.8557 103.283 56.9425 104.568 56.015C105.855 55.0875 106.319 53.4209 105.699 51.9626L104.397 48.9023C104.372 48.8453 104.385 48.7808 104.427 48.7361C105.315 47.8185 106.143 46.7993 106.887 45.713C106.922 45.6634 106.984 45.6361 107.043 45.6485L110.312 46.3157C111.864 46.6331 113.404 45.8445 114.057 44.3986C114.709 42.9528 114.277 41.2763 113.01 40.3239L110.344 38.3201C110.294 38.2829 110.272 38.2209 110.287 38.1614C110.607 36.8842 110.82 35.5896 110.919 34.3149C110.924 34.2529 110.964 34.2008 111.024 34.181L114.178 33.127C115.683 32.6235 116.621 31.1702 116.462 29.5929C116.303 28.0157 115.093 26.7781 113.518 26.5872L110.208 26.1829C110.146 26.1755 110.096 26.1333 110.079 26.0738C109.722 24.8288 109.258 23.6037 108.697 22.4332C108.67 22.3786 108.68 22.3116 108.72 22.267L110.932 19.7696C111.983 18.5817 112.07 16.8556 111.143 15.5685C110.215 14.2814 108.548 13.8176 107.09 14.4376L104.03 15.7396C103.973 15.7644 103.908 15.752 103.864 15.7098C102.944 14.8195 101.927 13.9937 100.841 13.2497C100.791 13.215 100.764 13.153 100.776 13.0934L101.443 9.82478C101.761 8.26981 100.972 6.73221 99.5262 6.07996C98.0804 5.4302 96.4039 5.85924 95.4516 7.12653L93.4477 9.79254C93.4105 9.84214 93.3485 9.86446 93.289 9.84958C92.0118 9.52966 90.7197 9.31638 89.4425 9.21718C89.3805 9.21222 89.3284 9.17254 89.3086 9.11302L88.2546 5.95844C87.7511 4.45308 86.2978 3.51563 84.7206 3.67435C83.1433 3.83307 81.9057 5.04332 81.7148 6.61812L81.3105 9.92894C81.3031 9.99094 81.2609 10.0405 81.2014 10.0579C79.9564 10.415 78.7313 10.8788 77.5608 11.4393C77.5062 11.4665 77.4392 11.4566 77.3946 11.4169L74.8972 9.20478C73.7093 8.15325 71.9807 8.06645 70.6961 8.99398C69.409 9.9215 68.9452 11.5881 69.5652 13.0463L70.8672 16.1066C70.892 16.1637 70.8796 16.2282 70.8374 16.2728C69.9496 17.1929 69.1213 18.2097 68.3773 19.2959C68.3426 19.3455 68.2806 19.3703 68.221 19.3604L64.9524 18.6933C63.3999 18.3759 61.8598 19.1645 61.2076 20.6103C60.5578 22.0562 60.9869 23.7327 62.2541 24.685L64.9201 26.6889C64.9697 26.7261 64.9921 26.7881 64.9772 26.8476C64.6573 28.1248 64.444 29.4193 64.3448 30.6941C64.3398 30.7561 64.3001 30.8081 64.2406 30.828L61.086 31.882C59.5807 32.3854 58.6432 33.8387 58.802 35.416C58.9607 36.9933 60.1709 38.2308 61.7457 38.4218L65.0565 38.826C65.1185 38.8335 65.1682 38.8756 65.1855 38.9351C65.5426 40.1826 66.0064 41.4052 66.5669 42.5758C66.5942 42.6304 66.5842 42.6973 66.5446 42.742L64.3324 45.2393C63.2809 46.4273 63.1941 48.1558 64.1216 49.4405C65.0491 50.7276 66.7157 51.1914 68.1739 50.5714L71.2343 49.2693C71.2913 49.2445 71.3558 49.2569 71.4004 49.2991C72.3205 50.1869 73.3373 51.0153 74.4235 51.7593C74.4731 51.794 74.5004 51.856 74.488 51.9155L73.8209 55.1842C73.5035 56.7391 74.2921 58.2767 75.738 58.929C77.1838 59.5788 78.8603 59.1497 79.8126 57.8824L81.8165 55.2164C81.8462 55.1767 81.8909 55.1544 81.938 55.1544ZM87.6023 51.3451C85.0206 51.3451 82.3993 50.8119 79.8969 49.686C70.4233 45.4204 66.185 34.2454 70.4481 24.7693C72.5139 20.1788 76.2439 16.6696 80.9485 14.884C85.6555 13.0984 90.7743 13.2546 95.3623 15.3205C104.836 19.5836 109.074 30.761 104.811 40.2371C101.674 47.2085 94.7919 51.3451 87.6023 51.3451ZM87.637 13.9565C85.4174 13.9565 83.1929 14.3607 81.0576 15.1717C76.4274 16.9275 72.7595 20.3797 70.7259 24.8958C66.5297 34.2157 70.701 45.212 80.0209 49.4082C89.3433 53.6044 100.337 49.433 104.533 40.1131C108.73 30.7933 104.558 19.7969 95.2383 15.6007C92.8079 14.507 90.2262 13.9565 87.637 13.9565Z" fill="#0F172A"/>
<path d="M63.4449 37.4421C63.4449 37.4421 61.3543 37.519 58.7676 37.5091C58.2245 37.5091 56.7638 35.7607 55.8288 36.0558C55.1567 36.2691 56.429 37.4148 56.2529 37.4123C54.5962 37.4049 53.1653 37.3999 52.6469 37.3975C52.2402 37.3975 52.1038 37.8116 52.2725 38.1811C52.513 38.7094 53.0388 39.5104 53.9043 39.7907C55.4543 40.2892 58.4477 40.066 59.3727 39.8849C61.3964 39.4931 62.9985 39.4633 62.9985 39.4633L63.4449 37.4421Z" fill="#EFF5F5"/>
<path d="M56.5802 40.2495C55.5981 40.2495 54.5813 40.1701 53.8571 39.937C52.8453 39.6121 52.3145 38.6449 52.1335 38.2456C52.0145 37.9852 52.0219 37.7 52.1509 37.5016C52.2575 37.3355 52.4385 37.2462 52.6469 37.2487C53.1379 37.2512 54.4474 37.2561 55.9949 37.2636C55.9874 37.2561 55.9825 37.2462 55.975 37.2388C55.732 36.9238 55.3972 36.4948 55.4964 36.1773C55.5237 36.0905 55.5956 35.974 55.7841 35.9144C56.4314 35.7111 57.2423 36.3236 57.8946 36.8172C58.2294 37.0701 58.6088 37.3578 58.77 37.3603C61.3219 37.3702 63.42 37.2933 63.4424 37.2933C63.4895 37.2933 63.5341 37.3107 63.5664 37.3479C63.5961 37.3851 63.6085 37.4322 63.5986 37.4793L63.1522 39.5005C63.1373 39.57 63.0753 39.6196 63.0059 39.6196C62.991 39.6196 61.3889 39.6543 59.4049 40.0387C58.8965 40.1379 57.7656 40.252 56.5851 40.252L56.5802 40.2495ZM52.6419 37.5512C52.5353 37.5512 52.4559 37.5909 52.4063 37.6653C52.3344 37.7769 52.3344 37.9555 52.4088 38.1192C52.5749 38.4813 53.0536 39.3567 53.9489 39.6469C55.4741 40.1379 58.4625 39.9073 59.3404 39.7361C61.0392 39.4063 62.4603 39.3294 62.8719 39.3145L63.2489 37.6008C62.6686 37.6182 60.8706 37.6703 58.7626 37.6604C58.4997 37.6604 58.1475 37.3925 57.7036 37.0577C57.1084 36.6064 56.3644 36.0459 55.8684 36.2021C55.794 36.2269 55.7841 36.2542 55.7816 36.2641C55.7295 36.4278 56.0668 36.8618 56.2106 37.0478C56.3892 37.276 56.4562 37.3628 56.3991 37.4744C56.3718 37.5314 56.3123 37.5661 56.2478 37.5661C54.5912 37.5587 53.1602 37.5537 52.6419 37.5512Z" fill="#0F172A"/>
<path d="M77.6131 19.4993C80.3014 19.0182 86.0774 18.6486 90.1148 18.9859C91.3524 19.0901 92.5254 19.5737 93.4753 20.3747C96.2578 22.7233 102.579 28.3108 103.023 35.2027C103.048 35.597 102.872 35.9765 102.565 36.222L102.51 35.9219C100.99 37.1322 99.0478 37.3628 97.5797 36.0881L96.2702 35.1258C96.2702 35.1258 98.5171 43.1784 98.3658 44.473C98.2121 45.7676 94.2713 47.9698 89.3436 46.1619C85.3954 44.7136 80.0584 44.5672 76.9113 45.3832C76.8592 45.3956 76.7253 46.8166 76.6732 46.8315C76.4475 46.8935 76.1995 46.8488 75.9664 46.7596C75.3985 46.5413 75.024 45.9932 75.0091 45.3856L74.8057 36.227L68.1271 34.9374C68.1271 34.9374 71.3511 20.6178 77.6106 19.4968L77.6131 19.4993Z" fill="#0F172A"/>
<path d="M106.53 21.9867C106.456 22.3637 104.7 31.8944 103.904 33.8114C103.09 35.7731 102.341 38.2184 98.7924 36.8668C93.4926 34.8481 102.867 22.1876 103.42 21.3395C103.44 21.3097 106.533 21.9793 106.53 21.9867Z" fill="#0F172A"/>
<path d="M59.137 40.004L59.1171 37.7546C59.1122 37.2983 59.4891 36.9263 59.9454 36.9387C61.7682 36.9858 66.0686 36.837 67.7302 34.543C69.1264 32.616 69.548 30.2997 69.548 30.2997C69.548 30.2997 76.5863 29.2407 77.8015 34.9497C79.5226 43.0445 63.41 41.2837 59.8338 40.7976C59.4346 40.743 59.137 40.4058 59.1345 40.0015L59.137 40.004Z" fill="#0F172A"/>
<path d="M104.038 21.6222L103.824 18.7355C103.824 18.7355 103.691 16.5282 104.122 16.1141C104.439 15.8115 104.891 16.5258 105.069 17.5302C105.099 17.6963 105.335 17.6988 105.365 17.5302C105.476 16.8754 105.498 16.3993 105.461 15.7272C105.422 15.003 105.285 13.7283 105.965 13.6986C106.644 13.6713 108.219 15.4395 107.845 17.5823C107.47 19.725 105.91 22.0264 105.91 22.0264L104.035 21.6197L104.038 21.6222Z" fill="#EFF5F5"/>
<path d="M105.913 22.1802C105.913 22.1802 105.89 22.1802 105.88 22.1777L104.005 21.771C103.938 21.7561 103.891 21.7015 103.886 21.6321L103.673 18.7454C103.651 18.3635 103.557 16.4414 104.018 16.0025C104.127 15.8983 104.263 15.8636 104.4 15.9082C104.794 16.0372 105.097 16.801 105.221 17.5004C105.32 16.873 105.345 16.4092 105.31 15.7322L105.3 15.5486C105.26 14.9063 105.213 14.1053 105.545 13.7358C105.655 13.6142 105.793 13.5498 105.962 13.5423C106.257 13.5299 106.666 13.7779 107.041 14.207C107.666 14.9212 108.246 16.1885 107.998 17.6046C107.624 19.7547 106.103 22.0116 106.039 22.1083C106.009 22.1504 105.962 22.1752 105.913 22.1752V22.1802ZM104.181 21.4957L105.843 21.8578C106.123 21.4238 107.373 19.415 107.696 17.5599C107.924 16.248 107.388 15.075 106.808 14.4153C106.461 14.0185 106.131 13.8474 105.97 13.8548C105.885 13.8573 105.821 13.887 105.769 13.9466C105.521 14.2194 105.57 15.013 105.603 15.5362L105.612 15.7222C105.65 16.4241 105.625 16.9052 105.513 17.5599C105.488 17.7063 105.367 17.8104 105.218 17.8104C105.069 17.8104 104.945 17.7063 104.921 17.5599C104.772 16.7242 104.464 16.2554 104.305 16.2034C104.286 16.1959 104.263 16.1934 104.229 16.2282C103.951 16.4935 103.929 17.9022 103.978 18.728L104.184 21.4982L104.181 21.4957Z" fill="#0F172A"/>
<path d="M79.9344 13.5324C79.4979 13.334 79.2697 13.6639 78.6199 13.5746C77.928 13.4804 77.1667 12.967 76.8815 12.218C76.5367 11.3128 77.0327 10.4498 77.3477 9.90667C77.6602 9.36603 78.057 8.76339 78.7439 8.50299C79.6417 8.16323 80.0162 8.68403 81.0454 8.36411C81.8812 8.1037 81.8192 7.70194 82.5632 7.48866C83.1832 7.31258 84.9712 7.41178 85.3705 8.36411C85.6235 8.96675 85.0779 9.33379 85.3507 10.2266C85.5144 10.7623 85.7723 10.8292 85.9608 11.2434C86.427 12.2701 85.8417 14.0756 84.7307 14.6782C83.2228 15.4991 80.6907 13.8747 79.9368 13.5324H79.9344Z" fill="#0F172A"/>
<path d="M81.3206 15.2561L80.9684 18.1379C80.9015 18.686 80.5071 19.1398 79.9715 19.2787L78.4884 19.6656L78.6967 19.8243C81.2735 21.786 84.8422 21.7885 87.4214 19.8317L88.1902 19.2489L86.35 18.8372C85.8218 18.7182 85.4151 18.2941 85.3184 17.7609L84.552 13.5151L81.3181 15.2536L81.3206 15.2561Z" fill="#EFF5F5"/>
<path d="M83.0665 21.4437C81.4917 21.4437 79.9193 20.9427 78.6049 19.9433L78.3966 19.7846C78.3495 19.7499 78.3272 19.6903 78.3396 19.6333C78.352 19.5763 78.3941 19.5291 78.4512 19.5167L79.9342 19.1299C80.4129 19.0059 80.7576 18.6091 80.8196 18.118L81.1717 15.2362C81.1767 15.1866 81.2065 15.1445 81.2511 15.1197L84.485 13.3812C84.5272 13.3589 84.5793 13.3564 84.6239 13.3787C84.6685 13.401 84.6983 13.4407 84.7082 13.4903L85.4746 17.7361C85.5589 18.2098 85.9185 18.5843 86.3897 18.6884L88.2298 19.1001C88.2869 19.1125 88.334 19.1596 88.3464 19.2167C88.3588 19.2737 88.3365 19.3357 88.2894 19.3704L87.5206 19.9532C86.2111 20.9477 84.6413 21.4437 83.0714 21.4437H83.0665ZM78.8306 19.7325C81.3404 21.6148 84.8273 21.6074 87.3296 19.7102L87.8355 19.3258L86.3153 18.986C85.725 18.8546 85.2737 18.3834 85.167 17.7882L84.4379 13.7507L81.4594 15.3528L81.1172 18.1552C81.0428 18.7703 80.6063 19.2687 80.0061 19.425L78.8281 19.7325H78.8306Z" fill="#0F172A"/>
<path d="M84.1874 14.1028C84.1874 14.1028 85.3258 13.6738 84.8967 12.7339C84.4702 11.794 83.7733 12.4884 83.7733 12.4884C83.7733 12.4884 83.126 10.172 81.7694 11.0871C80.4104 11.9998 79.1257 12.3321 79.1257 12.3321C79.1257 12.3321 79.6044 14.6633 80.4625 16.2133C80.9808 17.1483 81.638 17.8005 82.4093 17.4856C84.5272 16.625 84.185 14.1028 84.185 14.1028H84.1874Z" fill="#EFF5F5"/>
<path d="M82.0124 17.7188C81.4222 17.7188 80.8567 17.2376 80.3285 16.2853C79.4679 14.7328 78.9942 12.4562 78.9744 12.3619C78.957 12.2826 79.0067 12.2032 79.086 12.1834C79.0984 12.1809 80.3657 11.8461 81.6826 10.9582C82.0397 10.7177 82.3894 10.6582 82.7192 10.7797C83.3442 11.0103 83.7087 11.8386 83.8501 12.2354C83.9915 12.1462 84.1998 12.0569 84.4255 12.099C84.6784 12.1462 84.8843 12.3371 85.0356 12.6719C85.167 12.9621 85.1819 13.2423 85.0752 13.5003C84.9165 13.8822 84.5371 14.1079 84.3486 14.1996C84.3833 14.7179 84.4056 16.8408 82.4687 17.627C82.315 17.689 82.1637 17.7212 82.0124 17.7212V17.7188ZM79.3067 12.4363C79.4233 12.9571 79.8796 14.837 80.5988 16.1365C81.1742 17.1756 81.7644 17.5824 82.3571 17.3418C84.3387 16.5383 84.051 14.2195 84.0386 14.1227C84.0287 14.0533 84.0683 13.9839 84.1353 13.9591C84.1403 13.9591 84.6388 13.7631 84.795 13.3812C84.8694 13.2027 84.857 13.0117 84.7603 12.7984C84.6536 12.5603 84.5222 12.4264 84.3734 12.4016C84.1304 12.357 83.8848 12.595 83.8824 12.5975C83.8452 12.6347 83.7881 12.6496 83.736 12.6372C83.684 12.6223 83.6418 12.5826 83.6269 12.5306C83.6244 12.5182 83.2797 11.3129 82.6151 11.0674C82.3795 10.9806 82.1315 11.0277 81.8562 11.2137C80.7377 11.9651 79.6812 12.3272 79.3067 12.4388V12.4363Z" fill="#0F172A"/>
<path d="M74.8081 36.3808C74.8081 36.3808 74.7982 36.3808 74.7907 36.3808C74.7064 36.3709 74.6469 36.2965 74.6543 36.2121C75.1925 31.1207 75.9538 26.8154 75.9613 26.7732C75.9762 26.6914 76.0555 26.6343 76.1374 26.6492C76.2192 26.6641 76.2762 26.7435 76.2614 26.8253C76.2539 26.8675 75.495 31.1628 74.9569 36.2444C74.9494 36.3237 74.8825 36.3808 74.8056 36.3808H74.8081Z" fill="#EFF5F5"/>
<path d="M19.9206 99.5391L21.2672 100.256C21.2127 100.858 21.2077 101.459 21.2548 102.051L19.9032 102.751C19.2336 103.098 18.8963 103.862 19.0873 104.591C19.2783 105.32 19.9479 105.818 20.7018 105.794L22.227 105.742C22.48 106.285 22.7776 106.806 23.1148 107.299L22.2915 108.586C21.8847 109.221 21.974 110.052 22.5023 110.588C23.033 111.123 23.8613 111.22 24.5012 110.821L25.7932 110.015C26.2793 110.357 26.7976 110.657 27.3433 110.917L27.2738 112.443C27.2391 113.194 27.7301 113.871 28.4568 114.069C29.1834 114.268 29.9497 113.938 30.3044 113.273L31.0211 111.927C31.6237 111.981 32.2239 111.986 32.8166 111.939L33.516 113.291C33.8632 113.96 34.627 114.298 35.3562 114.107C36.0853 113.916 36.5838 113.246 36.559 112.492L36.5069 110.967C37.05 110.714 37.5708 110.416 38.0643 110.079L39.3515 110.902C39.9863 111.309 40.8171 111.22 41.3528 110.692C41.8885 110.161 41.9852 109.333 41.5859 108.693L40.7799 107.401C41.1222 106.915 41.4223 106.396 41.6827 105.851L43.2079 105.92C43.9593 105.955 44.6364 105.464 44.8348 104.737C45.0332 104.011 44.7033 103.244 44.0387 102.89L42.692 102.173C42.7466 101.57 42.7516 100.97 42.7044 100.377L44.056 99.678C44.7256 99.3308 45.0629 98.5669 44.872 97.8403C44.681 97.1112 44.0114 96.6127 43.2575 96.6375L41.7323 96.6896C41.4793 96.1464 41.1817 95.6256 40.8444 95.1321L41.6678 93.845C42.0745 93.2101 41.9852 92.3793 41.457 91.8436C40.9263 91.3079 40.0979 91.2112 39.4581 91.6105L38.166 92.4165C37.6799 92.0743 37.1616 91.7742 36.616 91.5138L36.6855 89.9886C36.7202 89.2371 36.2291 88.5601 35.5025 88.3617C34.7758 88.1633 34.0095 88.4931 33.6549 89.1578L32.9382 90.5044C32.3355 90.4498 31.7353 90.4449 31.1426 90.492L30.4433 89.1404C30.0961 88.4708 29.3322 88.1335 28.6031 88.3245C27.874 88.5154 27.3755 89.185 27.4003 89.939L27.4524 91.4642C26.9092 91.7171 26.3884 92.0123 25.8949 92.352L24.6078 91.5287C23.9729 91.1219 23.1421 91.2112 22.6064 91.7395C22.0707 92.2702 21.974 93.0985 22.3733 93.7383L23.1793 95.0304C22.8371 95.5165 22.537 96.0348 22.2766 96.5804L20.7514 96.511C19.9999 96.4763 19.3229 96.9673 19.1245 97.694C18.9261 98.4206 19.2559 99.1869 19.9206 99.5416V99.5391ZM23.7299 98.9538C24.9773 94.398 29.6819 91.7171 34.2352 92.9646C38.791 94.212 41.4719 98.9166 40.2244 103.47C38.977 108.026 34.2724 110.707 29.7191 109.459C25.1633 108.212 22.4824 103.507 23.7299 98.9538Z" fill="#EFF5F5"/>
<path d="M34.9442 114.31C34.2994 114.31 33.6943 113.955 33.3843 113.358L32.7296 112.095C32.1989 112.133 31.6558 112.128 31.1102 112.083L30.4406 113.34C30.0512 114.074 29.2179 114.432 28.4169 114.213C27.6158 113.995 27.0826 113.261 27.1198 112.433L27.1843 111.009C26.6933 110.771 26.2245 110.496 25.7856 110.196L24.5803 110.95C23.876 111.389 22.9757 111.284 22.3929 110.694C21.8101 110.104 21.7134 109.204 22.1623 108.504L22.9311 107.304C22.631 106.858 22.3632 106.386 22.13 105.9L20.704 105.95C19.8732 105.977 19.1466 105.437 18.9383 104.636C18.7275 103.832 19.0945 103.004 19.8335 102.622L21.0959 101.967C21.0587 101.436 21.0636 100.893 21.1083 100.348L19.8509 99.678C19.1168 99.2887 18.7597 98.4554 18.9779 97.6543C19.1962 96.8533 19.9278 96.3201 20.7586 96.3573L22.1821 96.4218C22.4202 95.9307 22.6955 95.462 22.9956 95.023L22.2416 93.8177C21.8027 93.1134 21.9068 92.2132 22.4971 91.6304C23.0873 91.0476 23.9876 90.9509 24.6869 91.3973L25.8873 92.1661C26.3337 91.866 26.8049 91.5981 27.2909 91.365L27.2413 89.939C27.2116 89.1082 27.7547 88.3816 28.5557 88.1732C29.3593 87.9624 30.1876 88.3295 30.5695 89.0685L31.2242 90.3309C31.755 90.2937 32.2981 90.2986 32.8437 90.3433L33.5133 89.0859C33.9026 88.3518 34.7359 87.9947 35.537 88.2129C36.338 88.4312 36.8712 89.1653 36.834 89.9936L36.7695 91.4171C37.2606 91.6552 37.7293 91.9305 38.1683 92.2305L39.3735 91.4766C40.0779 91.0377 40.9781 91.1418 41.5609 91.7321C42.1437 92.3223 42.2404 93.2225 41.794 93.9219L41.0252 95.1222C41.3253 95.5686 41.5932 96.0398 41.8263 96.5259L43.2523 96.4763C44.0831 96.4466 44.8097 96.9897 45.0181 97.7907C45.2289 98.5943 44.8618 99.4226 44.1228 99.8045L42.8604 100.459C42.8976 100.99 42.8927 101.533 42.848 102.079L44.1054 102.748C44.8395 103.138 45.1966 103.971 44.9784 104.772C44.7601 105.573 44.0285 106.106 43.1977 106.069L41.7742 106.005C41.5361 106.496 41.2608 106.964 40.9608 107.403L41.7147 108.609C42.1536 109.313 42.0495 110.213 41.4592 110.796C40.869 111.379 39.9688 111.475 39.2694 111.029L38.0691 110.26C37.6227 110.56 37.1515 110.828 36.6654 111.061L36.715 112.487C36.7447 113.318 36.2016 114.045 35.4006 114.253C35.2493 114.293 35.098 114.313 34.9467 114.313L34.9442 114.31ZM32.8189 111.783C32.8759 111.783 32.928 111.815 32.9553 111.865L33.6546 113.216C33.9696 113.826 34.6541 114.129 35.3187 113.955C35.9834 113.782 36.4298 113.182 36.4075 112.495L36.3554 110.97C36.3554 110.908 36.3876 110.853 36.4447 110.826C36.9779 110.578 37.4962 110.283 37.9798 109.95C38.0294 109.916 38.0963 109.915 38.1484 109.948L39.4355 110.771C40.0134 111.141 40.7599 111.061 41.246 110.58C41.7345 110.097 41.8213 109.353 41.4568 108.77L40.6508 107.478C40.6185 107.426 40.621 107.359 40.6557 107.309C40.9905 106.835 41.2881 106.319 41.546 105.779C41.5733 105.724 41.6279 105.69 41.6899 105.692L43.2151 105.761C43.8996 105.791 44.5072 105.352 44.6882 104.69C44.8693 104.028 44.5717 103.341 43.9665 103.019L42.6199 102.302C42.5653 102.272 42.5331 102.215 42.5405 102.153C42.5951 101.558 42.5976 100.963 42.5529 100.385C42.548 100.323 42.5802 100.266 42.6348 100.238L43.9864 99.5391C44.5965 99.2242 44.899 98.5397 44.7254 97.875C44.5518 97.2104 43.9467 96.7615 43.2647 96.7863L41.7395 96.8384C41.6775 96.8384 41.6204 96.8062 41.5956 96.7491C41.3476 96.2159 41.0525 95.7001 40.7202 95.214C40.6855 95.1644 40.6855 95.0974 40.7177 95.0454L41.5411 93.7582C41.9106 93.1804 41.8312 92.4339 41.3501 91.9478C40.8665 91.4593 40.1225 91.3725 39.5397 91.737L38.2476 92.543C38.1955 92.5753 38.1286 92.5728 38.079 92.5381C37.6028 92.2033 37.0895 91.9057 36.5513 91.6477C36.4967 91.6205 36.462 91.5634 36.4645 91.5039L36.5339 89.9787C36.5662 89.2917 36.1247 88.6866 35.4626 88.5056C34.8004 88.3245 34.1134 88.6197 33.791 89.2273L33.0743 90.5739C33.0446 90.6285 32.9875 90.6607 32.9255 90.6533C32.3303 90.5987 31.7351 90.5962 31.1573 90.6409C31.0953 90.6458 31.0382 90.6136 31.011 90.559L30.3116 89.2074C29.9966 88.5973 29.3121 88.2948 28.6475 88.4684C27.9829 88.642 27.5365 89.2421 27.5588 89.9291L27.6109 91.4543C27.6109 91.5163 27.5786 91.5733 27.5216 91.5981C26.9884 91.8461 26.4725 92.1413 25.9865 92.4736C25.9369 92.5083 25.8699 92.5083 25.8178 92.4761L24.5307 91.6527C23.9528 91.2832 23.2064 91.3625 22.7203 91.8437C22.2317 92.3273 22.1449 93.0713 22.5095 93.6541L23.3155 94.9462C23.3477 94.9982 23.3452 95.0652 23.3105 95.1148C22.9757 95.5885 22.6781 96.1043 22.4202 96.645C22.3929 96.6995 22.3359 96.7342 22.2764 96.7318L20.7512 96.6623C20.0642 96.6326 19.4591 97.0715 19.278 97.7337C19.097 98.3958 19.3946 99.0828 19.9997 99.4077L21.3464 100.124C21.4009 100.154 21.4332 100.211 21.4257 100.273C21.3712 100.868 21.3687 101.464 21.4133 102.041C21.4183 102.103 21.386 102.161 21.3315 102.188L19.9799 102.887C19.3698 103.202 19.0672 103.887 19.2408 104.551C19.4144 105.216 20.0146 105.665 20.7016 105.64L22.2268 105.588C22.2888 105.588 22.3458 105.62 22.3706 105.677C22.6186 106.21 22.9137 106.729 23.246 107.212C23.2808 107.262 23.2808 107.329 23.2485 107.381L22.4252 108.668C22.0556 109.246 22.135 109.992 22.6161 110.478C23.0997 110.967 23.8437 111.054 24.4265 110.689L25.7186 109.883C25.7707 109.851 25.8377 109.854 25.8873 109.888C26.3609 110.223 26.8768 110.521 27.4174 110.779C27.472 110.806 27.5067 110.863 27.5042 110.922L27.4348 112.448C27.4025 113.135 27.844 113.74 28.5061 113.921C29.1683 114.102 29.8553 113.807 30.1777 113.199L30.8944 111.852C30.9242 111.798 30.9812 111.766 31.0432 111.773C31.6384 111.828 32.2336 111.83 32.8114 111.785C32.8164 111.785 32.8189 111.785 32.8238 111.785L32.8189 111.783ZM31.9757 109.915C31.2168 109.915 30.4455 109.816 29.6792 109.605C27.4373 108.99 25.5673 107.542 24.4166 105.521C23.2659 103.502 22.9683 101.154 23.5833 98.9117C24.1984 96.6698 25.6467 94.7998 27.6679 93.6491C29.6866 92.4984 32.0352 92.2008 34.2771 92.8158C38.9073 94.0831 41.6403 98.8795 40.373 103.51C39.3165 107.371 35.7999 109.915 31.9757 109.915ZM31.9658 92.8084C30.5249 92.8084 29.1038 93.1829 27.8192 93.9145C25.8699 95.0255 24.4712 96.8285 23.8784 98.9935C23.2857 101.159 23.5709 103.423 24.682 105.372C25.793 107.321 27.596 108.72 29.761 109.313C30.5001 109.516 31.2441 109.613 31.9757 109.613C35.6659 109.613 39.0586 107.158 40.0779 103.43C41.3005 98.9638 38.6618 94.3336 34.1953 93.111C33.4587 92.9101 32.7073 92.8084 31.9633 92.8084H31.9658Z" fill="#0F172A"/>
<path d="M39.3345 101.243C39.3345 97.1359 36.0088 93.8053 31.9044 93.8053C27.7999 93.8053 24.4742 97.1359 24.4742 101.243C24.4742 105.35 27.7999 108.68 31.9044 108.68C36.0088 108.68 39.3345 105.35 39.3345 101.243Z" fill="#EFF5F5"/>
<path d="M37.1347 106.649C35.7955 107.912 33.9925 108.688 32.0085 108.688C30.0245 108.688 28.219 107.912 26.8823 106.649C28.4299 106.171 30.1708 105.9 32.0085 105.9C33.8462 105.9 35.5872 106.171 37.1347 106.649Z" fill="#0F172A"/>
<path d="M29.6152 96.8979C29.9525 96.6821 30.3443 96.5656 30.7436 96.5656H33.1021C33.6278 96.5656 34.1362 96.764 34.5206 97.1236L34.6496 97.2426C35.2622 97.8105 35.4754 98.6909 35.1927 99.4796L34.4165 101.632L29.4441 101.6L28.7422 99.2489C28.4768 98.3586 28.8315 97.4013 29.6127 96.8979H29.6152Z" fill="#0F172A"/>
<path d="M30.843 97.8353L30.8752 97.8204L34.444 100.139V101.538C34.444 102.337 34.0695 103.048 33.4892 103.51V105.64C33.4892 106.483 32.8072 107.165 31.964 107.165C31.1208 107.165 30.4387 106.483 30.4387 105.64V103.564C29.8163 103.105 29.4095 102.369 29.4095 101.538V100.055C29.4095 99.0679 29.9973 98.2172 30.843 97.8353Z" fill="#EFF5F5"/>
<path d="M31.9268 104.206C30.4537 104.206 29.2583 103.009 29.2583 101.538V100.055C29.2583 98.6289 30.4189 97.4683 31.8425 97.4683H34.444C34.5283 97.4683 34.5978 97.5377 34.5978 97.622V101.538C34.5978 102.582 33.9827 103.537 33.0329 103.968C32.956 104.003 32.8667 103.968 32.8295 103.891C32.7948 103.815 32.8295 103.725 32.9039 103.691C33.7446 103.306 34.2902 102.463 34.2902 101.538V97.7758H31.8425C30.5851 97.7758 29.5633 98.7976 29.5633 100.055V101.538C29.5633 102.842 30.6248 103.901 31.9268 103.901C32.0111 103.901 32.0806 103.971 32.0806 104.055C32.0806 104.139 32.0111 104.209 31.9268 104.209V104.206Z" fill="#0F172A"/>
<path d="M32.0082 108.834C29.992 108.834 28.0923 108.055 26.6539 106.637C25.0841 105.089 24.2632 102.937 24.3971 100.734C24.4021 100.65 24.474 100.586 24.5583 100.591C24.6426 100.596 24.7071 100.668 24.7021 100.752C24.5707 102.865 25.3618 104.931 26.8672 106.416C28.2461 107.778 30.0714 108.527 32.0082 108.527C32.0256 108.527 32.043 108.527 32.0603 108.527C34.0171 108.514 35.8498 107.741 37.2237 106.347C38.5976 104.955 39.3466 103.11 39.3317 101.156C39.3193 99.1993 38.5456 97.3666 37.1518 95.9927C34.4139 93.292 30.0218 93.1754 27.1499 95.7298C27.0879 95.7869 26.9912 95.7794 26.9341 95.7174C26.8771 95.6554 26.8845 95.5587 26.9465 95.5016C29.9374 92.8431 34.5131 92.9621 37.3651 95.7769C38.8159 97.2079 39.6219 99.1175 39.6368 101.154C39.6516 103.19 38.8704 105.112 37.4395 106.562C36.0085 108.013 34.0989 108.819 32.0628 108.832C32.0454 108.832 32.0281 108.832 32.0082 108.832V108.834Z" fill="#0F172A"/>
<path d="M31.9638 107.316C31.0388 107.316 30.2874 106.565 30.2874 105.64V103.619C30.2874 103.534 30.3568 103.465 30.4411 103.465C30.5254 103.465 30.5949 103.534 30.5949 103.619V105.64C30.5949 106.396 31.2099 107.011 31.9663 107.011C32.7227 107.011 33.3378 106.396 33.3378 105.64V103.51C33.3378 103.425 33.4072 103.356 33.4915 103.356C33.5758 103.356 33.6453 103.425 33.6453 103.51V105.64C33.6453 106.565 32.8938 107.316 31.9688 107.316H31.9638Z" fill="#0F172A"/>
<path d="M77.1366 124.248C75.5172 124.248 74.1011 123.196 73.6398 121.621L72.7371 118.539C71.5095 118.39 70.2844 118.142 69.0939 117.805L67.0678 120.297C65.984 121.631 64.1513 122.028 62.6112 121.264C61.0711 120.5 60.28 118.799 60.6892 117.13L61.4481 114.018C60.471 113.283 59.5335 112.455 58.6605 111.552L55.6597 112.698C54.0552 113.311 52.2696 112.738 51.3172 111.307C50.3674 109.876 50.5311 108.008 51.719 106.766L53.9386 104.445C53.4426 103.289 53.0433 102.106 52.7457 100.921L49.5812 100.412C47.8849 100.139 46.6251 98.7506 46.5159 97.0369C46.4093 95.3207 47.4856 93.7881 49.1348 93.3045L52.2175 92.4018C52.3663 91.1742 52.6143 89.949 52.9516 88.7586L50.4592 86.73C49.1249 85.6462 48.7281 83.8135 49.4919 82.2734C50.2558 80.7333 51.9571 79.9422 53.6261 80.3514L56.7385 81.1103C57.4726 80.1331 58.3009 79.1957 59.2037 78.3252L58.0579 75.3244C57.4453 73.7198 58.0182 71.9342 59.4492 70.9819C60.8802 70.0321 62.7476 70.1957 63.9901 71.3837L66.3114 73.6033C67.4646 73.1098 68.65 72.708 69.8355 72.4104L70.3439 69.2459C70.6167 67.5496 72.0055 66.2897 73.7192 66.1806C75.4304 66.074 76.968 67.1503 77.4516 68.7995L78.3543 71.8846C79.5819 72.0334 80.807 72.2814 81.9974 72.6187L84.0261 70.1263C85.1099 68.7921 86.9426 68.3953 88.4827 69.1591C90.0228 69.9229 90.8139 71.6242 90.4072 73.2933L89.6483 76.4057C90.6254 77.1398 91.5628 77.9681 92.4358 78.8708L95.4366 77.7251C97.0437 77.1125 98.8268 77.6854 99.7791 79.1163C100.729 80.5473 100.565 82.4148 99.3774 83.6572L97.1577 85.9785C97.6513 87.1317 98.053 88.3172 98.3506 89.5026L101.515 90.011C103.211 90.2838 104.471 91.6726 104.58 93.3863C104.687 95.1025 103.611 96.6351 101.962 97.1187L98.8764 98.0215C98.7276 99.2491 98.4796 100.474 98.1423 101.665L100.635 103.691C101.969 104.775 102.366 106.607 101.602 108.147C100.838 109.687 99.1368 110.479 97.4677 110.069L94.3553 109.31C93.6213 110.288 92.7929 111.225 91.8902 112.098L93.036 115.099C93.6485 116.703 93.0757 118.489 91.6447 119.441C90.2137 120.391 88.3463 120.227 87.1038 119.04L84.7825 116.82C83.6268 117.316 82.4438 117.715 81.2584 118.013L80.75 121.177C80.4772 122.874 79.0884 124.134 77.3747 124.243C77.2953 124.248 77.2185 124.25 77.1391 124.25L77.1366 124.248ZM69.0394 117.475C69.0543 117.475 69.0667 117.475 69.0816 117.48C70.3166 117.837 71.5938 118.095 72.871 118.243C72.933 118.251 72.9826 118.293 73 118.353L73.93 121.534C74.3714 123.045 75.7751 124.032 77.3499 123.935C78.9222 123.836 80.1945 122.683 80.4425 121.128L80.9658 117.864C80.9757 117.805 81.0203 117.755 81.0798 117.74C82.3124 117.437 83.5474 117.021 84.7478 116.5C84.8048 116.475 84.8693 116.488 84.9139 116.53L87.3096 118.819C88.448 119.908 90.1592 120.059 91.4711 119.186C92.783 118.315 93.3063 116.679 92.7458 115.208L91.5653 112.113C91.543 112.056 91.5579 111.991 91.6025 111.949C92.5474 111.044 93.4105 110.069 94.1693 109.05C94.2065 109 94.2685 108.978 94.3281 108.993L97.5397 109.777C99.0698 110.149 100.627 109.425 101.329 108.013C102.028 106.602 101.666 104.923 100.444 103.931L97.872 101.841C97.8249 101.801 97.805 101.739 97.8224 101.679C98.182 100.442 98.4374 99.1672 98.5862 97.89C98.5937 97.828 98.6358 97.7784 98.6954 97.7611L101.877 96.8311C103.388 96.3896 104.375 94.9835 104.278 93.4111C104.179 91.8388 103.023 90.5666 101.47 90.3186L98.2068 89.7953C98.1473 89.7853 98.0977 89.7407 98.0828 89.6812C97.7802 88.4486 97.3611 87.2136 96.8428 86.0133C96.818 85.9562 96.8304 85.8917 96.8725 85.8471L99.1616 83.4514C100.25 82.3131 100.402 80.6019 99.5286 79.2899C98.6582 77.978 97.0214 77.4547 95.5507 78.0152L92.4556 79.1957C92.3986 79.218 92.3341 79.2031 92.292 79.1585C91.3868 78.2136 90.4121 77.3506 89.3928 76.5917C89.3432 76.5545 89.3209 76.4925 89.3358 76.433L90.1195 73.2214C90.4915 71.6912 89.7673 70.1337 88.3562 69.4319C86.9451 68.7325 85.2661 69.0946 84.2741 70.3173L82.1834 72.889C82.1438 72.9362 82.0818 72.956 82.0222 72.9386C80.7847 72.579 79.51 72.3236 78.2328 72.1748C78.1708 72.1674 78.1212 72.1252 78.1038 72.0657L77.1738 68.8838C76.7324 67.3735 75.3262 66.3864 73.7539 66.4832C72.1816 66.5824 70.9093 67.7356 70.6613 69.2905L70.138 72.5542C70.1281 72.6138 70.0835 72.6634 70.024 72.6782C68.7889 72.9808 67.5563 73.3999 66.356 73.9182C66.299 73.943 66.2345 73.9306 66.1899 73.8885L63.7942 71.5994C62.6558 70.5107 60.9446 70.3594 59.6327 71.2324C58.3208 72.1029 57.7975 73.7397 58.358 75.2103L59.5385 78.3054C59.5608 78.3624 59.5459 78.4269 59.5013 78.4691C58.5564 79.3718 57.6933 80.3489 56.9369 81.3682C56.8997 81.4178 56.8377 81.4401 56.7782 81.4252L53.5666 80.6416C52.0364 80.2696 50.479 80.9937 49.7771 82.4048C49.0778 83.816 49.4399 85.4949 50.6625 86.4869L53.2343 88.5776C53.2814 88.6173 53.3012 88.6793 53.2839 88.7388C52.9243 89.9763 52.6688 91.251 52.52 92.5282C52.5126 92.5902 52.4704 92.6398 52.4109 92.6572L49.2291 93.5872C47.7187 94.0286 46.7317 95.4348 46.8284 97.0071C46.9276 98.5795 48.0808 99.8517 49.6358 100.1L52.8995 100.623C52.959 100.633 53.0086 100.678 53.0235 100.737C53.326 101.97 53.7427 103.205 54.2635 104.405C54.2883 104.462 54.2759 104.527 54.2337 104.571L51.9447 106.967C50.856 108.105 50.7047 109.816 51.5776 111.128C52.4481 112.44 54.0849 112.964 55.5556 112.403L58.6506 111.223C58.7077 111.2 58.7721 111.215 58.8143 111.26C59.7195 112.205 60.6942 113.068 61.7134 113.827C61.763 113.864 61.7854 113.926 61.7705 113.985L60.9868 117.197C60.6148 118.727 61.339 120.285 62.7501 120.984C64.1612 121.683 65.8402 121.321 66.8347 120.099L68.9253 117.527C68.9551 117.49 68.9997 117.47 69.0444 117.47L69.0394 117.475ZM75.5767 113.921C69.5106 113.921 63.5561 110.984 59.9551 105.566C57.8917 102.461 56.8229 98.8944 56.8229 95.2488C56.8229 94.0063 56.9469 92.7514 57.1998 91.5065C58.1893 86.606 61.0265 82.3825 65.1929 79.6173C69.3568 76.8521 74.3516 75.8725 79.2521 76.862C84.1526 77.8515 88.376 80.6887 91.1412 84.8551C93.2517 88.032 94.2611 91.6255 94.2611 95.1819C94.2611 101.245 91.3248 107.202 85.9059 110.803C82.729 112.914 79.133 113.923 75.5792 113.923L75.5767 113.921ZM57.1304 95.2488C57.1304 98.8349 58.1819 102.342 60.2106 105.397C65.8278 113.854 77.278 116.165 85.7348 110.548C91.0668 107.007 93.9561 101.149 93.9561 95.1819C93.9561 91.6826 92.964 88.1485 90.8858 85.0212C88.1652 80.9243 84.0112 78.1318 79.1901 77.1596C74.3689 76.1875 69.4585 77.1497 65.3615 79.8703C61.2646 82.5908 58.4721 86.7449 57.4999 91.566C57.2519 92.7936 57.1304 94.0237 57.1304 95.2488Z" fill="#0F172A"/>
<mask id="mask0_242_4307" style="mask-type:luminance" maskUnits="userSpaceOnUse" x="45" y="40" width="77" height="74">
<path d="M105.188 41.6731L59.3276 54.3038L45.8488 76.8521L57.7627 89.8796C56.2375 94.981 56.9071 100.695 60.0815 105.476C65.7533 114.018 77.2779 116.344 85.8191 110.669C90.9725 107.247 93.8618 101.694 94.0974 95.9506L111.797 92.6621L122 71.0662L119.389 40.1653L105.185 41.6682L105.188 41.6731Z" fill="white"/>
</mask>
<g mask="url(#mask0_242_4307)">
<path d="M75.4702 72.8841C75.4702 72.8841 70.4878 70.6149 68.8163 70.2577C67.1448 69.8981 64.2878 67.1081 68.3128 63.4898C69.6173 62.3167 69.3048 60.365 72.1395 59.0778C74.9741 57.7907 77.9055 58.4752 78.833 60.2236C79.7606 61.972 78.5354 64.1569 77.293 64.8042C76.0505 65.4515 75.4702 72.8841 75.4702 72.8841Z" fill="#0F172A"/>
<path d="M73.2455 76.6413L71.8914 80.7904C71.8914 80.7904 81.1865 80.2299 80.8294 78.851C80.7277 78.4616 80.4921 78.1764 80.2019 77.9706C78.7734 76.9538 79.3562 72.7378 79.3562 72.7378L81.8288 70.6422C82.2826 70.2578 82.3719 69.5931 82.0346 69.1045L80.8294 67.3487C80.626 67.0536 80.5665 66.6816 80.6682 66.3369L80.8814 65.6102L78.58 64.0751L76.5737 61.7216C73.3695 62.5449 72.3948 63.8172 73.1488 66.2352C73.6324 67.7852 72.8313 68.0902 72.8313 68.0902C72.8313 68.0902 71.2168 67.2024 71.1028 68.926C70.9887 70.6521 73.9002 70.8629 73.9002 70.8629C74.4656 71.4556 74.6591 72.3112 74.4061 73.0899L73.248 76.6413H73.2455Z" fill="#EFF5F5"/>
<path d="M71.8916 80.9416C71.8445 80.9416 71.7998 80.9193 71.7701 80.8821C71.7403 80.8424 71.7304 80.7904 71.7453 80.7408L73.0993 76.5917L74.2575 73.0403C74.4882 72.331 74.322 71.5598 73.826 71.0092C73.3846 70.967 70.8326 70.6471 70.9467 68.9161C70.9839 68.3705 71.1674 68.0034 71.4923 67.8249C71.9759 67.5595 72.6083 67.8149 72.8266 67.9166C72.9754 67.8174 73.3598 67.4355 73.0002 66.2798C72.6529 65.1613 72.6728 64.2784 73.0622 63.5766C73.5557 62.6912 74.6593 62.0539 76.5317 61.5728C76.5887 61.5579 76.6483 61.5777 76.6855 61.6224L78.6794 63.9585L80.9635 65.4837C81.018 65.5209 81.0453 65.5904 81.0255 65.6549L80.8122 66.3815C80.7229 66.6841 80.775 67.0065 80.9535 67.2644L82.1588 69.0202C82.5408 69.5758 82.4416 70.3247 81.9257 70.7612L79.4978 72.8171C79.4358 73.3181 79.039 76.9563 80.2889 77.8466C80.6435 78.0995 80.8742 78.4244 80.9759 78.8113C81.0106 78.9502 80.9808 79.0916 80.8891 79.2205C80.0186 80.4184 72.7273 80.8896 71.899 80.9392C71.8965 80.9392 71.8916 80.9392 71.8891 80.9392L71.8916 80.9416ZM71.9908 68.0133C71.8693 68.0133 71.7478 68.0357 71.6411 68.0927C71.4129 68.2192 71.2815 68.5019 71.2542 68.9359C71.1525 70.4909 73.883 70.7066 73.9103 70.7091C73.9475 70.7116 73.9847 70.729 74.0095 70.7562C74.6146 71.3911 74.8205 72.3013 74.5502 73.1346L72.1073 80.6217C74.4658 80.468 80.0012 79.9273 80.6435 79.042C80.6956 78.9725 80.6907 78.9229 80.6832 78.8882C80.6014 78.5708 80.4104 78.3054 80.1153 78.0946C78.6298 77.0356 79.1803 72.894 79.2051 72.7179C79.2101 72.6807 79.2299 72.646 79.2572 72.6212L81.7298 70.5256C82.1241 70.1908 82.201 69.6179 81.9084 69.1889L80.7031 67.433C80.4724 67.0982 80.4055 66.6816 80.522 66.2897L80.7031 65.6697L78.4934 64.1966C78.4934 64.1966 78.4711 64.1792 78.4611 64.1693L76.5168 61.8902C74.7858 62.3465 73.7714 62.9293 73.33 63.7229C72.9778 64.3553 72.9654 65.1365 73.2928 66.1856C73.8111 67.8521 72.9233 68.2142 72.8836 68.2291C72.8414 68.244 72.7943 68.2415 72.7546 68.2192C72.7497 68.2167 72.3628 68.0084 71.9883 68.0084L71.9908 68.0133Z" fill="#0F172A"/>
<path d="M72.3902 65.9871L75.5274 68.2042C76.8567 69.1442 78.6721 68.9855 79.8179 67.8273L80.7975 66.8378L84.2943 70.1238C84.7159 70.6173 84.6266 71.3638 84.1033 71.7457L81.3753 74.1017C80.5668 74.6895 79.4979 74.7738 78.6076 74.3175L74.0717 71.9962C74.0717 71.9962 74.9645 70.3743 72.8317 68.0927C70.6964 65.811 72.3902 65.9896 72.3902 65.9896V65.9871Z" fill="#0F172A"/>
<path d="M111.822 62.7904L105.93 65.7416C105.93 65.7416 106.604 76.2197 100.407 78.6178C97.4256 79.771 94.8191 79.585 92.9169 79.0816C90.0376 78.3178 87.0194 78.2558 84.1228 78.9551L72.4891 81.7625C66.0609 83.315 61.1703 88.5428 60.0617 95.0628C58.8763 102.034 57.5916 111.235 57.428 119.097C57.3982 120.545 58.8044 121.591 60.1808 121.138L90.2311 111.213L91.3743 92.4712C95.1316 92.7861 100.617 92.3472 107.532 89.334C122.149 82.9653 111.817 62.7904 111.817 62.7904H111.822Z" fill="#EFF5F5"/>
<path d="M59.5212 121.398C59.05 121.398 58.5912 121.247 58.1944 120.957C57.5967 120.515 57.2644 119.836 57.2793 119.094C57.4454 111.039 58.8045 101.565 59.9155 95.038C61.0365 88.4535 65.9593 83.1835 72.4569 81.6137L84.0907 78.8063C86.9625 78.1144 90.0278 78.1565 92.9592 78.9328C95.4045 79.5801 97.8919 79.4263 100.355 78.474C106.376 76.1452 105.786 65.8532 105.781 65.749C105.776 65.687 105.811 65.63 105.865 65.6027L111.758 62.6515C111.832 62.6143 111.924 62.6441 111.961 62.7185C112.018 62.8301 117.611 73.9157 114.647 82.2064C113.469 85.5048 111.098 87.9476 107.599 89.4728C100.533 92.5505 94.9804 92.9002 91.5233 92.6348L90.3899 111.22C90.3849 111.282 90.3453 111.337 90.2857 111.356L60.2355 121.281C59.9999 121.358 59.7593 121.398 59.5237 121.398H59.5212ZM88.2422 78.6203C86.8633 78.6203 85.4919 78.7815 84.1626 79.1014L72.5289 81.9088C66.1503 83.4489 61.3167 88.6222 60.2156 95.0876C59.1071 101.605 57.7505 111.061 57.5843 119.099C57.5719 119.741 57.8596 120.329 58.3755 120.711C58.8888 121.09 59.5311 121.192 60.1363 120.991L90.0898 111.099L91.2257 92.4612C91.2282 92.4191 91.248 92.3819 91.2778 92.3546C91.31 92.3273 91.3497 92.3149 91.3893 92.3174C94.7994 92.6026 100.357 92.2926 107.472 89.1926C110.89 87.7046 113.204 85.3188 114.354 82.1047C117.097 74.4291 112.378 64.2834 111.75 62.9938L106.083 65.8334C106.106 66.3467 106.175 68.7275 105.637 71.3117C104.833 75.1855 103.043 77.7597 100.459 78.7592C97.9366 79.7363 95.3847 79.8925 92.8749 79.2279C91.3497 78.8237 89.7873 78.6203 88.2348 78.6203H88.2422Z" fill="#0F172A"/>
<path d="M105.354 53.6268C105.414 53.2275 105.935 51.9181 106.23 51.4965L109.097 46.281C109.097 46.281 110.247 47.9575 109.955 49.267C111.239 48.89 112.316 48.7734 112.316 48.7734C112.316 48.7734 113.655 46.4844 114.032 46.0405C114.409 45.599 114.873 44.9393 115.507 44.7385C116.145 44.5376 116.933 44.8153 116.933 44.8153L114.821 50.6235L108.811 54.6263L112.492 64.5265L105.927 65.7417L105.349 53.6268H105.354Z" fill="#EFF5F5"/>
<path d="M105.93 65.8954C105.895 65.8954 105.863 65.883 105.835 65.8632C105.801 65.8359 105.781 65.7937 105.778 65.7516L105.203 53.6367C105.203 53.6367 105.203 53.6169 105.203 53.607C105.263 53.1953 105.791 51.8685 106.101 51.4171L108.965 46.2091C108.99 46.162 109.04 46.1322 109.092 46.1297C109.144 46.1297 109.196 46.1521 109.226 46.1967C109.27 46.2637 110.28 47.7492 110.148 49.0561C111.138 48.7833 111.976 48.6643 112.226 48.6321C112.452 48.2477 113.571 46.3529 113.92 45.9413C113.972 45.8792 114.024 45.8148 114.081 45.7478C114.436 45.3163 114.878 44.7806 115.468 44.5921C116.145 44.3788 116.958 44.6566 116.99 44.669C117.03 44.6814 117.06 44.7112 117.077 44.7484C117.095 44.7856 117.097 44.8277 117.082 44.8649L114.969 50.6731C114.959 50.7029 114.937 50.7302 114.91 50.7475L109 54.6833L112.638 64.4719C112.653 64.5141 112.65 64.5612 112.628 64.6008C112.606 64.6405 112.569 64.6678 112.524 64.6753L105.959 65.8905C105.959 65.8905 105.942 65.8929 105.932 65.8929L105.93 65.8954ZM105.506 53.6342L106.073 65.5606L112.288 64.4099L108.67 54.6783C108.645 54.6114 108.67 54.537 108.73 54.4973L114.699 50.5218L116.74 44.912C116.492 44.8476 115.981 44.7459 115.557 44.8798C115.054 45.0385 114.644 45.537 114.315 45.9363C114.258 46.0057 114.203 46.0727 114.151 46.1347C113.789 46.5637 112.462 48.823 112.45 48.8453C112.425 48.8875 112.383 48.9148 112.333 48.9197C112.323 48.9197 111.254 49.0388 109.999 49.4083C109.947 49.4232 109.89 49.4083 109.853 49.3736C109.813 49.3364 109.796 49.2818 109.808 49.2297C110.024 48.265 109.394 47.0622 109.107 46.5786L106.364 51.5659C106.364 51.5659 106.359 51.5758 106.356 51.5808C106.073 51.985 105.573 53.2374 105.508 53.6342H105.506Z" fill="#0F172A"/>
<path d="M49.0953 114.065C49.0953 114.065 50.3154 90.0483 65.9544 85.2048L70.1481 97.9025C70.1481 97.9025 55.2283 115.635 53.7949 121.16C52.3639 126.688 49.0928 114.065 49.0928 114.065H49.0953Z" fill="#EFF5F5"/>
<path d="M49.0953 114.218C49.0953 114.218 49.0903 114.218 49.0878 114.218C49.0035 114.213 48.939 114.142 48.944 114.057C48.9465 113.998 49.2763 107.956 51.5158 101.402C52.8326 97.5478 54.5463 94.2717 56.6023 91.6627C59.1815 88.3941 62.3112 86.172 65.9097 85.0585C65.9916 85.0337 66.0759 85.0783 66.1007 85.1602C66.1255 85.2395 66.0809 85.3263 65.999 85.3511C57.9836 87.8336 53.8569 95.4993 51.8059 101.496C49.5764 108.011 49.249 114.015 49.2466 114.075C49.2416 114.156 49.1746 114.218 49.0953 114.218Z" fill="#0F172A"/>
<path d="M53.7973 121.314C53.7799 121.314 53.765 121.311 53.7477 121.306C53.6683 121.279 53.6262 121.192 53.6534 121.113C55.7292 115.074 67.6357 100.715 67.7548 100.568C67.8093 100.504 67.9036 100.494 67.9705 100.549C68.035 100.603 68.0449 100.7 67.9904 100.764C67.8713 100.908 55.9995 115.225 53.9436 121.212C53.9213 121.277 53.8618 121.316 53.7998 121.316L53.7973 121.314Z" fill="#0F172A"/>
<path d="M83.622 79.6991L83.3393 77.9011C83.245 77.301 82.6126 76.6338 82.0918 76.9488C77.7369 79.5627 70.654 77.2613 69.4562 77.792C66.0784 79.2899 60.4339 87.8435 61.7086 87.1764C67.0853 84.3591 76.1522 86.348 80.2591 84.86C83.4112 83.7192 83.622 79.7016 83.622 79.7016V79.6991Z" fill="#0F172A"/>
<path d="M78.4436 98.6836C78.3692 98.6836 78.3047 98.6315 78.2923 98.5546L75.8049 83.2009C75.7925 83.1166 75.847 83.0397 75.9313 83.0248C76.0157 83.0124 76.0925 83.067 76.1074 83.1513L78.5949 98.5051C78.6073 98.5894 78.5527 98.6663 78.4684 98.6811C78.4609 98.6811 78.451 98.6811 78.4436 98.6811V98.6836Z" fill="#0F172A"/>
<path d="M82.1636 95.3208C82.0967 95.3208 82.0347 95.2761 82.0173 95.2092L78.6966 82.9406C78.6743 82.8587 78.7214 82.7744 78.8032 82.7546C78.8851 82.7322 78.9694 82.7794 78.9892 82.8612L82.31 95.1298C82.3323 95.2117 82.2852 95.296 82.2033 95.3158C82.1909 95.3183 82.176 95.3208 82.1636 95.3208Z" fill="#0F172A"/>
<path d="M78.3667 98.2397C78.1063 98.2943 77.9228 98.4778 77.96 98.6539L78.2824 100.204C78.3196 100.377 78.5602 100.474 78.8206 100.42C79.081 100.365 79.2645 100.182 79.2273 100.005L78.9049 98.4555C78.8677 98.2819 78.6271 98.1852 78.3667 98.2397Z" fill="#0F172A"/>
<path d="M82.0941 94.7974C81.8362 94.8693 81.6675 95.0677 81.7171 95.2388L82.1437 96.7616C82.1908 96.9327 82.4388 97.012 82.6968 96.9401C82.9547 96.8682 83.1233 96.6698 83.0762 96.4987L82.6496 94.9759C82.6025 94.8048 82.3545 94.7255 82.0966 94.7974H82.0941Z" fill="#0F172A"/>
</g>
<path d="M75.5792 113.921C73.3348 113.921 71.1053 113.519 69.0022 112.738C65.56 111.458 62.4624 109.159 60.213 105.943C60.1262 105.819 60.0395 105.692 59.9551 105.566C59.9551 105.566 59.9526 105.561 59.9502 105.558C57.8893 102.453 56.8229 98.892 56.8229 95.2488C56.8229 94.0063 56.9469 92.7514 57.1998 91.5065C58.1894 86.606 61.0265 82.3825 65.1929 79.6173C65.1929 79.6173 65.1979 79.6148 65.2004 79.6123C65.2004 79.6123 65.2053 79.6099 65.2078 79.6074C65.2078 79.6074 65.2128 79.6049 65.2152 79.6024C67.6432 77.9954 70.3265 76.9959 73.1934 76.6363C73.2777 76.6264 73.3546 76.6859 73.3645 76.7678C73.3745 76.8521 73.3149 76.9265 73.2331 76.9389C73.2108 76.9414 73.1885 76.9439 73.1661 76.9463C70.3613 77.3109 67.7374 78.2955 65.364 79.8703C61.5151 82.4272 58.8168 86.2464 57.6983 90.698C57.6983 90.7005 57.6983 90.7054 57.6983 90.7079C56.4335 95.7299 57.3511 101.084 60.2155 105.395C65.8328 113.851 77.283 116.163 85.7398 110.546C85.7398 110.546 85.7448 110.546 85.7448 110.543C85.7448 110.543 85.7472 110.543 85.7497 110.541C85.7497 110.541 85.7497 110.541 85.7522 110.541C91.3372 106.823 94.467 100.261 93.8966 93.612C93.8693 93.2995 93.8346 92.987 93.7924 92.6746L93.78 92.5828C93.7775 92.558 93.7726 92.5332 93.7701 92.5109C93.7701 92.5034 93.7701 92.496 93.7701 92.4886C93.7701 92.4142 93.8246 92.3497 93.9015 92.3373C93.9858 92.3249 94.0627 92.3819 94.0751 92.4662C94.0826 92.5233 94.0925 92.5828 94.0999 92.6398V92.6448C94.1074 92.7043 94.1148 92.7638 94.1222 92.8209C94.2239 93.6145 94.276 94.4131 94.2735 95.2067C94.2735 97.3395 93.909 99.4599 93.1922 101.479C93.0385 101.913 92.8674 102.344 92.6814 102.768C92.6094 102.932 92.535 103.093 92.4606 103.252C92.4606 103.252 92.4606 103.257 92.4582 103.257C92.4582 103.257 92.4582 103.259 92.4582 103.262C92.044 104.132 91.5653 104.965 91.0272 105.757C91.0272 105.759 91.0247 105.762 91.0222 105.764C89.6781 107.736 87.9817 109.415 85.9853 110.756C85.9853 110.756 85.9828 110.756 85.9804 110.759C85.9804 110.759 85.9804 110.759 85.9779 110.759C85.9556 110.774 85.9357 110.789 85.9134 110.801C82.7365 112.911 79.1405 113.921 75.5866 113.921H75.5792Z" fill="#0F172A"/>
<path d="M25.7507 70.399L24.2677 78.0499C24.2677 78.0499 37.9747 82.0005 44.1152 75.3814L42.3172 70.399H25.7507Z" fill="#0F172A"/>
<path d="M2.99674 51.6502L6.23811 53.3763C6.10667 54.8296 6.09427 56.2729 6.20587 57.6965L2.9521 59.3829C1.34257 60.2161 0.526648 62.0563 0.98545 63.8097C1.44425 65.563 3.05874 66.7659 4.87163 66.7014L8.54452 66.5749C9.15212 67.8819 9.86637 69.1367 10.6823 70.3247L8.70324 73.4197C7.72612 74.9474 7.93692 76.9463 9.21412 78.2359C10.4888 79.5255 12.4877 79.7586 14.0253 78.7989L17.1328 76.8595C18.3009 77.6804 19.5483 78.407 20.8677 79.0345L20.7015 82.7024C20.6197 84.5128 21.8027 86.1397 23.5511 86.6183C25.2995 87.097 27.1471 86.3009 27.9977 84.7013L29.7238 81.4599C31.1771 81.5914 32.6205 81.6013 34.044 81.4897L35.7304 84.7435C36.5637 86.353 38.4038 87.1689 40.1572 86.7101C41.9106 86.2513 43.1134 84.6368 43.0489 82.8239L42.9224 79.151C44.2294 78.5434 45.4843 77.8292 46.6722 77.0133L49.7673 78.9923C51.2949 79.9694 53.2938 79.7562 54.5834 78.4814C55.873 77.2067 56.1062 75.2078 55.1464 73.6702L53.207 70.5628C54.0279 69.3947 54.7546 68.1472 55.382 66.8279L59.0499 66.994C60.8603 67.0759 62.4872 65.8929 62.9659 64.1445C63.4445 62.3961 62.6484 60.5485 61.0463 59.6978L57.805 57.9717C57.9364 56.5185 57.9488 55.0751 57.8372 53.6516L61.091 51.9652C62.7005 51.1319 63.5164 49.2917 63.0576 47.5383C62.5988 45.785 60.9843 44.5822 59.1715 44.6466L55.4986 44.7731C54.891 43.4662 54.1767 42.2138 53.3608 41.0233L55.3398 37.9283C56.317 36.4006 56.1037 34.4017 54.829 33.1121C53.5542 31.8225 51.5553 31.5894 50.0177 32.5492L46.9103 34.4885C45.7422 33.6676 44.4948 32.941 43.1779 32.3135L43.344 28.6456C43.4259 26.8352 42.2429 25.2083 40.4945 24.7297C38.7461 24.251 36.8985 25.0471 36.0478 26.6492L34.3218 29.8906C32.8685 29.7591 31.4251 29.7492 30.0016 29.8583L28.3152 26.6046C27.4819 24.995 25.6417 24.1791 23.8883 24.6379C22.135 25.0967 20.9322 26.7112 20.9967 28.5241L21.1231 32.197C19.8162 32.8046 18.5613 33.5188 17.3734 34.3348L14.2783 32.3557C12.7506 31.3786 10.7517 31.5919 9.46213 32.8666C8.17252 34.1413 7.9394 36.1402 8.89916 37.6778L10.8385 40.7853C10.0176 41.9534 9.29101 43.2008 8.66356 44.5202L4.99563 44.354C3.18522 44.2722 1.55833 45.4551 1.07969 47.2035C0.601048 48.9519 1.39713 50.7995 2.99922 51.6502H2.99674ZM12.1678 50.2391C15.1711 39.2749 26.4924 32.8195 37.4565 35.8228C48.4206 38.8261 54.8761 50.1473 51.8728 61.1114C48.8695 72.0756 37.5482 78.531 26.5841 75.5277C15.62 72.5244 9.16452 61.2032 12.1678 50.2391Z" fill="#EFF5F5"/>
<path d="M39.1577 86.9903C37.6821 86.9903 36.3032 86.1793 35.594 84.8128L33.9547 81.6484C32.5981 81.75 31.2043 81.7401 29.8106 81.6186L28.1316 84.7707C27.2413 86.4447 25.3391 87.2656 23.5089 86.7646C21.6786 86.2637 20.4609 84.5897 20.5477 82.6949L20.7089 79.1262C19.4491 78.5186 18.2438 77.8192 17.1278 77.0405L14.1047 78.9278C12.4951 79.9322 10.4392 79.6916 9.10496 78.3425C7.77072 76.9934 7.55248 74.935 8.57424 73.3354L10.4987 70.3246C9.72497 69.1863 9.03552 67.9761 8.44776 66.7286L4.87655 66.8526C2.97934 66.9171 1.32021 65.6821 0.839088 63.8468C0.357966 62.0116 1.19869 60.1194 2.88262 59.2464L6.04711 57.6071C5.94543 56.2506 5.95535 54.8568 6.07687 53.463L2.92478 51.7841C1.25077 50.8913 0.429886 48.9916 0.930848 47.1613C1.43181 45.3311 3.10582 44.1134 5.00055 44.2002L8.56928 44.3614C9.1744 43.1016 9.87625 41.8963 10.655 40.7803L8.76768 37.7571C7.76328 36.1476 8.00384 34.0917 9.35296 32.7574C10.7021 31.4232 12.7605 31.2049 14.3601 32.2267L17.3708 34.1512C18.5116 33.375 19.7194 32.688 20.9669 32.1002L20.8429 28.529C20.7784 26.6318 22.0134 24.9727 23.8486 24.4916C25.6838 24.0104 27.5761 24.8512 28.449 26.5351L30.0883 29.6996C31.4474 29.5979 32.8387 29.6078 34.2324 29.7293L35.9114 26.5772C36.8017 24.9032 38.7039 24.0824 40.5341 24.5833C42.3644 25.0843 43.5821 26.7583 43.4953 28.653L43.3341 32.2217C44.5939 32.8269 45.7967 33.5287 46.9152 34.3074L49.9383 32.4201C51.5479 31.4157 53.6038 31.6563 54.938 33.0054C56.2723 34.3546 56.4905 36.413 55.4688 38.0126L53.5443 41.0233C54.3205 42.1641 55.0075 43.3719 55.5952 44.6193L59.1665 44.4953C61.0661 44.4308 62.7228 45.6659 63.2039 47.5011C63.685 49.3363 62.8443 51.2285 61.1604 52.1015L57.9959 53.7408C58.0976 55.0974 58.0876 56.4911 57.9661 57.8849L61.1182 59.5639C62.7922 60.4542 63.6131 62.3564 63.1122 64.1866C62.6112 66.0169 60.9347 67.2345 59.0425 67.1477L55.4737 66.9865C54.8661 68.2489 54.1668 69.4517 53.388 70.5677L55.2753 73.5908C56.2797 75.2003 56.0392 77.2563 54.69 78.5905C53.3409 79.9247 51.2825 80.143 49.6829 79.1212L46.6722 77.1967C45.5338 77.9705 44.3236 78.6599 43.0761 79.2477L43.2001 82.8189C43.2646 84.7161 42.0296 86.3753 40.1944 86.8564C39.8497 86.9481 39.5 86.9903 39.1577 86.9903ZM34.0415 81.3359C34.0985 81.3359 34.1506 81.3681 34.1779 81.4177L35.8643 84.6715C36.6703 86.2289 38.4212 87.0052 40.1175 86.5613C41.8138 86.1173 42.9571 84.5822 42.8976 82.8288L42.7711 79.1559C42.7711 79.0939 42.8033 79.0394 42.8604 79.0121C44.1549 78.4095 45.4098 77.6952 46.5878 76.8867C46.6374 76.852 46.7044 76.852 46.7565 76.8843L49.8515 78.8633C51.3296 79.8082 53.2318 79.6073 54.4792 78.3723C55.7267 77.1397 55.9474 75.2375 55.0199 73.7495L53.0805 70.6421C53.0483 70.59 53.0508 70.523 53.0855 70.4734C53.8964 69.3202 54.6231 68.0728 55.248 66.7609C55.2753 66.7063 55.3299 66.6716 55.3919 66.6741L59.0598 66.8402C60.8107 66.9196 62.3582 65.7937 62.822 64.1023C63.2858 62.4109 62.5269 60.6526 60.9793 59.8292L57.738 58.1031C57.6834 58.0734 57.6512 58.0163 57.6586 57.9543C57.7901 56.5085 57.8 55.0626 57.6884 53.659C57.6834 53.597 57.7156 53.5399 57.7702 53.5126L61.024 51.8262C62.5814 51.0202 63.3577 49.2693 62.9138 47.573C62.4698 45.8767 60.9297 44.7334 59.1813 44.7954L55.5084 44.9219C55.444 44.9219 55.3894 44.8896 55.3646 44.8326C54.762 43.538 54.0477 42.2831 53.2392 41.1051C53.2045 41.0555 53.2045 40.9886 53.2368 40.9365L55.2158 37.8414C56.1607 36.3634 55.9598 34.4612 54.7248 33.2137C53.4922 31.9663 51.59 31.7456 50.102 32.6731L46.9946 34.6125C46.9425 34.6447 46.8755 34.6422 46.8259 34.6075C45.6727 33.7966 44.4228 33.0699 43.1133 32.4449C43.0588 32.4177 43.0241 32.3606 43.0265 32.3011L43.1927 28.6332C43.2721 26.8823 42.1461 25.3348 40.4548 24.871C38.7634 24.4072 37.0051 25.1661 36.1817 26.7136L34.4556 29.955C34.4259 30.0096 34.3688 30.0418 34.3068 30.0344C32.8635 29.9029 31.4176 29.893 30.0115 30.0046C29.9495 30.0096 29.8924 29.9773 29.8651 29.9228L28.1787 26.669C27.3727 25.1116 25.6243 24.3353 23.9255 24.7792C22.2292 25.2232 21.0859 26.7583 21.1479 28.5117L21.2744 32.1845C21.2744 32.2465 21.2421 32.3011 21.1851 32.3284C19.8905 32.931 18.6356 33.6453 17.4576 34.4538C17.408 34.4885 17.3411 34.4885 17.289 34.4562L14.1939 32.4772C12.7159 31.5323 10.8137 31.7332 9.56625 32.9682C8.3188 34.2008 8.09808 36.103 9.0256 37.591L10.965 40.6984C10.9972 40.7505 10.9947 40.8175 10.96 40.8671C10.149 42.0203 9.42241 43.2702 8.79744 44.5796C8.77016 44.6342 8.71312 44.6689 8.6536 44.6664L4.98567 44.5003C3.23478 44.4209 1.68725 45.5468 1.22349 47.2382C0.759728 48.9296 1.51861 50.6879 3.06614 51.5113L6.30751 53.2374C6.36207 53.2671 6.39431 53.3242 6.38687 53.3862C6.25543 54.832 6.24551 56.2754 6.35711 57.6815C6.36207 57.7435 6.32983 57.8006 6.27527 57.8279L3.0215 59.5143C1.46405 60.3203 0.687807 62.0687 1.13173 63.7675C1.57565 65.4638 3.11574 66.6071 4.86414 66.5476L8.53704 66.4211C8.60152 66.4211 8.65608 66.4533 8.68088 66.5104C9.28352 67.8049 9.99777 69.0598 10.8063 70.2378C10.841 70.2874 10.841 70.3544 10.8087 70.4065L8.82968 73.5015C7.8848 74.9796 8.08568 76.8818 9.32072 78.1292C10.5533 79.3767 12.4555 79.5974 13.9435 78.6699L17.0509 76.7305C17.103 76.6983 17.17 76.7007 17.2196 76.7355C18.3728 77.5464 19.6202 78.2731 20.9321 78.898C20.9867 78.9253 21.0214 78.9823 21.0189 79.0419L20.8528 82.7098C20.7734 84.4607 21.8993 86.0082 23.5907 86.472C25.2821 86.9357 27.0404 86.1769 27.8638 84.6293L29.5898 81.388C29.6196 81.3334 29.6766 81.3011 29.7386 81.3086C31.1845 81.44 32.6279 81.45 34.034 81.3384C34.039 81.3384 34.0415 81.3384 34.0464 81.3384L34.0415 81.3359ZM32.0525 76.4205C30.2148 76.4205 28.3647 76.175 26.5444 75.674C21.2025 74.2108 16.7484 70.7561 14.0055 65.9449C11.2626 61.1337 10.5582 55.5413 12.019 50.1993C13.4822 44.8574 16.9368 40.4033 21.7481 37.6604C26.5593 34.9175 32.1517 34.2107 37.4936 35.6739C42.8356 37.1371 47.2897 40.5918 50.0326 45.4055C52.7755 50.2167 53.4798 55.8091 52.0191 61.1511C50.5559 66.493 47.1012 70.9471 42.29 73.69C39.1181 75.4979 35.6064 76.4205 32.0525 76.4205ZM31.988 35.235C28.4862 35.235 25.0266 36.1451 21.9018 37.9258C17.16 40.629 13.755 45.0161 12.3141 50.2787C10.8732 55.5413 11.5676 61.0519 14.2708 65.7936C16.974 70.5354 21.3612 73.9405 26.6238 75.3814C31.8863 76.8223 37.3969 76.1279 42.1387 73.4246C46.8805 70.7214 50.2855 66.3343 51.7264 61.0717C53.1673 55.8091 52.4729 50.2985 49.7697 45.5568C47.0665 40.815 42.6793 37.4099 37.4168 35.969C35.6237 35.478 33.8009 35.235 31.988 35.235Z" fill="#0F172A"/>
<path d="M5.71473 36.5668C5.71473 36.5668 5.39729 32.5418 5.25097 31.458C5.08481 30.223 6.87538 31.5151 7.19778 35.312L5.71473 36.5668Z" fill="#EFF5F5"/>
<path d="M5.71235 36.7181C5.69251 36.7181 5.67267 36.7131 5.65283 36.7057C5.60075 36.6834 5.56355 36.6338 5.55859 36.5767C5.55611 36.537 5.23867 32.5442 5.09483 31.4753C5.05763 31.1976 5.10475 31.0091 5.23619 30.9099C5.29323 30.8677 5.41971 30.8057 5.61315 30.8925C6.19843 31.1554 7.12596 32.6955 7.34668 35.2946C7.35164 35.3442 7.3318 35.3913 7.29212 35.4235L5.80907 36.6784C5.78179 36.7032 5.74707 36.7156 5.70987 36.7156L5.71235 36.7181ZM5.42715 31.1554C5.42715 31.1554 5.42219 31.1554 5.41971 31.1554C5.40979 31.1629 5.37259 31.2348 5.39987 31.4357C5.52139 32.3409 5.76443 35.307 5.84131 36.2568L7.03668 35.245C6.81844 32.8592 6.00995 31.5026 5.54619 31.205C5.48171 31.1629 5.44203 31.1554 5.42715 31.1554Z" fill="#0F172A"/>
<path d="M3.5398 55.2165C3.5398 55.2165 5.94293 42.0352 5.97269 41.5963C5.99501 41.2788 5.95037 40.9614 5.84621 40.6613C5.53621 39.7834 4.89637 37.9085 4.89141 37.3827C4.88397 36.8446 5.34773 36.4329 5.55357 36.2791C5.67509 36.1874 5.79165 36.0882 5.90821 35.989L6.98702 35.0565C7.25486 34.8358 7.3863 34.4737 7.75582 34.5282C8.46014 34.6324 8.66846 35.8402 8.66846 35.8402C8.66846 35.8402 9.35047 35.302 9.72247 35.5574C10.0945 35.8154 10.7194 37.6927 9.83655 39.6197C8.95366 41.5491 8.69326 40.6638 8.6263 42.6651C8.59902 43.4637 8.73046 51.0451 8.73046 51.0451C8.73046 51.6725 9.40007 52.0768 9.95559 51.7817L14.7346 49.2521L16.3267 57.3419L7.80294 59.2862C5.33285 59.8491 3.09092 57.7064 3.54228 55.214L3.5398 55.2165Z" fill="#EFF5F5"/>
<path d="M7.0119 59.5317C6.07446 59.5317 5.16429 59.1746 4.46989 58.5099C3.57213 57.6519 3.17037 56.4119 3.39109 55.1892C4.22189 50.6334 5.79918 41.9261 5.8215 41.5864C5.84134 41.2912 5.80166 40.9961 5.70246 40.7134C5.34534 39.6991 4.74517 37.9209 4.74021 37.3877C4.73277 36.7801 5.24365 36.3263 5.4619 36.1601C5.58342 36.0683 5.69998 35.9691 5.8091 35.8749L6.8879 34.9424C6.9623 34.8804 7.02678 34.806 7.08878 34.7341C7.25246 34.5431 7.43846 34.3274 7.77823 34.377C8.38335 34.4662 8.66111 35.2028 8.76527 35.5872C9.02567 35.426 9.48199 35.2078 9.80935 35.4334C10.2855 35.7633 10.8559 37.7622 9.97552 39.6867C9.62335 40.453 9.37039 40.7853 9.18439 41.0259C8.91903 41.3706 8.81983 41.4996 8.78015 42.6726C8.75287 43.4588 8.88431 50.9682 8.88431 51.0451C8.88431 51.2882 9.00831 51.5064 9.21415 51.6304C9.41999 51.7544 9.67047 51.7618 9.88375 51.6478L14.6627 49.1181C14.7049 49.0958 14.757 49.0933 14.7991 49.1157C14.8438 49.1355 14.8735 49.1777 14.8835 49.2248L16.4756 57.3146C16.4905 57.3964 16.4409 57.4733 16.3591 57.4931L7.83527 59.4375C7.56247 59.4995 7.2847 59.5292 7.0119 59.5292V59.5317ZM3.69117 55.2438C3.48781 56.3647 3.85733 57.5031 4.68069 58.2892C5.50406 59.0754 6.65726 59.3953 7.76583 59.1423L16.1458 57.2303L14.6231 49.4852L10.0276 51.9181C9.72007 52.0818 9.35551 52.0718 9.05791 51.8908C8.75783 51.7098 8.57927 51.3948 8.57927 51.0451C8.57431 50.7376 8.44783 43.4538 8.47511 42.6602C8.51727 41.4475 8.62143 41.2565 8.94383 40.8374C9.11991 40.6067 9.36295 40.2918 9.70023 39.5577C10.5881 37.6183 9.9036 35.8674 9.63823 35.6839C9.42743 35.5376 8.95871 35.8079 8.76527 35.9592C8.72311 35.9914 8.66607 36.0014 8.61647 35.9815C8.56687 35.9617 8.52967 35.917 8.51975 35.865C8.46767 35.5599 8.22215 34.749 7.73607 34.677C7.5699 34.6522 7.48062 34.7465 7.3219 34.93C7.24998 35.0118 7.17806 35.0986 7.0863 35.173L6.00998 36.1031C5.89838 36.1998 5.77686 36.3039 5.6479 36.4007C5.46438 36.5395 5.04029 36.9115 5.04525 37.3827C5.05021 37.7349 5.40238 38.9427 5.99014 40.6117C6.10422 40.9341 6.14886 41.2689 6.12654 41.6062C6.09678 42.0476 3.79037 54.7031 3.69117 55.2413V55.2438Z" fill="#0F172A"/>
<path d="M7.09373 39.4237C6.95237 39.4237 6.82589 39.3915 6.72669 39.3394C6.45141 39.198 6.31501 38.8955 6.37205 38.5508C6.49853 37.7919 7.00197 37.3802 7.02429 37.3628C7.09125 37.3107 7.18549 37.3207 7.23757 37.3876C7.28965 37.4546 7.27973 37.5488 7.21277 37.6009C7.20781 37.6034 6.77877 37.9605 6.67213 38.6003C6.63741 38.8161 6.70685 38.9872 6.86309 39.0666C7.08133 39.1782 7.51781 39.1286 8.02126 38.6202C8.84958 37.7869 8.50486 35.8079 8.4999 35.788C8.48502 35.7062 8.53958 35.6268 8.6239 35.6119C8.70822 35.5971 8.7851 35.6516 8.79998 35.7359C8.81486 35.8227 9.17446 37.8935 8.23702 38.8384C7.81045 39.27 7.40621 39.4237 7.09125 39.4237H7.09373Z" fill="#0F172A"/>
<path d="M58.5984 78.0425C57.465 77.4002 57.0137 76.8819 56.5946 75.8154C56.5946 75.8154 54.2584 68.4101 52.4331 63.7651C51.7015 61.9051 50.0672 58.4231 48.4031 54.9858L42.4957 58.2843C42.4337 58.319 42.3742 58.3587 42.3171 58.4008C45.2163 63.2492 50.5409 72.1351 51.1063 72.956C51.1063 72.956 54.0054 77.2415 53.8641 79.466C53.7748 80.8722 54.3229 83.4638 56.3986 84.9196C56.8326 85.2246 57.3981 84.7559 57.1823 84.2748C57.1798 84.2673 57.1749 84.2599 57.1724 84.2524C56.85 83.568 56.2746 82.7049 56.2746 82.7049C56.2746 82.7049 57.408 82.7148 58.5934 83.6498C59.7789 84.5848 62.2986 86.2613 62.8194 85.6983C63.7147 84.7336 63.1815 80.6465 58.5984 78.045V78.0425Z" fill="#EFF5F5"/>
<path d="M62.4971 85.9587C61.2918 85.9587 58.6282 83.8706 58.4993 83.7689C57.7305 83.1638 56.979 82.9579 56.5773 82.891C56.7757 83.2034 57.0956 83.7292 57.3114 84.1855L57.3238 84.2103C57.4502 84.4955 57.3783 84.808 57.1353 85.0089C56.8922 85.2098 56.5698 85.2247 56.3144 85.0436C54.0774 83.4762 53.636 80.7036 53.7153 79.4562C53.8517 77.3085 51.0121 73.085 50.9824 73.0404C50.4194 72.2244 45.2312 63.5667 42.1882 58.4777C42.1486 58.4108 42.1659 58.324 42.2279 58.2769C42.2924 58.2273 42.3569 58.1851 42.4238 58.1479L48.3312 54.8495C48.3684 54.8296 48.4106 54.8247 48.4503 54.8371C48.49 54.8495 48.5247 54.8792 48.542 54.9164C50.593 59.1523 51.9496 62.1085 52.577 63.7056C54.3825 68.3035 56.7186 75.6915 56.7409 75.7659C57.1501 76.805 57.5842 77.2861 58.6729 77.9061C62.4375 80.0464 63.1493 82.9232 63.2783 83.754C63.4171 84.6493 63.2857 85.4131 62.9286 85.7975C62.8269 85.9067 62.6781 85.9563 62.4946 85.9563L62.4971 85.9587ZM56.2722 82.5512C56.3218 82.5512 57.4726 82.5735 58.6853 83.5308C60.3072 84.808 62.3557 85.9711 62.7054 85.5942C62.9955 85.2817 63.0997 84.5972 62.9757 83.8061C62.8517 83.01 62.1672 80.2498 58.5216 78.1765C57.3734 77.5242 56.8897 76.9861 56.4508 75.8725C56.4235 75.7882 54.0923 68.4102 52.2893 63.8222C51.6718 62.2498 50.34 59.3507 48.3337 55.1992L42.5677 58.4182C42.5528 58.4281 42.5354 58.4356 42.5206 58.4455C45.571 63.5469 50.6773 72.0682 51.2328 72.8692C51.3544 73.0478 54.1593 77.2241 54.0179 79.476C53.9435 80.6639 54.3601 83.3051 56.488 84.7931C56.6591 84.9122 56.8327 84.8601 56.9393 84.7733C57.046 84.6865 57.1278 84.5253 57.0435 84.3368L57.0361 84.3194C56.7211 83.6523 56.1532 82.7992 56.1482 82.7918C56.116 82.7446 56.1135 82.6851 56.1408 82.6355C56.1681 82.5859 56.2201 82.5562 56.2747 82.5562L56.2722 82.5512Z" fill="#0F172A"/>
<path d="M12.3709 48.823L13.6308 47.4094C15.7636 45.0409 18.4494 43.238 21.4478 42.1617L23.4963 41.4251C23.655 41.3681 35.3135 40.1702 39.2741 41.4797C41.7467 42.2981 44.9806 44.2101 49.3777 53.1183C49.7025 53.7755 49.4421 54.6088 48.7998 54.966L42.3518 58.5669C41.7913 58.8794 41.8037 59.5862 41.888 60.2236L43.8051 70.5975C43.9142 71.1927 43.6612 71.7978 43.1528 72.1251C41.5532 73.1568 36.8858 74.7589 26.6657 73.1147C24.2725 72.7303 22.3505 70.9273 21.8074 68.5639L19.935 60.4418C19.8184 59.7549 18.8785 59.4176 18.1494 59.2588C17.7402 59.1696 17.321 59.1621 16.9044 59.1894C16.024 59.2489 15.1907 58.7058 14.9105 57.8378L12.0585 50.5565C11.8278 49.9663 11.9493 49.2942 12.3734 48.823H12.3709Z" fill="#EFF5F5"/>
<path d="M34.6044 73.9703C32.4468 73.9703 29.8229 73.7769 26.6435 73.266C24.1784 72.8692 22.2217 71.0365 21.6587 68.5986L19.7863 60.4766C19.6772 59.8392 18.6951 59.5342 18.1173 59.4102C17.7651 59.3333 17.3832 59.3135 16.9145 59.3457C15.9473 59.4127 15.0619 58.8125 14.7643 57.8874L11.9148 50.6161C11.6593 49.9663 11.7932 49.2421 12.2595 48.7238L13.5169 47.3102C15.6596 44.9294 18.3851 43.1016 21.3958 42.0203L23.4443 41.2838C23.5187 41.2565 35.2864 40.0016 39.3214 41.3383C41.9254 42.1989 45.1742 44.2647 49.5142 53.0564C49.8763 53.788 49.5886 54.7056 48.8744 55.1049L42.4263 58.7059C41.9477 58.9737 41.9626 59.616 42.0395 60.2087L43.954 70.5752C44.0755 71.2373 43.7928 71.8995 43.2348 72.2591C42.4685 72.7526 40.0158 73.9753 34.6019 73.9753L34.6044 73.9703ZM17.3162 59.0233C17.6337 59.0233 17.9139 59.0531 18.1817 59.1101C18.9778 59.2837 19.955 59.6507 20.0864 60.4171L21.9588 68.5317C22.492 70.848 24.352 72.589 26.6931 72.9659C37.7416 74.7416 42.0246 72.6758 43.0736 71.9987C43.5275 71.7061 43.7581 71.1679 43.6589 70.6273L41.7419 60.2534C41.6501 59.5515 41.6426 58.7927 42.28 58.4355L48.728 54.8346C49.3009 54.5146 49.5316 53.7756 49.2414 53.1878C44.951 44.4979 41.7716 42.4667 39.2271 41.626C35.4104 40.3637 23.9676 41.4797 23.5361 41.5739L21.5 42.3055C18.5339 43.3695 15.853 45.17 13.745 47.5136L12.4876 48.9272C12.0983 49.3587 11.9892 49.9638 12.2024 50.5045L15.0545 57.7858C15.3124 58.5843 16.0688 59.0977 16.8971 59.0407C17.0459 59.0307 17.1848 59.0258 17.3187 59.0258L17.3162 59.0233Z" fill="#0F172A"/>
<path d="M33.885 58.1776C33.8527 58.1776 33.8205 58.1677 33.7932 58.1454C31.09 56.077 30.2815 53.8004 30.2493 53.7061C30.222 53.6268 30.2641 53.54 30.3435 53.5127C30.4229 53.4854 30.5097 53.5276 30.5369 53.6069C30.5444 53.6293 31.3504 55.8935 33.9767 57.9048C34.0437 57.9569 34.0561 58.0511 34.004 58.1181C33.9742 58.1578 33.9296 58.1776 33.8825 58.1776H33.885Z" fill="#0F172A"/>
<path d="M24.2675 57.8527C24.2203 57.8527 24.1757 57.8329 24.1459 57.7907C22.0975 55.0701 21.9288 52.662 21.9239 52.5628C21.9189 52.4785 21.9834 52.4066 22.0677 52.4016C22.1545 52.3967 22.2239 52.4612 22.2289 52.5455C22.2289 52.5703 22.4 54.9684 24.3915 57.6097C24.4411 57.6766 24.4287 57.7733 24.3617 57.8229C24.3344 57.8428 24.3022 57.8527 24.2699 57.8527H24.2675Z" fill="#0F172A"/>
<path d="M33.9376 46.881C27.4375 49.8123 23.5191 44.0289 23.5191 44.0289C23.41 43.9099 23.2909 43.8057 23.162 43.7165L23.2165 43.6966C23.2909 43.6693 23.3653 43.6421 23.4373 43.6148C26.3414 42.4938 28.1865 39.617 28.1146 36.5046L28.0749 34.7165L32.9357 34.6644C32.9357 34.6644 33.0647 41.2092 35.3066 41.2588L36.5466 41.4051C37.4741 43.5255 36.1176 45.8989 33.9376 46.8834V46.881Z" fill="#EFF5F5"/>
<path d="M30.3439 47.8581C26.0956 47.8581 23.5487 44.3415 23.3974 44.1282C23.3007 44.0215 23.1915 43.9273 23.0725 43.8455C23.0254 43.8132 23.0006 43.7562 23.008 43.6991C23.0155 43.6421 23.0551 43.595 23.1097 43.5751L23.1643 43.5553C23.2362 43.5305 23.3106 43.5032 23.3825 43.4759C26.1924 42.3897 28.0325 39.5898 27.9631 36.5096L27.9234 34.7215C27.9234 34.6818 27.9383 34.6421 27.9656 34.6124C27.9928 34.5826 28.0325 34.5653 28.0747 34.5653L32.9355 34.5132C33.0173 34.5132 33.0868 34.5801 33.0893 34.662C33.124 36.4426 33.5927 41.0679 35.3114 41.1051L36.5662 41.2514C36.6208 41.2588 36.6654 41.2911 36.6878 41.3407C37.7095 43.6768 36.1248 46.0626 34.0019 47.0199C32.6751 47.6176 31.4549 47.8556 30.3464 47.8556L30.3439 47.8581ZM23.4693 43.7686C23.5263 43.8207 23.5809 43.8727 23.6305 43.9298C23.6355 43.9347 23.6404 43.9397 23.6429 43.9471C23.6528 43.962 24.6299 45.3831 26.3759 46.4321C28.7071 47.8308 31.2293 47.935 33.8729 46.7446C35.8371 45.8592 37.3152 43.6843 36.4398 41.5465L35.289 41.4126C33.1116 41.3655 32.8214 35.84 32.7867 34.8207L28.2309 34.8678L28.2681 36.5022C28.3425 39.7113 26.423 42.6278 23.4941 43.7587C23.4867 43.7611 23.4792 43.7636 23.4693 43.7686Z" fill="#0F172A"/>
<path d="M28.097 34.9696L27.849 31.686C27.7275 30.0839 28.9749 28.7075 30.582 28.6728L34.803 28.5811C34.803 28.5811 35.1303 30.6395 36.2314 31.6116L35.7379 32.5367L35.2518 34.238C35.1452 34.61 34.8426 34.8902 34.4632 34.9621H31.9187L28.0995 34.9671L28.097 34.9696Z" fill="#EFF5F5"/>
<path d="M28.097 35.1233C28.0176 35.1233 27.9506 35.0613 27.9457 34.982L27.6977 31.6984C27.6357 30.88 27.906 30.0963 28.4566 29.4887C29.0071 28.8836 29.7611 28.5389 30.5795 28.5215L34.8004 28.4298C34.8748 28.4273 34.9418 28.4819 34.9542 28.5587C34.9567 28.5786 35.2865 30.575 36.3331 31.4975C36.3852 31.5447 36.4 31.6215 36.3678 31.6835L35.8817 32.5937L35.3981 34.2801C35.2741 34.7116 34.9269 35.0316 34.4904 35.1134C34.4805 35.1134 34.4706 35.1159 34.4632 35.1159H31.9187C31.8343 35.1159 31.7649 35.0464 31.7649 34.9646C31.7649 34.8803 31.8319 34.8108 31.9162 34.8108H34.4458C34.7608 34.7439 35.0137 34.5108 35.103 34.1958L35.5891 32.4945C35.5891 32.4945 35.5965 32.4747 35.6015 32.4647L36.038 31.6439C35.1228 30.761 34.7632 29.2011 34.6715 28.7373L30.5819 28.8266C29.8479 28.8415 29.1733 29.1515 28.6798 29.6946C28.1862 30.2377 27.9432 30.942 28.0002 31.6761L28.2482 34.9596C28.2557 35.044 28.1912 35.1159 28.1069 35.1233C28.1019 35.1233 28.0994 35.1233 28.0945 35.1233H28.097Z" fill="#0F172A"/>
<path d="M31.1451 42.8908C31.0087 42.8908 30.8574 42.8734 30.6937 42.8312C30.6119 42.8114 30.5623 42.7271 30.5821 42.6452C30.602 42.5634 30.6863 42.5138 30.7681 42.5336C31.4724 42.7122 31.8717 42.3452 31.8742 42.3402C31.9362 42.2832 32.0329 42.2856 32.09 42.3476C32.147 42.4096 32.1445 42.5064 32.0825 42.5634C32.0652 42.5808 31.7304 42.8883 31.1426 42.8883L31.1451 42.8908Z" fill="#0F172A"/>
<path d="M35.641 28.3331L33.5181 29.459C32.2732 30.1187 31.4176 31.3364 31.2216 32.7351C30.9488 34.6894 30.7157 38.0721 28.8532 40.9291C27.4123 43.1388 24.9819 44.5053 22.3482 44.6714C20.6121 44.7805 18.5612 45.4377 17.465 46.5463C17.465 46.5463 13.9756 41.9806 17.4799 37.9704C20.9866 33.9627 25.597 34.2231 26.5047 29.9674C27.3751 25.8953 32.3376 22.8796 35.8419 27.3312C36.0998 27.6585 36.0031 28.1372 35.6361 28.3331H35.641Z" fill="#0F172A"/>
<path d="M63.4445 37.4422C63.4445 37.4422 61.3539 37.5191 58.7672 37.5092C58.2241 37.5092 56.7634 35.7608 55.8284 36.0559C55.1563 36.2692 56.4286 37.4149 56.2525 37.4125C54.5959 37.405 53.1649 37.4001 52.6466 37.3976C52.2399 37.3976 52.1035 37.8117 52.2721 38.1813C52.5127 38.7095 53.0384 39.5106 53.9039 39.7908C55.4539 40.2893 58.4473 40.0661 59.3724 39.885C61.396 39.4932 62.9981 39.4634 62.9981 39.4634L63.4445 37.4422Z" fill="#EFF5F5"/>
<path d="M56.5798 40.2496C55.5977 40.2496 54.5809 40.1703 53.8567 39.9371C52.8449 39.6123 52.3142 38.6451 52.1331 38.2458C52.0141 37.9854 52.0215 37.7002 52.1505 37.5018C52.2571 37.3356 52.4382 37.2463 52.6465 37.2488C53.1375 37.2513 54.447 37.2562 55.9945 37.2637C55.9871 37.2562 55.9821 37.2463 55.9747 37.2389C55.7316 36.9239 55.3968 36.4949 55.496 36.1774C55.5233 36.0906 55.5952 35.9741 55.7837 35.9146C56.431 35.7112 57.242 36.3238 57.8942 36.8173C58.229 37.0702 58.6084 37.3579 58.7696 37.3604C61.3216 37.3703 63.4197 37.2934 63.442 37.2934C63.4891 37.2934 63.5337 37.3108 63.566 37.348C63.5957 37.3852 63.6081 37.4323 63.5982 37.4794L63.1518 39.5007C63.1369 39.5701 63.0749 39.6197 63.0055 39.6197C62.9906 39.6197 61.3885 39.6544 59.4045 40.0388C58.8961 40.138 57.7652 40.2521 56.5848 40.2521L56.5798 40.2496ZM52.6415 37.5514C52.5349 37.5514 52.4555 37.591 52.4059 37.6654C52.334 37.7771 52.334 37.9556 52.4084 38.1193C52.5746 38.4814 53.0532 39.3568 53.9485 39.647C55.4737 40.138 58.4621 39.9074 59.34 39.7363C61.0389 39.4064 62.4599 39.3295 62.8716 39.3147L63.2485 37.601C62.6682 37.6183 60.8702 37.6704 58.7622 37.6605C58.4993 37.6605 58.1472 37.3926 57.7032 37.0578C57.108 36.6065 56.364 36.046 55.868 36.2022C55.7936 36.227 55.7837 36.2543 55.7812 36.2642C55.7292 36.4279 56.0664 36.8619 56.2103 37.0479C56.3888 37.2761 56.4558 37.3629 56.3988 37.4745C56.3715 37.5315 56.312 37.5662 56.2475 37.5662C54.5908 37.5588 53.1599 37.5538 52.6415 37.5514Z" fill="#0F172A"/>
<path d="M59.9451 36.9412C61.7555 36.9883 66.0137 36.8395 67.6976 34.5876C68.5954 35.7111 69.4237 36.8916 70.3364 38.0001C70.5968 38.3176 70.9241 38.3672 71.2068 38.2605C71.6012 39.1087 71.9236 39.9866 72.2038 40.8819C67.6852 41.7375 61.8225 41.0729 59.8335 40.8026C59.4342 40.748 59.1366 40.4107 59.1341 40.0065L59.1143 37.7571C59.1093 37.3008 59.4863 36.9288 59.9426 36.9412H59.9451Z" fill="#0F172A"/>
<path d="M35.9438 11.6749L37.2904 12.3916C37.2359 12.9942 37.2309 13.5944 37.278 14.1871L35.9264 14.8865C35.2568 15.2337 34.9195 15.9975 35.1105 16.7266C35.3014 17.4558 35.9711 17.9543 36.725 17.9295L38.2502 17.8774C38.5031 18.4205 38.8007 18.9413 39.138 19.4348L38.3147 20.7219C37.9079 21.3568 37.9972 22.1876 38.5255 22.7233C39.0562 23.259 39.8845 23.3557 40.5244 22.9564L41.8164 22.1504C42.3025 22.4927 42.8208 22.7928 43.3664 23.0532L43.297 24.5784C43.2623 25.3298 43.7533 26.0068 44.48 26.2052C45.2066 26.4036 45.9729 26.0738 46.3276 25.4092L47.0443 24.0625C47.6469 24.1171 48.2471 24.122 48.8398 24.0749L49.5392 25.4265C49.8864 26.0961 50.6502 26.4334 51.3794 26.2424C52.1085 26.0515 52.607 25.3819 52.5822 24.628L52.5301 23.1028C53.0732 22.8498 53.594 22.5522 54.0875 22.2149L55.3747 23.0383C56.0095 23.445 56.8403 23.3557 57.376 22.8275C57.9117 22.2968 58.0084 21.4684 57.6091 20.8286L56.8031 19.5365C57.1454 19.0504 57.4455 18.5321 57.7059 17.9865L59.2311 18.0559C59.9825 18.0907 60.6596 17.5996 60.858 16.873C61.0564 16.1463 60.7265 15.38 60.0619 15.0254L58.7152 14.3086C58.7698 13.706 58.7748 13.1058 58.7276 12.5131L60.0792 11.8137C60.7488 11.4665 61.0861 10.7027 60.8952 9.97358C60.7042 9.24446 60.0346 8.74597 59.2807 8.77077L57.7555 8.82286C57.5025 8.27973 57.2049 7.75893 56.8676 7.26541L57.691 5.97828C58.0977 5.3434 58.0084 4.5126 57.4802 3.97691C56.9495 3.44123 56.1211 3.34451 55.4813 3.74379L54.1892 4.5498C53.7031 4.20755 53.1848 3.90747 52.6392 3.64707L52.7086 2.12187C52.7434 1.37042 52.2523 0.69338 51.5257 0.494979C50.799 0.296578 50.0327 0.62642 49.6781 1.29106L48.9613 2.63771C48.3587 2.58315 47.7585 2.57819 47.1658 2.62531L46.4665 1.2737C46.1193 0.6041 45.3554 0.266818 44.6263 0.457779C43.8972 0.64874 43.3987 1.31834 43.4235 2.07227L43.4756 3.59747C42.9324 3.85043 42.4116 4.14555 41.9181 4.48532L40.631 3.66195C39.9961 3.25523 39.1653 3.34451 38.6296 3.87275C38.0939 4.40348 37.9972 5.2318 38.3965 5.87164L39.2025 7.16373C38.8603 7.64981 38.5602 8.16813 38.2998 8.71373L36.7746 8.64429C36.0231 8.60957 35.3461 9.10062 35.1477 9.82726C34.9493 10.5539 35.2791 11.3202 35.9438 11.6749ZM39.7531 11.0896C41.0005 6.53381 45.7051 3.85291 50.2584 5.10036C54.8142 6.3478 57.4951 11.0524 56.2476 15.6057C55.0002 20.1615 50.2956 22.8424 45.7423 21.5949C41.1865 20.3475 38.5056 15.6429 39.7531 11.0896Z" fill="#EFF5F5"/>
<path d="M50.9676 26.4458C50.3228 26.4458 49.7176 26.0912 49.4076 25.4935L48.7529 24.2312C48.2222 24.2684 47.6791 24.2634 47.1335 24.2188L46.4639 25.4761C46.0745 26.2102 45.2412 26.5673 44.4402 26.3491C43.6391 26.1309 43.1059 25.3968 43.1431 24.5685L43.2076 23.1449C42.7166 22.9068 42.2478 22.6316 41.8089 22.3315L40.6036 23.0854C39.8993 23.5244 38.999 23.4202 38.4162 22.83C37.8334 22.2397 37.7367 21.3395 38.1856 20.6401L38.9544 19.4398C38.6543 18.9934 38.3865 18.5222 38.1534 18.0361L36.7273 18.0857C35.8965 18.1155 35.1699 17.5723 34.9616 16.7713C34.7508 15.9678 35.1178 15.1395 35.8569 14.7575L37.1192 14.1028C37.082 13.5721 37.0869 13.029 37.1316 12.4834L35.8742 11.8138C35.1401 11.4244 34.783 10.5911 35.0013 9.79007C35.2195 8.98903 35.9511 8.45583 36.7819 8.49303L38.2054 8.55751C38.4435 8.06646 38.7188 7.59774 39.0189 7.15878L38.265 5.95349C37.826 5.24917 37.9301 4.34893 38.5204 3.76613C39.1106 3.18332 40.0109 3.0866 40.7102 3.533L41.9106 4.30181C42.357 4.00173 42.8282 3.73389 43.3143 3.50076L43.2647 2.07476C43.2349 1.24395 43.778 0.517311 44.5791 0.308991C45.3826 0.0981897 46.2109 0.465231 46.5928 1.20427L47.2475 2.4666C47.7783 2.4294 48.3214 2.43436 48.867 2.479L49.5366 1.22163C49.926 0.487551 50.7592 0.13043 51.5603 0.348671C52.3613 0.566912 52.8945 1.30099 52.8573 2.12932L52.7929 3.55284C53.2839 3.79093 53.7526 4.06621 54.1916 4.36629L55.3969 3.61236C56.1012 3.1734 57.0014 3.27756 57.5842 3.86781C58.167 4.45805 58.2638 5.35829 57.8174 6.05765L57.0486 7.25798C57.3486 7.70438 57.6165 8.17558 57.8496 8.66167L59.2756 8.61207C60.1089 8.58479 60.833 9.12543 61.0414 9.92647C61.2522 10.73 60.8851 11.5583 60.1461 11.9402L58.8838 12.595C58.921 13.1257 58.916 13.6688 58.8714 14.2144L60.1287 14.884C60.8628 15.2734 61.2199 16.1067 61.0017 16.9077C60.7834 17.7087 60.0469 18.2419 59.221 18.2047L57.7975 18.1403C57.5594 18.6313 57.2842 19.1 56.9841 19.539L57.738 20.7443C58.177 21.4486 58.0728 22.3488 57.4826 22.9316C56.8923 23.5144 55.9921 23.6112 55.2927 23.1648L54.0924 22.396C53.646 22.696 53.1748 22.9639 52.6887 23.197L52.7383 24.623C52.7681 25.4538 52.2249 26.1805 51.4239 26.3888C51.2726 26.4285 51.1213 26.4483 50.97 26.4483L50.9676 26.4458ZM48.8422 23.9187C48.8992 23.9187 48.9513 23.9509 48.9786 24.0005L49.678 25.3521C49.9929 25.9622 50.6774 26.2648 51.342 26.0912C52.0067 25.9176 52.4531 25.3174 52.4308 24.6305L52.3787 23.1052C52.3787 23.0432 52.4109 22.9887 52.468 22.9614C53.0012 22.7134 53.5195 22.4183 54.0031 22.086C54.0527 22.0512 54.1197 22.0512 54.1717 22.0835L55.4589 22.9068C56.0367 23.2764 56.7832 23.197 57.2693 22.7159C57.7578 22.2323 57.8446 21.4883 57.4801 20.9055L56.6741 19.6134C56.6418 19.5613 56.6443 19.4944 56.679 19.4448C57.0138 18.9711 57.3114 18.4552 57.5694 17.9146C57.5966 17.86 57.6537 17.8253 57.7132 17.8278L59.2384 17.8972C59.9229 17.9295 60.5305 17.488 60.7115 16.8259C60.8926 16.1637 60.595 15.4767 59.9898 15.1519L58.6432 14.4351C58.5886 14.4054 58.5564 14.3483 58.5638 14.2863C58.6184 13.6911 58.6209 13.0959 58.5762 12.5181C58.5713 12.4561 58.6035 12.399 58.6581 12.3718L60.0097 11.6724C60.6198 11.3574 60.9223 10.673 60.7487 10.0083C60.5751 9.34367 59.9774 8.89727 59.288 8.91959L57.7628 8.97167C57.7008 8.97167 57.6462 8.93943 57.619 8.88239C57.371 8.34918 57.0758 7.83086 56.7435 7.34726C56.7088 7.29766 56.7088 7.2307 56.741 7.17862L57.5644 5.89149C57.9339 5.31365 57.8546 4.56717 57.3734 4.08109C56.8898 3.59252 56.1458 3.50572 55.563 3.87029L54.2709 4.67629C54.2189 4.70853 54.1519 4.70605 54.1023 4.67133C53.6261 4.33653 53.1128 4.03893 52.5721 3.78101C52.5176 3.75373 52.4829 3.69669 52.4853 3.63716L52.5548 2.11196C52.587 1.425 52.1456 0.819873 51.4834 0.638832C50.8212 0.457791 50.1343 0.752912 49.8094 1.36051L49.0927 2.70716C49.0629 2.76172 49.0034 2.79396 48.9439 2.78652C48.3487 2.73196 47.7535 2.72948 47.1756 2.77412C47.1136 2.77908 47.0566 2.74684 47.0293 2.69228L46.3299 1.34067C46.015 0.730592 45.3305 0.428031 44.6659 0.601632C44.0012 0.775233 43.5548 1.3754 43.5771 2.06236L43.6292 3.58756C43.6292 3.64956 43.597 3.70661 43.5399 3.73141C43.0067 3.97941 42.4909 4.27453 42.0048 4.60685C41.9552 4.64157 41.8882 4.64157 41.8362 4.60933L40.549 3.78597C39.9712 3.41644 39.2247 3.4958 38.7386 3.97693C38.2501 4.46053 38.1633 5.20453 38.5278 5.78733L39.3338 7.07942C39.3661 7.1315 39.3636 7.19846 39.3289 7.24806C38.9941 7.72422 38.6965 8.23758 38.4386 8.77823C38.4113 8.83279 38.3542 8.86751 38.2947 8.86503L36.7695 8.79559C36.0825 8.76335 35.4774 9.20479 35.2964 9.86695C35.1153 10.5291 35.4129 11.2161 36.0181 11.541L37.3647 12.2577C37.4193 12.2874 37.4515 12.3445 37.4441 12.4065C37.3895 13.0017 37.387 13.5969 37.4317 14.1747C37.4366 14.2367 37.4044 14.2938 37.3498 14.3211L35.9982 15.0204C35.3881 15.3354 35.0856 16.0199 35.2592 16.6845C35.4328 17.3491 36.0329 17.7955 36.7199 17.7732L38.2451 17.7211C38.3071 17.7211 38.3642 17.7534 38.389 17.8104C38.637 18.3436 38.9321 18.8619 39.2644 19.3456C39.2991 19.3952 39.2991 19.4621 39.2669 19.5142L38.4435 20.8013C38.074 21.3792 38.1534 22.1256 38.6345 22.6117C39.1181 23.1003 39.8621 23.1871 40.4449 22.8225L41.737 22.0165C41.789 21.9843 41.856 21.9868 41.9056 22.0215C42.3793 22.3563 42.8951 22.6539 43.4358 22.9118C43.4903 22.9391 43.5251 22.9961 43.5226 23.0556L43.4531 24.5809C43.4209 25.2678 43.8623 25.8729 44.5245 26.054C45.1867 26.235 45.8736 25.9399 46.196 25.3323L46.9128 23.9857C46.9425 23.9311 46.9995 23.8989 47.0615 23.9063C47.6568 23.9609 48.252 23.9633 48.8298 23.9187C48.8348 23.9187 48.8372 23.9187 48.8422 23.9187ZM48.0164 22.0562C47.2451 22.0562 46.4688 21.952 45.705 21.7437C41.0748 20.4764 38.3418 15.6801 39.6091 11.0499C40.8764 6.41974 45.6727 3.68676 50.3029 4.95405C52.5449 5.56909 54.4148 7.01742 55.5655 9.03863C56.7162 11.0574 57.0138 13.4059 56.3988 15.6479C55.7837 17.8898 54.3354 19.7597 52.3142 20.9104C50.9824 21.6693 49.5093 22.0562 48.0164 22.0562ZM39.9018 11.1293C38.6791 15.5958 41.3178 20.226 45.7843 21.4486C47.9494 22.0413 50.2136 21.7561 52.1629 20.6451C54.1122 19.534 55.5109 17.7311 56.1037 15.566C56.6964 13.401 56.4112 11.1367 55.3001 9.18743C54.1891 7.23814 52.3861 5.83941 50.2211 5.24669C45.7546 4.02405 41.1244 6.66278 39.9018 11.1293Z" fill="#0F172A"/>
<mask id="mask1_242_4307" style="mask-type:luminance" maskUnits="userSpaceOnUse" x="40" y="5" width="16" height="16">
<path d="M40.3458 13.3291C40.3458 9.10564 43.7707 5.68323 47.9917 5.68323C52.2127 5.68323 55.6376 9.10812 55.6376 13.3291C55.6376 17.5501 52.2127 20.9775 47.9917 20.9775C43.7707 20.9775 40.3458 17.5526 40.3458 13.3291Z" fill="white"/>
</mask>
<g mask="url(#mask1_242_4307)">
<path d="M54.08 18.7453C52.5325 20.221 50.4443 21.1311 48.1379 21.1435C45.8315 21.1559 43.7334 20.2656 42.171 18.8073C43.9665 18.2419 45.9853 17.917 48.1206 17.9071C50.2559 17.8947 52.2795 18.1997 54.08 18.7453Z" fill="#0F172A"/>
<path d="M43.0589 12.8678C43.8128 10.1497 45.3703 6.58343 48.2893 7.0224C51.0892 7.444 52.4061 10.5143 53.0137 12.8951C53.3807 14.3434 52.2771 15.7496 50.7817 15.757L45.3009 15.7868C43.7732 15.7942 42.6522 14.3409 43.0589 12.8678Z" fill="#0F172A"/>
<path d="M45.4745 9.70829L45.4794 9.68845L50.4568 9.65125C50.4568 9.65125 50.4568 9.65869 50.4593 9.66365C50.5238 9.91165 50.561 10.172 50.561 10.4448L50.5684 11.9006C50.5734 12.8753 50.1171 13.7358 49.4202 14.2393L49.44 18.0411C49.445 18.7975 48.8349 19.415 48.076 19.4175C47.3196 19.4225 46.7021 18.8124 46.6996 18.0535L46.6798 14.3062C45.9333 13.8201 45.4323 12.9373 45.4274 11.9254L45.4199 10.2812C45.4199 10.0828 45.4373 9.89181 45.4745 9.70581V9.70829Z" fill="#EFF5F5"/>
<path d="M48.0711 19.5712C47.6669 19.5712 47.2874 19.415 46.9998 19.1298C46.7096 18.8446 46.5509 18.4627 46.5484 18.056L46.5286 14.3508C46.5286 14.2665 46.5955 14.1971 46.6798 14.1971C46.7642 14.1971 46.8311 14.264 46.8336 14.3483L46.8534 18.0535C46.8534 18.3784 46.9824 18.6834 47.2155 18.9116C47.4462 19.1397 47.7487 19.2637 48.0711 19.2637C48.0711 19.2637 48.0761 19.2637 48.0786 19.2637C48.4035 19.2637 48.7085 19.1348 48.9367 18.9016C49.1648 18.671 49.2913 18.3635 49.2888 18.0386L49.269 14.3483C49.269 14.264 49.3359 14.1946 49.4203 14.1946C49.5046 14.1946 49.5715 14.2615 49.574 14.3459L49.5939 18.0361C49.5939 18.4428 49.4401 18.8272 49.1524 19.1149C48.8672 19.4051 48.4853 19.5638 48.0786 19.5663C48.0761 19.5663 48.0736 19.5663 48.0711 19.5663V19.5712Z" fill="#0F172A"/>
<path d="M47.9917 13.0662C47.6743 13.0662 47.3767 12.9397 47.1585 12.7066C47.1014 12.6446 47.1039 12.5479 47.1634 12.4908C47.2254 12.4338 47.3221 12.4363 47.3792 12.4958C47.5404 12.6669 47.7586 12.7587 47.9917 12.7587C47.9917 12.7587 47.9942 12.7587 47.9967 12.7587C48.2323 12.7587 48.4481 12.6619 48.6093 12.4908C48.6663 12.4288 48.763 12.4263 48.825 12.4834C48.887 12.5404 48.8895 12.6371 48.8325 12.6991C48.6192 12.9298 48.3141 13.0637 47.9992 13.0637H47.9942L47.9917 13.0662Z" fill="#0F172A"/>
<path d="M48.0017 14.8568C46.5062 14.8568 45.2861 13.5473 45.2786 11.9279L45.2712 10.2836C45.2662 9.52474 45.5365 8.81049 46.0276 8.26985C46.5236 7.72673 47.1858 7.42417 47.8926 7.42169C48.6465 7.41673 49.3533 7.73169 49.8865 8.30457C50.4172 8.87498 50.7123 9.63386 50.7148 10.4423L50.7223 11.8981C50.7272 13.0464 50.1097 14.1004 49.145 14.584C49.0706 14.6212 48.9788 14.5914 48.9391 14.517C48.9019 14.4426 48.9317 14.3508 49.0061 14.3112C49.8666 13.8796 50.4197 12.9323 50.4147 11.9006L50.4073 10.4448C50.4023 9.71322 50.137 9.02626 49.6608 8.51289C49.1846 8.00201 48.5547 7.72425 47.8926 7.72673C47.2726 7.72921 46.6898 7.99705 46.2533 8.47569C45.8118 8.9593 45.5713 9.60162 45.5762 10.2836L45.5837 11.9279C45.5911 13.3787 46.6749 14.5517 48.0017 14.5517C48.0066 14.5517 48.0116 14.5517 48.0141 14.5517C48.0984 14.5517 48.1654 14.6187 48.1678 14.703C48.1678 14.7873 48.1009 14.8568 48.0166 14.8568C48.0116 14.8568 48.0066 14.8568 48.0042 14.8568H48.0017Z" fill="#0F172A"/>
</g>
<path d="M48.0215 21.1634C47.208 21.1634 46.3797 21.0344 45.5662 20.7641C43.8054 20.1764 42.3125 18.9785 41.3577 17.3913C41.3155 17.3194 41.3378 17.2251 41.4097 17.183C41.4817 17.1408 41.5759 17.1631 41.6181 17.2351C42.5332 18.7603 43.9691 19.911 45.6605 20.4764C49.5715 21.7809 53.8148 19.6605 55.1192 15.7495C56.4237 11.8386 54.3033 7.59526 50.3923 6.29077C48.4976 5.65837 46.4714 5.80221 44.6834 6.69501C42.8977 7.58782 41.566 9.12294 40.9336 11.0177C40.4996 12.3197 40.4301 13.711 40.7352 15.0427C40.755 15.1246 40.7029 15.2064 40.6211 15.2262C40.5393 15.2461 40.4574 15.194 40.4376 15.1122C40.1201 13.7258 40.1921 12.2775 40.6434 10.9234C41.3006 8.95182 42.6869 7.35469 44.547 6.42469C46.407 5.49469 48.5175 5.34589 50.4891 6.00309C54.5588 7.35965 56.7684 11.7766 55.4094 15.8487C54.3232 19.105 51.2802 21.1708 48.0215 21.1708V21.1634Z" fill="#0F172A"/>
<path d="M18.896 6.17916C18.8588 6.17916 18.8191 6.16428 18.7893 6.137C18.7273 6.07748 18.7273 5.98324 18.7844 5.92124L19.3448 5.33596C19.4044 5.27396 19.4986 5.27396 19.5606 5.331C19.6226 5.39052 19.6226 5.48476 19.5656 5.54676L19.0051 6.13204C18.9753 6.16428 18.9356 6.17916 18.896 6.17916Z" fill="#0F172A"/>
<path d="M16.9319 8.23019C16.8947 8.23019 16.855 8.21531 16.8252 8.18803C16.7632 8.12851 16.7632 8.03427 16.8203 7.97227L17.3807 7.38698C17.4403 7.32498 17.537 7.32498 17.5965 7.38202C17.6585 7.44154 17.6585 7.53578 17.6015 7.59778L17.041 8.18307C17.0112 8.21531 16.9715 8.23019 16.9319 8.23019Z" fill="#0F172A"/>
<path d="M17.4824 6.21143C17.4427 6.21143 17.4055 6.19655 17.3757 6.16679L16.8053 5.60631C16.7458 5.54679 16.7433 5.45007 16.8053 5.39055C16.8649 5.33103 16.9616 5.32855 17.0211 5.39055L17.5915 5.95103C17.651 6.01055 17.6535 6.10727 17.5915 6.16679C17.5617 6.19655 17.5221 6.21143 17.4824 6.21143Z" fill="#0F172A"/>
<path d="M19.4763 8.17554C19.4366 8.17554 19.3994 8.16066 19.3696 8.1309L18.7992 7.57042C18.7397 7.5109 18.7372 7.41418 18.7992 7.35466C18.8588 7.29514 18.9555 7.29266 19.015 7.35466L19.5854 7.91514C19.6449 7.97466 19.6474 8.07138 19.5854 8.1309C19.5556 8.16066 19.516 8.17554 19.4763 8.17554Z" fill="#0F172A"/>
<path d="M107.232 7.20589C107.194 7.20589 107.155 7.19101 107.125 7.16373C107.063 7.10421 107.063 7.00997 107.12 6.94797L107.68 6.36269C107.737 6.30069 107.834 6.30069 107.896 6.35773C107.958 6.41725 107.958 6.51149 107.901 6.57349L107.341 7.15878C107.311 7.19102 107.271 7.20589 107.232 7.20589Z" fill="#0F172A"/>
<path d="M105.265 9.25692C105.228 9.25692 105.188 9.24204 105.158 9.21476C105.096 9.15524 105.096 9.061 105.153 8.999L105.714 8.41372C105.773 8.35172 105.87 8.35172 105.93 8.40876C105.992 8.46828 105.992 8.56252 105.934 8.62452L105.374 9.2098C105.344 9.24204 105.305 9.25692 105.265 9.25692Z" fill="#0F172A"/>
<path d="M105.815 7.2356C105.776 7.2356 105.739 7.22072 105.709 7.19096L105.138 6.63048C105.079 6.57096 105.076 6.47424 105.138 6.41472C105.198 6.3552 105.295 6.35272 105.354 6.41472L105.925 6.9752C105.984 7.03472 105.987 7.13144 105.925 7.19096C105.895 7.22072 105.855 7.2356 105.815 7.2356Z" fill="#0F172A"/>
<path d="M107.812 9.19983C107.772 9.19983 107.735 9.18495 107.705 9.15519L107.135 8.59471C107.075 8.53519 107.073 8.43847 107.135 8.37895C107.194 8.31943 107.291 8.31695 107.35 8.37895L107.921 8.93943C107.98 8.99895 107.983 9.09567 107.921 9.15519C107.891 9.18495 107.851 9.19983 107.812 9.19983Z" fill="#0F172A"/>
<path d="M109.679 96.9599C109.598 96.9599 109.528 96.893 109.526 96.8111L109.508 96.0002C109.508 95.9159 109.573 95.8464 109.657 95.8439C109.741 95.8415 109.811 95.9084 109.813 95.9927L109.831 96.8037C109.831 96.888 109.766 96.9575 109.682 96.9599C109.682 96.9599 109.682 96.9599 109.679 96.9599Z" fill="#0F172A"/>
<path d="M109.741 99.7995C109.66 99.7995 109.59 99.7326 109.588 99.6507L109.57 98.8398C109.57 98.7555 109.635 98.686 109.719 98.6835C109.803 98.6811 109.873 98.748 109.875 98.8323L109.893 99.6433C109.893 99.7276 109.828 99.7971 109.744 99.7995C109.744 99.7995 109.744 99.7995 109.741 99.7995Z" fill="#0F172A"/>
<path d="M107.904 97.9891C107.819 97.9891 107.752 97.9222 107.75 97.8378C107.75 97.7535 107.817 97.6841 107.901 97.6841L108.7 97.6766C108.784 97.6766 108.851 97.7436 108.854 97.8279C108.854 97.9122 108.787 97.9817 108.702 97.9817L107.904 97.9891Z" fill="#0F172A"/>
<path d="M110.701 97.9668C110.617 97.9668 110.55 97.8998 110.547 97.8155C110.547 97.7312 110.614 97.6617 110.699 97.6617L111.497 97.6543C111.577 97.6543 111.651 97.7213 111.651 97.8056C111.651 97.8899 111.584 97.9593 111.5 97.9593L110.701 97.9668Z" fill="#0F172A"/>
<path d="M7.19287 21.2874C6.97958 21.2874 6.7663 21.2477 6.56046 21.1684C6.11406 20.9948 5.7619 20.655 5.57094 20.2086C5.1791 19.2984 5.58582 18.2345 6.47862 17.8327C6.90766 17.6393 7.38631 17.6269 7.82527 17.798C8.27167 17.9716 8.62383 18.3114 8.81479 18.7578C9.20663 19.6679 8.79991 20.7319 7.90711 21.1336C7.67895 21.2353 7.43591 21.2874 7.19287 21.2874ZM7.19287 17.984C6.99198 17.984 6.79358 18.0262 6.6051 18.1105C5.86358 18.4428 5.5263 19.3307 5.85366 20.0871C6.01238 20.4566 6.30502 20.7393 6.67454 20.8832C7.03662 21.0245 7.43095 21.0146 7.78559 20.8534C8.52711 20.5211 8.86439 19.6332 8.53703 18.8768C8.37831 18.5073 8.08567 18.2246 7.71615 18.0807C7.54751 18.0163 7.37143 17.9815 7.19535 17.9815L7.19287 17.984Z" fill="#0F172A"/>
<path d="M116.631 91.6552C116.422 91.6552 116.212 91.6156 116.011 91.5387C115.572 91.3676 115.227 91.0328 115.039 90.5963C114.654 89.7035 115.053 88.6569 115.929 88.2651C116.35 88.0766 116.819 88.0642 117.251 88.2304C117.69 88.4015 118.034 88.7363 118.223 89.1728C118.607 90.0656 118.208 91.1121 117.333 91.504C117.107 91.6056 116.869 91.6552 116.631 91.6552ZM116.053 88.5428C115.329 88.8677 114.999 89.7357 115.319 90.4748C115.475 90.8368 115.76 91.1121 116.12 91.2535C116.474 91.3899 116.859 91.38 117.206 91.2262C117.93 90.9013 118.26 90.0333 117.94 89.2943C117.784 88.9322 117.499 88.6569 117.139 88.5156C116.784 88.3792 116.4 88.3891 116.053 88.5428Z" fill="#0F172A"/>
<path d="M13.4871 117.1C13.254 117.1 13.0184 117.056 12.7952 116.969C12.3066 116.778 11.9197 116.406 11.7089 115.917C11.2774 114.92 11.7238 113.75 12.7034 113.311C13.1746 113.1 13.6979 113.085 14.179 113.273C14.6676 113.464 15.0545 113.836 15.2653 114.325C15.6968 115.322 15.2504 116.493 14.2708 116.932C14.0203 117.043 13.7549 117.1 13.4871 117.1ZM13.4871 113.447C13.2639 113.447 13.0407 113.494 12.8299 113.588C12.0016 113.96 11.6246 114.95 11.9916 115.796C12.1702 116.207 12.4951 116.525 12.9068 116.684C13.311 116.84 13.75 116.83 14.1468 116.651C14.9751 116.279 15.3521 115.29 14.985 114.444C14.8065 114.032 14.4816 113.715 14.0699 113.556C13.8814 113.482 13.683 113.447 13.4871 113.447Z" fill="#0F172A"/>
<path d="M11.0865 11.1962C10.9427 11.1962 10.7989 11.169 10.66 11.1144C10.3574 10.9978 10.1218 10.7672 9.99037 10.4671C9.72501 9.85456 10.0003 9.13287 10.6029 8.86255C10.8931 8.73111 11.2155 8.72367 11.5131 8.84023C11.8157 8.95679 12.0513 9.18743 12.1827 9.48751C12.4481 10.1001 12.1728 10.8218 11.5701 11.0921C11.4164 11.1615 11.2527 11.1962 11.0865 11.1962ZM11.0865 9.06591C10.965 9.06591 10.8435 9.09071 10.7294 9.14279C10.2781 9.34615 10.0722 9.8868 10.2731 10.3481C10.3698 10.5738 10.5484 10.7449 10.7716 10.8317C10.9923 10.916 11.2304 10.911 11.4461 10.8143C11.8975 10.611 12.1033 10.0703 11.9025 9.60903C11.8057 9.38335 11.6272 9.21223 11.404 9.12543C11.3023 9.08575 11.1932 9.06591 11.0865 9.06591Z" fill="#0F172A"/>
<path d="M86.6277 17.1309C86.5905 17.1309 86.5508 17.1161 86.521 17.0888C86.459 17.0293 86.459 16.935 86.5161 16.873L87.0765 16.2877C87.1361 16.2257 87.2303 16.2257 87.2923 16.2828C87.3543 16.3423 87.3543 16.4365 87.2973 16.4985L86.7368 17.0838C86.707 17.1161 86.6673 17.1309 86.6277 17.1309Z" fill="#0F172A"/>
<path d="M84.6634 19.182C84.6262 19.182 84.5865 19.1671 84.5568 19.1398C84.4948 19.0803 84.4948 18.986 84.5518 18.924L85.1123 18.3388C85.1718 18.2768 85.2661 18.2768 85.3281 18.3338C85.3901 18.3933 85.3901 18.4876 85.333 18.5496L84.7725 19.1349C84.7428 19.1671 84.7031 19.182 84.6634 19.182Z" fill="#0F172A"/>
<path d="M85.2141 17.1606C85.1744 17.1606 85.1372 17.1458 85.1074 17.116L84.537 16.5555C84.4775 16.496 84.475 16.3993 84.537 16.3398C84.5966 16.2802 84.6933 16.2778 84.7528 16.3398L85.3232 16.9002C85.3827 16.9598 85.3852 17.0565 85.3232 17.116C85.2934 17.1458 85.2537 17.1606 85.2141 17.1606Z" fill="#0F172A"/>
<path d="M87.208 19.1249C87.1683 19.1249 87.1311 19.11 87.1013 19.0802L86.5309 18.5198C86.4714 18.4602 86.4689 18.3635 86.5309 18.304C86.5904 18.2445 86.6872 18.242 86.7467 18.304L87.3171 18.8645C87.3766 18.924 87.3791 19.0207 87.3171 19.0802C87.2873 19.11 87.2477 19.1249 87.208 19.1249Z" fill="#0F172A"/>
<path d="M8.34111 109.992C7.59462 109.992 6.9895 109.385 6.9895 108.641C6.9895 107.897 7.5971 107.289 8.34111 107.289C9.08511 107.289 9.69271 107.897 9.69271 108.641C9.69271 109.385 9.08511 109.992 8.34111 109.992ZM8.34111 107.592C7.76327 107.592 7.29454 108.06 7.29454 108.638C7.29454 109.216 7.76327 109.685 8.34111 109.685C8.91895 109.685 9.38767 109.216 9.38767 108.638C9.38767 108.06 8.91895 107.592 8.34111 107.592Z" fill="#0F172A"/>
</svg>
