<svg width="130" height="125" viewBox="0 0 130 125" fill="none" xmlns="http://www.w3.org/2000/svg">
<path d="M109.527 26.2094C109.416 26.2094 109.318 26.1293 109.3 26.0156L109.021 24.2535C109 24.1269 109.088 24.008 109.212 23.99C109.336 23.9693 109.457 24.0571 109.475 24.1812L109.755 25.9433C109.775 26.0699 109.687 26.1887 109.563 26.2068C109.55 26.2068 109.54 26.2094 109.527 26.2094Z" fill="#0F172A"/>
<path d="M110.501 32.382C110.39 32.382 110.292 32.3019 110.274 32.1882L109.995 30.4235C109.974 30.2969 110.062 30.178 110.186 30.1599C110.31 30.1393 110.431 30.2245 110.45 30.3511L110.729 32.1159C110.749 32.2425 110.661 32.3613 110.537 32.3794C110.525 32.3794 110.514 32.382 110.501 32.382Z" fill="#0F172A"/>
<path d="M112.046 28.0387C111.935 28.0387 111.84 27.9586 111.819 27.8475C111.798 27.7209 111.881 27.602 112.007 27.5814L113.744 27.2817C113.87 27.2584 113.989 27.3437 114.01 27.4703C114.031 27.5969 113.948 27.7157 113.821 27.7364L112.085 28.0361C112.072 28.0361 112.059 28.0387 112.046 28.0387Z" fill="#0F172A"/>
<path d="M105.972 29.0877C105.861 29.0877 105.765 29.0076 105.744 28.8965C105.724 28.7699 105.807 28.6511 105.933 28.6304L107.669 28.3307C107.796 28.31 107.915 28.3927 107.936 28.5193C107.956 28.6459 107.874 28.7648 107.747 28.7854L106.011 29.0851C105.998 29.0851 105.985 29.0877 105.972 29.0877Z" fill="#0F172A"/>
<path d="M121.079 28.7312C120.983 28.7312 120.885 28.7235 120.785 28.708C120.301 28.6305 119.878 28.3695 119.593 27.9742C119.307 27.5789 119.193 27.0931 119.27 26.6126C119.431 25.6178 120.371 24.9383 121.371 25.0985C121.854 25.176 122.278 25.4369 122.562 25.8323C122.849 26.2276 122.963 26.7133 122.885 27.1939C122.74 28.0905 121.96 28.7312 121.079 28.7312ZM121.079 25.5351C120.42 25.5351 119.836 26.0131 119.728 26.6849C119.668 27.044 119.756 27.4058 119.968 27.7029C120.182 28 120.498 28.1938 120.859 28.2532C121.606 28.3747 122.309 27.8657 122.43 27.1216C122.49 26.7624 122.402 26.4007 122.19 26.1036C121.976 25.8064 121.66 25.6126 121.299 25.5532C121.224 25.5403 121.151 25.5351 121.079 25.5351Z" fill="#0F172A"/>
<path d="M107.734 77.5771C107.667 77.5771 107.6 77.5487 107.556 77.4918C106.974 76.7787 106.398 76.0449 105.838 75.306C105.76 75.2052 105.781 75.0605 105.882 74.983C105.982 74.9055 106.127 74.9262 106.205 75.0269C106.76 75.7607 107.336 76.4919 107.912 77.1999C107.992 77.2981 107.977 77.4453 107.879 77.5254C107.835 77.5616 107.783 77.5771 107.734 77.5771ZM104.383 73.1641C104.311 73.1641 104.238 73.1305 104.194 73.0659C103.662 72.314 103.135 71.5415 102.626 70.7715C102.556 70.6656 102.585 70.5209 102.691 70.4511C102.797 70.3813 102.941 70.4098 103.011 70.5157C103.517 71.2831 104.042 72.0505 104.572 72.7972C104.647 72.9005 104.621 73.0452 104.517 73.1201C104.476 73.1486 104.429 73.1615 104.383 73.1615V73.1641ZM101.332 68.5391C101.254 68.5391 101.179 68.5004 101.135 68.428C100.652 67.6426 100.177 66.8364 99.7193 66.0355C99.6573 65.9244 99.6935 65.7823 99.8046 65.7203C99.9157 65.6582 100.058 65.697 100.12 65.8055C100.575 66.6013 101.047 67.4023 101.528 68.1852C101.595 68.2937 101.562 68.4358 101.453 68.503C101.414 68.5262 101.373 68.5366 101.332 68.5366V68.5391ZM98.5876 63.723C98.5049 63.723 98.4248 63.6791 98.3835 63.599C97.952 62.7774 97.5309 61.9428 97.1304 61.116C97.0761 60.9997 97.1226 60.8628 97.2389 60.8085C97.3526 60.7543 97.4921 60.8008 97.5464 60.9171C97.9443 61.7387 98.3628 62.5681 98.7917 63.3845C98.8512 63.4982 98.8072 63.6378 98.6961 63.6972C98.6625 63.7153 98.6238 63.723 98.5876 63.723ZM96.1744 58.7312C96.0865 58.7312 96.0013 58.6795 95.9625 58.5943C95.5879 57.7416 95.2261 56.8786 94.8877 56.0286C94.8412 55.9097 94.898 55.7754 95.0169 55.7289C95.1357 55.6824 95.2701 55.7392 95.3166 55.8581C95.6499 56.7004 96.009 57.5582 96.3837 58.4082C96.4353 58.5245 96.3837 58.6614 96.2648 58.7131C96.2338 58.726 96.2028 58.7338 96.1718 58.7338L96.1744 58.7312ZM94.1332 53.5766C94.0376 53.5766 93.9498 53.5172 93.9162 53.4216C93.6087 52.5457 93.3193 51.6569 93.0558 50.7784C93.0196 50.657 93.0894 50.5278 93.2108 50.4916C93.3323 50.4554 93.4614 50.5226 93.4976 50.6466C93.7612 51.5174 94.048 52.401 94.3528 53.2691C94.3942 53.3906 94.3322 53.5223 94.2107 53.5637C94.1849 53.5714 94.1591 53.5766 94.1332 53.5766ZM92.5365 48.2747C92.4331 48.2747 92.3401 48.205 92.3117 48.099C92.0869 47.2128 91.8802 46.3007 91.6916 45.3887C91.6657 45.2647 91.7458 45.1406 91.8724 45.1148C91.999 45.089 92.1205 45.1691 92.1463 45.2957C92.3323 46.2 92.539 47.1043 92.7613 47.9854C92.7923 48.1094 92.7173 48.2334 92.5933 48.267C92.5752 48.2722 92.5546 48.2747 92.5365 48.2747ZM91.4177 42.8514C91.3066 42.8514 91.2084 42.7713 91.1903 42.6577C91.0482 41.7843 90.9164 40.8878 90.7873 39.9111C90.7718 39.7845 90.8596 39.6682 90.9862 39.6527C91.1128 39.6372 91.2291 39.7251 91.2446 39.8517C91.3712 40.8232 91.503 41.7172 91.6451 42.5853C91.6657 42.7119 91.5805 42.8308 91.4539 42.8514C91.441 42.8514 91.428 42.854 91.4151 42.854L91.4177 42.8514ZM12.6312 41.7068C12.5201 41.7068 12.4219 41.6242 12.4039 41.5105C12.2617 40.5829 12.1455 39.6527 12.0602 38.7458C12.0473 38.6192 12.1403 38.5056 12.2695 38.4952C12.3935 38.4797 12.5098 38.5753 12.5201 38.7045C12.6054 39.6011 12.7191 40.5209 12.8612 41.4407C12.8819 41.5673 12.794 41.6836 12.6674 41.7042C12.6545 41.7042 12.6441 41.7068 12.6312 41.7068ZM90.6891 37.361C90.5728 37.361 90.472 37.2731 90.4591 37.1568C90.41 36.7124 90.3609 36.2758 90.3144 35.8417C90.2628 35.356 90.2085 34.878 90.1568 34.4051C90.1413 34.2785 90.2343 34.1648 90.3609 34.1493C90.4875 34.1364 90.6012 34.2269 90.6167 34.3535C90.671 34.8289 90.7227 35.3069 90.7743 35.7926C90.8208 36.2267 90.8699 36.6633 90.919 37.1077C90.9345 37.2343 90.8415 37.348 90.7149 37.3635C90.7072 37.3635 90.6968 37.3635 90.6891 37.3635V37.361ZM12.1171 36.1905C11.993 36.1905 11.8897 36.0923 11.8871 35.9657C11.8742 35.5575 11.869 35.1467 11.869 34.7462C11.869 34.2217 11.8794 33.6946 11.9 33.1804C11.9052 33.0538 12.0111 32.9557 12.1403 32.9582C12.2669 32.9634 12.3677 33.0719 12.3625 33.1985C12.3418 33.7075 12.3315 34.2269 12.3315 34.7462C12.3315 35.1415 12.3367 35.5497 12.3496 35.9528C12.3522 36.0794 12.254 36.1879 12.1248 36.1905H12.1171ZM90.0483 31.8601C89.9346 31.8601 89.8364 31.7775 89.8209 31.6612C89.6814 30.6613 89.5367 29.7699 89.3739 28.9405C89.3507 28.8165 89.4308 28.695 89.5574 28.6692C89.684 28.6434 89.8028 28.726 89.8287 28.8526C89.9915 29.6898 90.1387 30.5889 90.2808 31.5966C90.2989 31.7232 90.2111 31.8395 90.0845 31.8576C90.0741 31.8576 90.0638 31.8576 90.0535 31.8576L90.0483 31.8601ZM12.3444 30.6613C12.3444 30.6613 12.3263 30.6613 12.316 30.6613C12.1894 30.6458 12.099 30.5321 12.1145 30.4055C12.223 29.4779 12.3703 28.5529 12.5485 27.6538C12.5744 27.5298 12.6958 27.4471 12.8198 27.4729C12.9439 27.4988 13.0265 27.6202 13.0007 27.7442C12.8224 28.6304 12.6777 29.5425 12.5718 30.4597C12.5589 30.576 12.4581 30.6639 12.3418 30.6639L12.3444 30.6613ZM88.9605 26.4343C88.8598 26.4343 88.7668 26.3671 88.7383 26.2663C88.48 25.3568 88.1932 24.5068 87.8573 23.667C87.8108 23.5482 87.8676 23.4138 87.9865 23.3673C88.1053 23.3182 88.2397 23.3777 88.2862 23.4965C88.6272 24.3517 88.9192 25.2147 89.1827 26.1423C89.2163 26.2637 89.1466 26.3929 89.0226 26.4265C89.0019 26.4317 88.9812 26.4343 88.9605 26.4343ZM13.4348 25.2406C13.4141 25.2406 13.3909 25.238 13.3702 25.2302C13.2487 25.194 13.1764 25.0649 13.2126 24.9434C13.4735 24.0494 13.7784 23.1632 14.1143 22.3054C14.1608 22.1866 14.2952 22.1297 14.414 22.1762C14.5329 22.2227 14.5923 22.3571 14.5432 22.4759C14.2099 23.3208 13.9128 24.1941 13.6544 25.0752C13.626 25.176 13.533 25.2406 13.4322 25.2406H13.4348ZM86.909 21.3029C86.8264 21.3029 86.7463 21.259 86.7049 21.1815C86.2838 20.3908 85.8084 19.6002 85.2916 18.8328C85.2193 18.7269 85.2477 18.5822 85.3536 18.5125C85.4596 18.4401 85.6042 18.4685 85.674 18.5745C86.2011 19.3573 86.6843 20.1609 87.1106 20.9644C87.17 21.0781 87.1287 21.2176 87.015 21.2771C86.9814 21.2952 86.9426 21.3029 86.9065 21.3029H86.909ZM15.4604 20.0963C15.4243 20.0963 15.3907 20.0885 15.3571 20.0705C15.2434 20.0136 15.1969 19.8741 15.2537 19.7604C15.6723 18.9336 16.1322 18.1171 16.6257 17.3317C16.6929 17.2232 16.835 17.1922 16.9435 17.2593C17.052 17.3265 17.083 17.4686 17.0159 17.5771C16.5301 18.3497 16.0754 19.1532 15.6646 19.9671C15.6232 20.0472 15.5431 20.0937 15.4579 20.0937L15.4604 20.0963ZM83.8344 16.7116C83.7672 16.7116 83.7 16.6832 83.6561 16.6263C83.4881 16.4196 83.315 16.2103 83.1368 16.001C82.7234 15.5153 82.2996 15.0425 81.8397 14.5516C81.7519 14.4585 81.757 14.3113 81.85 14.226C81.9431 14.1382 82.0903 14.1433 82.1756 14.2363C82.6407 14.7324 83.0696 15.213 83.4881 15.7039C83.669 15.9158 83.8447 16.1276 84.0152 16.3369C84.0953 16.4351 84.0798 16.5824 83.9816 16.6625C83.9377 16.6961 83.8886 16.7142 83.837 16.7142L83.8344 16.7116ZM18.4008 15.4119C18.3517 15.4119 18.3026 15.3964 18.2612 15.3654C18.1605 15.2879 18.1398 15.1432 18.2173 15.0425C18.778 14.3087 19.38 13.5904 20.0104 12.9005C20.0957 12.8075 20.243 12.7998 20.336 12.8876C20.429 12.9729 20.4368 13.1202 20.3515 13.2132C19.7314 13.8901 19.1371 14.6006 18.5842 15.3215C18.5377 15.3809 18.4705 15.4119 18.4008 15.4119ZM80.0492 12.6551C79.9923 12.6551 79.9355 12.6344 79.889 12.5905C79.2275 11.9626 78.5351 11.3399 77.8349 10.7457C77.7367 10.663 77.7264 10.5183 77.8091 10.4201C77.8917 10.3219 78.0364 10.3116 78.1346 10.3943C78.8426 10.9963 79.5402 11.6216 80.2068 12.2572C80.2998 12.345 80.3024 12.4923 80.2145 12.5827C80.168 12.6318 80.1086 12.6551 80.0466 12.6551H80.0492ZM22.1394 11.3244C22.0774 11.3244 22.0154 11.2986 21.9689 11.2495C21.8837 11.1565 21.8888 11.0092 21.9818 10.924C22.6562 10.3039 23.3719 9.69668 24.1083 9.1205C24.209 9.04299 24.3537 9.06108 24.4312 9.15926C24.5088 9.26002 24.4932 9.40472 24.3925 9.48481C23.6639 10.0532 22.9585 10.6527 22.2945 11.265C22.2505 11.3064 22.1937 11.327 22.1394 11.327V11.3244ZM75.8247 9.06108C75.7756 9.06108 75.7265 9.04557 75.6852 9.01457C74.9488 8.45648 74.1944 7.91647 73.4399 7.40747C73.334 7.33513 73.3056 7.19302 73.3779 7.08709C73.4503 6.98115 73.5924 6.95273 73.6983 7.02508C74.4605 7.53666 75.2227 8.08183 75.9643 8.64767C76.065 8.72519 76.0857 8.86988 76.0082 8.97064C75.9617 9.03007 75.8945 9.06108 75.8247 9.06108ZM26.5008 7.91131C26.4259 7.91131 26.3536 7.87513 26.307 7.80795C26.2373 7.70202 26.2657 7.55733 26.3716 7.48757C27.1338 6.98115 27.9322 6.49024 28.7461 6.02775C28.8572 5.96574 28.9993 6.00449 29.0613 6.11559C29.1233 6.2267 29.0846 6.3688 28.9735 6.43081C28.1699 6.88814 27.3793 7.3713 26.6274 7.87255C26.5887 7.89839 26.5448 7.91131 26.5008 7.91131ZM71.2231 5.96832C71.1843 5.96832 71.143 5.95799 71.1068 5.93732C70.3084 5.46707 69.4945 5.02267 68.6884 4.61443C68.5747 4.55759 68.5282 4.41807 68.5876 4.30438C68.6445 4.1907 68.784 4.14419 68.8977 4.20362C69.7141 4.61702 70.5384 5.06659 71.3419 5.542C71.453 5.60659 71.4892 5.7487 71.4246 5.85722C71.3807 5.92956 71.3057 5.9709 71.2256 5.9709L71.2231 5.96832ZM31.3144 5.17252C31.2291 5.17252 31.1464 5.12343 31.1051 5.04075C31.0508 4.92707 31.0973 4.78754 31.2136 4.73328C32.0378 4.33539 32.8956 3.95557 33.7612 3.60418C33.88 3.55509 34.0144 3.61452 34.0609 3.73079C34.11 3.84964 34.0531 3.984 33.9343 4.0305C33.0765 4.37673 32.229 4.75396 31.4125 5.14669C31.3815 5.16219 31.3454 5.16994 31.3118 5.16994L31.3144 5.17252ZM66.2752 3.46983C66.2442 3.46983 66.2157 3.46466 66.1847 3.45174C65.3347 3.0926 64.4691 2.7593 63.6113 2.46733C63.4899 2.42599 63.4253 2.29422 63.4666 2.17537C63.508 2.05393 63.6397 1.98934 63.7586 2.03068C64.6267 2.32781 65.5026 2.66111 66.363 3.02801C66.4793 3.0771 66.5361 3.21404 66.4845 3.33031C66.4483 3.41815 66.3604 3.47241 66.2726 3.47241L66.2752 3.46983ZM36.4509 3.09002C36.3553 3.09002 36.2648 3.02801 36.2313 2.93241C36.1899 2.81097 36.2545 2.68178 36.3759 2.64044C37.2493 2.34848 38.1458 2.0746 39.0424 1.82914C39.1638 1.79555 39.293 1.8679 39.3266 1.99192C39.3602 2.11594 39.2878 2.24254 39.1638 2.27613C38.275 2.51901 37.3862 2.78772 36.5206 3.07968C36.4974 3.08743 36.4715 3.0926 36.4457 3.0926L36.4509 3.09002ZM61.0353 1.68187C61.0172 1.68187 60.9966 1.68187 60.9759 1.67412C60.0871 1.44416 59.1828 1.24521 58.2862 1.08502C58.1596 1.06177 58.0769 0.942916 58.1002 0.816312C58.1234 0.689707 58.2423 0.607027 58.3689 0.630281C59.2758 0.790474 60.193 0.992007 61.0922 1.22454C61.2162 1.25555 61.2885 1.38215 61.2575 1.50617C61.2317 1.60952 61.1361 1.67929 61.0353 1.67929V1.68187ZM41.8018 1.62761C41.6959 1.62761 41.6003 1.55268 41.577 1.44416C41.5512 1.32014 41.6313 1.19612 41.7553 1.17029C42.6596 0.979088 43.5795 0.80856 44.4941 0.666454C44.6207 0.645784 44.737 0.733631 44.7576 0.860235C44.7783 0.986839 44.6905 1.10311 44.5639 1.12378C43.657 1.2633 42.7449 1.43125 41.8483 1.62244C41.8328 1.62503 41.8147 1.62761 41.7992 1.62761H41.8018ZM47.2794 0.780139C47.1631 0.780139 47.0624 0.692291 47.0494 0.570855C47.0365 0.44425 47.1295 0.330565 47.2561 0.317647C48.1811 0.227215 49.1164 0.162621 50.0363 0.126449C50.1654 0.118697 50.2714 0.219464 50.2765 0.348652C50.2817 0.475256 50.1835 0.583773 50.0543 0.588941C49.1423 0.625113 48.2173 0.689707 47.3001 0.780139C47.2923 0.780139 47.2846 0.780139 47.2768 0.780139H47.2794ZM55.5836 0.715545C55.5836 0.715545 55.5681 0.715545 55.5603 0.715545C54.9583 0.658702 54.3434 0.614778 53.7362 0.591525C53.4287 0.578606 53.1213 0.570855 52.8112 0.563104C52.6846 0.56052 52.5813 0.454585 52.5838 0.327981C52.5864 0.201377 52.6872 0.0928597 52.819 0.100611C53.1316 0.105779 53.4442 0.116114 53.7517 0.129032C54.3666 0.15487 54.9893 0.19621 55.6017 0.255636C55.7283 0.268555 55.8213 0.379657 55.8084 0.508844C55.798 0.627697 55.6973 0.718129 55.5784 0.718129L55.5836 0.715545Z" fill="#0F172A"/>
<path d="M37.0891 102.864H33.0326L37.1408 85.9769H44.1453L37.0891 102.864Z" fill="#EFF5F5"/>
<path d="M37.089 103.094H33.0325C32.9628 103.094 32.8956 103.061 32.8517 103.006C32.8077 102.95 32.7922 102.877 32.8077 102.81L36.9159 85.9226C36.9417 85.8193 37.0348 85.7469 37.1407 85.7469H44.1453C44.2228 85.7469 44.2951 85.7857 44.3365 85.8503C44.3804 85.9149 44.3881 85.995 44.3571 86.0673L37.3009 102.955C37.2647 103.04 37.182 103.097 37.0864 103.097L37.089 103.094ZM33.3271 102.632H36.934L43.7964 86.2069H37.3216L33.3271 102.632Z" fill="#0F172A"/>
<path d="M17.6047 102.864H13.5482L17.6564 85.9769H24.661L17.6047 102.864Z" fill="#EFF5F5"/>
<path d="M17.6049 103.094H13.5484C13.4786 103.094 13.4115 103.061 13.3675 103.006C13.3236 102.95 13.3081 102.877 13.3236 102.81L17.4318 85.9226C17.4576 85.8193 17.5506 85.7469 17.6566 85.7469H24.6611C24.7386 85.7469 24.811 85.7857 24.8523 85.8503C24.8962 85.9149 24.904 85.995 24.873 86.0673L17.8168 102.955C17.7806 103.04 17.6979 103.097 17.6023 103.097L17.6049 103.094ZM13.8429 102.632H17.4499L24.3123 86.2069H17.8374L13.8429 102.632Z" fill="#0F172A"/>
<path d="M93.1098 102.864H97.1663L93.0582 85.9769H86.0536L93.1098 102.864Z" fill="#EFF5F5"/>
<path d="M97.1664 103.094H93.1099C93.0169 103.094 92.9316 103.037 92.8954 102.952L85.8392 86.0648C85.8082 85.9924 85.8185 85.9123 85.8599 85.8477C85.9038 85.7831 85.9761 85.7444 86.0511 85.7444H93.0556C93.1616 85.7444 93.2546 85.8167 93.2804 85.9201L97.3886 102.808C97.4041 102.877 97.3886 102.95 97.3447 103.004C97.3007 103.061 97.2336 103.092 97.1638 103.092L97.1664 103.094ZM93.2649 102.632H96.8718L92.8773 86.2069H86.4025L93.2649 102.632Z" fill="#0F172A"/>
<path d="M112.791 102.864H116.847L112.739 85.9769H105.734L112.791 102.864Z" fill="#EFF5F5"/>
<path d="M116.847 103.094H112.79C112.697 103.094 112.612 103.037 112.576 102.952L105.52 86.0648C105.489 85.9924 105.499 85.9123 105.54 85.8477C105.584 85.7831 105.657 85.7444 105.732 85.7444H112.736C112.842 85.7444 112.935 85.8167 112.961 85.9201L117.069 102.808C117.085 102.877 117.069 102.95 117.025 103.004C116.981 103.061 116.914 103.092 116.844 103.092L116.847 103.094ZM112.945 102.632H116.552L112.558 86.2069H106.083L112.945 102.632Z" fill="#0F172A"/>
<path d="M98.5748 87.2171H19.0598C15.0136 87.2171 11.4739 84.4964 10.4352 80.5846L1.33002 46.5126C-0.173722 40.849 3.89828 35.2991 9.75824 35.2991H89.4671C93.5133 35.2991 97.053 38.0198 98.0917 41.9316L107.199 76.0061C108.703 81.6697 104.435 87.2196 98.5748 87.2196V87.2171Z" fill="#EFF5F5"/>
<path d="M98.5748 87.4496H19.0597C14.9154 87.4496 11.2775 84.6514 10.213 80.6466L1.1078 46.572C0.355931 43.7428 0.929525 40.8128 2.67873 38.5365C4.37367 36.3326 6.95484 35.0665 9.75822 35.0665H89.4671C93.6114 35.0665 97.2494 37.8647 98.3139 41.8696L107.422 75.9441C108.158 78.7139 107.579 81.6051 105.833 83.8763C104.086 86.1474 101.44 87.4496 98.5748 87.4496ZM9.75822 35.529C7.09953 35.529 4.65272 36.7279 3.04562 38.8181C1.38427 40.9807 0.839093 43.7634 1.55479 46.4531L10.6625 80.5277C11.6728 84.331 15.1273 86.9871 19.0623 86.9871H98.5748C101.296 86.9871 103.807 85.7495 105.466 83.5946C107.124 81.4372 107.675 78.6932 106.975 76.063L97.8669 41.9884C96.8566 38.1851 93.4021 35.529 89.4671 35.529H9.75822Z" fill="#0F172A"/>
<path d="M82.3718 87.4135H113.86C116.464 87.4135 118.743 85.6617 119.413 83.1426L125.275 61.0773C126.244 57.4316 123.495 53.8557 119.723 53.8557H88.2344C85.6299 53.8557 83.3511 55.6075 82.6819 58.1267L76.8193 80.1919C75.8504 83.8376 78.5995 87.4135 82.3718 87.4135Z" fill="#EFF5F5"/>
<path d="M113.86 87.646H82.372C80.5013 87.646 78.7754 86.796 77.6334 85.3129C76.4939 83.8298 76.1141 81.9437 76.5947 80.135L82.4572 58.0698C83.1523 55.455 85.5267 53.6283 88.2319 53.6283H119.72C121.591 53.6283 123.317 54.4784 124.459 55.9614C125.598 57.4445 125.978 59.3306 125.497 61.1393L119.635 83.2045C118.94 85.8193 116.565 87.646 113.86 87.646ZM88.2371 54.0882C85.7412 54.0882 83.5502 55.7728 82.9068 58.186L77.0443 80.2513C76.5999 81.9204 76.9512 83.6593 78.0028 85.0287C79.0544 86.3955 80.6486 87.1809 82.3745 87.1809H113.863C116.359 87.1809 118.55 85.4963 119.193 83.0831L125.056 61.0178C125.5 59.3487 125.149 57.6073 124.097 56.2405C123.045 54.8737 121.451 54.0882 119.725 54.0882H88.2371Z" fill="#0F172A"/>
<path d="M49.2198 80.551L43.0084 58.0904C42.3393 55.5738 40.0604 53.7626 37.456 53.7626H22.9973C21.0103 53.7626 19.2689 52.4242 18.7599 50.5045L15.8299 39.4848C15.2072 37.1362 13.1816 35.4412 10.7993 35.2293H9.56173C3.39689 35.126 -0.0524281 40.1747 0.73045 45.4688L4.77403 60.7362C4.79728 60.8499 4.82312 60.9661 4.85412 61.0798L10.3239 81.5845C11.2722 84.9822 15.0212 87.7959 18.1165 87.7959H43.6673C47.4396 87.7959 50.1887 84.1993 49.2198 80.5536V80.551Z" fill="#EFF5F5"/>
<path d="M43.6673 88.0258H18.1192C14.799 88.0258 11.0526 85.0442 10.1018 81.6465L4.63196 61.1393C4.60095 61.0204 4.57253 60.9016 4.54928 60.7827L0.508285 45.5282C0.508285 45.5282 0.503118 45.5127 0.503118 45.5024C0.0845492 42.6628 0.846757 39.893 2.59854 37.8984C4.28057 35.9812 6.75839 34.9555 9.56693 34.9994H10.802C13.3082 35.219 15.4114 36.9992 16.0573 39.4254L18.9873 50.4451C19.4705 52.2615 21.1215 53.5327 23.0025 53.5327H37.4612C40.1586 53.5327 42.5331 55.3827 43.2359 58.0336L49.4472 80.4942C49.9278 82.308 49.548 84.2019 48.4034 85.6927C47.2613 87.1758 45.538 88.0284 43.6725 88.0284L43.6673 88.0258ZM0.957859 45.4223L4.99885 60.6768C5.02469 60.8008 5.05053 60.9093 5.07895 61.0204L10.5488 81.5251C11.4324 84.685 15.0393 87.5633 18.1192 87.5633H43.6699C45.3907 87.5633 46.9823 86.7779 48.0339 85.4085C49.0906 84.0339 49.442 82.2847 49.0002 80.613L42.7889 58.1524C42.1378 55.703 39.9467 53.9926 37.4586 53.9926H22.9999C20.9096 53.9926 19.0752 52.5819 18.5377 50.5614L15.6078 39.5416C15.0135 37.3015 13.0731 35.6608 10.7787 35.4567H9.56177C6.88499 35.4128 4.53636 36.3869 2.94477 38.2007C1.286 40.0894 0.562544 42.7197 0.957859 45.4197V45.4223Z" fill="#0F172A"/>
<path d="M119.834 53.9254H115.041C112.437 53.9254 110.158 55.7418 109.489 58.2584L103.43 81.1711H49.3698L43.2825 58.2584C42.6133 55.7418 40.3344 53.9254 37.73 53.9254H32.9371C29.1649 53.9254 26.4157 57.4781 27.3846 61.1238L33.2472 83.1813C33.9164 85.6979 36.1953 87.4445 38.7997 87.4445H113.971C116.783 87.2481 118.855 85.6875 119.524 83.1709L125.386 61.1263C126.355 57.4807 123.606 53.9254 119.834 53.9254Z" fill="#EFF5F5"/>
<path d="M38.7995 87.677C36.0918 87.677 33.7173 85.8528 33.0248 83.2432L27.1623 61.1857C26.6843 59.3823 27.0589 57.5039 28.1932 56.0285C29.3327 54.5481 31.0612 53.698 32.937 53.698H37.7299C40.4247 53.698 42.8018 55.5506 43.5046 58.2041L49.5454 80.9437H103.249L109.264 58.2041C109.969 55.5506 112.344 53.698 115.038 53.698H119.831C121.707 53.698 123.436 54.5481 124.575 56.0285C125.709 57.5039 126.087 59.3848 125.606 61.1883L119.743 83.2329C119.059 85.8115 116.904 87.4729 113.984 87.677H38.7995ZM32.937 54.1579C31.2059 54.1579 29.6091 54.9408 28.5575 56.3076C27.5111 57.6666 27.1649 59.4003 27.6067 61.0643L33.4692 83.1218C34.11 85.5299 36.301 87.2119 38.7995 87.2119H113.971C116.71 87.0207 118.658 85.5247 119.302 83.1089L125.164 61.0643C125.606 59.4003 125.26 57.6666 124.213 56.305C123.162 54.9382 121.568 54.1527 119.836 54.1527H115.044C112.558 54.1527 110.364 55.8632 109.713 58.3152L103.654 81.2279C103.629 81.3287 103.536 81.401 103.432 81.401H49.3697C49.2637 81.401 49.1733 81.3313 49.1475 81.2305L43.0601 58.3178C42.409 55.8658 40.218 54.1553 37.7299 54.1553H32.937V54.1579Z" fill="#0F172A"/>
<path d="M103.611 70.5183H49.4396C47.3448 70.5183 45.6466 72.2165 45.6466 74.3113V77.3834C45.6466 79.4781 47.3448 81.1763 49.4396 81.1763H103.611C105.705 81.1763 107.404 79.4781 107.404 77.3834V74.3113C107.404 72.2165 105.705 70.5183 103.611 70.5183Z" fill="#EFF5F5"/>
<path d="M103.611 81.4063H49.4421C47.2227 81.4063 45.4166 79.6002 45.4166 77.3808V74.3113C45.4166 72.0918 47.2227 70.2858 49.4421 70.2858H103.613C105.833 70.2858 107.639 72.0918 107.639 74.3113V77.3808C107.639 79.6002 105.833 81.4063 103.613 81.4063H103.611ZM49.4395 70.7483C47.4759 70.7483 45.8765 72.3476 45.8765 74.3113V77.3808C45.8765 79.3444 47.4759 80.9438 49.4395 80.9438H103.611C105.574 80.9438 107.174 79.3444 107.174 77.3808V74.3113C107.174 72.3476 105.574 70.7483 103.611 70.7483H49.4421H49.4395Z" fill="#0F172A"/>
<path d="M72.6442 47.5332L90.0949 46.4325C91.1154 46.3834 92.0094 47.1069 92.1774 48.1146L95.5285 68.3454C95.7326 69.5804 94.774 70.6992 93.5209 70.6862L75.308 70.4356C74.3107 70.4253 73.471 69.6863 73.3366 68.6968L70.7477 49.8173C70.5875 48.6468 71.4634 47.5901 72.6442 47.5332Z" fill="#EFF5F5"/>
<path d="M93.5416 70.9136C93.5416 70.9136 93.5261 70.9136 93.5183 70.9136L75.3055 70.663C74.2022 70.6501 73.2565 69.8181 73.1067 68.7252L70.5178 49.8457C70.4325 49.223 70.6133 48.59 71.0138 48.1068C71.4143 47.6236 72.0034 47.3291 72.6313 47.2981L90.082 46.1974C91.2162 46.1432 92.2161 46.9467 92.4047 48.0706L95.7559 68.3014C95.8644 68.9577 95.6784 69.6217 95.2469 70.1282C94.8206 70.6268 94.2005 70.911 93.5442 70.911L93.5416 70.9136ZM72.6545 47.7632C72.1507 47.789 71.6934 48.0164 71.3704 48.4039C71.0474 48.7941 70.9079 49.2824 70.9751 49.7837L73.564 68.6632C73.6828 69.5313 74.4347 70.1928 75.3106 70.2031L93.5235 70.4537C93.5235 70.4537 93.5364 70.4537 93.5416 70.4537C94.0635 70.4537 94.5544 70.2289 94.8929 69.831C95.2365 69.4305 95.3838 68.9009 95.2986 68.3815L91.9474 48.1507C91.8001 47.2593 91.0095 46.6211 90.1026 46.6625L72.6519 47.7632H72.6545Z" fill="#0F172A"/>
<path d="M76.2535 67.7149C76.1372 67.7149 76.0391 67.6296 76.0236 67.5108L73.9901 50.1815C73.9746 50.0549 74.0651 49.9412 74.1917 49.9257C74.3157 49.9076 74.432 50.0006 74.4475 50.1272L76.4809 67.4565C76.4964 67.5831 76.4059 67.6968 76.2793 67.7123C76.269 67.7123 76.2613 67.7123 76.2509 67.7123L76.2535 67.7149Z" fill="#0F172A"/>
<path d="M47.7523 71.1255C47.6257 71.1255 47.5223 71.0222 47.5223 70.8956C47.5223 70.769 47.6257 70.663 47.7523 70.663L76.016 70.5442C76.1426 70.5442 76.246 70.6475 76.246 70.7741C76.246 70.9007 76.1426 71.0067 76.016 71.0067L47.7523 71.1255Z" fill="#0F172A"/>
<path d="M112.302 96.0484C112.374 96.2447 120.074 104.048 120.074 104.048L115.341 106.215L109.111 99.4202L112.302 96.0458V96.0484Z" fill="#EFF5F5"/>
<path d="M115.34 106.448C115.276 106.448 115.214 106.422 115.17 106.373L108.94 99.5777C108.858 99.4873 108.86 99.3504 108.94 99.2625L112.131 95.8881C112.186 95.8313 112.268 95.8055 112.346 95.821C112.41 95.8339 112.467 95.8752 112.501 95.9321C112.757 96.2731 117.258 100.864 120.237 103.885C120.288 103.939 120.314 104.014 120.299 104.089C120.286 104.164 120.237 104.226 120.167 104.257L115.433 106.425C115.402 106.438 115.369 106.445 115.338 106.445L115.34 106.448ZM109.426 99.4253L115.397 105.936L119.679 103.975C114.356 98.5804 112.775 96.9191 112.297 96.3894L109.426 99.4227V99.4253Z" fill="#0F172A"/>
<path d="M115.077 102.882C115.24 102.461 115.537 101.976 116.077 101.647C116.888 101.151 117.932 101.25 118.694 101.818C120.601 103.236 125.781 107.262 128.804 111.223C129.874 112.623 129.396 114.504 127.037 114.504C123.169 114.504 116.984 113.019 111.767 108.657C111.168 108.156 110.858 107.386 110.961 106.613C111.044 105.98 111.194 105.19 111.46 104.435C111.713 103.717 112.46 103.296 113.211 103.43L113.886 103.552C114.392 103.642 114.891 103.363 115.077 102.882Z" fill="#EFF5F5"/>
<path d="M127.035 114.734C122.994 114.734 116.823 113.184 111.62 108.833C110.951 108.275 110.62 107.432 110.734 106.58C110.842 105.753 111.013 105.004 111.243 104.355C111.535 103.528 112.379 103.043 113.253 103.2L113.927 103.322C114.322 103.394 114.715 103.172 114.862 102.795C115.09 102.211 115.47 101.743 115.958 101.446C116.823 100.919 117.978 100.991 118.834 101.627C120.885 103.154 125.98 107.133 128.99 111.078C129.595 111.871 129.747 112.822 129.383 113.558C129.008 114.316 128.177 114.732 127.04 114.732H127.037L127.035 114.734ZM112.922 103.634C112.367 103.634 111.865 103.975 111.674 104.51C111.457 105.128 111.292 105.843 111.188 106.639C111.098 107.332 111.369 108.019 111.914 108.476C117.022 112.747 123.074 114.269 127.035 114.269H127.037C127.988 114.269 128.673 113.943 128.965 113.354C129.249 112.778 129.117 112.013 128.618 111.36C125.642 107.461 120.588 103.515 118.552 101.999C117.847 101.474 116.898 101.41 116.193 101.841C115.785 102.089 115.483 102.466 115.289 102.962C115.061 103.544 114.452 103.887 113.839 103.776L113.165 103.655C113.082 103.639 113 103.632 112.919 103.632L112.922 103.634Z" fill="#0F172A"/>
<path d="M125.691 112.894C123.389 112.894 119.268 111.988 112.788 107.608C112.682 107.536 112.653 107.394 112.726 107.288C112.798 107.182 112.94 107.153 113.046 107.226C123.59 114.349 127.761 112.068 127.802 112.044C127.911 111.98 128.053 112.016 128.117 112.127C128.182 112.236 128.146 112.378 128.037 112.442C127.967 112.484 127.239 112.894 125.691 112.894Z" fill="#0F172A"/>
<path d="M121.709 108.768C121.658 108.768 121.606 108.75 121.562 108.714C121.464 108.631 121.451 108.487 121.531 108.388L123.373 106.169C123.456 106.071 123.601 106.058 123.699 106.138C123.797 106.221 123.81 106.365 123.73 106.463L121.888 108.683C121.841 108.737 121.777 108.766 121.709 108.766V108.768Z" fill="#0F172A"/>
<path d="M119.898 107.438C119.844 107.438 119.79 107.419 119.746 107.378C119.65 107.293 119.643 107.148 119.728 107.053L121.766 104.763C121.852 104.668 121.996 104.66 122.092 104.745C122.188 104.831 122.195 104.975 122.11 105.071L120.071 107.36C120.025 107.412 119.963 107.438 119.898 107.438Z" fill="#0F172A"/>
<path d="M97.409 101.255L95.714 111.158L91.9004 108.569L93.0812 99.0739L97.409 101.255Z" fill="#EFF5F5"/>
<path d="M95.7141 111.391C95.6676 111.391 95.6237 111.378 95.5849 111.352L91.7713 108.763C91.699 108.714 91.6602 108.629 91.6731 108.543L92.8539 99.048C92.8642 98.9731 92.9082 98.9085 92.9753 98.8723C93.0425 98.8362 93.12 98.8362 93.1872 98.8723L97.515 101.053C97.6054 101.1 97.6571 101.198 97.639 101.298L95.9441 111.202C95.9311 111.28 95.8795 111.344 95.8071 111.375C95.7787 111.388 95.7477 111.393 95.7167 111.393L95.7141 111.391ZM92.1459 108.458L95.5462 110.765L97.1533 101.384L93.2699 99.4279L92.1459 108.458Z" fill="#0F172A"/>
<path d="M96.8795 109.316C96.82 112.373 96.6159 118.522 94.5489 122.989C93.9934 124.188 91.5776 124.232 90.6164 122.692C88.6114 119.48 85.9734 113.982 86.9759 107.117C87.0534 106.58 87.3842 106.112 87.8622 105.859C88.4228 105.562 89.3168 105.177 90.6009 104.869C91.2391 104.717 91.8773 105.135 91.991 105.784L92.4096 108.161L92.6938 107.748C93.1201 107.125 93.9159 106.874 94.6213 107.14C95.0011 107.282 95.4222 107.44 95.802 107.585C96.5126 107.851 96.8898 108.559 96.8769 109.319L96.8795 109.316Z" fill="#EFF5F5"/>
<path d="M92.8435 124.1C91.854 124.1 90.9186 123.609 90.4226 122.813C87.2109 117.672 85.9759 112.38 86.7485 107.084C86.8363 106.476 87.2135 105.941 87.7561 105.655C88.291 105.37 89.2108 104.965 90.5492 104.644C90.9212 104.557 91.301 104.624 91.6214 104.833C91.9366 105.04 92.1563 105.373 92.2209 105.745L92.5412 107.567C93.0373 106.892 93.9158 106.629 94.7038 106.926L95.8846 107.37C96.6442 107.657 97.1248 108.424 97.1067 109.324C97.0602 111.801 96.9336 118.382 94.7555 123.087C94.4868 123.669 93.8409 124.046 93.027 124.095C92.965 124.098 92.903 124.1 92.841 124.1H92.8435ZM90.8695 105.068C90.7998 105.068 90.7274 105.076 90.6551 105.094C89.3632 105.404 88.4822 105.792 87.9706 106.063C87.5572 106.283 87.2704 106.688 87.2032 107.151C86.4462 112.336 87.6605 117.522 90.8101 122.571C91.3424 123.423 92.3242 123.676 92.9986 123.635C93.6419 123.594 94.1406 123.317 94.3369 122.894C96.4737 118.274 96.5977 111.765 96.6442 109.313C96.6572 108.6 96.3032 108.019 95.7193 107.799L94.5385 107.355C93.9313 107.125 93.2492 107.342 92.8823 107.877L92.5981 108.29C92.5438 108.368 92.4508 108.404 92.3578 108.386C92.2674 108.365 92.195 108.293 92.1795 108.2L91.7609 105.823C91.717 105.572 91.5749 105.358 91.363 105.218C91.2132 105.12 91.0401 105.068 90.8644 105.068H90.8695Z" fill="#0F172A"/>
<path d="M92.4819 122.211C92.4095 122.211 92.3398 122.178 92.2933 122.116C87.689 115.685 88.2523 107.711 88.2574 107.631C88.2678 107.505 88.3789 107.412 88.5055 107.419C88.6321 107.43 88.7277 107.541 88.7173 107.667C88.7122 107.745 88.1644 115.556 92.6679 121.847C92.7428 121.95 92.7196 122.095 92.6136 122.17C92.5723 122.198 92.5258 122.214 92.4793 122.214L92.4819 122.211Z" fill="#0F172A"/>
<path d="M96.3575 113.76C96.3394 113.76 96.3239 113.76 96.3058 113.755L93.412 113.088C93.288 113.06 93.2105 112.936 93.2389 112.812C93.2673 112.688 93.3913 112.61 93.5154 112.639L96.4092 113.305C96.5332 113.334 96.6107 113.458 96.5823 113.582C96.5564 113.688 96.4634 113.76 96.3575 113.76Z" fill="#0F172A"/>
<path d="M95.9441 116.269C95.9209 116.269 95.8976 116.266 95.8744 116.258L93.1304 115.393C93.009 115.354 92.9418 115.225 92.9806 115.103C93.0193 114.982 93.1485 114.915 93.27 114.954L96.0139 115.819C96.1353 115.858 96.2025 115.987 96.1638 116.109C96.1328 116.207 96.0423 116.271 95.9441 116.271V116.269Z" fill="#0F172A"/>
<path d="M70.1427 57.9121C70.1427 57.9121 83.6893 55.5479 96.3549 61.8316C99.5458 63.4155 101.626 66.6064 101.799 70.1668C102.145 77.2308 102.099 90.1832 98.3806 101.627C98.1687 102.278 97.4556 102.619 96.8148 102.376L91.1512 100.229C90.7714 100.084 90.4898 99.7586 90.4045 99.3607C89.8568 96.795 87.9474 87.0206 88.9369 79.8042C90.0841 71.4277 62.8953 64.0924 62.8953 64.0924L70.1453 57.9121H70.1427Z" fill="#0F172A"/>
<path d="M113.886 97.6916L109.134 101.198C108.816 101.433 108.377 101.402 108.096 101.125C104.884 97.9654 86.7485 80.2254 82.3225 78.0163C77.4625 75.5875 68.4349 72.0245 60.4356 72.5077C52.4388 72.9909 50.4493 67.5262 50.4493 67.5262L61.4561 59.5347C61.4561 59.5347 81.3175 60.6974 90.0299 67.0276C97.8949 72.7454 111.509 92.7669 114.079 96.6012C114.32 96.9578 114.235 97.4384 113.888 97.6942L113.886 97.6916Z" fill="#0F172A"/>
<path d="M102.225 79.8946C102.158 79.8946 102.091 79.8662 102.044 79.8093C98.4607 75.355 92.9341 69.4227 89.893 67.211C86.5935 64.8132 81.3201 62.8806 74.2173 61.4673C74.0933 61.4414 74.0106 61.32 74.0365 61.196C74.0623 61.072 74.1837 60.9893 74.3078 61.0151C81.4751 62.4413 86.8106 64.4024 90.1643 66.8389C93.2389 69.0738 98.8018 75.0423 102.406 79.52C102.486 79.6207 102.471 79.7654 102.37 79.8455C102.326 79.8791 102.277 79.8972 102.225 79.8972V79.8946Z" fill="#EFF5F5"/>
<path d="M57.6868 45.1793C57.6868 45.1793 62.7199 60.01 68.2569 61.568C73.7939 63.1261 77.6515 58.4184 77.6282 53.5558L75.7446 52.9331C75.7446 52.9331 73.812 57.9146 69.5049 56.6176C65.1952 55.3205 61.0689 41.9186 61.0689 41.9186L57.6868 45.1793Z" fill="#EFF5F5"/>
<path d="M70.3859 62.1055C69.7167 62.1055 68.9855 62.0125 68.1949 61.7903C62.6037 60.2168 57.6764 45.864 57.4671 45.2543C57.4387 45.169 57.462 45.076 57.5266 45.014L60.9087 41.7533C60.9656 41.6964 61.0482 41.6758 61.1257 41.6964C61.2033 41.7171 61.2653 41.7765 61.2885 41.8515C61.3299 41.9832 65.4277 55.1526 69.5695 56.398C73.6208 57.6175 75.4527 53.0443 75.5276 52.8505C75.5715 52.7368 75.6981 52.6774 75.8144 52.7162L77.698 53.3388C77.791 53.3698 77.8556 53.4577 77.8556 53.5559C77.8711 56.3877 76.5973 59.1239 74.5329 60.6948C73.6079 61.3976 72.2204 62.1055 70.3808 62.1055H70.3859ZM57.9555 45.2439C58.4826 46.7451 63.2444 59.9171 68.3215 61.3459C71.0965 62.1262 73.0834 61.2245 74.259 60.3279C76.1684 58.8732 77.3621 56.3541 77.3982 53.7238L75.8738 53.22C75.4398 54.1631 73.3883 58.0284 69.4403 56.8424C65.4122 55.6306 61.6683 44.5386 60.963 42.3475L57.9555 45.2465V45.2439Z" fill="#0F172A"/>
<path d="M54.3125 70.7586C54.3125 70.7586 49.5894 73.8565 47.1968 72.6964C44.8043 71.5363 49.3439 67.6271 50.6048 67.5547C51.8657 67.4798 54.3125 70.7586 54.3125 70.7586Z" fill="#0F172A"/>
<path d="M58.7099 20.3727C60.7459 20.2384 62.9163 22.1658 62.4719 25.1578C62.1101 27.6021 59.4928 28.1602 58.2113 29.3874C54.0695 33.3561 57.4232 38.2265 54.1186 42.2442C50.9716 46.0708 46.835 42.9858 40.6986 47.1999C35.8669 50.5174 52.8732 46.1689 46.7833 49.5976C41.9233 52.3338 33.2393 51.4527 28.7254 45.461C24.4338 39.7638 23.9352 31.6379 29.0045 28.0982C33.5622 24.915 36.3114 29.2066 41.1378 26.2611C45.8971 23.357 44.8765 20.135 47.8013 18.9904C51.801 17.4221 52.9378 20.7577 58.7048 20.3753L58.7099 20.3727Z" fill="#0F172A"/>
<path d="M32.7197 48.701C33.084 47.2076 33.5853 45.4584 34.0504 44.3164C35.4818 40.7973 36.4507 38.5081 40.6234 36.6529C41.2487 36.3765 41.8998 36.1594 42.5613 35.9915L45.0494 35.3559C45.0494 35.3559 55.2837 33.2062 59.0224 37.3712C59.3247 37.7097 59.7122 38.0921 59.9448 38.5262L62.2779 42.6602L62.2521 42.6679C59.8595 43.4534 58.6865 46.1612 59.7742 48.4349C61.0248 51.047 62.7869 54.1191 64.6601 55.4782C65.2518 55.9071 70.0963 58.3177 70.0963 58.3177C70.0963 58.3177 71.0549 62.1417 63.1435 64.7926C55.232 67.4435 49.5503 68.2032 47.6564 72.0426C46.5351 74.3163 43.4552 62.8135 41.706 52.1167C41.3701 50.0575 39.5744 48.5615 37.4893 48.6054L32.7197 48.7062V48.701Z" fill="#EFF5F5"/>
<path d="M47.3284 72.562C47.3026 72.562 47.2768 72.562 47.2535 72.5568C45.5482 72.301 42.8017 60.2297 41.4814 52.1529C41.1688 50.2461 39.4997 48.8328 37.5799 48.8328C37.5515 48.8328 37.5257 48.8328 37.4972 48.8328L32.7276 48.9336C32.6579 48.9336 32.5881 48.9025 32.5416 48.8483C32.4977 48.7914 32.4796 48.7191 32.4977 48.6493C32.9266 46.8924 33.4304 45.2414 33.8386 44.2311C35.2261 40.8206 36.226 38.3582 40.5332 36.4437C41.1403 36.175 41.7863 35.9528 42.5071 35.7693L44.9953 35.1337C45.4294 35.0433 55.413 33.0047 59.1956 37.2188C59.2473 37.2756 59.299 37.3325 59.3532 37.3919C59.6297 37.6916 59.9423 38.0327 60.149 38.4177L62.4822 42.5465C62.5158 42.6059 62.5209 42.6783 62.4977 42.7429C62.4718 42.8075 62.4202 42.8566 62.3556 42.8798L62.3297 42.8876C61.2471 43.2415 60.3687 44.0477 59.9217 45.0941C59.4773 46.1353 59.5005 47.3161 59.9888 48.3341C61.1489 50.7551 62.924 53.928 64.8024 55.2922C65.2571 55.6229 68.5359 57.2817 70.2076 58.1111C70.267 58.1421 70.3135 58.1963 70.329 58.2609C70.3704 58.4263 71.2463 62.3226 63.2237 65.0097C61.4435 65.6065 59.7408 66.1181 58.2396 66.5677C53.0463 68.1283 49.2947 69.2548 47.8684 72.1434C47.7031 72.4793 47.4964 72.562 47.331 72.562H47.3284ZM37.5773 48.3703C39.7244 48.3703 41.5873 49.949 41.9361 52.078C43.7189 62.9892 46.3389 71.9548 47.3207 72.0995C47.3439 72.1098 47.393 72.0556 47.4499 71.9393C48.964 68.8724 52.7982 67.72 58.1027 66.1259C59.6013 65.6763 61.2988 65.1647 63.0713 64.5704C69.9492 62.2657 69.9544 59.067 69.8898 58.4676C69.156 58.1007 65.084 56.0673 64.5259 55.6617C62.57 54.2432 60.751 51.0006 59.5677 48.5305C59.0225 47.3936 58.9967 46.0733 59.4928 44.9106C59.9604 43.8177 60.8441 42.9625 61.9422 42.531L59.7434 38.6373C59.5599 38.2988 59.268 37.981 59.0122 37.6994C58.9553 37.64 58.9011 37.5805 58.8494 37.5211C55.2425 33.5059 45.1968 35.5575 45.0961 35.5781L42.6182 36.2137C41.9206 36.392 41.3005 36.6039 40.7166 36.8648C36.58 38.7019 35.6602 40.9704 34.2624 44.4042C33.8826 45.337 33.4227 46.8407 33.0144 48.4659L37.4817 48.3729C37.5127 48.3729 37.5438 48.3729 37.5748 48.3729L37.5773 48.3703Z" fill="#0F172A"/>
<path d="M73.1275 63.7153H59.0952C58.8394 63.7153 58.6766 63.4414 58.8006 63.2166L68.1357 46.3395C68.1952 46.2336 68.3088 46.1664 68.4303 46.1664H82.4626C82.7184 46.1664 82.8812 46.4403 82.7572 46.665L73.4221 63.5421C73.3627 63.6481 73.249 63.7153 73.1275 63.7153Z" fill="#EFF5F5"/>
<path d="M73.1273 63.9478H59.0949C58.8908 63.9478 58.71 63.8444 58.6066 63.6687C58.5033 63.493 58.5007 63.2837 58.5988 63.1055L67.934 46.2284C68.0347 46.0475 68.2233 45.9364 68.43 45.9364H82.4624C82.6665 45.9364 82.8474 46.0398 82.9508 46.2154C83.0541 46.3911 83.0567 46.6004 82.9585 46.7787L73.6234 63.6558C73.5226 63.8367 73.334 63.9478 73.1273 63.9478ZM68.43 46.3989C68.3913 46.3989 68.3551 46.4196 68.337 46.4532L59.0019 63.3302C58.9761 63.3768 58.9916 63.4155 59.0019 63.4336C59.0123 63.4543 59.0407 63.4853 59.0923 63.4853H73.1247C73.1635 63.4853 73.1997 63.4646 73.2177 63.431L82.5528 46.5539C82.5787 46.5074 82.5632 46.4687 82.5528 46.4506C82.5425 46.4299 82.5141 46.3989 82.4624 46.3989H68.43Z" fill="#0F172A"/>
<path d="M76.0828 58.8139C76.0828 58.8139 75.8037 57.3593 76.0828 56.3878C76.3618 55.4163 78.0852 52.5302 78.5787 51.9256C79.0722 51.321 79.4882 57.7727 76.0828 58.8139Z" fill="#EFF5F5"/>
<path d="M76.083 59.0464C76.0417 59.0464 76.0004 59.0361 75.9642 59.0128C75.9074 58.9793 75.8686 58.9224 75.8557 58.8578C75.8428 58.7958 75.5715 57.336 75.8608 56.3257C76.1425 55.3439 77.8762 52.4217 78.4007 51.7809C78.5092 51.6491 78.6487 51.6388 78.7443 51.675C79.1293 51.8197 79.1551 52.9229 79.1345 53.5689C79.0673 55.7909 78.2482 58.3953 76.1502 59.0361C76.127 59.0439 76.1063 59.0464 76.083 59.0464ZM78.5996 52.2822C77.9744 53.1684 76.543 55.6152 76.3053 56.4523C76.1141 57.119 76.2045 58.0491 76.2665 58.5038C77.3672 58.0439 77.9459 56.9407 78.2405 56.0622C78.7547 54.543 78.7288 52.8893 78.5996 52.2822Z" fill="#0F172A"/>
<path d="M61.9837 60.2918L58.338 58.9664C57.7954 58.77 57.1908 58.8682 56.7413 59.2299L55.0179 60.6096C54.6898 60.8732 54.2712 60.9998 53.8526 60.9636C52.0207 60.8138 43.7088 58.2481 42.8846 56.7779C42.4764 56.0519 41.957 53.5767 41.5772 51.5303C41.2594 49.8147 39.7453 48.5848 38.0013 48.621L34.2445 48.7037C34.2445 48.7037 35.2031 57.7649 38.2261 60.7052C40.5747 62.9893 46.166 64.2011 54.3074 63.8393C54.3074 63.8393 56.0101 63.674 57.4647 61.9945C58.3923 60.9223 60.6014 61.5165 61.9243 61.2168C62.3945 61.1109 62.4333 60.4572 61.9811 60.2918H61.9837Z" fill="#EFF5F5"/>
<path d="M51.5478 64.1313C44.9876 64.1313 40.2568 62.997 38.0683 60.868C35.0195 57.9018 34.0557 49.099 34.017 48.7243C34.0092 48.6597 34.0299 48.5951 34.0738 48.5461C34.1177 48.497 34.1772 48.4685 34.2418 48.4685L37.9985 48.3859C38.027 48.3859 38.0554 48.3859 38.0838 48.3859C39.9131 48.3859 41.4711 49.6777 41.807 51.4838C42.3238 54.2717 42.7811 56.1113 43.0885 56.6616C43.8663 58.0465 52.0619 60.5812 53.8731 60.7285C54.2375 60.7595 54.5914 60.651 54.8756 60.4236L56.599 59.0439C57.108 58.6356 57.8056 58.5219 58.4206 58.7441L62.0662 60.0722C62.3711 60.1833 62.5546 60.4623 62.5339 60.7879C62.5132 61.1109 62.2962 61.3667 61.981 61.439C61.4926 61.5501 60.919 61.5475 60.3119 61.5423C59.2654 61.5346 58.1803 61.5268 57.648 62.1444C56.152 63.8729 54.4132 64.0615 54.3382 64.0667C53.3771 64.1106 52.4469 64.1313 51.5503 64.1313H51.5478ZM34.5053 48.9259C34.6862 50.3986 35.7378 57.9561 38.3887 60.5373C40.7477 62.8316 46.5482 63.9504 54.2995 63.6068C54.302 63.6068 55.9221 63.4259 57.2915 61.8421C57.9658 61.0644 59.1543 61.0721 60.3093 61.0799C60.8906 61.085 61.4384 61.0876 61.8725 60.9894C62.043 60.9507 62.0637 60.8034 62.0688 60.7595C62.0714 60.7155 62.0688 60.5683 61.9035 60.5063L58.2578 59.1782C57.7953 59.0103 57.2682 59.0955 56.8832 59.403L55.1599 60.7827C54.7852 61.0824 54.3124 61.2271 53.8318 61.1884C52.0438 61.0411 43.5846 58.4961 42.6803 56.8864C42.3367 56.2767 41.8897 54.4861 41.3471 51.5665C41.0474 49.9542 39.647 48.807 38.0037 48.8458L34.5001 48.9233L34.5053 48.9259Z" fill="#0F172A"/>
<path d="M46.2847 35.1906C46.2847 35.1906 49.2508 28.7519 49.4291 27.9457C49.4291 27.9457 48.8116 27.5091 48.9847 26.4911C49.3103 24.5558 51.1137 25.7728 51.1137 25.7728L51.2972 25.8426C52.3669 26.256 53.5347 26.349 54.6586 26.1164L57.0176 25.6255C57.0176 25.6255 57.3819 26.5169 56.6197 28.0439C56.258 28.7725 56.1908 29.6639 56.2089 30.6096C56.2141 30.8576 56.0151 31.0643 55.7645 31.0695L55.1496 31.0824C54.7387 31.7723 54.4003 32.1676 53.8163 32.5681C53.6561 32.6766 53.4598 32.7231 53.2712 32.6869C53.0128 32.6404 52.6201 32.5319 52.1937 32.2839L51.4806 35.0872L52.9818 35.2474C52.9818 35.2474 53.2867 37.1026 50.2818 38.0224C48.623 38.5288 46.4268 38.0921 44.7913 37.6012C43.9516 37.348 43.8896 36.1879 44.6983 35.8494L46.2821 35.188L46.2847 35.1906Z" fill="#EFF5F5"/>
<path d="M48.592 38.4848C47.251 38.4848 45.8299 38.1619 44.7267 37.8286C44.2487 37.6839 43.9231 37.2705 43.8973 36.7718C43.8714 36.2757 44.1505 35.8339 44.6104 35.6401L46.1116 35.0123C46.9177 33.2605 48.8555 28.9869 49.1681 28.0206C48.9666 27.8113 48.6126 27.3101 48.7573 26.4549C48.8607 25.8348 49.1216 25.4343 49.5273 25.2586C50.2171 24.964 51.0646 25.4704 51.2196 25.5686L51.3798 25.6306C52.4108 26.0285 53.5295 26.119 54.6121 25.8942L56.9711 25.4033C57.0796 25.3826 57.1907 25.4394 57.232 25.5428C57.2475 25.5841 57.6248 26.5479 56.829 28.1498C56.4621 28.8862 56.4285 29.806 56.4414 30.607C56.4492 30.9816 56.1469 31.2942 55.7722 31.302L55.2839 31.3123C54.8679 31.9893 54.5114 32.3768 53.9507 32.7592C53.7388 32.9039 53.4778 32.9608 53.2324 32.9168C53.0128 32.8755 52.7001 32.7928 52.3487 32.6275L51.7726 34.8882L53.0102 35.02C53.1135 35.0303 53.1962 35.1104 53.2143 35.2112C53.2272 35.2939 53.5166 37.2782 50.3541 38.2445C49.8089 38.4125 49.2095 38.4797 48.5946 38.4797L48.592 38.4848ZM50.0001 25.6306C49.8968 25.6306 49.7986 25.6461 49.7082 25.6849C49.4549 25.7934 49.2896 26.0802 49.2121 26.5324C49.0674 27.3953 49.5583 27.7545 49.5635 27.7597C49.6384 27.8139 49.6746 27.9069 49.6565 27.9974C49.4756 28.819 46.618 35.0252 46.4965 35.2887C46.4733 35.3404 46.4294 35.3817 46.3751 35.405L44.7913 36.0664C44.4554 36.206 44.3494 36.5108 44.3624 36.746C44.3753 36.9837 44.5122 37.2782 44.8636 37.3841C46.4113 37.8518 48.5971 38.3014 50.2197 37.8079C52.4779 37.1154 52.7466 35.9114 52.7647 35.4618L51.4599 35.3223C51.3928 35.3146 51.3333 35.2784 51.2946 35.2241C51.2558 35.1699 51.2429 35.1001 51.261 35.0355L51.9741 32.2321C51.9922 32.1624 52.0413 32.1029 52.1085 32.0771C52.1756 32.0487 52.2506 32.0539 52.3152 32.09C52.7131 32.3226 53.08 32.4233 53.3177 32.4673C53.4443 32.4905 53.5812 32.4595 53.6923 32.3846C54.2271 32.0177 54.5449 31.6611 54.9558 30.9713C54.9971 30.9041 55.0694 30.8602 55.1495 30.8576L55.7645 30.8447C55.8859 30.8447 55.9841 30.7413 55.9815 30.6199C55.966 29.7621 56.0073 28.7725 56.4182 27.9483C56.9246 26.9329 56.9013 26.2223 56.8522 25.9045L54.7103 26.3489C53.5424 26.5918 52.3332 26.4936 51.2196 26.0647L51.0362 25.9924C51.0207 25.9872 51.0052 25.9794 50.9897 25.9691C50.8243 25.858 50.3903 25.6306 50.0053 25.6306H50.0001Z" fill="#0F172A"/>
<path d="M52.1937 32.519C52.1497 32.519 52.1084 32.506 52.0696 32.4828L51.6821 32.2347C51.5736 32.165 51.5426 32.0229 51.6123 31.9169C51.6821 31.8084 51.8242 31.7774 51.9301 31.8472L52.3177 32.0952C52.4262 32.165 52.4572 32.3071 52.3874 32.413C52.3435 32.4828 52.2686 32.519 52.1937 32.519Z" fill="#0F172A"/>
</svg>
