<svg width="122" height="125" viewBox="0 0 122 125" fill="none" xmlns="http://www.w3.org/2000/svg">
<path d="M97.9132 51.0023L95.8573 44.0707L77.158 42.3942L75.9304 51.7512C75.9304 51.7512 95.0935 55.7986 97.9132 51.0023Z" fill="#14B8A6"/>
<path d="M89.7687 53.5095C83.6282 53.5095 76.384 52.0042 75.898 51.9C75.8211 51.8826 75.769 51.8107 75.7789 51.7314L77.0065 42.3743C77.0164 42.2924 77.0908 42.2354 77.1702 42.2428L95.8695 43.9193C95.9315 43.9243 95.9836 43.9689 96.0034 44.0284L98.0593 50.9601C98.0717 50.9998 98.0668 51.0444 98.0445 51.0816C96.9557 52.9317 93.573 53.5095 89.7687 53.5095ZM76.1013 51.6297C77.8274 51.9794 95.0288 55.3348 97.7493 50.9824L95.7405 44.2144L77.2917 42.5603L76.1013 51.6297Z" fill="white"/>
<path d="M61.9777 25.3588L64.6437 27.3627C64.3213 28.6473 64.108 29.9419 64.0088 31.234L60.8543 32.288C59.2918 32.8088 58.3023 34.3439 58.466 35.9807C58.6322 37.6175 59.9094 38.9245 61.5437 39.1229L64.8545 39.5271C65.2166 40.7845 65.6804 42.0096 66.2433 43.1901L64.0311 45.6875C62.9399 46.92 62.8482 48.7453 63.8104 50.0796C64.7727 51.4163 66.531 51.9049 68.0463 51.2625L71.1066 49.9605C72.0391 50.8608 73.0559 51.6891 74.1496 52.4356L73.4825 55.7042C73.1526 57.3162 73.9859 58.9431 75.4863 59.6177C76.9867 60.2923 78.7574 59.8384 79.747 58.524L81.7508 55.858C83.0355 56.1804 84.33 56.3937 85.6221 56.4929L86.6761 59.6475C87.1969 61.2099 88.7321 62.1994 90.3689 62.0357C92.0057 61.8695 93.3126 60.5923 93.511 58.958L93.9153 55.6472C95.1726 55.2851 96.3978 54.8214 97.5782 54.2584L100.076 56.4706C101.308 57.5618 103.133 57.6535 104.468 56.6913C105.804 55.729 106.295 53.9707 105.651 52.4554L104.349 49.3951C105.249 48.4626 106.077 47.4458 106.824 46.3521L110.092 47.0192C111.704 47.3491 113.331 46.5158 114.006 45.0154C114.68 43.515 114.227 41.7443 112.912 40.7547L110.246 38.7509C110.569 37.4662 110.782 36.1717 110.881 34.8796L114.036 33.8256C115.598 33.3048 116.588 31.7697 116.424 30.1328C116.258 28.496 114.98 27.1891 113.346 26.9907L110.035 26.5864C109.673 25.3291 109.209 24.1039 108.647 22.9235L110.859 20.4261C111.95 19.1935 112.042 17.3707 111.079 16.034C110.117 14.6973 108.359 14.2062 106.844 14.851L103.783 16.153C102.851 15.2528 101.834 14.4245 100.74 13.678L101.407 10.4093C101.737 8.79732 100.904 7.17043 99.4035 6.49587C97.9031 5.8213 96.1324 6.27515 95.1429 7.58955L93.139 10.2556C91.8544 9.93316 90.5598 9.71988 89.2677 9.6182L88.2137 6.46363C87.6929 4.90122 86.1578 3.9117 84.521 4.07538C82.8842 4.24154 81.5772 5.51874 81.3788 7.15307L80.9746 10.4639C79.7172 10.826 78.4921 11.2897 77.3116 11.8527L74.8142 9.64052C73.5817 8.54932 71.7589 8.45755 70.4221 9.4198C69.0854 10.382 68.5944 12.1404 69.2392 13.6557L70.5412 16.716C69.6409 17.6485 68.8126 18.6653 68.0661 19.759L64.7975 19.0918C63.1855 18.762 61.5586 19.5953 60.884 21.0957C60.2094 22.5961 60.6633 24.3668 61.9777 25.3563V25.3588ZM70.4023 25.3836C74.6382 15.972 85.704 11.7758 95.1156 16.0117C104.527 20.2475 108.723 31.3133 104.488 40.725C100.252 50.1366 89.1859 54.3328 79.7743 50.0969C70.3626 45.8611 66.1664 34.7953 70.4023 25.3836Z" fill="#14B8A6"/>
<path d="M90.0117 62.2094C88.4418 62.2094 87.0456 61.2198 86.5372 59.6996L85.5154 56.6393C84.2903 56.5376 83.0478 56.3342 81.8177 56.0317L79.8734 58.6158C78.8343 59.9972 77.0065 60.4684 75.4292 59.7566C73.8519 59.0474 72.9914 57.3684 73.3361 55.6721L73.9809 52.5026C72.9393 51.7834 71.9622 50.9898 71.0743 50.1392L68.1057 51.4015C66.5136 52.0785 64.6982 51.5726 63.6864 50.1689C62.6745 48.7652 62.7712 46.8804 63.917 45.5859L66.0622 43.1629C65.529 42.037 65.0851 40.8614 64.7354 39.6636L61.5238 39.2718C59.8076 39.0634 58.4858 37.7143 58.3122 35.9932C58.1386 34.272 59.1628 32.6873 60.8021 32.1392L63.8625 31.1175C63.9641 29.8924 64.1675 28.6474 64.4701 27.4198L61.8859 25.4755C60.5045 24.4363 60.0333 22.6086 60.7426 21.0313C61.4519 19.454 63.1308 18.5934 64.8272 18.9381L67.9966 19.5829C68.7158 18.5413 69.5094 17.5642 70.3626 16.6764L69.1002 13.7078C68.4232 12.1156 68.9291 10.3003 70.3328 9.28842C71.7365 8.27658 73.6213 8.3733 74.9159 9.51906L77.3388 11.6643C78.4648 11.1336 79.6428 10.6871 80.8381 10.3375L81.23 7.12585C81.4383 5.40969 82.7874 4.08784 84.5085 3.91424C86.2297 3.74064 87.8144 4.76488 88.3625 6.40417L89.3842 9.4645C90.6118 9.56618 91.8543 9.76954 93.0819 10.0721L95.0263 7.48793C96.0654 6.10657 97.8932 5.63537 99.4704 6.34713C101.048 7.05641 101.908 8.73538 101.564 10.4317L100.919 13.6012C101.958 14.3204 102.935 15.114 103.825 15.9646L106.794 14.7023C108.386 14.0252 110.204 14.5312 111.213 15.9349C112.225 17.3385 112.128 19.2233 110.983 20.5179L108.837 22.9409C109.371 24.0668 109.815 25.2448 110.164 26.4402L113.376 26.832C115.092 27.0403 116.414 28.3895 116.587 30.1106C116.761 31.8317 115.737 33.4164 114.098 33.9645L111.037 34.9863C110.936 36.2139 110.732 37.4564 110.43 38.684L113.014 40.6283C114.395 41.6674 114.866 43.4952 114.157 45.0725C113.448 46.6498 111.769 47.5103 110.072 47.1656L106.903 46.5208C106.184 47.5624 105.388 48.5396 104.537 49.4274L105.802 52.396C106.479 53.9881 105.973 55.8035 104.569 56.8153C103.166 57.8272 101.281 57.7329 99.9863 56.5847L97.5633 54.4395C96.4374 54.9702 95.2619 55.4166 94.064 55.7663L93.6722 58.9779C93.4639 60.6941 92.1147 62.0159 90.3936 62.1895C90.2671 62.2019 90.1406 62.2094 90.0142 62.2094H90.0117ZM81.7557 55.7068C81.7557 55.7068 81.7805 55.7068 81.7929 55.7117C83.0701 56.0317 84.3647 56.2449 85.6394 56.3441C85.7014 56.3491 85.7535 56.3888 85.7733 56.4483L86.8274 59.6029C87.3308 61.1058 88.7816 62.0457 90.3614 61.887C91.9387 61.7282 93.1762 60.518 93.3671 58.9432L93.7714 55.6324C93.7788 55.5704 93.821 55.5208 93.8805 55.5034C95.1279 55.1463 96.3506 54.6801 97.5212 54.1221C97.5757 54.0948 97.6427 54.1047 97.6873 54.1444L100.185 56.3565C101.373 57.4081 103.101 57.4949 104.386 56.5673C105.673 55.6398 106.137 53.9733 105.517 52.515L104.215 49.4547C104.19 49.3976 104.202 49.3332 104.244 49.2885C105.132 48.3709 105.961 47.3516 106.705 46.2654C106.739 46.2158 106.801 46.1885 106.861 46.2009L110.13 46.868C111.682 47.1855 113.222 46.3968 113.874 44.951C114.527 43.5051 114.095 41.8286 112.828 40.8763L110.162 38.8725C110.112 38.8353 110.09 38.7733 110.105 38.7137C110.425 37.4365 110.638 36.142 110.737 34.8673C110.742 34.8053 110.782 34.7532 110.841 34.7333L113.996 33.6793C115.501 33.1759 116.439 31.7226 116.28 30.1453C116.121 28.568 114.911 27.3305 113.336 27.1395L110.025 26.7353C109.963 26.7279 109.914 26.6857 109.896 26.6262C109.539 25.3812 109.076 24.1561 108.515 22.9855C108.488 22.931 108.498 22.864 108.537 22.8194L110.75 20.322C111.801 19.1341 111.888 17.408 110.96 16.1209C110.033 14.8337 108.366 14.37 106.908 14.99L103.848 16.292C103.791 16.3168 103.726 16.3044 103.682 16.2622C102.761 15.3719 101.745 14.546 100.658 13.802C100.609 13.7673 100.581 13.7053 100.594 13.6458L101.261 10.3771C101.578 8.82218 100.79 7.28457 99.344 6.63233C97.8981 5.98257 96.2216 6.41161 95.2693 7.6789L93.2655 10.3449C93.2283 10.3945 93.1663 10.4168 93.1067 10.4019C91.8295 10.082 90.5374 9.86874 89.2602 9.76954C89.1982 9.76458 89.1462 9.7249 89.1263 9.66538L88.0723 6.51081C87.5689 5.00544 86.1156 4.068 84.5383 4.22672C82.961 4.38544 81.7235 5.59569 81.5325 7.17049L81.1283 10.4813C81.1208 10.5433 81.0787 10.5929 81.0192 10.6103C79.7742 10.9674 78.5491 11.4312 77.3785 11.9916C77.3239 12.0189 77.257 12.009 77.2123 11.9693L74.715 9.75714C73.527 8.70562 71.7985 8.61882 70.5138 9.54634C69.2267 10.4739 68.7629 12.1404 69.383 13.5987L70.685 16.659C70.7098 16.7161 70.6974 16.7805 70.6552 16.8252C69.7674 17.7453 68.939 18.7621 68.195 19.8483C68.1603 19.8979 68.0983 19.9227 68.0388 19.9128L64.7701 19.2457C63.2177 18.9282 61.6776 19.7169 61.0253 21.1627C60.3756 22.6086 60.8046 24.285 62.0719 25.2374L64.7379 27.2412C64.7875 27.2784 64.8098 27.3404 64.7949 27.3999C64.475 28.6771 64.2617 29.9717 64.1625 31.2464C64.1576 31.3084 64.1179 31.3605 64.0584 31.3804L60.9038 32.4344C59.3984 32.9378 58.461 34.3911 58.6197 35.9684C58.7784 37.5457 59.9887 38.7832 61.5635 38.9741L64.8743 39.3784C64.9363 39.3858 64.9859 39.428 65.0033 39.4875C65.3604 40.735 65.8241 41.9576 66.3846 43.1282C66.4119 43.1827 66.402 43.2497 66.3623 43.2943L64.1501 45.7917C63.0986 46.9796 63.0118 48.7082 63.9393 49.9928C64.8669 51.28 66.5334 51.7437 67.9917 51.1237L71.052 49.8217C71.109 49.7969 71.1735 49.8093 71.2182 49.8515C72.1382 50.7393 73.1551 51.5676 74.2413 52.3116C74.2909 52.3464 74.3182 52.4084 74.3058 52.4679L73.6387 55.7365C73.3212 57.2915 74.1099 58.8291 75.5557 59.4814C77.0015 60.1311 78.678 59.7021 79.6304 58.4348L81.6342 55.7688C81.664 55.7291 81.7086 55.7068 81.7557 55.7068ZM87.4201 51.8975C84.8384 51.8975 82.217 51.3643 79.7147 50.2384C70.241 45.9727 66.0027 34.7978 70.2658 25.3217C72.3317 20.7312 76.0616 17.222 80.7662 15.4364C85.4733 13.6508 90.592 13.807 95.18 15.8729C104.654 20.136 108.892 31.3134 104.629 40.7895C101.492 47.7608 94.6096 51.8975 87.4201 51.8975ZM87.4548 14.5088C85.2352 14.5088 83.0106 14.9131 80.8753 15.7241C76.2451 17.4799 72.5772 20.9321 70.5436 25.4482C66.3474 34.7681 70.5188 45.7644 79.8387 49.9606C89.161 54.1568 100.155 49.9854 104.351 40.6655C108.547 31.3456 104.376 20.3493 95.056 16.1531C92.6256 15.0594 90.0439 14.5088 87.4548 14.5088Z" fill="white"/>
<path d="M63.2627 37.9945C63.2627 37.9945 61.172 38.0714 58.5854 38.0614C58.0422 38.0614 56.5815 36.313 55.6465 36.6081C54.9745 36.8214 56.2467 37.9672 56.0706 37.9647C54.414 37.9573 52.983 37.9523 52.4647 37.9498C52.058 37.9498 51.9216 38.364 52.0902 38.7335C52.3308 39.2618 52.8565 40.0628 53.7221 40.343C55.2721 40.8415 58.2654 40.6183 59.1905 40.4373C61.2142 40.0454 62.8163 40.0157 62.8163 40.0157L63.2627 37.9945Z" fill="#14B8A6"/>
<path d="M56.3979 40.8019C55.4158 40.8019 54.399 40.7225 53.6749 40.4894C52.663 40.1645 52.1323 39.1973 51.9513 38.798C51.8322 38.5376 51.8397 38.2524 51.9686 38.054C52.0753 37.8879 52.2563 37.7986 52.4646 37.8011C52.9557 37.8035 54.2651 37.8085 55.8126 37.8159C55.8052 37.8085 55.8002 37.7986 55.7928 37.7911C55.5497 37.4762 55.2149 37.0471 55.3141 36.7297C55.3414 36.6429 55.4133 36.5263 55.6018 36.4668C56.2491 36.2634 57.0601 36.876 57.7123 37.3695C58.0471 37.6225 58.4266 37.9102 58.5878 37.9127C61.1397 37.9226 63.2378 37.8457 63.2601 37.8457C63.3072 37.8457 63.3519 37.8631 63.3841 37.9003C63.4139 37.9375 63.4263 37.9846 63.4163 38.0317L62.9699 40.0529C62.9551 40.1223 62.8931 40.1719 62.8236 40.1719C62.8087 40.1719 61.2067 40.2067 59.2226 40.5911C58.7142 40.6903 57.5834 40.8043 56.4029 40.8043L56.3979 40.8019ZM52.4597 38.1036C52.353 38.1036 52.2737 38.1433 52.2241 38.2177C52.1521 38.3293 52.1521 38.5079 52.2265 38.6715C52.3927 39.0336 52.8713 39.9091 53.7666 40.1992C55.2918 40.6903 58.2802 40.4596 59.1582 40.2885C60.857 39.9587 62.278 39.8818 62.6897 39.8669L63.0667 38.1532C62.4863 38.1706 60.6883 38.2227 58.5803 38.2127C58.3174 38.2127 57.9653 37.9449 57.5214 37.6101C56.9262 37.1587 56.1822 36.5982 55.6861 36.7545C55.6117 36.7793 55.6018 36.8066 55.5993 36.8165C55.5473 36.9802 55.8845 37.4142 56.0284 37.6002C56.2069 37.8283 56.2739 37.9151 56.2169 38.0267C56.1896 38.0838 56.1301 38.1185 56.0656 38.1185C54.4089 38.1111 52.978 38.1061 52.4597 38.1036Z" fill="white"/>
<path d="M77.4309 20.0517C80.1192 19.5705 85.8951 19.201 89.9326 19.5383C91.1701 19.6425 92.3432 20.1261 93.293 20.9271C96.0756 23.2757 102.397 28.8631 102.841 35.7551C102.866 36.1494 102.69 36.5288 102.382 36.7744L102.328 36.4743C100.807 37.6845 98.8656 37.9152 97.3974 36.6405L96.088 35.6782C96.088 35.6782 98.3349 43.7308 98.1836 45.0254C98.0298 46.3199 94.0891 48.5222 89.1613 46.7143C85.2131 45.2659 79.8762 45.1196 76.729 45.9355C76.6769 45.9479 76.543 47.369 76.4909 47.3839C76.2653 47.4459 76.0173 47.4012 75.7841 47.3119C75.2162 47.0937 74.8417 46.5456 74.8269 45.938L74.6235 36.7793L67.9448 35.4897C67.9448 35.4897 71.1688 21.1701 77.4284 20.0492L77.4309 20.0517Z" fill="white"/>
<path d="M106.348 22.5391C106.273 22.9161 104.518 32.4468 103.721 34.3638C102.908 36.3255 102.159 38.7708 98.6102 37.4192C93.3104 35.4004 102.685 22.74 103.238 21.8918C103.258 21.8621 106.35 22.5317 106.348 22.5391Z" fill="white"/>
<path d="M58.9547 40.5564L58.9349 38.307C58.9299 37.8507 59.3069 37.4787 59.7632 37.4911C61.586 37.5382 65.8863 37.3894 67.5479 35.0954C68.9442 33.1684 69.3658 30.8521 69.3658 30.8521C69.3658 30.8521 76.4041 29.7931 77.6193 35.5021C79.3404 43.5968 63.2278 41.836 59.6516 41.35C59.2523 41.2954 58.9547 40.9581 58.9522 40.5539L58.9547 40.5564Z" fill="white"/>
<path d="M103.855 22.1746L103.642 19.2878C103.642 19.2878 103.508 17.0806 103.94 16.6665C104.257 16.3639 104.709 17.0781 104.887 18.0825C104.917 18.2487 105.153 18.2512 105.182 18.0825C105.294 17.4278 105.316 16.9517 105.279 16.2796C105.239 15.5554 105.103 14.2807 105.782 14.2509C106.462 14.2236 108.037 15.9919 107.662 18.1346C107.288 20.2773 105.728 22.5788 105.728 22.5788L103.853 22.1721L103.855 22.1746Z" fill="#14B8A6"/>
<path d="M105.73 22.7326C105.73 22.7326 105.708 22.7326 105.698 22.7301L103.823 22.3234C103.756 22.3085 103.709 22.2539 103.704 22.1845L103.491 19.2977C103.469 18.9158 103.374 16.9938 103.836 16.5549C103.945 16.4507 104.081 16.416 104.217 16.4606C104.612 16.5896 104.914 17.3534 105.038 18.0528C105.138 17.4253 105.162 16.9616 105.128 16.2845L105.118 16.101C105.078 15.4587 105.031 14.6576 105.363 14.2881C105.472 14.1666 105.611 14.1021 105.78 14.0947C106.075 14.0823 106.484 14.3303 106.859 14.7593C107.484 15.4736 108.064 16.7409 107.816 18.1569C107.441 20.3071 105.921 22.5639 105.857 22.6606C105.827 22.7028 105.78 22.7276 105.73 22.7276V22.7326ZM103.999 22.0481L105.661 22.4102C105.941 21.9762 107.191 19.9673 107.513 18.1123C107.742 16.8004 107.206 15.6273 106.626 14.9676C106.278 14.5708 105.949 14.3997 105.787 14.4072C105.703 14.4096 105.639 14.4394 105.586 14.4989C105.338 14.7717 105.388 15.5653 105.42 16.0886L105.43 16.2746C105.467 16.9765 105.443 17.4576 105.331 18.1123C105.306 18.2586 105.185 18.3628 105.036 18.3628C104.887 18.3628 104.763 18.2586 104.738 18.1123C104.589 17.2765 104.282 16.8078 104.123 16.7557C104.103 16.7483 104.081 16.7458 104.046 16.7805C103.769 17.0459 103.746 18.4545 103.796 19.2804L104.002 22.0506L103.999 22.0481Z" fill="white"/>
<path d="M79.7521 14.0848C79.3156 13.8864 79.0875 14.2163 78.4377 14.127C77.7458 14.0327 76.9844 13.5194 76.6992 12.7704C76.3545 11.8652 76.8505 11.0022 77.1654 10.459C77.4779 9.9184 77.8747 9.31576 78.5617 9.05536C79.4595 8.71559 79.8339 9.2364 80.8631 8.91647C81.6989 8.65607 81.6369 8.25431 82.3809 8.04103C83.0009 7.86495 84.789 7.96415 85.1883 8.91647C85.4412 9.51912 84.8956 9.88616 85.1684 10.779C85.3321 11.3146 85.59 11.3816 85.7785 11.7958C86.2448 12.8225 85.6595 14.6279 84.5484 15.2306C83.0406 16.0515 80.5085 14.4271 79.7546 14.0848H79.7521Z" fill="white"/>
<path d="M81.1383 15.8085L80.7862 18.6902C80.7192 19.2383 80.3249 19.6922 79.7892 19.831L78.3062 20.2179L78.5145 20.3767C81.0912 22.3383 84.6599 22.3408 87.2391 20.3841L88.008 19.8013L86.1678 19.3896C85.6395 19.2706 85.2328 18.8465 85.1361 18.3133L84.3698 14.0675L81.1358 15.806L81.1383 15.8085Z" fill="#14B8A6"/>
<path d="M82.8842 21.9961C81.3094 21.9961 79.7371 21.4951 78.4227 20.4957L78.2144 20.3369C78.1672 20.3022 78.1449 20.2427 78.1573 20.1857C78.1697 20.1286 78.2119 20.0815 78.2689 20.0691L79.752 19.6822C80.2306 19.5582 80.5753 19.1614 80.6373 18.6704L80.9895 15.7886C80.9944 15.739 81.0242 15.6968 81.0688 15.672L84.3028 13.9336C84.3449 13.9112 84.397 13.9088 84.4417 13.9311C84.4863 13.9534 84.5161 13.9931 84.526 14.0427L85.2923 18.2885C85.3766 18.7621 85.7362 19.1366 86.2074 19.2408L88.0476 19.6525C88.1046 19.6649 88.1518 19.712 88.1642 19.769C88.1766 19.8261 88.1542 19.8881 88.1071 19.9228L87.3383 20.5056C86.0289 21.5001 84.459 21.9961 82.8892 21.9961H82.8842ZM78.6484 20.2849C81.1581 22.1672 84.645 22.1598 87.1473 20.2625L87.6533 19.8781L86.133 19.5384C85.5428 19.4069 85.0914 18.9357 84.9848 18.3405L84.2557 14.3031L81.2772 15.9052L80.9349 18.7076C80.8605 19.3226 80.424 19.8211 79.8239 19.9773L78.6459 20.2849H78.6484Z" fill="white"/>
<path d="M84.0052 14.6552C84.0052 14.6552 85.1435 14.2262 84.7145 13.2862C84.2879 12.3463 83.591 13.0407 83.591 13.0407C83.591 13.0407 82.9437 10.7244 81.5872 11.6395C80.2281 12.5522 78.9435 12.8845 78.9435 12.8845C78.9435 12.8845 79.4221 15.2157 80.2802 16.7657C80.7985 17.7007 81.4557 18.3529 82.227 18.0379C84.3449 17.1774 84.0027 14.6552 84.0027 14.6552H84.0052Z" fill="#14B8A6"/>
<path d="M81.8302 18.2711C81.2399 18.2711 80.6745 17.79 80.1462 16.8377C79.2857 15.2852 78.812 13.0085 78.7922 12.9143C78.7748 12.8349 78.8244 12.7556 78.9038 12.7357C78.9162 12.7333 80.1834 12.3985 81.5003 11.5106C81.8575 11.27 82.2071 11.2105 82.537 11.3321C83.1619 11.5627 83.5265 12.391 83.6679 12.7878C83.8092 12.6985 84.0175 12.6093 84.2432 12.6514C84.4962 12.6985 84.702 12.8895 84.8533 13.2243C84.9847 13.5145 84.9996 13.7947 84.893 14.0526C84.7343 14.4345 84.3548 14.6602 84.1663 14.752C84.2011 15.2703 84.2234 17.3932 82.2865 18.1794C82.1327 18.2414 81.9815 18.2736 81.8302 18.2736V18.2711ZM79.1245 12.9887C79.241 13.5095 79.6974 15.3893 80.4166 16.6889C80.9919 17.728 81.5822 18.1347 82.1749 17.8942C84.1564 17.0906 83.8687 14.7718 83.8563 14.6751C83.8464 14.6057 83.8861 14.5362 83.9531 14.5114C83.958 14.5114 84.4565 14.3155 84.6127 13.9336C84.6871 13.755 84.6747 13.5641 84.578 13.3508C84.4714 13.1127 84.3399 12.9788 84.1911 12.954C83.9481 12.9093 83.7026 13.1474 83.7001 13.1499C83.6629 13.1871 83.6059 13.202 83.5538 13.1896C83.5017 13.1747 83.4595 13.135 83.4447 13.0829C83.4422 13.0705 83.0975 11.8653 82.4328 11.6197C82.1972 11.5329 81.9492 11.5801 81.6739 11.7661C80.5555 12.5175 79.499 12.8796 79.1245 12.9912V12.9887Z" fill="white"/>
<path d="M74.6258 36.9331C74.6258 36.9331 74.6159 36.9331 74.6085 36.9331C74.5241 36.9232 74.4646 36.8488 74.4721 36.7645C75.0102 31.673 75.7716 27.3677 75.779 27.3256C75.7939 27.2437 75.8733 27.1867 75.9551 27.2016C76.0369 27.2165 76.094 27.2958 76.0791 27.3777C76.0717 27.4198 75.3128 31.7152 74.7746 36.7967C74.7672 36.8761 74.7002 36.9331 74.6233 36.9331H74.6258Z" fill="#14B8A6"/>
<path d="M19.7383 100.091L21.085 100.808C21.0304 101.411 21.0255 102.011 21.0726 102.604L19.721 103.303C19.0514 103.65 18.7141 104.414 18.905 105.143C19.096 105.872 19.7656 106.371 20.5195 106.346L22.0447 106.294C22.2977 106.837 22.5953 107.358 22.9326 107.851L22.1092 109.139C21.7025 109.773 21.7918 110.604 22.32 111.14C22.8507 111.676 23.6791 111.772 24.3189 111.373L25.611 110.567C26.0971 110.909 26.6154 111.209 27.161 111.47L27.0916 112.995C27.0568 113.746 27.5479 114.423 28.2745 114.622C29.0012 114.82 29.7675 114.49 30.1221 113.826L30.8389 112.479C31.4415 112.534 32.0417 112.539 32.6344 112.492L33.3337 113.843C33.6809 114.513 34.4448 114.85 35.1739 114.659C35.903 114.468 36.4015 113.798 36.3767 113.045L36.3246 111.519C36.8678 111.266 37.3886 110.969 37.8821 110.631L39.1692 111.455C39.8041 111.862 40.6349 111.772 41.1706 111.244C41.7063 110.713 41.803 109.885 41.4037 109.245L40.5977 107.953C40.9399 107.467 41.24 106.949 41.5004 106.403L43.0256 106.473C43.7771 106.507 44.4541 106.016 44.6525 105.29C44.8509 104.563 44.5211 103.797 43.8564 103.442L42.5098 102.725C42.5643 102.123 42.5693 101.522 42.5222 100.93L43.8738 100.23C44.5434 99.8831 44.8807 99.1193 44.6897 98.3926C44.4988 97.6635 43.8292 97.165 43.0752 97.1898L41.55 97.2419C41.2971 96.6988 40.9995 96.178 40.6622 95.6845L41.4855 94.3974C41.8923 93.7625 41.803 92.9317 41.2747 92.396C40.744 91.8603 39.9157 91.7636 39.2759 92.1629L37.9838 92.9689C37.4977 92.6266 36.9794 92.3265 36.4338 92.0661L36.5032 90.5409C36.5379 89.7895 36.0469 89.1124 35.3202 88.914C34.5936 88.7156 33.8273 89.0455 33.4726 89.7101L32.7559 91.0568C32.1533 91.0022 31.5531 90.9973 30.9604 91.0444L30.261 89.6928C29.9138 89.0232 29.15 88.6859 28.4208 88.8768C27.6917 89.0678 27.1932 89.7374 27.218 90.4913L27.2701 92.0165C26.727 92.2695 26.2062 92.5646 25.7127 92.9044L24.4255 92.081C23.7907 91.6743 22.9599 91.7636 22.4242 92.2918C21.8885 92.8225 21.7918 93.6509 22.1911 94.2907L22.9971 95.5828C22.6548 96.0689 22.3547 96.5872 22.0943 97.1328L20.5691 97.0634C19.8177 97.0286 19.1406 97.5197 18.9422 98.2463C18.7438 98.973 19.0737 99.7393 19.7383 100.094V100.091ZM23.5476 99.5062C24.7951 94.9504 29.4996 92.2695 34.0529 93.5169C38.6087 94.7644 41.2896 99.469 40.0422 104.022C38.7947 108.578 34.0902 111.259 29.5369 110.011C24.9811 108.764 22.3002 104.059 23.5476 99.5062Z" fill="#14B8A6"/>
<path d="M34.762 114.862C34.1172 114.862 33.5121 114.508 33.2021 113.91L32.5474 112.648C32.0166 112.685 31.4735 112.68 30.9279 112.635L30.2583 113.893C29.8689 114.627 29.0357 114.984 28.2346 114.766C27.4336 114.547 26.9004 113.813 26.9376 112.985L27.002 111.562C26.511 111.323 26.0423 111.048 25.6033 110.748L24.398 111.502C23.6937 111.941 22.7935 111.837 22.2107 111.247C21.6279 110.656 21.5311 109.756 21.98 109.057L22.7488 107.856C22.4487 107.41 22.1809 106.939 21.9478 106.453L20.5218 106.502C19.691 106.53 18.9643 105.989 18.756 105.188C18.5452 104.384 18.9123 103.556 19.6513 103.174L20.9136 102.519C20.8764 101.989 20.8814 101.446 20.926 100.9L19.6687 100.23C18.9346 99.841 18.5775 99.0077 18.7957 98.2067C19.0139 97.4056 19.7455 96.8725 20.5763 96.9097L21.9999 96.9741C22.2379 96.4831 22.5132 96.0144 22.8133 95.5754L22.0594 94.3701C21.6204 93.6658 21.7246 92.7656 22.3148 92.1828C22.9051 91.5999 23.8053 91.5032 24.5047 91.9496L25.705 92.7184C26.1514 92.4184 26.6226 92.1505 27.1087 91.9174L27.0591 90.4914C27.0293 89.6606 27.5724 88.9339 28.3735 88.7256C29.177 88.5148 30.0053 88.8819 30.3873 89.6209L31.042 90.8832C31.5727 90.846 32.1158 90.851 32.6614 90.8956L33.331 89.6383C33.7204 88.9042 34.5537 88.5471 35.3547 88.7653C36.1558 88.9835 36.689 89.7176 36.6518 90.5459L36.5873 91.9695C37.0783 92.2075 37.547 92.4828 37.986 92.7829L39.1913 92.029C39.8956 91.59 40.7959 91.6942 41.3787 92.2844C41.9615 92.8747 42.0582 93.7749 41.6118 94.4743L40.843 95.6746C41.1431 96.121 41.4109 96.5922 41.644 97.0783L43.07 97.0287C43.9008 96.9989 44.6275 97.5421 44.8358 98.3431C45.0466 99.1466 44.6796 99.9749 43.9405 100.357L42.6782 101.012C42.7154 101.542 42.7104 102.085 42.6658 102.631L43.9232 103.301C44.6572 103.69 45.0144 104.523 44.7961 105.324C44.5779 106.125 43.8463 106.659 43.0155 106.621L41.5919 106.557C41.3539 107.048 41.0786 107.517 40.7785 107.956L41.5324 109.161C41.9714 109.865 41.8672 110.765 41.277 111.348C40.6867 111.931 39.7865 112.028 39.0871 111.581L37.8868 110.813C37.4404 111.113 36.9692 111.381 36.4831 111.614L36.5327 113.04C36.5625 113.87 36.0194 114.597 35.2183 114.805C35.067 114.845 34.9158 114.865 34.7645 114.865L34.762 114.862ZM32.6366 112.335C32.6937 112.335 32.7458 112.368 32.773 112.417L33.4724 113.769C33.7874 114.379 34.4718 114.681 35.1365 114.508C35.8011 114.334 36.2475 113.734 36.2252 113.047L36.1731 111.522C36.1731 111.46 36.2054 111.405 36.2624 111.378C36.7956 111.13 37.3139 110.835 37.7975 110.503C37.8471 110.468 37.9141 110.468 37.9662 110.5L39.2533 111.323C39.8311 111.693 40.5776 111.614 41.0637 111.133C41.5523 110.649 41.6391 109.905 41.2745 109.322L40.4685 108.03C40.4363 107.978 40.4387 107.911 40.4735 107.861C40.8083 107.388 41.1059 106.872 41.3638 106.331C41.3911 106.277 41.4456 106.242 41.5076 106.244L43.0328 106.314C43.7173 106.344 44.3249 105.905 44.506 105.242C44.687 104.58 44.3894 103.893 43.7843 103.571L42.4376 102.854C42.3831 102.824 42.3508 102.767 42.3583 102.705C42.4128 102.11 42.4153 101.515 42.3707 100.937C42.3657 100.875 42.398 100.818 42.4525 100.791L43.8041 100.092C44.4142 99.7765 44.7168 99.0921 44.5432 98.4274C44.3696 97.7628 43.7644 97.3139 43.0824 97.3387L41.5572 97.3908C41.4952 97.3908 41.4382 97.3585 41.4134 97.3015C41.1654 96.7683 40.8703 96.2524 40.5379 95.7664C40.5032 95.7168 40.5032 95.6498 40.5355 95.5977L41.3588 94.3106C41.7283 93.7328 41.649 92.9863 41.1679 92.5002C40.6843 92.0116 39.9403 91.9248 39.3575 92.2894L38.0654 93.0954C38.0133 93.1276 37.9463 93.1252 37.8967 93.0904C37.4206 92.7556 36.9072 92.458 36.369 92.2001C36.3145 92.1728 36.2798 92.1158 36.2822 92.0563L36.3517 90.5311C36.3839 89.8441 35.9425 89.239 35.2803 89.0579C34.6182 88.8769 33.9312 89.172 33.6088 89.7796L32.8921 91.1263C32.8623 91.1808 32.8053 91.2131 32.7433 91.2056C32.1481 91.1511 31.5529 91.1486 30.975 91.1932C30.913 91.1982 30.856 91.1659 30.8287 91.1114L30.1293 89.7598C29.8144 89.1497 29.1299 88.8471 28.4653 89.0207C27.8006 89.1943 27.3542 89.7945 27.3765 90.4815L27.4286 92.0067C27.4286 92.0687 27.3964 92.1257 27.3393 92.1505C26.8061 92.3985 26.2903 92.6936 25.8042 93.026C25.7546 93.0607 25.6876 93.0607 25.6356 93.0284L24.3484 92.2051C23.7706 91.8355 23.0241 91.9149 22.538 92.396C22.0495 92.8796 21.9627 93.6236 22.3272 94.2064L23.1332 95.4985C23.1655 95.5506 23.163 95.6176 23.1283 95.6672C22.7935 96.1408 22.4959 96.6567 22.2379 97.1973C22.2107 97.2519 22.1536 97.2866 22.0941 97.2841L20.5689 97.2147C19.8819 97.1849 19.2768 97.6239 19.0958 98.2861C18.9147 98.9482 19.2123 99.6352 19.8175 99.9601L21.1641 100.677C21.2187 100.707 21.2509 100.764 21.2435 100.826C21.1889 101.421 21.1864 102.016 21.2311 102.594C21.236 102.656 21.2038 102.713 21.1492 102.74L19.7976 103.44C19.1875 103.754 18.885 104.439 19.0586 105.104C19.2322 105.768 19.8323 106.217 20.5193 106.192L22.0445 106.14C22.1065 106.14 22.1635 106.172 22.1883 106.23C22.4363 106.763 22.7315 107.281 23.0638 107.765C23.0985 107.814 23.0985 107.881 23.0663 107.933L22.2429 109.22C21.8734 109.798 21.9527 110.545 22.4339 111.031C22.9175 111.519 23.6615 111.606 24.2443 111.242L25.5364 110.436C25.5884 110.403 25.6554 110.406 25.705 110.441C26.1787 110.775 26.6945 111.073 27.2352 111.331C27.2897 111.358 27.3244 111.415 27.322 111.475L27.2525 113C27.2203 113.687 27.6617 114.292 28.3239 114.473C28.9861 114.654 29.673 114.359 29.9954 113.751L30.7121 112.405C30.7419 112.35 30.7989 112.318 30.8609 112.325C31.4561 112.38 32.0513 112.382 32.6292 112.338C32.6342 112.338 32.6366 112.338 32.6416 112.338L32.6366 112.335ZM31.7934 110.468C31.0345 110.468 30.2633 110.369 29.4969 110.158C27.255 109.543 25.3851 108.094 24.2344 106.073C23.0836 104.055 22.786 101.706 23.4011 99.4641C24.0161 97.2221 25.4644 95.3522 27.4856 94.2015C29.5044 93.0508 31.8529 92.7532 34.0949 93.3682C38.7251 94.6355 41.458 99.4318 40.1907 104.062C39.1343 107.923 35.6176 110.468 31.7934 110.468ZM31.7835 93.3608C30.3426 93.3608 28.9216 93.7352 27.6369 94.4668C25.6876 95.5779 24.2889 97.3809 23.6962 99.5459C23.1035 101.711 23.3887 103.975 24.4997 105.924C25.6108 107.874 27.4137 109.273 29.5788 109.865C30.3178 110.069 31.0618 110.165 31.7934 110.165C35.4837 110.165 38.8763 107.71 39.8956 103.983C41.1183 99.5161 38.4795 94.886 34.013 93.6633C33.2765 93.4624 32.525 93.3608 31.781 93.3608H31.7835Z" fill="white"/>
<path d="M39.1522 101.795C39.1522 97.6883 35.8265 94.3577 31.7221 94.3577C27.6177 94.3577 24.292 97.6883 24.292 101.795C24.292 105.902 27.6177 109.233 31.7221 109.233C35.8265 109.233 39.1522 105.902 39.1522 101.795Z" fill="#14B8A6"/>
<path d="M36.9524 107.202C35.6132 108.464 33.8103 109.24 31.8263 109.24C29.8422 109.24 28.0368 108.464 26.7001 107.202C28.2476 106.723 29.9886 106.453 31.8263 106.453C33.6639 106.453 35.4049 106.723 36.9524 107.202Z" fill="white"/>
<path d="M29.4329 97.4502C29.7702 97.2345 30.162 97.1179 30.5613 97.1179H32.9198C33.4456 97.1179 33.954 97.3163 34.3384 97.6759L34.4673 97.795C35.0799 98.3629 35.2932 99.2433 35.0105 100.032L34.2342 102.185L29.2618 102.152L28.56 99.8013C28.2946 98.911 28.6492 97.9537 29.4304 97.4502H29.4329Z" fill="white"/>
<path d="M30.6607 98.3877L30.693 98.3728L34.2617 100.692V102.09C34.2617 102.889 33.8872 103.601 33.3069 104.062V106.192C33.3069 107.035 32.6249 107.717 31.7817 107.717C30.9385 107.717 30.2565 107.035 30.2565 106.192V104.117C29.634 103.658 29.2273 102.921 29.2273 102.09V100.607C29.2273 99.6203 29.8151 98.7696 30.6607 98.3877Z" fill="#14B8A6"/>
<path d="M31.7445 104.759C30.2714 104.759 29.076 103.561 29.076 102.09V100.607C29.076 99.1813 30.2367 98.0206 31.6602 98.0206H34.2618C34.3461 98.0206 34.4155 98.0901 34.4155 98.1744V102.09C34.4155 103.134 33.8005 104.089 32.8506 104.521C32.7737 104.555 32.6845 104.521 32.6473 104.444C32.6125 104.367 32.6473 104.278 32.7217 104.243C33.5624 103.859 34.108 103.015 34.108 102.09V98.3282H31.6602C30.4029 98.3282 29.3811 99.3499 29.3811 100.607V102.09C29.3811 103.395 30.4425 104.454 31.7445 104.454C31.8289 104.454 31.8983 104.523 31.8983 104.608C31.8983 104.692 31.8289 104.761 31.7445 104.761V104.759Z" fill="white"/>
<path d="M31.826 109.387C29.8097 109.387 27.9101 108.608 26.4717 107.189C24.9018 105.642 24.0809 103.489 24.2148 101.287C24.2198 101.203 24.2917 101.138 24.376 101.143C24.4604 101.148 24.5248 101.22 24.5199 101.304C24.3884 103.417 25.1796 105.483 26.6849 106.969C28.0638 108.33 29.8891 109.079 31.826 109.079C31.8434 109.079 31.8607 109.079 31.8781 109.079C33.8348 109.067 35.6675 108.293 37.0415 106.899C38.4154 105.508 39.1643 103.663 39.1495 101.708C39.1371 99.7517 38.3633 97.919 36.9695 96.5451C34.2316 93.8443 29.8395 93.7278 26.9677 96.2822C26.9057 96.3392 26.8089 96.3318 26.7519 96.2698C26.6949 96.2078 26.7023 96.1111 26.7643 96.054C29.7552 93.3954 34.3308 93.5145 37.1828 96.3293C38.6336 97.7603 39.4396 99.6699 39.4545 101.706C39.4694 103.742 38.6882 105.664 37.2572 107.115C35.8263 108.566 33.9166 109.372 31.8806 109.384C31.8632 109.384 31.8458 109.384 31.826 109.384V109.387Z" fill="white"/>
<path d="M31.7816 107.869C30.8565 107.869 30.1051 107.117 30.1051 106.192V104.171C30.1051 104.087 30.1745 104.017 30.2589 104.017C30.3432 104.017 30.4126 104.087 30.4126 104.171V106.192C30.4126 106.949 31.0277 107.564 31.7841 107.564C32.5405 107.564 33.1555 106.949 33.1555 106.192V104.062C33.1555 103.978 33.225 103.908 33.3093 103.908C33.3936 103.908 33.463 103.978 33.463 104.062V106.192C33.463 107.117 32.7116 107.869 31.7865 107.869H31.7816Z" fill="white"/>
<path d="M76.9544 124.8C75.3349 124.8 73.9188 123.748 73.4576 122.174L72.5548 119.091C71.3272 118.942 70.1021 118.694 68.9117 118.357L66.8855 120.849C65.8018 122.184 63.969 122.58 62.429 121.816C60.8889 121.053 60.0977 119.351 60.5069 117.682L61.2658 114.57C60.2887 113.836 59.3513 113.007 58.4783 112.105L55.4775 113.251C53.8729 113.863 52.0873 113.29 51.135 111.859C50.1851 110.428 50.3488 108.561 51.5367 107.318L53.7564 104.997C53.2604 103.841 52.8611 102.658 52.5635 101.473L49.399 100.965C47.7026 100.692 46.4428 99.303 46.3337 97.5893C46.227 95.8731 47.3034 94.3405 48.9526 93.8569L52.0352 92.9541C52.184 91.7265 52.432 90.5014 52.7693 89.311L50.2769 87.2823C48.9427 86.1986 48.5459 84.3659 49.3097 82.8258C50.0735 81.2857 51.7748 80.4946 53.4439 80.9038L56.5563 81.6626C57.2904 80.6855 58.1187 79.7481 59.0214 78.8776L57.8757 75.8768C57.2631 74.2722 57.836 72.4866 59.2669 71.5343C60.6979 70.5844 62.5654 70.7481 63.8078 71.936L66.1291 74.1557C67.2823 73.6621 68.4678 73.2604 69.6532 72.9628L70.1616 69.7983C70.4344 68.1019 71.8232 66.8421 73.5369 66.733C75.2481 66.6263 76.7857 67.7027 77.2693 69.3519L78.1721 72.437C79.3997 72.5858 80.6248 72.8338 81.8152 73.1711L83.8438 70.6787C84.9276 69.3444 86.7603 68.9476 88.3004 69.7115C89.8405 70.4753 90.6316 72.1766 90.2249 73.8457L89.466 76.9581C90.4431 77.6921 91.3806 78.5205 92.2536 79.4232L95.2544 78.2774C96.8614 77.6649 98.6445 78.2377 99.5969 79.6687C100.547 81.0997 100.383 82.9671 99.1951 84.2096L96.9755 86.5309C97.469 87.6841 97.8708 88.8696 98.1684 90.055L101.333 90.5634C103.029 90.8362 104.289 92.225 104.398 93.9387C104.505 95.6549 103.428 97.1875 101.779 97.6711L98.6941 98.5738C98.5453 99.8014 98.2973 101.027 97.9601 102.217L100.452 104.243C101.787 105.327 102.184 107.16 101.42 108.7C100.656 110.24 98.9545 111.031 97.2855 110.622L94.1731 109.863C93.439 110.84 92.6107 111.777 91.708 112.65L92.8537 115.651C93.4663 117.256 92.8934 119.041 91.4624 119.994C90.0315 120.944 88.164 120.78 86.9215 119.592L84.6002 117.372C83.4446 117.868 82.2616 118.268 81.0762 118.565L80.5677 121.73C80.2949 123.426 78.9061 124.686 77.1925 124.795C77.1131 124.8 77.0362 124.802 76.9569 124.802L76.9544 124.8ZM68.8571 118.027C68.872 118.027 68.8844 118.027 68.8993 118.032C70.1343 118.389 71.4116 118.647 72.6888 118.796C72.7508 118.803 72.8004 118.845 72.8177 118.905L73.7477 122.087C74.1892 123.597 75.5928 124.584 77.1677 124.487C78.74 124.388 80.0122 123.235 80.2602 121.68L80.7835 118.416C80.7934 118.357 80.8381 118.307 80.8976 118.292C82.1302 117.99 83.3652 117.573 84.5655 117.052C84.6226 117.028 84.687 117.04 84.7317 117.082L87.1274 119.371C88.2657 120.46 89.9769 120.611 91.2888 119.738C92.6008 118.868 93.124 117.231 92.5636 115.76L91.3831 112.665C91.3608 112.608 91.3756 112.544 91.4203 112.502C92.3652 111.596 93.2282 110.622 93.9871 109.602C94.0243 109.553 94.0863 109.531 94.1458 109.545L97.3574 110.329C98.8876 110.701 100.445 109.977 101.147 108.566C101.846 107.155 101.484 105.476 100.262 104.484L97.6897 102.393C97.6426 102.353 97.6228 102.291 97.6401 102.232C97.9997 100.994 98.2552 99.7196 98.404 98.4424C98.4114 98.3804 98.4536 98.3308 98.5131 98.3134L101.695 97.3834C103.205 96.942 104.192 95.5358 104.096 93.9635C103.996 92.3912 102.841 91.1189 101.288 90.8709L98.0245 90.3476C97.965 90.3377 97.9154 90.2931 97.9005 90.2336C97.598 89.001 97.1789 87.7659 96.6605 86.5656C96.6357 86.5086 96.6481 86.4441 96.6903 86.3995L98.9793 84.0038C100.068 82.8654 100.219 81.1542 99.3464 79.8423C98.4759 78.5304 96.8391 78.0071 95.3685 78.5676L92.2734 79.7481C92.2164 79.7704 92.1519 79.7555 92.1097 79.7109C91.2045 78.766 90.2299 77.9029 89.2106 77.1441C89.161 77.1069 89.1387 77.0449 89.1535 76.9853L89.9372 73.7737C90.3092 72.2436 89.5851 70.6861 88.1739 69.9843C86.7628 69.2849 85.0839 69.647 84.0918 70.8696L82.0012 73.4414C81.9615 73.4885 81.8995 73.5084 81.84 73.491C80.6025 73.1314 79.3277 72.876 78.0505 72.7272C77.9885 72.7197 77.9389 72.6776 77.9216 72.618L76.9916 69.4362C76.5501 67.9259 75.144 66.9388 73.5716 67.0355C71.9993 67.1347 70.7271 68.2879 70.4791 69.8429L69.9558 73.1066C69.9459 73.1661 69.9012 73.2157 69.8417 73.2306C68.6067 73.5332 67.3741 73.9523 66.1738 74.4706C66.1167 74.4954 66.0522 74.483 66.0076 74.4409L63.6119 72.1518C62.4736 71.0631 60.7624 70.9118 59.4505 71.7848C58.1385 72.6552 57.6153 74.292 58.1757 75.7627L59.3562 78.8578C59.3785 78.9148 59.3637 78.9793 59.319 79.0214C58.3741 79.9242 57.5111 80.9013 56.7547 81.9206C56.7175 81.9702 56.6555 81.9925 56.596 81.9776L53.3844 81.1939C51.8542 80.8219 50.2967 81.5461 49.5949 82.9572C48.8955 84.3683 49.2576 86.0473 50.4803 87.0393L53.052 89.13C53.0992 89.1696 53.119 89.2316 53.1016 89.2912C52.742 90.5287 52.4866 91.8034 52.3378 93.0806C52.3303 93.1426 52.2882 93.1922 52.2287 93.2096L49.0468 94.1396C47.5365 94.581 46.5494 95.9872 46.6462 97.5595C46.7454 99.1318 47.8986 100.404 49.4535 100.652L52.7172 101.175C52.7768 101.185 52.8264 101.23 52.8412 101.289C53.1438 102.522 53.5604 103.757 54.0812 104.957C54.106 105.014 54.0936 105.079 54.0515 105.124L51.7624 107.519C50.6737 108.658 50.5224 110.369 51.3954 111.681C52.2659 112.993 53.9027 113.516 55.3733 112.955L58.4684 111.775C58.5254 111.753 58.5899 111.767 58.6321 111.812C59.5373 112.757 60.5119 113.62 61.5312 114.379C61.5808 114.416 61.6031 114.478 61.5882 114.538L60.8045 117.749C60.4325 119.279 61.1567 120.837 62.5678 121.536C63.979 122.236 65.6579 121.874 66.6524 120.651L68.7431 118.079C68.7728 118.042 68.8175 118.022 68.8621 118.022L68.8571 118.027ZM75.3944 114.473C69.3283 114.473 63.3738 111.537 59.7729 106.118C57.7095 103.013 56.6406 99.4468 56.6406 95.8012C56.6406 94.5587 56.7646 93.3038 57.0176 92.0589C58.0071 87.1583 60.8442 82.9349 65.0106 80.1697C69.1746 77.4045 74.1693 76.4249 79.0698 77.4144C83.9703 78.4039 88.1938 81.241 90.959 85.4075C93.0695 88.5844 94.0788 92.1779 94.0788 95.7342C94.0788 101.798 91.1425 107.755 85.7237 111.356C82.5468 113.466 78.9508 114.476 75.3969 114.476L75.3944 114.473ZM56.9481 95.8012C56.9481 99.3873 57.9997 102.894 60.0283 105.949C65.6455 114.406 77.0957 116.718 85.5526 111.1C90.8846 107.559 93.7738 101.701 93.7738 95.7342C93.7738 92.2349 92.7818 88.7009 90.7035 85.5736C87.983 81.4766 83.829 78.6842 79.0078 77.712C74.1867 76.7398 69.2763 77.7021 65.1793 80.4226C61.0823 83.1432 58.2898 87.2972 57.3177 92.1184C57.0697 93.346 56.9481 94.5761 56.9481 95.8012Z" fill="white"/>
<mask id="mask0_242_4819" style="mask-type:luminance" maskUnits="userSpaceOnUse" x="45" y="40" width="77" height="75">
<path d="M105.006 42.2255L59.1454 54.8562L45.6665 77.4044L57.5805 90.4319C56.0553 95.5333 56.7249 101.247 59.8993 106.029C65.5711 114.57 77.0957 116.896 85.6368 111.222C90.7903 107.799 93.6795 102.247 93.9151 96.503L111.615 93.2145L121.818 71.6186L119.206 40.7177L105.003 42.2205L105.006 42.2255Z" fill="white"/>
</mask>
<g mask="url(#mask0_242_4819)">
<path d="M75.2879 73.4364C75.2879 73.4364 70.3056 71.1672 68.634 70.8101C66.9625 70.4505 64.1055 67.6605 68.1306 64.0422C69.4351 62.8691 69.1226 60.9173 71.9572 59.6302C74.7919 58.3431 77.7233 59.0276 78.6508 60.776C79.5783 62.5244 78.3532 64.7093 77.1107 65.3566C75.8682 66.0038 75.2879 73.4364 75.2879 73.4364Z" fill="white"/>
<path d="M73.0632 77.1937L71.7091 81.3427C71.7091 81.3427 81.0042 80.7822 80.6471 79.4034C80.5454 79.014 80.3098 78.7288 80.0197 78.523C78.5912 77.5061 79.174 73.2901 79.174 73.2901L81.6465 71.1945C82.1004 70.8101 82.1897 70.1455 81.8524 69.6569L80.6471 67.9011C80.4437 67.6059 80.3842 67.2339 80.4859 66.8892L80.6992 66.1626L78.3977 64.6275L76.3914 62.2739C73.1872 63.0973 72.2126 64.3695 72.9665 66.7875C73.4501 68.3375 72.6491 68.6426 72.6491 68.6426C72.6491 68.6426 71.0346 67.7547 70.9205 69.4784C70.8064 71.2044 73.718 71.4152 73.718 71.4152C74.2834 72.008 74.4768 72.8636 74.2239 73.6423L73.0657 77.1937H73.0632Z" fill="#14B8A6"/>
<path d="M71.7093 81.494C71.6622 81.494 71.6176 81.4717 71.5878 81.4345C71.5581 81.3948 71.5481 81.3427 71.563 81.2931L72.9171 77.1441L74.0753 73.5927C74.3059 72.8834 74.1397 72.1121 73.6437 71.5616C73.2023 71.5194 70.6504 71.1995 70.7645 69.4684C70.8017 68.9228 70.9852 68.5558 71.3101 68.3772C71.7937 68.1119 72.4261 68.3673 72.6443 68.469C72.7931 68.3698 73.1775 67.9879 72.8179 66.8322C72.4707 65.7137 72.4905 64.8308 72.8799 64.129C73.3734 63.2436 74.477 62.6062 76.3494 62.1251C76.4065 62.1102 76.466 62.1301 76.5032 62.1747L78.4971 64.5109L80.7812 66.0361C80.8358 66.0733 80.8631 66.1427 80.8432 66.2072L80.6299 66.9339C80.5407 67.2364 80.5927 67.5588 80.7713 67.8168L81.9766 69.5726C82.3585 70.1281 82.2593 70.8771 81.7435 71.3136L79.3155 73.3695C79.2535 73.8705 78.8567 77.5086 80.1067 78.399C80.4613 78.6519 80.6919 78.9768 80.7936 79.3637C80.8283 79.5026 80.7986 79.6439 80.7068 79.7729C79.8363 80.9707 72.5451 81.4419 71.7168 81.4915C71.7143 81.4915 71.7093 81.4915 71.7069 81.4915L71.7093 81.494ZM71.8085 68.5657C71.687 68.5657 71.5655 68.588 71.4589 68.6451C71.2307 68.7716 71.0993 69.0543 71.072 69.4883C70.9703 71.0432 73.7008 71.259 73.7281 71.2615C73.7653 71.264 73.8025 71.2813 73.8273 71.3086C74.4324 71.9435 74.6382 72.8536 74.3679 73.6869L71.9251 81.1741C74.2836 81.0203 79.819 80.4797 80.4613 79.5943C80.5134 79.5249 80.5084 79.4753 80.501 79.4406C80.4191 79.1231 80.2282 78.8578 79.9331 78.647C78.4475 77.588 78.9981 73.4464 79.0229 73.2703C79.0279 73.2331 79.0477 73.1984 79.075 73.1736L81.5475 71.078C81.9419 70.7432 82.0187 70.1703 81.7261 69.7412L80.5208 67.9854C80.2902 67.6506 80.2232 67.2339 80.3398 66.8421L80.5208 66.2221L78.3111 64.749C78.3111 64.749 78.2888 64.7316 78.2789 64.7217L76.3346 62.4426C74.6035 62.8989 73.5892 63.4817 73.1477 64.2753C72.7956 64.9077 72.7832 65.6889 73.1105 66.7379C73.6289 68.4045 72.741 68.7666 72.7013 68.7815C72.6592 68.7964 72.6121 68.7939 72.5724 68.7715C72.5674 68.7691 72.1805 68.5608 71.8061 68.5608L71.8085 68.5657Z" fill="white"/>
<path d="M72.208 66.5395L75.3452 68.7566C76.6745 69.6965 78.4898 69.5378 79.6356 68.3797L80.6152 67.3901L84.112 70.6761C84.5336 71.1697 84.4443 71.9161 83.9211 72.2981L81.193 74.6541C80.3846 75.2418 79.3157 75.3262 78.4254 74.8698L73.8894 72.5486C73.8894 72.5486 74.7822 70.9266 72.6494 68.645C70.5141 66.3634 72.208 66.542 72.208 66.542V66.5395Z" fill="white"/>
<path d="M111.64 63.3428L105.747 66.294C105.747 66.294 106.422 76.772 100.224 79.1702C97.2433 80.3234 94.6368 80.1374 92.7347 79.634C89.8554 78.8701 86.8372 78.8081 83.9405 79.5075L72.3068 82.3149C65.8786 83.8673 60.988 89.0952 59.8795 95.6152C58.694 102.586 57.4094 111.787 57.2457 119.649C57.2159 121.097 58.6221 122.144 59.9985 121.69L90.0488 111.765L91.1921 93.0235C94.9493 93.3385 100.435 92.8995 107.349 89.8863C121.967 83.5177 111.635 63.3428 111.635 63.3428H111.64Z" fill="#14B8A6"/>
<path d="M59.339 121.95C58.8678 121.95 58.409 121.799 58.0122 121.509C57.4145 121.067 57.0822 120.388 57.097 119.646C57.2632 111.591 58.6222 102.118 59.7333 95.5903C60.8543 89.0059 65.7771 83.7359 72.2747 82.166L83.9084 79.3587C86.7803 78.6667 89.8456 78.7089 92.7769 79.4852C95.2222 80.1324 97.7097 79.9787 100.172 79.0263C106.194 76.6976 105.604 66.4056 105.599 66.3014C105.594 66.2394 105.628 66.1824 105.683 66.1551L111.575 63.2039C111.65 63.1667 111.742 63.1964 111.779 63.2708C111.836 63.3824 117.428 74.4681 114.465 82.7588C113.287 86.0572 110.916 88.5 107.416 90.0252C100.351 93.1029 94.7982 93.4526 91.341 93.1872L90.2077 111.772C90.2027 111.834 90.163 111.889 90.1035 111.909L60.0532 121.834C59.8176 121.911 59.577 121.95 59.3414 121.95H59.339ZM88.06 79.1727C86.6811 79.1727 85.3096 79.3339 83.9803 79.6538L72.3466 82.4612C65.968 84.0013 61.1345 89.1746 60.0334 95.6399C58.9248 102.157 57.5682 111.614 57.4021 119.651C57.3897 120.294 57.6774 120.881 58.1932 121.263C58.7066 121.643 59.3489 121.745 59.954 121.544L89.9076 111.651L91.0434 93.0136C91.0459 92.9714 91.0657 92.9342 91.0955 92.907C91.1277 92.8797 91.1674 92.8673 91.2071 92.8698C94.6171 93.155 100.175 92.845 107.29 89.745C110.707 88.2569 113.021 85.8712 114.172 82.6571C116.915 74.9815 112.195 64.8357 111.568 63.5461L105.901 66.3857C105.923 66.8991 105.993 69.2799 105.455 71.8641C104.651 75.7379 102.861 78.3121 100.276 79.3115C97.7543 80.2887 95.2024 80.4449 92.6926 79.7803C91.1674 79.376 89.605 79.1727 88.0525 79.1727H88.06Z" fill="white"/>
<path d="M105.172 54.1792C105.232 53.7799 105.752 52.4705 106.048 52.0489L108.914 46.8334C108.914 46.8334 110.065 48.5099 109.772 49.8193C111.057 49.4424 112.133 49.3258 112.133 49.3258C112.133 49.3258 113.473 47.0368 113.85 46.5928C114.227 46.1514 114.69 45.4917 115.325 45.2908C115.963 45.09 116.751 45.3677 116.751 45.3677L114.638 51.1759L108.629 55.1786L112.31 65.0788L105.745 66.294L105.167 54.1792H105.172Z" fill="#14B8A6"/>
<path d="M105.747 66.4478C105.713 66.4478 105.68 66.4354 105.653 66.4155C105.618 66.3883 105.599 66.3461 105.596 66.3039L105.021 54.1891C105.021 54.1891 105.021 54.1693 105.021 54.1593C105.08 53.7477 105.609 52.4208 105.919 51.9695L108.783 46.7615C108.808 46.7143 108.857 46.6846 108.909 46.6821C108.961 46.6821 109.014 46.7044 109.043 46.7491C109.088 46.816 110.097 48.3015 109.966 49.6085C110.955 49.3357 111.794 49.2167 112.044 49.1844C112.27 48.8 113.388 46.9053 113.738 46.4936C113.79 46.4316 113.842 46.3671 113.899 46.3002C114.254 45.8687 114.695 45.333 115.286 45.1445C115.963 44.9312 116.776 45.209 116.808 45.2214C116.848 45.2338 116.878 45.2635 116.895 45.3007C116.912 45.3379 116.915 45.3801 116.9 45.4173L114.787 51.2255C114.777 51.2552 114.755 51.2825 114.728 51.2999L108.818 55.2357L112.456 65.0243C112.471 65.0664 112.468 65.1135 112.446 65.1532C112.424 65.1929 112.386 65.2202 112.342 65.2276L105.777 66.4428C105.777 66.4428 105.76 66.4453 105.75 66.4453L105.747 66.4478ZM105.323 54.1866L105.891 66.113L112.106 64.9623L108.488 55.2307C108.463 55.1637 108.488 55.0893 108.547 55.0497L114.517 51.0742L116.558 45.4644C116.31 45.3999 115.799 45.2983 115.375 45.4322C114.871 45.5909 114.462 46.0894 114.132 46.4887C114.075 46.5581 114.021 46.6251 113.969 46.6871C113.607 47.1161 112.28 49.3754 112.267 49.3977C112.243 49.4399 112.2 49.4671 112.151 49.4721C112.141 49.4721 111.072 49.5912 109.817 49.9607C109.765 49.9756 109.708 49.9607 109.671 49.926C109.631 49.8888 109.614 49.8342 109.626 49.7821C109.842 48.8174 109.212 47.6146 108.924 47.131L106.181 52.1183C106.181 52.1183 106.176 52.1282 106.174 52.1332C105.891 52.5374 105.39 53.7898 105.326 54.1866H105.323Z" fill="white"/>
<path d="M48.913 114.617C48.913 114.617 50.1332 90.6005 65.7721 85.7571L69.9658 98.4547C69.9658 98.4547 55.0461 116.187 53.6126 121.712C52.1817 127.24 48.9105 114.617 48.9105 114.617H48.913Z" fill="#14B8A6"/>
<path d="M48.913 114.771C48.913 114.771 48.9081 114.771 48.9056 114.771C48.8213 114.766 48.7568 114.694 48.7617 114.61C48.7642 114.55 49.0941 108.509 51.3335 101.954C52.6504 98.1002 54.3641 94.8241 56.42 92.2151C58.9992 88.9465 62.129 86.7244 65.7275 85.6108C65.8093 85.586 65.8937 85.6307 65.9185 85.7125C65.9433 85.7919 65.8986 85.8787 65.8168 85.9035C57.8014 88.386 53.6746 96.0517 51.6237 102.048C49.3941 108.563 49.0668 114.567 49.0643 114.627C49.0593 114.709 48.9924 114.771 48.913 114.771Z" fill="white"/>
<path d="M53.615 121.866C53.5977 121.866 53.5828 121.864 53.5654 121.859C53.4861 121.831 53.4439 121.745 53.4712 121.665C55.547 115.626 67.4535 101.267 67.5725 101.121C67.6271 101.056 67.7213 101.046 67.7883 101.101C67.8528 101.156 67.8627 101.252 67.8081 101.317C67.6891 101.461 55.8173 115.778 53.7614 121.764C53.739 121.829 53.6795 121.869 53.6175 121.869L53.615 121.866Z" fill="white"/>
<path d="M83.4397 80.2515L83.157 78.4535C83.0628 77.8533 82.4304 77.1862 81.9096 77.5012C77.5547 80.1151 70.4718 77.8136 69.2739 78.3444C65.8961 79.8423 60.2516 88.3959 61.5263 87.7287C66.903 84.9114 75.9699 86.9004 80.0768 85.4124C83.2289 84.2716 83.4397 80.254 83.4397 80.254V80.2515Z" fill="white"/>
<path d="M78.2613 99.236C78.1869 99.236 78.1225 99.1839 78.1101 99.107L75.6226 83.7533C75.6102 83.669 75.6648 83.5921 75.7491 83.5772C75.8334 83.5648 75.9103 83.6194 75.9252 83.7037L78.4126 99.0574C78.425 99.1417 78.3705 99.2186 78.2861 99.2335C78.2787 99.2335 78.2688 99.2335 78.2613 99.2335V99.236Z" fill="white"/>
<path d="M81.9814 95.8731C81.9144 95.8731 81.8524 95.8285 81.8351 95.7615L78.5143 83.4929C78.492 83.4111 78.5391 83.3268 78.621 83.3069C78.7028 83.2846 78.7871 83.3317 78.807 83.4136L82.1277 95.6822C82.15 95.764 82.1029 95.8483 82.0211 95.8682C82.0087 95.8707 81.9938 95.8731 81.9814 95.8731Z" fill="white"/>
<path d="M78.1845 98.7921C77.9241 98.8466 77.7405 99.0302 77.7777 99.2062L78.1001 100.756C78.1373 100.93 78.3779 101.027 78.6383 100.972C78.8987 100.917 79.0822 100.734 79.045 100.558L78.7226 99.0078C78.6854 98.8342 78.4449 98.7375 78.1845 98.7921Z" fill="white"/>
<path d="M81.9119 95.3497C81.6539 95.4217 81.4853 95.6201 81.5349 95.7912L81.9615 97.3139C82.0086 97.485 82.2566 97.5644 82.5145 97.4925C82.7724 97.4206 82.9411 97.2222 82.8939 97.051L82.4674 95.5283C82.4203 95.3572 82.1723 95.2778 81.9143 95.3497H81.9119Z" fill="white"/>
</g>
<path d="M75.3969 114.473C73.1525 114.473 70.923 114.071 68.82 113.29C65.3777 112.011 62.2802 109.712 60.0308 106.495C59.944 106.371 59.8572 106.245 59.7729 106.118C59.7729 106.118 59.7704 106.113 59.7679 106.111C57.707 103.006 56.6406 99.4443 56.6406 95.8012C56.6406 94.5587 56.7646 93.3038 57.0176 92.0589C58.0071 87.1584 60.8442 82.9349 65.0107 80.1697C65.0107 80.1697 65.0156 80.1672 65.0181 80.1647C65.0181 80.1647 65.0231 80.1622 65.0255 80.1598C65.0255 80.1598 65.0305 80.1573 65.033 80.1548C67.4609 78.5478 70.1443 77.5483 73.0112 77.1887C73.0955 77.1788 73.1724 77.2383 73.1823 77.3201C73.1922 77.4045 73.1327 77.4789 73.0509 77.4913C73.0285 77.4937 73.0062 77.4962 72.9839 77.4987C70.179 77.8633 67.5552 78.8478 65.1818 80.4226C61.3328 82.9795 58.6346 86.7987 57.5161 91.2504C57.5161 91.2528 57.5161 91.2578 57.5161 91.2603C56.2513 96.2823 57.1689 101.637 60.0333 105.947C65.6505 114.404 77.1007 116.715 85.5575 111.098C85.5575 111.098 85.5625 111.098 85.5625 111.095C85.5625 111.095 85.565 111.095 85.5675 111.093C85.5675 111.093 85.5675 111.093 85.57 111.093C91.1549 107.375 94.2847 100.813 93.7143 94.1644C93.687 93.8519 93.6523 93.5394 93.6101 93.2269L93.5977 93.1352C93.5953 93.1104 93.5903 93.0856 93.5878 93.0633C93.5878 93.0558 93.5878 93.0484 93.5878 93.0409C93.5878 92.9665 93.6424 92.902 93.7193 92.8896C93.8036 92.8772 93.8805 92.9343 93.8929 93.0186C93.9003 93.0757 93.9102 93.1352 93.9177 93.1922V93.1972C93.9251 93.2567 93.9325 93.3162 93.94 93.3733C94.0417 94.1669 94.0937 94.9654 94.0913 95.759C94.0913 97.8918 93.7267 100.012 93.01 102.031C92.8562 102.465 92.6851 102.896 92.4991 103.321C92.4272 103.484 92.3528 103.645 92.2784 103.804C92.2784 103.804 92.2784 103.809 92.2759 103.809C92.2759 103.809 92.2759 103.812 92.2759 103.814C91.8617 104.685 91.3831 105.518 90.8449 106.309C90.8449 106.311 90.8425 106.314 90.84 106.316C89.4958 108.288 87.7995 109.967 85.8031 111.309C85.8031 111.309 85.8006 111.309 85.7981 111.311C85.7981 111.311 85.7981 111.311 85.7956 111.311C85.7733 111.326 85.7535 111.341 85.7311 111.353C82.5543 113.464 78.9582 114.473 75.4044 114.473H75.3969Z" fill="white"/>
<path d="M25.5685 70.9514L24.0854 78.6023C24.0854 78.6023 37.7925 82.5529 43.933 75.9338L42.135 70.9514H25.5685Z" fill="white"/>
<path d="M2.81449 52.2026L6.05586 53.9286C5.92442 55.3819 5.91202 56.8253 6.02362 58.2488L2.76985 59.9352C1.16032 60.7685 0.344397 62.6087 0.803199 64.362C1.262 66.1154 2.87649 67.3182 4.68938 67.2537L8.36227 67.1273C8.96987 68.4342 9.68412 69.6891 10.5 70.877L8.52099 73.9721C7.54387 75.4998 7.75467 77.4987 9.03187 78.7883C10.3066 80.0779 12.3055 80.311 13.8431 79.3512L16.9505 77.4119C18.1186 78.2328 19.3661 78.9594 20.6854 79.5868L20.5193 83.2548C20.4374 85.0652 21.6204 86.6921 23.3688 87.1707C25.1172 87.6493 26.9648 86.8533 27.8155 85.2537L29.5416 82.0123C30.9948 82.1437 32.4382 82.1536 33.8617 82.042L35.5481 85.2958C36.3814 86.9053 38.2216 87.7213 39.975 87.2625C41.7283 86.8037 42.9311 85.1892 42.8667 83.3763L42.7402 79.7034C44.0471 79.0958 45.302 78.3816 46.49 77.5656L49.585 79.5447C51.1127 80.5218 53.1116 80.3085 54.4012 79.0338C55.6908 77.7591 55.9239 75.7602 54.9642 74.2226L53.0248 71.1151C53.8457 69.947 54.5723 68.6996 55.1998 67.3802L58.8677 67.5464C60.6781 67.6282 62.305 66.4453 62.7836 64.6969C63.2623 62.9484 62.4662 61.1008 60.8641 60.2502L57.6227 58.5241C57.7542 57.0708 57.7666 55.6275 57.655 54.2039L60.9087 52.5175C62.5183 51.6842 63.3342 49.8441 62.8754 48.0907C62.4166 46.3373 60.8021 45.1345 58.9892 45.199L55.3163 45.3255C54.7087 44.0185 53.9945 42.7661 53.1785 41.5757L55.1576 38.4807C56.1347 36.953 55.9214 34.9541 54.6467 33.6645C53.372 32.3749 51.3731 32.1418 49.8355 33.1015L46.728 35.0409C45.5599 34.22 44.3125 33.4934 42.9956 32.8659L43.1618 29.198C43.2436 27.3876 42.0607 25.7607 40.3122 25.282C38.5638 24.8034 36.7162 25.5995 35.8656 27.2016L34.1395 30.4429C32.6862 30.3115 31.2428 30.3016 29.8193 30.4107L28.1329 27.1569C27.2996 25.5474 25.4595 24.7315 23.7061 25.1903C21.9527 25.6491 20.7499 27.2636 20.8144 29.0765L20.9409 32.7494C19.6339 33.357 18.379 34.0712 17.1911 34.8871L14.0961 32.9081C12.5684 31.931 10.5695 32.1442 9.27987 33.419C7.99027 34.6937 7.75715 36.6926 8.71691 38.2302L10.6563 41.3376C9.8354 42.5057 9.10875 43.7532 8.48131 45.0725L4.81338 44.9064C3.00297 44.8245 1.37608 46.0075 0.897439 47.7559C0.418797 49.5043 1.21488 51.3519 2.81697 52.2026H2.81449ZM11.9856 50.7914C14.9889 39.8273 26.3101 33.3718 37.2742 36.3751C48.2384 39.3784 54.6938 50.6997 51.6905 61.6638C48.6872 72.6279 37.366 79.0834 26.4019 76.0801C15.4377 73.0768 8.98227 61.7556 11.9856 50.7914Z" fill="#14B8A6"/>
<path d="M38.9755 87.5427C37.4999 87.5427 36.121 86.7317 35.4117 85.3652L33.7724 82.2007C32.4159 82.3024 31.0221 82.2925 29.6283 82.171L27.9494 85.3231C27.059 86.9971 25.1569 87.8179 23.3266 87.317C21.4964 86.816 20.2787 85.142 20.3655 83.2473L20.5267 79.6786C19.2668 79.0709 18.0615 78.3716 16.9455 77.5929L13.9224 79.4802C12.3129 80.4846 10.257 80.244 8.92271 78.8949C7.58847 77.5457 7.37023 75.4873 8.39199 73.8877L10.3165 70.877C9.54271 69.7387 8.85327 68.5284 8.26551 67.281L4.69429 67.405C2.79709 67.4695 1.13796 66.2344 0.656837 64.3992C0.175715 62.564 1.01644 60.6718 2.70037 59.7988L5.86486 58.1595C5.76318 56.8029 5.7731 55.4092 5.89462 54.0154L2.74253 52.3364C1.06852 51.4436 0.247635 49.5439 0.748597 47.7137C1.24956 45.8835 2.92357 44.6658 4.81829 44.7526L8.38703 44.9138C8.99215 43.6539 9.694 42.4486 10.4727 41.3326L8.58543 38.3095C7.58103 36.7 7.82159 34.644 9.17071 33.3098C10.5198 31.9755 12.5782 31.7573 14.1779 32.7791L17.1886 34.7036C18.3294 33.9273 19.5372 33.2404 20.7846 32.6526L20.6606 29.0814C20.5961 27.1842 21.8312 25.525 23.6664 25.0439C25.5016 24.5628 27.3938 25.4035 28.2668 27.0875L29.9061 30.2519C31.2651 30.1503 32.6564 30.1602 34.0502 30.2817L35.7291 27.1296C36.6195 25.4556 38.5216 24.6347 40.3519 25.1357C42.1821 25.6366 43.3998 27.3107 43.313 29.2054L43.1518 32.7741C44.4117 33.3792 45.6145 34.0811 46.733 34.8598L49.7561 32.9725C51.3656 31.9681 53.4215 32.2087 54.7558 33.5578C56.09 34.9069 56.3083 36.9653 55.2865 38.5649L53.362 41.5757C54.1383 42.7165 54.8252 43.9242 55.413 45.1717L58.9842 45.0477C60.8839 44.9832 62.5405 46.2183 63.0217 48.0535C63.5028 49.8887 62.6621 51.7809 60.9781 52.6539L57.8136 54.2932C57.9153 55.6497 57.9054 57.0435 57.7839 58.4373L60.936 60.1162C62.61 61.0066 63.4309 62.9087 62.9299 64.739C62.4289 66.5692 60.7524 67.7869 58.8602 67.7001L55.2915 67.5389C54.6839 68.8012 53.9845 70.004 53.2058 71.12L55.0931 74.1432C56.0975 75.7527 55.8569 77.8086 54.5078 79.1429C53.1587 80.4771 51.1003 80.6954 49.5006 79.6736L46.4899 77.7491C45.3516 78.5229 44.1413 79.2123 42.8939 79.8001L43.0179 83.3713C43.0824 85.2685 41.8473 86.9276 40.0121 87.4087C39.6674 87.5005 39.3177 87.5427 38.9755 87.5427ZM33.8592 81.8882C33.9163 81.8882 33.9683 81.9205 33.9956 81.9701L35.682 85.2239C36.488 86.7813 38.2389 87.5575 39.9352 87.1136C41.6316 86.6697 42.7749 85.1346 42.7153 83.3812L42.5889 79.7083C42.5889 79.6463 42.6211 79.5918 42.6781 79.5645C43.9727 78.9618 45.2276 78.2476 46.4056 77.4391C46.4552 77.4044 46.5222 77.4044 46.5742 77.4366L49.6693 79.4157C51.1474 80.3606 53.0495 80.1597 54.297 78.9246C55.5444 77.6921 55.7652 75.7899 54.8376 74.3019L52.8983 71.1944C52.866 71.1424 52.8685 71.0754 52.9032 71.0258C53.7142 69.8726 54.4408 68.6251 55.0658 67.3132C55.0931 67.2587 55.1476 67.2239 55.2096 67.2264L58.8776 67.3926C60.6285 67.4719 62.176 66.346 62.6397 64.6547C63.1035 62.9633 62.3446 61.205 60.7971 60.3816L57.5557 58.6555C57.5012 58.6257 57.4689 58.5687 57.4764 58.5067C57.6078 57.0609 57.6177 55.615 57.5061 54.2113C57.5012 54.1493 57.5334 54.0923 57.588 54.065L60.8417 52.3786C62.3992 51.5726 63.1754 49.8217 62.7315 48.1254C62.2876 46.4291 60.7475 45.2858 58.9991 45.3478L55.3262 45.4742C55.2617 45.4742 55.2071 45.442 55.1823 45.385C54.5797 44.0904 53.8655 42.8355 53.057 41.6575C53.0223 41.6079 53.0223 41.541 53.0545 41.4889L55.0335 38.3938C55.9784 36.9157 55.7776 35.0136 54.5425 33.7661C53.3099 32.5187 51.4078 32.298 49.9198 33.2255L46.8123 35.1648C46.7602 35.1971 46.6933 35.1946 46.6437 35.1599C45.4905 34.3489 44.2405 33.6223 42.9311 32.9973C42.8765 32.97 42.8418 32.913 42.8443 32.8535L43.0105 29.1855C43.0898 27.4347 41.9639 25.8871 40.2725 25.4234C38.5812 24.9596 36.8228 25.7185 35.9995 27.266L34.2734 30.5074C34.2436 30.5619 34.1866 30.5942 34.1246 30.5867C32.6812 30.4553 31.2354 30.4454 29.8292 30.557C29.7672 30.5619 29.7102 30.5297 29.6829 30.4751L27.9965 27.2214C27.1905 25.6639 25.4421 24.8877 23.7433 25.3316C22.0469 25.7755 20.9036 27.3107 20.9656 29.064L21.0921 32.7369C21.0921 32.7989 21.0599 32.8535 21.0028 32.8808C19.7083 33.4834 18.4534 34.1976 17.2754 35.0061C17.2258 35.0408 17.1588 35.0408 17.1067 35.0086L14.0117 33.0296C12.5336 32.0847 10.6314 32.2856 9.38399 33.5206C8.13655 34.7532 7.91583 36.6553 8.84335 38.1433L10.7827 41.2508C10.815 41.3029 10.8125 41.3698 10.7778 41.4194C9.9668 42.5726 9.24015 43.8226 8.61519 45.132C8.58791 45.1866 8.53087 45.2213 8.47135 45.2188L4.80341 45.0526C3.05253 44.9733 1.505 46.0992 1.04124 47.7906C0.577477 49.4819 1.33636 51.2403 2.88389 52.0636L6.12526 53.7897C6.17982 53.8195 6.21206 53.8765 6.20462 53.9385C6.07318 55.3844 6.06326 56.8277 6.17486 58.2339C6.17982 58.2959 6.14758 58.3529 6.09302 58.3802L2.83925 60.0666C1.2818 60.8726 0.505556 62.621 0.949478 64.3198C1.3934 66.0162 2.93349 67.1595 4.68189 67.0999L8.35479 66.9735C8.41927 66.9735 8.47383 67.0057 8.49863 67.0627C9.10127 68.3573 9.81552 69.6122 10.624 70.7902C10.6587 70.8398 10.6587 70.9068 10.6265 70.9588L8.64743 74.0539C7.70255 75.532 7.90343 77.4341 9.13847 78.6816C10.371 79.929 12.2732 80.1498 13.7612 79.2222L16.8687 77.2829C16.9207 77.2506 16.9877 77.2531 17.0373 77.2878C18.1905 78.0988 19.438 78.8254 20.7499 79.4504C20.8044 79.4777 20.8392 79.5347 20.8367 79.5942L20.6705 83.2622C20.5912 85.0131 21.7171 86.5606 23.4085 87.0243C25.0998 87.4881 26.8581 86.7292 27.6815 85.1817L29.4076 81.9403C29.4374 81.8858 29.4944 81.8535 29.5564 81.861C31.0022 81.9924 32.4456 82.0023 33.8518 81.8907C33.8567 81.8907 33.8592 81.8907 33.8642 81.8907L33.8592 81.8882ZM31.8703 76.9729C30.0326 76.9729 28.1825 76.7273 26.3621 76.2264C21.0202 74.7632 16.5661 71.3085 13.8232 66.4973C11.0803 61.6861 10.376 56.0937 11.8367 50.7517C13.2999 45.4098 16.7546 40.9557 21.5658 38.2128C26.377 35.4699 31.9694 34.7631 37.3114 36.2263C42.6533 37.6895 47.1074 41.1441 49.8503 45.9579C52.5932 50.7691 53.2975 56.3615 51.8368 61.7034C50.3736 67.0454 46.919 71.4995 42.1077 74.2424C38.9358 76.0503 35.4241 76.9729 31.8703 76.9729ZM31.8058 35.7873C28.304 35.7873 24.8444 36.6975 21.7196 38.4781C16.9778 41.1813 13.5727 45.5685 12.1318 50.8311C10.691 56.0937 11.3854 61.6042 14.0886 66.346C16.7918 71.0878 21.1789 74.4928 26.4415 75.9337C31.7041 77.3746 37.2147 76.6802 41.9565 73.977C46.6982 71.2738 50.1033 66.8867 51.5442 61.6241C52.9851 56.3615 52.2907 50.8509 49.5874 46.1091C46.8842 41.3674 42.4971 37.9623 37.2345 36.5214C35.4415 36.0304 33.6187 35.7873 31.8058 35.7873Z" fill="white"/>
<path d="M5.53248 37.1192C5.53248 37.1192 5.21504 33.0942 5.06872 32.0104C4.90256 30.7753 6.69313 32.0674 7.01553 35.8643L5.53248 37.1192Z" fill="#14B8A6"/>
<path d="M5.5301 37.2704C5.51026 37.2704 5.49042 37.2655 5.47058 37.258C5.4185 37.2357 5.3813 37.1861 5.37634 37.1291C5.37386 37.0894 5.05642 33.0966 4.91258 32.0277C4.87538 31.7499 4.9225 31.5615 5.05394 31.4623C5.11098 31.4201 5.23746 31.3581 5.4309 31.4449C6.01618 31.7078 6.94371 33.2479 7.16443 35.8469C7.16939 35.8965 7.14955 35.9436 7.10987 35.9759L5.62682 37.2308C5.59954 37.2556 5.56482 37.268 5.52762 37.268L5.5301 37.2704ZM5.2449 31.7078C5.2449 31.7078 5.23994 31.7078 5.23746 31.7078C5.22754 31.7152 5.19034 31.7871 5.21762 31.988C5.33914 32.8932 5.58218 35.8593 5.65906 36.8092L6.85443 35.7973C6.63618 33.4115 5.8277 32.055 5.36394 31.7574C5.29946 31.7152 5.25978 31.7078 5.2449 31.7078Z" fill="white"/>
<path d="M3.35755 55.7688C3.35755 55.7688 5.76068 42.5876 5.79044 42.1486C5.81276 41.8312 5.76812 41.5137 5.66396 41.2137C5.35396 40.3357 4.71412 38.4609 4.70916 37.9351C4.70172 37.3969 5.16548 36.9852 5.37132 36.8315C5.49284 36.7397 5.6094 36.6405 5.72596 36.5413L6.80477 35.6088C7.07261 35.3881 7.20405 35.026 7.57357 35.0806C8.27789 35.1848 8.48621 36.3925 8.48621 36.3925C8.48621 36.3925 9.16822 35.8544 9.54022 36.1098C9.91222 36.3677 10.5372 38.2451 9.6543 40.1721C8.77141 42.1015 8.51101 41.2161 8.44405 43.2175C8.41677 44.0161 8.54821 51.5975 8.54821 51.5975C8.54821 52.2249 9.21782 52.6292 9.77334 52.334L14.5523 49.8044L16.1445 57.8942L7.62069 59.8385C5.1506 60.4015 2.90867 58.2588 3.36003 55.7664L3.35755 55.7688Z" fill="#14B8A6"/>
<path d="M6.82965 60.0841C5.89221 60.0841 4.98204 59.727 4.28764 59.0623C3.38988 58.2042 2.98812 56.9642 3.20884 55.7416C4.03964 51.1858 5.61693 42.4785 5.63925 42.1387C5.65909 41.8436 5.61941 41.5485 5.52021 41.2658C5.16308 40.2514 4.56292 38.4733 4.55796 37.9401C4.55052 37.3325 5.0614 36.8786 5.27964 36.7125C5.40117 36.6207 5.51773 36.5215 5.62685 36.4273L6.70565 35.4948C6.78005 35.4328 6.84453 35.3584 6.90653 35.2865C7.07021 35.0955 7.25621 34.8797 7.59598 34.9293C8.2011 35.0186 8.47886 35.7552 8.58302 36.1396C8.84342 35.9784 9.29974 35.7601 9.6271 35.9858C10.1033 36.3157 10.6737 38.3145 9.79326 40.239C9.4411 41.0054 9.18814 41.3377 9.00214 41.5782C8.73678 41.923 8.63758 42.0519 8.5979 43.225C8.57062 44.0111 8.70206 51.5206 8.70206 51.5975C8.70206 51.8405 8.82606 52.0588 9.0319 52.1828C9.23774 52.3068 9.48822 52.3142 9.7015 52.2001L14.4805 49.6705C14.5226 49.6482 14.5747 49.6457 14.6169 49.668C14.6615 49.6879 14.6913 49.73 14.7012 49.7772L16.2934 57.867C16.3083 57.9488 16.2587 58.0257 16.1768 58.0455L7.65302 59.9898C7.38021 60.0518 7.10245 60.0816 6.82965 60.0816V60.0841ZM3.50892 55.7961C3.30556 56.9171 3.67508 58.0554 4.49844 58.8416C5.32181 59.6278 6.47501 59.9477 7.58357 59.6947L15.9635 57.7826L14.4408 50.0376L9.84534 52.4704C9.53782 52.6341 9.17326 52.6242 8.87566 52.4432C8.57558 52.2621 8.39702 51.9472 8.39702 51.5975C8.39206 51.29 8.26558 44.0062 8.29286 43.2126C8.33502 41.9998 8.43918 41.8089 8.76158 41.3898C8.93766 41.1591 9.1807 40.8442 9.51798 40.1101C10.4058 38.1707 9.72134 36.4198 9.45598 36.2363C9.24518 36.09 8.77646 36.3603 8.58302 36.5116C8.54086 36.5438 8.48382 36.5537 8.43422 36.5339C8.38462 36.5141 8.34742 36.4694 8.3375 36.4173C8.28542 36.1123 8.0399 35.3013 7.55381 35.2294C7.38765 35.2046 7.29837 35.2989 7.13965 35.4824C7.06773 35.5642 6.99581 35.651 6.90405 35.7254L5.82773 36.6554C5.71613 36.7521 5.59461 36.8563 5.46565 36.953C5.28212 37.0919 4.85804 37.4639 4.863 37.9351C4.86796 38.2873 5.22012 39.495 5.80789 41.1641C5.92197 41.4865 5.96661 41.8213 5.94429 42.1586C5.91453 42.6 3.60812 55.2555 3.50892 55.7937V55.7961Z" fill="white"/>
<path d="M6.91148 39.9761C6.77012 39.9761 6.64364 39.9438 6.54444 39.8918C6.26916 39.7504 6.13276 39.4478 6.1898 39.1031C6.31628 38.3442 6.81972 37.9326 6.84204 37.9152C6.909 37.8631 7.00324 37.873 7.05532 37.94C7.1074 38.007 7.09748 38.1012 7.03052 38.1533C7.02556 38.1558 6.59652 38.5129 6.48988 39.1527C6.45516 39.3685 6.5246 39.5396 6.68084 39.619C6.89908 39.7306 7.33556 39.681 7.839 39.1726C8.66733 38.3393 8.32261 36.3602 8.31765 36.3404C8.30277 36.2585 8.35733 36.1792 8.44165 36.1643C8.52597 36.1494 8.60285 36.204 8.61773 36.2883C8.63261 36.3751 8.99221 38.4459 8.05477 39.3908C7.6282 39.8223 7.22396 39.9761 6.909 39.9761H6.91148Z" fill="white"/>
<path d="M58.4162 78.5949C57.2828 77.9525 56.8314 77.4342 56.4123 76.3678C56.4123 76.3678 54.0761 68.9625 52.2508 64.3174C51.5192 62.4574 49.8849 58.9755 48.2208 55.5382L42.3134 58.8366C42.2514 58.8713 42.1919 58.911 42.1349 58.9532C45.034 63.8016 50.3586 72.6875 50.924 73.5084C50.924 73.5084 53.8232 77.7938 53.6818 80.0184C53.5925 81.4246 54.1406 84.0162 56.2164 85.4719C56.6504 85.777 57.2158 85.3083 57.0001 84.8271C56.9976 84.8197 56.9926 84.8123 56.9901 84.8048C56.6677 84.1203 56.0924 83.2573 56.0924 83.2573C56.0924 83.2573 57.2257 83.2672 58.4112 84.2022C59.5966 85.1371 62.1163 86.8136 62.6371 86.2507C63.5324 85.2859 62.9992 81.1989 58.4162 78.5974V78.5949Z" fill="#14B8A6"/>
<path d="M62.3148 86.5111C61.1095 86.5111 58.446 84.4229 58.317 84.3213C57.5482 83.7161 56.7968 83.5103 56.395 83.4433C56.5934 83.7558 56.9133 84.2816 57.1291 84.7379L57.1415 84.7627C57.268 85.0479 57.1961 85.3604 56.953 85.5613C56.71 85.7621 56.3876 85.777 56.1321 85.596C53.8952 84.0286 53.4537 81.256 53.5331 80.0085C53.6695 77.8608 50.8299 73.6374 50.8001 73.5927C50.2371 72.7768 45.049 64.1191 42.006 59.0301C41.9663 58.9631 41.9837 58.8763 42.0457 58.8292C42.1102 58.7796 42.1746 58.7375 42.2416 58.7003L48.149 55.4019C48.1862 55.382 48.2283 55.3771 48.268 55.3895C48.3077 55.4019 48.3424 55.4316 48.3598 55.4688C50.4108 59.7047 51.7673 62.6608 52.3948 64.258C54.2002 68.8559 56.5364 76.2439 56.5587 76.3183C56.9679 77.3574 57.4019 77.8385 58.4906 78.4585C62.2553 80.5988 62.967 83.4756 63.096 84.3064C63.2349 85.2017 63.1034 85.9655 62.7463 86.3499C62.6446 86.459 62.4958 86.5086 62.3123 86.5086L62.3148 86.5111ZM56.09 83.1036C56.1396 83.1036 57.2903 83.1259 58.503 84.0832C60.125 85.3604 62.1734 86.5235 62.5231 86.1465C62.8133 85.8341 62.9174 85.1496 62.7934 84.3585C62.6694 83.5624 61.985 80.8021 58.3393 78.7288C57.1911 78.0766 56.7075 77.5384 56.2685 76.4249C56.2413 76.3406 53.91 68.9626 52.1071 64.3745C51.4896 62.8022 50.1578 59.9031 48.1515 55.7515L42.3854 58.9706C42.3706 58.9805 42.3532 58.9879 42.3383 58.9979C45.3887 64.0992 50.4951 72.6206 51.0506 73.4216C51.1721 73.6002 53.977 77.7765 53.8356 80.0284C53.7612 81.2163 54.1779 83.8575 56.3057 85.3455C56.4769 85.4645 56.6505 85.4125 56.7571 85.3257C56.8637 85.2389 56.9456 85.0777 56.8613 84.8892L56.8538 84.8718C56.5389 84.2047 55.9709 83.3516 55.966 83.3441C55.9337 83.297 55.9313 83.2375 55.9585 83.1879C55.9858 83.1383 56.0379 83.1085 56.0925 83.1085L56.09 83.1036Z" fill="white"/>
<path d="M12.1887 49.3753L13.4485 47.9617C15.5813 45.5933 18.2672 43.7903 21.2655 42.714L23.314 41.9775C23.4727 41.9204 35.1313 40.7226 39.0918 42.032C41.5644 42.8504 44.7983 44.7625 49.1954 53.6707C49.5203 54.3279 49.2599 55.1612 48.6176 55.5183L42.1695 59.1193C41.6091 59.4318 41.6214 60.1386 41.7058 60.7759L43.6228 71.1498C43.7319 71.745 43.479 72.3501 42.9706 72.6775C41.371 73.7092 36.7036 75.3113 26.4835 73.667C24.0903 73.2826 22.1682 71.4797 21.6251 69.1162L19.7527 60.9942C19.6362 60.3072 18.6962 59.9699 17.9671 59.8112C17.5579 59.7219 17.1388 59.7145 16.7221 59.7418C15.8417 59.8013 15.0085 59.2582 14.7282 58.3902L11.8762 51.1089C11.6456 50.5186 11.7671 49.8465 12.1912 49.3753H12.1887Z" fill="#14B8A6"/>
<path d="M34.4221 74.5227C32.2645 74.5227 29.6407 74.3292 26.4613 73.8184C23.9962 73.4216 22.0394 71.5888 21.4765 69.151L19.6041 61.0289C19.4949 60.3916 18.5129 60.0865 17.935 59.9625C17.5829 59.8857 17.2009 59.8658 16.7322 59.8981C15.765 59.965 14.8796 59.3649 14.582 58.4398L11.7325 51.1684C11.4771 50.5187 11.611 49.7945 12.0772 49.2762L13.3346 47.8626C15.4773 45.4818 18.2029 43.654 21.2136 42.5727L23.2621 41.8361C23.3365 41.8089 35.1041 40.554 39.1391 41.8907C41.7431 42.7513 44.9919 44.8171 49.3319 53.6088C49.694 54.3404 49.4063 55.258 48.6921 55.6572L42.2441 59.2582C41.7654 59.5261 41.7803 60.1684 41.8572 60.7611L43.7718 71.1275C43.8933 71.7897 43.6106 72.4519 43.0526 72.8115C42.2862 73.305 39.8335 74.5276 34.4197 74.5276L34.4221 74.5227ZM17.134 59.5757C17.4514 59.5757 17.7317 59.6054 17.9995 59.6625C18.7956 59.8361 19.7727 60.2031 19.9041 60.9694L21.7766 69.084C22.3098 71.4004 24.1698 73.1413 26.5109 73.5183C37.5593 75.294 41.8423 73.2281 42.8914 72.5511C43.3452 72.2584 43.5758 71.7203 43.4766 71.1796L41.5596 60.8057C41.4678 60.1039 41.4604 59.345 42.0978 58.9879L48.5458 55.3869C49.1187 55.067 49.3493 54.328 49.0592 53.7402C44.7687 45.0502 41.5894 43.0191 39.0449 42.1784C35.2281 40.9161 23.7854 42.0321 23.3538 42.1263L21.3178 42.8579C18.3517 43.9218 15.6708 45.7223 13.5628 48.0659L12.3054 49.4795C11.916 49.9111 11.8069 50.5162 12.0202 51.0568L14.8722 58.3381C15.1301 59.1367 15.8865 59.6501 16.7149 59.593C16.8637 59.5831 17.0025 59.5781 17.1365 59.5781L17.134 59.5757Z" fill="white"/>
<path d="M33.7027 58.73C33.6705 58.73 33.6382 58.72 33.6109 58.6977C30.9077 56.6294 30.0993 54.3527 30.067 54.2585C30.0397 54.1791 30.0819 54.0923 30.1613 54.0651C30.2406 54.0378 30.3274 54.0799 30.3547 54.1593C30.3621 54.1816 31.1681 56.4459 33.7945 58.4572C33.8614 58.5092 33.8738 58.6035 33.8218 58.6704C33.792 58.7101 33.7474 58.73 33.7002 58.73H33.7027Z" fill="white"/>
<path d="M24.0852 58.4051C24.0381 58.4051 23.9935 58.3852 23.9637 58.3431C21.9152 55.6225 21.7466 53.2144 21.7416 53.1152C21.7366 53.0309 21.8011 52.959 21.8854 52.954C21.9722 52.949 22.0417 53.0135 22.0466 53.0978C22.0466 53.1226 22.2178 55.5208 24.2092 58.162C24.2588 58.229 24.2464 58.3257 24.1794 58.3753C24.1522 58.3951 24.1199 58.4051 24.0877 58.4051H24.0852Z" fill="white"/>
<path d="M33.7554 47.4335C27.2553 50.3648 23.3369 44.5814 23.3369 44.5814C23.2277 44.4624 23.1087 44.3582 22.9797 44.269L23.0343 44.2491C23.1087 44.2218 23.1831 44.1946 23.255 44.1673C26.1591 43.0463 28.0042 40.1695 27.9323 37.0571L27.8926 35.269L32.7535 35.2169C32.7535 35.2169 32.8824 41.7617 35.1243 41.8113L36.3644 41.9576C37.2919 44.078 35.9353 46.4514 33.7554 47.4359V47.4335Z" fill="#14B8A6"/>
<path d="M30.1616 48.4106C25.9134 48.4106 23.3664 44.894 23.2151 44.6807C23.1184 44.574 23.0093 44.4798 22.8902 44.398C22.8431 44.3657 22.8183 44.3087 22.8258 44.2516C22.8332 44.1946 22.8729 44.1475 22.9274 44.1276L22.982 44.1078C23.0539 44.083 23.1283 44.0557 23.2002 44.0284C26.0101 42.9422 27.8503 40.1423 27.7808 37.0621L27.7411 35.274C27.7411 35.2343 27.756 35.1946 27.7833 35.1649C27.8106 35.1351 27.8503 35.1178 27.8924 35.1178L32.7533 35.0657C32.8351 35.0657 32.9045 35.1326 32.907 35.2145C32.9417 36.9951 33.4105 41.6203 35.1291 41.6575L36.384 41.8039C36.4385 41.8113 36.4832 41.8435 36.5055 41.8931C37.5273 44.2293 35.9425 46.6151 33.8197 47.5724C32.4928 48.1701 31.2727 48.4081 30.1641 48.4081L30.1616 48.4106ZM23.287 44.3211C23.3441 44.3732 23.3986 44.4252 23.4482 44.4823C23.4532 44.4872 23.4582 44.4922 23.4607 44.4996C23.4706 44.5145 24.4477 45.9356 26.1936 46.9846C28.5248 48.3833 31.047 48.4875 33.6907 47.2971C35.6549 46.4117 37.1329 44.2368 36.2575 42.099L35.1068 41.9651C32.9293 41.9179 32.6392 36.3925 32.6044 35.3732L28.0487 35.4203L28.0859 37.0546C28.1603 40.2638 26.2407 43.1803 23.3118 44.3112C23.3044 44.3136 23.297 44.3161 23.287 44.3211Z" fill="white"/>
<path d="M27.9148 35.5221L27.6668 32.2385C27.5452 30.6364 28.7927 29.26 30.3997 29.2253L34.6207 29.1335C34.6207 29.1335 34.9481 31.192 36.0492 32.1641L35.5557 33.0892L35.0696 34.7904C34.9629 35.1624 34.6604 35.4427 34.2809 35.5146H31.7364L27.9172 35.5196L27.9148 35.5221Z" fill="#14B8A6"/>
<path d="M27.9147 35.6758C27.8354 35.6758 27.7684 35.6138 27.7634 35.5344L27.5154 32.2509C27.4534 31.4325 27.7238 30.6488 28.2743 30.0412C28.8249 29.4361 29.5788 29.0914 30.3972 29.074L34.6182 28.9823C34.6926 28.9798 34.7595 29.0343 34.7719 29.1112C34.7744 29.1311 35.1043 31.1275 36.1508 32.05C36.2029 32.0972 36.2178 32.174 36.1855 32.236L35.6995 33.1462L35.2159 34.8326C35.0919 35.2641 34.7447 35.584 34.3082 35.6659C34.2983 35.6659 34.2883 35.6684 34.2809 35.6684H31.7364C31.6521 35.6684 31.5826 35.5989 31.5826 35.5171C31.5826 35.4328 31.6496 35.3633 31.7339 35.3633H34.2635C34.5785 35.2964 34.8315 35.0632 34.9207 34.7483L35.4068 33.047C35.4068 33.047 35.4143 33.0272 35.4192 33.0172L35.8557 32.1964C34.9406 31.3135 34.581 29.7535 34.4892 29.2898L30.3997 29.3791C29.6656 29.3939 28.991 29.7039 28.4975 30.2471C28.004 30.7902 27.761 31.4945 27.818 32.2286L28.066 35.5121C28.0734 35.5964 28.009 35.6684 27.9246 35.6758C27.9197 35.6758 27.9172 35.6758 27.9122 35.6758H27.9147Z" fill="white"/>
<path d="M30.9628 43.4432C30.8264 43.4432 30.6752 43.4259 30.5115 43.3837C30.4296 43.3639 30.38 43.2796 30.3999 43.1977C30.4197 43.1159 30.504 43.0663 30.5859 43.0861C31.2902 43.2647 31.6895 42.8976 31.692 42.8927C31.754 42.8356 31.8507 42.8381 31.9077 42.9001C31.9648 42.9621 31.9623 43.0588 31.9003 43.1159C31.8829 43.1332 31.5481 43.4408 30.9604 43.4408L30.9628 43.4432Z" fill="white"/>
<path d="M35.4588 28.8855L33.3359 30.0114C32.0909 30.6711 31.2353 31.8888 31.0394 33.2875C30.7666 35.2417 30.5335 38.6245 28.671 41.4814C27.2301 43.6911 24.7997 45.0576 22.1659 45.2238C20.4299 45.3329 18.3789 45.9901 17.2828 47.0987C17.2828 47.0987 13.7934 42.533 17.2976 38.5228C20.8044 34.5151 25.4147 34.7755 26.3224 30.5198C27.1929 26.4476 32.1554 23.4319 35.6596 27.8836C35.9176 28.2109 35.8208 28.6896 35.4538 28.8855H35.4588Z" fill="white"/>
<path d="M63.2623 37.9945C63.2623 37.9945 61.1716 38.0714 58.585 38.0614C58.0419 38.0614 56.5811 36.313 55.6462 36.6081C54.9741 36.8214 56.2463 37.9672 56.0703 37.9647C54.4136 37.9573 52.9826 37.9523 52.4643 37.9498C52.0576 37.9498 51.9212 38.364 52.0898 38.7335C52.3304 39.2618 52.8562 40.0628 53.7217 40.343C55.2717 40.8415 58.2651 40.6183 59.1901 40.4373C61.2138 40.0454 62.8159 40.0157 62.8159 40.0157L63.2623 37.9945Z" fill="#14B8A6"/>
<path d="M56.3975 40.8019C55.4155 40.8019 54.3987 40.7225 53.6745 40.4894C52.6626 40.1645 52.1319 39.1973 51.9509 38.798C51.8318 38.5376 51.8393 38.2524 51.9682 38.054C52.0749 37.8879 52.2559 37.7986 52.4642 37.8011C52.9553 37.8035 54.2647 37.8085 55.8123 37.8159C55.8048 37.8085 55.7999 37.7986 55.7924 37.7911C55.5494 37.4762 55.2146 37.0471 55.3138 36.7297C55.3411 36.6429 55.413 36.5263 55.6015 36.4668C56.2487 36.2634 57.0597 36.876 57.712 37.3695C58.0468 37.6225 58.4262 37.9102 58.5874 37.9127C61.1393 37.9226 63.2374 37.8457 63.2597 37.8457C63.3069 37.8457 63.3515 37.8631 63.3837 37.9003C63.4135 37.9375 63.4259 37.9846 63.416 38.0317L62.9696 40.0529C62.9547 40.1223 62.8927 40.1719 62.8233 40.1719C62.8084 40.1719 61.2063 40.2067 59.2223 40.5911C58.7139 40.6903 57.583 40.8043 56.4025 40.8043L56.3975 40.8019ZM52.4593 38.1036C52.3526 38.1036 52.2733 38.1433 52.2237 38.2177C52.1518 38.3293 52.1518 38.5079 52.2262 38.6715C52.3923 39.0336 52.871 39.9091 53.7663 40.1992C55.2915 40.6903 58.2799 40.4596 59.1578 40.2885C60.8566 39.9587 62.2776 39.8818 62.6893 39.8669L63.0663 38.1532C62.486 38.1706 60.688 38.2227 58.58 38.2127C58.3171 38.2127 57.9649 37.9449 57.521 37.6101C56.9258 37.1587 56.1818 36.5982 55.6858 36.7545C55.6114 36.7793 55.6015 36.8066 55.599 36.8165C55.5469 36.9802 55.8842 37.4142 56.028 37.6002C56.2066 37.8283 56.2735 37.9151 56.2165 38.0267C56.1892 38.0838 56.1297 38.1185 56.0652 38.1185C54.4086 38.1111 52.9776 38.1061 52.4593 38.1036Z" fill="white"/>
<path d="M59.7629 37.4935C61.5733 37.5407 65.8314 37.3919 67.5154 35.14C68.4131 36.2635 69.2415 37.4439 70.1541 38.5525C70.4145 38.8699 70.7419 38.9196 71.0246 38.8129C71.4189 39.6611 71.7413 40.539 72.0216 41.4343C67.503 42.2899 61.6402 41.6252 59.6513 41.3549C59.252 41.3004 58.9544 40.9631 58.9519 40.5588L58.9321 38.3095C58.9271 37.8531 59.3041 37.4811 59.7604 37.4935H59.7629Z" fill="white"/>
<path d="M35.7615 12.2272L37.1082 12.944C37.0536 13.5466 37.0486 14.1468 37.0958 14.7395L35.7442 15.4388C35.0746 15.7861 34.7373 16.5499 34.9282 17.279C35.1192 18.0081 35.7888 18.5066 36.5427 18.4818L38.0679 18.4297C38.3209 18.9729 38.6185 19.4937 38.9558 19.9872L38.1324 21.2743C37.7257 21.9092 37.815 22.74 38.3432 23.2757C38.8739 23.8114 39.7023 23.9081 40.3421 23.5088L41.6342 22.7028C42.1203 23.045 42.6386 23.3451 43.1842 23.6055L43.1148 25.1307C43.08 25.8822 43.5711 26.5592 44.2977 26.7576C45.0244 26.956 45.7907 26.6262 46.1453 25.9615L46.8621 24.6149C47.4647 24.6694 48.0649 24.6744 48.6576 24.6273L49.3569 25.9789C49.7041 26.6485 50.468 26.9858 51.1971 26.7948C51.9262 26.6039 52.4247 25.9343 52.3999 25.1803L52.3478 23.6551C52.891 23.4022 53.4118 23.1046 53.9053 22.7673L55.1924 23.5906C55.8273 23.9974 56.6581 23.9081 57.1938 23.3798C57.7295 22.8491 57.8262 22.0208 57.4269 21.381L56.6209 20.0889C56.9631 19.6028 57.2632 19.0845 57.5236 18.5389L59.0488 18.6083C59.8003 18.643 60.4773 18.152 60.6757 17.4253C60.8741 16.6987 60.5443 15.9324 59.8796 15.5777L58.533 14.861C58.5875 14.2584 58.5925 13.6582 58.5454 13.0655L59.897 12.3661C60.5666 12.0189 60.9039 11.2551 60.7129 10.5259C60.5219 9.79683 59.8523 9.29834 59.0984 9.32314L57.5732 9.37522C57.3203 8.8321 57.0227 8.3113 56.6854 7.81778L57.5087 6.53065C57.9155 5.89577 57.8262 5.06496 57.2979 4.52928C56.7672 3.9936 55.9389 3.89688 55.299 4.29616L54.007 5.10216C53.5209 4.75992 53.0026 4.45984 52.457 4.19944L52.5264 2.67423C52.5611 1.92279 52.0701 1.24575 51.3434 1.04735C50.6168 0.848947 49.8505 1.17879 49.4958 1.84343L48.7791 3.19008C48.1765 3.13552 47.5763 3.13056 46.9836 3.17768L46.2842 1.82607C45.937 1.15647 45.1732 0.819186 44.444 1.01015C43.7149 1.20111 43.2164 1.87071 43.2412 2.62463L43.2933 4.14984C42.7502 4.4028 42.2294 4.69792 41.7359 5.03768L40.4487 4.21432C39.8139 3.8076 38.9831 3.89688 38.4474 4.42512C37.9117 4.95584 37.815 5.78417 38.2143 6.42401L39.0203 7.7161C38.678 8.20218 38.3779 8.7205 38.1175 9.2661L36.5923 9.19666C35.8409 9.16194 35.1638 9.65298 34.9654 10.3796C34.767 11.1063 35.0969 11.8726 35.7615 12.2272ZM39.5708 11.642C40.8183 7.08617 45.5228 4.40528 50.0761 5.65273C54.6319 6.90017 57.3128 11.6048 56.0654 16.1581C54.8179 20.7138 50.1133 23.3947 45.56 22.1473C41.0043 20.8998 38.3234 16.1953 39.5708 11.642Z" fill="#14B8A6"/>
<path d="M50.7853 26.9982C50.1405 26.9982 49.5354 26.6435 49.2254 26.0459L48.5707 24.7835C48.0399 24.8207 47.4968 24.8158 46.9512 24.7711L46.2816 26.0285C45.8923 26.7626 45.059 27.1197 44.2579 26.9015C43.4569 26.6832 42.9237 25.9491 42.9609 25.1208L43.0254 23.6973C42.5343 23.4592 42.0656 23.1839 41.6266 22.8839L40.4214 23.6378C39.717 24.0767 38.8168 23.9726 38.234 23.3823C37.6512 22.7921 37.5545 21.8918 38.0033 21.1925L38.7721 19.9922C38.4721 19.5458 38.2042 19.0746 37.9711 18.5885L36.5451 18.6381C35.7143 18.6678 34.9876 18.1247 34.7793 17.3237C34.5685 16.5201 34.9356 15.6918 35.6746 15.3099L36.9369 14.6552C36.8997 14.1245 36.9047 13.5813 36.9493 13.0357L35.692 12.3661C34.9579 11.9768 34.6008 11.1435 34.819 10.3424C35.0372 9.5414 35.7689 9.00819 36.5997 9.04539L38.0232 9.10987C38.2613 8.61883 38.5365 8.15011 38.8366 7.71115L38.0827 6.50586C37.6437 5.80154 37.7479 4.9013 38.3381 4.31849C38.9284 3.73569 39.8286 3.63897 40.528 4.08537L41.7283 4.85418C42.1747 4.55409 42.6459 4.28625 43.132 4.05313L43.0824 2.62713C43.0526 1.79632 43.5958 1.06968 44.3968 0.861359C45.2003 0.650558 46.0287 1.0176 46.4106 1.75664L47.0653 3.01897C47.596 2.98177 48.1391 2.98673 48.6847 3.03137L49.3544 1.774C49.7437 1.03992 50.577 0.682798 51.378 0.901039C52.1791 1.11928 52.7123 1.85336 52.6751 2.68169L52.6106 4.10521C53.1016 4.34329 53.5704 4.61857 54.0093 4.91866L55.2146 4.16473C55.9189 3.72577 56.8192 3.82993 57.402 4.42017C57.9848 5.01042 58.0815 5.91066 57.6351 6.61002L56.8663 7.81035C57.1664 8.25675 57.4342 8.72795 57.6673 9.21403L59.0933 9.16443C59.9266 9.13715 60.6508 9.6778 60.8591 10.4788C61.0699 11.2824 60.7029 12.1107 59.9638 12.4926L58.7015 13.1473C58.7387 13.6781 58.7337 14.2212 58.6891 14.7668L59.9465 15.4364C60.6806 15.8257 61.0377 16.659 60.8194 17.4601C60.6012 18.2611 59.8646 18.7943 59.0388 18.7571L57.6153 18.6926C57.3772 19.1837 57.1019 19.6524 56.8018 20.0914L57.5557 21.2966C57.9947 22.001 57.8905 22.9012 57.3003 23.484C56.7101 24.0668 55.8098 24.1635 55.1105 23.7171L53.9101 22.9483C53.4637 23.2484 52.9925 23.5163 52.5064 23.7494L52.556 25.1754C52.5858 26.0062 52.0427 26.7328 51.2416 26.9411C51.0904 26.9808 50.9391 27.0007 50.7878 27.0007L50.7853 26.9982ZM48.6599 24.4711C48.717 24.4711 48.7691 24.5033 48.7963 24.5529L49.4957 25.9045C49.8107 26.5146 50.4952 26.8171 51.1598 26.6435C51.8244 26.4699 52.2708 25.8698 52.2485 25.1828L52.1964 23.6576C52.1964 23.5956 52.2287 23.5411 52.2857 23.5138C52.8189 23.2658 53.3372 22.9707 53.8208 22.6383C53.8704 22.6036 53.9374 22.6036 53.9895 22.6359L55.2766 23.4592C55.8545 23.8287 56.6009 23.7494 57.087 23.2683C57.5756 22.7847 57.6624 22.0406 57.2978 21.4578L56.4918 20.1658C56.4596 20.1137 56.4621 20.0467 56.4968 19.9971C56.8316 19.5234 57.1292 19.0076 57.3871 18.467C57.4144 18.4124 57.4714 18.3777 57.5309 18.3802L59.0561 18.4496C59.7406 18.4818 60.3482 18.0404 60.5293 17.3782C60.7103 16.7161 60.4127 16.0291 59.8076 15.7042L58.4609 14.9875C58.4064 14.9577 58.3741 14.9007 58.3816 14.8387C58.4361 14.2435 58.4386 13.6483 58.394 13.0705C58.389 13.0085 58.4213 12.9514 58.4758 12.9241L59.8274 12.2248C60.4375 11.9098 60.7401 11.2253 60.5665 10.5607C60.3929 9.89604 59.7952 9.44964 59.1057 9.47196L57.5805 9.52404C57.5185 9.52404 57.464 9.4918 57.4367 9.43476C57.1887 8.90155 56.8936 8.38323 56.5613 7.89963C56.5265 7.85003 56.5265 7.78307 56.5588 7.73099L57.3821 6.44386C57.7517 5.86602 57.6723 5.11954 57.1912 4.63345C56.7076 4.14489 55.9636 4.05809 55.3808 4.42265L54.0887 5.22866C54.0366 5.2609 53.9696 5.25842 53.92 5.2237C53.4439 4.8889 52.9305 4.59129 52.3899 4.33337C52.3353 4.30609 52.3006 4.24905 52.3031 4.18953L52.3725 2.66433C52.4048 1.97736 51.9633 1.37224 51.3012 1.1912C50.639 1.01016 49.952 1.30528 49.6271 1.91288L48.9104 3.25953C48.8807 3.31409 48.8211 3.34633 48.7616 3.33889C48.1664 3.28433 47.5712 3.28185 46.9934 3.32649C46.9314 3.33145 46.8743 3.29921 46.8471 3.24465L46.1477 1.89304C45.8327 1.28296 45.1483 0.980399 44.4836 1.154C43.819 1.3276 43.3726 1.92776 43.3949 2.61473L43.447 4.13993C43.447 4.20193 43.4147 4.25897 43.3577 4.28377C42.8245 4.53177 42.3086 4.8269 41.8226 5.15922C41.773 5.19394 41.706 5.19394 41.6539 5.1617L40.3668 4.33833C39.7889 3.96881 39.0425 4.04817 38.5564 4.52929C38.0678 5.0129 37.981 5.7569 38.3456 6.3397L39.1516 7.63179C39.1838 7.68387 39.1813 7.75083 39.1466 7.80043C38.8118 8.27659 38.5142 8.78995 38.2563 9.3306C38.229 9.38516 38.172 9.41988 38.1125 9.4174L36.5873 9.34796C35.9003 9.31572 35.2952 9.75716 35.1141 10.4193C34.9331 11.0815 35.2307 11.7684 35.8358 12.0933L37.1825 12.81C37.237 12.8398 37.2693 12.8968 37.2618 12.9589C37.2073 13.5541 37.2048 14.1493 37.2494 14.7271C37.2544 14.7891 37.2221 14.8461 37.1676 14.8734L35.816 15.5728C35.2059 15.8877 34.9033 16.5722 35.0769 17.2369C35.2505 17.9015 35.8507 18.3479 36.5377 18.3256L38.0629 18.2735C38.1249 18.2735 38.1819 18.3058 38.2067 18.3628C38.4547 18.896 38.7498 19.4143 39.0821 19.8979C39.1169 19.9475 39.1169 20.0145 39.0846 20.0666L38.2613 21.3537C37.8917 21.9315 37.9711 22.678 38.4522 23.1641C38.9358 23.6527 39.6798 23.7395 40.2626 23.3749L41.5547 22.5689C41.6068 22.5366 41.6738 22.5391 41.7234 22.5739C42.197 22.9087 42.7129 23.2063 43.2535 23.4642C43.3081 23.4915 43.3428 23.5485 43.3403 23.608L43.2709 25.1332C43.2386 25.8202 43.6801 26.4253 44.3422 26.6063C45.0044 26.7874 45.6914 26.4923 46.0138 25.8847L46.7305 24.538C46.7603 24.4835 46.8173 24.4512 46.8793 24.4587C47.4745 24.5132 48.0697 24.5157 48.6475 24.4711C48.6525 24.4711 48.655 24.4711 48.6599 24.4711ZM47.8341 22.6086C47.0628 22.6086 46.2866 22.5044 45.5227 22.2961C40.8926 21.0288 38.1596 16.2325 39.4269 11.6023C40.6942 6.97211 45.4905 4.23913 50.1207 5.50642C52.3626 6.12146 54.2325 7.56979 55.3833 9.591C56.534 11.6097 56.8316 13.9583 56.2165 16.2002C55.6015 18.4422 54.1532 20.3121 52.132 21.4628C50.8002 22.2217 49.3271 22.6086 47.8341 22.6086ZM39.7195 11.6816C38.4969 16.1481 41.1356 20.7783 45.6021 22.001C47.7671 22.5937 50.0314 22.3085 51.9807 21.1974C53.93 20.0864 55.3287 18.2834 55.9214 16.1184C56.5141 13.9533 56.2289 11.6891 55.1179 9.7398C54.0068 7.79051 52.2039 6.39178 50.0388 5.79906C45.5723 4.57641 40.9422 7.21515 39.7195 11.6816Z" fill="white"/>
<mask id="mask1_242_4819" style="mask-type:luminance" maskUnits="userSpaceOnUse" x="40" y="6" width="16" height="16">
<path d="M40.1636 13.8815C40.1636 9.65801 43.5885 6.2356 47.8094 6.2356C52.0304 6.2356 55.4553 9.66049 55.4553 13.8815C55.4553 18.1024 52.0304 21.5298 47.8094 21.5298C43.5885 21.5298 40.1636 18.1049 40.1636 13.8815Z" fill="white"/>
</mask>
<g mask="url(#mask1_242_4819)">
<path d="M53.8978 19.2977C52.3503 20.7733 50.2621 21.6835 47.9557 21.6959C45.6493 21.7083 43.5512 20.818 41.9888 19.3597C43.7843 18.7943 45.803 18.4694 47.9383 18.4595C50.0736 18.4471 52.0973 18.7521 53.8978 19.2977Z" fill="white"/>
<path d="M42.8767 13.4202C43.6306 10.7021 45.188 7.1358 48.107 7.57476C50.907 7.99637 52.2238 11.0666 52.8314 13.4474C53.1985 14.8958 52.0949 16.3019 50.5994 16.3094L45.1186 16.3391C43.5909 16.3466 42.47 14.8933 42.8767 13.4202Z" fill="white"/>
<path d="M45.2922 10.2607L45.2972 10.2408L50.2746 10.2036C50.2746 10.2036 50.2746 10.2111 50.2771 10.216C50.3415 10.464 50.3787 10.7244 50.3787 10.9972L50.3862 12.453C50.3911 13.4276 49.9348 14.2882 49.2379 14.7916L49.2578 18.5935C49.2627 19.3499 48.6526 19.9674 47.8938 19.9699C47.1374 19.9749 46.5198 19.3648 46.5174 18.6059L46.4975 14.8586C45.751 14.3725 45.2501 13.4896 45.2451 12.4778L45.2377 10.8335C45.2377 10.6351 45.255 10.4442 45.2922 10.2582V10.2607Z" fill="#14B8A6"/>
<path d="M47.8889 20.1236C47.4846 20.1236 47.1052 19.9674 46.8175 19.6822C46.5274 19.397 46.3686 19.015 46.3662 18.6083L46.3463 14.9032C46.3463 14.8189 46.4133 14.7494 46.4976 14.7494C46.5819 14.7494 46.6489 14.8164 46.6514 14.9007L46.6712 18.6058C46.6712 18.9307 46.8002 19.2358 47.0333 19.4639C47.2639 19.6921 47.5665 19.8161 47.8889 19.8161C47.8889 19.8161 47.8938 19.8161 47.8963 19.8161C48.2212 19.8161 48.5262 19.6871 48.7544 19.454C48.9826 19.2234 49.109 18.9158 49.1066 18.591L49.0867 14.9007C49.0867 14.8164 49.1537 14.7469 49.238 14.7469C49.3223 14.7469 49.3893 14.8139 49.3918 14.8982L49.4116 18.5885C49.4116 18.9952 49.2578 19.3796 48.9702 19.6673C48.685 19.9575 48.303 20.1162 47.8963 20.1187C47.8938 20.1187 47.8914 20.1187 47.8889 20.1187V20.1236Z" fill="white"/>
<path d="M47.8095 13.6186C47.4921 13.6186 47.1945 13.4921 46.9762 13.259C46.9192 13.1969 46.9217 13.1002 46.9812 13.0432C47.0432 12.9861 47.1399 12.9886 47.1969 13.0481C47.3581 13.2193 47.5764 13.311 47.8095 13.311C47.8095 13.311 47.812 13.311 47.8145 13.311C48.0501 13.311 48.2658 13.2143 48.427 13.0432C48.4841 12.9812 48.5808 12.9787 48.6428 13.0357C48.7048 13.0928 48.7073 13.1895 48.6502 13.2515C48.4369 13.4822 48.1319 13.6161 47.8169 13.6161H47.812L47.8095 13.6186Z" fill="white"/>
<path d="M47.8194 15.4091C46.324 15.4091 45.1038 14.0997 45.0964 12.4802L45.0889 10.836C45.084 10.0771 45.3543 9.36286 45.8453 8.82222C46.3413 8.2791 47.0035 7.97654 47.7103 7.97406C48.4642 7.9691 49.171 8.28406 49.7042 8.85694C50.235 9.42734 50.5301 10.1862 50.5326 10.9947L50.54 12.4505C50.545 13.5987 49.9274 14.6527 48.9627 15.1363C48.8883 15.1735 48.7966 15.1438 48.7569 15.0694C48.7197 14.995 48.7494 14.9032 48.8238 14.8635C49.6844 14.432 50.2374 13.4846 50.2325 12.453L50.225 10.9972C50.2201 10.2656 49.9547 9.57862 49.4786 9.06526C49.0024 8.55438 48.3725 8.27662 47.7103 8.2791C47.0903 8.28158 46.5075 8.54942 46.071 9.02806C45.6296 9.51166 45.389 10.154 45.394 10.836L45.4014 12.4802C45.4089 13.931 46.4926 15.1041 47.8194 15.1041C47.8244 15.1041 47.8293 15.1041 47.8318 15.1041C47.9161 15.1041 47.9831 15.171 47.9856 15.2554C47.9856 15.3397 47.9186 15.4091 47.8343 15.4091C47.8293 15.4091 47.8244 15.4091 47.8219 15.4091H47.8194Z" fill="white"/>
</g>
<path d="M47.8392 21.7158C47.0258 21.7158 46.1974 21.5868 45.384 21.3165C43.6232 20.7287 42.1302 19.5309 41.1754 17.9437C41.1332 17.8717 41.1556 17.7775 41.2275 17.7353C41.2994 17.6932 41.3937 17.7155 41.4358 17.7874C42.3509 19.3126 43.7869 20.4634 45.4782 21.0288C49.3892 22.3333 53.6325 20.2129 54.937 16.3019C56.2415 12.3909 54.1211 8.14762 50.2101 6.84314C48.3154 6.21074 46.2892 6.35458 44.5011 7.24738C42.7155 8.14018 41.3837 9.67531 40.7513 11.57C40.3173 12.872 40.2479 14.2633 40.5529 15.5951C40.5728 15.6769 40.5207 15.7588 40.4388 15.7786C40.357 15.7985 40.2752 15.7464 40.2553 15.6645C39.9379 14.2782 40.0098 12.8299 40.4612 11.4758C41.1184 9.50419 42.5047 7.90706 44.3647 6.97706C46.2247 6.04705 48.3352 5.89825 50.3068 6.55546C54.3765 7.91202 56.5862 12.3289 55.2271 16.4011C54.1409 19.6574 51.0979 21.7232 47.8392 21.7232V21.7158Z" fill="white"/>
<path d="M18.7137 6.73153C18.6765 6.73153 18.6368 6.71665 18.6071 6.68937C18.5451 6.62985 18.5451 6.53561 18.6021 6.47361L19.1626 5.88833C19.2221 5.82633 19.3164 5.82633 19.3784 5.88337C19.4404 5.94289 19.4404 6.03713 19.3833 6.09913L18.8228 6.68441C18.7931 6.71665 18.7534 6.73153 18.7137 6.73153Z" fill="white"/>
<path d="M16.7496 8.78255C16.7124 8.78255 16.6727 8.76768 16.643 8.74039C16.581 8.68087 16.581 8.58663 16.638 8.52463L17.1985 7.93935C17.258 7.87735 17.3547 7.87735 17.4142 7.93439C17.4762 7.99391 17.4762 8.08815 17.4192 8.15015L16.8587 8.73543C16.829 8.76767 16.7893 8.78255 16.7496 8.78255Z" fill="white"/>
<path d="M17.3001 6.7638C17.2605 6.7638 17.2233 6.74892 17.1935 6.71916L16.6231 6.15867C16.5636 6.09915 16.5611 6.00243 16.6231 5.94291C16.6826 5.88339 16.7793 5.88091 16.8388 5.94291L17.4093 6.5034C17.4688 6.56292 17.4713 6.65964 17.4093 6.71916C17.3795 6.74892 17.3398 6.7638 17.3001 6.7638Z" fill="white"/>
<path d="M19.294 8.72791C19.2543 8.72791 19.2171 8.71303 19.1874 8.68327L18.617 8.12279C18.5575 8.06327 18.555 7.96655 18.617 7.90703C18.6765 7.8475 18.7732 7.84502 18.8327 7.90703L19.4031 8.46751C19.4627 8.52703 19.4651 8.62375 19.4031 8.68327C19.3734 8.71303 19.3337 8.72791 19.294 8.72791Z" fill="white"/>
<path d="M107.049 7.75826C107.012 7.75826 106.972 7.74338 106.943 7.7161C106.881 7.65658 106.881 7.56234 106.938 7.50034L107.498 6.91506C107.555 6.85306 107.652 6.85306 107.714 6.9101C107.776 6.96962 107.776 7.06386 107.719 7.12586L107.158 7.71114C107.129 7.74338 107.089 7.75826 107.049 7.75826Z" fill="white"/>
<path d="M105.083 9.80929C105.045 9.80929 105.006 9.79441 104.976 9.76713C104.914 9.70761 104.914 9.61337 104.971 9.55137L105.531 8.96608C105.591 8.90408 105.688 8.90408 105.747 8.96112C105.809 9.02065 105.809 9.11489 105.752 9.17689L105.192 9.76217C105.162 9.79441 105.122 9.80929 105.083 9.80929Z" fill="white"/>
<path d="M105.633 7.78797C105.593 7.78797 105.556 7.77309 105.527 7.74333L104.956 7.18284C104.897 7.12332 104.894 7.0266 104.956 6.96708C105.016 6.90756 105.112 6.90508 105.172 6.96708L105.742 7.52757C105.802 7.58709 105.804 7.68381 105.742 7.74333C105.713 7.77309 105.673 7.78797 105.633 7.78797Z" fill="white"/>
<path d="M107.629 9.7522C107.59 9.7522 107.553 9.73732 107.523 9.70756L106.952 9.14708C106.893 9.08756 106.89 8.99084 106.952 8.93132C107.012 8.8718 107.109 8.86932 107.168 8.93132L107.739 9.4918C107.798 9.55132 107.801 9.64804 107.739 9.70756C107.709 9.73732 107.669 9.7522 107.629 9.7522Z" fill="white"/>
<path d="M109.497 97.5123C109.415 97.5123 109.346 97.4453 109.343 97.3635L109.326 96.5525C109.326 96.4682 109.391 96.3988 109.475 96.3963C109.559 96.3938 109.629 96.4608 109.631 96.5451L109.648 97.3561C109.648 97.4404 109.584 97.5098 109.5 97.5123C109.5 97.5123 109.5 97.5123 109.497 97.5123Z" fill="white"/>
<path d="M109.559 100.352C109.477 100.352 109.408 100.285 109.405 100.203L109.388 99.3921C109.388 99.3078 109.453 99.2384 109.537 99.2359C109.621 99.2334 109.691 99.3004 109.693 99.3847L109.71 100.196C109.71 100.28 109.646 100.349 109.562 100.352C109.562 100.352 109.562 100.352 109.559 100.352Z" fill="white"/>
<path d="M107.722 98.5415C107.637 98.5415 107.57 98.4745 107.568 98.3902C107.568 98.3059 107.635 98.2365 107.719 98.2365L108.518 98.229C108.602 98.229 108.669 98.296 108.671 98.3803C108.671 98.4646 108.604 98.534 108.52 98.534L107.722 98.5415Z" fill="white"/>
<path d="M110.519 98.5191C110.435 98.5191 110.368 98.4522 110.365 98.3679C110.365 98.2836 110.432 98.2141 110.516 98.2141L111.315 98.2067C111.394 98.2067 111.469 98.2736 111.469 98.3579C111.469 98.4423 111.402 98.5117 111.317 98.5117L110.519 98.5191Z" fill="white"/>
<path d="M7.01061 21.8398C6.79733 21.8398 6.58405 21.8001 6.37821 21.7207C5.93181 21.5471 5.57965 21.2074 5.38869 20.761C4.99685 19.8508 5.40357 18.7869 6.29637 18.3851C6.72541 18.1917 7.20406 18.1793 7.64302 18.3504C8.08942 18.524 8.44158 18.8638 8.63254 19.3102C9.02438 20.2203 8.61766 21.2842 7.72486 21.686C7.4967 21.7877 7.25366 21.8398 7.01061 21.8398ZM7.01061 18.5364C6.80973 18.5364 6.61133 18.5786 6.42285 18.6629C5.68133 18.9952 5.34405 19.883 5.67141 20.6394C5.83013 21.009 6.12277 21.2917 6.49229 21.4355C6.85437 21.5769 7.2487 21.567 7.60334 21.4058C8.34486 21.0734 8.68214 20.1856 8.35478 19.4292C8.19606 19.0597 7.90342 18.777 7.5339 18.6331C7.36526 18.5686 7.18918 18.5339 7.01309 18.5339L7.01061 18.5364Z" fill="white"/>
<path d="M116.448 92.2076C116.24 92.2076 116.029 92.1679 115.828 92.0911C115.389 91.9199 115.045 91.5851 114.856 91.1487C114.472 90.2558 114.871 89.2093 115.747 88.8174C116.168 88.629 116.637 88.6166 117.068 88.7827C117.507 88.9538 117.852 89.2886 118.041 89.7251C118.425 90.6179 118.026 91.6645 117.15 92.0563C116.925 92.158 116.687 92.2076 116.448 92.2076ZM115.871 89.0952C115.146 89.4201 114.817 90.2881 115.137 91.0271C115.293 91.3892 115.578 91.6645 115.938 91.8059C116.292 91.9423 116.677 91.9323 117.024 91.7786C117.748 91.4537 118.078 90.5857 117.758 89.8466C117.602 89.4846 117.316 89.2093 116.957 89.0679C116.602 88.9315 116.218 88.9414 115.871 89.0952Z" fill="white"/>
<path d="M13.3048 117.653C13.0717 117.653 12.8361 117.608 12.6129 117.521C12.1243 117.33 11.7375 116.958 11.5267 116.47C11.0951 115.473 11.5415 114.302 12.5212 113.863C12.9924 113.652 13.5156 113.637 13.9968 113.826C14.4853 114.017 14.8722 114.389 15.083 114.877C15.5145 115.874 15.0681 117.045 14.0885 117.484C13.838 117.595 13.5727 117.653 13.3048 117.653ZM13.3048 113.999C13.0816 113.999 12.8584 114.047 12.6476 114.141C11.8193 114.513 11.4423 115.502 11.8094 116.348C11.9879 116.76 12.3128 117.077 12.7245 117.236C13.1288 117.392 13.5677 117.382 13.9645 117.204C14.7928 116.832 15.1698 115.842 14.8028 114.996C14.6242 114.585 14.2993 114.267 13.8876 114.109C13.6992 114.034 13.5008 113.999 13.3048 113.999Z" fill="white"/>
<path d="M10.9043 11.7486C10.7604 11.7486 10.6166 11.7213 10.4777 11.6668C10.1752 11.5502 9.93956 11.3196 9.80812 11.0195C9.54276 10.4069 9.81804 9.68524 10.4207 9.41492C10.7108 9.28348 11.0332 9.27604 11.3308 9.3926C11.6334 9.50916 11.869 9.7398 12.0005 10.0399C12.2658 10.6524 11.9905 11.3741 11.3879 11.6444C11.2341 11.7139 11.0704 11.7486 10.9043 11.7486ZM10.9043 9.61828C10.7828 9.61828 10.6612 9.64308 10.5472 9.69516C10.0958 9.89852 9.88996 10.4392 10.0908 10.9004C10.1876 11.1261 10.3661 11.2972 10.5893 11.384C10.81 11.4684 11.0481 11.4634 11.2639 11.3667C11.7153 11.1633 11.9211 10.6227 11.7202 10.1614C11.6235 9.93572 11.4449 9.7646 11.2217 9.6778C11.12 9.63812 11.0109 9.61828 10.9043 9.61828Z" fill="white"/>
<path d="M86.4454 17.6833C86.4082 17.6833 86.3685 17.6684 86.3388 17.6412C86.2768 17.5816 86.2768 17.4874 86.3338 17.4254L86.8943 16.8401C86.9538 16.7781 87.048 16.7781 87.11 16.8351C87.172 16.8947 87.172 16.9889 87.115 17.0509L86.5545 17.6362C86.5248 17.6684 86.4851 17.6833 86.4454 17.6833Z" fill="white"/>
<path d="M84.4812 19.7343C84.444 19.7343 84.4043 19.7195 84.3745 19.6922C84.3125 19.6327 84.3125 19.5384 84.3696 19.4764L84.9301 18.8911C84.9896 18.8291 85.0838 18.8291 85.1458 18.8862C85.2078 18.9457 85.2078 19.0399 85.1508 19.1019L84.5903 19.6872C84.5605 19.7195 84.5208 19.7343 84.4812 19.7343Z" fill="white"/>
<path d="M85.0318 17.713C84.9921 17.713 84.9549 17.6981 84.9252 17.6684L84.3548 17.1079C84.2953 17.0484 84.2928 16.9517 84.3548 16.8921C84.4143 16.8326 84.511 16.8301 84.5705 16.8921L85.1409 17.4526C85.2005 17.5121 85.2029 17.6089 85.1409 17.6684C85.1112 17.6981 85.0715 17.713 85.0318 17.713Z" fill="white"/>
<path d="M87.0257 19.6773C86.986 19.6773 86.9488 19.6624 86.9191 19.6326L86.3487 19.0721C86.2892 19.0126 86.2867 18.9159 86.3487 18.8564C86.4082 18.7968 86.5049 18.7944 86.5644 18.8564L87.1348 19.4168C87.1944 19.4764 87.1968 19.5731 87.1348 19.6326C87.1051 19.6624 87.0654 19.6773 87.0257 19.6773Z" fill="white"/>
<path d="M8.15886 110.545C7.41237 110.545 6.80725 109.937 6.80725 109.193C6.80725 108.449 7.41485 107.842 8.15886 107.842C8.90286 107.842 9.51046 108.449 9.51046 109.193C9.51046 109.937 8.90286 110.545 8.15886 110.545ZM8.15886 108.144C7.58101 108.144 7.11229 108.613 7.11229 109.191C7.11229 109.769 7.58101 110.237 8.15886 110.237C8.7367 110.237 9.20542 109.769 9.20542 109.191C9.20542 108.613 8.7367 108.144 8.15886 108.144Z" fill="white"/>
</svg>
